<svg version="1.1" xmlns="http://www.w3.org/2000/svg" xmlns:xlink="http://www.w3.org/1999/xlink" width="8.921535922737057in" height="3in" viewBox="0 0 8.971535922737058 3.05"><g fill="none" fill-rule="none" stroke="none" stroke-width="none" stroke-linecap="butt" stroke-linejoin="miter" stroke-miterlimit="10" stroke-dasharray="" stroke-dashoffset="0" font-family="none" font-weight="none" font-size="none" text-anchor="none" style="mix-blend-mode: normal"><path d="M0,3v-3h3v3z" fill="none" fill-rule="nonzero" stroke="none" stroke-width="1"></path><path d="M7.51419,0.4616c-2.01665,0.39293 -4.09019,0.39293 -6.10684,0l-0.28706,1.47331c2.20624,0.42987 4.47472,0.42987 6.68096,0zM8.04565,0.57774c0.05261,-0.01369 0.10635,0.01787 0.12004,0.07047c0.01369,0.05261 -0.01787,0.10635 -0.07047,0.12004c-0.05261,0.01369 -0.10635,-0.01787 -0.12004,-0.07047c-0.01369,-0.05261 0.01787,-0.10635 0.07047,-0.12004zM8.23571,1.41399c0.05261,-0.01369 0.10635,0.01787 0.12004,0.07047c0.01369,0.05261 -0.01787,0.10635 -0.07047,0.12004c-0.05261,0.01369 -0.10635,-0.01787 -0.12004,-0.07047c-0.01369,-0.05261 0.01787,-0.10635 0.07047,-0.12004zM0.63627,1.41399c0.05261,-0.01369 0.10635,0.01787 0.12004,0.07047c0.01369,0.05261 -0.01787,0.10635 -0.07047,0.12004c-0.05261,0.01369 -0.10635,-0.01787 -0.12004,-0.07047c-0.01369,-0.05261 0.01787,-0.10635 0.07047,-0.12004zM0.82632,0.57774c0.05261,-0.01369 0.10635,0.01787 0.12004,0.07047c0.01369,0.05261 -0.01787,0.10635 -0.07047,0.12004c-0.05261,0.01369 -0.10635,-0.01787 -0.12004,-0.07047c-0.01369,-0.05261 0.01787,-0.10635 0.07047,-0.12004z" fill="#d3d3d3" fill-rule="nonzero" stroke="none" stroke-width="10"></path><path d="M8.41772,0c-2.59478,0.67506 -5.31912,0.67506 -7.91391,0l-0.50381,1.93655c2.92516,0.76101 5.99638,0.76101 8.92154,0z" fill="#d3d3d3" fill-rule="evenodd" stroke="#ff0000" stroke-width="0.005"></path></g></svg>