<svg version="1.1" xmlns="http://www.w3.org/2000/svg" xmlns:xlink="http://www.w3.org/1999/xlink" width="3.000000000000014in" height="3.000000000000206in" viewBox="-1.354472090042691e-14 -2.049471703458039e-13 3.050000000000014 3.050000000000206"><g fill="none" fill-rule="none" stroke="none" stroke-width="none" stroke-linecap="butt" stroke-linejoin="miter" stroke-miterlimit="10" stroke-dasharray="" stroke-dashoffset="0" font-family="none" font-weight="none" font-size="none" text-anchor="none" style="mix-blend-mode: normal"><path d="M0,3v-3h3v3z" fill="none" fill-rule="nonzero" stroke="none" stroke-width="1"></path><path d="M1.38651,1.56782c0,-0.02209 0.01791,-0.04 0.04,-0.04c0.02209,0 0.04,0.01791 0.04,0.04c0,0.02209 -0.01791,0.04 -0.04,0.04c-0.02209,0 -0.04,-0.01791 -0.04,-0.04zM1.47134,1.35903c0,-0.02209 0.01791,-0.04 0.04,-0.04c0.02209,0 0.04,0.01791 0.04,0.04c0,0.02209 -0.01791,0.04 -0.04,0.04c-0.02209,0 -0.04,-0.01791 -0.04,-0.04zM1.56687,1.6363c0,-0.02209 0.01791,-0.04 0.04,-0.04c0.02209,0 0.04,0.01791 0.04,0.04c0,0.02209 -0.01791,0.04 -0.04,0.04c-0.02209,0 -0.04,-0.01791 -0.04,-0.04zM1.26257,1.46802c0,-0.02209 0.01791,-0.04 0.04,-0.04c0.02209,0 0.04,0.01791 0.04,0.04c0,0.02209 -0.01791,0.04 -0.04,0.04c-0.02209,0 -0.04,-0.01791 -0.04,-0.04zM1.64646,1.37658c0,-0.02209 0.01791,-0.04 0.04,-0.04c0.02209,0 0.04,0.01791 0.04,0.04c0,0.02209 -0.01791,0.04 -0.04,0.04c-0.02209,0 -0.04,-0.01791 -0.04,-0.04zM1.40157,1.73788c0,-0.02209 0.01791,-0.04 0.04,-0.04c0.02209,0 0.04,0.01791 0.04,0.04c0,0.02209 -0.01791,0.04 -0.04,0.04c-0.02209,0 -0.04,-0.01791 -0.04,-0.04zM1.33214,1.26837c0,-0.02209 0.01791,-0.04 0.04,-0.04c0.02209,0 0.04,0.01791 0.04,0.04c0,0.02209 -0.01791,0.04 -0.04,0.04c-0.02209,0 -0.04,-0.01791 -0.04,-0.04zM1.72838,1.58928c0,-0.02209 0.01791,-0.04 0.04,-0.04c0.02209,0 0.04,0.01791 0.04,0.04c0,0.02209 -0.01791,0.04 -0.04,0.04c-0.02209,0 -0.04,-0.01791 -0.04,-0.04zM1.18658,1.62345c0,-0.02209 0.01791,-0.04 0.04,-0.04c0.02209,0 0.04,0.01791 0.04,0.04c0,0.02209 -0.01791,0.04 -0.04,0.04c-0.02209,0 -0.04,-0.01791 -0.04,-0.04zM1.58356,1.20891c0,-0.02209 0.01791,-0.04 0.04,-0.04c0.02209,0 0.04,0.01791 0.04,0.04c0,0.02209 -0.01791,0.04 -0.04,0.04c-0.02209,0 -0.04,-0.01791 -0.04,-0.04zM1.5718,1.81225c0,-0.02209 0.01791,-0.04 0.04,-0.04c0.02209,0 0.04,0.01791 0.04,0.04c0,0.02209 -0.01791,0.04 -0.04,0.04c-0.02209,0 -0.04,-0.01791 -0.04,-0.04zM1.15301,1.33951c0,-0.02209 0.01791,-0.04 0.04,-0.04c0.02209,0 0.04,0.01791 0.04,0.04c0,0.02209 -0.01791,0.04 -0.04,0.04c-0.02209,0 -0.04,-0.01791 -0.04,-0.04zM1.80811,1.40607c0,-0.02209 0.01791,-0.04 0.04,-0.04c0.02209,0 0.04,0.01791 0.04,0.04c0,0.02209 -0.01791,0.04 -0.04,0.04c-0.02209,0 -0.04,-0.01791 -0.04,-0.04zM1.26062,1.81662c0,-0.02209 0.01791,-0.04 0.04,-0.04c0.02209,0 0.04,0.01791 0.04,0.04c0,0.02209 -0.01791,0.04 -0.04,0.04c-0.02209,0 -0.04,-0.01791 -0.04,-0.04zM1.38942,1.11919c0,-0.02209 0.01791,-0.04 0.04,-0.04c0.02209,0 0.04,0.01791 0.04,0.04c0,0.02209 -0.01791,0.04 -0.04,0.04c-0.02209,0 -0.04,-0.01791 -0.04,-0.04zM1.78029,1.73961c0,-0.02209 0.01791,-0.04 0.04,-0.04c0.02209,0 0.04,0.01791 0.04,0.04c0,0.02209 -0.01791,0.04 -0.04,0.04c-0.02209,0 -0.04,-0.01791 -0.04,-0.04zM1.04987,1.54238c0,-0.02209 0.01791,-0.04 0.04,-0.04c0.02209,0 0.04,0.01791 0.04,0.04c0,0.02209 -0.01791,0.04 -0.04,0.04c-0.02209,0 -0.04,-0.01791 -0.04,-0.04zM1.74057,1.18175c0,-0.02209 0.01791,-0.04 0.04,-0.04c0.02209,0 0.04,0.01791 0.04,0.04c0,0.02209 -0.01791,0.04 -0.04,0.04c-0.02209,0 -0.04,-0.01791 -0.04,-0.04zM1.46989,1.93578c0,-0.02209 0.01791,-0.04 0.04,-0.04c0.02209,0 0.04,0.01791 0.04,0.04c0,0.02209 -0.01791,0.04 -0.04,0.04c-0.02209,0 -0.04,-0.01791 -0.04,-0.04zM1.14934,1.1783c0,-0.02209 0.01791,-0.04 0.04,-0.04c0.02209,0 0.04,0.01791 0.04,0.04c0,0.02209 -0.01791,0.04 -0.04,0.04c-0.02209,0 -0.04,-0.01791 -0.04,-0.04zM1.9175,1.52638c0,-0.02209 0.01791,-0.04 0.04,-0.04c0.02209,0 0.04,0.01791 0.04,0.04c0,0.02209 -0.01791,0.04 -0.04,0.04c-0.02209,0 -0.04,-0.01791 -0.04,-0.04zM1.09756,1.79772c0,-0.02209 0.01791,-0.04 0.04,-0.04c0.02209,0 0.04,0.01791 0.04,0.04c0,0.02209 -0.01791,0.04 -0.04,0.04c-0.02209,0 -0.04,-0.01791 -0.04,-0.04zM1.52592,1.02497c0,-0.02209 0.01791,-0.04 0.04,-0.04c0.02209,0 0.04,0.01791 0.04,0.04c0,0.02209 -0.01791,0.04 -0.04,0.04c-0.02209,0 -0.04,-0.01791 -0.04,-0.04zM1.73959,1.90228c0,-0.02209 0.01791,-0.04 0.04,-0.04c0.02209,0 0.04,0.01791 0.04,0.04c0,0.02209 -0.01791,0.04 -0.04,0.04c-0.02209,0 -0.04,-0.01791 -0.04,-0.04zM0.97185,1.39178c0,-0.02209 0.01791,-0.04 0.04,-0.04c0.02209,0 0.04,0.01791 0.04,0.04c0,0.02209 -0.01791,0.04 -0.04,0.04c-0.02209,0 -0.04,-0.01791 -0.04,-0.04zM1.9007,1.24351c0,-0.02209 0.01791,-0.04 0.04,-0.04c0.02209,0 0.04,0.01791 0.04,0.04c0,0.02209 -0.01791,0.04 -0.04,0.04c-0.02209,0 -0.04,-0.01791 -0.04,-0.04zM1.30721,1.99664c0,-0.02209 0.01791,-0.04 0.04,-0.04c0.02209,0 0.04,0.01791 0.04,0.04c0,0.02209 -0.01791,0.04 -0.04,0.04c-0.02209,0 -0.04,-0.01791 -0.04,-0.04zM1.23136,1.0228c0,-0.02209 0.01791,-0.04 0.04,-0.04c0.02209,0 0.04,0.01791 0.04,0.04c0,0.02209 -0.01791,0.04 -0.04,0.04c-0.02209,0 -0.04,-0.01791 -0.04,-0.04zM1.96035,1.69911c0,-0.02209 0.01791,-0.04 0.04,-0.04c0.02209,0 0.04,0.01791 0.04,0.04c0,0.02209 -0.01791,0.04 -0.04,0.04c-0.02209,0 -0.04,-0.01791 -0.04,-0.04zM0.94866,1.69629c0,-0.02209 0.01791,-0.04 0.04,-0.04c0.02209,0 0.04,0.01791 0.04,0.04c0,0.02209 -0.01791,0.04 -0.04,0.04c-0.02209,0 -0.04,-0.01791 -0.04,-0.04zM1.70669,1.00086c0,-0.02209 0.01791,-0.04 0.04,-0.04c0.02209,0 0.04,0.01791 0.04,0.04c0,0.02209 -0.01791,0.04 -0.04,0.04c-0.02209,0 -0.04,-0.01791 -0.04,-0.04zM1.61972,2.04267c0,-0.02209 0.01791,-0.04 0.04,-0.04c0.02209,0 0.04,0.01791 0.04,0.04c0,0.02209 -0.01791,0.04 -0.04,0.04c-0.02209,0 -0.04,-0.01791 -0.04,-0.04zM0.96708,1.20499c0,-0.02209 0.01791,-0.04 0.04,-0.04c0.02209,0 0.04,0.01791 0.04,0.04c0,0.02209 -0.01791,0.04 -0.04,0.04c-0.02209,0 -0.04,-0.01791 -0.04,-0.04zM2.03077,1.38076c0,-0.02209 0.01791,-0.04 0.04,-0.04c0.02209,0 0.04,0.01791 0.04,0.04c0,0.02209 -0.01791,0.04 -0.04,0.04c-0.02209,0 -0.04,-0.01791 -0.04,-0.04zM1.11645,1.98164c0,-0.02209 0.01791,-0.04 0.04,-0.04c0.02209,0 0.04,0.01791 0.04,0.04c0,0.02209 -0.01791,0.04 -0.04,0.04c-0.02209,0 -0.04,-0.01791 -0.04,-0.04zM1.3848,0.90473c0,-0.02209 0.01791,-0.04 0.04,-0.04c0.02209,0 0.04,0.01791 0.04,0.04c0,0.02209 -0.01791,0.04 -0.04,0.04c-0.02209,0 -0.04,-0.01791 -0.04,-0.04zM1.92528,1.89181c0,-0.02209 0.01791,-0.04 0.04,-0.04c0.02209,0 0.04,0.01791 0.04,0.04c0,0.02209 -0.01791,0.04 -0.04,0.04c-0.02209,0 -0.04,-0.01791 -0.04,-0.04zM0.84419,1.52796c0,-0.02209 0.01791,-0.04 0.04,-0.04c0.02209,0 0.04,0.01791 0.04,0.04c0,0.02209 -0.01791,0.04 -0.04,0.04c-0.02209,0 -0.04,-0.01791 -0.04,-0.04zM1.89927,1.05611c0,-0.02209 0.01791,-0.04 0.04,-0.04c0.02209,0 0.04,0.01791 0.04,0.04c0,0.02209 -0.01791,0.04 -0.04,0.04c-0.02209,0 -0.04,-0.01791 -0.04,-0.04zM1.43793,2.13207c0,-0.02209 0.01791,-0.04 0.04,-0.04c0.02209,0 0.04,0.01791 0.04,0.04c0,0.02209 -0.01791,0.04 -0.04,0.04c-0.02209,0 -0.04,-0.01791 -0.04,-0.04zM1.04245,1.01456c0,-0.02209 0.01791,-0.04 0.04,-0.04c0.02209,0 0.04,0.01791 0.04,0.04c0,0.02209 -0.01791,0.04 -0.04,0.04c-0.02209,0 -0.04,-0.01791 -0.04,-0.04zM2.10378,1.57449c0,-0.02209 0.01791,-0.04 0.04,-0.04c0.02209,0 0.04,0.01791 0.04,0.04c0,0.02209 -0.01791,0.04 -0.04,0.04c-0.02209,0 -0.04,-0.01791 -0.04,-0.04zM0.93017,1.88636c0,-0.02209 0.01791,-0.04 0.04,-0.04c0.02209,0 0.04,0.01791 0.04,0.04c0,0.02209 -0.01791,0.04 -0.04,0.04c-0.02209,0 -0.04,-0.01791 -0.04,-0.04zM1.58884,0.84931c0,-0.02209 0.01791,-0.04 0.04,-0.04c0.02209,0 0.04,0.01791 0.04,0.04c0,0.02209 -0.01791,0.04 -0.04,0.04c-0.02209,0 -0.04,-0.01791 -0.04,-0.04zM1.8105,2.07197c0,-0.02209 0.01791,-0.04 0.04,-0.04c0.02209,0 0.04,0.01791 0.04,0.04c0,0.02209 -0.01791,0.04 -0.04,0.04c-0.02209,0 -0.04,-0.01791 -0.04,-0.04zM0.80739,1.31533c0,-0.02209 0.01791,-0.04 0.04,-0.04c0.02209,0 0.04,0.01791 0.04,0.04c0,0.02209 -0.01791,0.04 -0.04,0.04c-0.02209,0 -0.04,-0.01791 -0.04,-0.04zM2.07139,1.18983c0,-0.02209 0.01791,-0.04 0.04,-0.04c0.02209,0 0.04,0.01791 0.04,0.04c0,0.02209 -0.01791,0.04 -0.04,0.04c-0.02209,0 -0.04,-0.01791 -0.04,-0.04zM1.2185,2.14937c0,-0.02209 0.01791,-0.04 0.04,-0.04c0.02209,0 0.04,0.01791 0.04,0.04c0,0.02209 -0.01791,0.04 -0.04,0.04c-0.02209,0 -0.04,-0.01791 -0.04,-0.04zM1.19438,0.85235c0,-0.02209 0.01791,-0.04 0.04,-0.04c0.02209,0 0.04,0.01791 0.04,0.04c0,0.02209 -0.01791,0.04 -0.04,0.04c-0.02209,0 -0.04,-0.01791 -0.04,-0.04zM2.10086,1.79884c0,-0.02209 0.01791,-0.04 0.04,-0.04c0.02209,0 0.04,0.01791 0.04,0.04c0,0.02209 -0.01791,0.04 -0.04,0.04c-0.02209,0 -0.04,-0.01791 -0.04,-0.04zM0.77966,1.71712c0,-0.02209 0.01791,-0.04 0.04,-0.04c0.02209,0 0.04,0.01791 0.04,0.04c0,0.02209 -0.01791,0.04 -0.04,0.04c-0.02209,0 -0.04,-0.01791 -0.04,-0.04zM1.81619,0.873c0,-0.02209 0.01791,-0.04 0.04,-0.04c0.02209,0 0.04,0.01791 0.04,0.04c0,0.02209 -0.01791,0.04 -0.04,0.04c-0.02209,0 -0.04,-0.01791 -0.04,-0.04zM1.625,2.20907c0,-0.02209 0.01791,-0.04 0.04,-0.04c0.02209,0 0.04,0.01791 0.04,0.04c0,0.02209 -0.01791,0.04 -0.04,0.04c-0.02209,0 -0.04,-0.01791 -0.04,-0.04zM0.85222,1.08695c0,-0.02209 0.01791,-0.04 0.04,-0.04c0.02209,0 0.04,0.01791 0.04,0.04c0,0.02209 -0.01791,0.04 -0.04,0.04c-0.02209,0 -0.04,-0.01791 -0.04,-0.04zM2.19347,1.39038c0,-0.02209 0.01791,-0.04 0.04,-0.04c0.02209,0 0.04,0.01791 0.04,0.04c0,0.02209 -0.01791,0.04 -0.04,0.04c-0.02209,0 -0.04,-0.01791 -0.04,-0.04zM0.99109,2.0832c0,-0.02209 0.01791,-0.04 0.04,-0.04c0.02209,0 0.04,0.01791 0.04,0.04c0,0.02209 -0.01791,0.04 -0.04,0.04c-0.02209,0 -0.04,-0.01791 -0.04,-0.04zM1.40865,0.74676c0,-0.02209 0.01791,-0.04 0.04,-0.04c0.02209,0 0.04,0.01791 0.04,0.04c0,0.02209 -0.01791,0.04 -0.04,0.04c-0.02209,0 -0.04,-0.01791 -0.04,-0.04zM2.01334,2.02327c0,-0.02209 0.01791,-0.04 0.04,-0.04c0.02209,0 0.04,0.01791 0.04,0.04c0,0.02209 -0.01791,0.04 -0.04,0.04c-0.02209,0 -0.04,-0.01791 -0.04,-0.04zM0.69194,1.49062c0,-0.02209 0.01791,-0.04 0.04,-0.04c0.02209,0 0.04,0.01791 0.04,0.04c0,0.02209 -0.01791,0.04 -0.04,0.04c-0.02209,0 -0.04,-0.01791 -0.04,-0.04zM2.03564,0.98169c0,-0.02209 0.01791,-0.04 0.04,-0.04c0.02209,0 0.04,0.01791 0.04,0.04c0,0.02209 -0.01791,0.04 -0.04,0.04c-0.02209,0 -0.04,-0.01791 -0.04,-0.04zM1.38786,2.27769c0,-0.02209 0.01791,-0.04 0.04,-0.04c0.02209,0 0.04,0.01791 0.04,0.04c0,0.02209 -0.01791,0.04 -0.04,0.04c-0.02209,0 -0.04,-0.01791 -0.04,-0.04zM0.98175,0.87448c0,-0.02209 0.01791,-0.04 0.04,-0.04c0.02209,0 0.04,0.01791 0.04,0.04c0,0.02209 -0.01791,0.04 -0.04,0.04c-0.02209,0 -0.04,-0.01791 -0.04,-0.04zM2.24191,1.63646c0,-0.02209 0.01791,-0.04 0.04,-0.04c0.02209,0 0.04,0.01791 0.04,0.04c0,0.02209 -0.01791,0.04 -0.04,0.04c-0.02209,0 -0.04,-0.01791 -0.04,-0.04zM0.78755,1.93337c0,-0.02209 0.01791,-0.04 0.04,-0.04c0.02209,0 0.04,0.01791 0.04,0.04c0,0.02209 -0.01791,0.04 -0.04,0.04c-0.02209,0 -0.04,-0.01791 -0.04,-0.04zM1.66186,0.71945c0,-0.02209 0.01791,-0.04 0.04,-0.04c0.02209,0 0.04,0.01791 0.04,0.04c0,0.02209 -0.01791,0.04 -0.04,0.04c-0.02209,0 -0.04,-0.01791 -0.04,-0.04zM1.8439,2.21597c0,-0.02209 0.01791,-0.04 0.04,-0.04c0.02209,0 0.04,0.01791 0.04,0.04c0,0.02209 -0.01791,0.04 -0.04,0.04c-0.02209,0 -0.04,-0.01791 -0.04,-0.04zM0.68653,1.23216c0,-0.02209 0.01791,-0.04 0.04,-0.04c0.02209,0 0.04,0.01791 0.04,0.04c0,0.02209 -0.01791,0.04 -0.04,0.04c-0.02209,0 -0.04,-0.01791 -0.04,-0.04zM2.21565,1.16986c0,-0.02209 0.01791,-0.04 0.04,-0.04c0.02209,0 0.04,0.01791 0.04,0.04c0,0.02209 -0.01791,0.04 -0.04,0.04c-0.02209,0 -0.04,-0.01791 -0.04,-0.04zM1.12612,2.26061c0,-0.02209 0.01791,-0.04 0.04,-0.04c0.02209,0 0.04,0.01791 0.04,0.04c0,0.02209 -0.01791,0.04 -0.04,0.04c-0.02209,0 -0.04,-0.01791 -0.04,-0.04zM1.18761,0.70892c0,-0.02209 0.01791,-0.04 0.04,-0.04c0.02209,0 0.04,0.01791 0.04,0.04c0,0.02209 -0.01791,0.04 -0.04,0.04c-0.02209,0 -0.04,-0.01791 -0.04,-0.04zM2.2019,1.89947c0,-0.02209 0.01791,-0.04 0.04,-0.04c0.02209,0 0.04,0.01791 0.04,0.04c0,0.02209 -0.01791,0.04 -0.04,0.04c-0.02209,0 -0.04,-0.01791 -0.04,-0.04zM0.63813,1.71102c0,-0.02209 0.01791,-0.04 0.04,-0.04c0.02209,0 0.04,0.01791 0.04,0.04c0,0.02209 -0.01791,0.04 -0.04,0.04c-0.02209,0 -0.04,-0.01791 -0.04,-0.04zM1.92409,0.78263c0,-0.02209 0.01791,-0.04 0.04,-0.04c0.02209,0 0.04,0.01791 0.04,0.04c0,0.02209 -0.01791,0.04 -0.04,0.04c-0.02209,0 -0.04,-0.01791 -0.04,-0.04zM1.60642,2.34768c0,-0.02209 0.01791,-0.04 0.04,-0.04c0.02209,0 0.04,0.01791 0.04,0.04c0,0.02209 -0.01791,0.04 -0.04,0.04c-0.02209,0 -0.04,-0.01791 -0.04,-0.04zM0.77294,0.9728c0,-0.02209 0.01791,-0.04 0.04,-0.04c0.02209,0 0.04,0.01791 0.04,0.04c0,0.02209 -0.01791,0.04 -0.04,0.04c-0.02209,0 -0.04,-0.01791 -0.04,-0.04zM2.32819,1.42099c0,-0.02209 0.01791,-0.04 0.04,-0.04c0.02209,0 0.04,0.01791 0.04,0.04c0,0.02209 -0.01791,0.04 -0.04,0.04c-0.02209,0 -0.04,-0.01791 -0.04,-0.04zM0.8717,2.15108c0,-0.02209 0.01791,-0.04 0.04,-0.04c0.02209,0 0.04,0.01791 0.04,0.04c0,0.02209 -0.01791,0.04 -0.04,0.04c-0.02209,0 -0.04,-0.01791 -0.04,-0.04zM1.45075,0.61687c0,-0.02209 0.01791,-0.04 0.04,-0.04c0.02209,0 0.04,0.01791 0.04,0.04c0,0.02209 -0.01791,0.04 -0.04,0.04c-0.02209,0 -0.04,-0.01791 -0.04,-0.04zM2.06957,2.14686c0,-0.02209 0.01791,-0.04 0.04,-0.04c0.02209,0 0.04,0.01791 0.04,0.04c0,0.02209 -0.01791,0.04 -0.04,0.04c-0.02209,0 -0.04,-0.01791 -0.04,-0.04zM0.56775,1.43761c0,-0.02209 0.01791,-0.04 0.04,-0.04c0.02209,0 0.04,0.01791 0.04,0.04c0,0.02209 -0.01791,0.04 -0.04,0.04c-0.02209,0 -0.04,-0.01791 -0.04,-0.04zM2.16239,0.93728c0,-0.02209 0.01791,-0.04 0.04,-0.04c0.02209,0 0.04,0.01791 0.04,0.04c0,0.02209 -0.01791,0.04 -0.04,0.04c-0.02209,0 -0.04,-0.01791 -0.04,-0.04zM1.32459,2.39536c0,-0.02209 0.01791,-0.04 0.04,-0.04c0.02209,0 0.04,0.01791 0.04,0.04c0,0.02209 -0.01791,0.04 -0.04,0.04c-0.02209,0 -0.04,-0.01791 -0.04,-0.04zM0.94923,0.7456c0,-0.02209 0.01791,-0.04 0.04,-0.04c0.02209,0 0.04,0.01791 0.04,0.04c0,0.02209 -0.01791,0.04 -0.04,0.04c-0.02209,0 -0.04,-0.01791 -0.04,-0.04zM2.3523,1.70929c0,-0.02209 0.01791,-0.04 0.04,-0.04c0.02209,0 0.04,0.01791 0.04,0.04c0,0.02209 -0.01791,0.04 -0.04,0.04c-0.02209,0 -0.04,-0.01791 -0.04,-0.04zM0.65757,1.95399c0,-0.02209 0.01791,-0.04 0.04,-0.04c0.02209,0 0.04,0.01791 0.04,0.04c0,0.02209 -0.01791,0.04 -0.04,0.04c-0.02209,0 -0.04,-0.01791 -0.04,-0.04zM1.74349,0.61703c0,-0.02209 0.01791,-0.04 0.04,-0.04c0.02209,0 0.04,0.01791 0.04,0.04c0,0.02209 -0.01791,0.04 -0.04,0.04c-0.02209,0 -0.04,-0.01791 -0.04,-0.04zM1.85272,2.34603c0,-0.02209 0.01791,-0.04 0.04,-0.04c0.02209,0 0.04,0.01791 0.04,0.04c0,0.02209 -0.01791,0.04 -0.04,0.04c-0.02209,0 -0.04,-0.01791 -0.04,-0.04zM0.5927,1.14252c0,-0.02209 0.01791,-0.04 0.04,-0.04c0.02209,0 0.04,0.01791 0.04,0.04c0,0.02209 -0.01791,0.04 -0.04,0.04c-0.02209,0 -0.04,-0.01791 -0.04,-0.04zM2.3448,1.1727c0,-0.02209 0.01791,-0.04 0.04,-0.04c0.02209,0 0.04,0.01791 0.04,0.04c0,0.02209 -0.01791,0.04 -0.04,0.04c-0.02209,0 -0.04,-0.01791 -0.04,-0.04zM1.02931,2.34528c0,-0.02209 0.01791,-0.04 0.04,-0.04c0.02209,0 0.04,0.01791 0.04,0.04c0,0.02209 -0.01791,0.04 -0.04,0.04c-0.02209,0 -0.04,-0.01791 -0.04,-0.04zM1.20186,0.58165c0,-0.02209 0.01791,-0.04 0.04,-0.04c0.02209,0 0.04,0.01791 0.04,0.04c0,0.02209 -0.01791,0.04 -0.04,0.04c-0.02209,0 -0.04,-0.01791 -0.04,-0.04zM2.27695,2.00259c0,-0.02209 0.01791,-0.04 0.04,-0.04c0.02209,0 0.04,0.01791 0.04,0.04c0,0.02209 -0.01791,0.04 -0.04,0.04c-0.02209,0 -0.04,-0.01791 -0.04,-0.04zM0.51368,1.68566c0,-0.02209 0.01791,-0.04 0.04,-0.04c0.02209,0 0.04,0.01791 0.04,0.04c0,0.02209 -0.01791,0.04 -0.04,0.04c-0.02209,0 -0.04,-0.01791 -0.04,-0.04zM2.03261,0.71762c0,-0.02209 0.01791,-0.04 0.04,-0.04c0.02209,0 0.04,0.01791 0.04,0.04c0,0.02209 -0.01791,0.04 -0.04,0.04c-0.02209,0 -0.04,-0.01791 -0.04,-0.04zM1.57034,2.46841c0,-0.02209 0.01791,-0.04 0.04,-0.04c0.02209,0 0.04,0.01791 0.04,0.04c0,0.02209 -0.01791,0.04 -0.04,0.04c-0.02209,0 -0.04,-0.01791 -0.04,-0.04zM0.7183,0.85978c0,-0.02209 0.01791,-0.04 0.04,-0.04c0.02209,0 0.04,0.01791 0.04,0.04c0,0.02209 -0.01791,0.04 -0.04,0.04c-0.02209,0 -0.04,-0.01791 -0.04,-0.04zM2.44434,1.46735c0,-0.02209 0.01791,-0.04 0.04,-0.04c0.02209,0 0.04,0.01791 0.04,0.04c0,0.02209 -0.01791,0.04 -0.04,0.04c-0.02209,0 -0.04,-0.01791 -0.04,-0.04zM0.75513,2.1951c0,-0.02209 0.01791,-0.04 0.04,-0.04c0.02209,0 0.04,0.01791 0.04,0.04c0,0.02209 -0.01791,0.04 -0.04,0.04c-0.02209,0 -0.04,-0.01791 -0.04,-0.04zM1.50687,0.50612c0,-0.02209 0.01791,-0.04 0.04,-0.04c0.02209,0 0.04,0.01791 0.04,0.04c0,0.02209 -0.01791,0.04 -0.04,0.04c-0.02209,0 -0.04,-0.01791 -0.04,-0.04zM2.10279,2.26604c0,-0.02209 0.01791,-0.04 0.04,-0.04c0.02209,0 0.04,0.01791 0.04,0.04c0,0.02209 -0.01791,0.04 -0.04,0.04c-0.02209,0 -0.04,-0.01791 -0.04,-0.04zM0.46316,1.3723c0,-0.02209 0.01791,-0.04 0.04,-0.04c0.02209,0 0.04,0.01791 0.04,0.04c0,0.02209 -0.01791,0.04 -0.04,0.04c-0.02209,0 -0.04,-0.01791 -0.04,-0.04zM2.28324,0.91495c0,-0.02209 0.01791,-0.04 0.04,-0.04c0.02209,0 0.04,0.01791 0.04,0.04c0,0.02209 -0.01791,0.04 -0.04,0.04c-0.02209,0 -0.04,-0.01791 -0.04,-0.04zM1.25073,2.49308c0,-0.02209 0.01791,-0.04 0.04,-0.04c0.02209,0 0.04,0.01791 0.04,0.04c0,0.02209 -0.01791,0.04 -0.04,0.04c-0.02209,0 -0.04,-0.01791 -0.04,-0.04zM0.93782,0.62403c0,-0.02209 0.01791,-0.04 0.04,-0.04c0.02209,0 0.04,0.01791 0.04,0.04c0,0.02209 -0.01791,0.04 -0.04,0.04c-0.02209,0 -0.04,-0.01791 -0.04,-0.04zM2.4425,1.79103c0,-0.02209 0.01791,-0.04 0.04,-0.04c0.02209,0 0.04,0.01791 0.04,0.04c0,0.02209 -0.01791,0.04 -0.04,0.04c-0.02209,0 -0.04,-0.01791 -0.04,-0.04zM0.53622,1.95456c0,-0.02209 0.01791,-0.04 0.04,-0.04c0.02209,0 0.04,0.01791 0.04,0.04c0,0.02209 -0.01791,0.04 -0.04,0.04c-0.02209,0 -0.04,-0.01791 -0.04,-0.04zM1.83238,0.53495c0,-0.02209 0.01791,-0.04 0.04,-0.04c0.02209,0 0.04,0.01791 0.04,0.04c0,0.02209 -0.01791,0.04 -0.04,0.04c-0.02209,0 -0.04,-0.01791 -0.04,-0.04zM1.84257,2.46625c0,-0.02209 0.01791,-0.04 0.04,-0.04c0.02209,0 0.04,0.01791 0.04,0.04c0,0.02209 -0.01791,0.04 -0.04,0.04c-0.02209,0 -0.04,-0.01791 -0.04,-0.04zM0.51925,1.04725c0,-0.02209 0.01791,-0.04 0.04,-0.04c0.02209,0 0.04,0.01791 0.04,0.04c0,0.02209 -0.01791,0.04 -0.04,0.04c-0.02209,0 -0.04,-0.01791 -0.04,-0.04zM2.46298,1.19336c0,-0.02209 0.01791,-0.04 0.04,-0.04c0.02209,0 0.04,0.01791 0.04,0.04c0,0.02209 -0.01791,0.04 -0.04,0.04c-0.02209,0 -0.04,-0.01791 -0.04,-0.04zM0.92845,2.40964c0,-0.02209 0.01791,-0.04 0.04,-0.04c0.02209,0 0.04,0.01791 0.04,0.04c0,0.02209 -0.01791,0.04 -0.04,0.04c-0.02209,0 -0.04,-0.01791 -0.04,-0.04zM1.23275,0.46639c0,-0.02209 0.01791,-0.04 0.04,-0.04c0.02209,0 0.04,0.01791 0.04,0.04c0,0.02209 -0.01791,0.04 -0.04,0.04c-0.02209,0 -0.04,-0.01791 -0.04,-0.04zM2.33183,2.1082c0,-0.02209 0.01791,-0.04 0.04,-0.04c0.02209,0 0.04,0.01791 0.04,0.04c0,0.02209 -0.01791,0.04 -0.04,0.04c-0.02209,0 -0.04,-0.01791 -0.04,-0.04zM0.40217,1.6449c0,-0.02209 0.01791,-0.04 0.04,-0.04c0.02209,0 0.04,0.01791 0.04,0.04c0,0.02209 -0.01791,0.04 -0.04,0.04c-0.02209,0 -0.04,-0.01791 -0.04,-0.04zM2.14212,0.67252c0,-0.02209 0.01791,-0.04 0.04,-0.04c0.02209,0 0.04,0.01791 0.04,0.04c0,0.02209 -0.01791,0.04 -0.04,0.04c-0.02209,0 -0.04,-0.01791 -0.04,-0.04zM1.52012,2.57535c0,-0.02209 0.01791,-0.04 0.04,-0.04c0.02209,0 0.04,0.01791 0.04,0.04c0,0.02209 -0.01791,0.04 -0.04,0.04c-0.02209,0 -0.04,-0.01791 -0.04,-0.04zM0.68323,0.74726c0,-0.02209 0.01791,-0.04 0.04,-0.04c0.02209,0 0.04,0.01791 0.04,0.04c0,0.02209 -0.01791,0.04 -0.04,0.04c-0.02209,0 -0.04,-0.01791 -0.04,-0.04zM2.54595,1.52654c0,-0.02209 0.01791,-0.04 0.04,-0.04c0.02209,0 0.04,0.01791 0.04,0.04c0,0.02209 -0.01791,0.04 -0.04,0.04c-0.02209,0 -0.04,-0.01791 -0.04,-0.04zM0.64047,2.21998c0,-0.02209 0.01791,-0.04 0.04,-0.04c0.02209,0 0.04,0.01791 0.04,0.04c0,0.02209 -0.01791,0.04 -0.04,0.04c-0.02209,0 -0.04,-0.01791 -0.04,-0.04zM1.57451,0.41056c0,-0.02209 0.01791,-0.04 0.04,-0.04c0.02209,0 0.04,0.01791 0.04,0.04c0,0.02209 -0.01791,0.04 -0.04,0.04c-0.02209,0 -0.04,-0.01791 -0.04,-0.04zM2.11739,2.38195c0,-0.02209 0.01791,-0.04 0.04,-0.04c0.02209,0 0.04,0.01791 0.04,0.04c0,0.02209 -0.01791,0.04 -0.04,0.04c-0.02209,0 -0.04,-0.01791 -0.04,-0.04zM0.37431,1.29682c0,-0.02209 0.01791,-0.04 0.04,-0.04c0.02209,0 0.04,0.01791 0.04,0.04c0,0.02209 -0.01791,0.04 -0.04,0.04c-0.02209,0 -0.04,-0.01791 -0.04,-0.04zM2.3995,0.91065c0,-0.02209 0.01791,-0.04 0.04,-0.04c0.02209,0 0.04,0.01791 0.04,0.04c0,0.02209 -0.01791,0.04 -0.04,0.04c-0.02209,0 -0.04,-0.01791 -0.04,-0.04zM1.16804,2.5746c0,-0.02209 0.01791,-0.04 0.04,-0.04c0.02209,0 0.04,0.01791 0.04,0.04c0,0.02209 -0.01791,0.04 -0.04,0.04c-0.02209,0 -0.04,-0.01791 -0.04,-0.04zM0.94375,0.50829c0,-0.02209 0.01791,-0.04 0.04,-0.04c0.02209,0 0.04,0.01791 0.04,0.04c0,0.02209 -0.01791,0.04 -0.04,0.04c-0.02209,0 -0.04,-0.01791 -0.04,-0.04zM2.51614,1.88023c0,-0.02209 0.01791,-0.04 0.04,-0.04c0.02209,0 0.04,0.01791 0.04,0.04c0,0.02209 -0.01791,0.04 -0.04,0.04c-0.02209,0 -0.04,-0.01791 -0.04,-0.04zM0.42188,1.93852c0,-0.02209 0.01791,-0.04 0.04,-0.04c0.02209,0 0.04,0.01791 0.04,0.04c0,0.02209 -0.01791,0.04 -0.04,0.04c-0.02209,0 -0.04,-0.01791 -0.04,-0.04zM1.92737,0.46968c0,-0.02209 0.01791,-0.04 0.04,-0.04c0.02209,0 0.04,0.01791 0.04,0.04c0,0.02209 -0.01791,0.04 -0.04,0.04c-0.02209,0 -0.04,-0.01791 -0.04,-0.04zM1.81663,2.57834c0,-0.02209 0.01791,-0.04 0.04,-0.04c0.02209,0 0.04,0.01791 0.04,0.04c0,0.02209 -0.01791,0.04 -0.04,0.04c-0.02209,0 -0.04,-0.01791 -0.04,-0.04zM0.46278,0.94723c0,-0.02209 0.01791,-0.04 0.04,-0.04c0.02209,0 0.04,0.01791 0.04,0.04c0,0.02209 -0.01791,0.04 -0.04,0.04c-0.02209,0 -0.04,-0.01791 -0.04,-0.04zM2.57199,1.22893c0,-0.02209 0.01791,-0.04 0.04,-0.04c0.02209,0 0.04,0.01791 0.04,0.04c0,0.02209 -0.01791,0.04 -0.04,0.04c-0.02209,0 -0.04,-0.01791 -0.04,-0.04zM0.8242,2.45695c0,-0.02209 0.01791,-0.04 0.04,-0.04c0.02209,0 0.04,0.01791 0.04,0.04c0,0.02209 -0.01791,0.04 -0.04,0.04c-0.02209,0 -0.04,-0.01791 -0.04,-0.04zM1.2776,0.36126c0,-0.02209 0.01791,-0.04 0.04,-0.04c0.02209,0 0.04,0.01791 0.04,0.04c0,0.02209 -0.01791,0.04 -0.04,0.04c-0.02209,0 -0.04,-0.01791 -0.04,-0.04zM2.3697,2.21586c0,-0.02209 0.01791,-0.04 0.04,-0.04c0.02209,0 0.04,0.01791 0.04,0.04c0,0.02209 -0.01791,0.04 -0.04,0.04c-0.02209,0 -0.04,-0.01791 -0.04,-0.04zM0.30169,1.59116c0,-0.02209 0.01791,-0.04 0.04,-0.04c0.02209,0 0.04,0.01791 0.04,0.04c0,0.02209 -0.01791,0.04 -0.04,0.04c-0.02209,0 -0.04,-0.01791 -0.04,-0.04zM2.25236,0.64433c0,-0.02209 0.01791,-0.04 0.04,-0.04c0.02209,0 0.04,0.01791 0.04,0.04c0,0.02209 -0.01791,0.04 -0.04,0.04c-0.02209,0 -0.04,-0.01791 -0.04,-0.04zM1.45796,2.67047c0,-0.02209 0.01791,-0.04 0.04,-0.04c0.02209,0 0.04,0.01791 0.04,0.04c0,0.02209 -0.01791,0.04 -0.04,0.04c-0.02209,0 -0.04,-0.01791 -0.04,-0.04zM0.66485,0.63528c0,-0.02209 0.01791,-0.04 0.04,-0.04c0.02209,0 0.04,0.01791 0.04,0.04c0,0.02209 -0.01791,0.04 -0.04,0.04c-0.02209,0 -0.04,-0.01791 -0.04,-0.04zM2.63502,1.5966c0,-0.02209 0.01791,-0.04 0.04,-0.04c0.02209,0 0.04,0.01791 0.04,0.04c0,0.02209 -0.01791,0.04 -0.04,0.04c-0.02209,0 -0.04,-0.01791 -0.04,-0.04zM0.52761,2.22846c0,-0.02209 0.01791,-0.04 0.04,-0.04c0.02209,0 0.04,0.01791 0.04,0.04c0,0.02209 -0.01791,0.04 -0.04,0.04c-0.02209,0 -0.04,-0.01791 -0.04,-0.04zM1.65189,0.32817c0,-0.02209 0.01791,-0.04 0.04,-0.04c0.02209,0 0.04,0.01791 0.04,0.04c0,0.02209 -0.01791,0.04 -0.04,0.04c-0.02209,0 -0.04,-0.01791 -0.04,-0.04zM2.11597,2.49484c0,-0.02209 0.01791,-0.04 0.04,-0.04c0.02209,0 0.04,0.01791 0.04,0.04c0,0.02209 -0.01791,0.04 -0.04,0.04c-0.02209,0 -0.04,-0.01791 -0.04,-0.04zM0.29919,1.21273c0,-0.02209 0.01791,-0.04 0.04,-0.04c0.02209,0 0.04,0.01791 0.04,0.04c0,0.02209 -0.01791,0.04 -0.04,0.04c-0.02209,0 -0.04,-0.01791 -0.04,-0.04zM2.51157,0.9219c0,-0.02209 0.01791,-0.04 0.04,-0.04c0.02209,0 0.04,0.01791 0.04,0.04c0,0.02209 -0.01791,0.04 -0.04,0.04c-0.02209,0 -0.04,-0.01791 -0.04,-0.04zM1.07791,2.64193c0,-0.02209 0.01791,-0.04 0.04,-0.04c0.02209,0 0.04,0.01791 0.04,0.04c0,0.02209 -0.01791,0.04 -0.04,0.04c-0.02209,0 -0.04,-0.01791 -0.04,-0.04zM0.96469,0.39788c0,-0.02209 0.01791,-0.04 0.04,-0.04c0.02209,0 0.04,0.01791 0.04,0.04c0,0.02209 -0.01791,0.04 -0.04,0.04c-0.02209,0 -0.04,-0.01791 -0.04,-0.04zM2.57522,1.97568c0,-0.02209 0.01791,-0.04 0.04,-0.04c0.02209,0 0.04,0.01791 0.04,0.04c0,0.02209 -0.01791,0.04 -0.04,0.04c-0.02209,0 -0.04,-0.01791 -0.04,-0.04zM0.31394,1.90809c0,-0.02209 0.01791,-0.04 0.04,-0.04c0.02209,0 0.04,0.01791 0.04,0.04c0,0.02209 -0.01791,0.04 -0.04,0.04c-0.02209,0 -0.04,-0.01791 -0.04,-0.04zM2.02741,0.41924c0,-0.02209 0.01791,-0.04 0.04,-0.04c0.02209,0 0.04,0.01791 0.04,0.04c0,0.02209 -0.01791,0.04 -0.04,0.04c-0.02209,0 -0.04,-0.01791 -0.04,-0.04zM1.77699,2.68301c0,-0.02209 0.01791,-0.04 0.04,-0.04c0.02209,0 0.04,0.01791 0.04,0.04c0,0.02209 -0.01791,0.04 -0.04,0.04c-0.02209,0 -0.04,-0.01791 -0.04,-0.04zM0.42132,0.84338c0,-0.02209 0.01791,-0.04 0.04,-0.04c0.02209,0 0.04,0.01791 0.04,0.04c0,0.02209 -0.01791,0.04 -0.04,0.04c-0.02209,0 -0.04,-0.01791 -0.04,-0.04zM2.67263,1.27744c0,-0.02209 0.01791,-0.04 0.04,-0.04c0.02209,0 0.04,0.01791 0.04,0.04c0,0.02209 -0.01791,0.04 -0.04,0.04c-0.02209,0 -0.04,-0.01791 -0.04,-0.04zM0.71732,2.48916c0,-0.02209 0.01791,-0.04 0.04,-0.04c0.02209,0 0.04,0.01791 0.04,0.04c0,0.02209 -0.01791,0.04 -0.04,0.04c-0.02209,0 -0.04,-0.01791 -0.04,-0.04zM1.33459,0.26539c0,-0.02209 0.01791,-0.04 0.04,-0.04c0.02209,0 0.04,0.01791 0.04,0.04c0,0.02209 -0.01791,0.04 -0.04,0.04c-0.02209,0 -0.04,-0.01791 -0.04,-0.04zM2.39244,2.32496c0,-0.02209 0.01791,-0.04 0.04,-0.04c0.02209,0 0.04,0.01791 0.04,0.04c0,0.02209 -0.01791,0.04 -0.04,0.04c-0.02209,0 -0.04,-0.01791 -0.04,-0.04zM0.21127,1.52616c0,-0.02209 0.01791,-0.04 0.04,-0.04c0.02209,0 0.04,0.01791 0.04,0.04c0,0.02209 -0.01791,0.04 -0.04,0.04c-0.02209,0 -0.04,-0.01791 -0.04,-0.04zM2.36285,0.63117c0,-0.02209 0.01791,-0.04 0.04,-0.04c0.02209,0 0.04,0.01791 0.04,0.04c0,0.02209 -0.01791,0.04 -0.04,0.04c-0.02209,0 -0.04,-0.01791 -0.04,-0.04zM1.38545,2.75477c0,-0.02209 0.01791,-0.04 0.04,-0.04c0.02209,0 0.04,0.01791 0.04,0.04c0,0.02209 -0.01791,0.04 -0.04,0.04c-0.02209,0 -0.04,-0.01791 -0.04,-0.04zM0.66134,0.52422c0,-0.02209 0.01791,-0.04 0.04,-0.04c0.02209,0 0.04,0.01791 0.04,0.04c0,0.02209 -0.01791,0.04 -0.04,0.04c-0.02209,0 -0.04,-0.01791 -0.04,-0.04zM2.7126,1.67604c0,-0.02209 0.01791,-0.04 0.04,-0.04c0.02209,0 0.04,0.01791 0.04,0.04c0,0.02209 -0.01791,0.04 -0.04,0.04c-0.02209,0 -0.04,-0.01791 -0.04,-0.04zM0.41682,2.22233c0,-0.02209 0.01791,-0.04 0.04,-0.04c0.02209,0 0.04,0.01791 0.04,0.04c0,0.02209 -0.01791,0.04 -0.04,0.04c-0.02209,0 -0.04,-0.01791 -0.04,-0.04zM1.73765,0.25786c0,-0.02209 0.01791,-0.04 0.04,-0.04c0.02209,0 0.04,0.01791 0.04,0.04c0,0.02209 -0.01791,0.04 -0.04,0.04c-0.02209,0 -0.04,-0.01791 -0.04,-0.04zM2.10029,2.60455c0,-0.02209 0.01791,-0.04 0.04,-0.04c0.02209,0 0.04,0.01791 0.04,0.04c0,0.02209 -0.01791,0.04 -0.04,0.04c-0.02209,0 -0.04,-0.01791 -0.04,-0.04zM0.23665,1.12131c0,-0.02209 0.01791,-0.04 0.04,-0.04c0.02209,0 0.04,0.01791 0.04,0.04c0,0.02209 -0.01791,0.04 -0.04,0.04c-0.02209,0 -0.04,-0.01791 -0.04,-0.04zM2.61939,0.947c0,-0.02209 0.01791,-0.04 0.04,-0.04c0.02209,0 0.04,0.01791 0.04,0.04c0,0.02209 -0.01791,0.04 -0.04,0.04c-0.02209,0 -0.04,-0.01791 -0.04,-0.04zM0.98153,2.69627c0,-0.02209 0.01791,-0.04 0.04,-0.04c0.02209,0 0.04,0.01791 0.04,0.04c0,0.02209 -0.01791,0.04 -0.04,0.04c-0.02209,0 -0.04,-0.01791 -0.04,-0.04zM0.99899,0.29274c0,-0.02209 0.01791,-0.04 0.04,-0.04c0.02209,0 0.04,0.01791 0.04,0.04c0,0.02209 -0.01791,0.04 -0.04,0.04c-0.02209,0 -0.04,-0.01791 -0.04,-0.04zM2.62098,2.07631c0,-0.02209 0.01791,-0.04 0.04,-0.04c0.02209,0 0.04,0.01791 0.04,0.04c0,0.02209 -0.01791,0.04 -0.04,0.04c-0.02209,0 -0.04,-0.01791 -0.04,-0.04zM0.21225,1.86487c0,-0.02209 0.01791,-0.04 0.04,-0.04c0.02209,0 0.04,0.01791 0.04,0.04c0,0.02209 -0.01791,0.04 -0.04,0.04c-0.02209,0 -0.04,-0.01791 -0.04,-0.04zM2.13153,0.38239c0,-0.02209 0.01791,-0.04 0.04,-0.04c0.02209,0 0.04,0.01791 0.04,0.04c0,0.02209 -0.01791,0.04 -0.04,0.04c-0.02209,0 -0.04,-0.01791 -0.04,-0.04zM1.72518,2.7805c0,-0.02209 0.01791,-0.04 0.04,-0.04c0.02209,0 0.04,0.01791 0.04,0.04c0,0.02209 -0.01791,0.04 -0.04,0.04c-0.02209,0 -0.04,-0.01791 -0.04,-0.04zM0.39363,0.73655c0,-0.02209 0.01791,-0.04 0.04,-0.04c0.02209,0 0.04,0.01791 0.04,0.04c0,0.02209 -0.01791,0.04 -0.04,0.04c-0.02209,0 -0.04,-0.01791 -0.04,-0.04zM2.76521,1.33743c0,-0.02209 0.01791,-0.04 0.04,-0.04c0.02209,0 0.04,0.01791 0.04,0.04c0,0.02209 -0.01791,0.04 -0.04,0.04c-0.02209,0 -0.04,-0.01791 -0.04,-0.04zM0.60858,2.50752c0,-0.02209 0.01791,-0.04 0.04,-0.04c0.02209,0 0.04,0.01791 0.04,0.04c0,0.02209 -0.01791,0.04 -0.04,0.04c-0.02209,0 -0.04,-0.01791 -0.04,-0.04zM1.4023,0.17838c0,-0.02209 0.01791,-0.04 0.04,-0.04c0.02209,0 0.04,0.01791 0.04,0.04c0,0.02209 -0.01791,0.04 -0.04,0.04c-0.02209,0 -0.04,-0.01791 -0.04,-0.04zM2.40135,2.4348c0,-0.02209 0.01791,-0.04 0.04,-0.04c0.02209,0 0.04,0.01791 0.04,0.04c0,0.02209 -0.01791,0.04 -0.04,0.04c-0.02209,0 -0.04,-0.01791 -0.04,-0.04zM0.13048,1.45125c0,-0.02209 0.01791,-0.04 0.04,-0.04c0.02209,0 0.04,0.01791 0.04,0.04c0,0.02209 -0.01791,0.04 -0.04,0.04c-0.02209,0 -0.04,-0.01791 -0.04,-0.04zM2.47299,0.63176c0,-0.02209 0.01791,-0.04 0.04,-0.04c0.02209,0 0.04,0.01791 0.04,0.04c0,0.02209 -0.01791,0.04 -0.04,0.04c-0.02209,0 -0.04,-0.01791 -0.04,-0.04zM1.30391,2.82877c0,-0.02209 0.01791,-0.04 0.04,-0.04c0.02209,0 0.04,0.01791 0.04,0.04c0,0.02209 -0.01791,0.04 -0.04,0.04c-0.02209,0 -0.04,-0.01791 -0.04,-0.04zM0.6714,0.41459c0,-0.02209 0.01791,-0.04 0.04,-0.04c0.02209,0 0.04,0.01791 0.04,0.04c0,0.02209 -0.01791,0.04 -0.04,0.04c-0.02209,0 -0.04,-0.01791 -0.04,-0.04zM2.77928,1.76362c0,-0.02209 0.01791,-0.04 0.04,-0.04c0.02209,0 0.04,0.01791 0.04,0.04c0,0.02209 -0.01791,0.04 -0.04,0.04c-0.02209,0 -0.04,-0.01791 -0.04,-0.04zM0.3085,2.20288c0,-0.02209 0.01791,-0.04 0.04,-0.04c0.02209,0 0.04,0.01791 0.04,0.04c0,0.02209 -0.01791,0.04 -0.04,0.04c-0.02209,0 -0.04,-0.01791 -0.04,-0.04zM1.83061,0.19898c0,-0.02209 0.01791,-0.04 0.04,-0.04c0.02209,0 0.04,0.01791 0.04,0.04c0,0.02209 -0.01791,0.04 -0.04,0.04c-0.02209,0 -0.04,-0.01791 -0.04,-0.04zM2.0716,2.71076c0,-0.02209 0.01791,-0.04 0.04,-0.04c0.02209,0 0.04,0.01791 0.04,0.04c0,0.02209 -0.01791,0.04 -0.04,0.04c-0.02209,0 -0.04,-0.01791 -0.04,-0.04zM0.18599,1.02367c0,-0.02209 0.01791,-0.04 0.04,-0.04c0.02209,0 0.04,0.01791 0.04,0.04c0,0.02209 -0.01791,0.04 -0.04,0.04c-0.02209,0 -0.04,-0.01791 -0.04,-0.04zM2.72272,0.98469c0,-0.02209 0.01791,-0.04 0.04,-0.04c0.02209,0 0.04,0.01791 0.04,0.04c0,0.02209 -0.01791,0.04 -0.04,0.04c-0.02209,0 -0.04,-0.01791 -0.04,-0.04zM0.87992,2.73835c0,-0.02209 0.01791,-0.04 0.04,-0.04c0.02209,0 0.04,0.01791 0.04,0.04c0,0.02209 -0.01791,0.04 -0.04,0.04c-0.02209,0 -0.04,-0.01791 -0.04,-0.04zM1.04541,0.19305c0,-0.02209 0.01791,-0.04 0.04,-0.04c0.02209,0 0.04,0.01791 0.04,0.04c0,0.02209 -0.01791,0.04 -0.04,0.04c-0.02209,0 -0.04,-0.01791 -0.04,-0.04zM2.65417,2.18114c0,-0.02209 0.01791,-0.04 0.04,-0.04c0.02209,0 0.04,0.01791 0.04,0.04c0,0.02209 -0.01791,0.04 -0.04,0.04c-0.02209,0 -0.04,-0.01791 -0.04,-0.04zM0.11692,1.81007c0,-0.02209 0.01791,-0.04 0.04,-0.04c0.02209,0 0.04,0.01791 0.04,0.04c0,0.02209 -0.01791,0.04 -0.04,0.04c-0.02209,0 -0.04,-0.01791 -0.04,-0.04zM2.23881,0.35831c0,-0.02209 0.01791,-0.04 0.04,-0.04c0.02209,0 0.04,0.01791 0.04,0.04c0,0.02209 -0.01791,0.04 -0.04,0.04c-0.02209,0 -0.04,-0.01791 -0.04,-0.04zM1.66242,2.87078c0,-0.02209 0.01791,-0.04 0.04,-0.04c0.02209,0 0.04,0.01791 0.04,0.04c0,0.02209 -0.01791,0.04 -0.04,0.04c-0.02209,0 -0.04,-0.01791 -0.04,-0.04zM0.37883,0.62761c0,-0.02209 0.01791,-0.04 0.04,-0.04c0.02209,0 0.04,0.01791 0.04,0.04c0,0.02209 -0.01791,0.04 -0.04,0.04c-0.02209,0 -0.04,-0.01791 -0.04,-0.04zM2.84978,1.40769c0,-0.02209 0.01791,-0.04 0.04,-0.04c0.02209,0 0.04,0.01791 0.04,0.04c0,0.02209 -0.01791,0.04 -0.04,0.04c-0.02209,0 -0.04,-0.01791 -0.04,-0.04zM0.49877,2.51293c0,-0.02209 0.01791,-0.04 0.04,-0.04c0.02209,0 0.04,0.01791 0.04,0.04c0,0.02209 -0.01791,0.04 -0.04,0.04c-0.02209,0 -0.04,-0.01791 -0.04,-0.04zM1.47955,0.10014c0,-0.02209 0.01791,-0.04 0.04,-0.04c0.02209,0 0.04,0.01791 0.04,0.04c0,0.02209 -0.01791,0.04 -0.04,0.04c-0.02209,0 -0.04,-0.01791 -0.04,-0.04zM2.39735,2.54469c0,-0.02209 0.01791,-0.04 0.04,-0.04c0.02209,0 0.04,0.01791 0.04,0.04c0,0.02209 -0.01791,0.04 -0.04,0.04c-0.02209,0 -0.04,-0.01791 -0.04,-0.04zM0.05912,1.36758c0,-0.02209 0.01791,-0.04 0.04,-0.04c0.02209,0 0.04,0.01791 0.04,0.04c0,0.02209 -0.01791,0.04 -0.04,0.04c-0.02209,0 -0.04,-0.01791 -0.04,-0.04zM2.58215,0.64515c0,-0.02209 0.01791,-0.04 0.04,-0.04c0.02209,0 0.04,0.01791 0.04,0.04c0,0.02209 -0.01791,0.04 -0.04,0.04c-0.02209,0 -0.04,-0.01791 -0.04,-0.04zM1.21442,2.89273c0,-0.02209 0.01791,-0.04 0.04,-0.04c0.02209,0 0.04,0.01791 0.04,0.04c0,0.02209 -0.01791,0.04 -0.04,0.04c-0.02209,0 -0.04,-0.01791 -0.04,-0.04zM0.69408,0.30695c0,-0.02209 0.01791,-0.04 0.04,-0.04c0.02209,0 0.04,0.01791 0.04,0.04c0,0.02209 -0.01791,0.04 -0.04,0.04c-0.02209,0 -0.04,-0.01791 -0.04,-0.04zM2.83537,1.85826c0,-0.02209 0.01791,-0.04 0.04,-0.04c0.02209,0 0.04,0.01791 0.04,0.04c0,0.02209 -0.01791,0.04 -0.04,0.04c-0.02209,0 -0.04,-0.01791 -0.04,-0.04zM0.20316,2.17109c0,-0.02209 0.01791,-0.04 0.04,-0.04c0.02209,0 0.04,0.01791 0.04,0.04c0,0.02209 -0.01791,0.04 -0.04,0.04c-0.02209,0 -0.04,-0.01791 -0.04,-0.04zM1.92972,0.15116c0,-0.02209 0.01791,-0.04 0.04,-0.04c0.02209,0 0.04,0.01791 0.04,0.04c0,0.02209 -0.01791,0.04 -0.04,0.04c-0.02209,0 -0.04,-0.01791 -0.04,-0.04zM2.03092,2.81303c0,-0.02209 0.01791,-0.04 0.04,-0.04c0.02209,0 0.04,0.01791 0.04,0.04c0,0.02209 -0.01791,0.04 -0.04,0.04c-0.02209,0 -0.04,-0.01791 -0.04,-0.04zM0.14679,0.9208c0,-0.02209 0.01791,-0.04 0.04,-0.04c0.02209,0 0.04,0.01791 0.04,0.04c0,0.02209 -0.01791,0.04 -0.04,0.04c-0.02209,0 -0.04,-0.01791 -0.04,-0.04zM2.82118,1.03396c0,-0.02209 0.01791,-0.04 0.04,-0.04c0.02209,0 0.04,0.01791 0.04,0.04c0,0.02209 -0.01791,0.04 -0.04,0.04c-0.02209,0 -0.04,-0.01791 -0.04,-0.04zM0.77405,2.76865c0,-0.02209 0.01791,-0.04 0.04,-0.04c0.02209,0 0.04,0.01791 0.04,0.04c0,0.02209 -0.01791,0.04 -0.04,0.04c-0.02209,0 -0.04,-0.01791 -0.04,-0.04zM1.10292,0.09911c0,-0.02209 0.01791,-0.04 0.04,-0.04c0.02209,0 0.04,0.01791 0.04,0.04c0,0.02209 -0.01791,0.04 -0.04,0.04c-0.02209,0 -0.04,-0.01791 -0.04,-0.04zM2.67535,2.28926c0,-0.02209 0.01791,-0.04 0.04,-0.04c0.02209,0 0.04,0.01791 0.04,0.04c0,0.02209 -0.01791,0.04 -0.04,0.04c-0.02209,0 -0.04,-0.01791 -0.04,-0.04zM0.02818,1.74474c0,-0.02209 0.01791,-0.04 0.04,-0.04c0.02209,0 0.04,0.01791 0.04,0.04c0,0.02209 -0.01791,0.04 -0.04,0.04c-0.02209,0 -0.04,-0.01791 -0.04,-0.04zM2.34838,0.34641c0,-0.02209 0.01791,-0.04 0.04,-0.04c0.02209,0 0.04,0.01791 0.04,0.04c0,0.02209 -0.01791,0.04 -0.04,0.04c-0.02209,0 -0.04,-0.01791 -0.04,-0.04zM1.58974,2.95367c0,-0.02209 0.01791,-0.04 0.04,-0.04c0.02209,0 0.04,0.01791 0.04,0.04c0,0.02209 -0.01791,0.04 -0.04,0.04c-0.02209,0 -0.04,-0.01791 -0.04,-0.04zM0.3763,0.51736c0,-0.02209 0.01791,-0.04 0.04,-0.04c0.02209,0 0.04,0.01791 0.04,0.04c0,0.02209 -0.01791,0.04 -0.04,0.04c-0.02209,0 -0.04,-0.01791 -0.04,-0.04zM2.92623,1.4872c0,-0.02209 0.01791,-0.04 0.04,-0.04c0.0142,0 0.02667,0.0074 0.03377,0.01855l0,0.0429c-0.0071,0.01115 -0.01957,0.01855 -0.03377,0.01855c-0.02209,0 -0.04,-0.01791 -0.04,-0.04zM0.38864,2.50607c0,-0.02209 0.01791,-0.04 0.04,-0.04c0.02209,0 0.04,0.01791 0.04,0.04c0,0.02209 -0.01791,0.04 -0.04,0.04c-0.02209,0 -0.04,-0.01791 -0.04,-0.04zM1.56532,0.03068c0,-0.01232 0.00557,-0.02334 0.01433,-0.03068l0.05134,0c0.00876,0.00734 0.01433,0.01836 0.01433,0.03068c0,0.02209 -0.01791,0.04 -0.04,0.04c-0.02209,0 -0.04,-0.01791 -0.04,-0.04zM2.38115,2.6539c0,-0.02209 0.01791,-0.04 0.04,-0.04c0.02209,0 0.04,0.01791 0.04,0.04c0,0.02209 -0.01791,0.04 -0.04,0.04c-0.02209,0 -0.04,-0.01791 -0.04,-0.04zM0.03716,1.23615c0.02209,0 0.04,0.01791 0.04,0.04c0,0.02209 -0.01791,0.04 -0.04,0.04c-0.01685,0 -0.03127,-0.01042 -0.03716,-0.02517l0,-0.02965c0.00589,-0.01475 0.02031,-0.02517 0.03716,-0.02517zM2.68966,0.67058c0,-0.02209 0.01791,-0.04 0.04,-0.04c0.02209,0 0.04,0.01791 0.04,0.04c0,0.02209 -0.01791,0.04 -0.04,0.04c-0.02209,0 -0.04,-0.01791 -0.04,-0.04zM1.11801,2.94673c0,-0.02209 0.01791,-0.04 0.04,-0.04c0.02209,0 0.04,0.01791 0.04,0.04c0,0.02209 -0.01791,0.04 -0.04,0.04c-0.02209,0 -0.04,-0.01791 -0.04,-0.04zM0.72857,0.20192c0,-0.02209 0.01791,-0.04 0.04,-0.04c0.02209,0 0.04,0.01791 0.04,0.04c0,0.02209 -0.01791,0.04 -0.04,0.04c-0.02209,0 -0.04,-0.01791 -0.04,-0.04zM2.88103,1.95898c0,-0.02209 0.01791,-0.04 0.04,-0.04c0.02209,0 0.04,0.01791 0.04,0.04c0,0.02209 -0.01791,0.04 -0.04,0.04c-0.02209,0 -0.04,-0.01791 -0.04,-0.04zM0.10136,2.12778c0,-0.02209 0.01791,-0.04 0.04,-0.04c0.02209,0 0.04,0.01791 0.04,0.04c0,0.02209 -0.01791,0.04 -0.04,0.04c-0.02209,0 -0.04,-0.01791 -0.04,-0.04zM2.03403,0.11418c0,-0.02209 0.01791,-0.04 0.04,-0.04c0.02209,0 0.04,0.01791 0.04,0.04c0,0.02209 -0.01791,0.04 -0.04,0.04c-0.02209,0 -0.04,-0.01791 -0.04,-0.04zM1.9791,2.91086c0,-0.02209 0.01791,-0.04 0.04,-0.04c0.02209,0 0.04,0.01791 0.04,0.04c0,0.02209 -0.01791,0.04 -0.04,0.04c-0.02209,0 -0.04,-0.01791 -0.04,-0.04zM0.11876,0.81365c0,-0.02209 0.01791,-0.04 0.04,-0.04c0.02209,0 0.04,0.01791 0.04,0.04c0,0.02209 -0.01791,0.04 -0.04,0.04c-0.02209,0 -0.04,-0.01791 -0.04,-0.04zM2.91434,1.09394c0,-0.02209 0.01791,-0.04 0.04,-0.04c0.02209,0 0.04,0.01791 0.04,0.04c0,0.02209 -0.01791,0.04 -0.04,0.04c-0.02209,0 -0.04,-0.01791 -0.04,-0.04zM0.66482,2.78751c0,-0.02209 0.01791,-0.04 0.04,-0.04c0.02209,0 0.04,0.01791 0.04,0.04c0,0.02209 -0.01791,0.04 -0.04,0.04c-0.02209,0 -0.04,-0.01791 -0.04,-0.04zM1.17062,0.01129c0,-0.00392 0.00056,-0.00771 0.00162,-0.01129l0.07677,0c0.00105,0.00358 0.00162,0.00737 0.00162,0.01129c0,0.02209 -0.01791,0.04 -0.04,0.04c-0.02209,0 -0.04,-0.01791 -0.04,-0.04zM2.6849,2.39978c0,-0.02209 0.01791,-0.04 0.04,-0.04c0.02209,0 0.04,0.01791 0.04,0.04c0,0.02209 -0.01791,0.04 -0.04,0.04c-0.02209,0 -0.04,-0.01791 -0.04,-0.04zM0.02634,1.66978c0,0.01729 -0.01097,0.03202 -0.02634,0.03761l0,-0.07521c0.01536,0.00558 0.02634,0.02031 0.02634,0.03761zM2.45942,0.34624c0,-0.02209 0.01791,-0.04 0.04,-0.04c0.02209,0 0.04,0.01791 0.04,0.04c0,0.02209 -0.01791,0.04 -0.04,0.04c-0.02209,0 -0.04,-0.01791 -0.04,-0.04zM1.54805,2.98895c0.0107,0 0.02042,0.0042 0.0276,0.01105h-0.0552c0.00718,-0.00685 0.0169,-0.01105 0.0276,-0.01105zM0.38553,0.40661c0,-0.02209 0.01791,-0.04 0.04,-0.04c0.02209,0 0.04,0.01791 0.04,0.04c0,0.02209 -0.01791,0.04 -0.04,0.04c-0.02209,0 -0.04,-0.01791 -0.04,-0.04zM2.9944,1.57504c0,-0.00746 0.00204,-0.01445 0.0056,-0.02043v0.04086c-0.00356,-0.00598 -0.0056,-0.01297 -0.0056,-0.02043zM0.27896,2.4875c0,-0.02209 0.01791,-0.04 0.04,-0.04c0.02209,0 0.04,0.01791 0.04,0.04c0,0.02209 -0.01791,0.04 -0.04,0.04c-0.02209,0 -0.04,-0.01791 -0.04,-0.04zM1.6987,0.01012c-0.01021,0 -0.01953,-0.00383 -0.0266,-0.01012l0.0532,0c-0.00707,0.0063 -0.01639,0.01012 -0.0266,0.01012zM2.35335,2.76172c0,-0.02209 0.01791,-0.04 0.04,-0.04c0.02209,0 0.04,0.01791 0.04,0.04c0,0.02209 -0.01791,0.04 -0.04,0.04c-0.02209,0 -0.04,-0.01791 -0.04,-0.04zM0.02466,1.1779c0,0.01666 -0.01018,0.03094 -0.02466,0.03695l0,-0.07391c0.01448,0.00602 0.02466,0.0203 0.02466,0.03695zM2.79485,0.70742c0,-0.02209 0.01791,-0.04 0.04,-0.04c0.02209,0 0.04,0.01791 0.04,0.04c0,0.02209 -0.01791,0.04 -0.04,0.04c-0.02209,0 -0.04,-0.01791 -0.04,-0.04zM1.01557,2.9908c0,-0.02209 0.01791,-0.04 0.04,-0.04c0.02209,0 0.04,0.01791 0.04,0.04c0,0.00317 -0.00037,0.00625 -0.00106,0.0092l-0.07787,0c-0.0007,-0.00295 -0.00106,-0.00603 -0.00106,-0.0092zM0.7742,0.10011c0,-0.02209 0.01791,-0.04 0.04,-0.04c0.02209,0 0.04,0.01791 0.04,0.04c0,0.02209 -0.01791,0.04 -0.04,0.04c-0.02209,0 -0.04,-0.01791 -0.04,-0.04zM2.91634,2.06488c0,-0.02209 0.01791,-0.04 0.04,-0.04c0.02209,0 0.04,0.01791 0.04,0.04c0,0.02209 -0.01791,0.04 -0.04,0.04c-0.02209,0 -0.04,-0.01791 -0.04,-0.04zM0.00367,2.07367c0,-0.02209 0.01791,-0.04 0.04,-0.04c0.02209,0 0.04,0.01791 0.04,0.04c0,0.02209 -0.01791,0.04 -0.04,0.04c-0.02209,0 -0.04,-0.01791 -0.04,-0.04zM2.14263,0.08791c0,-0.02209 0.01791,-0.04 0.04,-0.04c0.02209,0 0.04,0.01791 0.04,0.04c0,0.02209 -0.01791,0.04 -0.04,0.04c-0.02209,0 -0.04,-0.01791 -0.04,-0.04zM1.95687,2.96375c0.02083,0 0.03794,0.01592 0.03983,0.03625l-0.07965,0c0.00189,-0.02033 0.019,-0.03625 0.03983,-0.03625zM0.10171,0.7031c0,-0.02209 0.01791,-0.04 0.04,-0.04c0.02209,0 0.04,0.01791 0.04,0.04c0,0.02209 -0.01791,0.04 -0.04,0.04c-0.02209,0 -0.04,-0.01791 -0.04,-0.04zM0.5531,2.79519c0,-0.02209 0.01791,-0.04 0.04,-0.04c0.02209,0 0.04,0.01791 0.04,0.04c0,0.02209 -0.01791,0.04 -0.04,0.04c-0.02209,0 -0.04,-0.01791 -0.04,-0.04zM2.68315,2.51188c0,-0.02209 0.01791,-0.04 0.04,-0.04c0.02209,0 0.04,0.01791 0.04,0.04c0,0.02209 -0.01791,0.04 -0.04,0.04c-0.02209,0 -0.04,-0.01791 -0.04,-0.04zM2.5711,0.35743c0,-0.02209 0.01791,-0.04 0.04,-0.04c0.02209,0 0.04,0.01791 0.04,0.04c0,0.02209 -0.01791,0.04 -0.04,0.04c-0.02209,0 -0.04,-0.01791 -0.04,-0.04zM0.4061,0.29614c0,-0.02209 0.01791,-0.04 0.04,-0.04c0.02209,0 0.04,0.01791 0.04,0.04c0,0.02209 -0.01791,0.04 -0.04,0.04c-0.02209,0 -0.04,-0.01791 -0.04,-0.04zM0.17048,2.45768c0,-0.02209 0.01791,-0.04 0.04,-0.04c0.02209,0 0.04,0.01791 0.04,0.04c0,0.02209 -0.01791,0.04 -0.04,0.04c-0.02209,0 -0.04,-0.01791 -0.04,-0.04zM2.31447,2.86744c0,-0.02209 0.01791,-0.04 0.04,-0.04c0.02209,0 0.04,0.01791 0.04,0.04c0,0.02209 -0.01791,0.04 -0.04,0.04c-0.02209,0 -0.04,-0.01791 -0.04,-0.04zM2.89705,0.7551c0,-0.02209 0.01791,-0.04 0.04,-0.04c0.02209,0 0.04,0.01791 0.04,0.04c0,0.02209 -0.01791,0.04 -0.04,0.04c-0.02209,0 -0.04,-0.01791 -0.04,-0.04zM0.948,2.98489c0.01268,0 0.02399,0.0059 0.03131,0.01511l-0.06263,0c0.00733,-0.00921 0.01863,-0.01511 0.03131,-0.01511zM0.83036,0.00215c0,-0.00072 0.00002,-0.00144 0.00006,-0.00215l0.07989,0c0.00004,0.00071 0.00006,0.00143 0.00006,0.00215c0,0.02209 -0.01791,0.04 -0.04,0.04c-0.02209,0 -0.04,-0.01791 -0.04,-0.04zM2.94131,2.17507c0,-0.02209 0.01791,-0.04 0.04,-0.04c0.00675,0 0.01311,0.00167 0.01869,0.00463v0.07075c-0.00558,0.00295 -0.01194,0.00463 -0.01869,0.00463c-0.02209,0 -0.04,-0.01791 -0.04,-0.04zM2.25468,0.07224c0,-0.02209 0.01791,-0.04 0.04,-0.04c0.02209,0 0.04,0.01791 0.04,0.04c0,0.02209 -0.01791,0.04 -0.04,0.04c-0.02209,0 -0.04,-0.01791 -0.04,-0.04zM0.09549,0.58999c0,-0.02209 0.01791,-0.04 0.04,-0.04c0.02209,0 0.04,0.01791 0.04,0.04c0,0.02209 -0.01791,0.04 -0.04,0.04c-0.02209,0 -0.04,-0.01791 -0.04,-0.04zM0.43971,2.7919c0,-0.02209 0.01791,-0.04 0.04,-0.04c0.02209,0 0.04,0.01791 0.04,0.04c0,0.02209 -0.01791,0.04 -0.04,0.04c-0.02209,0 -0.04,-0.01791 -0.04,-0.04zM2.67036,2.62474c0,-0.02209 0.01791,-0.04 0.04,-0.04c0.02209,0 0.04,0.01791 0.04,0.04c0,0.02209 -0.01791,0.04 -0.04,0.04c-0.02209,0 -0.04,-0.01791 -0.04,-0.04zM2.68264,0.37966c0,-0.02209 0.01791,-0.04 0.04,-0.04c0.02209,0 0.04,0.01791 0.04,0.04c0,0.02209 -0.01791,0.04 -0.04,0.04c-0.02209,0 -0.04,-0.01791 -0.04,-0.04zM0.43763,0.1867c0,-0.02209 0.01791,-0.04 0.04,-0.04c0.02209,0 0.04,0.01791 0.04,0.04c0,0.02209 -0.01791,0.04 -0.04,0.04c-0.02209,0 -0.04,-0.01791 -0.04,-0.04zM0.06393,2.41705c0,-0.02209 0.01791,-0.04 0.04,-0.04c0.02209,0 0.04,0.01791 0.04,0.04c0,0.02209 -0.01791,0.04 -0.04,0.04c-0.02209,0 -0.04,-0.01791 -0.04,-0.04zM2.265,2.97036c0,-0.02209 0.01791,-0.04 0.04,-0.04c0.02209,0 0.04,0.01791 0.04,0.04c0,0.01175 -0.00507,0.02232 -0.01313,0.02964l-0.05373,0c-0.00807,-0.00732 -0.01313,-0.01788 -0.01313,-0.02964zM2.99562,0.81308c0,-0.00656 0.00158,-0.01275 0.00438,-0.01821v0.03642c-0.0028,-0.00546 -0.00438,-0.01165 -0.00438,-0.01821zM2.95596,2.28873c0,-0.02209 0.01791,-0.04 0.04,-0.04c0.00136,0 0.00271,0.00007 0.00404,0.0002l0,0.0796c-0.00133,0.00013 -0.00267,0.0002 -0.00404,0.0002c-0.02209,0 -0.04,-0.01791 -0.04,-0.04zM2.36933,0.06713c0,-0.02209 0.01791,-0.04 0.04,-0.04c0.02209,0 0.04,0.01791 0.04,0.04c0,0.02209 -0.01791,0.04 -0.04,0.04c-0.02209,0 -0.04,-0.01791 -0.04,-0.04zM0.09997,0.47515c0,-0.02209 0.01791,-0.04 0.04,-0.04c0.02209,0 0.04,0.01791 0.04,0.04c0,0.02209 -0.01791,0.04 -0.04,0.04c-0.02209,0 -0.04,-0.01791 -0.04,-0.04zM0.32548,2.77784c0,-0.02209 0.01791,-0.04 0.04,-0.04c0.02209,0 0.04,0.01791 0.04,0.04c0,0.02209 -0.01791,0.04 -0.04,0.04c-0.02209,0 -0.04,-0.01791 -0.04,-0.04zM2.64678,2.73756c0,-0.02209 0.01791,-0.04 0.04,-0.04c0.02209,0 0.04,0.01791 0.04,0.04c0,0.02209 -0.01791,0.04 -0.04,0.04c-0.02209,0 -0.04,-0.01791 -0.04,-0.04zM2.79326,0.41262c0,-0.02209 0.01791,-0.04 0.04,-0.04c0.02209,0 0.04,0.01791 0.04,0.04c0,0.02209 -0.01791,0.04 -0.04,0.04c-0.02209,0 -0.04,-0.01791 -0.04,-0.04zM0.47975,0.07905c0,-0.02209 0.01791,-0.04 0.04,-0.04c0.02209,0 0.04,0.01791 0.04,0.04c0,0.02209 -0.01791,0.04 -0.04,0.04c-0.02209,0 -0.04,-0.01791 -0.04,-0.04zM0.04,2.36603c0,0.02209 -0.01791,0.04 -0.04,0.04l0,-0.08c0.02209,0 0.04,0.01791 0.04,0.04zM2.9603,2.40504c0,-0.02199 0.01775,-0.03984 0.0397,-0.04v0.08c-0.02195,-0.00016 -0.0397,-0.01801 -0.0397,-0.04zM2.48577,0.07249c0,-0.02209 0.01791,-0.04 0.04,-0.04c0.02209,0 0.04,0.01791 0.04,0.04c0,0.02209 -0.01791,0.04 -0.04,0.04c-0.02209,0 -0.04,-0.01791 -0.04,-0.04zM0.11502,0.35937c0,-0.02209 0.01791,-0.04 0.04,-0.04c0.02209,0 0.04,0.01791 0.04,0.04c0,0.02209 -0.01791,0.04 -0.04,0.04c-0.02209,0 -0.04,-0.01791 -0.04,-0.04zM0.21119,2.75318c0,-0.02209 0.01791,-0.04 0.04,-0.04c0.02209,0 0.04,0.01791 0.04,0.04c0,0.02209 -0.01791,0.04 -0.04,0.04c-0.02209,0 -0.04,-0.01791 -0.04,-0.04zM2.61266,2.84959c0,-0.02209 0.01791,-0.04 0.04,-0.04c0.02209,0 0.04,0.01791 0.04,0.04c0,0.02209 -0.01791,0.04 -0.04,0.04c-0.02209,0 -0.04,-0.01791 -0.04,-0.04zM2.90224,0.45599c0,-0.02209 0.01791,-0.04 0.04,-0.04c0.02209,0 0.04,0.01791 0.04,0.04c0,0.02209 -0.01791,0.04 -0.04,0.04c-0.02209,0 -0.04,-0.01791 -0.04,-0.04zM0.57211,0.01389c-0.01211,0 -0.02297,-0.00538 -0.0303,-0.01389l0.0606,0c-0.00734,0.0085 -0.01819,0.01389 -0.0303,0.01389zM2.95434,2.5232c0,-0.02209 0.01791,-0.04 0.04,-0.04c0.00192,0 0.00381,0.00014 0.00566,0.0004v0.07921c-0.00185,0.00026 -0.00374,0.0004 -0.00566,0.0004c-0.02209,0 -0.04,-0.01791 -0.04,-0.04zM2.60322,0.08824c0,-0.02209 0.01791,-0.04 0.04,-0.04c0.02209,0 0.04,0.01791 0.04,0.04c0,0.02209 -0.01791,0.04 -0.04,0.04c-0.02209,0 -0.04,-0.01791 -0.04,-0.04zM0.1405,0.24345c0,-0.02209 0.01791,-0.04 0.04,-0.04c0.02209,0 0.04,0.01791 0.04,0.04c0,0.02209 -0.01791,0.04 -0.04,0.04c-0.02209,0 -0.04,-0.01791 -0.04,-0.04zM0.09759,2.71813c0,-0.02209 0.01791,-0.04 0.04,-0.04c0.02209,0 0.04,0.01791 0.04,0.04c0,0.02209 -0.01791,0.04 -0.04,0.04c-0.02209,0 -0.04,-0.01791 -0.04,-0.04zM2.56825,2.96006c0,-0.02209 0.01791,-0.04 0.04,-0.04c0.02209,0 0.04,0.01791 0.04,0.04c0,0.02133 -0.01669,0.03876 -0.03773,0.03994l-0.00454,0c-0.02103,-0.00118 -0.03773,-0.01861 -0.03773,-0.03994zM2.93813,2.64243c0,-0.02209 0.01791,-0.04 0.04,-0.04c0.00807,0 0.01559,0.00239 0.02187,0.0065v0.06699c-0.00629,0.00411 -0.0138,0.0065 -0.02187,0.0065c-0.02209,0 -0.04,-0.01791 -0.04,-0.04zM2.72089,0.1143c0,-0.02209 0.01791,-0.04 0.04,-0.04c0.02209,0 0.04,0.01791 0.04,0.04c0,0.02209 -0.01791,0.04 -0.04,0.04c-0.02209,0 -0.04,-0.01791 -0.04,-0.04zM0.17625,0.12815c0,-0.02209 0.01791,-0.04 0.04,-0.04c0.02209,0 0.04,0.01791 0.04,0.04c0,0.02209 -0.01791,0.04 -0.04,0.04c-0.02209,0 -0.04,-0.01791 -0.04,-0.04zM0.02545,2.63291c0.02209,0 0.04,0.01791 0.04,0.04c0,0.02209 -0.01791,0.04 -0.04,0.04c-0.00967,0 -0.01854,-0.00343 -0.02545,-0.00914l0,-0.06172c0.00692,-0.00571 0.01578,-0.00914 0.02545,-0.00914zM2.91171,2.76195c0,-0.02209 0.01791,-0.04 0.04,-0.04c0.02209,0 0.04,0.01791 0.04,0.04c0,0.02209 -0.01791,0.04 -0.04,0.04c-0.02209,0 -0.04,-0.01791 -0.04,-0.04zM2.83803,0.15054c0,-0.02209 0.01791,-0.04 0.04,-0.04c0.02209,0 0.04,0.01791 0.04,0.04c0,0.02209 -0.01791,0.04 -0.04,0.04c-0.02209,0 -0.04,-0.01791 -0.04,-0.04zM0.22209,0.01421c0,-0.005 0.00092,-0.00979 0.0026,-0.01421l0.0748,0c0.00168,0.00442 0.0026,0.00921 0.0026,0.01421c0,0.02209 -0.01791,0.04 -0.04,0.04c-0.02209,0 -0.04,-0.01791 -0.04,-0.04zM0.24015,2.97749c0.01582,0 0.02949,0.00918 0.03598,0.02251l-0.07196,0c0.00649,-0.01332 0.02016,-0.02251 0.03598,-0.02251zM2.87519,2.88103c0,-0.02209 0.01791,-0.04 0.04,-0.04c0.02209,0 0.04,0.01791 0.04,0.04c0,0.02209 -0.01791,0.04 -0.04,0.04c-0.02209,0 -0.04,-0.01791 -0.04,-0.04zM2.95388,0.1968c0,-0.02209 0.01791,-0.04 0.04,-0.04c0.00208,0 0.00412,0.00016 0.00612,0.00047v0.07907c-0.00199,0.00031 -0.00404,0.00047 -0.00612,0.00047c-0.02209,0 -0.04,-0.01791 -0.04,-0.04zM0.07906,2.98088c0,-0.02209 0.01791,-0.04 0.04,-0.04c0.02209,0 0.04,0.01791 0.04,0.04c0,0.00693 -0.00176,0.01344 -0.00486,0.01912l-0.07028,0c-0.0031,-0.00568 -0.00486,-0.0122 -0.00486,-0.01912zM2.82868,2.9989c0,-0.02209 0.01791,-0.04 0.04,-0.04c0.02209,0 0.04,0.01791 0.04,0.04c0,0.00037 0,0.00073 -0.00001,0.0011h-0.07997c-0.00001,-0.00037 -0.00001,-0.00073 -0.00001,-0.0011zM0.03908,2.93431c0,0.02178 -0.01741,0.0395 -0.03908,0.03999l0,-0.07998c0.02167,0.00049 0.03908,0.01821 0.03908,0.03999zM0,0l0.04,0c0,0.02209 -0.01791,0.04 -0.04,0.04z" fill="#d3d3d3" fill-rule="evenodd" stroke="#ff0000" stroke-width="0.005"></path></g></svg>