<svg version="1.1" xmlns="http://www.w3.org/2000/svg" xmlns:xlink="http://www.w3.org/1999/xlink" width="3in" height="3in" viewBox="0 0 3.05 3.05"><g fill="#d3d3d3" fill-rule="evenodd" stroke="#ff0000" stroke-width="0.005" stroke-linecap="butt" stroke-linejoin="miter" stroke-miterlimit="10" stroke-dasharray="" stroke-dashoffset="0" font-family="none" font-weight="none" font-size="none" text-anchor="none" style="mix-blend-mode: normal"><path d="M0,3v-3h3v3zM2.46268,0.22692l-0.00095,-0.00192l0.00232,0l-0.00137,0.00192M2.39682,0.31914l-0.1209,0.16932l-0.36108,-0.26346l0.43524,0zM1.66888,0.2949l-0.0286,-0.06715l0.00283,-0.00275l0.03793,0l-0.01217,0.0699M1.22075,0.24342l0.14291,-0.01842l0.02371,0l-0.10342,0.11351l-0.0632,-0.09509M1.78381,0.56476l-0.04287,-0.10067l0.0374,-0.2149l0.43947,0.32065l-0.03499,0.049l-0.39901,-0.05409M0.94866,0.27849l0.16148,-0.02081l0.10438,0.15704l-0.0591,0.06487l-0.21461,-0.02909l0.00785,-0.172M1.56337,0.30238l0.07398,0.1737l-0.0117,0.06724l-0.22592,-0.03063l-0.02081,-0.03132l0.18447,-0.179M0.41838,0.34683l0.42959,-0.05537l-0.00664,0.14554l-0.39796,-0.05395l-0.02498,-0.03622M0.29421,0.36284l0.01261,-0.00163l0.00254,0.00368l-0.01515,-0.00205M2.54238,0.61226l-0.0331,0.04646l-0.15257,-0.11132l0.09052,-0.12676l0.09516,0.19162M0.7189,0.95871l-0.10747,0.11796l-0.35206,-0.61764l0.12677,0.01718l0.33277,0.4825M0.82272,0.84476l-0.03467,0.03806l-0.2679,-0.38844l0.31661,0.04292l-0.01403,0.30747M1.07359,0.5694l-0.14549,0.15969l0.00814,-0.17831l0.13736,0.01862M0.91904,0.92762l0.34285,-0.33269l0.07958,0.01079l0.2166,0.32589l-0.12938,0.74338l-0.04797,0.06718l-0.4679,-0.67842l0.00621,-0.13613M2.29485,0.63403l0.00374,-0.00524l0.00968,0.00706l-0.01342,-0.00182M1.60849,0.64191l-0.0255,0.14652l-0.10955,-0.16483l0.13505,0.01831M1.71407,0.65622l0.16516,0.3878l-0.06545,0.09166l-0.15035,-0.22622l0.04422,-0.25411l0.00642,0.00087M1.94731,0.94867l-0.11789,-0.27681l0.2877,0.039l-0.16981,0.23781M2.44086,0.75474l-0.3606,0.5061l-0.08704,-0.20438l0.23593,-0.33042l0.21171,0.0287M2.30865,1.7971l-0.18245,-0.4284l0.40583,-0.56959l0.16174,0.11801l0.03763,0.07578l-0.42275,0.8042M2.77246,0.85075l-0.02719,-0.05475l0.02972,0.00403v0.05257l-0.00254,-0.00185M1.75159,1.22277l-0.18868,0.26425l0.0756,-0.43439l0.11308,0.17014M0.66628,1.17289l0.12002,-0.11646l0.0251,0.03639l-0.01414,0.30985l-0.13097,-0.22977M2.58323,1.58026l0.19177,-0.39824l0,0.23306zM1.92514,1.15181l0.0871,0.20451l-0.0268,0.03762l-0.11242,-0.16914l0.05212,-0.07299M1.31893,1.8287l-0.15505,0.21714l-0.27394,-0.48059l0.01535,-0.33631l0.41364,0.59976M1.92331,1.48113l-0.36719,0.51535l-0.06538,-0.09479l0.03257,-0.18713l0.28752,-0.40267l0.11248,0.16923M2.05817,1.46418l0.04648,0.10913l-0.05996,-0.09021l0.01348,-0.01892M1.61651,2.08405l0.36606,-0.51376l0.22289,0.33536l-0.44665,0.38472l-0.1423,-0.20632M0.8478,2.4885l0.0336,-0.73628l0.21847,0.38326l-0.25207,0.35302M1.31731,2.31501l-0.09888,-0.17347l0.16087,-0.2253l0.00591,0.00857l-0.06791,0.39019M1.49439,2.08312l-0.04661,0.06542l0.01848,-0.1062l0.02813,0.04078M2.16297,2.07423l-0.23929,0.4552l-0.10777,-0.15626l0.34706,-0.29894M2.33083,2.10439l0.17327,0.40683l-0.38508,0.03302l0.21181,-0.43985M1.4081,2.37656l0.14669,-0.20588l0.12782,0.18533l-0.22933,0.19753l-0.05821,-0.10212l0.01303,-0.07486M1.13568,2.58657l-0.20791,-0.03797l0.22665,-0.31742l0.10421,0.18283l-0.12296,0.17257M1.82955,2.56907l-0.26773,0.02296l0.17789,-0.15322l0.08984,0.13026M1.27379,2.56507l-0.00788,0.04529l-0.02158,-0.00394l0.02946,-0.04135M1.36951,2.60852l-0.00181,0.00016l0.00044,-0.00255l0.00137,0.0024M2.6502,2.59906l0.01526,-0.00131l0.10954,0.1648v0.01245l-0.04987,0zM2.54534,2.60805l0.0711,0.16695h-0.44913l-0.08496,-0.01552l-0.03944,-0.05718l0.0257,-0.05337l0.47673,-0.04089M0.86356,2.63853l0.04989,0.00911l-0.06007,0.00515l0.01018,-0.01426M1.85106,2.66759l-0.02381,0.04529l-0.16114,-0.02943l0.18495,-0.01586M1.24693,2.7194l-0.00243,0.01397l-0.04832,0.04162l-0.07196,0l0.0342,-0.048l0.08851,-0.00759M0.88426,2.75051l0.14338,-0.0123l-0.0217,0.03046l-0.12167,-0.01816M1.39512,2.73562l0.05228,0.00955l0.01701,0.02984l-0.11501,0l0.04572,-0.03938M1.57588,2.76863l0.03487,0.00637l-0.03124,0l-0.00363,-0.00637"></path></g></svg>