<svg version="1.1" xmlns="http://www.w3.org/2000/svg" xmlns:xlink="http://www.w3.org/1999/xlink" width="3in" height="3in" viewBox="0 0 3.05 3.05"><g fill="#d3d3d3" fill-rule="evenodd" stroke="#ff0000" stroke-width="0.005" stroke-linecap="butt" stroke-linejoin="miter" stroke-miterlimit="10" stroke-dasharray="" stroke-dashoffset="0" font-family="none" font-weight="none" font-size="none" text-anchor="none" style="mix-blend-mode: normal"><path d="M0,3v-3h3v3zM0.265,0.265h-0.04v-0.04h0.04zM1.185,0.265l0,-0.04h0.04v0.04zM1.305,0.265v-0.04h0.04v0.04zM1.425,0.265l0,-0.04h0.04v0.04zM2.145,0.265l0,-0.04h0.04v0.04zM2.265,0.265v-0.04h0.04v0.04zM0.265,0.345v0.04l-0.04,0v-0.04zM1.065,0.385v-0.04h0.04v0.04zM1.185,0.385v-0.04h0.04v0.04zM1.305,0.385v-0.04h0.04v0.04zM1.425,0.385v-0.04h0.04v0.04zM1.545,0.385v-0.04h0.04v0.04zM2.025,0.385v-0.04h0.04v0.04zM2.145,0.385v-0.04h0.04v0.04zM2.745,0.385v-0.04l0.03,0l0,0.04zM0.265,0.465v0.04l-0.04,0v-0.04zM0.345,0.505v-0.04h0.04v0.04zM1.065,0.505v-0.04h0.04v0.04zM1.185,0.505v-0.04h0.04v0.04zM1.305,0.505v-0.04h0.04v0.04zM1.425,0.505v-0.04h0.04v0.04zM1.545,0.505v-0.04h0.04v0.04zM1.665,0.505v-0.04h0.04v0.04zM1.785,0.505v-0.04h0.04v0.04zM1.905,0.505v-0.04h0.04v0.04zM2.025,0.505v-0.04h0.04v0.04zM2.145,0.505v-0.04h0.04v0.04zM2.625,0.505v-0.04h0.04v0.04zM2.745,0.505v-0.04h0.03l0,0.04zM0.265,0.585v0.04l-0.04,0v-0.04zM0.345,0.625v-0.04h0.04v0.04zM1.425,0.625v-0.04h0.04v0.04zM1.545,0.625v-0.04h0.04v0.04zM1.665,0.625v-0.04h0.04v0.04zM1.785,0.625v-0.04h0.04v0.04zM1.905,0.625v-0.04h0.04v0.04zM2.025,0.625v-0.04h0.04v0.04zM2.145,0.625v-0.04h0.04v0.04zM2.265,0.625v-0.04h0.04v0.04zM2.625,0.625v-0.04h0.04v0.04zM2.745,0.625v-0.04h0.03l0,0.04zM0.265,0.705v0.04l-0.04,0v-0.04zM0.345,0.745v-0.04h0.04v0.04zM1.665,0.745v-0.04h0.04v0.04zM1.785,0.745v-0.04h0.04v0.04zM1.905,0.745v-0.04h0.04v0.04zM2.025,0.745v-0.04h0.04v0.04zM2.145,0.745v-0.04h0.04v0.04zM2.265,0.745v-0.04h0.04v0.04zM2.625,0.745v-0.04h0.04v0.04zM2.745,0.745v-0.04l0.03,0l0,0.04zM0.265,0.825v0.04l-0.04,0v-0.04zM0.345,0.865v-0.04h0.04v0.04zM0.465,0.865v-0.04h0.04v0.04zM0.585,0.865v-0.04h0.04v0.04zM0.705,0.865v-0.04h0.04v0.04zM0.825,0.865v-0.04h0.04v0.04zM1.905,0.865v-0.04h0.04v0.04zM2.025,0.865v-0.04h0.04v0.04zM2.145,0.865v-0.04h0.04v0.04zM2.265,0.865v-0.04h0.04v0.04zM0.265,0.945v0.04l-0.04,0v-0.04zM0.345,0.985v-0.04h0.04v0.04zM0.465,0.985v-0.04h0.04v0.04zM0.585,0.985v-0.04h0.04v0.04zM0.705,0.985v-0.04h0.04v0.04zM0.825,0.985v-0.04h0.04v0.04zM0.945,0.985v-0.04h0.04v0.04zM1.065,0.985v-0.04h0.04v0.04zM1.905,0.985v-0.04h0.04v0.04zM2.025,0.985v-0.04h0.04v0.04zM2.145,0.985v-0.04h0.04v0.04zM0.265,1.065v0.04h-0.04v-0.04zM0.345,1.105v-0.04h0.04v0.04zM0.465,1.105v-0.04h0.04v0.04zM0.585,1.105v-0.04h0.04v0.04zM0.705,1.105v-0.04h0.04v0.04zM0.825,1.105v-0.04h0.04v0.04zM0.945,1.105v-0.04h0.04v0.04zM1.065,1.105v-0.04h0.04v0.04zM1.185,1.105v-0.04h0.04v0.04zM1.305,1.105v-0.04h0.04v0.04zM1.905,1.105v-0.04h0.04v0.04zM2.025,1.105v-0.04h0.04v0.04zM0.265,1.185v0.04l-0.04,0v-0.04zM0.345,1.225v-0.04h0.04v0.04zM0.465,1.225v-0.04h0.04v0.04zM0.585,1.225v-0.04h0.04v0.04zM0.705,1.225v-0.04h0.04v0.04zM0.945,1.225v-0.04h0.04v0.04zM1.065,1.225v-0.04h0.04v0.04zM1.185,1.225v-0.04h0.04v0.04zM1.305,1.225v-0.04h0.04v0.04zM1.425,1.225v-0.04h0.04v0.04zM1.545,1.225v-0.04h0.04v0.04zM1.665,1.225v-0.04h0.04v0.04zM1.785,1.225v-0.04h0.04v0.04zM1.905,1.225v-0.04h0.04v0.04zM2.025,1.225v-0.04h0.04v0.04zM0.265,1.305v0.04l-0.04,0v-0.04zM0.345,1.345v-0.04h0.04v0.04zM0.465,1.345v-0.04h0.04v0.04zM1.065,1.345v-0.04h0.04v0.04zM1.185,1.345v-0.04h0.04v0.04zM1.305,1.345v-0.04h0.04v0.04zM1.425,1.345v-0.04h0.04v0.04zM1.545,1.345v-0.04h0.04v0.04zM1.665,1.345v-0.04h0.04v0.04zM1.785,1.345v-0.04h0.04v0.04zM1.905,1.345v-0.04h0.04v0.04zM2.025,1.345v-0.04h0.04v0.04zM2.145,1.345v-0.04h0.04v0.04zM2.385,1.345v-0.04h0.04v0.04zM2.505,1.345v-0.04h0.04v0.04zM2.625,1.345v-0.04h0.04v0.04zM0.265,1.425v0.04l-0.04,0v-0.04zM0.345,1.465v-0.04h0.04v0.04zM0.465,1.465v-0.04h0.04v0.04zM1.185,1.465v-0.04h0.04v0.04zM1.305,1.465v-0.04h0.04v0.04zM1.425,1.465v-0.04h0.04v0.04zM1.545,1.465v-0.04h0.04v0.04zM1.665,1.465v-0.04h0.04v0.04zM1.785,1.465v-0.04h0.04v0.04zM1.905,1.465v-0.04h0.04v0.04zM2.025,1.465v-0.04h0.04v0.04zM2.145,1.465v-0.04h0.04v0.04zM2.265,1.465v-0.04h0.04v0.04zM2.385,1.465v-0.04h0.04v0.04zM2.505,1.465v-0.04h0.04v0.04zM2.625,1.465v-0.04h0.04v0.04zM0.265,1.545v0.04l-0.04,0v-0.04zM0.345,1.585v-0.04h0.04v0.04zM0.465,1.585v-0.04h0.04v0.04zM1.305,1.585v-0.04h0.04v0.04zM1.425,1.585v-0.04h0.04v0.04zM1.545,1.585v-0.04h0.04v0.04zM1.665,1.585v-0.04h0.04v0.04zM2.025,1.585v-0.04h0.04v0.04zM2.145,1.585v-0.04h0.04v0.04zM2.265,1.585v-0.04h0.04v0.04zM2.385,1.585v-0.04h0.04v0.04zM2.505,1.585v-0.04h0.04v0.04zM2.625,1.585v-0.04h0.04v0.04zM0.265,1.665v0.04l-0.04,0v-0.04zM0.345,1.705v-0.04h0.04v0.04zM0.465,1.705v-0.04h0.04v0.04zM1.305,1.705v-0.04h0.04v0.04zM1.425,1.705v-0.04h0.04v0.04zM2.145,1.705v-0.04h0.04v0.04zM2.265,1.705v-0.04h0.04v0.04zM2.385,1.705v-0.04h0.04v0.04zM2.505,1.705v-0.04h0.04v0.04zM2.625,1.705v-0.04h0.04v0.04zM0.345,1.825v-0.04h0.04v0.04zM0.465,1.825v-0.04h0.04v0.04zM0.825,1.825v-0.04h0.04v0.04zM0.945,1.825v-0.04h0.04v0.04zM1.065,1.825v-0.04h0.04v0.04zM1.185,1.825v-0.04h0.04v0.04zM1.305,1.825v-0.04h0.04v0.04zM1.425,1.825v-0.04h0.04v0.04zM2.145,1.825v-0.04h0.04v0.04zM2.265,1.825v-0.04h0.04v0.04zM2.385,1.825v-0.04h0.04v0.04zM2.505,1.825v-0.04h0.04v0.04zM0.345,1.945v-0.04h0.04v0.04zM0.465,1.945v-0.04h0.04v0.04zM0.705,1.945v-0.04h0.04v0.04zM0.825,1.945v-0.04h0.04v0.04zM0.945,1.945v-0.04h0.04v0.04zM1.065,1.945v-0.04h0.04v0.04zM1.185,1.945v-0.04h0.04v0.04zM1.305,1.945v-0.04h0.04v0.04zM1.425,1.945v-0.04h0.04v0.04zM2.265,1.945v-0.04h0.04v0.04zM0.345,2.065v-0.04h0.04v0.04zM0.465,2.065v-0.04h0.04v0.04zM0.585,2.065v-0.04h0.04v0.04zM0.705,2.065v-0.04h0.04v0.04zM0.825,2.065v-0.04h0.04v0.04zM0.945,2.065v-0.04h0.04v0.04zM1.065,2.065v-0.04h0.04v0.04zM1.185,2.065v-0.04h0.04v0.04zM1.305,2.065v-0.04h0.04v0.04zM1.425,2.065v-0.04h0.04v0.04zM2.265,2.065v-0.04h0.04v0.04zM0.345,2.185v-0.04h0.04v0.04zM0.465,2.185v-0.04h0.04v0.04zM0.585,2.185v-0.04h0.04v0.04zM1.185,2.185v-0.04h0.04v0.04zM1.305,2.185v-0.04h0.04v0.04zM1.425,2.185v-0.04h0.04v0.04zM2.265,2.185v-0.04h0.04v0.04zM2.385,2.185v-0.04h0.04v0.04zM0.345,2.305v-0.04h0.04v0.04zM0.465,2.305v-0.04h0.04v0.04zM0.585,2.305v-0.04h0.04v0.04zM1.185,2.305v-0.04h0.04v0.04zM1.305,2.305v-0.04h0.04v0.04zM1.425,2.305v-0.04h0.04v0.04zM2.265,2.305v-0.04h0.04v0.04zM2.385,2.305v-0.04h0.04v0.04zM0.345,2.425v-0.04h0.04v0.04zM0.465,2.425v-0.04h0.04v0.04zM0.585,2.425v-0.04h0.04v0.04zM1.185,2.425v-0.04h0.04v0.04zM1.305,2.425v-0.04h0.04v0.04zM1.425,2.425v-0.04h0.04v0.04zM1.545,2.425v-0.04h0.04v0.04zM1.665,2.425v-0.04h0.04v0.04zM1.785,2.425v-0.04h0.04v0.04zM2.265,2.425v-0.04h0.04v0.04zM2.385,2.425v-0.04h0.04v0.04zM2.505,2.425v-0.04h0.04v0.04zM0.345,2.545v-0.04h0.04v0.04zM0.465,2.545v-0.04h0.04v0.04zM0.585,2.545v-0.04h0.04v0.04zM0.705,2.545v-0.04h0.04v0.04zM1.065,2.545v-0.04h0.04v0.04zM1.185,2.545v-0.04h0.04v0.04zM1.305,2.545v-0.04h0.04v0.04zM1.425,2.545v-0.04h0.04v0.04zM1.665,2.545v-0.04h0.04v0.04zM1.785,2.545v-0.04h0.04v0.04zM1.905,2.545v-0.04h0.04v0.04zM2.265,2.545v-0.04h0.04v0.04zM2.385,2.545v-0.04h0.04v0.04zM2.505,2.545v-0.04h0.04v0.04zM2.625,2.545v-0.04h0.04v0.04zM2.745,2.545v-0.04h0.03v0.04zM0.465,2.665v-0.04h0.04v0.04zM0.585,2.665v-0.04h0.04v0.04zM0.705,2.665v-0.04h0.04v0.04zM1.065,2.665v-0.04h0.04v0.04zM1.185,2.665v-0.04h0.04v0.04zM1.305,2.665v-0.04h0.04v0.04zM1.665,2.665v-0.04h0.04v0.04zM1.785,2.665v-0.04h0.04v0.04zM1.905,2.665v-0.04h0.04v0.04zM2.025,2.665v-0.04h0.04v0.04zM2.265,2.665v-0.04h0.04v0.04zM2.385,2.665v-0.04h0.04v0.04zM2.505,2.665v-0.04h0.04v0.04zM2.625,2.665v-0.04h0.04v0.04zM2.745,2.665v-0.04l0.03,0l0,0.04zM0.465,2.745h0.04l0,0.03l-0.04,0zM0.585,2.745h0.04l0,0.03l-0.04,0zM0.705,2.745h0.04l0,0.03l-0.04,0zM1.065,2.745h0.04v0.03l-0.04,0zM1.185,2.745h0.04l0,0.03l-0.04,0zM1.665,2.745h0.04l0,0.03l-0.04,0zM1.785,2.745h0.04v0.03l-0.04,0zM1.905,2.745h0.04l0,0.03h-0.04zM2.025,2.745h0.04v0.03l-0.04,0zM2.145,2.745h0.04l0,0.03h-0.04zM2.265,2.745h0.04l0,0.03l-0.04,0zM2.385,2.745h0.04l0,0.03l-0.04,0zM2.505,2.745h0.04l0,0.03l-0.04,0zM2.625,2.745h0.04l0,0.03l-0.04,0zM2.745,2.745h0.03v0.03l-0.03,0z"></path></g></svg>