<svg version="1.1" xmlns="http://www.w3.org/2000/svg" xmlns:xlink="http://www.w3.org/1999/xlink" width="3in" height="3in" viewBox="0 0 3.05 3.05"><g fill="#d3d3d3" fill-rule="evenodd" stroke="#ff0000" stroke-width="0.005" stroke-linecap="butt" stroke-linejoin="miter" stroke-miterlimit="10" stroke-dasharray="" stroke-dashoffset="0" font-family="none" font-weight="none" font-size="none" text-anchor="none" style="mix-blend-mode: normal"><path d="M0,3v-3h3v3zM2.75194,2.75h-0.38633l0.02407,-0.04193c0.01323,-0.02307 0.01973,-0.04629 0.01443,-0.05159c-0.0053,-0.0053 -0.05306,-0.00899 -0.10611,-0.00819c-0.05306,0.0008 -0.1003,-0.00476 -0.10499,-0.01233c-0.00469,-0.00759 -0.03717,-0.02877 -0.0722,-0.04709c-0.04049,-0.02117 -0.07111,-0.04991 -0.0841,-0.07894c-0.01124,-0.02511 -0.0289,-0.04566 -0.03926,-0.04566c-0.02959,0 -0.13317,0.10049 -0.13317,0.1292c0,0.01423 0.01694,0.0392 0.03764,0.05547c0.03199,0.02517 0.05771,0.02961 0.17143,0.02961c0.13319,0 0.13379,0.00016 0.13379,0.03571c0,0.03526 -0.00153,0.03571 -0.1199,0.03571c-0.0934,0 -0.12171,-0.00474 -0.12813,-0.02143c-0.01054,-0.0275 -0.04344,-0.0275 -0.06626,0c-0.01406,0.01693 -0.05486,0.02143 -0.1946,0.02143c-0.09726,0 -0.17683,-0.00543 -0.17683,-0.01207c0,-0.00664 0.01179,-0.02273 0.02619,-0.03577c0.02003,-0.01813 0.0415,-0.0216 0.09139,-0.01476c0.05976,0.00819 0.06731,0.00571 0.09054,-0.02974c0.03281,-0.05006 0.01294,-0.06429 -0.09026,-0.06459c-0.05576,-0.00016 -0.08233,-0.00754 -0.10357,-0.02879c-0.03464,-0.03464 -0.0406,-0.03504 -0.07387,-0.00493c-0.01964,0.01777 -0.02613,0.04439 -0.02613,0.10714v0.0835h-0.82659l-0.00456,-0.03214c-0.00409,-0.0287 -0.01456,-0.03291 -0.09784,-0.03929c-0.06887,-0.00527 -0.10437,-0.01591 -0.13571,-0.04066c-0.03946,-0.03117 -0.04244,-0.04021 -0.04244,-0.12857c0,-0.08429 -0.00326,-0.09553 -0.02867,-0.09917c-0.01577,-0.00226 -0.04064,0.00464 -0.05527,0.01533c-0.03366,0.02461 -0.02154,0.09301 0.02661,0.15024c0.02767,0.03289 0.03186,0.05043 0.0255,0.1068c-0.00701,0.06223 -0.01064,0.06746 -0.0469,0.06746l-0.02484,0l0,-0.78939c0.00116,0.00143 0.00236,0.00266 0.00357,0.00367c0.01456,0.01209 0.02143,0.04444 0.02143,0.1009c0,0.04573 0.00704,0.08749 0.01564,0.0928c0.0086,0.00531 0.03406,-0.00394 0.05657,-0.02059c0.04573,-0.03381 0.07851,-0.03741 0.13729,-0.01507c0.05,0.01901 0.06143,0.03686 0.06171,0.09639c0.00021,0.04589 0.00181,0.04716 0.05379,0.04286l0.05357,-0.00443l0.00433,-0.07534c0.00387,-0.0674 -0.00016,-0.07981 -0.03819,-0.11786c-0.03774,-0.03774 -0.05216,-0.04251 -0.12851,-0.04251c-0.07137,0 -0.08961,-0.00514 -0.10717,-0.03021c-0.01164,-0.01661 -0.01773,-0.03916 -0.01353,-0.05011c0.00963,-0.02506 -0.02977,-0.08727 -0.08516,-0.13449c-0.02247,-0.01915 -0.0328,-0.03016 -0.03534,-0.0451l0,-0.01761c0.00081,-0.00655 0.00235,-0.01406 0.00446,-0.02301c0.01197,-0.05081 0.01117,-0.07639 -0.00353,-0.11376c-0.00031,-0.00079 -0.00062,-0.00154 -0.00093,-0.00223l0,-0.21347c0.00277,0.00105 0.00594,0.00141 0.0096,0.00141c0.03586,0 0.04711,-0.05247 0.02177,-0.10149c-0.01136,-0.02197 -0.02066,-0.07583 -0.02066,-0.11969c0,-0.04183 -0.0031,-0.06606 -0.01071,-0.07852l0,-0.60265c0.00518,0.00167 0.01165,0.00234 0.01974,0.00234c0.06366,0 0.09097,0.02467 0.09097,0.08216c0,0.04337 0.01163,0.06439 0.06649,0.12007l0.06649,0.0675l-0.02557,0.04014c-0.01406,0.02207 -0.06004,0.07346 -0.1022,0.1142c-0.08519,0.08234 -0.09431,0.11277 -0.03999,0.13343c0.05367,0.0204 0.05706,0.01917 0.11883,-0.04321c0.03111,-0.03143 0.0665,-0.05714 0.07861,-0.05714c0.03551,0 0.05534,-0.05403 0.04504,-0.12273c-0.00514,-0.03427 -0.0148,-0.06569 -0.02147,-0.06981c-0.00667,-0.00411 -0.01653,-0.0395 -0.02191,-0.07863c-0.00537,-0.03913 -0.02204,-0.08674 -0.03704,-0.10581c-0.0186,-0.02363 -0.02727,-0.05743 -0.02727,-0.10624c0,-0.07691 -0.01006,-0.11677 -0.02947,-0.11677c-0.00666,0 -0.03517,0.01564 -0.06334,0.03476c-0.04269,0.02897 -0.05801,0.0324 -0.09196,0.02057c-0.01127,-0.00393 -0.01958,-0.00764 -0.02594,-0.01302l0,-0.14769c0.01544,0.00357 0.0408,0.00538 0.07574,0.00538c0.09031,0 0.0941,0.00144 0.10796,0.0412c0.01561,0.04477 -0.0012,0.0406 0.28123,0.06983c0.11314,0.01171 0.13091,0.02483 0.13129,0.09689c0.00031,0.06327 0.08087,0.13759 0.1607,0.14824l0.06094,0.00813l0.00961,0.10714c0.01224,0.13637 0.04169,0.2342 0.07226,0.24009c0.02961,0.0057 0.13956,-0.10263 0.13956,-0.13751c0,-0.0156 -0.01854,-0.03414 -0.04643,-0.04643c-0.03399,-0.01496 -0.05187,-0.03616 -0.06671,-0.0791c-0.01909,-0.0552 -0.01837,-0.06136 0.01204,-0.10409c0.04774,-0.06704 0.03221,-0.08724 -0.06707,-0.08724c-0.0765,0 -0.08736,-0.00411 -0.13177,-0.04994c-0.04249,-0.04383 -0.04856,-0.05946 -0.0496,-0.12776c-0.00066,-0.04279 -0.00596,-0.08256 -0.01176,-0.08837c-0.00581,-0.0058 -0.03731,0.00303 -0.07,0.01963l-0.05943,0.03019l-0.0582,-0.03116c-0.03461,-0.01852 -0.07203,-0.02837 -0.13882,-0.03473l0.63208,0l-0.03662,0.04053c-0.05053,0.05593 -0.0517,0.05954 -0.02801,0.08571c0.03299,0.03646 0.05826,0.03446 0.11539,-0.00911c0.05301,-0.04044 0.05951,-0.06976 0.02413,-0.10886c-0.00282,-0.00311 -0.00525,-0.00586 -0.00723,-0.00827l0.10776,0c-0.00209,0.00387 -0.00513,0.00857 -0.00886,0.01429c-0.01581,0.02423 -0.01929,0.06126 -0.01409,0.1503c0.0038,0.06499 0.01206,0.12134 0.01836,0.12524c0.0063,0.00389 0.03409,-0.00371 0.06174,-0.01691c0.07257,-0.0346 0.09453,-0.01189 0.09453,0.09779c0,0.07497 0.00496,0.09003 0.04176,0.12683c0.03829,0.03829 0.05017,0.04176 0.14286,0.04176c0.09549,0 0.10107,0.00179 0.10051,0.03214c-0.00079,0.04393 -0.0722,0.12403 -0.12249,0.1374c-0.03883,0.01033 -0.04147,0.01586 -0.0456,0.09537c-0.00469,0.09043 -0.0161,0.10596 -0.07811,0.1063c-0.02951,0.00016 -0.0432,-0.00914 -0.05357,-0.03643c-0.02119,-0.05573 -0.01666,-0.13666 0.00923,-0.16527c0.04059,-0.04484 0.01511,-0.06951 -0.07174,-0.06951c-0.08479,0 -0.08301,-0.00183 -0.10104,0.10479c-0.00916,0.05417 -0.00764,0.0564 0.13404,0.1981c0.14149,0.14149 0.144,0.14319 0.1973,0.13374c0.11397,-0.02021 0.10873,-0.01284 0.09997,-0.14067l-0.0079,-0.11517l0.08673,-0.09031l0.08671,-0.0903l0.12281,0.00911c0.08381,0.00621 0.13463,0.01737 0.16003,0.03513c0.02047,0.01431 0.06547,0.03034 0.1,0.03564c0.03453,0.0053 0.0808,0.01871 0.10281,0.02983c0.02254,0.01137 0.06894,0.0183 0.10619,0.01587c0.05843,-0.00383 0.06737,-0.00889 0.07651,-0.04334c0.0057,-0.02146 0.03346,-0.06079 0.06167,-0.0874c0.02823,-0.02661 0.05131,-0.05524 0.05131,-0.06363c0,-0.03007 -0.02816,-0.08853 -0.04264,-0.08853c-0.00813,0 -0.06331,0.045 -0.12263,0.1c-0.05933,0.055 -0.11606,0.1 -0.12609,0.1c-0.01001,0 -0.04756,-0.02893 -0.08343,-0.06429c-0.05153,-0.0508 -0.0754,-0.06429 -0.11379,-0.06429c-0.06717,0 -0.08286,-0.02164 -0.08286,-0.11429c0,-0.08503 -0.01619,-0.11417 -0.06357,-0.11446c-0.0161,-0.0001 -0.06303,-0.03287 -0.10429,-0.07281c-0.05603,-0.05427 -0.075,-0.08297 -0.075,-0.11347c0,-0.03533 -0.00671,-0.04209 -0.0499,-0.05019c-0.0643,-0.01206 -0.12231,0.00283 -0.1467,0.03766c-0.01609,0.02296 -0.03677,0.02756 -0.12389,0.02756c-0.13834,0 -0.15483,-0.01773 -0.09877,-0.1062l0.03003,-0.04737h0.67143c-0.00377,0.01139 -0.0415,0.01941 -0.10417,0.02214c-0.09703,0.00424 -0.13517,0.01886 -0.13517,0.05181c0,0.02239 0.17421,0.08087 0.26429,0.08871c0.14589,0.0127 0.1649,0.03136 0.10714,0.10519c-0.03369,0.04307 -0.03674,0.10401 -0.00647,0.12913c0.01874,0.01556 0.03179,0.00886 0.08571,-0.04407l0.06361,-0.06243v-0.11203c0,-0.07247 -0.0077,-0.1269 -0.0218,-0.15417l-0.01255,-0.02429h0.30578v0.0241c0,0.03689 -0.0056,0.04249 -0.04643,0.04643c-0.0388,0.00374 -0.04643,0.01033 -0.04643,0.04019c0,0.02657 0.01187,0.04094 0.04643,0.05614c0.04263,0.01877 0.04643,0.02579 0.04644,0.08571v0.06529l-0.07281,-0.00504c-0.07929,-0.00549 -0.10619,0.009 -0.09291,0.05003c0.00924,0.02863 0.1075,0.09073 0.14354,0.09073c0.01894,0 0.02217,0.028 0.02217,0.19196v0.19196l-0.04777,-0.00774c-0.04017,-0.00653 -0.0528,-0.00139 -0.07926,0.03226c-0.03583,0.04554 -0.0351,0.10253 0.0016,0.1255c0.01991,0.01247 0.03429,0.00599 0.07603,-0.03427l0.05149,-0.04966l-0.00461,0.27251c-0.00457,0.26989 -0.005,0.2731 -0.0439,0.33184c-0.04943,0.07461 -0.0491,0.08297 0.00357,0.0935l0.04286,0.00857v0.46184l-0.03454,-0.05091c-0.02583,-0.03804 -0.03653,-0.07734 -0.04239,-0.15556c-0.01923,-0.25694 -0.02231,-0.27016 -0.06657,-0.28559c-0.04016,-0.014 -0.0407,-0.0157 -0.03997,-0.12563l0.00073,-0.11144l0.05904,-0.01246c0.07996,-0.01686 0.08411,-0.05036 0.01501,-0.12113c-0.03937,-0.04031 -0.0662,-0.05561 -0.09779,-0.05577c-0.07216,-0.00037 -0.08369,-0.01651 -0.08603,-0.1205c-0.00187,-0.08231 -0.00719,-0.09976 -0.04069,-0.13326c-0.03319,-0.03319 -0.05174,-0.03899 -0.13364,-0.04181c-0.0523,-0.0018 -0.10173,-0.00991 -0.10984,-0.01803c-0.0229,-0.0229 -0.09061,-0.0176 -0.10037,0.00784c-0.01297,0.0338 -0.01004,0.12453 0.00476,0.14794c0.01079,0.01704 0.02293,0.01366 0.07121,-0.0198c0.05579,-0.03866 0.06044,-0.03949 0.11179,-0.01999c0.06004,0.02283 0.09894,0.0831 0.07789,0.12073c-0.00984,0.01759 -0.03866,0.02377 -0.1215,0.02609c-0.10683,0.00297 -0.10889,0.00237 -0.1253,-0.03727c-0.01466,-0.03539 -0.0242,-0.0403 -0.07821,-0.0403c-0.04947,0 -0.06731,0.00739 -0.0912,0.03773c-0.04624,0.0588 -0.01786,0.0803 0.09801,0.07427c0.113,-0.00589 0.12354,0.01151 0.05631,0.09294c-0.04529,0.05489 -0.04544,0.05494 -0.1253,0.04496c-0.04397,-0.00549 -0.09733,-0.01897 -0.11854,-0.02994c-0.06823,-0.03527 -0.16859,-0.02279 -0.16859,0.02097c0,0.01297 -0.0158,0.05327 -0.03511,0.08954c-0.01931,0.03629 -0.0311,0.06999 -0.02619,0.07489c0.0049,0.00491 0.04031,0.00893 0.0787,0.00893c0.0661,0 0.07086,-0.0026 0.09044,-0.04949c0.01137,-0.02721 0.0344,-0.05683 0.05117,-0.0658c0.02713,-0.01451 0.03913,-0.00769 0.10869,0.06187c0.06851,0.06851 0.07624,0.08184 0.06239,0.10771c-0.00869,0.01624 -0.0159,0.05086 -0.01601,0.0769c-0.00037,0.07899 -0.0091,0.08333 -0.15557,0.0773l-0.13289,-0.00547l-0.07121,0.06974c-0.0586,0.05737 -0.07591,0.06721 -0.09773,0.05554c-0.01459,-0.0078 -0.03046,-0.02057 -0.03529,-0.02839c-0.01813,-0.02934 -0.06259,-0.01237 -0.11259,0.04297c-0.05014,0.0555 -0.05166,0.06049 -0.05166,0.16967c0,0.1827 0.04536,0.18434 0.2,0.00723c0.07341,-0.08407 0.16114,-0.14837 0.20246,-0.14837c0.00984,0 0.04497,0.02659 0.07809,0.05907c0.07891,0.07746 0.10234,0.06869 0.10801,-0.04049c0.0038,-0.07324 0.008,-0.0834 0.03611,-0.0874c0.02217,-0.00314 0.04887,0.01341 0.08816,0.05471c0.04054,0.04263 0.06569,0.05791 0.08961,0.05453c0.047,-0.00666 0.04837,-0.04979 0.0042,-0.13284c-0.02254,-0.04241 -0.03901,-0.09889 -0.04156,-0.1425c-0.00231,-0.03973 -0.00864,-0.09151 -0.01407,-0.11509c-0.00894,-0.03891 -0.00146,-0.05113 0.08137,-0.13284l0.09123,-0.08999l0.13177,0.00994c0.12429,0.00939 0.1329,0.01214 0.15174,0.04857c0.0189,0.03654 0.01764,0.04033 -0.02363,0.07084c-0.03741,0.02766 -0.04236,0.03861 -0.03479,0.07714c0.00486,0.02469 0.02086,0.06131 0.03556,0.08139c0.01827,0.02494 0.02949,0.07241 0.03543,0.15c0.01903,0.24839 0.02233,0.26236 0.06744,0.28569c0.04091,0.02116 0.04144,0.02297 0.03789,0.13179c-0.00346,0.10601 -0.005,0.11049 -0.03931,0.11424c-0.01964,0.00214 -0.06241,0.01084 -0.09506,0.01933l-0.05934,0.01541l-0.0728,-0.07434c-0.04004,-0.0409 -0.0728,-0.07913 -0.0728,-0.08497c0,-0.00584 0.0126,-0.02204 0.02801,-0.03597c0.02216,-0.02006 0.0414,-0.02334 0.09209,-0.01574c0.05396,0.00809 0.06887,0.00483 0.09431,-0.02061c0.04373,-0.04373 0.02869,-0.06364 -0.05124,-0.06789c-0.10729,-0.0057 -0.1346,-0.01497 -0.1346,-0.0457c0,-0.0151 0.00647,-0.03146 0.01439,-0.03634c0.03289,-0.02033 0.05823,-0.09246 0.04269,-0.1215c-0.02279,-0.04259 -0.05954,-0.0346 -0.11846,0.02573l-0.0529,0.05417l0.0045,0.13301c0.00289,0.08559 -0.00093,0.13447 -0.01073,0.13713c-0.00836,0.00226 -0.05204,0.01224 -0.09707,0.02217l-0.08186,0.01806l-0.07243,-0.06774c-0.0515,-0.04819 -0.07944,-0.06489 -0.09671,-0.05781c-0.01334,0.00547 -0.04469,0.01584 -0.06964,0.02306c-0.05023,0.01451 -0.07069,0.0647 -0.05381,0.13196c0.01096,0.04364 0.02087,0.04553 0.0796,0.01516c0.03946,-0.0204 0.0492,-0.02031 0.11001,0.00101c0.03669,0.01286 0.11814,0.02716 0.181,0.03177c0.07767,0.00571 0.12573,0.01677 0.15,0.03454c0.01964,0.01439 0.07084,0.03276 0.11379,0.04081c0.04294,0.00807 0.0844,0.021 0.09214,0.02874c0.00774,0.00774 0.05329,0.01407 0.10121,0.01407c0.09749,0 0.12143,0.01491 0.12143,0.07566c0,0.02274 0.0133,0.06003 0.02954,0.08286zM1.07857,2.67857c-0.04919,-0.01571 -0.09984,-0.0286 -0.11257,-0.02863c-0.01273,-0.00003 -0.04564,-0.0139 -0.07314,-0.03083c-0.03393,-0.02089 -0.06953,-0.02984 -0.11074,-0.02786c-0.0334,0.0016 -0.08161,-0.00646 -0.10714,-0.01791c-0.02551,-0.01146 -0.07211,-0.02519 -0.10354,-0.03051c-0.0736,-0.01246 -0.08999,-0.02707 -0.10169,-0.09069c-0.0113,-0.06149 -0.02519,-0.07306 -0.08804,-0.07336c-0.0523,-0.00024 -0.0683,-0.02343 -0.0544,-0.07881c0.0083,-0.03309 0.0152,-0.03569 0.0944,-0.03569h0.08544l0,0.04691c0,0.03781 0.01491,0.06164 0.07687,0.12284c0.06617,0.06534 0.08087,0.07379 0.10547,0.06061c0.04044,-0.02164 0.04881,-0.05344 0.03124,-0.1187c-0.01784,-0.06626 -0.00117,-0.09739 0.05217,-0.09739c0.0387,0 0.05699,0.04701 0.04384,0.11273c-0.01151,0.05759 0.02344,0.10156 0.08074,0.10156c0.03496,0 0.06196,0.01541 0.11349,0.06479c0.05764,0.05524 0.07181,0.06253 0.0962,0.04949c0.01573,-0.00841 0.03763,-0.03696 0.04869,-0.06341c0.02293,-0.05486 0.06093,-0.07187 0.1311,-0.05871c0.05287,0.00993 0.06613,0.04709 0.02806,0.07869c-0.01139,0.00944 -0.0281,0.0396 -0.03714,0.06701c-0.00906,0.02743 -0.03027,0.05543 -0.04716,0.06224c-0.04456,0.01797 -0.05356,0.01713 -0.15214,-0.01437zM1.51974,2.49896c-0.00693,-0.00429 -0.0126,-0.04297 -0.0126,-0.08596c0,-0.09223 0.02976,-0.11801 0.07366,-0.0638c0.03706,0.04577 0.03294,0.09353 -0.01106,0.12814c-0.02056,0.01617 -0.04306,0.0259 -0.05,0.02161zM1.08119,2.24163l0.00453,-0.0702l-0.06429,-0.00443c-0.08474,-0.00584 -0.17143,-0.084 -0.17143,-0.1546c0,-0.0681 -0.02929,-0.0891 -0.12127,-0.08694c-0.10517,0.00246 -0.12027,-0.01501 -0.07304,-0.08453c0.02044,-0.03009 0.03717,-0.06584 0.03717,-0.07946c0,-0.03926 0.05141,-0.0578 0.13023,-0.04696c0.06494,0.00893 0.07299,0.00667 0.10034,-0.0281c0.0263,-0.03344 0.0382,-0.0373 0.10316,-0.03353c0.0615,0.00357 0.0741,0.00903 0.07761,0.03361c0.00594,0.04151 -0.03737,0.07489 -0.1042,0.0803l-0.05714,0.00463l0.0026,0.09621c0.0032,0.11863 0.00984,0.13044 0.06694,0.119c0.10593,-0.02123 0.10181,-0.02439 0.10263,0.07861c0.00059,0.07203 0.00783,0.10377 0.0312,0.13659c0.04626,0.06497 0.05466,0.1156 0.02469,0.14873c-0.06053,0.06687 -0.09814,0.02121 -0.08973,-0.10894zM2.73937,2.18214c-0.00264,-0.06483 -0.00264,-0.17089 0,-0.23571c0.00264,-0.06483 0.00481,-0.01179 0.00481,0.11786c0,0.12964 -0.00217,0.18269 -0.00481,0.11786zM1.11446,1.90769c-0.01696,-0.05341 0.01597,-0.08626 0.0865,-0.08626c0.07501,0 0.09291,0.02453 0.05743,0.07869c-0.03066,0.04679 -0.12983,0.052 -0.14393,0.00757zM2.28253,1.8361c-0.06796,-0.04143 -0.08393,-0.14389 -0.02226,-0.14279c0.05911,0.00106 0.14016,0.10154 0.11691,0.14499c-0.01773,0.03313 -0.03746,0.03267 -0.09466,-0.0022zM0.45396,1.83214c-0.02613,-0.03377 -0.06469,-0.16081 -0.07131,-0.235c-0.0066,-0.074 -0.00643,-0.07439 0.04693,-0.1c0.09061,-0.0435 0.0928,-0.06361 0.01583,-0.1459c-0.07129,-0.0762 -0.06966,-0.06833 -0.03854,-0.18696c0.00859,-0.03273 0.01697,-0.03607 0.10009,-0.04003c0.07141,-0.0034 0.09954,-0.01176 0.13226,-0.03929c0.04281,-0.03603 0.12659,-0.04716 0.16617,-0.02209c0.01646,0.01043 0.01563,0.02299 -0.0051,0.07726c-0.0136,0.03564 -0.02047,0.07173 -0.01523,0.08019c0.00539,0.00873 0.05484,0.01539 0.11427,0.01539c0.11207,0 0.12211,-0.00663 0.12211,-0.08053c0,-0.02911 -0.0139,-0.04149 -0.07906,-0.07029c-0.07106,-0.03143 -0.07751,-0.03786 -0.06379,-0.0635c0.0126,-0.02354 0.02993,-0.02854 0.09896,-0.02854c0.08716,0 0.10103,0.01006 0.10103,0.07317c0,0.01539 0.02649,0.05317 0.05886,0.08396c0.05703,0.05426 0.05854,0.05804 0.04884,0.12269c-0.01591,0.10616 -0.01564,0.1059 -0.11449,0.1059h-0.08946l-0.00794,0.05924c-0.00894,0.06663 -0.05296,0.12073 -0.08749,0.10747c-0.01699,-0.00651 -0.02261,-0.02903 -0.02261,-0.0905c0,-0.06534 -0.00766,-0.09287 -0.03804,-0.13671l-0.03804,-0.0549l-0.21557,0.00826l-0.01126,0.05439c-0.00804,0.03884 -0.00516,0.0662 0.01011,0.09571c0.03459,0.0669 0.0279,0.16021 -0.01434,0.1999c-0.0306,0.02874 -0.03571,0.04616 -0.03571,0.12154c0,0.04839 -0.00429,0.09227 -0.00953,0.0975c-0.0151,0.01511 -0.04289,0.01111 -0.05794,-0.00833zM1.2883,1.69849c-0.11826,-0.03939 -0.14654,-0.06777 -0.10133,-0.1017c0.0413,-0.031 0.2024,-0.01184 0.28401,0.03377c0.07876,0.04401 0.08547,0.0538 0.0567,0.08257c-0.03267,0.03267 -0.11184,0.02783 -0.23939,-0.01464zM2.73937,1.51859c-0.00261,-0.06836 -0.00263,-0.18407 -0.00003,-0.25714c0.0026,-0.07309 0.00474,-0.01716 0.00476,0.12427c0.00001,0.14143 -0.00211,0.20121 -0.00473,0.13287zM1.38443,1.52853c-0.00494,-0.01967 -0.02756,-0.0514 -0.05027,-0.0705c-0.04887,-0.04113 -0.05127,-0.06293 -0.01236,-0.1124c0.05143,-0.06537 0.0773,-0.06217 0.15913,0.01966l0.07423,0.07423l-0.06603,0.06239c-0.07613,0.07191 -0.0923,0.07603 -0.1047,0.02663zM2.73941,0.97563c-0.00273,-0.0527 -0.00276,-0.1427 -0.00003,-0.2c0.00271,-0.05731 0.00496,-0.0142 0.00497,0.0958c0.00003,0.11 -0.0022,0.15689 -0.00494,0.1042zM0.79286,0.77857c-0.03483,-0.03773 -0.06504,-0.05714 -0.08891,-0.05714c-0.05211,0 -0.07051,-0.03079 -0.06549,-0.1096c0.00394,-0.06177 0.00793,-0.06897 0.0382,-0.06897c0.02697,0 0.03856,0.01287 0.05731,0.06364c0.02047,0.05543 0.03087,0.06557 0.08051,0.07857c0.03134,0.00821 0.06453,0.01983 0.07373,0.0258c0.02044,0.0133 0.03874,0.09004 0.02629,0.11021c-0.01897,0.03069 -0.07079,0.01259 -0.12164,-0.04251zM1.29286,0.66931c0,-0.05853 0.02167,-0.10503 0.04896,-0.10503c0.02349,0 0.06971,0.10934 0.05627,0.13309c-0.00527,0.0093 -0.01924,0.02816 -0.03104,0.04191c-0.044,0.05123 -0.07419,0.02276 -0.07419,-0.06997zM2.05,0.73571h-0.22817l-0.0366,-0.05533c-0.03191,-0.0482 -0.03607,-0.06796 -0.03236,-0.15357c0.00411,-0.09477 0.00563,-0.0984 0.04269,-0.10269c0.04737,-0.00546 0.0973,0.04039 0.0973,0.08934c0,0.03906 0.04734,0.07939 0.09319,0.07939c0.04396,0 0.06396,0.0277 0.06396,0.08857zM2.73977,0.51786c-0.00327,-0.0216 -0.00327,-0.05697 0,-0.07857c0.00327,-0.0216 0.00594,-0.00393 0.00594,0.03929c0,0.04321 -0.00267,0.06089 -0.00594,0.03929zM2.74016,0.275c-0.0036,-0.01376 -0.0036,-0.03624 0,-0.05l0.00521,0c0.00083,0.00521 0.00132,0.01375 0.00132,0.025c0,0.0275 -0.00294,0.03876 -0.00653,0.025z"></path></g></svg>