<svg version="1.1" xmlns="http://www.w3.org/2000/svg" xmlns:xlink="http://www.w3.org/1999/xlink" width="20.241608634724287in" height="3.749674884855053in" viewBox="-6.72625924481979 -0.37477648333784885 20.291608634724287 3.799674884855053"><g fill="none" fill-rule="none" stroke="none" stroke-width="none" stroke-linecap="butt" stroke-linejoin="miter" stroke-miterlimit="10" stroke-dasharray="" stroke-dashoffset="0" font-family="none" font-weight="none" font-size="none" text-anchor="none" style="mix-blend-mode: normal"><path d="M0,3v-3h3v3z" fill="none" fill-rule="nonzero" stroke="none" stroke-width="1"></path><path d="M0,1.625v-0.25h3v0.25z" fill="none" fill-rule="nonzero" stroke="none" stroke-width="1"></path><path d="M1.86754,0l-7.46785,3" fill="none" fill-rule="nonzero" stroke="none" stroke-width="1"></path><path d="M2.11754,0l-7.46785,3" fill="none" fill-rule="nonzero" stroke="none" stroke-width="1"></path><path d="M1.86754,0c0.12406,0.19881 0.50786,0.59967 -0.98714,1.2c-1.495,0.60033 -4.86879,1.40011 -6.48071,1.8c-1.61191,0.39989 -1.46194,0.39989 0.25,0c1.71194,-0.39989 4.98587,-1.19967 6.48071,-1.8c1.49484,-0.60033 1.21061,-1.00119 0.98714,-1.2c-0.22347,-0.19881 -0.37406,-0.19881 -0.25,0z" fill="none" fill-rule="nonzero" stroke="none" stroke-width="1"></path><path d="M2.52118,0l-7.31107,3" fill="none" fill-rule="nonzero" stroke="none" stroke-width="1"></path><path d="M2.77118,0l-7.31107,3" fill="none" fill-rule="nonzero" stroke="none" stroke-width="1"></path><path d="M2.52118,0c-0.10998,0.29911 -0.19211,0.89976 -1.65554,1.5c-1.46343,0.60024 -4.30816,1.20008 -5.65554,1.5c-1.34738,0.29992 -1.19741,0.29992 0.25,0c1.44741,-0.29992 4.19226,-0.89976 5.65554,-1.5c1.46327,-0.60024 1.64496,-1.20089 1.65554,-1.5c0.01057,-0.29911 -0.14002,-0.29911 -0.25,0z" fill="none" fill-rule="nonzero" stroke="none" stroke-width="1"></path><path d="M3.17847,0l-7.12851,3" fill="none" fill-rule="nonzero" stroke="none" stroke-width="1"></path><path d="M3.42847,0l-7.12851,3" fill="none" fill-rule="nonzero" stroke="none" stroke-width="1"></path><path d="M3.17847,0c-0.3301,0.3994 -0.8504,1.19984 -2.2771,1.8c-1.42671,0.60016 -3.75983,1.00005 -4.8514,1.2c-1.09158,0.19995 -0.94161,0.19995 0.25,0c1.19161,-0.19995 3.42485,-0.59984 4.8514,-1.2c1.42655,-0.60016 2.04641,-1.4006 2.2771,-1.8c0.2307,-0.3994 0.0801,-0.3994 -0.25,0z" fill="none" fill-rule="nonzero" stroke="none" stroke-width="1"></path><path d="M3.83938,0l-6.92975,3" fill="none" fill-rule="nonzero" stroke="none" stroke-width="1"></path><path d="M4.08938,0l-6.92975,3" fill="none" fill-rule="nonzero" stroke="none" stroke-width="1"></path><path d="M3.83938,0c-0.53532,0.4997 -1.46407,1.49992 -2.85083,2.1c-1.38676,0.60008 -3.23153,0.80003 -4.07893,0.9c-0.8474,0.09997 -0.69743,0.09997 0.25,0c0.94743,-0.09997 2.69232,-0.29992 4.07893,-0.9c1.3866,-0.60008 2.41491,-1.6003 2.85083,-2.1c0.43591,-0.4997 0.28532,-0.4997 -0.25,0z" fill="none" fill-rule="nonzero" stroke="none" stroke-width="1"></path><path d="M4.50389,0l-6.71974,3" fill="none" fill-rule="nonzero" stroke="none" stroke-width="1"></path><path d="M4.75389,0l-6.71974,3" fill="none" fill-rule="nonzero" stroke="none" stroke-width="1"></path><path d="M4.50389,0c-0.27568,0.3994 -0.68691,1.19984 -2.03185,1.8c-1.34493,0.60016 -3.62357,1.00005 -4.6879,1.2c-1.06433,0.19995 -0.91436,0.19995 0.25,0c1.16436,-0.19995 3.34312,-0.59984 4.6879,-1.2c1.34478,-0.60016 1.85557,-1.4006 2.03185,-1.8c0.17627,-0.3994 0.02568,-0.3994 -0.25,0z" fill="none" fill-rule="nonzero" stroke="none" stroke-width="1"></path><path d="M5.17199,0l-6.49445,3" fill="none" fill-rule="nonzero" stroke="none" stroke-width="1"></path><path d="M5.42199,0l-6.49445,3" fill="none" fill-rule="nonzero" stroke="none" stroke-width="1"></path><path d="M5.17199,0c-0.02856,0.29911 0.05281,0.89976 -1.24723,1.5c-1.30004,0.60024 -3.98149,1.20008 -5.24723,1.5c-1.26574,0.29992 -1.11577,0.29992 0.25,0c1.36577,-0.29992 3.94734,-0.89976 5.24723,-1.5c1.29988,-0.60024 1.31807,-1.20089 1.24723,-1.5c-0.07085,-0.29911 -0.22144,-0.29911 -0.25,0z" fill="none" fill-rule="nonzero" stroke="none" stroke-width="1"></path><path d="M5.84364,0l-6.24373,3" fill="none" fill-rule="nonzero" stroke="none" stroke-width="1"></path><path d="M6.09364,0l-6.24373,3" fill="none" fill-rule="nonzero" stroke="none" stroke-width="1"></path><path d="M5.84364,0c0.20518,0.19881 0.75255,0.59967 -0.49749,1.2c-1.25004,0.60033 -4.29749,1.40011 -5.74624,1.8c-1.44874,0.39989 -1.29877,0.39989 0.25,0c1.54877,-0.39989 4.49635,-1.19967 5.74624,-1.8c1.24989,-0.60033 0.80208,-1.00119 0.49749,-1.2c-0.30459,-0.19881 -0.45518,-0.19881 -0.25,0z" fill="none" fill-rule="nonzero" stroke="none" stroke-width="1"></path><path d="M6.5188,0l-5.95665,3" fill="none" fill-rule="nonzero" stroke="none" stroke-width="1"></path><path d="M6.7688,0l-5.95665,3" fill="none" fill-rule="nonzero" stroke="none" stroke-width="1"></path><path d="M6.5188,0c0.42335,0.09851 1.40576,0.29959 0.213,0.9c-1.19276,0.60041 -4.56068,1.60014 -6.16966,2.1c-1.60898,0.49986 -1.45901,0.49986 0.25,0c1.70901,-0.49986 4.97706,-1.49959 6.16966,-2.1c1.1926,-0.60041 0.30976,-0.80149 -0.213,-0.9c-0.52276,-0.09851 -0.67335,-0.09851 -0.25,0z" fill="none" fill-rule="nonzero" stroke="none" stroke-width="1"></path><path d="M7.19743,0l-5.62694,3" fill="none" fill-rule="nonzero" stroke="none" stroke-width="1"></path><path d="M7.44743,0l-5.62694,3" fill="none" fill-rule="nonzero" stroke="none" stroke-width="1"></path><path d="M7.19743,0c0.24606,0.19881 0.87584,0.59967 -0.25078,1.2c-1.12662,0.60033 -4.00964,1.40011 -5.37617,1.8c-1.36653,0.39989 -1.21656,0.39989 0.25,0c1.46656,-0.39989 4.2497,-1.19967 5.37617,-1.8c1.12646,-0.60033 0.59624,-1.00119 0.25078,-1.2c-0.34546,-0.19881 -0.49606,-0.19881 -0.25,0z" fill="none" fill-rule="nonzero" stroke="none" stroke-width="1"></path><path d="M7.87948,0l-5.25685,3" fill="none" fill-rule="nonzero" stroke="none" stroke-width="1"></path><path d="M8.12948,0l-5.25685,3" fill="none" fill-rule="nonzero" stroke="none" stroke-width="1"></path><path d="M7.87948,0c0.09483,0.29911 0.42399,0.89976 -0.62842,1.5c-1.05242,0.60024 -3.48641,1.20008 -4.62842,1.5c-1.14201,0.29992 -0.99204,0.29992 0.25,0c1.24204,-0.29992 3.57616,-0.89976 4.62842,-1.5c1.05226,-0.60024 0.82266,-1.20089 0.62842,-1.5c-0.19424,-0.29911 -0.34483,-0.29911 -0.25,0z" fill="none" fill-rule="nonzero" stroke="none" stroke-width="1"></path><path d="M8.5649,0l-4.85891,3" fill="none" fill-rule="nonzero" stroke="none" stroke-width="1"></path><path d="M8.8149,0l-4.85891,3" fill="none" fill-rule="nonzero" stroke="none" stroke-width="1"></path><path d="M8.5649,0c-0.02794,0.3994 0.05732,1.19984 -0.91534,1.8c-0.97266,0.60016 -3.00325,1.00005 -3.94356,1.2c-0.94031,0.19995 -0.79034,0.19995 0.25,0c1.04034,-0.19995 2.97105,-0.59984 3.94356,-1.2c0.97251,-0.60016 0.98681,-1.4006 0.91534,-1.8c-0.07147,-0.3994 -0.22206,-0.3994 -0.25,0z" fill="none" fill-rule="nonzero" stroke="none" stroke-width="1"></path><path d="M9.25362,0l-4.45519,3" fill="none" fill-rule="nonzero" stroke="none" stroke-width="1"></path><path d="M9.50362,0l-4.45519,3" fill="none" fill-rule="nonzero" stroke="none" stroke-width="1"></path><path d="M9.25362,0c-0.12314,0.4997 -0.22685,1.49992 -1.11863,2.1c-0.89178,0.60008 -2.57162,0.80003 -3.33656,0.9c-0.76494,0.09997 -0.61497,0.09997 0.25,0c0.86497,-0.09997 2.44493,-0.29992 3.33656,-0.9c0.89162,-0.60008 1.0949,-1.6003 1.11863,-2.1c0.02373,-0.4997 -0.12686,-0.4997 -0.25,0z" fill="none" fill-rule="nonzero" stroke="none" stroke-width="1"></path><path d="M9.94558,0l-4.07329,3" fill="none" fill-rule="nonzero" stroke="none" stroke-width="1"></path><path d="M10.19558,0l-4.07329,3" fill="none" fill-rule="nonzero" stroke="none" stroke-width="1"></path><path d="M9.94558,0c0.07665,0.3994 0.37153,1.19984 -0.44397,1.8c-0.8155,0.60016 -2.74137,1.00005 -3.62932,1.2c-0.88795,0.19995 -0.73798,0.19995 0.25,0c0.98798,-0.19995 2.81397,-0.59984 3.62932,-1.2c0.81534,-0.60016 0.62003,-1.4006 0.44397,-1.8c-0.17606,-0.3994 -0.32665,-0.3994 -0.25,0z" fill="none" fill-rule="nonzero" stroke="none" stroke-width="1"></path><path d="M10.6407,0l-3.73869,3" fill="none" fill-rule="nonzero" stroke="none" stroke-width="1"></path><path d="M10.8907,0l-3.73869,3" fill="none" fill-rule="nonzero" stroke="none" stroke-width="1"></path><path d="M10.6407,0c0.2462,0.29911 0.87932,0.89976 0.13066,1.5c-0.74866,0.60024 -2.87911,1.20008 -3.86934,1.5c-0.99024,0.29992 -0.84027,0.29992 0.25,0c1.09027,-0.29992 3.12084,-0.89976 3.86934,-1.5c0.7485,-0.60024 0.21495,-1.20089 -0.13066,-1.5c-0.3456,-0.29911 -0.4962,-0.29911 -0.25,0z" fill="none" fill-rule="nonzero" stroke="none" stroke-width="1"></path><path d="M11.33891,0l-3.46843,3" fill="none" fill-rule="nonzero" stroke="none" stroke-width="1"></path><path d="M11.58891,0l-3.46843,3" fill="none" fill-rule="nonzero" stroke="none" stroke-width="1"></path><path d="M11.33891,0c0.3891,0.19881 1.30731,0.59967 0.61263,1.2c-0.69468,0.60033 -3.00226,1.40011 -4.08106,1.8c-1.0788,0.39989 -0.92883,0.39989 0.25,0c1.17883,-0.39989 3.38653,-1.19967 4.08106,-1.8c0.69453,-0.60033 -0.12412,-1.00119 -0.61263,-1.2c-0.48851,-0.19881 -0.6391,-0.19881 -0.25,0z" fill="none" fill-rule="nonzero" stroke="none" stroke-width="1"></path><path d="M12.04013,0l-3.26842,3" fill="none" fill-rule="nonzero" stroke="none" stroke-width="1"></path><path d="M12.29013,0l-3.26842,3" fill="none" fill-rule="nonzero" stroke="none" stroke-width="1"></path><path d="M12.04013,0c0.51163,0.09851 1.67422,0.29959 1.01947,0.9c-0.65475,0.60041 -3.12683,1.60014 -4.28789,2.1c-1.16106,0.49986 -1.01109,0.49986 0.25,0c1.26109,-0.49986 3.6333,-1.49959 4.28789,-2.1c0.65459,-0.60041 -0.40844,-0.80149 -1.01947,-0.9c-0.61103,-0.09851 -0.76163,-0.09851 -0.25,0z" fill="none" fill-rule="nonzero" stroke="none" stroke-width="1"></path><path d="M1.1304,1.2c-0.31016,0.12456 -0.69691,0.2577 -1.1304,0.39408l0,-0.08227c0.33394,-0.10759 0.63292,-0.21244 0.8804,-0.31182c1.495,-0.60033 1.1112,-1.00119 0.98714,-1.2h0.25c0.22347,0.19881 0.5077,0.59967 -0.98714,1.2zM1.11565,1.5c-0.31968,0.13113 -0.70053,0.26225 -1.11565,0.39022l0,-0.08124c0.31979,-0.10196 0.61326,-0.20547 0.86565,-0.30899c1.46343,-0.60024 1.54556,-1.20089 1.65554,-1.5h0.25c-0.01057,0.29911 -0.19226,0.89976 -1.65554,1.5zM1.15136,1.8c-0.34527,0.14526 -0.73779,0.27878 -1.15136,0.40058l0,-0.07872c0.32353,-0.09999 0.62897,-0.20727 0.90136,-0.32186c1.19556,-0.50293 1.75462,-1.14649 2.09864,-1.57685l0,0.34525c-0.36221,0.38865 -0.94279,0.8505 -1.84864,1.23159zM1.23855,2.1c-0.39285,0.17001 -0.81446,0.30791 -1.23855,0.42051v-0.07295c0.34165,-0.09789 0.67668,-0.21261 0.98855,-0.34756c0.8299,-0.35912 1.49577,-0.86154 2.01145,-1.31423v0.2429c-0.48137,0.38242 -1.07787,0.7755 -1.76145,1.07133zM2.72205,1.8c-0.75382,0.33642 -1.76969,0.60992 -2.72205,0.82054l0,-0.06521c0.8778,-0.20085 1.79369,-0.45261 2.47205,-0.75532c0.19476,-0.08691 0.36993,-0.17801 0.52795,-0.2715l0,0.13883c-0.08844,0.04511 -0.18103,0.08941 -0.27795,0.13266zM3,1.94496c-0.9391,0.30598 -2.06048,0.59113 -3,0.81178l0,-0.06966c0.95856,-0.23146 2.09116,-0.52196 3,-0.82892zM3,2.12557c-1.06877,0.32333 -2.19313,0.62592 -3,0.83556l0,-0.07088c0.821,-0.2244 1.94963,-0.53071 3,-0.85084zM3,2.33744c-0.81569,0.25595 -1.59544,0.48928 -2.18785,0.66256h-0.25c0.62437,-0.19398 1.51362,-0.46322 2.43785,-0.7552zM3,2.6694c-0.43844,0.12638 -0.84353,0.23899 -1.17951,0.3306h-0.25c0.38188,-0.11175 0.88219,-0.25473 1.42951,-0.41586zM3,2.96912c-0.0436,0.01062 -0.08609,0.02092 -0.12736,0.03088h-0.25c0.11383,-0.0299 0.2405,-0.06277 0.37736,-0.09833z" fill="#d3d3d3" fill-rule="evenodd" stroke="#ff0000" stroke-width="0.005"></path></g></svg>