<svg version="1.1" xmlns="http://www.w3.org/2000/svg" xmlns:xlink="http://www.w3.org/1999/xlink" width="3in" height="3in" viewBox="0 0 3.05 3.05"><g fill="#d3d3d3" fill-rule="evenodd" stroke="#ff0000" stroke-width="0.005" stroke-linecap="butt" stroke-linejoin="miter" stroke-miterlimit="10" stroke-dasharray="" stroke-dashoffset="0" font-family="none" font-weight="none" font-size="none" text-anchor="none" style="mix-blend-mode: normal"><path d="M0,3v-3h3v3zM1.38647,1.56782c0,-0.02211 0.01793,-0.04004 0.04004,-0.04004c0.02211,0 0.04004,0.01793 0.04004,0.04004c0,0.02211 -0.01793,0.04004 -0.04004,0.04004c-0.02211,0 -0.04004,-0.01793 -0.04004,-0.04004zM1.4713,1.35903c0,-0.02211 0.01793,-0.04004 0.04004,-0.04004c0.02211,0 0.04004,0.01793 0.04004,0.04004c0,0.02211 -0.01793,0.04004 -0.04004,0.04004c-0.02211,0 -0.04004,-0.01793 -0.04004,-0.04004zM1.56683,1.6363c0,-0.02211 0.01793,-0.04004 0.04004,-0.04004c0.02211,0 0.04004,0.01793 0.04004,0.04004c0,0.02211 -0.01793,0.04004 -0.04004,0.04004c-0.02211,0 -0.04004,-0.01793 -0.04004,-0.04004zM1.26253,1.46802c0,-0.02211 0.01793,-0.04004 0.04004,-0.04004c0.02211,0 0.04004,0.01793 0.04004,0.04004c0,0.02211 -0.01793,0.04004 -0.04004,0.04004c-0.02211,0 -0.04004,-0.01793 -0.04004,-0.04004zM1.64642,1.37658c0,-0.02211 0.01793,-0.04004 0.04004,-0.04004c0.02211,0 0.04004,0.01793 0.04004,0.04004c0,0.02211 -0.01793,0.04004 -0.04004,0.04004c-0.02211,0 -0.04004,-0.01793 -0.04004,-0.04004zM1.40153,1.73788c0,-0.02211 0.01793,-0.04004 0.04004,-0.04004c0.02211,0 0.04004,0.01793 0.04004,0.04004c0,0.02211 -0.01793,0.04004 -0.04004,0.04004c-0.02211,0 -0.04004,-0.01793 -0.04004,-0.04004zM1.3321,1.26837c0,-0.02211 0.01793,-0.04004 0.04004,-0.04004c0.02211,0 0.04004,0.01793 0.04004,0.04004c0,0.02211 -0.01793,0.04004 -0.04004,0.04004c-0.02211,0 -0.04004,-0.01793 -0.04004,-0.04004zM1.72834,1.58928c0,-0.02211 0.01793,-0.04004 0.04004,-0.04004c0.02211,0 0.04004,0.01793 0.04004,0.04004c0,0.02211 -0.01793,0.04004 -0.04004,0.04004c-0.02211,0 -0.04004,-0.01793 -0.04004,-0.04004zM1.18654,1.62345c0,-0.02211 0.01793,-0.04004 0.04004,-0.04004c0.02211,0 0.04004,0.01793 0.04004,0.04004c0,0.02211 -0.01793,0.04004 -0.04004,0.04004c-0.02211,0 -0.04004,-0.01793 -0.04004,-0.04004zM1.58352,1.20891c0,-0.02211 0.01793,-0.04004 0.04004,-0.04004c0.02211,0 0.04004,0.01793 0.04004,0.04004c0,0.02211 -0.01793,0.04004 -0.04004,0.04004c-0.02211,0 -0.04004,-0.01793 -0.04004,-0.04004zM1.57176,1.81225c0,-0.02211 0.01793,-0.04004 0.04004,-0.04004c0.02211,0 0.04004,0.01793 0.04004,0.04004c0,0.02211 -0.01793,0.04004 -0.04004,0.04004c-0.02211,0 -0.04004,-0.01793 -0.04004,-0.04004zM1.15297,1.33951c0,-0.02211 0.01793,-0.04004 0.04004,-0.04004c0.02211,0 0.04004,0.01793 0.04004,0.04004c0,0.02211 -0.01793,0.04004 -0.04004,0.04004c-0.02211,0 -0.04004,-0.01793 -0.04004,-0.04004zM1.80807,1.40607c0,-0.02211 0.01793,-0.04004 0.04004,-0.04004c0.02211,0 0.04004,0.01793 0.04004,0.04004c0,0.02211 -0.01793,0.04004 -0.04004,0.04004c-0.02211,0 -0.04004,-0.01793 -0.04004,-0.04004zM1.26058,1.81662c0,-0.02211 0.01793,-0.04004 0.04004,-0.04004c0.02211,0 0.04004,0.01793 0.04004,0.04004c0,0.02211 -0.01793,0.04004 -0.04004,0.04004c-0.02211,0 -0.04004,-0.01793 -0.04004,-0.04004zM1.38938,1.11919c0,-0.02211 0.01793,-0.04004 0.04004,-0.04004c0.02211,0 0.04004,0.01793 0.04004,0.04004c0,0.02211 -0.01793,0.04004 -0.04004,0.04004c-0.02211,0 -0.04004,-0.01793 -0.04004,-0.04004zM1.78025,1.73961c0,-0.02211 0.01793,-0.04004 0.04004,-0.04004c0.02211,0 0.04004,0.01793 0.04004,0.04004c0,0.02211 -0.01793,0.04004 -0.04004,0.04004c-0.02211,0 -0.04004,-0.01793 -0.04004,-0.04004zM1.04983,1.54238c0,-0.02211 0.01793,-0.04004 0.04004,-0.04004c0.02211,0 0.04004,0.01793 0.04004,0.04004c0,0.02211 -0.01793,0.04004 -0.04004,0.04004c-0.02211,0 -0.04004,-0.01793 -0.04004,-0.04004zM1.74053,1.18175c0,-0.02211 0.01793,-0.04004 0.04004,-0.04004c0.02211,0 0.04004,0.01793 0.04004,0.04004c0,0.02211 -0.01793,0.04004 -0.04004,0.04004c-0.02211,0 -0.04004,-0.01793 -0.04004,-0.04004zM1.46985,1.93578c0,-0.02211 0.01793,-0.04004 0.04004,-0.04004c0.02211,0 0.04004,0.01793 0.04004,0.04004c0,0.02211 -0.01793,0.04004 -0.04004,0.04004c-0.02211,0 -0.04004,-0.01793 -0.04004,-0.04004zM1.1493,1.1783c0,-0.02211 0.01793,-0.04004 0.04004,-0.04004c0.02211,0 0.04004,0.01793 0.04004,0.04004c0,0.02211 -0.01793,0.04004 -0.04004,0.04004c-0.02211,0 -0.04004,-0.01793 -0.04004,-0.04004zM1.91746,1.52638c0,-0.02211 0.01793,-0.04004 0.04004,-0.04004c0.02211,0 0.04004,0.01793 0.04004,0.04004c0,0.02211 -0.01793,0.04004 -0.04004,0.04004c-0.02211,0 -0.04004,-0.01793 -0.04004,-0.04004zM1.09752,1.79772c0,-0.02211 0.01793,-0.04004 0.04004,-0.04004c0.02211,0 0.04004,0.01793 0.04004,0.04004c0,0.02211 -0.01793,0.04004 -0.04004,0.04004c-0.02211,0 -0.04004,-0.01793 -0.04004,-0.04004zM1.52588,1.02497c0,-0.02211 0.01793,-0.04004 0.04004,-0.04004c0.02211,0 0.04004,0.01793 0.04004,0.04004c0,0.02211 -0.01793,0.04004 -0.04004,0.04004c-0.02211,0 -0.04004,-0.01793 -0.04004,-0.04004zM1.73955,1.90228c0,-0.02211 0.01793,-0.04004 0.04004,-0.04004c0.02211,0 0.04004,0.01793 0.04004,0.04004c0,0.02211 -0.01793,0.04004 -0.04004,0.04004c-0.02211,0 -0.04004,-0.01793 -0.04004,-0.04004zM0.97181,1.39178c0,-0.02211 0.01793,-0.04004 0.04004,-0.04004c0.02211,0 0.04004,0.01793 0.04004,0.04004c0,0.02211 -0.01793,0.04004 -0.04004,0.04004c-0.02211,0 -0.04004,-0.01793 -0.04004,-0.04004zM1.90066,1.24351c0,-0.02211 0.01793,-0.04004 0.04004,-0.04004c0.02211,0 0.04004,0.01793 0.04004,0.04004c0,0.02211 -0.01793,0.04004 -0.04004,0.04004c-0.02211,0 -0.04004,-0.01793 -0.04004,-0.04004zM1.30717,1.99664c0,-0.02211 0.01793,-0.04004 0.04004,-0.04004c0.02211,0 0.04004,0.01793 0.04004,0.04004c0,0.02211 -0.01793,0.04004 -0.04004,0.04004c-0.02211,0 -0.04004,-0.01793 -0.04004,-0.04004zM1.23132,1.0228c0,-0.02211 0.01793,-0.04004 0.04004,-0.04004c0.02211,0 0.04004,0.01793 0.04004,0.04004c0,0.02211 -0.01793,0.04004 -0.04004,0.04004c-0.02211,0 -0.04004,-0.01793 -0.04004,-0.04004zM1.96031,1.69911c0,-0.02211 0.01793,-0.04004 0.04004,-0.04004c0.02211,0 0.04004,0.01793 0.04004,0.04004c0,0.02211 -0.01793,0.04004 -0.04004,0.04004c-0.02211,0 -0.04004,-0.01793 -0.04004,-0.04004zM0.94862,1.69629c0,-0.02211 0.01793,-0.04004 0.04004,-0.04004c0.02211,0 0.04004,0.01793 0.04004,0.04004c0,0.02211 -0.01793,0.04004 -0.04004,0.04004c-0.02211,0 -0.04004,-0.01793 -0.04004,-0.04004zM1.70665,1.00086c0,-0.02211 0.01793,-0.04004 0.04004,-0.04004c0.02211,0 0.04004,0.01793 0.04004,0.04004c0,0.02211 -0.01793,0.04004 -0.04004,0.04004c-0.02211,0 -0.04004,-0.01793 -0.04004,-0.04004zM1.61968,2.04267c0,-0.02211 0.01793,-0.04004 0.04004,-0.04004c0.02211,0 0.04004,0.01793 0.04004,0.04004c0,0.02211 -0.01793,0.04004 -0.04004,0.04004c-0.02211,0 -0.04004,-0.01793 -0.04004,-0.04004zM0.96704,1.20499c0,-0.02211 0.01793,-0.04004 0.04004,-0.04004c0.02211,0 0.04004,0.01793 0.04004,0.04004c0,0.02211 -0.01793,0.04004 -0.04004,0.04004c-0.02211,0 -0.04004,-0.01793 -0.04004,-0.04004zM2.03073,1.38076c0,-0.02211 0.01793,-0.04004 0.04004,-0.04004c0.02211,0 0.04004,0.01793 0.04004,0.04004c0,0.02211 -0.01793,0.04004 -0.04004,0.04004c-0.02211,0 -0.04004,-0.01793 -0.04004,-0.04004zM1.11641,1.98164c0,-0.02211 0.01793,-0.04004 0.04004,-0.04004c0.02211,0 0.04004,0.01793 0.04004,0.04004c0,0.02211 -0.01793,0.04004 -0.04004,0.04004c-0.02211,0 -0.04004,-0.01793 -0.04004,-0.04004zM1.38476,0.90473c0,-0.02211 0.01793,-0.04004 0.04004,-0.04004c0.02211,0 0.04004,0.01793 0.04004,0.04004c0,0.02211 -0.01793,0.04004 -0.04004,0.04004c-0.02211,0 -0.04004,-0.01793 -0.04004,-0.04004zM1.92524,1.89181c0,-0.02211 0.01793,-0.04004 0.04004,-0.04004c0.02211,0 0.04004,0.01793 0.04004,0.04004c0,0.02211 -0.01793,0.04004 -0.04004,0.04004c-0.02211,0 -0.04004,-0.01793 -0.04004,-0.04004zM0.84415,1.52796c0,-0.02211 0.01793,-0.04004 0.04004,-0.04004c0.02211,0 0.04004,0.01793 0.04004,0.04004c0,0.02211 -0.01793,0.04004 -0.04004,0.04004c-0.02211,0 -0.04004,-0.01793 -0.04004,-0.04004zM1.89923,1.05611c0,-0.02211 0.01793,-0.04004 0.04004,-0.04004c0.02211,0 0.04004,0.01793 0.04004,0.04004c0,0.02211 -0.01793,0.04004 -0.04004,0.04004c-0.02211,0 -0.04004,-0.01793 -0.04004,-0.04004zM1.43789,2.13207c0,-0.02211 0.01793,-0.04004 0.04004,-0.04004c0.02211,0 0.04004,0.01793 0.04004,0.04004c0,0.02211 -0.01793,0.04004 -0.04004,0.04004c-0.02211,0 -0.04004,-0.01793 -0.04004,-0.04004zM1.04241,1.01456c0,-0.02211 0.01793,-0.04004 0.04004,-0.04004c0.02211,0 0.04004,0.01793 0.04004,0.04004c0,0.02211 -0.01793,0.04004 -0.04004,0.04004c-0.02211,0 -0.04004,-0.01793 -0.04004,-0.04004zM2.10374,1.57449c0,-0.02211 0.01793,-0.04004 0.04004,-0.04004c0.02211,0 0.04004,0.01793 0.04004,0.04004c0,0.02211 -0.01793,0.04004 -0.04004,0.04004c-0.02211,0 -0.04004,-0.01793 -0.04004,-0.04004zM0.93013,1.88636c0,-0.02211 0.01793,-0.04004 0.04004,-0.04004c0.02211,0 0.04004,0.01793 0.04004,0.04004c0,0.02211 -0.01793,0.04004 -0.04004,0.04004c-0.02211,0 -0.04004,-0.01793 -0.04004,-0.04004zM1.5888,0.84931c0,-0.02211 0.01793,-0.04004 0.04004,-0.04004c0.02211,0 0.04004,0.01793 0.04004,0.04004c0,0.02211 -0.01793,0.04004 -0.04004,0.04004c-0.02211,0 -0.04004,-0.01793 -0.04004,-0.04004zM1.81046,2.07197c0,-0.02211 0.01793,-0.04004 0.04004,-0.04004c0.02211,0 0.04004,0.01793 0.04004,0.04004c0,0.02211 -0.01793,0.04004 -0.04004,0.04004c-0.02211,0 -0.04004,-0.01793 -0.04004,-0.04004zM0.80735,1.31533c0,-0.02211 0.01793,-0.04004 0.04004,-0.04004c0.02211,0 0.04004,0.01793 0.04004,0.04004c0,0.02211 -0.01793,0.04004 -0.04004,0.04004c-0.02211,0 -0.04004,-0.01793 -0.04004,-0.04004zM2.07135,1.18983c0,-0.02211 0.01793,-0.04004 0.04004,-0.04004c0.02211,0 0.04004,0.01793 0.04004,0.04004c0,0.02211 -0.01793,0.04004 -0.04004,0.04004c-0.02211,0 -0.04004,-0.01793 -0.04004,-0.04004zM1.21846,2.14937c0,-0.02211 0.01793,-0.04004 0.04004,-0.04004c0.02211,0 0.04004,0.01793 0.04004,0.04004c0,0.02211 -0.01793,0.04004 -0.04004,0.04004c-0.02211,0 -0.04004,-0.01793 -0.04004,-0.04004zM1.19434,0.85235c0,-0.02211 0.01793,-0.04004 0.04004,-0.04004c0.02211,0 0.04004,0.01793 0.04004,0.04004c0,0.02211 -0.01793,0.04004 -0.04004,0.04004c-0.02211,0 -0.04004,-0.01793 -0.04004,-0.04004zM2.10082,1.79884c0,-0.02211 0.01793,-0.04004 0.04004,-0.04004c0.02211,0 0.04004,0.01793 0.04004,0.04004c0,0.02211 -0.01793,0.04004 -0.04004,0.04004c-0.02211,0 -0.04004,-0.01793 -0.04004,-0.04004zM0.77962,1.71712c0,-0.02211 0.01793,-0.04004 0.04004,-0.04004c0.02211,0 0.04004,0.01793 0.04004,0.04004c0,0.02211 -0.01793,0.04004 -0.04004,0.04004c-0.02211,0 -0.04004,-0.01793 -0.04004,-0.04004zM1.81615,0.873c0,-0.02211 0.01793,-0.04004 0.04004,-0.04004c0.02211,0 0.04004,0.01793 0.04004,0.04004c0,0.02211 -0.01793,0.04004 -0.04004,0.04004c-0.02211,0 -0.04004,-0.01793 -0.04004,-0.04004zM1.62496,2.20907c0,-0.02211 0.01793,-0.04004 0.04004,-0.04004c0.02211,0 0.04004,0.01793 0.04004,0.04004c0,0.02211 -0.01793,0.04004 -0.04004,0.04004c-0.02211,0 -0.04004,-0.01793 -0.04004,-0.04004zM0.85218,1.08695c0,-0.02211 0.01793,-0.04004 0.04004,-0.04004c0.02211,0 0.04004,0.01793 0.04004,0.04004c0,0.02211 -0.01793,0.04004 -0.04004,0.04004c-0.02211,0 -0.04004,-0.01793 -0.04004,-0.04004zM2.19343,1.39038c0,-0.02211 0.01793,-0.04004 0.04004,-0.04004c0.02211,0 0.04004,0.01793 0.04004,0.04004c0,0.02211 -0.01793,0.04004 -0.04004,0.04004c-0.02211,0 -0.04004,-0.01793 -0.04004,-0.04004zM0.99105,2.0832c0,-0.02211 0.01793,-0.04004 0.04004,-0.04004c0.02211,0 0.04004,0.01793 0.04004,0.04004c0,0.02211 -0.01793,0.04004 -0.04004,0.04004c-0.02211,0 -0.04004,-0.01793 -0.04004,-0.04004zM1.40861,0.74676c0,-0.02211 0.01793,-0.04004 0.04004,-0.04004c0.02211,0 0.04004,0.01793 0.04004,0.04004c0,0.02211 -0.01793,0.04004 -0.04004,0.04004c-0.02211,0 -0.04004,-0.01793 -0.04004,-0.04004zM2.0133,2.02327c0,-0.02211 0.01793,-0.04004 0.04004,-0.04004c0.02211,0 0.04004,0.01793 0.04004,0.04004c0,0.02211 -0.01793,0.04004 -0.04004,0.04004c-0.02211,0 -0.04004,-0.01793 -0.04004,-0.04004zM0.6919,1.49062c0,-0.02211 0.01793,-0.04004 0.04004,-0.04004c0.02211,0 0.04004,0.01793 0.04004,0.04004c0,0.02211 -0.01793,0.04004 -0.04004,0.04004c-0.02211,0 -0.04004,-0.01793 -0.04004,-0.04004zM2.0356,0.98169c0,-0.02211 0.01793,-0.04004 0.04004,-0.04004c0.02211,0 0.04004,0.01793 0.04004,0.04004c0,0.02211 -0.01793,0.04004 -0.04004,0.04004c-0.02211,0 -0.04004,-0.01793 -0.04004,-0.04004zM1.38782,2.27769c0,-0.02211 0.01793,-0.04004 0.04004,-0.04004c0.02211,0 0.04004,0.01793 0.04004,0.04004c0,0.02211 -0.01793,0.04004 -0.04004,0.04004c-0.02211,0 -0.04004,-0.01793 -0.04004,-0.04004zM0.98171,0.87448c0,-0.02211 0.01793,-0.04004 0.04004,-0.04004c0.02211,0 0.04004,0.01793 0.04004,0.04004c0,0.02211 -0.01793,0.04004 -0.04004,0.04004c-0.02211,0 -0.04004,-0.01793 -0.04004,-0.04004zM2.24187,1.63646c0,-0.02211 0.01793,-0.04004 0.04004,-0.04004c0.02211,0 0.04004,0.01793 0.04004,0.04004c0,0.02211 -0.01793,0.04004 -0.04004,0.04004c-0.02211,0 -0.04004,-0.01793 -0.04004,-0.04004zM0.78751,1.93337c0,-0.02211 0.01793,-0.04004 0.04004,-0.04004c0.02211,0 0.04004,0.01793 0.04004,0.04004c0,0.02211 -0.01793,0.04004 -0.04004,0.04004c-0.02211,0 -0.04004,-0.01793 -0.04004,-0.04004zM1.66182,0.71945c0,-0.02211 0.01793,-0.04004 0.04004,-0.04004c0.02211,0 0.04004,0.01793 0.04004,0.04004c0,0.02211 -0.01793,0.04004 -0.04004,0.04004c-0.02211,0 -0.04004,-0.01793 -0.04004,-0.04004zM1.84386,2.21597c0,-0.02211 0.01793,-0.04004 0.04004,-0.04004c0.02211,0 0.04004,0.01793 0.04004,0.04004c0,0.02211 -0.01793,0.04004 -0.04004,0.04004c-0.02211,0 -0.04004,-0.01793 -0.04004,-0.04004zM0.68649,1.23216c0,-0.02211 0.01793,-0.04004 0.04004,-0.04004c0.02211,0 0.04004,0.01793 0.04004,0.04004c0,0.02211 -0.01793,0.04004 -0.04004,0.04004c-0.02211,0 -0.04004,-0.01793 -0.04004,-0.04004zM2.21561,1.16986c0,-0.02211 0.01793,-0.04004 0.04004,-0.04004c0.02211,0 0.04004,0.01793 0.04004,0.04004c0,0.02211 -0.01793,0.04004 -0.04004,0.04004c-0.02211,0 -0.04004,-0.01793 -0.04004,-0.04004zM1.12608,2.26061c0,-0.02211 0.01793,-0.04004 0.04004,-0.04004c0.02211,0 0.04004,0.01793 0.04004,0.04004c0,0.02211 -0.01793,0.04004 -0.04004,0.04004c-0.02211,0 -0.04004,-0.01793 -0.04004,-0.04004zM1.18757,0.70892c0,-0.02211 0.01793,-0.04004 0.04004,-0.04004c0.02211,0 0.04004,0.01793 0.04004,0.04004c0,0.02211 -0.01793,0.04004 -0.04004,0.04004c-0.02211,0 -0.04004,-0.01793 -0.04004,-0.04004zM2.20186,1.89947c0,-0.02211 0.01793,-0.04004 0.04004,-0.04004c0.02211,0 0.04004,0.01793 0.04004,0.04004c0,0.02211 -0.01793,0.04004 -0.04004,0.04004c-0.02211,0 -0.04004,-0.01793 -0.04004,-0.04004zM0.63809,1.71102c0,-0.02211 0.01793,-0.04004 0.04004,-0.04004c0.02211,0 0.04004,0.01793 0.04004,0.04004c0,0.02211 -0.01793,0.04004 -0.04004,0.04004c-0.02211,0 -0.04004,-0.01793 -0.04004,-0.04004zM1.92405,0.78263c0,-0.02211 0.01793,-0.04004 0.04004,-0.04004c0.02211,0 0.04004,0.01793 0.04004,0.04004c0,0.02211 -0.01793,0.04004 -0.04004,0.04004c-0.02211,0 -0.04004,-0.01793 -0.04004,-0.04004zM1.60638,2.34768c0,-0.02211 0.01793,-0.04004 0.04004,-0.04004c0.02211,0 0.04004,0.01793 0.04004,0.04004c0,0.02211 -0.01793,0.04004 -0.04004,0.04004c-0.02211,0 -0.04004,-0.01793 -0.04004,-0.04004zM0.7729,0.9728c0,-0.02211 0.01793,-0.04004 0.04004,-0.04004c0.02211,0 0.04004,0.01793 0.04004,0.04004c0,0.02211 -0.01793,0.04004 -0.04004,0.04004c-0.02211,0 -0.04004,-0.01793 -0.04004,-0.04004zM2.32815,1.42099c0,-0.02211 0.01793,-0.04004 0.04004,-0.04004c0.02211,0 0.04004,0.01793 0.04004,0.04004c0,0.02211 -0.01793,0.04004 -0.04004,0.04004c-0.02211,0 -0.04004,-0.01793 -0.04004,-0.04004zM0.87166,2.15108c0,-0.02211 0.01793,-0.04004 0.04004,-0.04004c0.02211,0 0.04004,0.01793 0.04004,0.04004c0,0.02211 -0.01793,0.04004 -0.04004,0.04004c-0.02211,0 -0.04004,-0.01793 -0.04004,-0.04004zM1.45071,0.61687c0,-0.02211 0.01793,-0.04004 0.04004,-0.04004c0.02211,0 0.04004,0.01793 0.04004,0.04004c0,0.02211 -0.01793,0.04004 -0.04004,0.04004c-0.02211,0 -0.04004,-0.01793 -0.04004,-0.04004zM2.06953,2.14686c0,-0.02211 0.01793,-0.04004 0.04004,-0.04004c0.02211,0 0.04004,0.01793 0.04004,0.04004c0,0.02211 -0.01793,0.04004 -0.04004,0.04004c-0.02211,0 -0.04004,-0.01793 -0.04004,-0.04004zM0.56771,1.43761c0,-0.02211 0.01793,-0.04004 0.04004,-0.04004c0.02211,0 0.04004,0.01793 0.04004,0.04004c0,0.02211 -0.01793,0.04004 -0.04004,0.04004c-0.02211,0 -0.04004,-0.01793 -0.04004,-0.04004zM2.16235,0.93728c0,-0.02211 0.01793,-0.04004 0.04004,-0.04004c0.02211,0 0.04004,0.01793 0.04004,0.04004c0,0.02211 -0.01793,0.04004 -0.04004,0.04004c-0.02211,0 -0.04004,-0.01793 -0.04004,-0.04004zM1.32455,2.39536c0,-0.02211 0.01793,-0.04004 0.04004,-0.04004c0.02211,0 0.04004,0.01793 0.04004,0.04004c0,0.02211 -0.01793,0.04004 -0.04004,0.04004c-0.02211,0 -0.04004,-0.01793 -0.04004,-0.04004zM0.94919,0.7456c0,-0.02211 0.01793,-0.04004 0.04004,-0.04004c0.02211,0 0.04004,0.01793 0.04004,0.04004c0,0.02211 -0.01793,0.04004 -0.04004,0.04004c-0.02211,0 -0.04004,-0.01793 -0.04004,-0.04004zM2.35226,1.70929c0,-0.02211 0.01793,-0.04004 0.04004,-0.04004c0.02211,0 0.04004,0.01793 0.04004,0.04004c0,0.02211 -0.01793,0.04004 -0.04004,0.04004c-0.02211,0 -0.04004,-0.01793 -0.04004,-0.04004zM0.65753,1.95399c0,-0.02211 0.01793,-0.04004 0.04004,-0.04004c0.02211,0 0.04004,0.01793 0.04004,0.04004c0,0.02211 -0.01793,0.04004 -0.04004,0.04004c-0.02211,0 -0.04004,-0.01793 -0.04004,-0.04004zM1.74345,0.61703c0,-0.02211 0.01793,-0.04004 0.04004,-0.04004c0.02211,0 0.04004,0.01793 0.04004,0.04004c0,0.02211 -0.01793,0.04004 -0.04004,0.04004c-0.02211,0 -0.04004,-0.01793 -0.04004,-0.04004zM1.85268,2.34603c0,-0.02211 0.01793,-0.04004 0.04004,-0.04004c0.02211,0 0.04004,0.01793 0.04004,0.04004c0,0.02211 -0.01793,0.04004 -0.04004,0.04004c-0.02211,0 -0.04004,-0.01793 -0.04004,-0.04004zM0.59266,1.14252c0,-0.02211 0.01793,-0.04004 0.04004,-0.04004c0.02211,0 0.04004,0.01793 0.04004,0.04004c0,0.02211 -0.01793,0.04004 -0.04004,0.04004c-0.02211,0 -0.04004,-0.01793 -0.04004,-0.04004zM2.34476,1.1727c0,-0.02211 0.01793,-0.04004 0.04004,-0.04004c0.02211,0 0.04004,0.01793 0.04004,0.04004c0,0.02211 -0.01793,0.04004 -0.04004,0.04004c-0.02211,0 -0.04004,-0.01793 -0.04004,-0.04004zM1.02927,2.34528c0,-0.02211 0.01793,-0.04004 0.04004,-0.04004c0.02211,0 0.04004,0.01793 0.04004,0.04004c0,0.02211 -0.01793,0.04004 -0.04004,0.04004c-0.02211,0 -0.04004,-0.01793 -0.04004,-0.04004zM1.20182,0.58165c0,-0.02211 0.01793,-0.04004 0.04004,-0.04004c0.02211,0 0.04004,0.01793 0.04004,0.04004c0,0.02211 -0.01793,0.04004 -0.04004,0.04004c-0.02211,0 -0.04004,-0.01793 -0.04004,-0.04004zM2.27691,2.00259c0,-0.02211 0.01793,-0.04004 0.04004,-0.04004c0.02211,0 0.04004,0.01793 0.04004,0.04004c0,0.02211 -0.01793,0.04004 -0.04004,0.04004c-0.02211,0 -0.04004,-0.01793 -0.04004,-0.04004zM0.51364,1.68566c0,-0.02211 0.01793,-0.04004 0.04004,-0.04004c0.02211,0 0.04004,0.01793 0.04004,0.04004c0,0.02211 -0.01793,0.04004 -0.04004,0.04004c-0.02211,0 -0.04004,-0.01793 -0.04004,-0.04004zM2.03257,0.71762c0,-0.02211 0.01793,-0.04004 0.04004,-0.04004c0.02211,0 0.04004,0.01793 0.04004,0.04004c0,0.02211 -0.01793,0.04004 -0.04004,0.04004c-0.02211,0 -0.04004,-0.01793 -0.04004,-0.04004zM1.5703,2.46841c0,-0.02211 0.01793,-0.04004 0.04004,-0.04004c0.02211,0 0.04004,0.01793 0.04004,0.04004c0,0.02211 -0.01793,0.04004 -0.04004,0.04004c-0.02211,0 -0.04004,-0.01793 -0.04004,-0.04004zM0.71826,0.85978c0,-0.02211 0.01793,-0.04004 0.04004,-0.04004c0.02211,0 0.04004,0.01793 0.04004,0.04004c0,0.02211 -0.01793,0.04004 -0.04004,0.04004c-0.02211,0 -0.04004,-0.01793 -0.04004,-0.04004zM2.4443,1.46735c0,-0.02211 0.01793,-0.04004 0.04004,-0.04004c0.02211,0 0.04004,0.01793 0.04004,0.04004c0,0.02211 -0.01793,0.04004 -0.04004,0.04004c-0.02211,0 -0.04004,-0.01793 -0.04004,-0.04004zM0.75509,2.1951c0,-0.02211 0.01793,-0.04004 0.04004,-0.04004c0.02211,0 0.04004,0.01793 0.04004,0.04004c0,0.02211 -0.01793,0.04004 -0.04004,0.04004c-0.02211,0 -0.04004,-0.01793 -0.04004,-0.04004zM1.50683,0.50612c0,-0.02211 0.01793,-0.04004 0.04004,-0.04004c0.02211,0 0.04004,0.01793 0.04004,0.04004c0,0.02211 -0.01793,0.04004 -0.04004,0.04004c-0.02211,0 -0.04004,-0.01793 -0.04004,-0.04004zM2.10275,2.26604c0,-0.02211 0.01793,-0.04004 0.04004,-0.04004c0.02211,0 0.04004,0.01793 0.04004,0.04004c0,0.02211 -0.01793,0.04004 -0.04004,0.04004c-0.02211,0 -0.04004,-0.01793 -0.04004,-0.04004zM0.46312,1.3723c0,-0.02211 0.01793,-0.04004 0.04004,-0.04004c0.02211,0 0.04004,0.01793 0.04004,0.04004c0,0.02211 -0.01793,0.04004 -0.04004,0.04004c-0.02211,0 -0.04004,-0.01793 -0.04004,-0.04004zM2.2832,0.91495c0,-0.02211 0.01793,-0.04004 0.04004,-0.04004c0.02211,0 0.04004,0.01793 0.04004,0.04004c0,0.02211 -0.01793,0.04004 -0.04004,0.04004c-0.02211,0 -0.04004,-0.01793 -0.04004,-0.04004zM1.25069,2.49308c0,-0.02211 0.01793,-0.04004 0.04004,-0.04004c0.02211,0 0.04004,0.01793 0.04004,0.04004c0,0.02211 -0.01793,0.04004 -0.04004,0.04004c-0.02211,0 -0.04004,-0.01793 -0.04004,-0.04004zM0.93778,0.62403c0,-0.02211 0.01793,-0.04004 0.04004,-0.04004c0.02211,0 0.04004,0.01793 0.04004,0.04004c0,0.02211 -0.01793,0.04004 -0.04004,0.04004c-0.02211,0 -0.04004,-0.01793 -0.04004,-0.04004zM2.44246,1.79103c0,-0.02211 0.01793,-0.04004 0.04004,-0.04004c0.02211,0 0.04004,0.01793 0.04004,0.04004c0,0.02211 -0.01793,0.04004 -0.04004,0.04004c-0.02211,0 -0.04004,-0.01793 -0.04004,-0.04004zM0.53618,1.95456c0,-0.02211 0.01793,-0.04004 0.04004,-0.04004c0.02211,0 0.04004,0.01793 0.04004,0.04004c0,0.02211 -0.01793,0.04004 -0.04004,0.04004c-0.02211,0 -0.04004,-0.01793 -0.04004,-0.04004zM1.83234,0.53495c0,-0.02211 0.01793,-0.04004 0.04004,-0.04004c0.02211,0 0.04004,0.01793 0.04004,0.04004c0,0.02211 -0.01793,0.04004 -0.04004,0.04004c-0.02211,0 -0.04004,-0.01793 -0.04004,-0.04004zM1.84253,2.46625c0,-0.02211 0.01793,-0.04004 0.04004,-0.04004c0.02211,0 0.04004,0.01793 0.04004,0.04004c0,0.02211 -0.01793,0.04004 -0.04004,0.04004c-0.02211,0 -0.04004,-0.01793 -0.04004,-0.04004zM0.51921,1.04725c0,-0.02211 0.01793,-0.04004 0.04004,-0.04004c0.02211,0 0.04004,0.01793 0.04004,0.04004c0,0.02211 -0.01793,0.04004 -0.04004,0.04004c-0.02211,0 -0.04004,-0.01793 -0.04004,-0.04004zM2.46294,1.19336c0,-0.02211 0.01793,-0.04004 0.04004,-0.04004c0.02211,0 0.04004,0.01793 0.04004,0.04004c0,0.02211 -0.01793,0.04004 -0.04004,0.04004c-0.02211,0 -0.04004,-0.01793 -0.04004,-0.04004zM0.92841,2.40964c0,-0.02211 0.01793,-0.04004 0.04004,-0.04004c0.02211,0 0.04004,0.01793 0.04004,0.04004c0,0.02211 -0.01793,0.04004 -0.04004,0.04004c-0.02211,0 -0.04004,-0.01793 -0.04004,-0.04004zM1.23271,0.46639c0,-0.02211 0.01793,-0.04004 0.04004,-0.04004c0.02211,0 0.04004,0.01793 0.04004,0.04004c0,0.02211 -0.01793,0.04004 -0.04004,0.04004c-0.02211,0 -0.04004,-0.01793 -0.04004,-0.04004zM2.33179,2.1082c0,-0.02211 0.01793,-0.04004 0.04004,-0.04004c0.02211,0 0.04004,0.01793 0.04004,0.04004c0,0.02211 -0.01793,0.04004 -0.04004,0.04004c-0.02211,0 -0.04004,-0.01793 -0.04004,-0.04004zM0.40213,1.6449c0,-0.02211 0.01793,-0.04004 0.04004,-0.04004c0.02211,0 0.04004,0.01793 0.04004,0.04004c0,0.02211 -0.01793,0.04004 -0.04004,0.04004c-0.02211,0 -0.04004,-0.01793 -0.04004,-0.04004zM2.14208,0.67252c0,-0.02211 0.01793,-0.04004 0.04004,-0.04004c0.02211,0 0.04004,0.01793 0.04004,0.04004c0,0.02211 -0.01793,0.04004 -0.04004,0.04004c-0.02211,0 -0.04004,-0.01793 -0.04004,-0.04004zM1.52008,2.57535c0,-0.02211 0.01793,-0.04004 0.04004,-0.04004c0.02211,0 0.04004,0.01793 0.04004,0.04004c0,0.02211 -0.01793,0.04004 -0.04004,0.04004c-0.02211,0 -0.04004,-0.01793 -0.04004,-0.04004zM0.68319,0.74726c0,-0.02211 0.01793,-0.04004 0.04004,-0.04004c0.02211,0 0.04004,0.01793 0.04004,0.04004c0,0.02211 -0.01793,0.04004 -0.04004,0.04004c-0.02211,0 -0.04004,-0.01793 -0.04004,-0.04004zM2.54591,1.52654c0,-0.02211 0.01793,-0.04004 0.04004,-0.04004c0.02211,0 0.04004,0.01793 0.04004,0.04004c0,0.02211 -0.01793,0.04004 -0.04004,0.04004c-0.02211,0 -0.04004,-0.01793 -0.04004,-0.04004zM0.64043,2.21998c0,-0.02211 0.01793,-0.04004 0.04004,-0.04004c0.02211,0 0.04004,0.01793 0.04004,0.04004c0,0.02211 -0.01793,0.04004 -0.04004,0.04004c-0.02211,0 -0.04004,-0.01793 -0.04004,-0.04004zM1.57447,0.41056c0,-0.02211 0.01793,-0.04004 0.04004,-0.04004c0.02211,0 0.04004,0.01793 0.04004,0.04004c0,0.02211 -0.01793,0.04004 -0.04004,0.04004c-0.02211,0 -0.04004,-0.01793 -0.04004,-0.04004zM2.11735,2.38195c0,-0.02211 0.01793,-0.04004 0.04004,-0.04004c0.02211,0 0.04004,0.01793 0.04004,0.04004c0,0.02211 -0.01793,0.04004 -0.04004,0.04004c-0.02211,0 -0.04004,-0.01793 -0.04004,-0.04004zM0.37427,1.29682c0,-0.02211 0.01793,-0.04004 0.04004,-0.04004c0.02211,0 0.04004,0.01793 0.04004,0.04004c0,0.02211 -0.01793,0.04004 -0.04004,0.04004c-0.02211,0 -0.04004,-0.01793 -0.04004,-0.04004zM2.39946,0.91065c0,-0.02211 0.01793,-0.04004 0.04004,-0.04004c0.02211,0 0.04004,0.01793 0.04004,0.04004c0,0.02211 -0.01793,0.04004 -0.04004,0.04004c-0.02211,0 -0.04004,-0.01793 -0.04004,-0.04004zM1.168,2.5746c0,-0.02211 0.01793,-0.04004 0.04004,-0.04004c0.02211,0 0.04004,0.01793 0.04004,0.04004c0,0.02211 -0.01793,0.04004 -0.04004,0.04004c-0.02211,0 -0.04004,-0.01793 -0.04004,-0.04004zM0.94371,0.50829c0,-0.02211 0.01793,-0.04004 0.04004,-0.04004c0.02211,0 0.04004,0.01793 0.04004,0.04004c0,0.02211 -0.01793,0.04004 -0.04004,0.04004c-0.02211,0 -0.04004,-0.01793 -0.04004,-0.04004zM2.5161,1.88023c0,-0.02211 0.01793,-0.04004 0.04004,-0.04004c0.02211,0 0.04004,0.01793 0.04004,0.04004c0,0.02211 -0.01793,0.04004 -0.04004,0.04004c-0.02211,0 -0.04004,-0.01793 -0.04004,-0.04004zM0.42184,1.93852c0,-0.02211 0.01793,-0.04004 0.04004,-0.04004c0.02211,0 0.04004,0.01793 0.04004,0.04004c0,0.02211 -0.01793,0.04004 -0.04004,0.04004c-0.02211,0 -0.04004,-0.01793 -0.04004,-0.04004zM1.92733,0.46968c0,-0.02211 0.01793,-0.04004 0.04004,-0.04004c0.02211,0 0.04004,0.01793 0.04004,0.04004c0,0.02211 -0.01793,0.04004 -0.04004,0.04004c-0.02211,0 -0.04004,-0.01793 -0.04004,-0.04004zM1.81659,2.57834c0,-0.02211 0.01793,-0.04004 0.04004,-0.04004c0.02211,0 0.04004,0.01793 0.04004,0.04004c0,0.02211 -0.01793,0.04004 -0.04004,0.04004c-0.02211,0 -0.04004,-0.01793 -0.04004,-0.04004zM0.46274,0.94723c0,-0.02211 0.01793,-0.04004 0.04004,-0.04004c0.02211,0 0.04004,0.01793 0.04004,0.04004c0,0.02211 -0.01793,0.04004 -0.04004,0.04004c-0.02211,0 -0.04004,-0.01793 -0.04004,-0.04004zM2.57195,1.22893c0,-0.02211 0.01793,-0.04004 0.04004,-0.04004c0.02211,0 0.04004,0.01793 0.04004,0.04004c0,0.02211 -0.01793,0.04004 -0.04004,0.04004c-0.02211,0 -0.04004,-0.01793 -0.04004,-0.04004zM0.82416,2.45695c0,-0.02211 0.01793,-0.04004 0.04004,-0.04004c0.02211,0 0.04004,0.01793 0.04004,0.04004c0,0.02211 -0.01793,0.04004 -0.04004,0.04004c-0.02211,0 -0.04004,-0.01793 -0.04004,-0.04004zM1.27756,0.36126c0,-0.02211 0.01793,-0.04004 0.04004,-0.04004c0.02211,0 0.04004,0.01793 0.04004,0.04004c0,0.02211 -0.01793,0.04004 -0.04004,0.04004c-0.02211,0 -0.04004,-0.01793 -0.04004,-0.04004zM2.36966,2.21586c0,-0.02211 0.01793,-0.04004 0.04004,-0.04004c0.02211,0 0.04004,0.01793 0.04004,0.04004c0,0.02211 -0.01793,0.04004 -0.04004,0.04004c-0.02211,0 -0.04004,-0.01793 -0.04004,-0.04004zM0.30165,1.59116c0,-0.02211 0.01793,-0.04004 0.04004,-0.04004c0.02211,0 0.04004,0.01793 0.04004,0.04004c0,0.02211 -0.01793,0.04004 -0.04004,0.04004c-0.02211,0 -0.04004,-0.01793 -0.04004,-0.04004zM2.25232,0.64433c0,-0.02211 0.01793,-0.04004 0.04004,-0.04004c0.02211,0 0.04004,0.01793 0.04004,0.04004c0,0.02211 -0.01793,0.04004 -0.04004,0.04004c-0.02211,0 -0.04004,-0.01793 -0.04004,-0.04004zM1.45792,2.67047c0,-0.02211 0.01793,-0.04004 0.04004,-0.04004c0.02211,0 0.04004,0.01793 0.04004,0.04004c0,0.02211 -0.01793,0.04004 -0.04004,0.04004c-0.02211,0 -0.04004,-0.01793 -0.04004,-0.04004zM0.66481,0.63528c0,-0.02211 0.01793,-0.04004 0.04004,-0.04004c0.02211,0 0.04004,0.01793 0.04004,0.04004c0,0.02211 -0.01793,0.04004 -0.04004,0.04004c-0.02211,0 -0.04004,-0.01793 -0.04004,-0.04004zM2.63498,1.5966c0,-0.02211 0.01793,-0.04004 0.04004,-0.04004c0.02211,0 0.04004,0.01793 0.04004,0.04004c0,0.02211 -0.01793,0.04004 -0.04004,0.04004c-0.02211,0 -0.04004,-0.01793 -0.04004,-0.04004zM0.52757,2.22846c0,-0.02211 0.01793,-0.04004 0.04004,-0.04004c0.02211,0 0.04004,0.01793 0.04004,0.04004c0,0.02211 -0.01793,0.04004 -0.04004,0.04004c-0.02211,0 -0.04004,-0.01793 -0.04004,-0.04004zM1.65185,0.32817c0,-0.02211 0.01793,-0.04004 0.04004,-0.04004c0.02211,0 0.04004,0.01793 0.04004,0.04004c0,0.02211 -0.01793,0.04004 -0.04004,0.04004c-0.02211,0 -0.04004,-0.01793 -0.04004,-0.04004zM2.11593,2.49484c0,-0.02211 0.01793,-0.04004 0.04004,-0.04004c0.02211,0 0.04004,0.01793 0.04004,0.04004c0,0.02211 -0.01793,0.04004 -0.04004,0.04004c-0.02211,0 -0.04004,-0.01793 -0.04004,-0.04004zM0.29915,1.21273c0,-0.02211 0.01793,-0.04004 0.04004,-0.04004c0.02211,0 0.04004,0.01793 0.04004,0.04004c0,0.02211 -0.01793,0.04004 -0.04004,0.04004c-0.02211,0 -0.04004,-0.01793 -0.04004,-0.04004zM2.51153,0.9219c0,-0.02211 0.01793,-0.04004 0.04004,-0.04004c0.02211,0 0.04004,0.01793 0.04004,0.04004c0,0.02211 -0.01793,0.04004 -0.04004,0.04004c-0.02211,0 -0.04004,-0.01793 -0.04004,-0.04004zM1.07787,2.64193c0,-0.02211 0.01793,-0.04004 0.04004,-0.04004c0.02211,0 0.04004,0.01793 0.04004,0.04004c0,0.02211 -0.01793,0.04004 -0.04004,0.04004c-0.02211,0 -0.04004,-0.01793 -0.04004,-0.04004zM0.96465,0.39788c0,-0.02211 0.01793,-0.04004 0.04004,-0.04004c0.02211,0 0.04004,0.01793 0.04004,0.04004c0,0.02211 -0.01793,0.04004 -0.04004,0.04004c-0.02211,0 -0.04004,-0.01793 -0.04004,-0.04004zM2.57518,1.97568c0,-0.02211 0.01793,-0.04004 0.04004,-0.04004c0.02211,0 0.04004,0.01793 0.04004,0.04004c0,0.02211 -0.01793,0.04004 -0.04004,0.04004c-0.02211,0 -0.04004,-0.01793 -0.04004,-0.04004zM0.3139,1.90809c0,-0.02211 0.01793,-0.04004 0.04004,-0.04004c0.02211,0 0.04004,0.01793 0.04004,0.04004c0,0.02211 -0.01793,0.04004 -0.04004,0.04004c-0.02211,0 -0.04004,-0.01793 -0.04004,-0.04004zM2.02737,0.41924c0,-0.02211 0.01793,-0.04004 0.04004,-0.04004c0.02211,0 0.04004,0.01793 0.04004,0.04004c0,0.02211 -0.01793,0.04004 -0.04004,0.04004c-0.02211,0 -0.04004,-0.01793 -0.04004,-0.04004zM1.77695,2.68301c0,-0.02211 0.01793,-0.04004 0.04004,-0.04004c0.02211,0 0.04004,0.01793 0.04004,0.04004c0,0.02211 -0.01793,0.04004 -0.04004,0.04004c-0.02211,0 -0.04004,-0.01793 -0.04004,-0.04004zM0.42128,0.84338c0,-0.02211 0.01793,-0.04004 0.04004,-0.04004c0.02211,0 0.04004,0.01793 0.04004,0.04004c0,0.02211 -0.01793,0.04004 -0.04004,0.04004c-0.02211,0 -0.04004,-0.01793 -0.04004,-0.04004zM2.67259,1.27744c0,-0.02211 0.01793,-0.04004 0.04004,-0.04004c0.02211,0 0.04004,0.01793 0.04004,0.04004c0,0.02211 -0.01793,0.04004 -0.04004,0.04004c-0.02211,0 -0.04004,-0.01793 -0.04004,-0.04004zM0.71728,2.48916c0,-0.02211 0.01793,-0.04004 0.04004,-0.04004c0.02211,0 0.04004,0.01793 0.04004,0.04004c0,0.02211 -0.01793,0.04004 -0.04004,0.04004c-0.02211,0 -0.04004,-0.01793 -0.04004,-0.04004zM1.33455,0.26539c0,-0.02211 0.01793,-0.04004 0.04004,-0.04004c0.02211,0 0.04004,0.01793 0.04004,0.04004c0,0.02211 -0.01793,0.04004 -0.04004,0.04004c-0.02211,0 -0.04004,-0.01793 -0.04004,-0.04004zM2.3924,2.32496c0,-0.02211 0.01793,-0.04004 0.04004,-0.04004c0.02211,0 0.04004,0.01793 0.04004,0.04004c0,0.02211 -0.01793,0.04004 -0.04004,0.04004c-0.02211,0 -0.04004,-0.01793 -0.04004,-0.04004zM0.25127,1.48612c0.02211,0 0.04004,0.01793 0.04004,0.04004c0,0.02211 -0.01793,0.04004 -0.04004,0.04004c-0.01005,0 -0.01924,-0.00371 -0.02627,-0.00983l0,-0.06043c0.00703,-0.00612 0.01622,-0.00983 0.02627,-0.00983zM2.36281,0.63117c0,-0.02211 0.01793,-0.04004 0.04004,-0.04004c0.02211,0 0.04004,0.01793 0.04004,0.04004c0,0.02211 -0.01793,0.04004 -0.04004,0.04004c-0.02211,0 -0.04004,-0.01793 -0.04004,-0.04004zM1.38541,2.75477c0,-0.02211 0.01793,-0.04004 0.04004,-0.04004c0.02211,0 0.04004,0.01793 0.04004,0.04004c0,0.00738 -0.002,0.01429 -0.00548,0.02023h-0.06912c-0.00348,-0.00594 -0.00548,-0.01285 -0.00548,-0.02023zM0.6613,0.52422c0,-0.02211 0.01793,-0.04004 0.04004,-0.04004c0.02211,0 0.04004,0.01793 0.04004,0.04004c0,0.02211 -0.01793,0.04004 -0.04004,0.04004c-0.02211,0 -0.04004,-0.01793 -0.04004,-0.04004zM2.71256,1.67604c0,-0.02211 0.01793,-0.04004 0.04004,-0.04004c0.0083,0 0.01601,0.00252 0.0224,0.00685v0.06639c-0.00639,0.00432 -0.0141,0.00685 -0.0224,0.00685c-0.02211,0 -0.04004,-0.01793 -0.04004,-0.04004zM0.41678,2.22233c0,-0.02211 0.01793,-0.04004 0.04004,-0.04004c0.02211,0 0.04004,0.01793 0.04004,0.04004c0,0.02211 -0.01793,0.04004 -0.04004,0.04004c-0.02211,0 -0.04004,-0.01793 -0.04004,-0.04004zM1.73761,0.25786c0,-0.0136 0.00679,-0.02562 0.01716,-0.03286l0.04577,0c0.01037,0.00724 0.01716,0.01926 0.01716,0.03286c0,0.02211 -0.01793,0.04004 -0.04004,0.04004c-0.02211,0 -0.04004,-0.01793 -0.04004,-0.04004zM2.10025,2.60455c0,-0.02211 0.01793,-0.04004 0.04004,-0.04004c0.02211,0 0.04004,0.01793 0.04004,0.04004c0,0.02211 -0.01793,0.04004 -0.04004,0.04004c-0.02211,0 -0.04004,-0.01793 -0.04004,-0.04004zM0.23661,1.12131c0,-0.02211 0.01793,-0.04004 0.04004,-0.04004c0.02211,0 0.04004,0.01793 0.04004,0.04004c0,0.02211 -0.01793,0.04004 -0.04004,0.04004c-0.02211,0 -0.04004,-0.01793 -0.04004,-0.04004zM2.61935,0.947c0,-0.02211 0.01793,-0.04004 0.04004,-0.04004c0.02211,0 0.04004,0.01793 0.04004,0.04004c0,0.02211 -0.01793,0.04004 -0.04004,0.04004c-0.02211,0 -0.04004,-0.01793 -0.04004,-0.04004zM0.98149,2.69627c0,-0.02211 0.01793,-0.04004 0.04004,-0.04004c0.02211,0 0.04004,0.01793 0.04004,0.04004c0,0.02211 -0.01793,0.04004 -0.04004,0.04004c-0.02211,0 -0.04004,-0.01793 -0.04004,-0.04004zM0.99895,0.29274c0,-0.02211 0.01793,-0.04004 0.04004,-0.04004c0.02211,0 0.04004,0.01793 0.04004,0.04004c0,0.02211 -0.01793,0.04004 -0.04004,0.04004c-0.02211,0 -0.04004,-0.01793 -0.04004,-0.04004zM2.62094,2.07631c0,-0.02211 0.01793,-0.04004 0.04004,-0.04004c0.02211,0 0.04004,0.01793 0.04004,0.04004c0,0.02211 -0.01793,0.04004 -0.04004,0.04004c-0.02211,0 -0.04004,-0.01793 -0.04004,-0.04004zM0.25225,1.82483c0.02211,0 0.04004,0.01793 0.04004,0.04004c0,0.02211 -0.01793,0.04004 -0.04004,0.04004c-0.01053,0 -0.02011,-0.00406 -0.02725,-0.01071l0,-0.05867c0.00715,-0.00664 0.01673,-0.01071 0.02725,-0.01071zM2.13149,0.38239c0,-0.02211 0.01793,-0.04004 0.04004,-0.04004c0.02211,0 0.04004,0.01793 0.04004,0.04004c0,0.02211 -0.01793,0.04004 -0.04004,0.04004c-0.02211,0 -0.04004,-0.01793 -0.04004,-0.04004zM1.76518,2.74046c0.02025,0 0.03698,0.01503 0.03967,0.03454h-0.07933c0.00268,-0.01951 0.01942,-0.03454 0.03967,-0.03454zM0.39359,0.73655c0,-0.02211 0.01793,-0.04004 0.04004,-0.04004c0.02211,0 0.04004,0.01793 0.04004,0.04004c0,0.02211 -0.01793,0.04004 -0.04004,0.04004c-0.02211,0 -0.04004,-0.01793 -0.04004,-0.04004zM2.76517,1.33743c0,-0.01006 0.00371,-0.01925 0.00983,-0.02628v0.05256c-0.00612,-0.00703 -0.00983,-0.01622 -0.00983,-0.02628zM0.60854,2.50752c0,-0.02211 0.01793,-0.04004 0.04004,-0.04004c0.02211,0 0.04004,0.01793 0.04004,0.04004c0,0.02211 -0.01793,0.04004 -0.04004,0.04004c-0.02211,0 -0.04004,-0.01793 -0.04004,-0.04004zM2.40131,2.4348c0,-0.02211 0.01793,-0.04004 0.04004,-0.04004c0.02211,0 0.04004,0.01793 0.04004,0.04004c0,0.02211 -0.01793,0.04004 -0.04004,0.04004c-0.02211,0 -0.04004,-0.01793 -0.04004,-0.04004zM2.47295,0.63176c0,-0.02211 0.01793,-0.04004 0.04004,-0.04004c0.02211,0 0.04004,0.01793 0.04004,0.04004c0,0.02211 -0.01793,0.04004 -0.04004,0.04004c-0.02211,0 -0.04004,-0.01793 -0.04004,-0.04004zM0.67136,0.41459c0,-0.02211 0.01793,-0.04004 0.04004,-0.04004c0.02211,0 0.04004,0.01793 0.04004,0.04004c0,0.02211 -0.01793,0.04004 -0.04004,0.04004c-0.02211,0 -0.04004,-0.01793 -0.04004,-0.04004zM0.30846,2.20288c0,-0.02211 0.01793,-0.04004 0.04004,-0.04004c0.02211,0 0.04004,0.01793 0.04004,0.04004c0,0.02211 -0.01793,0.04004 -0.04004,0.04004c-0.02211,0 -0.04004,-0.01793 -0.04004,-0.04004zM1.87061,0.23902c-0.01218,0 -0.02309,-0.00544 -0.03043,-0.01402l0.06087,0c-0.00734,0.00858 -0.01825,0.01402 -0.03043,0.01402zM2.07156,2.71076c0,-0.02211 0.01793,-0.04004 0.04004,-0.04004c0.02211,0 0.04004,0.01793 0.04004,0.04004c0,0.02211 -0.01793,0.04004 -0.04004,0.04004c-0.02211,0 -0.04004,-0.01793 -0.04004,-0.04004zM0.22599,0.98363c0.02211,0 0.04004,0.01793 0.04004,0.04004c0,0.02211 -0.01793,0.04004 -0.04004,0.04004c-0.00033,0 -0.00066,0 -0.00099,-0.00001l0,-0.08006c0.00033,-0.00001 0.00066,-0.00001 0.00099,-0.00001zM2.72268,0.98469c0,-0.02211 0.01793,-0.04004 0.04004,-0.04004c0.00428,0 0.00841,0.00067 0.01228,0.00192l0,0.07624c-0.00387,0.00125 -0.008,0.00192 -0.01228,0.00192c-0.02211,0 -0.04004,-0.01793 -0.04004,-0.04004zM0.87988,2.73835c0,-0.02211 0.01793,-0.04004 0.04004,-0.04004c0.02211,0 0.04004,0.01793 0.04004,0.04004c0,0.01637 -0.00982,0.03045 -0.0239,0.03665h-0.03228c-0.01407,-0.00621 -0.0239,-0.02028 -0.0239,-0.03665zM1.08541,0.23309c-0.00906,0 -0.01743,-0.00301 -0.02414,-0.00809h0.04828c-0.00671,0.00508 -0.01507,0.00809 -0.02414,0.00809zM2.65413,2.18114c0,-0.02211 0.01793,-0.04004 0.04004,-0.04004c0.02211,0 0.04004,0.01793 0.04004,0.04004c0,0.02211 -0.01793,0.04004 -0.04004,0.04004c-0.02211,0 -0.04004,-0.01793 -0.04004,-0.04004zM2.23877,0.35831c0,-0.02211 0.01793,-0.04004 0.04004,-0.04004c0.02211,0 0.04004,0.01793 0.04004,0.04004c0,0.02211 -0.01793,0.04004 -0.04004,0.04004c-0.02211,0 -0.04004,-0.01793 -0.04004,-0.04004zM0.37879,0.62761c0,-0.02211 0.01793,-0.04004 0.04004,-0.04004c0.02211,0 0.04004,0.01793 0.04004,0.04004c0,0.02211 -0.01793,0.04004 -0.04004,0.04004c-0.02211,0 -0.04004,-0.01793 -0.04004,-0.04004zM0.49873,2.51293c0,-0.02211 0.01793,-0.04004 0.04004,-0.04004c0.02211,0 0.04004,0.01793 0.04004,0.04004c0,0.02211 -0.01793,0.04004 -0.04004,0.04004c-0.02211,0 -0.04004,-0.01793 -0.04004,-0.04004zM2.39731,2.54469c0,-0.02211 0.01793,-0.04004 0.04004,-0.04004c0.02211,0 0.04004,0.01793 0.04004,0.04004c0,0.02211 -0.01793,0.04004 -0.04004,0.04004c-0.02211,0 -0.04004,-0.01793 -0.04004,-0.04004zM2.58211,0.64515c0,-0.02211 0.01793,-0.04004 0.04004,-0.04004c0.02211,0 0.04004,0.01793 0.04004,0.04004c0,0.02211 -0.01793,0.04004 -0.04004,0.04004c-0.02211,0 -0.04004,-0.01793 -0.04004,-0.04004zM0.69404,0.30695c0,-0.02211 0.01793,-0.04004 0.04004,-0.04004c0.02211,0 0.04004,0.01793 0.04004,0.04004c0,0.02211 -0.01793,0.04004 -0.04004,0.04004c-0.02211,0 -0.04004,-0.01793 -0.04004,-0.04004zM0.24316,2.13105c0.02211,0 0.04004,0.01793 0.04004,0.04004c0,0.02211 -0.01793,0.04004 -0.04004,0.04004c-0.00654,0 -0.01271,-0.00157 -0.01816,-0.00435l0,-0.07139c0.00545,-0.00278 0.01162,-0.00435 0.01816,-0.00435zM2.07092,2.77299c0.00439,0 0.00861,0.00071 0.01256,0.00201h-0.02512c0.00395,-0.0013 0.00817,-0.00201 0.01256,-0.00201zM0.22683,0.9208c0,0.00418 -0.00064,0.0082 -0.00183,0.01199l0,-0.02398c0.00119,0.00379 0.00183,0.00781 0.00183,0.01199zM0.77401,2.76865c0,-0.02211 0.01793,-0.04004 0.04004,-0.04004c0.02211,0 0.04004,0.01793 0.04004,0.04004c0,0.00216 -0.00017,0.00428 -0.0005,0.00635h-0.07908c-0.00033,-0.00207 -0.0005,-0.00419 -0.0005,-0.00635zM2.67531,2.28926c0,-0.02211 0.01793,-0.04004 0.04004,-0.04004c0.02211,0 0.04004,0.01793 0.04004,0.04004c0,0.02211 -0.01793,0.04004 -0.04004,0.04004c-0.02211,0 -0.04004,-0.01793 -0.04004,-0.04004zM2.34834,0.34641c0,-0.02211 0.01793,-0.04004 0.04004,-0.04004c0.02211,0 0.04004,0.01793 0.04004,0.04004c0,0.02211 -0.01793,0.04004 -0.04004,0.04004c-0.02211,0 -0.04004,-0.01793 -0.04004,-0.04004zM0.37626,0.51736c0,-0.02211 0.01793,-0.04004 0.04004,-0.04004c0.02211,0 0.04004,0.01793 0.04004,0.04004c0,0.02211 -0.01793,0.04004 -0.04004,0.04004c-0.02211,0 -0.04004,-0.01793 -0.04004,-0.04004zM0.3886,2.50607c0,-0.02211 0.01793,-0.04004 0.04004,-0.04004c0.02211,0 0.04004,0.01793 0.04004,0.04004c0,0.02211 -0.01793,0.04004 -0.04004,0.04004c-0.02211,0 -0.04004,-0.01793 -0.04004,-0.04004zM2.38111,2.6539c0,-0.02211 0.01793,-0.04004 0.04004,-0.04004c0.02211,0 0.04004,0.01793 0.04004,0.04004c0,0.02211 -0.01793,0.04004 -0.04004,0.04004c-0.02211,0 -0.04004,-0.01793 -0.04004,-0.04004zM2.68962,0.67058c0,-0.02211 0.01793,-0.04004 0.04004,-0.04004c0.02211,0 0.04004,0.01793 0.04004,0.04004c0,0.02211 -0.01793,0.04004 -0.04004,0.04004c-0.02211,0 -0.04004,-0.01793 -0.04004,-0.04004zM0.76857,0.24196c-0.01352,0 -0.02547,-0.0067 -0.03272,-0.01696l0.06545,0c-0.00725,0.01026 -0.0192,0.01696 -0.03272,0.01696zM0.70482,2.74747c0.01774,0 0.03279,0.01154 0.03805,0.02753h-0.07609c0.00525,-0.01599 0.0203,-0.02753 0.03805,-0.02753zM2.68486,2.39978c0,-0.02211 0.01793,-0.04004 0.04004,-0.04004c0.02211,0 0.04004,0.01793 0.04004,0.04004c0,0.02211 -0.01793,0.04004 -0.04004,0.04004c-0.02211,0 -0.04004,-0.01793 -0.04004,-0.04004zM2.45938,0.34624c0,-0.02211 0.01793,-0.04004 0.04004,-0.04004c0.02211,0 0.04004,0.01793 0.04004,0.04004c0,0.02211 -0.01793,0.04004 -0.04004,0.04004c-0.02211,0 -0.04004,-0.01793 -0.04004,-0.04004zM0.38549,0.40661c0,-0.02211 0.01793,-0.04004 0.04004,-0.04004c0.02211,0 0.04004,0.01793 0.04004,0.04004c0,0.02211 -0.01793,0.04004 -0.04004,0.04004c-0.02211,0 -0.04004,-0.01793 -0.04004,-0.04004zM0.27892,2.4875c0,-0.02211 0.01793,-0.04004 0.04004,-0.04004c0.02211,0 0.04004,0.01793 0.04004,0.04004c0,0.02211 -0.01793,0.04004 -0.04004,0.04004c-0.02211,0 -0.04004,-0.01793 -0.04004,-0.04004zM2.35331,2.76172c0,-0.02211 0.01793,-0.04004 0.04004,-0.04004c0.02211,0 0.04004,0.01793 0.04004,0.04004c0,0.00466 -0.00079,0.00913 -0.00226,0.01328l-0.07557,0c-0.00146,-0.00416 -0.00226,-0.00863 -0.00226,-0.01328zM0.5931,2.75515c0.01475,0 0.02764,0.00797 0.03458,0.01985l-0.06917,0c0.00695,-0.01187 0.01983,-0.01985 0.03458,-0.01985zM2.68311,2.51188c0,-0.02211 0.01793,-0.04004 0.04004,-0.04004c0.02211,0 0.04004,0.01793 0.04004,0.04004c0,0.02211 -0.01793,0.04004 -0.04004,0.04004c-0.02211,0 -0.04004,-0.01793 -0.04004,-0.04004zM2.57106,0.35743c0,-0.02211 0.01793,-0.04004 0.04004,-0.04004c0.02211,0 0.04004,0.01793 0.04004,0.04004c0,0.02211 -0.01793,0.04004 -0.04004,0.04004c-0.02211,0 -0.04004,-0.01793 -0.04004,-0.04004zM0.40606,0.29614c0,-0.02211 0.01793,-0.04004 0.04004,-0.04004c0.02211,0 0.04004,0.01793 0.04004,0.04004c0,0.02211 -0.01793,0.04004 -0.04004,0.04004c-0.02211,0 -0.04004,-0.01793 -0.04004,-0.04004zM0.25052,2.45768c0,0.01699 -0.01059,0.03151 -0.02552,0.03733l0,-0.07466c0.01494,0.00581 0.02552,0.02033 0.02552,0.03733zM0.47971,2.75186c0.01607,0 0.02993,0.00947 0.03631,0.02314h-0.07261c0.00637,-0.01366 0.02023,-0.02314 0.03631,-0.02314zM2.67032,2.62474c0,-0.02211 0.01793,-0.04004 0.04004,-0.04004c0.02211,0 0.04004,0.01793 0.04004,0.04004c0,0.02211 -0.01793,0.04004 -0.04004,0.04004c-0.02211,0 -0.04004,-0.01793 -0.04004,-0.04004zM2.6826,0.37966c0,-0.02211 0.01793,-0.04004 0.04004,-0.04004c0.02211,0 0.04004,0.01793 0.04004,0.04004c0,0.02211 -0.01793,0.04004 -0.04004,0.04004c-0.02211,0 -0.04004,-0.01793 -0.04004,-0.04004zM0.47763,0.22674c-0.00408,0 -0.00801,-0.00061 -0.01172,-0.00174h0.02344c-0.00371,0.00113 -0.00764,0.00174 -0.01172,0.00174zM0.36548,2.7378c0.02116,0 0.03849,0.01641 0.03994,0.0372l-0.07988,0c0.00146,-0.02079 0.01878,-0.0372 0.03994,-0.0372zM2.64674,2.73756c0,-0.02211 0.01793,-0.04004 0.04004,-0.04004c0.02211,0 0.04004,0.01793 0.04004,0.04004c0,0.0171 -0.01072,0.0317 -0.02581,0.03744h-0.02845c-0.01509,-0.00574 -0.02581,-0.02034 -0.02581,-0.03744zM0.25119,2.71314c0.02211,0 0.04004,0.01793 0.04004,0.04004c0,0.00805 -0.00237,0.01554 -0.00646,0.02182h-0.05976v-0.05211c0.00702,-0.00607 0.01617,-0.00975 0.02619,-0.00975z"></path></g></svg>