<svg version="1.1" xmlns="http://www.w3.org/2000/svg" xmlns:xlink="http://www.w3.org/1999/xlink" width="3in" height="3in" viewBox="0 0 3.05 3.05"><g fill="#d3d3d3" fill-rule="evenodd" stroke="#ff0000" stroke-width="0.005" stroke-linecap="butt" stroke-linejoin="miter" stroke-miterlimit="10" stroke-dasharray="" stroke-dashoffset="0" font-family="none" font-weight="none" font-size="none" text-anchor="none" style="mix-blend-mode: normal"><path d="M0,3v-3h3v3zM0.2375,0.2375l0.175,0v0.175h-0.175zM0.64437,0.23214l0.17786,0.01223l-0.01223,0.17786l-0.17786,-0.01223zM1.05184,0.22704l0.17984,0.02479l-0.02479,0.17984l-0.17984,-0.02479zM1.64075,0.25984l-0.03756,0.18092l-0.18092,-0.03756l0.03699,-0.17819h0.01367zM2.04937,0.26829l-0.05039,0.18108l-0.18108,-0.05039l0.04841,-0.17399l0.02747,0zM2.45747,0.27712l-0.06314,0.18035l-0.18035,-0.06314l0.05928,-0.16932l0.03535,0zM2.61052,0.38928l0.06957,-0.16428h0.04032l0.05459,0.02312l0,0.21082zM0.23126,0.64305l0.17132,-0.01178l0.01178,0.17132l-0.17132,0.01178zM0.6375,0.6375h0.175v0.175h-0.175zM1.04435,0.63216l0.17785,0.01219l-0.01219,0.17785l-0.17785,-0.01219zM1.45176,0.62709l0.17983,0.02467l-0.02467,0.17983l-0.17983,-0.02467zM1.85968,0.62237l0.1809,0.03731l-0.03731,0.1809l-0.1809,-0.03731zM2.26801,0.61804l0.18109,0.04996l-0.04996,0.18109l-0.18109,-0.04996zM2.67667,0.61416l0.09833,0.03407l0,0.20206l-0.16084,-0.05573zM0.2257,1.0487l0.16688,-0.02301l0.02301,0.16688l-0.16688,0.02301zM0.63128,1.04303l0.17133,-0.01175l0.01175,0.17133l-0.17133,0.01175zM1.0375,1.0375h0.175v0.175h-0.175zM1.4443,1.03219l0.17784,0.01211l-0.01211,0.17784l-0.17784,-0.01211zM1.85164,1.02717l0.1798,0.02447l-0.02447,0.1798l-0.1798,-0.02447zM2.25944,1.0225l0.18088,0.03694l-0.03694,0.18088l-0.18088,-0.03694zM2.66761,1.01823l0.10739,0.02928l0,0.19456l-0.15677,-0.04275zM0.38258,1.4208l0.03358,0.16178l-0.16178,0.03358l-0.02939,-0.14156v-0.02109zM0.62575,1.44865l0.16693,-0.0229l0.0229,0.16693l-0.16693,0.0229zM1.03132,1.44299l0.17136,-0.01167l0.01167,0.17136l-0.17136,0.01167zM1.4375,1.4375h0.175v0.175h-0.175zM1.84424,1.43224l0.17781,0.012l-0.012,0.17781l-0.17781,-0.012zM2.25147,1.42728l0.17977,0.02419l-0.02419,0.17977l-0.17977,-0.02419zM2.65912,1.42268l0.11588,0.02335v0.1882l-0.15232,-0.03069zM0.3727,1.81659l0.04344,0.15611l-0.15611,0.04344l-0.03502,-0.12587l0,-0.03258zM0.62089,1.85428l0.16188,-0.03338l0.03338,0.16188l-0.16188,0.03338zM1.02583,1.84856l0.167,-0.02273l0.02273,0.167l-0.167,0.02273zM1.43138,1.84294l0.17139,-0.01156l0.01156,0.17139l-0.17139,0.01156zM1.8375,1.8375h0.175v0.175h-0.175zM2.24415,1.83231l0.17778,0.01184l-0.01184,0.17778l-0.17778,-0.01184zM2.65125,1.82742l0.12375,0.01641l0,0.18288l-0.14758,-0.01957zM0.36302,2.21303l0.05252,0.14999l-0.14999,0.05252l-0.04054,-0.11579l0,-0.03839zM0.61671,2.25984l0.15631,-0.04313l0.04313,0.15631l-0.15631,0.04313zM1.02103,2.25411l0.16204,-0.03309l0.03309,0.16204l-0.16204,0.03309zM1.42595,2.24843l0.16711,-0.02248l0.02248,0.16711l-0.16711,0.02248zM1.83145,2.24287l0.17145,-0.01142l0.01142,0.17145l-0.17145,0.01142zM2.2375,2.2375h0.175v0.175h-0.175zM2.64403,2.23239l0.13097,0.00858l0,0.17851l-0.14261,-0.00934zM0.35362,2.61009l0.06078,0.14353l-0.05048,0.02138h-0.10974l-0.02919,-0.06892v-0.04152zM0.61319,2.66527l0.15031,-0.05208l0.05208,0.15031l-0.0332,0.0115l-0.13116,0zM1.01689,2.65959l0.15657,-0.04269l0.04269,0.15657l-0.00562,0.00153h-0.16218zM1.4212,2.6539l0.16224,-0.03269l0.03099,0.1538l-0.16883,0zM1.8261,2.64827l0.16724,-0.02217l0.01974,0.1489l-0.17018,0zM2.23154,2.64278l0.17151,-0.01124l0.0094,0.14346h-0.17224zM2.6375,2.6375h0.1375v0.1375h-0.1375z"></path></g></svg>