<svg version="1.1" xmlns="http://www.w3.org/2000/svg" xmlns:xlink="http://www.w3.org/1999/xlink" width="3in" height="3in" viewBox="0 0 3.05 3.05"><g fill="#d3d3d3" fill-rule="evenodd" stroke="#ff0000" stroke-width="0.005" stroke-linecap="butt" stroke-linejoin="miter" stroke-miterlimit="10" stroke-dasharray="" stroke-dashoffset="0" font-family="none" font-weight="none" font-size="none" text-anchor="none" style="mix-blend-mode: normal"><path d="M0,3v-3h3v3zM2.18101,2.07313c0,-0.44452 0.01188,-0.46791 0.2376,-0.46791h0.1188c0.22572,0 0.2376,0.0234 0.2376,0.46791v0.23396c0,0.44452 -0.01188,0.46791 -0.2376,0.46791h-0.1188c-0.22572,0 -0.2376,-0.0234 -0.2376,-0.46791zM2.18101,0.71709c0,-0.46748 0.01188,-0.49209 0.2376,-0.49209h0.1188c0.22572,0 0.2376,0.0246 0.2376,0.49209v0.24604c0,0.46748 -0.01188,0.49209 -0.2376,0.49209h-0.1188c-0.22572,0 -0.2376,-0.0246 -0.2376,-0.49209zM1.32528,2.26962c0,-0.32007 0.01411,-0.33692 0.28229,-0.33692h0.14115c0.26818,0 0.28229,0.01685 0.28229,0.33692v0.16846c0,0.32007 -0.01411,0.33692 -0.28229,0.33692h-0.14115c-0.26818,0 -0.28229,-0.01685 -0.28229,-0.33692zM1.32528,1.59913c0,-0.11626 0.01411,-0.12238 0.28229,-0.12238h0.14115c0.26818,0 0.28229,0.00612 0.28229,0.12238v0.06119c0,0.11626 -0.01411,0.12238 -0.28229,0.12238h-0.14115c-0.26818,0 -0.28229,-0.00612 -0.28229,-0.12238zM1.32528,0.6657c0,-0.41866 0.01411,-0.4407 0.28229,-0.4407h0.14115c0.26818,0 0.28229,0.02203 0.28229,0.4407v0.22035c0,0.41866 -0.01411,0.4407 -0.28229,0.4407h-0.14115c-0.26818,0 -0.28229,-0.02203 -0.28229,-0.4407zM0.225,1.245c0,-0.969 0.01901,-1.02 0.38011,-1.02h0.19006c0.36111,0 0.38011,0.051 0.38011,1.02v0.51c0,0.969 -0.01901,1.02 -0.38011,1.02h-0.19006c-0.36111,0 -0.38011,-0.051 -0.38011,-1.02z"></path></g></svg>