<svg version="1.1" xmlns="http://www.w3.org/2000/svg" xmlns:xlink="http://www.w3.org/1999/xlink" width="3.0000000000000004in" height="13in" viewBox="-4.440892098500626e-16 -5 3.0500000000000003 13.05"><g fill="none" fill-rule="none" stroke="none" stroke-width="none" stroke-linecap="butt" stroke-linejoin="miter" stroke-miterlimit="10" stroke-dasharray="" stroke-dashoffset="0" font-family="none" font-weight="none" font-size="none" text-anchor="none" style="mix-blend-mode: normal"><path d="M0,3v-3h3v3z" fill="none" fill-rule="nonzero" stroke="none" stroke-width="1"></path><path d="M1.5,1.5v-2.5" fill="none" fill-rule="nonzero" stroke="none" stroke-width="1"></path><path d="M1.5,1.5l0,2.5" fill="none" fill-rule="nonzero" stroke="none" stroke-width="1"></path><path d="M1.5,1.5v-6.5l0,13" fill="none" fill-rule="nonzero" stroke="none" stroke-width="1"></path><path d="M1.5,3v-3h1.5v3z" fill="none" fill-rule="nonzero" stroke="none" stroke-width="1"></path><path d="M1.86,1.41l-0.06,-0.09l0.18,-0.04z" fill="none" fill-rule="nonzero" stroke="none" stroke-width="1"></path><path d="M1.86,1.41l-0.06,-0.09l0.18,-0.04z" fill="none" fill-rule="nonzero" stroke="none" stroke-width="1"></path><path d="M1.14,1.41l0.06,-0.09l-0.18,-0.04z" fill="none" fill-rule="nonzero" stroke="none" stroke-width="1"></path><path d="M1.86,1.41l-0.06,-0.09l0.18,-0.04z" fill="none" fill-rule="nonzero" stroke="none" stroke-width="1"></path><path d="M3,1.21l-0.33,-0.28l0.06,-0.17l0.13,-0.21h0.14z" fill="none" fill-rule="nonzero" stroke="none" stroke-width="1"></path><path d="M2.67,0.93l0.06,-0.17l0.13,-0.21h0.14v0.66z" fill="none" fill-rule="nonzero" stroke="none" stroke-width="1"></path><path d="M0.33,0.93l-0.06,-0.17l-0.13,-0.21h-0.14v0.66z" fill="none" fill-rule="nonzero" stroke="none" stroke-width="1"></path><path d="M2.67,0.93l0.06,-0.17l0.13,-0.21h0.14v0.66z" fill="none" fill-rule="nonzero" stroke="none" stroke-width="1"></path><path d="M2.42,1.43l-0.12,0.26l-0.15,-0.02l0.13,-0.27l0.03,-0.01z" fill="none" fill-rule="nonzero" stroke="none" stroke-width="1"></path><path d="M2.42,1.43l-0.12,0.26l-0.15,-0.02l0.13,-0.27l0.03,-0.01z" fill="none" fill-rule="nonzero" stroke="none" stroke-width="1"></path><path d="M0.58,1.43l0.12,0.26l0.15,-0.02l-0.13,-0.27l-0.03,-0.01z" fill="none" fill-rule="nonzero" stroke="none" stroke-width="1"></path><path d="M2.42,1.43l-0.12,0.26l-0.15,-0.02l0.13,-0.27l0.03,-0.01z" fill="none" fill-rule="nonzero" stroke="none" stroke-width="1"></path><path d="M2.75,0.54l-0.07,0.12l-0.12,-0.14z" fill="none" fill-rule="nonzero" stroke="none" stroke-width="1"></path><path d="M2.75,0.54l-0.07,0.12l-0.12,-0.14z" fill="none" fill-rule="nonzero" stroke="none" stroke-width="1"></path><path d="M0.25,0.54l0.07,0.12l0.12,-0.14z" fill="none" fill-rule="nonzero" stroke="none" stroke-width="1"></path><path d="M2.75,0.54l-0.07,0.12l-0.12,-0.14z" fill="none" fill-rule="nonzero" stroke="none" stroke-width="1"></path><path d="M2.21,0.08l-0.07,-0.02l-0.08,-0.06h0.18z" fill="none" fill-rule="nonzero" stroke="none" stroke-width="1"></path><path d="M2.21,0.08l-0.07,-0.02l-0.08,-0.06h0.18z" fill="none" fill-rule="nonzero" stroke="none" stroke-width="1"></path><path d="M0.79,0.08l0.07,-0.02l0.08,-0.06h-0.18z" fill="none" fill-rule="nonzero" stroke="none" stroke-width="1"></path><path d="M2.21,0.08l-0.07,-0.02l-0.08,-0.06h0.18z" fill="none" fill-rule="nonzero" stroke="none" stroke-width="1"></path><path d="M1.83,2.83l0.06,0.17h-0.39v-0.28z" fill="none" fill-rule="nonzero" stroke="none" stroke-width="1"></path><path d="M1.83,2.83l0.06,0.17h-0.39v-0.28z" fill="none" fill-rule="nonzero" stroke="none" stroke-width="1"></path><path d="M1.17,2.83l-0.06,0.17l0.39,0v-0.28z" fill="none" fill-rule="nonzero" stroke="none" stroke-width="1"></path><path d="M1.83,2.83l0.06,0.17h-0.39v-0.28z" fill="none" fill-rule="nonzero" stroke="none" stroke-width="1"></path><path d="M1.83,2.83l0.06,0.17l-0.78,0l0.06,-0.17l0.33,-0.11z" fill="none" fill-rule="nonzero" stroke="none" stroke-width="1"></path><path d="M2.05,0.11l-0.05,0.07l-0.01,-0.01l-0.02,-0.12z" fill="none" fill-rule="nonzero" stroke="none" stroke-width="1"></path><path d="M2.05,0.11l-0.05,0.07l-0.01,-0.01l-0.02,-0.12z" fill="none" fill-rule="nonzero" stroke="none" stroke-width="1"></path><path d="M0.95,0.11l0.05,0.07l0.01,-0.01l0.02,-0.12z" fill="none" fill-rule="nonzero" stroke="none" stroke-width="1"></path><path d="M2.05,0.11l-0.05,0.07l-0.01,-0.01l-0.02,-0.12z" fill="none" fill-rule="nonzero" stroke="none" stroke-width="1"></path><path d="M2.45,2.61l0.07,0.39h-0.26v-0.31l0.13,-0.14z" fill="none" fill-rule="nonzero" stroke="none" stroke-width="1"></path><path d="M2.45,2.61l0.07,0.39h-0.26v-0.31l0.13,-0.14z" fill="none" fill-rule="nonzero" stroke="none" stroke-width="1"></path><path d="M0.55,2.61l-0.07,0.39h0.26v-0.31l-0.13,-0.14z" fill="none" fill-rule="nonzero" stroke="none" stroke-width="1"></path><path d="M2.45,2.61l0.07,0.39h-0.26v-0.31l0.13,-0.14z" fill="none" fill-rule="nonzero" stroke="none" stroke-width="1"></path><path d="M3,2.2v0.09l-0.08,-0.06l0.01,-0.04z" fill="none" fill-rule="nonzero" stroke="none" stroke-width="1"></path><path d="M2.92,2.23l0.01,-0.04l0.07,0.01v0.09z" fill="none" fill-rule="nonzero" stroke="none" stroke-width="1"></path><path d="M0.08,2.23l-0.01,-0.04l-0.07,0.01v0.09z" fill="none" fill-rule="nonzero" stroke="none" stroke-width="1"></path><path d="M2.92,2.23l0.01,-0.04l0.07,0.01v0.09z" fill="none" fill-rule="nonzero" stroke="none" stroke-width="1"></path><path d="M2.27,1.13l-0.01,0.17l-0.02,0.01l-0.14,-0.08l0.14,-0.11z" fill="none" fill-rule="nonzero" stroke="none" stroke-width="1"></path><path d="M2.27,1.13l-0.01,0.17l-0.02,0.01l-0.14,-0.08l0.14,-0.11z" fill="none" fill-rule="nonzero" stroke="none" stroke-width="1"></path><path d="M0.73,1.13l0.01,0.17l0.02,0.01l0.14,-0.08l-0.14,-0.11z" fill="none" fill-rule="nonzero" stroke="none" stroke-width="1"></path><path d="M2.27,1.13l-0.01,0.17l-0.02,0.01l-0.14,-0.08l0.14,-0.11z" fill="none" fill-rule="nonzero" stroke="none" stroke-width="1"></path><path d="M3,1.91h-0.05l-0.09,-0.05l-0.07,-0.18l0.1,-0.29l0.1,-0.08h0.01z" fill="none" fill-rule="nonzero" stroke="none" stroke-width="1"></path><path d="M2.95,1.91l-0.09,-0.05l-0.07,-0.18l0.1,-0.29l0.1,-0.08l0.01,0v0.6z" fill="none" fill-rule="nonzero" stroke="none" stroke-width="1"></path><path d="M0.05,1.91l0.09,-0.05l0.07,-0.18l-0.1,-0.29l-0.1,-0.08l-0.01,0l0,0.6z" fill="none" fill-rule="nonzero" stroke="none" stroke-width="1"></path><path d="M2.95,1.91l-0.09,-0.05l-0.07,-0.18l0.1,-0.29l0.1,-0.08l0.01,0v0.6z" fill="none" fill-rule="nonzero" stroke="none" stroke-width="1"></path><path d="M2.79,2.63l-0.18,0.37l-0.05,-0.36l0.23,-0.02z" fill="none" fill-rule="nonzero" stroke="none" stroke-width="1"></path><path d="M2.79,2.63l-0.18,0.37l-0.05,-0.36l0.23,-0.02z" fill="none" fill-rule="nonzero" stroke="none" stroke-width="1"></path><path d="M0.21,2.63l0.18,0.37l0.05,-0.36l-0.23,-0.02z" fill="none" fill-rule="nonzero" stroke="none" stroke-width="1"></path><path d="M2.79,2.63l-0.18,0.37l-0.05,-0.36l0.23,-0.02z" fill="none" fill-rule="nonzero" stroke="none" stroke-width="1"></path><path d="M3,2.41v0.1l-0.14,0.04l-0.03,-0.01l-0.13,-0.22l0.01,-0.02h0.14z" fill="none" fill-rule="nonzero" stroke="none" stroke-width="1"></path><path d="M2.86,2.55l-0.03,-0.01l-0.13,-0.22l0.01,-0.02h0.14l0.15,0.11v0.1z" fill="none" fill-rule="nonzero" stroke="none" stroke-width="1"></path><path d="M0.14,2.55l0.03,-0.01l0.13,-0.22l-0.01,-0.02h-0.14l-0.15,0.11v0.1z" fill="none" fill-rule="nonzero" stroke="none" stroke-width="1"></path><path d="M2.86,2.55l-0.03,-0.01l-0.13,-0.22l0.01,-0.02h0.14l0.15,0.11v0.1z" fill="none" fill-rule="nonzero" stroke="none" stroke-width="1"></path><path d="M1.65,0.35l-0.14,0.1h-0.01v-0.45h0.21z" fill="none" fill-rule="nonzero" stroke="none" stroke-width="1"></path><path d="M1.65,0.35l-0.14,0.1l-0.01,0v-0.45h0.21z" fill="none" fill-rule="nonzero" stroke="none" stroke-width="1"></path><path d="M1.35,0.35l0.14,0.1l0.01,0v-0.45h-0.21z" fill="none" fill-rule="nonzero" stroke="none" stroke-width="1"></path><path d="M1.65,0.35l-0.14,0.1l-0.01,0v-0.45h0.21z" fill="none" fill-rule="nonzero" stroke="none" stroke-width="1"></path><path d="M1.65,0.35l-0.14,0.1l-0.02,0l-0.14,-0.1l-0.06,-0.35h0.42z" fill="none" fill-rule="nonzero" stroke="none" stroke-width="1"></path><path d="M2.16,2.69v0.31h-0.16l-0.08,-0.20711l0.12,-0.18289z" fill="none" fill-rule="nonzero" stroke="none" stroke-width="1"></path><path d="M2.16,2.69l0,0.31h-0.16l-0.08,-0.20711l0.12,-0.18289z" fill="none" fill-rule="nonzero" stroke="none" stroke-width="1"></path><path d="M0.84,2.69l0,0.31h0.16l0.08,-0.20711l-0.12,-0.18289z" fill="none" fill-rule="nonzero" stroke="none" stroke-width="1"></path><path d="M2.16,2.69l0,0.31h-0.16l-0.08,-0.20711l0.12,-0.18289z" fill="none" fill-rule="nonzero" stroke="none" stroke-width="1"></path><path d="M2.21,0.17l0.07,0.22v0.02l-0.2,-0.18l0.06,-0.07z" fill="none" fill-rule="nonzero" stroke="none" stroke-width="1"></path><path d="M2.21,0.17l0.07,0.22v0.02l-0.2,-0.18l0.06,-0.07z" fill="none" fill-rule="nonzero" stroke="none" stroke-width="1"></path><path d="M0.79,0.17l-0.07,0.22v0.02l0.2,-0.18l-0.06,-0.07z" fill="none" fill-rule="nonzero" stroke="none" stroke-width="1"></path><path d="M2.21,0.17l0.07,0.22v0.02l-0.2,-0.18l0.06,-0.07z" fill="none" fill-rule="nonzero" stroke="none" stroke-width="1"></path><path d="M1.83,2.04l0.03,0.09h-0.01v0.03l-0.01,0.03l-0.15,0.13l-0.19,0.09v-0.45z" fill="none" fill-rule="nonzero" stroke="none" stroke-width="1"></path><path d="M1.83,2.04l0.03,0.09h-0.01v0.03l-0.01,0.03l-0.15,0.13l-0.19,0.09v-0.45z" fill="none" fill-rule="nonzero" stroke="none" stroke-width="1"></path><path d="M1.17,2.04l-0.03,0.09h0.01v0.03l0.01,0.03l0.15,0.13l0.19,0.09v-0.45z" fill="none" fill-rule="nonzero" stroke="none" stroke-width="1"></path><path d="M1.83,2.04l0.03,0.09h-0.01v0.03l-0.01,0.03l-0.15,0.13l-0.19,0.09v-0.45z" fill="none" fill-rule="nonzero" stroke="none" stroke-width="1"></path><path d="M1.83,2.04l0.03,0.09h-0.01v0.03l-0.01,0.03l-0.15,0.13l-0.19,0.09l-0.19,-0.09l-0.15,-0.13l-0.01,-0.03v-0.03h-0.01l0.03,-0.09l0.33,-0.08z" fill="none" fill-rule="nonzero" stroke="none" stroke-width="1"></path><path d="M2.48,0.93l-0.14,0.09l-0.07,-0.22l0.04,-0.05z" fill="none" fill-rule="nonzero" stroke="none" stroke-width="1"></path><path d="M2.48,0.93l-0.14,0.09l-0.07,-0.22l0.04,-0.05z" fill="none" fill-rule="nonzero" stroke="none" stroke-width="1"></path><path d="M0.52,0.93l0.14,0.09l0.07,-0.22l-0.04,-0.05z" fill="none" fill-rule="nonzero" stroke="none" stroke-width="1"></path><path d="M2.48,0.93l-0.14,0.09l-0.07,-0.22l0.04,-0.05z" fill="none" fill-rule="nonzero" stroke="none" stroke-width="1"></path><path d="M2.29,2.44l0.02,0.04l-0.1,0.12l-0.15,-0.09l-0.13,-0.27z" fill="none" fill-rule="nonzero" stroke="none" stroke-width="1"></path><path d="M2.29,2.44l0.02,0.04l-0.1,0.12l-0.15,-0.09l-0.13,-0.27z" fill="none" fill-rule="nonzero" stroke="none" stroke-width="1"></path><path d="M0.71,2.44l-0.02,0.04l0.1,0.12l0.15,-0.09l0.13,-0.27z" fill="none" fill-rule="nonzero" stroke="none" stroke-width="1"></path><path d="M2.29,2.44l0.02,0.04l-0.1,0.12l-0.15,-0.09l-0.13,-0.27z" fill="none" fill-rule="nonzero" stroke="none" stroke-width="1"></path><path d="M2.06,0.9v0.03l-0.09,0.11l-0.05,-0.02l0.06,-0.14z" fill="none" fill-rule="nonzero" stroke="none" stroke-width="1"></path><path d="M2.06,0.9v0.03l-0.09,0.11l-0.05,-0.02l0.06,-0.14z" fill="none" fill-rule="nonzero" stroke="none" stroke-width="1"></path><path d="M0.94,0.9v0.03l0.09,0.11l0.05,-0.02l-0.06,-0.14z" fill="none" fill-rule="nonzero" stroke="none" stroke-width="1"></path><path d="M2.06,0.9v0.03l-0.09,0.11l-0.05,-0.02l0.06,-0.14z" fill="none" fill-rule="nonzero" stroke="none" stroke-width="1"></path><path d="M2.73,0.43l-0.29,-0.02l-0.03,-0.01l0.22,-0.23z" fill="none" fill-rule="nonzero" stroke="none" stroke-width="1"></path><path d="M2.73,0.43l-0.29,-0.02l-0.03,-0.01l0.22,-0.23z" fill="none" fill-rule="nonzero" stroke="none" stroke-width="1"></path><path d="M0.27,0.43l0.29,-0.02l0.03,-0.01l-0.22,-0.23z" fill="none" fill-rule="nonzero" stroke="none" stroke-width="1"></path><path d="M2.73,0.43l-0.29,-0.02l-0.03,-0.01l0.22,-0.23z" fill="none" fill-rule="nonzero" stroke="none" stroke-width="1"></path><path d="M2.15,1.06l-0.09,0.08l-0.02,-0.03l0.08,-0.08z" fill="none" fill-rule="nonzero" stroke="none" stroke-width="1"></path><path d="M2.15,1.06l-0.09,0.08l-0.02,-0.03l0.08,-0.08z" fill="none" fill-rule="nonzero" stroke="none" stroke-width="1"></path><path d="M0.85,1.06l0.09,0.08l0.02,-0.03l-0.08,-0.08z" fill="none" fill-rule="nonzero" stroke="none" stroke-width="1"></path><path d="M2.15,1.06l-0.09,0.08l-0.02,-0.03l0.08,-0.08z" fill="none" fill-rule="nonzero" stroke="none" stroke-width="1"></path><path d="M2.71,2.53l-0.19,0.01l-0.04,-0.04l0.15,-0.1z" fill="none" fill-rule="nonzero" stroke="none" stroke-width="1"></path><path d="M2.71,2.53l-0.19,0.01l-0.04,-0.04l0.15,-0.1z" fill="none" fill-rule="nonzero" stroke="none" stroke-width="1"></path><path d="M0.29,2.53l0.19,0.01l0.04,-0.04l-0.15,-0.1z" fill="none" fill-rule="nonzero" stroke="none" stroke-width="1"></path><path d="M2.71,2.53l-0.19,0.01l-0.04,-0.04l0.15,-0.1z" fill="none" fill-rule="nonzero" stroke="none" stroke-width="1"></path><path d="M1.95,1.14l0.01,0.04l-0.22,0.06l-0.14,-0.1l0.05,-0.02l0.2,-0.02z" fill="none" fill-rule="nonzero" stroke="none" stroke-width="1"></path><path d="M1.95,1.14l0.01,0.04l-0.22,0.06l-0.14,-0.1l0.05,-0.02l0.2,-0.02z" fill="none" fill-rule="nonzero" stroke="none" stroke-width="1"></path><path d="M1.05,1.14l-0.01,0.04l0.22,0.06l0.14,-0.1l-0.05,-0.02l-0.2,-0.02z" fill="none" fill-rule="nonzero" stroke="none" stroke-width="1"></path><path d="M1.95,1.14l0.01,0.04l-0.22,0.06l-0.14,-0.1l0.05,-0.02l0.2,-0.02z" fill="none" fill-rule="nonzero" stroke="none" stroke-width="1"></path><path d="M1.79,2.72l-0.29,-0.1v-0.1l0.18,-0.09z" fill="none" fill-rule="nonzero" stroke="none" stroke-width="1"></path><path d="M1.79,2.72l-0.29,-0.1v-0.1l0.18,-0.09z" fill="none" fill-rule="nonzero" stroke="none" stroke-width="1"></path><path d="M1.21,2.72l0.29,-0.1v-0.1l-0.18,-0.09z" fill="none" fill-rule="nonzero" stroke="none" stroke-width="1"></path><path d="M1.79,2.72l-0.29,-0.1v-0.1l0.18,-0.09z" fill="none" fill-rule="nonzero" stroke="none" stroke-width="1"></path><path d="M1.79,2.72l-0.29,-0.1l-0.29,0.1l0.11,-0.29l0.18,0.09l0.18,-0.09z" fill="none" fill-rule="nonzero" stroke="none" stroke-width="1"></path><path d="M2.59,1l0.32,0.25l-0.09,0.07l-0.31,0.03l-0.15,-0.05l0.01,-0.17l0.19,-0.14z" fill="none" fill-rule="nonzero" stroke="none" stroke-width="1"></path><path d="M2.59,1l0.32,0.25l-0.09,0.07l-0.31,0.03l-0.15,-0.05l0.01,-0.17l0.19,-0.14z" fill="none" fill-rule="nonzero" stroke="none" stroke-width="1"></path><path d="M0.41,1l-0.32,0.25l0.09,0.07l0.31,0.03l0.15,-0.05l-0.01,-0.17l-0.19,-0.14z" fill="none" fill-rule="nonzero" stroke="none" stroke-width="1"></path><path d="M2.59,1l0.32,0.25l-0.09,0.07l-0.31,0.03l-0.15,-0.05l0.01,-0.17l0.19,-0.14z" fill="none" fill-rule="nonzero" stroke="none" stroke-width="1"></path><path d="M2.41,0.51l0.21,0.25l-0.04,0.12h-0.01l-0.21,-0.22l-0.02,-0.16z" fill="none" fill-rule="nonzero" stroke="none" stroke-width="1"></path><path d="M2.41,0.51l0.21,0.25l-0.04,0.12h-0.01l-0.21,-0.22l-0.02,-0.16z" fill="none" fill-rule="nonzero" stroke="none" stroke-width="1"></path><path d="M0.59,0.51l-0.21,0.25l0.04,0.12h0.01l0.21,-0.22l0.02,-0.16z" fill="none" fill-rule="nonzero" stroke="none" stroke-width="1"></path><path d="M2.41,0.51l0.21,0.25l-0.04,0.12h-0.01l-0.21,-0.22l-0.02,-0.16z" fill="none" fill-rule="nonzero" stroke="none" stroke-width="1"></path><path d="M1.68,1.32l0.13,0.18l0.02,0.08l-0.33,-0.08v-0.31z" fill="none" fill-rule="nonzero" stroke="none" stroke-width="1"></path><path d="M1.68,1.32l0.13,0.18l0.02,0.08l-0.33,-0.08v-0.31z" fill="none" fill-rule="nonzero" stroke="none" stroke-width="1"></path><path d="M1.32,1.32l-0.13,0.18l-0.02,0.08l0.33,-0.08v-0.31z" fill="none" fill-rule="nonzero" stroke="none" stroke-width="1"></path><path d="M1.68,1.32l0.13,0.18l0.02,0.08l-0.33,-0.08v-0.31z" fill="none" fill-rule="nonzero" stroke="none" stroke-width="1"></path><path d="M1.68,1.32l0.13,0.18l0.02,0.08l-0.33,-0.08l-0.33,0.08l0.02,-0.08l0.13,-0.18l0.18,-0.13z" fill="none" fill-rule="nonzero" stroke="none" stroke-width="1"></path><path d="M2.77,1.88l-0.12,0.12l-0.12,-0.13091l0.18,-0.10909z" fill="none" fill-rule="nonzero" stroke="none" stroke-width="1"></path><path d="M2.77,1.88l-0.12,0.12l-0.12,-0.13091l0.18,-0.10909z" fill="none" fill-rule="nonzero" stroke="none" stroke-width="1"></path><path d="M0.23,1.88l0.12,0.12l0.12,-0.13091l-0.18,-0.10909z" fill="none" fill-rule="nonzero" stroke="none" stroke-width="1"></path><path d="M2.77,1.88l-0.12,0.12l-0.12,-0.13091l0.18,-0.10909z" fill="none" fill-rule="nonzero" stroke="none" stroke-width="1"></path><path d="M2.18,1.38l-0.14,0.29l-0.06,0.03l-0.05,-0.08l-0.02,-0.11l0.16,-0.19z" fill="none" fill-rule="nonzero" stroke="none" stroke-width="1"></path><path d="M2.18,1.38l-0.14,0.29l-0.06,0.03l-0.05,-0.08l-0.02,-0.11l0.16,-0.19z" fill="none" fill-rule="nonzero" stroke="none" stroke-width="1"></path><path d="M0.82,1.38l0.14,0.29l0.06,0.03l0.05,-0.08l0.02,-0.11l-0.16,-0.19z" fill="none" fill-rule="nonzero" stroke="none" stroke-width="1"></path><path d="M2.18,1.38l-0.14,0.29l-0.06,0.03l-0.05,-0.08l-0.02,-0.11l0.16,-0.19z" fill="none" fill-rule="nonzero" stroke="none" stroke-width="1"></path><path d="M1.99,0.28l0.18,0.16l-0.03,0.01l-0.25,-0.11l0.07,-0.07z" fill="none" fill-rule="nonzero" stroke="none" stroke-width="1"></path><path d="M1.99,0.28l0.18,0.16l-0.03,0.01l-0.25,-0.11l0.07,-0.07z" fill="none" fill-rule="nonzero" stroke="none" stroke-width="1"></path><path d="M1.01,0.28l-0.18,0.16l0.03,0.01l0.25,-0.11l-0.07,-0.07z" fill="none" fill-rule="nonzero" stroke="none" stroke-width="1"></path><path d="M1.99,0.28l0.18,0.16l-0.03,0.01l-0.25,-0.11l0.07,-0.07z" fill="none" fill-rule="nonzero" stroke="none" stroke-width="1"></path><path d="M2.6,0.06l-0.24,0.25l-0.06,-0.18l0.04,-0.13h0.28z" fill="none" fill-rule="nonzero" stroke="none" stroke-width="1"></path><path d="M2.6,0.06l-0.24,0.25l-0.06,-0.18l0.04,-0.13h0.28z" fill="none" fill-rule="nonzero" stroke="none" stroke-width="1"></path><path d="M0.4,0.06l0.24,0.25l0.06,-0.18l-0.04,-0.13h-0.28z" fill="none" fill-rule="nonzero" stroke="none" stroke-width="1"></path><path d="M2.6,0.06l-0.24,0.25l-0.06,-0.18l0.04,-0.13h0.28z" fill="none" fill-rule="nonzero" stroke="none" stroke-width="1"></path><path d="M2.87,1.98l-0.02,0.06l-0.11,0.02l0.09,-0.1z" fill="none" fill-rule="nonzero" stroke="none" stroke-width="1"></path><path d="M2.87,1.98l-0.02,0.06l-0.11,0.02l0.09,-0.1z" fill="none" fill-rule="nonzero" stroke="none" stroke-width="1"></path><path d="M0.13,1.98l0.02,0.06l0.11,0.02l-0.09,-0.1z" fill="none" fill-rule="nonzero" stroke="none" stroke-width="1"></path><path d="M2.87,1.98l-0.02,0.06l-0.11,0.02l0.09,-0.1z" fill="none" fill-rule="nonzero" stroke="none" stroke-width="1"></path><path d="M2.83,2.2h-0.13l-0.01,-0.01l0.01,-0.02l0.14,-0.02z" fill="none" fill-rule="nonzero" stroke="none" stroke-width="1"></path><path d="M2.83,2.2h-0.13l-0.01,-0.01l0.01,-0.02l0.14,-0.02z" fill="none" fill-rule="nonzero" stroke="none" stroke-width="1"></path><path d="M0.17,2.2h0.13l0.01,-0.01l-0.01,-0.02l-0.14,-0.02z" fill="none" fill-rule="nonzero" stroke="none" stroke-width="1"></path><path d="M2.83,2.2h-0.13l-0.01,-0.01l0.01,-0.02l0.14,-0.02z" fill="none" fill-rule="nonzero" stroke="none" stroke-width="1"></path><path d="M3,3h-0.27l0.16,-0.35l0.11,-0.04z" fill="none" fill-rule="nonzero" stroke="none" stroke-width="1"></path><path d="M2.89,2.65l0.11,-0.04v0.39h-0.27z" fill="none" fill-rule="nonzero" stroke="none" stroke-width="1"></path><path d="M0.11,2.65l-0.11,-0.04v0.39h0.27z" fill="none" fill-rule="nonzero" stroke="none" stroke-width="1"></path><path d="M2.89,2.65l0.11,-0.04v0.39h-0.27z" fill="none" fill-rule="nonzero" stroke="none" stroke-width="1"></path><path d="M2.61,2.25l0.01,0.01l-0.01,0.04l-0.21,0.13l-0.02,-0.03l0.07,-0.18z" fill="none" fill-rule="nonzero" stroke="none" stroke-width="1"></path><path d="M2.61,2.25l0.01,0.01l-0.01,0.04l-0.21,0.13l-0.02,-0.03l0.07,-0.18z" fill="none" fill-rule="nonzero" stroke="none" stroke-width="1"></path><path d="M0.39,2.25l-0.01,0.01l0.01,0.04l0.21,0.13l0.02,-0.03l-0.07,-0.18z" fill="none" fill-rule="nonzero" stroke="none" stroke-width="1"></path><path d="M2.61,2.25l0.01,0.01l-0.01,0.04l-0.21,0.13l-0.02,-0.03l0.07,-0.18z" fill="none" fill-rule="nonzero" stroke="none" stroke-width="1"></path><path d="M2.26,0.65l-0.09,0.1l-0.07,0.06l-0.13,-0.04l-0.05,-0.06l0.23,-0.16l0.1,-0.02z" fill="none" fill-rule="nonzero" stroke="none" stroke-width="1"></path><path d="M2.26,0.65l-0.09,0.1l-0.07,0.06l-0.13,-0.04l-0.05,-0.06l0.23,-0.16l0.1,-0.02z" fill="none" fill-rule="nonzero" stroke="none" stroke-width="1"></path><path d="M0.74,0.65l0.09,0.1l0.07,0.06l0.13,-0.04l0.05,-0.06l-0.23,-0.16l-0.1,-0.02z" fill="none" fill-rule="nonzero" stroke="none" stroke-width="1"></path><path d="M2.26,0.65l-0.09,0.1l-0.07,0.06l-0.13,-0.04l-0.05,-0.06l0.23,-0.16l0.1,-0.02z" fill="none" fill-rule="nonzero" stroke="none" stroke-width="1"></path><path d="M1.85,1.69l0.05,0.08l-0.06,0.17l-0.34,-0.08v-0.26z" fill="none" fill-rule="nonzero" stroke="none" stroke-width="1"></path><path d="M1.85,1.69l0.05,0.08l-0.06,0.17l-0.34,-0.08v-0.26z" fill="none" fill-rule="nonzero" stroke="none" stroke-width="1"></path><path d="M1.15,1.69l-0.05,0.08l0.06,0.17l0.34,-0.08v-0.26z" fill="none" fill-rule="nonzero" stroke="none" stroke-width="1"></path><path d="M1.85,1.69l0.05,0.08l-0.06,0.17l-0.34,-0.08v-0.26z" fill="none" fill-rule="nonzero" stroke="none" stroke-width="1"></path><path d="M1.85,1.69l0.05,0.08l-0.06,0.17l-0.34,-0.08l-0.34,0.08l-0.06,-0.17l0.05,-0.08l0.35,-0.09z" fill="none" fill-rule="nonzero" stroke="none" stroke-width="1"></path><path d="M3,2.1l-0.06,-0.01l0.04,-0.08h0.02z" fill="none" fill-rule="nonzero" stroke="none" stroke-width="1"></path><path d="M2.94,2.09l0.04,-0.08h0.02v0.09z" fill="none" fill-rule="nonzero" stroke="none" stroke-width="1"></path><path d="M0.06,2.09l-0.04,-0.08h-0.02v0.09z" fill="none" fill-rule="nonzero" stroke="none" stroke-width="1"></path><path d="M2.94,2.09l0.04,-0.08h0.02v0.09z" fill="none" fill-rule="nonzero" stroke="none" stroke-width="1"></path><path d="M1.8,0.72l-0.2,0.31l-0.1,0.04v-0.51l0.03,-0.01z" fill="none" fill-rule="nonzero" stroke="none" stroke-width="1"></path><path d="M1.8,0.72l-0.2,0.31l-0.1,0.04v-0.51l0.03,-0.01z" fill="none" fill-rule="nonzero" stroke="none" stroke-width="1"></path><path d="M1.2,0.72l0.2,0.31l0.1,0.04l0,-0.51l-0.03,-0.01z" fill="none" fill-rule="nonzero" stroke="none" stroke-width="1"></path><path d="M1.8,0.72l-0.2,0.31l-0.1,0.04v-0.51l0.03,-0.01z" fill="none" fill-rule="nonzero" stroke="none" stroke-width="1"></path><path d="M1.8,0.72l-0.2,0.31l-0.1,0.04l-0.1,-0.04l-0.2,-0.31l0.27,-0.17l0.03,0.01l0.03,-0.01z" fill="none" fill-rule="nonzero" stroke="none" stroke-width="1"></path><path d="M1.9,0.83l-0.08,0.17l-0.09,0.01l0.14,-0.21z" fill="none" fill-rule="nonzero" stroke="none" stroke-width="1"></path><path d="M1.9,0.83l-0.08,0.17l-0.09,0.01l0.14,-0.21z" fill="none" fill-rule="nonzero" stroke="none" stroke-width="1"></path><path d="M1.1,0.83l0.08,0.17l0.09,0.01l-0.14,-0.21z" fill="none" fill-rule="nonzero" stroke="none" stroke-width="1"></path><path d="M1.9,0.83l-0.08,0.17l-0.09,0.01l0.14,-0.21z" fill="none" fill-rule="nonzero" stroke="none" stroke-width="1"></path><path d="M2.61,2.1v0.01l-0.01,0.03l-0.14,-0.02l-0.05,-0.05124l0.06,-0.11876z" fill="none" fill-rule="nonzero" stroke="none" stroke-width="1"></path><path d="M2.61,2.1v0.01l-0.01,0.03l-0.14,-0.02l-0.05,-0.05124l0.06,-0.11876z" fill="none" fill-rule="nonzero" stroke="none" stroke-width="1"></path><path d="M0.39,2.1v0.01l0.01,0.03l0.14,-0.02l0.05,-0.05124l-0.06,-0.11876z" fill="none" fill-rule="nonzero" stroke="none" stroke-width="1"></path><path d="M2.61,2.1v0.01l-0.01,0.03l-0.14,-0.02l-0.05,-0.05124l0.06,-0.11876z" fill="none" fill-rule="nonzero" stroke="none" stroke-width="1"></path><path d="M2.7,1.65l-0.25,0.14l-0.06,-0.05l0.14,-0.29l0.24,-0.02z" fill="none" fill-rule="nonzero" stroke="none" stroke-width="1"></path><path d="M2.7,1.65l-0.25,0.14l-0.06,-0.05l0.14,-0.29l0.24,-0.02z" fill="none" fill-rule="nonzero" stroke="none" stroke-width="1"></path><path d="M0.3,1.65l0.25,0.14l0.06,-0.05l-0.14,-0.29l-0.24,-0.02z" fill="none" fill-rule="nonzero" stroke="none" stroke-width="1"></path><path d="M2.7,1.65l-0.25,0.14l-0.06,-0.05l0.14,-0.29l0.24,-0.02z" fill="none" fill-rule="nonzero" stroke="none" stroke-width="1"></path><path d="M2.03,0.51l-0.18,0.12l-0.22,-0.14l0.09,-0.06l0.09,-0.02z" fill="none" fill-rule="nonzero" stroke="none" stroke-width="1"></path><path d="M2.03,0.51l-0.18,0.12l-0.22,-0.14l0.09,-0.06l0.09,-0.02z" fill="none" fill-rule="nonzero" stroke="none" stroke-width="1"></path><path d="M0.97,0.51l0.18,0.12l0.22,-0.14l-0.09,-0.06l-0.09,-0.02z" fill="none" fill-rule="nonzero" stroke="none" stroke-width="1"></path><path d="M2.03,0.51l-0.18,0.12l-0.22,-0.14l0.09,-0.06l0.09,-0.02z" fill="none" fill-rule="nonzero" stroke="none" stroke-width="1"></path><path d="M2.31,1.8l0.09,0.07l-0.08,0.15l-0.38,0.06l-0.02,-0.08167l0.07,-0.19833l0.09,-0.04z" fill="none" fill-rule="nonzero" stroke="none" stroke-width="1"></path><path d="M2.31,1.8l0.09,0.07l-0.08,0.15l-0.38,0.06l-0.02,-0.08167l0.07,-0.19833l0.09,-0.04z" fill="none" fill-rule="nonzero" stroke="none" stroke-width="1"></path><path d="M0.69,1.8l-0.09,0.07l0.08,0.15l0.38,0.06l0.02,-0.08167l-0.07,-0.19833l-0.09,-0.04z" fill="none" fill-rule="nonzero" stroke="none" stroke-width="1"></path><path d="M2.31,1.8l0.09,0.07l-0.08,0.15l-0.38,0.06l-0.02,-0.08167l0.07,-0.19833l0.09,-0.04z" fill="none" fill-rule="nonzero" stroke="none" stroke-width="1"></path><path d="M1.96,2.53l-0.09,0.14l-0.1,-0.29l0.09,-0.07z" fill="none" fill-rule="nonzero" stroke="none" stroke-width="1"></path><path d="M1.96,2.53l-0.09,0.14l-0.1,-0.29l0.09,-0.07z" fill="none" fill-rule="nonzero" stroke="none" stroke-width="1"></path><path d="M1.04,2.53l0.09,0.14l0.1,-0.29l-0.09,-0.07z" fill="none" fill-rule="nonzero" stroke="none" stroke-width="1"></path><path d="M1.96,2.53l-0.09,0.14l-0.1,-0.29l0.09,-0.07z" fill="none" fill-rule="nonzero" stroke="none" stroke-width="1"></path><path d="M3,0.45h-0.16l-0.14,-0.3667l0.04,-0.0833h0.26z" fill="none" fill-rule="nonzero" stroke="none" stroke-width="1"></path><path d="M2.84,0.45l-0.14,-0.3667l0.04,-0.0833h0.26v0.45z" fill="none" fill-rule="nonzero" stroke="none" stroke-width="1"></path><path d="M0.16,0.45l0.14,-0.3667l-0.04,-0.0833h-0.26v0.45z" fill="none" fill-rule="nonzero" stroke="none" stroke-width="1"></path><path d="M2.84,0.45l-0.14,-0.3667l0.04,-0.0833h0.26v0.45z" fill="none" fill-rule="nonzero" stroke="none" stroke-width="1"></path><path d="M1.89,0.19l-0.11,0.12l-0.02,0.01l0.05,-0.32h0.05z" fill="none" fill-rule="nonzero" stroke="none" stroke-width="1"></path><path d="M1.89,0.19l-0.11,0.12l-0.02,0.01l0.05,-0.32h0.05z" fill="none" fill-rule="nonzero" stroke="none" stroke-width="1"></path><path d="M1.11,0.19l0.11,0.12l0.02,0.01l-0.05,-0.32l-0.05,0z" fill="none" fill-rule="nonzero" stroke="none" stroke-width="1"></path><path d="M1.89,0.19l-0.11,0.12l-0.02,0.01l0.05,-0.32h0.05z" fill="none" fill-rule="nonzero" stroke="none" stroke-width="1"></path><path d="M2.23,1l-0.07,-0.07v-0.05l0.02,-0.01487z" fill="none" fill-rule="nonzero" stroke="none" stroke-width="1"></path><path d="M2.23,1l-0.07,-0.07v-0.05l0.02,-0.01487z" fill="none" fill-rule="nonzero" stroke="none" stroke-width="1"></path><path d="M0.77,1l0.07,-0.07v-0.05l-0.02,-0.01487z" fill="none" fill-rule="nonzero" stroke="none" stroke-width="1"></path><path d="M2.23,1l-0.07,-0.07v-0.05l0.02,-0.01487z" fill="none" fill-rule="nonzero" stroke="none" stroke-width="1"></path><path d="M2.37,2.18l-0.07,0.15l-0.29,-0.1622l0.32,-0.0478z" fill="none" fill-rule="nonzero" stroke="none" stroke-width="1"></path><path d="M2.37,2.18l-0.07,0.15l-0.29,-0.1622l0.32,-0.0478z" fill="none" fill-rule="nonzero" stroke="none" stroke-width="1"></path><path d="M0.63,2.18l0.07,0.15l0.29,-0.1622l-0.32,-0.0478z" fill="none" fill-rule="nonzero" stroke="none" stroke-width="1"></path><path d="M2.37,2.18l-0.07,0.15l-0.29,-0.1622l0.32,-0.0478z" fill="none" fill-rule="nonzero" stroke="none" stroke-width="1"></path><path d="M1.86,1.41l-0.06,-0.09l0.18,-0.04zM2.67,0.93l0.06,-0.17l0.13,-0.21h0.14v0.66zM2.42,1.43l-0.12,0.26l-0.15,-0.02l0.13,-0.27l0.03,-0.01zM2.75,0.54l-0.07,0.12l-0.12,-0.14zM2.21,0.08l-0.07,-0.02l-0.08,-0.06h0.18zM1.83,2.83l0.06,0.17l-0.78,0l0.06,-0.17l0.33,-0.11zM2.05,0.11l-0.05,0.07l-0.01,-0.01l-0.02,-0.12zM2.45,2.61l0.07,0.39h-0.26v-0.31l0.13,-0.14zM2.92,2.23l0.01,-0.04l0.07,0.01v0.09zM2.27,1.13l-0.01,0.17l-0.02,0.01l-0.14,-0.08l0.14,-0.11zM2.95,1.91l-0.09,-0.05l-0.07,-0.18l0.1,-0.29l0.1,-0.08l0.01,0v0.6zM2.79,2.63l-0.18,0.37l-0.05,-0.36l0.23,-0.02zM2.86,2.55l-0.03,-0.01l-0.13,-0.22l0.01,-0.02h0.14l0.15,0.11v0.1zM1.65,0.35l-0.14,0.1l-0.02,0l-0.14,-0.1l-0.06,-0.35h0.42zM2.16,2.69v0.31h-0.16l-0.08,-0.20711l0.12,-0.18289zM2.21,0.17l0.07,0.22v0.02l-0.2,-0.18l0.06,-0.07zM1.83,2.04l0.03,0.09h-0.01v0.03l-0.01,0.03l-0.15,0.13l-0.19,0.09l-0.19,-0.09l-0.15,-0.13l-0.01,-0.03v-0.03h-0.01l0.03,-0.09l0.33,-0.08zM2.48,0.93l-0.14,0.09l-0.07,-0.22l0.04,-0.05zM2.29,2.44l0.02,0.04l-0.1,0.12l-0.15,-0.09l-0.13,-0.27zM2.06,0.9v0.03l-0.09,0.11l-0.05,-0.02l0.06,-0.14zM2.73,0.43l-0.29,-0.02l-0.03,-0.01l0.22,-0.23zM2.15,1.06l-0.09,0.08l-0.02,-0.03l0.08,-0.08zM2.71,2.53l-0.19,0.01l-0.04,-0.04l0.15,-0.1zM1.95,1.14l0.01,0.04l-0.22,0.06l-0.14,-0.1l0.05,-0.02l0.2,-0.02zM1.79,2.72l-0.29,-0.1l-0.29,0.1l0.11,-0.29l0.18,0.09l0.18,-0.09zM2.59,1l0.32,0.25l-0.09,0.07l-0.31,0.03l-0.15,-0.05l0.01,-0.17l0.19,-0.14zM2.41,0.51l0.21,0.25l-0.04,0.12h-0.01l-0.21,-0.22l-0.02,-0.16zM1.68,1.32l0.13,0.18l0.02,0.08l-0.33,-0.08l-0.33,0.08l0.02,-0.08l0.13,-0.18l0.18,-0.13zM2.77,1.88l-0.12,0.12l-0.12,-0.13091l0.18,-0.10909zM2.18,1.38l-0.14,0.29l-0.06,0.03l-0.05,-0.08l-0.02,-0.11l0.16,-0.19zM1.99,0.28l0.18,0.16l-0.03,0.01l-0.25,-0.11l0.07,-0.07zM2.6,0.06l-0.24,0.25l-0.06,-0.18l0.04,-0.13h0.28zM2.87,1.98l-0.02,0.06l-0.11,0.02l0.09,-0.1zM2.83,2.2h-0.13l-0.01,-0.01l0.01,-0.02l0.14,-0.02zM2.89,2.65l0.11,-0.04v0.39h-0.27zM2.61,2.25l0.01,0.01l-0.01,0.04l-0.21,0.13l-0.02,-0.03l0.07,-0.18zM2.26,0.65l-0.09,0.1l-0.07,0.06l-0.13,-0.04l-0.05,-0.06l0.23,-0.16l0.1,-0.02zM1.85,1.69l0.05,0.08l-0.06,0.17l-0.34,-0.08l-0.34,0.08l-0.06,-0.17l0.05,-0.08l0.35,-0.09zM2.94,2.09l0.04,-0.08h0.02v0.09zM1.8,0.72l-0.2,0.31l-0.1,0.04l-0.1,-0.04l-0.2,-0.31l0.27,-0.17l0.03,0.01l0.03,-0.01zM1.9,0.83l-0.08,0.17l-0.09,0.01l0.14,-0.21zM2.61,2.1v0.01l-0.01,0.03l-0.14,-0.02l-0.05,-0.05124l0.06,-0.11876zM2.7,1.65l-0.25,0.14l-0.06,-0.05l0.14,-0.29l0.24,-0.02zM2.03,0.51l-0.18,0.12l-0.22,-0.14l0.09,-0.06l0.09,-0.02zM2.31,1.8l0.09,0.07l-0.08,0.15l-0.38,0.06l-0.02,-0.08167l0.07,-0.19833l0.09,-0.04zM1.96,2.53l-0.09,0.14l-0.1,-0.29l0.09,-0.07zM2.84,0.45l-0.14,-0.3667l0.04,-0.0833h0.26v0.45zM1.89,0.19l-0.11,0.12l-0.02,0.01l0.05,-0.32h0.05zM2.23,1l-0.07,-0.07v-0.05l0.02,-0.01487zM2.37,2.18l-0.07,0.15l-0.29,-0.1622l0.32,-0.0478zM1.02,1.28l0.18,0.04l-0.06,0.09zM0.14,0.55l0.13,0.21l0.06,0.17l-0.33,0.28v-0.66zM0.69,1.39l0.03,0.01l0.13,0.27l-0.15,0.02l-0.12,-0.26zM0.44,0.52l-0.12,0.14l-0.07,-0.12zM0.86,0.06l-0.07,0.02l-0.03,-0.08l0.18,0zM1.03,0.05l-0.02,0.12l-0.01,0.01l-0.05,-0.07zM0.61,2.55l0.13,0.14v0.31l-0.26,0l0.07,-0.39zM0.07,2.19l0.01,0.04l-0.08,0.06l0,-0.09zM0.76,1.12l0.14,0.11l-0.14,0.08l-0.02,-0.01l-0.01,-0.17zM0.01,1.31l0.1,0.08l0.1,0.29l-0.07,0.18l-0.09,0.05l-0.05,0v-0.6zM0.21,2.62l0.23,0.02l-0.05,0.36l-0.18,-0.37zM0.15,2.3h0.14l0.01,0.02l-0.13,0.22l-0.03,0.01l-0.14,-0.04l0,-0.1zM0.96,2.61l0.12,0.18289l-0.08,0.20711l-0.16,0l0,-0.31zM0.86,0.16l0.06,0.07l-0.2,0.18v-0.02l0.07,-0.22zM0.69,0.75l0.04,0.05l-0.07,0.22l-0.14,-0.09zM1.07,2.24l-0.13,0.27l-0.15,0.09l-0.1,-0.12l0.02,-0.04zM1.02,0.88l0.06,0.14l-0.05,0.02l-0.09,-0.11v-0.03zM0.37,0.17l0.22,0.23l-0.03,0.01l-0.29,0.02zM0.88,1.03l0.08,0.08l-0.02,0.03l-0.09,-0.08zM0.37,2.4l0.15,0.1l-0.04,0.04l-0.19,-0.01zM1.15,1.1l0.2,0.02l0.05,0.02l-0.14,0.1l-0.22,-0.06l0.01,-0.04zM0.44,0.99l0.19,0.14l0.01,0.17l-0.15,0.05l-0.31,-0.03l-0.09,-0.07l0.32,-0.25zM0.66,0.5l-0.02,0.16l-0.21,0.22h-0.01l-0.04,-0.12l0.21,-0.25zM0.29,1.76l0.18,0.10909l-0.12,0.13091l-0.12,-0.12zM0.93,1.32l0.16,0.19l-0.02,0.11l-0.05,0.08l-0.06,-0.03l-0.14,-0.29zM1.04,0.27l0.07,0.07l-0.25,0.11l-0.03,-0.01l0.18,-0.16zM0.7,0.13l-0.06,0.18l-0.24,-0.25l-0.02,-0.06l0.28,0zM0.17,1.96l0.09,0.1l-0.11,-0.02l-0.02,-0.06zM0.16,2.15l0.14,0.02l0.01,0.02l-0.01,0.01h-0.13zM0.11,2.65l0.16,0.35l-0.27,0v-0.39zM0.55,2.22l0.07,0.18l-0.02,0.03l-0.21,-0.13l-0.01,-0.04l0.01,-0.01zM0.75,0.53l0.1,0.02l0.23,0.16l-0.05,0.06l-0.13,0.04l-0.07,-0.06l-0.09,-0.1zM0.02,2.01l0.04,0.08l-0.06,0.01l0,-0.09zM1.13,0.8l0.14,0.21l-0.09,-0.01l-0.08,-0.17zM0.53,1.95l0.06,0.11876l-0.05,0.05124l-0.14,0.02l-0.01,-0.03v-0.01zM0.23,1.43l0.24,0.02l0.14,0.29l-0.06,0.05l-0.25,-0.14zM1.19,0.41l0.09,0.02l0.09,0.06l-0.22,0.14l-0.18,-0.12zM0.92,1.76l0.09,0.04l0.07,0.19833l-0.02,0.08167l-0.38,-0.06l-0.08,-0.15l0.09,-0.07zM1.14,2.31l0.09,0.07l-0.1,0.29l-0.09,-0.14zM0.3,0.0833l-0.14,0.3667l-0.16,0v-0.45h0.26zM1.24,0.32l-0.02,-0.01l-0.11,-0.12l0.03,-0.19h0.05zM0.82,0.86513l0.02,0.01487v0.05l-0.07,0.07zM0.67,2.12l0.32,0.0478l-0.29,0.1622l-0.07,-0.15z" fill="#d3d3d3" fill-rule="evenodd" stroke="#ff0000" stroke-width="0.005"></path></g></svg>