<svg version="1.1" xmlns="http://www.w3.org/2000/svg" xmlns:xlink="http://www.w3.org/1999/xlink" width="3in" height="3in" viewBox="0 0 3.05 3.05"><g fill="#d3d3d3" fill-rule="evenodd" stroke="#ff0000" stroke-width="0.005" stroke-linecap="butt" stroke-linejoin="miter" stroke-miterlimit="10" stroke-dasharray="" stroke-dashoffset="0" font-family="none" font-weight="none" font-size="none" text-anchor="none" style="mix-blend-mode: normal"><path d="M0,3v-3h3v3zM1.81,1.41l-0.04,-0.06l0.12,-0.03zM2.73,0.81l-0.2,0.23l-0.02,-0.02l0.04,-0.14l0.08,-0.13zM2.28,1.44l-0.11,0.22l-0.11,-0.02l0.11,-0.22l0.01,-0.0037zM2.55,0.69l-0.06,0.09l-0.08,-0.1001zM2.1,0.28l-0.04,-0.01l0.02,-0.04h0.04zM1.75,2.63l-0.07,0.1l-0.14,-0.14l0.04,-0.02zM1.95,0.33l-0.03,0.04h-0.01l-0.01,-0.06zM2.31,2.46l0.02,0.14l-0.18,-0.01l0.01,-0.09l0.09,-0.1zM2.15,1.19l-0.01,0.14l-0.11,-0.06l0.1,-0.08zM2.73,1.61l-0.03,0.21l-0.04,-0.02l-0.06,-0.15l0.02,-0.05zM2.56,2.52l-0.03,0.07l-0.08,0.05l-0.01,-0.01l-0.03,-0.15l0.16,-0.02zM2.72,2.32l-0.09,0.04l-0.1,-0.17h0.1zM1.65,0.34l-0.01,0.08l-0.1,-0.09zM2.06,2.52l-0.01,0.1l-0.18,-0.04l0.08,-0.13zM2.1,0.38l0.05,0.18l-0.15,-0.14l0.04,-0.05zM1.78,2.08l-0.11,0.1h-0.34l-0.11,-0.1l-0.01,-0.01l0.29,0.02l0.29,-0.02zM2.32,1.01l-0.1,0.07l-0.06,-0.18l0.03,-0.02zM2.17,2.3l0.01,0.02l-0.08,0.11l-0.12,-0.08l-0.1,-0.21zM1.97,1v0.01l-0.07,0.09l-0.03,-0.01l0.04,-0.11zM2.53,0.59l-0.23,-0.02l-0.03,-0.00103l0.15,-0.14897l0.05,-0.02zM2.04,1.12955l-0.06,0.05045l-0.01,-0.01l0.05,-0.06zM2.51,2.37l-0.14,0.01l-0.03,-0.03l0.12,-0.07zM1.87,1.2l0.01,0.02l-0.17,0.05v-0.1l0.08,-0.01zM1.73,2.52l-0.1,-0.03l0.05,-0.11zM2.43,1.08l0.08,0.07l0.01,0.04l-0.05,0.16l-0.12,0.02l-0.11,-0.04l0.01,-0.15l0.15,-0.11zM2.27,0.67l0.18,0.2l-0.03,0.1l-0.18,-0.18l-0.02,-0.13zM1.76,1.51l0.01,0.05l-0.17,-0.05l-0.07,-0.06l0.13,-0.08zM2.57,1.83l-0.09,0.08l-0.1,-0.1l0.14,-0.08zM2.07,1.41l-0.12,0.23l-0.04,0.02l-0.03,-0.04l-0.02,-0.11l0.13,-0.15zM1.91,0.47l0.13,0.12l-0.19,-0.08l0.04,-0.05zM2.34,0.36l-0.11,0.11l-0.05,-0.13l0.04,-0.11h0.03zM2.66,1.92l-0.01,0.03l-0.08,0.02l0.06,-0.07zM2.62,2.09h-0.09l-0.01,-0.01l0.01,-0.01l0.1,-0.01zM2.63,2.6l0.01,-0.01l0.135,0.03857v0.0681zM2.44,2.15l-0.01,0.02l-0.17,0.11v-0.01252l0.06,-0.13748zM2.14,0.78l-0.07,0.08l-0.06,0.05l-0.1,-0.03l-0.04,-0.05l0.19,-0.13l0.07,-0.01zM1.8,1.68l0.03,0.04l-0.04,0.13l-0.25,-0.07l0.07,-0.16zM2.74,2l0.02,-0.06l0.015,0l0,0.06zM1.75,0.84l-0.13,0.2l-0.02,-0.01l0.07,-0.24zM1.83,0.93l-0.06,0.13l-0.06,0.01l0.1,-0.15zM2.43,2v0.03h0.01l-0.01,0.01l-0.11,-0.02l-0.03,-0.04l0.04,-0.08zM2.53,1.54627l-0.03,0.08373l-0.19,0.11l-0.04,-0.03l0.11,-0.24l0.09,-0.02zM1.94,0.66l-0.14,0.09l-0.13,-0.08l0.05,-0.08l0.04,-0.01zM2.18,1.77l0.07,0.05l-0.06,0.11l-0.31,0.05l-0.02,-0.06l0.06,-0.15l0.07,-0.04zM1.88,2.38475l-0.06,0.09525l-0.09,-0.23l0.07,-0.05zM2.73,0.42l-0.11,0.1l-0.07,-0.16l0.04,-0.04zM1.82,0.4l-0.07,0.08l-0.02,0.01l0.03,-0.18l0.04,-0.04zM2.1,1.05l-0.03,-0.03v-0.04h0.01zM2.23,2.08l-0.05,0.11l-0.22,-0.12l0.24,-0.03437zM1.5,2.7l0.08438,0.075h-0.16875zM1.53,2.48l-0.03,0.02l-0.03,-0.02l-0.09,-0.2h0.24zM1.78,1.95v0.02l-0.28,0.02l-0.28,-0.02v-0.02l0.28,-0.07zM1.53,1.58l-0.03,0.05l-0.03,-0.05l0.03,-0.03zM1.61,1.15v0.12l-0.11,0.07l-0.11,-0.07v-0.12l0.09,-0.05l0.04,0zM1.51,1h-0.02l-0.07,-0.28l0.16,0zM1.63,0.55l-0.04,0.07l-0.18,0l-0.04,-0.07l0.13,-0.12zM1.68,0.25l-0.14,-0.02h0.16zM2.53,0.24l-0.06,0.06l-0.05,0.01l-0.06,-0.08h0.17zM2.64,0.23h0.135l0,0.10607zM2.66,0.65l-0.01,-0.02l0.125,-0.11538l0,0.21205zM2.61,1.13l-0.01,-0.01l0.175,-0.21389l0,0.22389zM2.62,1.5l-0.06,-0.11l0.05,-0.16l0.165,0l0,0.27969zM2.74,2.16l0.035,-0.00875l0,0.07zM2.66,2.49l0.01,-0.03l0.105,-0.06682l0,0.12557zM2.51,2.72l0.06,-0.04l0.152,0.095l-0.212,0zM2.37,2.7l0.04,0.03l0,0.045l-0.29,0v-0.07816l0.01,-0.00684zM2.02,2.72l0,0.055l-0.2465,0l0.0665,-0.095zM1.11,1.32l0.12,0.03l-0.04,0.06zM0.37,0.75l0.08,0.13l0.04,0.14l-0.02,0.02l-0.2,-0.23zM0.82,1.4163l0.01,0.0037l0.11,0.22l-0.11,0.02l-0.11,-0.22zM0.59,0.6799l-0.08,0.1001l-0.06,-0.09zM0.88,0.23h0.04l0.02,0.04l-0.04,0.01zM1.42,2.57l0.04,0.02l-0.14,0.14l-0.07,-0.1zM1.1,0.31l-0.01,0.06h-0.01l-0.03,-0.04zM0.75,2.4l0.09,0.1l0.01,0.09l-0.18,0.01l0.02,-0.14zM0.87,1.19l0.1,0.08l-0.11,0.06l-0.01,-0.14zM0.38,1.6l0.02,0.05l-0.06,0.15l-0.04,0.02l-0.03,-0.21zM0.43,2.46l0.16,0.02l-0.03,0.15l-0.01,0.01l-0.08,-0.05l-0.03,-0.07zM0.37,2.19h0.1l-0.1,0.17l-0.09,-0.04zM1.46,0.33l-0.1,0.09l-0.01,-0.08zM1.05,2.45l0.08,0.13l-0.18,0.04l-0.01,-0.1zM0.96,0.37l0.04,0.05l-0.15,0.14l0.05,-0.18zM0.81,0.88l0.03,0.02l-0.06,0.18l-0.1,-0.07zM1.12,2.14l-0.1,0.21l-0.12,0.08l-0.08,-0.11l0.01,-0.02zM1.09,0.98l0.04,0.11l-0.03,0.01l-0.07,-0.09v-0.01zM0.53,0.4l0.05,0.02l0.15,0.14897l-0.03,0.00103l-0.23,0.02zM0.98,1.11l0.05,0.06l-0.01,0.01l-0.06,-0.05045zM0.54,2.28l0.12,0.07l-0.03,0.03l-0.14,-0.01zM1.21,1.16l0.08,0.01v0.1l-0.17,-0.05l0.01,-0.02zM1.32,2.38l0.05,0.11l-0.1,0.03zM0.6,1.07l0.15,0.11l0.01,0.15l-0.11,0.04l-0.12,-0.02l-0.05,-0.16l0.01,-0.04l0.08,-0.07zM0.78,0.66l-0.02,0.13l-0.18,0.18l-0.03,-0.1l0.18,-0.2zM1.34,1.37l0.13,0.08l-0.07,0.06l-0.17,0.05l0.01,-0.05zM0.48,1.73l0.14,0.08l-0.1,0.1l-0.09,-0.08zM1.01,1.36l0.13,0.15l-0.02,0.11l-0.03,0.04l-0.04,-0.02l-0.12,-0.23zM1.11,0.46l0.04,0.05l-0.19,0.08l0.13,-0.12zM0.75,0.23h0.03l0.04,0.11l-0.05,0.13l-0.11,-0.11zM0.37,1.9l0.06,0.07l-0.08,-0.02l-0.01,-0.03zM0.37,2.06l0.1,0.01l0.01,0.01l-0.01,0.01h-0.09zM0.36,2.59l0.01,0.01l-0.145,0.09667l0,-0.0681zM0.68,2.13l0.06,0.13748v0.01252l-0.17,-0.11l-0.01,-0.02zM0.87,0.69l0.07,0.01l0.19,0.13l-0.04,0.05l-0.1,0.03l-0.06,-0.05l-0.07,-0.08zM1.39,1.62l0.07,0.16l-0.25,0.07l-0.04,-0.13l0.03,-0.04zM0.24,1.94l0.02,0.06l-0.035,0l0,-0.06zM1.33,0.79l0.07,0.24l-0.02,0.01l-0.13,-0.2zM1.19,0.92l0.1,0.15l-0.06,-0.01l-0.06,-0.13zM0.67,1.9l0.04,0.08l-0.03,0.04l-0.11,0.02l-0.01,-0.01h0.01v-0.03zM0.53,1.45l0.09,0.02l0.11,0.24l-0.04,0.03l-0.19,-0.11l-0.03,-0.08373zM1.24,0.58l0.04,0.01l0.05,0.08l-0.13,0.08l-0.14,-0.09zM1.01,1.73l0.07,0.04l0.06,0.15l-0.02,0.06l-0.31,-0.05l-0.06,-0.11l0.07,-0.05zM1.2,2.2l0.07,0.05l-0.09,0.23l-0.06,-0.09525zM0.41,0.32l0.04,0.04l-0.07,0.16l-0.11,-0.1zM1.2,0.27l0.04,0.04l0.03,0.18l-0.02,-0.01l-0.07,-0.08zM0.92,0.98h0.01v0.04l-0.03,0.03zM0.8,2.03563l0.24,0.03437l-0.22,0.12l-0.05,-0.11zM1.3,0.23h0.16l-0.14,0.02zM0.47,0.23h0.17l-0.06,0.08l-0.05,-0.01l-0.06,-0.06zM0.36,0.23l-0.135,0.10607l0,-0.10607zM0.35,0.63l-0.01,0.02l-0.115,0.07667v-0.21205zM0.4,1.12l-0.01,0.01l-0.165,0v-0.22389zM0.39,1.23l0.05,0.16l-0.06,0.11l-0.155,0.00969v-0.27969zM0.26,2.16l-0.035,0.06125l0,-0.07zM0.33,2.46l0.01,0.03l-0.115,0.02875l0,-0.12557zM0.43,2.68l0.06,0.04l0,0.055l-0.212,0zM0.87,2.69l0.01,0.00684l0,0.07816h-0.29v-0.045l0.04,-0.03zM1.16,2.68l0.0665,0.095l-0.2465,0v-0.055z"></path></g></svg>