<svg version="1.1" xmlns="http://www.w3.org/2000/svg" xmlns:xlink="http://www.w3.org/1999/xlink" width="3.0641371873373724in" height="3.01743349492383in" viewBox="-0.01726166007708664 -0.017433494923830097 3.114137187337372 3.0674334949238298"><g fill="none" fill-rule="none" stroke="none" stroke-width="none" stroke-linecap="butt" stroke-linejoin="miter" stroke-miterlimit="10" stroke-dasharray="" stroke-dashoffset="0" font-family="none" font-weight="none" font-size="none" text-anchor="none" style="mix-blend-mode: normal"><path d="M0,3v-3h3v3z" fill="none" fill-rule="nonzero" stroke="none" stroke-width="1"></path><path d="M0.0125,0.0125l0.175,0v0.175h-0.175z" fill="none" fill-rule="nonzero" stroke="none" stroke-width="1"></path><path d="M0.41937,0.00714l0.17786,0.01223l-0.01223,0.17786l-0.17786,-0.01223z" fill="none" fill-rule="nonzero" stroke="none" stroke-width="1"></path><path d="M0.82684,0.00204l0.17984,0.02479l-0.02479,0.17984l-0.17984,-0.02479z" fill="none" fill-rule="nonzero" stroke="none" stroke-width="1"></path><path d="M1.23484,-0.00272l0.18092,0.03756l-0.03756,0.18092l-0.18092,-0.03756z" fill="none" fill-rule="nonzero" stroke="none" stroke-width="1"></path><path d="M1.64329,-0.00709l0.18108,0.05039l-0.05039,0.18108l-0.18108,-0.05039z" fill="none" fill-rule="nonzero" stroke="none" stroke-width="1"></path><path d="M2.05212,-0.01102l0.18035,0.06314l-0.06314,0.18035l-0.18035,-0.06314z" fill="none" fill-rule="nonzero" stroke="none" stroke-width="1"></path><path d="M2.46122,-0.01448l0.17876,0.0757l-0.0757,0.17876l-0.17876,-0.0757z" fill="none" fill-rule="nonzero" stroke="none" stroke-width="1"></path><path d="M2.8705,-0.01743l0.17638,0.08793l-0.08793,0.17638l-0.17638,-0.08793z" fill="none" fill-rule="nonzero" stroke="none" stroke-width="1"></path><path d="M0.00626,0.41805l0.17132,-0.01178l0.01178,0.17132l-0.17132,0.01178z" fill="none" fill-rule="nonzero" stroke="none" stroke-width="1"></path><path d="M0.4125,0.4125h0.175v0.175h-0.175z" fill="none" fill-rule="nonzero" stroke="none" stroke-width="1"></path><path d="M0.81935,0.40716l0.17785,0.01219l-0.01219,0.17785l-0.17785,-0.01219z" fill="none" fill-rule="nonzero" stroke="none" stroke-width="1"></path><path d="M1.22676,0.40209l0.17983,0.02467l-0.02467,0.17983l-0.17983,-0.02467z" fill="none" fill-rule="nonzero" stroke="none" stroke-width="1"></path><path d="M1.63468,0.39737l0.1809,0.03731l-0.03731,0.1809l-0.1809,-0.03731z" fill="none" fill-rule="nonzero" stroke="none" stroke-width="1"></path><path d="M2.04301,0.39304l0.18109,0.04996l-0.04996,0.18109l-0.18109,-0.04996z" fill="none" fill-rule="nonzero" stroke="none" stroke-width="1"></path><path d="M2.45167,0.38916l0.1804,0.06251l-0.06251,0.1804l-0.1804,-0.06251z" fill="none" fill-rule="nonzero" stroke="none" stroke-width="1"></path><path d="M2.86057,0.38575l0.1789,0.07481l-0.07481,0.1789l-0.1789,-0.07481z" fill="none" fill-rule="nonzero" stroke="none" stroke-width="1"></path><path d="M0.0007,0.8237l0.16688,-0.02301l0.02301,0.16688l-0.16688,0.02301z" fill="none" fill-rule="nonzero" stroke="none" stroke-width="1"></path><path d="M0.40628,0.81803l0.17133,-0.01175l0.01175,0.17133l-0.17133,0.01175z" fill="none" fill-rule="nonzero" stroke="none" stroke-width="1"></path><path d="M0.8125,0.8125h0.175v0.175h-0.175z" fill="none" fill-rule="nonzero" stroke="none" stroke-width="1"></path><path d="M1.2193,0.80719l0.17784,0.01211l-0.01211,0.17784l-0.17784,-0.01211z" fill="none" fill-rule="nonzero" stroke="none" stroke-width="1"></path><path d="M1.62664,0.80217l0.1798,0.02447l-0.02447,0.1798l-0.1798,-0.02447z" fill="none" fill-rule="nonzero" stroke="none" stroke-width="1"></path><path d="M2.03444,0.7975l0.18088,0.03694l-0.03694,0.18088l-0.18088,-0.03694z" fill="none" fill-rule="nonzero" stroke="none" stroke-width="1"></path><path d="M2.44261,0.79323l0.1811,0.04938l-0.04938,0.1811l-0.1811,-0.04938z" fill="none" fill-rule="nonzero" stroke="none" stroke-width="1"></path><path d="M2.85108,0.78941l0.18048,0.06167l-0.06167,0.18048l-0.18048,-0.06167z" fill="none" fill-rule="nonzero" stroke="none" stroke-width="1"></path><path d="M-0.0042,1.22939l0.16178,-0.03358l0.03358,0.16178l-0.16178,0.03358z" fill="none" fill-rule="nonzero" stroke="none" stroke-width="1"></path><path d="M0.40075,1.22365l0.16693,-0.0229l0.0229,0.16693l-0.16693,0.0229z" fill="none" fill-rule="nonzero" stroke="none" stroke-width="1"></path><path d="M0.80632,1.21799l0.17136,-0.01167l0.01167,0.17136l-0.17136,0.01167z" fill="none" fill-rule="nonzero" stroke="none" stroke-width="1"></path><path d="M1.2125,1.2125h0.175v0.175h-0.175z" fill="none" fill-rule="nonzero" stroke="none" stroke-width="1"></path><path d="M1.61924,1.20724l0.17781,0.012l-0.012,0.17781l-0.17781,-0.012z" fill="none" fill-rule="nonzero" stroke="none" stroke-width="1"></path><path d="M2.02647,1.20228l0.17977,0.02419l-0.02419,0.17977l-0.17977,-0.02419z" fill="none" fill-rule="nonzero" stroke="none" stroke-width="1"></path><path d="M2.43412,1.19768l0.18086,0.03644l-0.03644,0.18086l-0.18086,-0.03644z" fill="none" fill-rule="nonzero" stroke="none" stroke-width="1"></path><path d="M2.84211,1.19348l0.18111,0.04864l-0.04864,0.18111l-0.18111,-0.04864z" fill="none" fill-rule="nonzero" stroke="none" stroke-width="1"></path><path d="M-0.00841,1.63502l0.15611,-0.04344l0.04344,0.15611l-0.15611,0.04344z" fill="none" fill-rule="nonzero" stroke="none" stroke-width="1"></path><path d="M0.39589,1.62928l0.16188,-0.03338l0.03338,0.16188l-0.16188,0.03338z" fill="none" fill-rule="nonzero" stroke="none" stroke-width="1"></path><path d="M0.80083,1.62356l0.167,-0.02273l0.02273,0.167l-0.167,0.02273z" fill="none" fill-rule="nonzero" stroke="none" stroke-width="1"></path><path d="M1.20638,1.61794l0.17139,-0.01156l0.01156,0.17139l-0.17139,0.01156z" fill="none" fill-rule="nonzero" stroke="none" stroke-width="1"></path><path d="M1.6125,1.6125h0.175v0.175h-0.175z" fill="none" fill-rule="nonzero" stroke="none" stroke-width="1"></path><path d="M2.01915,1.60731l0.17778,0.01184l-0.01184,0.17778l-0.17778,-0.01184z" fill="none" fill-rule="nonzero" stroke="none" stroke-width="1"></path><path d="M2.42625,1.60242l0.17972,0.02383l-0.02383,0.17972l-0.17972,-0.02383z" fill="none" fill-rule="nonzero" stroke="none" stroke-width="1"></path><path d="M2.83373,1.5979l0.18082,0.03584l-0.03584,0.18082l-0.18082,-0.03584z" fill="none" fill-rule="nonzero" stroke="none" stroke-width="1"></path><path d="M-0.01197,2.04054l0.14999,-0.05252l0.05252,0.14999l-0.14999,0.05252z" fill="none" fill-rule="nonzero" stroke="none" stroke-width="1"></path><path d="M0.39171,2.03484l0.15631,-0.04313l0.04313,0.15631l-0.15631,0.04313z" fill="none" fill-rule="nonzero" stroke="none" stroke-width="1"></path><path d="M0.79603,2.02911l0.16204,-0.03309l0.03309,0.16204l-0.16204,0.03309z" fill="none" fill-rule="nonzero" stroke="none" stroke-width="1"></path><path d="M1.20095,2.02343l0.16711,-0.02248l0.02248,0.16711l-0.16711,0.02248z" fill="none" fill-rule="nonzero" stroke="none" stroke-width="1"></path><path d="M1.60645,2.01787l0.17145,-0.01142l0.01142,0.17145l-0.17145,0.01142z" fill="none" fill-rule="nonzero" stroke="none" stroke-width="1"></path><path d="M2.0125,2.0125h0.175v0.175h-0.175z" fill="none" fill-rule="nonzero" stroke="none" stroke-width="1"></path><path d="M2.41903,2.00739l0.17774,0.01165l-0.01165,0.17774l-0.17774,-0.01165z" fill="none" fill-rule="nonzero" stroke="none" stroke-width="1"></path><path d="M2.82599,2.00259l0.17967,0.0234l-0.0234,0.17967l-0.17967,-0.0234z" fill="none" fill-rule="nonzero" stroke="none" stroke-width="1"></path><path d="M-0.01491,2.44587l0.14353,-0.06078l0.06078,0.14353l-0.14353,0.06078z" fill="none" fill-rule="nonzero" stroke="none" stroke-width="1"></path><path d="M0.38819,2.44027l0.15031,-0.05208l0.05208,0.15031l-0.15031,0.05208z" fill="none" fill-rule="nonzero" stroke="none" stroke-width="1"></path><path d="M0.79189,2.43459l0.15657,-0.04269l0.04269,0.15657l-0.15657,0.04269z" fill="none" fill-rule="nonzero" stroke="none" stroke-width="1"></path><path d="M1.1962,2.4289l0.16224,-0.03269l0.03269,0.16224l-0.16224,0.03269z" fill="none" fill-rule="nonzero" stroke="none" stroke-width="1"></path><path d="M1.6011,2.42327l0.16724,-0.02217l0.02217,0.16724l-0.16724,0.02217z" fill="none" fill-rule="nonzero" stroke="none" stroke-width="1"></path><path d="M2.00654,2.41778l0.17151,-0.01124l0.01124,0.17151l-0.17151,0.01124z" fill="none" fill-rule="nonzero" stroke="none" stroke-width="1"></path><path d="M2.4125,2.4125h0.175v0.175h-0.175z" fill="none" fill-rule="nonzero" stroke="none" stroke-width="1"></path><path d="M2.8189,2.40748l0.1777,0.01142l-0.01142,0.1777l-0.1777,-0.01142z" fill="none" fill-rule="nonzero" stroke="none" stroke-width="1"></path><path d="M-0.01726,2.85097l0.13685,-0.06823l0.06823,0.13685l-0.13685,0.06823z" fill="none" fill-rule="nonzero" stroke="none" stroke-width="1"></path><path d="M0.38528,2.8455l0.144,-0.06022l0.06022,0.144l-0.144,0.06022z" fill="none" fill-rule="nonzero" stroke="none" stroke-width="1"></path><path d="M0.78841,2.83991l0.15072,-0.0515l0.0515,0.15072l-0.15072,0.0515z" fill="none" fill-rule="nonzero" stroke="none" stroke-width="1"></path><path d="M1.19212,2.83426l0.15691,-0.04214l0.04214,0.15691l-0.15691,0.04214z" fill="none" fill-rule="nonzero" stroke="none" stroke-width="1"></path><path d="M1.59642,2.82863l0.1625,-0.03221l0.03221,0.1625l-0.1625,0.03221z" fill="none" fill-rule="nonzero" stroke="none" stroke-width="1"></path><path d="M2.00128,2.82308l0.1674,-0.0218l0.0218,0.1674l-0.1674,0.0218z" fill="none" fill-rule="nonzero" stroke="none" stroke-width="1"></path><path d="M2.40665,2.81768l0.17158,-0.01103l0.01103,0.17158l-0.17158,0.01103z" fill="none" fill-rule="nonzero" stroke="none" stroke-width="1"></path><path d="M2.8125,2.8125h0.175v0.175h-0.175z" fill="none" fill-rule="nonzero" stroke="none" stroke-width="1"></path><path d="M0.0125,0.0125l0.175,0v0.175h-0.175zM0.41937,0.00714l0.17786,0.01223l-0.01223,0.17786l-0.17786,-0.01223zM0.82684,0.00204l0.17984,0.02479l-0.02479,0.17984l-0.17984,-0.02479zM1.41575,0.03484l-0.03756,0.18092l-0.18092,-0.03756l0.03699,-0.17819l0.01367,0zM1.82437,0.04329l-0.05039,0.18108l-0.18108,-0.05039l0.04841,-0.17399l0.02747,0zM2.23247,0.05212l-0.06314,0.18035l-0.18035,-0.06314l0.05928,-0.16932l0.03535,0zM2.63998,0.06122l-0.0757,0.17876l-0.17876,-0.0757l0.06957,-0.16428l0.04032,0zM2.95894,0.24688l-0.17638,-0.08793l0.07924,-0.15894l0.04366,0l0.09453,0.04713v0.1174zM0.00626,0.41805l0.17132,-0.01178l0.01178,0.17132l-0.17132,0.01178zM0.4125,0.4125h0.175v0.175h-0.175zM0.81935,0.40716l0.17785,0.01219l-0.01219,0.17785l-0.17785,-0.01219zM1.22676,0.40209l0.17983,0.02467l-0.02467,0.17983l-0.17983,-0.02467zM1.63468,0.39737l0.1809,0.03731l-0.03731,0.1809l-0.1809,-0.03731zM2.04301,0.39304l0.18109,0.04996l-0.04996,0.18109l-0.18109,-0.04996zM2.45167,0.38916l0.1804,0.06251l-0.06251,0.1804l-0.1804,-0.06251zM2.86057,0.38575l0.13943,0.05831v0.11087l-0.03535,0.08453l-0.1789,-0.07481zM0.0007,0.8237l0.16688,-0.02301l0.02301,0.16688l-0.16688,0.02301zM0.40628,0.81803l0.17133,-0.01175l0.01175,0.17133l-0.17133,0.01175zM0.8125,0.8125h0.175v0.175h-0.175zM1.2193,0.80719l0.17784,0.01211l-0.01211,0.17784l-0.17784,-0.01211zM1.62664,0.80217l0.1798,0.02447l-0.02447,0.1798l-0.1798,-0.02447zM2.03444,0.7975l0.18088,0.03694l-0.03694,0.18088l-0.18088,-0.03694zM2.44261,0.79323l0.1811,0.04938l-0.04938,0.1811l-0.1811,-0.04938zM2.85108,0.78941l0.14892,0.05089v0.10312l-0.03012,0.08813l-0.18048,-0.06167zM0.15758,1.1958l0.03358,0.16178l-0.16178,0.03358l-0.02939,-0.14156l0,-0.02109zM0.40075,1.22365l0.16693,-0.0229l0.0229,0.16693l-0.16693,0.0229zM0.80632,1.21799l0.17136,-0.01167l0.01167,0.17136l-0.17136,0.01167zM1.2125,1.2125h0.175v0.175h-0.175zM1.61924,1.20724l0.17781,0.012l-0.012,0.17781l-0.17781,-0.012zM2.02647,1.20228l0.17977,0.02419l-0.02419,0.17977l-0.17977,-0.02419zM2.43412,1.19768l0.18086,0.03644l-0.03644,0.18086l-0.18086,-0.03644zM2.84211,1.19348l0.15789,0.0424l0,0.09272l-0.02541,0.09463l-0.18111,-0.04864zM0.1477,1.59159l0.04344,0.15611l-0.15611,0.04344l-0.03502,-0.12587v-0.03258zM0.39589,1.62928l0.16188,-0.03338l0.03338,0.16188l-0.16188,0.03338zM0.80083,1.62356l0.167,-0.02273l0.02273,0.167l-0.167,0.02273zM1.20638,1.61794l0.17139,-0.01156l0.01156,0.17139l-0.17139,0.01156zM1.6125,1.6125h0.175v0.175h-0.175zM2.01915,1.60731l0.17778,0.01184l-0.01184,0.17778l-0.17778,-0.01184zM2.42625,1.60242l0.17972,0.02383l-0.02383,0.17972l-0.17972,-0.02383zM2.83373,1.5979l0.16627,0.03295v0.07635l-0.02128,0.10736l-0.18082,-0.03584zM0.13802,1.98803l0.05252,0.14999l-0.14999,0.05252l-0.04054,-0.11579l0,-0.03839zM0.39171,2.03484l0.15631,-0.04313l0.04313,0.15631l-0.15631,0.04313zM0.79603,2.02911l0.16204,-0.03309l0.03309,0.16204l-0.16204,0.03309zM1.20095,2.02343l0.16711,-0.02248l0.02248,0.16711l-0.16711,0.02248zM1.60645,2.01787l0.17145,-0.01142l0.01142,0.17145l-0.17145,0.01142zM2.0125,2.0125h0.175v0.175h-0.175zM2.41903,2.00739l0.17774,0.01165l-0.01165,0.17774l-0.17774,-0.01165zM2.82599,2.00259l0.17401,0.02266l0,0.04414l-0.01774,0.13626l-0.17967,-0.0234zM0.12862,2.38509l0.06078,0.14353l-0.14353,0.06078l-0.04587,-0.10833l0,-0.04152zM0.38819,2.44027l0.15031,-0.05208l0.05208,0.15031l-0.15031,0.05208zM0.79189,2.43459l0.15657,-0.04269l0.04269,0.15657l-0.15657,0.04269zM1.1962,2.4289l0.16224,-0.03269l0.03269,0.16224l-0.16224,0.03269zM1.6011,2.42327l0.16724,-0.02217l0.02217,0.16724l-0.16724,0.02217zM2.00654,2.41778l0.17151,-0.01124l0.01124,0.17151l-0.17151,0.01124zM2.4125,2.4125h0.175v0.175h-0.175zM2.8189,2.40748l0.1777,0.01142l-0.01142,0.1777l-0.1777,-0.01142zM0.11959,2.78274l0.06823,0.13685l-0.13685,0.06823l-0.05097,-0.10223v-0.04323zM0.38528,2.8455l0.144,-0.06022l0.06022,0.144l-0.144,0.06022zM0.78841,2.83991l0.15072,-0.0515l0.0515,0.15072l-0.15072,0.0515zM1.19212,2.83426l0.15691,-0.04214l0.04214,0.15691l-0.15691,0.04214zM1.59642,2.82863l0.1625,-0.03221l0.03221,0.1625l-0.1625,0.03221zM2.00128,2.82308l0.1674,-0.0218l0.0218,0.1674l-0.1674,0.0218zM2.40665,2.81768l0.17158,-0.01103l0.01103,0.17158l-0.17158,0.01103zM2.8125,2.8125h0.175v0.175h-0.175z" fill="#d3d3d3" fill-rule="evenodd" stroke="#ff0000" stroke-width="0.005"></path></g></svg>