<svg version="1.1" xmlns="http://www.w3.org/2000/svg" xmlns:xlink="http://www.w3.org/1999/xlink" width="3in" height="3in" viewBox="0 0 3.05 3.05"><g fill="#d3d3d3" fill-rule="evenodd" stroke="#ff0000" stroke-width="0.005" stroke-linecap="butt" stroke-linejoin="miter" stroke-miterlimit="10" stroke-dasharray="" stroke-dashoffset="0" font-family="none" font-weight="none" font-size="none" text-anchor="none" style="mix-blend-mode: normal"><path d="M0,3v-3h3v3zM2.775,2.775v-0.08302l-0.69465,-0.29485l-0.15268,0.21084l0.3967,0.16703zM2.775,0.225h-0.40083l0.03237,0.05297l0.36846,-0.02047zM0.225,0.225l0,0.02542l1.0995,0.46458l0.19422,-0.27746l-0.51157,-0.21254zM0.225,2.775h0.92447l-0.91818,-0.38878l-0.00629,0.00862zM0.35308,2.04974l-0.02308,-0.00974l-0.105,-0.04414v0.22936zM0.41157,1.96961l0.1549,-0.21223l-0.34146,-0.14428l0,0.27795zM0.6261,1.67567l0.15399,-0.21099l-0.55509,-0.23454l0,0.27606zM0.84509,1.3755l0.16719,-0.22988l-0.78728,-0.33265v0.30489zM1.07175,1.06384l0.19401,-0.26676l-0.65576,-0.27708l-0.385,-0.15725l0,0.34331zM1.57654,0.35494l0.07346,-0.10494l0.018,-0.025h-0.40422zM1.67427,0.39554l0.91111,0.37853l-0.08537,-0.14407l-0.16313,-0.25909l-0.37142,-0.14591h-0.1701zM2.46384,0.37534l0.08382,0.14407l0.22734,-0.00484v-0.15652zM2.60565,0.61908l0.11744,0.20184l0.05192,0.00208v-0.20574zM2.66961,0.91568l-1.0538,-0.43781l-0.19693,0.27736l1.30872,0.56088l0.0474,-0.06433v-0.16415zM2.76452,1.4343l-0.19954,0.26861l0.21002,0.08751v-0.35177zM2.50681,1.78534l-0.15019,0.22886l0.41838,0.17879v-0.29591zM2.29374,2.10413l-0.07374,0.09587l-0.08083,0.11451l0.63583,0.26342v-0.27224zM1.86887,2.68905l-0.05887,0.08095l-0.00389,0.005h0.26655zM1.72,2.72l0.05341,-0.07121l-1.32567,-0.55913l-0.15683,0.21487l1.11111,0.47047h0.27592zM2.46953,1.66266l-1.30339,-0.5586l0.19413,-0.26692l1.3029,0.55443zM2.41341,1.74575l-0.15011,0.22874l-1.3235,-0.55922l0.16693,-0.22953zM0.8747,1.50466l1.32376,0.55934l-0.05846,0.076l-0.09534,0.13507l-1.32395,-0.55942zM1.98587,2.35713l-0.1528,0.21101l-1.32682,-0.55866l0.15482,-0.21212zM0.225,2.76208l0.031,0.01292h0.24917l-0.28017,-0.11838z"></path></g></svg>