<svg version="1.1" xmlns="http://www.w3.org/2000/svg" xmlns:xlink="http://www.w3.org/1999/xlink" width="3in" height="3in" viewBox="0 0 3.05 3.05"><g fill="#d3d3d3" fill-rule="evenodd" stroke="#ff0000" stroke-width="0.005" stroke-linecap="butt" stroke-linejoin="miter" stroke-miterlimit="10" stroke-dasharray="" stroke-dashoffset="0" font-family="none" font-weight="none" font-size="none" text-anchor="none" style="mix-blend-mode: normal"><path d="M0,3v-3h3v3zM1.89257,1.35787c0.02665,0.0495 0.02525,0.05671 -0.02806,0.14429l-0.02806,0.04609c-0.05331,0.08757 -0.06172,0.08958 -0.16825,0.04012l-0.05607,-0.02603c-0.10653,-0.04946 -0.11775,-0.04946 -0.22428,0l-0.05607,0.02603c-0.10653,0.04946 -0.11495,0.04746 -0.16825,-0.04012l-0.02806,-0.04609c-0.05331,-0.08757 -0.05471,-0.09479 -0.02806,-0.14429l0.01403,-0.02605c0.02665,-0.0495 0.03506,-0.05351 0.16817,-0.08016l0.07006,-0.01403c0.13311,-0.02665 0.14012,-0.02806 0.14028,-0.02806l0.00008,0c0.00016,0 0.00717,0.0014 0.14028,0.02806l0.07006,0.01403c0.13311,0.02665 0.14151,0.03066 0.16817,0.08016zM2.60792,1.2046c-0.00762,-0.00381 -0.00962,-0.00782 -0.04008,-0.08016l-0.01603,-0.03808c-0.03046,-0.07234 -0.02695,-0.08441 0.07014,-0.24125l0.0511,-0.08255c0.08713,-0.14075 0.10019,-0.15228 0.10195,0.0099v0.25695c-0.00142,0.15293 -0.01031,0.16311 -0.06187,0.16955l-0.03106,0.00388c-0.05902,0.00738 -0.06252,0.00757 -0.07014,0.00376zM2.27816,1.85647c-0.00762,0.00381 -0.01403,0.00301 -0.12826,-0.01603l-0.06012,-0.01002c-0.11423,-0.01904 -0.12084,-0.02091 -0.13226,-0.03752l-0.00601,-0.00874c-0.01142,-0.01661 -0.00882,-0.02282 0.0521,-0.12425l0.03206,-0.05338c0.06092,-0.10143 0.07094,-0.10917 0.2004,-0.15486l0.06814,-0.02405c0.12946,-0.04569 0.13667,-0.0481 0.14429,-0.0481h0.00401c0.00762,0 0.00461,0.00942 -0.06012,0.18838l-0.03407,0.09419c-0.06473,0.17896 -0.06854,0.18858 -0.07615,0.19238zM2.54807,0.59612c-0.14088,0.23226 -0.1511,0.24148 -0.20441,0.18437l-0.02806,-0.03006c-0.05331,-0.05711 -0.0525,-0.06433 0.01603,-0.14429l0.03607,-0.04208c0.06854,-0.07996 0.07816,-0.08918 0.19238,-0.18437l0.06012,-0.0501c0.11423,-0.09519 0.12084,-0.1002 0.13226,-0.1002h0.00601c0.01142,0 0.00461,0.01222 -0.13627,0.24449zM2.19387,0.25399c-0.099,-0.02285 -0.09739,-0.02405 0.03206,-0.02405h0.06814c0.12946,0 0.13467,0.0012 0.10421,0.02405l-0.01603,0.01202c-0.03046,0.02285 -0.03727,0.02285 -0.13627,0zM1.71309,2.63707c0.04715,0.11789 0.04557,0.13555 -0.10268,0.13793l-0.22083,0c-0.14825,-0.00238 -0.14983,-0.02004 -0.10268,-0.13793l0.02766,-0.06914c0.05254,-0.13136 0.05791,-0.13768 0.10736,-0.12626l0.02603,0.00601c0.04945,0.01141 0.05465,0.01141 0.1041,0l0.02603,-0.00601c0.04945,-0.01141 0.05482,-0.0051 0.10736,0.12626zM2.23397,2.49374c0.01523,-0.02285 0.01702,-0.01794 0.03575,0.0982l0.00986,0.06112c0.01681,0.10422 0.01773,0.11983 -0.0095,0.12194h-0.0417c-0.02663,-0.00192 -0.02766,-0.0151 -0.02435,-0.09789l0.00196,-0.0491c0.00373,-0.09329 0.00473,-0.0994 0.01996,-0.12224zM2.72503,2.00991c0.04271,0 0.04911,0.0014 0.04997,0.0255l0,0.03563c-0.00086,0.0235 -0.00726,0.02047 -0.04997,-0.0091l-0.02505,-0.01734c-0.0476,-0.03295 -0.0476,-0.03468 0,-0.03468zM2.12002,1.27807c-0.03808,0.01142 -0.04088,0.01062 -0.05611,-0.01603l-0.00802,-0.01403c-0.01523,-0.02665 -0.01563,-0.02854 -0.00802,-0.03764l0.00401,-0.00479c0.00762,-0.0091 0.01042,-0.0083 0.05611,0.01603l0.02405,0.01281c0.04569,0.02434 0.04609,0.02622 0.00802,0.03764zM2.60992,1.56994c0.05711,-0.1523 0.06222,-0.1607 0.1022,-0.16797l0.02104,-0.00383c0.03405,-0.00619 0.04063,-0.00129 0.04183,0.09891v0.18988c-0.00176,0.11672 -0.01482,0.12348 -0.10195,0.12348h-0.0511c-0.09709,0 -0.0992,-0.00802 -0.04208,-0.16032zM2.64507,2.55991c0.11105,0.07403 0.12769,0.0872 0.12993,0.12444l0,0.05425c-0.0017,0.02868 -0.01172,0.03505 -0.06585,0.0364l-0.12194,0c-0.07445,-0.00238 -0.08177,-0.02004 -0.10198,-0.13793l-0.01185,-0.06914c-0.02252,-0.13136 -0.01719,-0.13393 0.10656,-0.05144zM2.41364,2.12175c-0.00381,-0.03046 0.00331,-0.02712 0.14228,0.06678l0.07315,0.04942c0.12472,0.08427 0.14341,0.09803 0.14593,0.11924l0,0.02899c-0.00249,0.01777 -0.02078,0.00671 -0.14192,-0.07405l-0.07114,-0.04743c-0.13517,-0.09011 -0.14248,-0.09646 -0.14629,-0.12692zM1.57617,0.66841c-0.07227,0.03046 -0.07608,0.03206 -0.07615,0.03206h-0.00004c-0.00007,0 -0.00388,-0.0016 -0.07615,-0.03206l-0.03804,-0.01603c-0.07227,-0.03046 -0.06866,-0.03988 0.07214,-0.18838l0.07411,-0.07816c0.14081,-0.1485 0.14842,-0.1485 0.15223,0l0.002,0.07816c0.00381,0.1485 0.0002,0.15792 -0.07207,0.18838zM2.00426,2.68114c-0.00329,0.07896 -0.00402,0.09191 -0.00733,0.09386h-0.00533c-0.00428,-0.00224 -0.01103,-0.01888 -0.05477,-0.12993l-0.02566,-0.06513c-0.04875,-0.12375 -0.04831,-0.12846 0.00881,-0.09419l0.03006,0.01804c0.05711,0.03427 0.05992,0.04078 0.0562,0.13026zM2.12814,0.55004c-0.04569,0.05711 -0.0495,0.06052 -0.07615,0.06814l-0.01403,0.00401c-0.02665,0.00762 -0.02986,0.00762 -0.06413,0l-0.01804,-0.00401c-0.03427,-0.00762 -0.03327,-0.01162 0.02004,-0.08016l0.02806,-0.03607c0.05331,-0.06854 0.05892,-0.07154 0.11222,-0.06012l0.02806,0.00601c0.05331,0.01142 0.05371,0.01503 0.00802,0.07214zM1.72229,2.07817c-0.0495,0.10661 -0.0555,0.11363 -0.12012,0.14025l-0.03401,0.01401c-0.06462,0.02662 -0.06802,0.02803 -0.06802,0.02806v0.00002c0,0.00003 -0.00001,0.00003 -0.00012,0.00003h-0.00006c-0.00011,0 -0.00312,-0.0008 -0.06012,-0.01603l-0.03,-0.00802c-0.057,-0.01523 -0.06301,-0.02224 -0.12012,-0.14028l-0.03006,-0.06212c-0.05711,-0.11804 -0.05411,-0.12785 0.06,-0.19633l0.06006,-0.03604c0.11411,-0.06848 0.12012,-0.07209 0.12012,-0.07214v-0.00003c0,-0.00005 0.00001,-0.00006 0.00012,-0.00006l0.00006,0c0.00011,0 0.00012,0 0.00012,0.00006v0.00003c0,0.00005 0.00601,0.00366 0.12012,0.07214l0.06006,0.03604c0.11411,0.06848 0.11751,0.0777 0.06802,0.18431zM2.3422,1.10221c0.00762,0.02665 0.00381,0.02565 -0.07615,-0.02004l-0.04208,-0.02405c-0.07996,-0.04569 -0.08437,-0.0511 -0.08818,-0.10822l-0.002,-0.03006c-0.00381,-0.05711 0,-0.05611 0.07615,0.02004l0.04008,0.04008c0.07615,0.07615 0.08056,0.08156 0.08818,0.10822zM2.21233,2.14392c0.00762,0.05331 0.00541,0.05932 -0.04409,0.12024l-0.02605,0.03206c-0.0495,0.06092 -0.05651,0.06132 -0.14028,0.00802l-0.04409,-0.02806c-0.08377,-0.05331 -0.08597,-0.06032 -0.04409,-0.14028l0.02204,-0.04208c0.04188,-0.07996 0.0485,-0.08317 0.13226,-0.06413l0.04409,0.01002c0.08377,0.01904 0.08858,0.02285 0.09619,0.07615zM1.90659,0.97808c-0.01523,0.10661 -0.02384,0.11062 -0.17226,0.08018l-0.07811,-0.01602c-0.14841,-0.03044 -0.16404,-0.03044 -0.31245,0l-0.07811,0.01602c-0.14841,0.03044 -0.15703,0.02643 -0.17226,-0.08018l-0.00802,-0.05611c-0.01523,-0.10661 -0.01323,-0.11262 0.04008,-0.12024l0.02806,-0.00401c0.05331,-0.00762 0.06192,-0.00561 0.17226,0.04004l0.05807,0.02403c0.11034,0.04566 0.12195,0.04566 0.23229,0l0.05807,-0.02403c0.11034,-0.04566 0.11895,-0.04766 0.17226,-0.04004l0.02806,0.00401c0.05331,0.00762 0.05531,0.01363 0.04008,0.12024zM0.38807,1.2066c-0.00762,0.00381 -0.01112,0.00362 -0.07014,-0.00376l-0.03106,-0.00388c-0.05156,-0.00645 -0.06045,-0.01662 -0.06187,-0.16955l0,-0.25695c0.00176,-0.16218 0.01482,-0.15065 0.10195,-0.0099l0.0511,0.08255c0.09709,0.15684 0.1006,0.16891 0.07014,0.24125l-0.01603,0.03808c-0.03046,0.07234 -0.03246,0.07635 -0.04008,0.08016zM0.71784,1.85447c-0.00762,-0.00381 -0.01142,-0.01343 -0.07615,-0.19238l-0.03407,-0.09419c-0.06473,-0.17896 -0.06774,-0.18838 -0.06012,-0.18838h0.00401c0.00762,0 0.01483,0.0024 0.14429,0.0481l0.06814,0.02405c0.12946,0.04569 0.13948,0.05343 0.2004,0.15486l0.03206,0.05338c0.06092,0.10143 0.06353,0.10764 0.0521,0.12425l-0.00601,0.00874c-0.01142,0.01661 -0.01804,0.01849 -0.13226,0.03752l-0.06012,0.01002c-0.11423,0.01904 -0.12064,0.01984 -0.12826,0.01603zM0.37779,0.47388c-0.14088,-0.23226 -0.14769,-0.24449 -0.13627,-0.24449h0.00601c0.01142,0 0.01804,0.00501 0.13226,0.1002l0.06012,0.0501c0.11423,0.09519 0.12385,0.10441 0.19238,0.18437l0.03607,0.04208c0.06854,0.07996 0.06934,0.08717 0.01603,0.14429l-0.02806,0.03006c-0.05331,0.05711 -0.06353,0.0479 -0.20441,-0.18437zM0.75403,0.26601c-0.099,0.02285 -0.10581,0.02285 -0.13627,0l-0.01603,-0.01202c-0.03046,-0.02285 -0.02525,-0.02405 0.10421,-0.02405h0.06814c0.12946,0 0.13106,0.0012 0.03206,0.02405zM0.77405,2.50577c0.01523,0.02285 0.01623,0.02896 0.01996,0.12224l0.00196,0.0491c0.00331,0.08279 0.00228,0.09597 -0.02435,0.09789l-0.0417,0c-0.02723,-0.00211 -0.02631,-0.01772 -0.0095,-0.12194l0.00986,-0.06112c0.01873,-0.11613 0.02052,-0.12104 0.03575,-0.0982zM0.30003,2.00991c0.0476,0 0.0476,0.00173 0,0.03468l-0.02505,0.01734c-0.04271,0.02957 -0.04911,0.0326 -0.04997,0.0091l0,-0.03563c0.00086,-0.0241 0.00726,-0.0255 0.04997,-0.0255zM0.85994,1.27206c-0.03808,-0.01142 -0.03768,-0.0133 0.00802,-0.03764l0.02405,-0.01281c0.04569,-0.02434 0.0485,-0.02514 0.05611,-0.01603l0.00401,0.00479c0.00762,0.0091 0.00721,0.01099 -0.00802,0.03764l-0.00802,0.01403c-0.01523,0.02665 -0.01804,0.02745 -0.05611,0.01603zM0.42014,1.6501c0.05711,0.1523 0.05501,0.16032 -0.04208,0.16032l-0.0511,0c-0.08713,0 -0.10019,-0.00676 -0.10195,-0.12348l0,-0.18988c0.0012,-0.10021 0.00777,-0.1051 0.04183,-0.09891l0.02104,0.00383c0.03998,0.00727 0.04509,0.01567 0.1022,0.16797zM0.42007,2.51649c0.12375,-0.0825 0.12907,-0.07993 0.10656,0.05144l-0.01185,0.06914c-0.02021,0.11789 -0.02753,0.13555 -0.10198,0.13793l-0.12194,0c-0.05414,-0.00135 -0.06415,-0.00772 -0.06585,-0.0364l0,-0.05425c0.00224,-0.03724 0.01888,-0.0504 0.12993,-0.12444zM0.58435,2.13778c-0.00381,0.03046 -0.01112,0.03681 -0.14629,0.12692l-0.07114,0.04743c-0.12114,0.08076 -0.13943,0.09182 -0.14192,0.07405l0,-0.02899c0.00252,-0.02121 0.02121,-0.03497 0.14593,-0.11924l0.07315,-0.04942c0.13898,-0.0939 0.14609,-0.09724 0.14228,-0.06678zM0.99377,2.63404c-0.00373,-0.08948 -0.00092,-0.09599 0.0562,-0.13026l0.03006,-0.01804c0.05711,-0.03427 0.05755,-0.02956 0.00881,0.09419l-0.02566,0.06513c-0.04375,0.11105 -0.0505,0.12769 -0.05477,0.12993h-0.00533c-0.00331,-0.00195 -0.00404,-0.0149 -0.00733,-0.09386zM0.84782,0.51998c-0.04569,-0.05711 -0.04529,-0.06072 0.00802,-0.07214l0.02806,-0.00601c0.05331,-0.01142 0.05892,-0.00842 0.11222,0.06012l0.02806,0.03607c0.05331,0.06854 0.05431,0.07254 0.02004,0.08016l-0.01804,0.00401c-0.03427,0.00762 -0.03747,0.00762 -0.06413,0l-0.01403,-0.00401c-0.02665,-0.00762 -0.03046,-0.01102 -0.07615,-0.06814zM0.6618,1.08819c0.00762,-0.02665 0.01202,-0.03206 0.08818,-0.10822l0.04008,-0.04008c0.07615,-0.07615 0.07996,-0.07715 0.07615,-0.02004l-0.002,0.03006c-0.00381,0.05711 -0.00822,0.06252 -0.08818,0.10822l-0.04208,0.02405c-0.07996,0.04569 -0.08377,0.04669 -0.07615,0.02004zM0.79167,2.11586c0.00762,-0.05331 0.01242,-0.05711 0.09619,-0.07615l0.04409,-0.01002c0.08377,-0.01904 0.09038,-0.01583 0.13226,0.06413l0.02204,0.04208c0.04188,0.07996 0.03968,0.08697 -0.04409,0.14028l-0.04409,0.02806c-0.08377,0.05331 -0.09078,0.05291 -0.14028,-0.00802l-0.02605,-0.03206c-0.0495,-0.06092 -0.0517,-0.06693 -0.04409,-0.12024z"></path></g></svg>