<svg version="1.1" xmlns="http://www.w3.org/2000/svg" xmlns:xlink="http://www.w3.org/1999/xlink" width="3in" height="3.6367984158900715in" viewBox="0 0 3.05 3.6867984158900713"><g fill="none" fill-rule="none" stroke="none" stroke-width="none" stroke-linecap="butt" stroke-linejoin="miter" stroke-miterlimit="10" stroke-dasharray="" stroke-dashoffset="0" font-family="none" font-weight="none" font-size="none" text-anchor="none" style="mix-blend-mode: normal"><path d="M0,3v-3h3v3z" fill="none" fill-rule="nonzero" stroke="none" stroke-width="1"></path><path d="M0.05,0.05h0.27274l0.00039,0.49671l-0.27312,-0.00034v-0.49638" fill="none" fill-rule="nonzero" stroke="none" stroke-width="1"></path><path d="M0.42274,0.05h0.33328l-0.00722,0.49724l-0.32567,-0.0004l-0.00039,-0.49684" fill="none" fill-rule="nonzero" stroke="none" stroke-width="1"></path><path d="M0.85603,0.05h0.29346l-0.00892,0.49772l-0.29176,-0.00036l0.00722,-0.49736" fill="none" fill-rule="nonzero" stroke="none" stroke-width="1"></path><path d="M1.24951,0.05h0.26583l-0.00812,0.49817l-0.26663,-0.00033l0.00892,-0.49784" fill="none" fill-rule="nonzero" stroke="none" stroke-width="1"></path><path d="M1.61535,0.05h0.22859l-0.0029,0.49858l-0.23381,-0.00029l0.00812,-0.49829" fill="none" fill-rule="nonzero" stroke="none" stroke-width="1"></path><path d="M1.94394,0.05h0.32931l-0.00884,0.4991l-0.32337,-0.0004l0.0029,-0.4987" fill="none" fill-rule="nonzero" stroke="none" stroke-width="1"></path><path d="M2.37326,0.05h0.25522l-0.007,0.49954l-0.25706,-0.00032l0.00884,-0.49922" fill="none" fill-rule="nonzero" stroke="none" stroke-width="1"></path><path d="M2.72849,0.05h0.22151v0.49994l-0.22851,-0.00028l0.007,-0.49966" fill="none" fill-rule="nonzero" stroke="none" stroke-width="1"></path><path d="M0.05,0.64638l0.2732,0.00034l0.00045,0.58426l-0.27365,0.00828v-0.59288" fill="none" fill-rule="nonzero" stroke="none" stroke-width="1"></path><path d="M0.4232,0.64684l0.32414,0.0004l-0.00829,0.57117l-0.3154,0.00955l-0.00045,-0.58111" fill="none" fill-rule="nonzero" stroke="none" stroke-width="1"></path><path d="M0.84735,0.64736l0.29142,0.00036l-0.01002,0.55889l-0.28965,0.00877l0.00825,-0.56802" fill="none" fill-rule="nonzero" stroke="none" stroke-width="1"></path><path d="M1.23879,0.64784l0.26679,0.00033l-0.00892,0.54731l-0.26783,0.00811l0.00996,-0.55574" fill="none" fill-rule="nonzero" stroke="none" stroke-width="1"></path><path d="M1.6056,0.64829l0.23486,0.00029l-0.00312,0.53659l-0.24061,0.00728l0.00887,-0.54416" fill="none" fill-rule="nonzero" stroke="none" stroke-width="1"></path><path d="M1.94046,0.6487l0.32218,0.0004l-0.00927,0.52348l-0.31601,0.00956l0.0031,-0.53344" fill="none" fill-rule="nonzero" stroke="none" stroke-width="1"></path><path d="M2.36265,0.64922l0.25743,0.00032l-0.00718,0.51216l-0.25947,0.00785l0.00922,-0.52033" fill="none" fill-rule="nonzero" stroke="none" stroke-width="1"></path><path d="M2.72009,0.64966l0.22991,0.00028v0.50155l-0.23704,0.00717l0.00713,-0.50901" fill="none" fill-rule="nonzero" stroke="none" stroke-width="1"></path><path d="M2.71155,1.25875l0.23845,-0.00722v0.50043l-0.2455,0.00987l0.00705,-0.50309" fill="none" fill-rule="nonzero" stroke="none" stroke-width="1"></path><path d="M2.35166,1.26964l0.25984,-0.00786l-0.00706,0.50408l-0.26175,0.01052l0.00897,-0.50675" fill="none" fill-rule="nonzero" stroke="none" stroke-width="1"></path><path d="M1.93678,1.2822l0.31482,-0.00953l-0.00899,0.50774l-0.30879,0.01242l0.00297,-0.51063" fill="none" fill-rule="nonzero" stroke="none" stroke-width="1"></path><path d="M1.59509,1.29254l0.24166,-0.00731l-0.00297,0.51163l-0.24707,0.00993l0.00838,-0.51425" fill="none" fill-rule="nonzero" stroke="none" stroke-width="1"></path><path d="M1.22703,1.30368l0.268,-0.00811l-0.0084,0.51524l-0.26888,0.01081l0.00928,-0.51794" fill="none" fill-rule="nonzero" stroke="none" stroke-width="1"></path><path d="M0.83765,1.31547l0.28931,-0.00876l-0.0093,0.51894l-0.28759,0.01156l0.00758,-0.52175" fill="none" fill-rule="nonzero" stroke="none" stroke-width="1"></path><path d="M0.42373,1.32799l0.31387,-0.0095l-0.00759,0.52274l-0.30587,0.0123l-0.00041,-0.52554" fill="none" fill-rule="nonzero" stroke="none" stroke-width="1"></path><path d="M0.05,1.3393l0.27373,-0.00828l0.00041,0.52654l-0.27414,0.01102v-0.52928" fill="none" fill-rule="nonzero" stroke="none" stroke-width="1"></path><path d="M2.7031,1.86198l0.2469,-0.00993v0.49968l-0.25389,0.00896l0.00699,-0.49871" fill="none" fill-rule="nonzero" stroke="none" stroke-width="1"></path><path d="M2.34091,1.87654l0.26212,-0.01054l-0.00698,0.49822l-0.26394,0.00931l0.0088,-0.49699" fill="none" fill-rule="nonzero" stroke="none" stroke-width="1"></path><path d="M1.93323,1.89294l0.3076,-0.01237l-0.00879,0.4965l-0.30169,0.01064l0.00288,-0.49477" fill="none" fill-rule="nonzero" stroke="none" stroke-width="1"></path><path d="M1.58508,1.90693l0.24812,-0.00998l-0.00287,0.49428l-0.25329,0.00894l0.00804,-0.49324" fill="none" fill-rule="nonzero" stroke="none" stroke-width="1"></path><path d="M1.21596,1.92178l0.26904,-0.01082l-0.00803,0.49275l-0.26982,0.00952l0.00881,-0.49145" fill="none" fill-rule="nonzero" stroke="none" stroke-width="1"></path><path d="M0.82862,1.93735l0.28725,-0.01155l-0.0088,0.49096l-0.28556,0.01008l0.00711,-0.48948" fill="none" fill-rule="nonzero" stroke="none" stroke-width="1"></path><path d="M0.42422,1.95361l0.30433,-0.01224l-0.0071,0.48899l-0.29686,0.01047l-0.00038,-0.48723" fill="none" fill-rule="nonzero" stroke="none" stroke-width="1"></path><path d="M0.05,1.96866l0.27422,-0.01103l0.00038,0.48673l-0.2746,0.00969v-0.4854" fill="none" fill-rule="nonzero" stroke="none" stroke-width="1"></path><path d="M2.69471,2.4608l0.25529,-0.00901v0.4982h-0.26215l0.00685,-0.4892" fill="none" fill-rule="nonzero" stroke="none" stroke-width="1"></path><path d="M2.33034,2.47366l0.26431,-0.00933l-0.00681,0.48567h-0.26594l0.00844,-0.47634" fill="none" fill-rule="nonzero" stroke="none" stroke-width="1"></path><path d="M1.92977,2.48779l0.30049,-0.0106l-0.00837,0.47281h-0.29481l0.00269,-0.46221" fill="none" fill-rule="nonzero" stroke="none" stroke-width="1"></path><path d="M1.57541,2.5003l0.25434,-0.00897l-0.00267,0.45868h-0.259l0.00733,-0.4497" fill="none" fill-rule="nonzero" stroke="none" stroke-width="1"></path><path d="M1.20535,2.51335l0.26998,-0.00953l-0.00727,0.44617h-0.27054l0.00783,-0.43665" fill="none" fill-rule="nonzero" stroke="none" stroke-width="1"></path><path d="M0.82006,2.52695l0.28521,-0.01006l-0.00776,0.43312h-0.28359l0.00614,-0.42305" fill="none" fill-rule="nonzero" stroke="none" stroke-width="1"></path><path d="M0.05,2.55412l0.3264,-0.01152l0.3436,-0.01212l-0.00609,0.41952h-0.6639v-0.39588" fill="none" fill-rule="nonzero" stroke="none" stroke-width="1"></path><path d="M0,0" fill="none" fill-rule="nonzero" stroke="none" stroke-width="1"></path><path d="M0,0" fill="none" fill-rule="nonzero" stroke="none" stroke-width="1"></path><path d="M0,0" fill="none" fill-rule="nonzero" stroke="none" stroke-width="1"></path><path d="M0,0" fill="none" fill-rule="nonzero" stroke="none" stroke-width="1"></path><path d="M0,0" fill="none" fill-rule="nonzero" stroke="none" stroke-width="1"></path><path d="M0,0" fill="none" fill-rule="nonzero" stroke="none" stroke-width="1"></path><path d="M2.32001,3.05698l0.26638,-0.00273l-0.00718,0.51236l-0.26841,0.01061l0.00921,-0.52024" fill="none" fill-rule="nonzero" stroke="none" stroke-width="1"></path><path d="M1.56621,3.06471l0.31103,-0.00319l0.34274,-0.00352l-0.00927,0.52317l-0.65334,0.02583l0.00884,-0.5423" fill="none" fill-rule="nonzero" stroke="none" stroke-width="1"></path><path d="M1.1954,3.06851l0.27077,-0.00278l-0.00889,0.54523l-0.2718,0.01075l0.00992,-0.5532" fill="none" fill-rule="nonzero" stroke="none" stroke-width="1"></path><path d="M0.81214,3.07244l0.28323,-0.0029l-0.00997,0.55613l-0.28146,0.01113l0.00819,-0.56436" fill="none" fill-rule="nonzero" stroke="none" stroke-width="1"></path><path d="M0.05,0.05h0.27274l0.00039,0.49671l-0.27312,-0.00034v-0.49638M0.42274,0.05h0.33328l-0.00722,0.49724l-0.32567,-0.0004l-0.00039,-0.49684M0.85603,0.05h0.29346l-0.00892,0.49772l-0.29176,-0.00036l0.00722,-0.49736M1.24951,0.05h0.26583l-0.00812,0.49817l-0.26663,-0.00033l0.00892,-0.49784M1.61535,0.05h0.22859l-0.0029,0.49858l-0.23381,-0.00029l0.00812,-0.49829M1.94394,0.05h0.32931l-0.00884,0.4991l-0.32337,-0.0004l0.0029,-0.4987M2.37326,0.05h0.25522l-0.007,0.49954l-0.25706,-0.00032l0.00884,-0.49922M2.72849,0.05h0.22151v0.49994l-0.22851,-0.00028l0.007,-0.49966M0.05,0.64638l0.2732,0.00034l0.00045,0.58426l-0.27365,0.00828v-0.59288M0.4232,0.64684l0.32414,0.0004l-0.00829,0.57117l-0.3154,0.00955l-0.00045,-0.58111M0.84735,0.64736l0.29142,0.00036l-0.01002,0.55889l-0.28965,0.00877l0.00825,-0.56802M1.23879,0.64784l0.26679,0.00033l-0.00892,0.54731l-0.26783,0.00811l0.00996,-0.55574M1.6056,0.64829l0.23486,0.00029l-0.00312,0.53659l-0.24061,0.00728l0.00887,-0.54416M1.94046,0.6487l0.32218,0.0004l-0.00927,0.52348l-0.31601,0.00956l0.0031,-0.53344M2.36265,0.64922l0.25743,0.00032l-0.00718,0.51216l-0.25947,0.00785l0.00922,-0.52033M2.72009,0.64966l0.22991,0.00028v0.50155l-0.23704,0.00717l0.00713,-0.50901M2.71155,1.25875l0.23845,-0.00722v0.50043l-0.2455,0.00987l0.00705,-0.50309M2.35166,1.26964l0.25984,-0.00786l-0.00706,0.50408l-0.26175,0.01052l0.00897,-0.50675M1.93678,1.2822l0.31482,-0.00953l-0.00899,0.50774l-0.30879,0.01242l0.00297,-0.51063M1.59509,1.29254l0.24166,-0.00731l-0.00297,0.51163l-0.24707,0.00993l0.00838,-0.51425M1.22703,1.30368l0.268,-0.00811l-0.0084,0.51524l-0.26888,0.01081l0.00928,-0.51794M0.83765,1.31547l0.28931,-0.00876l-0.0093,0.51894l-0.28759,0.01156l0.00758,-0.52175M0.42373,1.32799l0.31387,-0.0095l-0.00759,0.52274l-0.30587,0.0123l-0.00041,-0.52554M0.05,1.3393l0.27373,-0.00828l0.00041,0.52654l-0.27414,0.01102v-0.52928M2.7031,1.86198l0.2469,-0.00993v0.49968l-0.25389,0.00896l0.00699,-0.49871M2.34091,1.87654l0.26212,-0.01054l-0.00698,0.49822l-0.26394,0.00931l0.0088,-0.49699M1.93323,1.89294l0.3076,-0.01237l-0.00879,0.4965l-0.30169,0.01064l0.00288,-0.49477M1.58508,1.90693l0.24812,-0.00998l-0.00287,0.49428l-0.25329,0.00894l0.00804,-0.49324M1.21596,1.92178l0.26904,-0.01082l-0.00803,0.49275l-0.26982,0.00952l0.00881,-0.49145M0.82862,1.93735l0.28725,-0.01155l-0.0088,0.49096l-0.28556,0.01008l0.00711,-0.48948M0.42422,1.95361l0.30433,-0.01224l-0.0071,0.48899l-0.29686,0.01047l-0.00038,-0.48723M0.05,1.96866l0.27422,-0.01103l0.00038,0.48673l-0.2746,0.00969v-0.4854M2.69471,2.4608l0.25529,-0.00901v0.4982h-0.26215l0.00685,-0.4892M2.33034,2.47366l0.26431,-0.00933l-0.00681,0.48567h-0.26594l0.00844,-0.47634M1.92977,2.48779l0.30049,-0.0106l-0.00837,0.47281h-0.29481l0.00269,-0.46221M1.57541,2.5003l0.25434,-0.00897l-0.00267,0.45868h-0.259l0.00733,-0.4497M1.20535,2.51335l0.26998,-0.00953l-0.00727,0.44617h-0.27054l0.00783,-0.43665M0.82006,2.52695l0.28521,-0.01006l-0.00776,0.43312h-0.28359l0.00614,-0.42305M0.05,2.55412l0.67,-0.02364l-0.00609,0.41952h-0.6639v-0.39588M0,0M0,0M0,0M0,0M0,0M0,0" fill="#d3d3d3" fill-rule="evenodd" stroke="#ff0000" stroke-width="0.005"></path></g></svg>