<svg version="1.1" xmlns="http://www.w3.org/2000/svg" xmlns:xlink="http://www.w3.org/1999/xlink" width="3in" height="3in" viewBox="0 0 3.05 3.05"><g fill="none" fill-rule="none" stroke="none" stroke-width="none" stroke-linecap="butt" stroke-linejoin="miter" stroke-miterlimit="10" stroke-dasharray="" stroke-dashoffset="0" font-family="none" font-weight="none" font-size="none" text-anchor="none" style="mix-blend-mode: normal"><path d="M0,3v-3h3v3z" fill="none" fill-rule="nonzero" stroke="none" stroke-width="1"></path><path d="M0.45,0.65v0.2l-0.15,0.16l-0.15,-0.16v-0.2l0.15,-0.16zM0.37,1.62h-0.14v-0.24h0.14zM0.25,1.06699l-0.08,0.20301l-0.12,-0.1l0.08,-0.23zM0.55,1.17l-0.12,0.1l-0.08,-0.20301l0.12,-0.12699zM0.55,0.33l-0.08,0.23l-0.12,-0.13l0.08,-0.2zM0.25,0.43l-0.12,0.13l-0.08,-0.23l0.12,-0.1zM0.35,1.3h-0.1l0.05,-0.12zM0.3,0.32l-0.05,-0.12h0.1zM0.45,2.15v0.2l-0.15,0.16l-0.15,-0.16v-0.2l0.15,-0.16zM0.25,2.56699l-0.08,0.20301l-0.12,-0.1l0.08,-0.23zM0.55,2.67l-0.12,0.1l-0.08,-0.20301l0.12,-0.12699zM0.55,1.83l-0.08,0.23l-0.12,-0.13l0.08,-0.2zM0.25,1.93l-0.12,0.13l-0.08,-0.23l0.12,-0.1zM0.35,2.8h-0.1l0.05,-0.12zM0.3,1.82l-0.05,-0.12h0.1zM1.05,0.65v0.2l-0.15,0.16l-0.15,-0.16v-0.2l0.15,-0.16zM0.97,1.62h-0.14v-0.24h0.14zM0.67,0.83h-0.14v-0.16h0.14zM1.27,0.83h-0.14v-0.16h0.14zM0.85,1.06699l-0.08,0.20301l-0.12,-0.1l0.08,-0.23zM1.15,1.17l-0.12,0.1l-0.08,-0.20301l0.12,-0.12699zM1.15,0.33l-0.08,0.23l-0.12,-0.13l0.08,-0.2zM0.85,0.43l-0.12,0.13l-0.08,-0.23l0.12,-0.1zM0.95,1.3h-0.1l0.05,-0.12zM0.9,0.32l-0.05,-0.12h0.1zM0.6,1.05l-0.05,-0.14h0.1zM1.2,1.05l-0.05,-0.14h0.1zM1.25,0.59h-0.1l0.05,-0.14zM0.65,0.59h-0.1l0.05,-0.14zM0.75,1.36v0.28l-0.15,0.12l-0.15,-0.12v-0.28l0.15,-0.12zM1.35,1.36v0.28l-0.15,0.12l-0.15,-0.12v-0.28l0.15,-0.12zM1.05,2.15v0.2l-0.15,0.16l-0.15,-0.16v-0.2l0.15,-0.16zM0.67,2.33h-0.14v-0.16h0.14zM1.27,2.33h-0.14v-0.16h0.14zM0.85,2.56699l-0.08,0.20301l-0.12,-0.1l0.08,-0.23zM1.15,2.67l-0.12,0.1l-0.08,-0.20301l0.12,-0.12699zM1.15,1.83l-0.08,0.23l-0.12,-0.13l0.08,-0.2zM0.85,1.93l-0.12,0.13l-0.08,-0.23l0.12,-0.1zM0.95,2.8h-0.1l0.05,-0.12zM0.9,1.82l-0.05,-0.12h0.1zM0.6,2.55l-0.05,-0.14h0.1zM1.2,2.55l-0.05,-0.14h0.1zM1.25,2.09h-0.1l0.05,-0.14zM0.65,2.09h-0.1l0.05,-0.14zM1.65,0.65v0.2l-0.15,0.16l-0.15,-0.16v-0.2l0.15,-0.16zM1.57,1.62h-0.14v-0.24h0.14zM1.45,1.06699l-0.08,0.20301l-0.12,-0.1l0.08,-0.23zM1.75,1.17l-0.12,0.1l-0.08,-0.20301l0.12,-0.12699zM1.75,0.33l-0.08,0.23l-0.12,-0.13l0.08,-0.2zM1.45,0.43l-0.12,0.13l-0.08,-0.23l0.12,-0.1zM1.55,1.3h-0.1l0.05,-0.12zM1.5,0.32l-0.05,-0.12h0.1zM1.65,2.15v0.2l-0.15,0.16l-0.15,-0.16v-0.2l0.15,-0.16zM1.45,2.56699l-0.08,0.20301l-0.12,-0.1l0.08,-0.23zM1.75,2.67l-0.12,0.1l-0.08,-0.20301l0.12,-0.12699zM1.75,1.83l-0.08,0.23l-0.12,-0.13l0.08,-0.2zM1.45,1.93l-0.12,0.13l-0.08,-0.23l0.12,-0.1zM1.55,2.8h-0.1l0.05,-0.12zM1.5,1.82l-0.05,-0.12h0.1zM2.25,0.65v0.2l-0.15,0.16l-0.15,-0.16v-0.2l0.15,-0.16zM2.17,1.62h-0.14v-0.24h0.14zM1.87,0.83h-0.14v-0.16h0.14zM2.47,0.83h-0.14v-0.16h0.14zM2.05,1.06699l-0.08,0.20301l-0.12,-0.1l0.08,-0.23zM2.35,1.17l-0.12,0.1l-0.08,-0.20301l0.12,-0.12699zM2.35,0.33l-0.08,0.23l-0.12,-0.13l0.08,-0.2zM2.05,0.43l-0.12,0.13l-0.08,-0.23l0.12,-0.1zM2.15,1.3h-0.1l0.05,-0.12zM2.1,0.32l-0.05,-0.12h0.1zM1.8,1.05l-0.05,-0.14h0.1zM2.4,1.05l-0.05,-0.14h0.1zM2.45,0.59h-0.1l0.05,-0.14zM1.85,0.59h-0.1l0.05,-0.14zM1.95,1.36v0.28l-0.15,0.12l-0.15,-0.12v-0.28l0.15,-0.12zM2.55,1.36v0.28l-0.15,0.12l-0.15,-0.12v-0.28l0.15,-0.12zM2.25,2.15v0.2l-0.15,0.16l-0.15,-0.16v-0.2l0.15,-0.16zM1.87,2.33h-0.14v-0.16h0.14zM2.47,2.33h-0.14v-0.16h0.14zM2.05,2.56699l-0.08,0.20301l-0.12,-0.1l0.08,-0.23zM2.35,2.67l-0.12,0.1l-0.08,-0.20301l0.12,-0.12699zM2.35,1.83l-0.08,0.23l-0.12,-0.13l0.08,-0.2zM2.05,1.93l-0.12,0.13l-0.08,-0.23l0.12,-0.1zM2.15,2.8h-0.1l0.05,-0.12zM2.1,1.82l-0.05,-0.12h0.1zM1.8,2.55l-0.05,-0.14h0.1zM2.4,2.55l-0.05,-0.14h0.1zM2.45,2.09h-0.1l0.05,-0.14zM1.85,2.09h-0.1l0.05,-0.14zM2.85,0.65v0.2l-0.15,0.16l-0.15,-0.16v-0.2l0.15,-0.16zM2.77,1.62h-0.14v-0.24h0.14zM2.65,1.06699l-0.08,0.20301l-0.12,-0.1l0.08,-0.23zM2.95,1.17l-0.12,0.1l-0.08,-0.20301l0.12,-0.12699zM2.95,0.33l-0.08,0.23l-0.12,-0.13l0.08,-0.2zM2.65,0.43l-0.12,0.13l-0.08,-0.23l0.12,-0.1zM2.75,1.3h-0.1l0.05,-0.12zM2.7,0.32l-0.05,-0.12h0.1zM2.85,2.15v0.2l-0.15,0.16l-0.15,-0.16v-0.2l0.15,-0.16zM2.65,2.56699l-0.08,0.20301l-0.12,-0.1l0.08,-0.23zM2.95,2.67l-0.12,0.1l-0.08,-0.20301l0.12,-0.12699zM2.95,1.83l-0.08,0.23l-0.12,-0.13l0.08,-0.2zM2.65,1.93l-0.12,0.13l-0.08,-0.23l0.12,-0.1zM2.75,2.8h-0.1l0.05,-0.12zM2.7,1.82l-0.05,-0.12h0.1z" fill="#d3d3d3" fill-rule="evenodd" stroke="#ff0000" stroke-width="0.005"></path></g></svg>