<svg version="1.1" xmlns="http://www.w3.org/2000/svg" xmlns:xlink="http://www.w3.org/1999/xlink" width="3in" height="3in" viewBox="0 0 3.05 3.05"><g fill="#d3d3d3" fill-rule="evenodd" stroke="#ff0000" stroke-width="0.005" stroke-linecap="butt" stroke-linejoin="miter" stroke-miterlimit="10" stroke-dasharray="" stroke-dashoffset="0" font-family="none" font-weight="none" font-size="none" text-anchor="none" style="mix-blend-mode: normal"><path d="M0,3v-3h3v3zM1.1304,1.2c-0.25542,0.10257 -0.56277,0.21097 -0.9054,0.3222l0,-0.08427c0.24395,-0.08172 0.46492,-0.16145 0.6554,-0.23794c1.05968,-0.42552 1.17541,-0.75083 1.10878,-0.975l0.2936,0c0.07291,0.22417 -0.09281,0.54948 -1.15238,0.975zM1.11565,1.5c-0.26099,0.10706 -0.56275,0.21411 -0.89065,0.31944l0,-0.08395c0.23298,-0.07804 0.4487,-0.15676 0.64065,-0.2355c1.15674,-0.47445 1.45047,-0.94916 1.57709,-1.275h0.28903c-0.1036,0.32584 -0.45951,0.80055 -1.61612,1.275zM1.15136,1.8c-0.28202,0.11865 -0.59557,0.22947 -0.92636,0.33247l0,-0.08234c0.24033,-0.07911 0.46801,-0.16248 0.67636,-0.25013c0.96594,-0.40633 1.51639,-0.90447 1.87364,-1.3078v0.29924c-0.36399,0.33431 -0.88596,0.6982 -1.62364,1.00855zM1.23855,2.1c-0.32326,0.1399 -0.66599,0.25805 -1.01355,0.35825l0,-0.07798c0.26336,-0.08221 0.52049,-0.17509 0.76355,-0.28027c0.71394,-0.30894 1.30649,-0.72393 1.78645,-1.12208l0,0.22372c-0.43784,0.32553 -0.95572,0.64704 -1.53645,0.89836zM2.72205,1.8c-0.69472,0.31005 -1.61202,0.56665 -2.49705,0.76984l0,-0.06696c0.80713,-0.19168 1.62648,-0.42596 2.24705,-0.70288c0.10673,-0.04763 0.20758,-0.09652 0.30295,-0.14637v0.12244c-0.01751,0.00801 -0.03516,0.01599 -0.05295,0.02393zM2.775,2.01681c-0.81355,0.25482 -1.73616,0.49242 -2.55,0.68666l0,-0.07105c0.82754,-0.2023 1.75664,-0.44412 2.55,-0.70003zM2.775,2.1931c-0.713,0.21235 -1.43898,0.41334 -2.069,0.5819l-0.28429,0c0.6983,-0.19107 1.54075,-0.42383 2.35329,-0.66756zM2.775,2.40776c-0.42178,0.1313 -0.82996,0.25549 -1.20296,0.36724l-0.28011,0c0.44763,-0.13758 0.95649,-0.29401 1.48306,-0.45934zM2.775,2.7339c-0.04876,0.0139 -0.09701,0.02761 -0.14468,0.0411h-0.28429c0.13759,-0.03989 0.28109,-0.0816 0.42898,-0.12485z"></path></g></svg>