<svg version="1.1" xmlns="http://www.w3.org/2000/svg" xmlns:xlink="http://www.w3.org/1999/xlink" width="3in" height="3.000000000000002in" viewBox="0 -1.4432899320127035e-15 3.05 3.050000000000002"><g fill="none" fill-rule="none" stroke="none" stroke-width="none" stroke-linecap="butt" stroke-linejoin="miter" stroke-miterlimit="10" stroke-dasharray="" stroke-dashoffset="0" font-family="none" font-weight="none" font-size="none" text-anchor="none" style="mix-blend-mode: normal"><path d="M0,3v-3h3v3z" fill="none" fill-rule="nonzero" stroke="none" stroke-width="1"></path><path d="M0,3v-3h3v3z" fill="none" fill-rule="nonzero" stroke="none" stroke-width="1"></path><path d="M0.45411,2.7874l0.16291,0.02432l-0.073,0.10224l0,0.08604h-0.54401v-0.17366zM1.02763,2.73821l-0.0217,0.03046l-0.12167,-0.01816zM0.9025,2.91383l0,0.08617l-0.07804,0l0.00713,-0.15625l0.10923,0.01631zM0.72805,2.8283l0.04635,0.00692l0,0.16478l-0.16896,0zM1.77849,2.80564l-0.0382,0.07267l-0.11137,-0.01663l-0.05304,-0.09305zM1.3314,2.81726l0.00548,-0.03148l0.05824,-0.05017l0.05228,0.00955l0.05571,0.09773zM1.65021,2.96597l0.08259,0.01233l0,0.0217h-0.08259zM1.31425,2.91581l0.25185,0.0376l0.02656,0.04659l-0.29306,0zM1.0518,2.87663l0.02249,0.00336l-0.06272,0.05402l0,0.06599l-0.04767,0zM1.24884,2.90605l0,0.09395l-0.16066,0l0.1167,-0.10052zM1.15841,2.727l0.09043,-0.00776l0,0.01039l-0.07451,0.06418l-0.05742,-0.00857zM2.70127,2.97418l0.011,0.02582h-0.49546v-0.05055l-0.02932,-0.00438v-0.03314l-0.02493,-0.03615zM1.94355,2.90865l0.03225,-0.06698l0.04778,0.00873l0.05397,0.07825zM1.79576,2.9877l0.0483,0.00721l0,0.00509l-0.05477,0zM0.75486,2.61867l-0.03238,0.04534l-0.26522,0.02275l-0.45726,-0.06826v-0.1377zM0.02711,2.72365l-0.02711,0.00232v-0.00637zM0.91344,2.64764l-0.06007,0.00515l0.01018,-0.01426zM0.11844,0.08807l0.12452,0.18055l-0.08582,0.01106l-0.15714,-0.27567v-0.00401l0.11844,0zM0.04991,0.2935l-0.04991,0.00643v-0.09399zM0.8526,0.19004l-0.49808,0.0642l-0.17534,-0.25424l0.68209,0zM1.48894,0.10803l-0.32991,0.04252l-0.10006,-0.15055l0.42998,0zM0.91132,0.18247l0,-0.18247l0.0876,0v0.09033l0.0495,0.07447zM0.13462,0.44212l0.406,0.71227l-0.00857,0.00941l-0.53206,0.51629v-1.25622zM0.38613,0.47621l0.33277,0.4825l-0.10747,0.11796l-0.35206,-0.61764zM0.83675,0.5373l-0.01403,0.30747l-0.03467,0.03806l-0.2679,-0.38844zM1.07359,0.5694l-0.16227,0.17811l0,-0.20011zM1.39052,0.22154l-0.10657,0.11697l-0.0632,-0.09509zM1.15543,0.47958l-0.2441,-0.03309v-0.16319l0.19883,-0.02563l0.10438,0.15704zM0.29421,0.36284l0.01261,-0.00163l0.00254,0.00368zM0.84797,0.29147l-0.00664,0.14554l-0.39796,-0.05395l-0.02498,-0.03622zM2.01224,1.35632l-0.0268,0.03762l-0.11242,-0.16914l0.05212,-0.07299zM1.55612,1.99648l-0.06538,-0.09479l0.03257,-0.18713l0.28752,-0.40267l0.11248,0.16923zM1.44778,2.14853l0.01848,-0.1062l0.02813,0.04078zM1.13568,2.58657l-0.20791,-0.03797l0.22665,-0.31742l0.10421,0.18283zM1.3793,1.91624l0.00591,0.00857l-0.06791,0.39019l-0.09888,-0.17347zM0.59269,1.24572l0.19603,0.3439l-0.01431,0.31366v0.61731l-0.77441,-0.14144v-0.48288zM0.7863,1.05643l0.0251,0.03639l-0.01414,0.30985l-0.13097,-0.22977zM1.26189,0.59493l0.07958,0.01079l0.2166,0.32589l-0.12938,0.74338l-0.04797,0.06718l-0.4694,-0.6806v-0.12646zM1.60849,0.64191l-0.0255,0.14652l-0.10955,-0.16483zM0.8478,2.4885l0.0336,-0.73628l0.21847,0.38326zM0.90529,1.22895l0.41364,0.59976l-0.15505,0.21714l-0.27394,-0.48059zM1.56337,0.30238l0.07398,0.1737l-0.0117,0.06724l-0.22592,-0.03063l-0.02081,-0.03132zM1.87923,1.04402l-0.06545,0.09166l-0.15035,-0.22622l0.04422,-0.25411l0.00642,0.00087zM1.56291,1.48701l0.0756,-0.43439l0.11308,0.17014zM2.5041,2.51122l-0.38508,0.03302l0.21181,-0.43985zM1.24432,2.60642l0.02946,-0.04135l-0.00788,0.04529zM2.05817,1.46418l0.04648,0.10913l-0.05996,-0.09021zM1.75881,2.29037l-0.1423,-0.20632l0.36606,-0.51376l0.22289,0.33536zM1.92369,2.52943l-0.10777,-0.15626l0.34706,-0.29894zM1.3677,2.60868l0.00044,-0.00255l0.00137,0.0024zM1.4081,2.37656l0.14669,-0.20588l0.12782,0.18533l-0.22933,0.19753l-0.05821,-0.10212zM1.82955,2.56907l-0.26773,0.02296l0.17789,-0.15322zM2.65433,2.86395l-0.57198,-0.10447l-0.03944,-0.05718l0.0257,-0.05337l0.47673,-0.04089zM1.6661,2.68346l0.18495,-0.01586l-0.02381,0.04529zM2.71595,2.49305l-0.30872,-0.46449l-0.01872,-0.04395l0.08611,-0.17883l0.46258,-0.39844l0.06279,0.12645v0.93489zM2.79977,1.13058l0.09153,0.18432l-0.30807,0.26536zM2.1262,1.3687l0.40583,-0.56959l0.16174,0.11801l0.03763,0.07578l-0.42275,0.8042zM2.87846,0.71315l-0.18692,-0.02534l-0.03294,-0.06634l0.34139,-0.47915v0.33962zM2.79679,0.86851l-0.02433,-0.01775l-0.02719,-0.05475l0.08367,0.01134zM2.86886,1.04488l0.13114,0.09568v0.08071l-0.0305,0.02627zM2.89239,0.93825l0.05529,-0.11481l0.05233,0.00709v0.18624zM2.99329,0.72871l0.00671,-0.01394v0.01484zM1.67777,0.05203l-0.01777,-0.01297l0,-0.03906l0.0602,0l-0.00227,0.01306zM2.29417,0.00424l-0.49098,0.06328l0,-0.06752l0.49098,0zM2.29417,0.11242l0.10266,0.20672l-0.1209,0.16932l-0.44383,-0.32383l0.46208,-0.05955zM1.94731,0.94867l-0.11789,-0.27681l0.2877,0.039zM1.74094,0.46409l0.03002,-0.17248v-0.04781l0.44686,0.32604l-0.03499,0.049l-0.39901,-0.05409zM1.64028,0.22775l0.04564,-0.04428l0.00199,-0.00026l0.00037,0.00027l-0.01939,0.11142zM2.54238,0.61226l-0.0331,0.04646l-0.15257,-0.11132l0.09052,-0.12676zM2.08027,1.26084l-0.08704,-0.20438l0.23593,-0.33042l0.21171,0.0287zM2.29859,0.62879l0.00968,0.00706l-0.01342,-0.00182zM2.60818,0.51992l-0.0951,-0.1915l0.17306,-0.24237v-0.03149l0.0321,-0.00414v-0.05041l0.26038,0zM2.39567,0.09199l0.17991,-0.02319l-0.1129,0.15812zM2.99286,2.92578v-0.01611l-0.21379,-0.32167l0.22094,-0.01895v0.35803zM2.76661,2.88446v-0.01207l-0.11641,-0.27334l0.01526,-0.00131l0.20292,0.3053zM2.76661,2.98612l0.07602,0.01388h-0.07602z" fill="#d3d3d3" fill-rule="evenodd" stroke="#ff0000" stroke-width="0.005"></path></g></svg>