<svg version="1.1" xmlns="http://www.w3.org/2000/svg" xmlns:xlink="http://www.w3.org/1999/xlink" width="3.0000000000000004in" height="3.0000000000000004in" viewBox="0 0 3.0500000000000003 3.0500000000000003"><g fill="none" fill-rule="none" stroke="none" stroke-width="none" stroke-linecap="butt" stroke-linejoin="miter" stroke-miterlimit="10" stroke-dasharray="" stroke-dashoffset="0" font-family="none" font-weight="none" font-size="none" text-anchor="none" style="mix-blend-mode: normal"><path d="M0,3v-3h3v3z" fill="none" fill-rule="nonzero" stroke="none" stroke-width="1"></path><path d="M2.28201,3v-1.38975h0.71799v1.38975z" fill="none" fill-rule="nonzero" stroke="none" stroke-width="1"></path><path d="M2.28201,1.46025v-1.46025h0.71799v1.46025z" fill="none" fill-rule="nonzero" stroke="none" stroke-width="1"></path><path d="M1.28366,3v-1.00768h0.84835v1.00768z" fill="none" fill-rule="nonzero" stroke="none" stroke-width="1"></path><path d="M1.28366,1.84232v-0.38195h0.84835v0.38195z" fill="none" fill-rule="nonzero" stroke="none" stroke-width="1"></path><path d="M1.28366,1.31037v-1.31037h0.84835v1.31037z" fill="none" fill-rule="nonzero" stroke="none" stroke-width="1"></path><path d="M0,3v-3h1.13366v3z" fill="none" fill-rule="nonzero" stroke="none" stroke-width="1"></path><path d="M2.28201,3v-1.38975" fill="none" fill-rule="nonzero" stroke="none" stroke-width="1"></path><path d="M2.28201,1.61025h0.71799" fill="none" fill-rule="nonzero" stroke="none" stroke-width="1"></path><path d="M2.28201,1.61025h0.71799" fill="none" fill-rule="nonzero" stroke="none" stroke-width="1"></path><path d="M3,1.61025v1.38975" fill="none" fill-rule="nonzero" stroke="none" stroke-width="1"></path><path d="M3,1.61025v1.38975" fill="none" fill-rule="nonzero" stroke="none" stroke-width="1"></path><path d="M3,3h-0.71799" fill="none" fill-rule="nonzero" stroke="none" stroke-width="1"></path><path d="M3,3h-0.71799" fill="none" fill-rule="nonzero" stroke="none" stroke-width="1"></path><path d="M2.28201,3v-1.38975" fill="none" fill-rule="nonzero" stroke="none" stroke-width="1"></path><path d="M2.28201,1.46025v-1.46025" fill="none" fill-rule="nonzero" stroke="none" stroke-width="1"></path><path d="M2.28201,0h0.71799" fill="none" fill-rule="nonzero" stroke="none" stroke-width="1"></path><path d="M2.28201,0h0.71799" fill="none" fill-rule="nonzero" stroke="none" stroke-width="1"></path><path d="M3,0v1.46025" fill="none" fill-rule="nonzero" stroke="none" stroke-width="1"></path><path d="M3,0v1.46025" fill="none" fill-rule="nonzero" stroke="none" stroke-width="1"></path><path d="M3,1.46025h-0.71799" fill="none" fill-rule="nonzero" stroke="none" stroke-width="1"></path><path d="M3,1.46025h-0.71799" fill="none" fill-rule="nonzero" stroke="none" stroke-width="1"></path><path d="M2.28201,1.46025v-1.46025" fill="none" fill-rule="nonzero" stroke="none" stroke-width="1"></path><path d="M1.28366,3v-1.00768" fill="none" fill-rule="nonzero" stroke="none" stroke-width="1"></path><path d="M1.28366,1.99232h0.84835" fill="none" fill-rule="nonzero" stroke="none" stroke-width="1"></path><path d="M1.28366,1.99232h0.84835" fill="none" fill-rule="nonzero" stroke="none" stroke-width="1"></path><path d="M2.13201,1.99232v1.00768" fill="none" fill-rule="nonzero" stroke="none" stroke-width="1"></path><path d="M2.13201,1.99232v1.00768" fill="none" fill-rule="nonzero" stroke="none" stroke-width="1"></path><path d="M2.13201,3h-0.84835" fill="none" fill-rule="nonzero" stroke="none" stroke-width="1"></path><path d="M2.13201,3h-0.84835" fill="none" fill-rule="nonzero" stroke="none" stroke-width="1"></path><path d="M1.28366,3v-1.00768" fill="none" fill-rule="nonzero" stroke="none" stroke-width="1"></path><path d="M1.28366,1.84232v-0.38195" fill="none" fill-rule="nonzero" stroke="none" stroke-width="1"></path><path d="M1.28366,1.46037h0.84835" fill="none" fill-rule="nonzero" stroke="none" stroke-width="1"></path><path d="M1.28366,1.46037h0.84835" fill="none" fill-rule="nonzero" stroke="none" stroke-width="1"></path><path d="M2.13201,1.46037v0.38195" fill="none" fill-rule="nonzero" stroke="none" stroke-width="1"></path><path d="M2.13201,1.46037v0.38195" fill="none" fill-rule="nonzero" stroke="none" stroke-width="1"></path><path d="M2.13201,1.84232h-0.84835" fill="none" fill-rule="nonzero" stroke="none" stroke-width="1"></path><path d="M2.13201,1.84232h-0.84835" fill="none" fill-rule="nonzero" stroke="none" stroke-width="1"></path><path d="M1.28366,1.84232v-0.38195" fill="none" fill-rule="nonzero" stroke="none" stroke-width="1"></path><path d="M1.28366,1.31037v-1.31037" fill="none" fill-rule="nonzero" stroke="none" stroke-width="1"></path><path d="M1.28366,0h0.84835" fill="none" fill-rule="nonzero" stroke="none" stroke-width="1"></path><path d="M1.28366,0h0.84835" fill="none" fill-rule="nonzero" stroke="none" stroke-width="1"></path><path d="M2.13201,0v1.31037" fill="none" fill-rule="nonzero" stroke="none" stroke-width="1"></path><path d="M2.13201,0v1.31037" fill="none" fill-rule="nonzero" stroke="none" stroke-width="1"></path><path d="M2.13201,1.31037h-0.84835" fill="none" fill-rule="nonzero" stroke="none" stroke-width="1"></path><path d="M2.13201,1.31037h-0.84835" fill="none" fill-rule="nonzero" stroke="none" stroke-width="1"></path><path d="M1.28366,1.31037v-1.31037" fill="none" fill-rule="nonzero" stroke="none" stroke-width="1"></path><path d="M0,3v-3" fill="none" fill-rule="nonzero" stroke="none" stroke-width="1"></path><path d="M0,0h1.13366" fill="none" fill-rule="nonzero" stroke="none" stroke-width="1"></path><path d="M0,0h1.13366" fill="none" fill-rule="nonzero" stroke="none" stroke-width="1"></path><path d="M1.13366,0v3" fill="none" fill-rule="nonzero" stroke="none" stroke-width="1"></path><path d="M1.13366,0v3" fill="none" fill-rule="nonzero" stroke="none" stroke-width="1"></path><path d="M1.13366,3h-1.13366" fill="none" fill-rule="nonzero" stroke="none" stroke-width="1"></path><path d="M1.13366,3h-1.13366" fill="none" fill-rule="nonzero" stroke="none" stroke-width="1"></path><path d="M0,3v-3" fill="none" fill-rule="nonzero" stroke="none" stroke-width="1"></path><path d="M2.28201,2.16615c0,-0.5281 0.01436,-0.5559 0.2872,-0.5559h0.1436c0.27284,0 0.2872,0.02779 0.2872,0.5559v0.27795c0,0.5281 -0.01436,0.5559 -0.2872,0.5559h-0.1436c-0.27284,0 -0.2872,-0.02779 -0.2872,-0.5559zM2.28201,0.5841c0,-0.5549 0.01436,-0.5841 0.2872,-0.5841h0.1436c0.27284,0 0.2872,0.02921 0.2872,0.5841v0.29205c0,0.5549 -0.01436,0.5841 -0.2872,0.5841h-0.1436c-0.27284,0 -0.2872,-0.02921 -0.2872,-0.5841zM1.28366,2.39539c0,-0.38292 0.01697,-0.40307 0.33934,-0.40307h0.16967c0.32237,0 0.33934,0.02015 0.33934,0.40307v0.20154c0,0.38292 -0.01697,0.40307 -0.33934,0.40307h-0.16967c-0.32237,0 -0.33934,-0.02015 -0.33934,-0.40307zM1.28366,1.61315c0,-0.14514 0.01697,-0.15278 0.33934,-0.15278h0.16967c0.32237,0 0.33934,0.00764 0.33934,0.15278v0.07639c0,0.14514 -0.01697,0.15278 -0.33934,0.15278h-0.16967c-0.32237,0 -0.33934,-0.00764 -0.33934,-0.15278zM1.28366,0.52415c0,-0.49794 0.01697,-0.52415 0.33934,-0.52415h0.16967c0.32237,0 0.33934,0.02621 0.33934,0.52415v0.26207c0,0.49794 -0.01697,0.52415 -0.33934,0.52415h-0.16967c-0.32237,0 -0.33934,-0.02621 -0.33934,-0.52415zM0,1.2c0,-1.14 0.02267,-1.2 0.45346,-1.2h0.22673c0.43079,0 0.45346,0.06 0.45346,1.2v0.6c0,1.14 -0.02267,1.2 -0.45346,1.2h-0.22673c-0.43079,0 -0.45346,-0.06 -0.45346,-1.2z" fill="#d3d3d3" fill-rule="evenodd" stroke="#ff0000" stroke-width="0.005"></path></g></svg>