<svg version="1.1" xmlns="http://www.w3.org/2000/svg" xmlns:xlink="http://www.w3.org/1999/xlink" width="3in" height="3in" viewBox="0 0 3.05 3.05"><g fill="#d3d3d3" fill-rule="evenodd" stroke="#ff0000" stroke-width="0.005" stroke-linecap="butt" stroke-linejoin="miter" stroke-miterlimit="10" stroke-dasharray="" stroke-dashoffset="0" font-family="none" font-weight="none" font-size="none" text-anchor="none" style="mix-blend-mode: normal"><path d="M0,3v-3h3v3zM0.275,0.275h0.21683l0.00032,0.4072l-0.21715,-0.00027v-0.40693M0.59183,0.275h0.26817l-0.00592,0.40764l-0.26194,-0.00032l-0.00032,-0.40732M0.96001,0.275h0.23442l-0.00731,0.40805l-0.23302,-0.00029l0.00592,-0.40776M1.29445,0.275h0.21097l-0.00666,0.40843l-0.21162,-0.00026l0.00732,-0.40817M1.60542,0.275h0.17938l-0.00238,0.40878l-0.18366,-0.00023l0.00666,-0.40856M1.88481,0.275h0.26482l-0.00725,0.40922l-0.25995,-0.00032l0.00238,-0.4089M2.24964,0.275h0.20196l-0.00574,0.4096l-0.20347,-0.00025l0.00725,-0.40935M0.275,0.78193l0.21723,0.00027l0.00037,0.48186l-0.2176,0.00659v-0.48871M0.59223,0.78232l0.26041,0.00032l-0.00684,0.47072l-0.2532,0.00766l-0.00037,-0.47871M0.95264,0.78276l0.23268,0.00029l-0.00825,0.46029l-0.23122,0.007l0.00679,-0.46757M1.28534,0.78317l0.21179,0.00026l-0.00734,0.45044l-0.21264,0.00644l0.00819,-0.45714M1.59713,0.78355l0.18471,0.00023l-0.00257,0.44133l-0.18944,0.00573l0.00729,-0.44729M1.88185,0.7839l0.25876,0.00032l-0.00762,0.43019l-0.25369,0.00768l0.00255,-0.43818M2.24062,0.78434l0.20384,0.00025l-0.00589,0.42056l-0.20551,0.00622l0.00756,-0.42703M2.23129,1.31148l0.20588,-0.00623l-0.00579,0.41353l-0.20745,0.00834l0.00736,-0.41564M1.87872,1.32215l0.2525,-0.00764l-0.00738,0.41664l-0.24756,0.00995l0.00244,-0.41895M1.58821,1.33094l0.19049,-0.00576l-0.00244,0.41994l-0.19492,0.00784l0.00688,-0.42202M1.27535,1.34041l0.2128,-0.00644l-0.0069,0.42301l-0.21352,0.00859l0.00762,-0.42516M0.9444,1.35043l0.23088,-0.00699l-0.00764,0.42615l-0.22946,0.00923l0.00622,-0.42839M0.59268,1.36107l0.25167,-0.00762l-0.00624,0.42939l-0.2451,0.00986l-0.00034,-0.43163M0.275,1.37068l0.21768,-0.00659l0.00034,0.43262l-0.21801,0.00877v-0.4348M2.22215,1.82727l0.20782,-0.00836l-0.00572,0.40843l-0.20931,0.00739l0.00722,-0.40746M1.8757,1.8412l0.24636,-0.00991l-0.00721,0.40697l-0.24151,0.00852l0.00236,-0.40558M1.5797,1.8531l0.19597,-0.00788l-0.00236,0.40509l-0.20021,0.00706l0.00659,-0.40427M1.26593,1.86572l0.21369,-0.00859l-0.00658,0.40378l-0.21432,0.00756l0.00722,-0.40275M0.93672,1.87896l0.22912,-0.00921l-0.00721,0.40226l-0.22774,0.00804l0.00582,-0.40108M0.59309,1.89277l0.24356,-0.00979l-0.00582,0.40058l-0.23744,0.00838l-0.00031,-0.39917M0.275,1.90556l0.21809,-0.00877l0.00031,0.39868l-0.2184,0.00771v-0.39761M2.21316,2.33485l0.20968,-0.0074l-0.00562,0.40121l-0.21107,0.00216l0.00701,-0.39598M1.87276,2.34687l0.24032,-0.00848l-0.00697,0.39347l-0.23561,0.00242l0.00225,-0.38741M1.57148,2.3575l0.20126,-0.0071l-0.00224,0.38491l-0.20521,0.0021l0.00619,-0.37991M1.25692,2.36859l0.21449,-0.00757l-0.00615,0.3774l-0.215,0.00221l0.00667,-0.37204M0.92945,2.38015l0.2274,-0.00802l-0.00662,0.36954l-0.22606,0.00232l0.00528,-0.36383"></path></g></svg>