<svg version="1.1" xmlns="http://www.w3.org/2000/svg" xmlns:xlink="http://www.w3.org/1999/xlink" width="3in" height="3in" viewBox="0 0 3.05 3.05"><g fill="#d3d3d3" fill-rule="evenodd" stroke="#ff0000" stroke-width="0.005" stroke-linecap="butt" stroke-linejoin="miter" stroke-miterlimit="10" stroke-dasharray="" stroke-dashoffset="0" font-family="none" font-weight="none" font-size="none" text-anchor="none" style="mix-blend-mode: normal"><path d="M0,3v-3h3v3zM0.58675,2.72415l0.03107,0.05085h-0.39283l0,-0.03075zM1.06796,0.39038l-0.15289,0.21113l-0.69007,-0.29291v-0.0836h0.44952zM1.47566,2.56426l0.19689,-0.27731l1.10244,0.46582v0.02224l-0.79208,0zM1.18522,0.22892l-0.05821,0.08004l-0.19941,-0.08396l0.26067,0zM0.85358,0.68346l-0.09003,0.11774l-0.0653,0.09433l-0.47324,-0.19819l0,-0.27428zM0.63712,0.98667l-0.14948,0.22778l-0.26264,-0.10943l0,-0.29447zM0.42944,1.2973l-0.19974,0.26888l-0.0047,-0.00195l0,-0.35212zM0.27286,2.18168l0.12015,0.20276l-0.16801,0.00357l0,-0.20824zM0.45034,2.48334l0.08166,0.1429l-0.30699,0.01706l0,-0.15753zM1.41697,2.64692l0.30829,0.12808h-0.39923zM1.73202,2.20435l0.19388,-0.26658l0.8491,0.35878v0.34115zM1.98561,1.85567l0.16644,-0.22885l0.62296,0.25883l0,0.30356zM2.21861,1.53781l0.15439,-0.21153l0.402,0.16986l0,0.27677zM2.43287,1.24425l0.15646,-0.21438l0.05053,0.02124l0.13514,0.057l0,0.2807zM2.64806,0.94941l0.12694,-0.17392l0,0.22737zM2.775,0.225v0.01137l-0.02728,-0.01137zM2.05696,1.58688l-0.16618,0.22849l-1.30938,-0.56116l0.14941,-0.22768zM0.5252,1.33769l1.30594,0.55969l-0.19422,0.26705l-1.30546,-0.55551zM2.49423,0.98989l-0.15635,0.21422l-1.32869,-0.56142l0.15379,-0.21237zM2.27801,1.28614l-0.15439,0.21153l-1.32761,-0.56096l0.0579,-0.07527l0.09626,-0.13636z"></path></g></svg>