<svg version="1.1" xmlns="http://www.w3.org/2000/svg" xmlns:xlink="http://www.w3.org/1999/xlink" width="3in" height="3in" viewBox="0 0 3.05 3.05"><g fill="none" fill-rule="none" stroke="none" stroke-width="none" stroke-linecap="butt" stroke-linejoin="miter" stroke-miterlimit="10" stroke-dasharray="" stroke-dashoffset="0" font-family="none" font-weight="none" font-size="none" text-anchor="none" style="mix-blend-mode: normal"><path d="M0,3v-3h3v3z" fill="none" fill-rule="nonzero" stroke="none" stroke-width="1"></path><path d="M0.45,0.53v0.23l-0.15,0.18l-0.15,-0.18v-0.23l0.15,-0.18zM0.37,1.64h-0.14v-0.28h0.14zM0.25,1.00637l-0.08,0.23363l-0.12,-0.11l0.08,-0.27zM0.55,1.13l-0.12,0.11l-0.08,-0.23363l0.12,-0.14637zM0.55,0.16l-0.08,0.27l-0.12,-0.15l0.08,-0.23zM0.25,0.28l-0.12,0.15l-0.08,-0.27l0.12,-0.11zM0.35,1.28h-0.1l0.05,-0.15zM0.3,0.16l-0.05,-0.15h0.1zM0.45,2.24v0.23l-0.15,0.18l-0.15,-0.18v-0.23l0.15,-0.18zM0.25,2.71637l-0.08,0.23363l-0.12,-0.11l0.08,-0.27zM0.55,2.84l-0.12,0.11l-0.08,-0.23363l0.12,-0.14637zM0.55,1.87l-0.08,0.27l-0.12,-0.15l0.08,-0.23zM0.25,1.99l-0.12,0.15l-0.08,-0.27l0.12,-0.11zM0.35,2.99h-0.1l0.05,-0.15zM0.3,1.87l-0.05,-0.15h0.1zM1.05,0.53v0.23l-0.15,0.18l-0.15,-0.18v-0.23l0.15,-0.18zM0.97,1.64h-0.14v-0.28h0.14zM0.67,0.74h-0.14v-0.19h0.14zM1.27,0.74h-0.14v-0.19h0.14zM0.85,1.00637l-0.08,0.23363l-0.12,-0.11l0.08,-0.27zM1.15,1.13l-0.12,0.11l-0.08,-0.23363l0.12,-0.14637zM1.15,0.16l-0.08,0.27l-0.12,-0.15l0.08,-0.23zM0.85,0.28l-0.12,0.15l-0.08,-0.27l0.12,-0.11zM0.95,1.28h-0.1l0.05,-0.15zM0.9,0.16l-0.05,-0.15h0.1zM0.6,1l-0.05,-0.18h0.1zM1.2,1l-0.05,-0.18h0.1zM1.25,0.47h-0.1l0.05,-0.18zM0.65,0.47h-0.1l0.05,-0.18zM0.75,1.34v0.32l-0.15,0.14l-0.15,-0.14v-0.32l0.15,-0.14zM1.35,1.34v0.32l-0.15,0.14l-0.15,-0.14v-0.32l0.15,-0.14zM1.05,2.24v0.23l-0.15,0.18l-0.15,-0.18v-0.23l0.15,-0.18zM0.67,2.45h-0.14v-0.19h0.14zM1.27,2.45h-0.14v-0.19h0.14zM0.85,2.71637l-0.08,0.23363l-0.12,-0.11l0.08,-0.27zM1.15,2.84l-0.12,0.11l-0.08,-0.23363l0.12,-0.14637zM1.15,1.87l-0.08,0.27l-0.12,-0.15l0.08,-0.23zM0.85,1.99l-0.12,0.15l-0.08,-0.27l0.12,-0.11zM0.95,2.99h-0.1l0.05,-0.15zM0.9,1.87l-0.05,-0.15h0.1zM0.6,2.71l-0.05,-0.18h0.1zM1.2,2.71l-0.05,-0.18h0.1zM1.25,2.18h-0.1l0.05,-0.18zM0.65,2.18h-0.1l0.05,-0.18zM1.65,0.53v0.23l-0.15,0.18l-0.15,-0.18v-0.23l0.15,-0.18zM1.57,1.64h-0.14v-0.28h0.14zM1.45,1.00637l-0.08,0.23363l-0.12,-0.11l0.08,-0.27zM1.75,1.13l-0.12,0.11l-0.08,-0.23363l0.12,-0.14637zM1.75,0.16l-0.08,0.27l-0.12,-0.15l0.08,-0.23zM1.45,0.28l-0.12,0.15l-0.08,-0.27l0.12,-0.11zM1.55,1.28h-0.1l0.05,-0.15zM1.5,0.16l-0.05,-0.15h0.1zM1.65,2.24v0.23l-0.15,0.18l-0.15,-0.18v-0.23l0.15,-0.18zM1.45,2.71637l-0.08,0.23363l-0.12,-0.11l0.08,-0.27zM1.75,2.84l-0.12,0.11l-0.08,-0.23363l0.12,-0.14637zM1.75,1.87l-0.08,0.27l-0.12,-0.15l0.08,-0.23zM1.45,1.99l-0.12,0.15l-0.08,-0.27l0.12,-0.11zM1.55,2.99h-0.1l0.05,-0.15zM1.5,1.87l-0.05,-0.15h0.1zM2.25,0.53v0.23l-0.15,0.18l-0.15,-0.18v-0.23l0.15,-0.18zM2.17,1.64h-0.14v-0.28h0.14zM1.87,0.74h-0.14v-0.19h0.14zM2.47,0.74h-0.14v-0.19h0.14zM2.05,1.00637l-0.08,0.23363l-0.12,-0.11l0.08,-0.27zM2.35,1.13l-0.12,0.11l-0.08,-0.23363l0.12,-0.14637zM2.35,0.16l-0.08,0.27l-0.12,-0.15l0.08,-0.23zM2.05,0.28l-0.12,0.15l-0.08,-0.27l0.12,-0.11zM2.15,1.28h-0.1l0.05,-0.15zM2.1,0.16l-0.05,-0.15h0.1zM1.8,1l-0.05,-0.18h0.1zM2.4,1l-0.05,-0.18h0.1zM2.45,0.47h-0.1l0.05,-0.18zM1.85,0.47h-0.1l0.05,-0.18zM1.95,1.34v0.32l-0.15,0.14l-0.15,-0.14v-0.32l0.15,-0.14zM2.55,1.34v0.32l-0.15,0.14l-0.15,-0.14v-0.32l0.15,-0.14zM2.25,2.24v0.23l-0.15,0.18l-0.15,-0.18v-0.23l0.15,-0.18zM1.87,2.45h-0.14v-0.19h0.14zM2.47,2.45h-0.14v-0.19h0.14zM2.05,2.71637l-0.08,0.23363l-0.12,-0.11l0.08,-0.27zM2.35,2.84l-0.12,0.11l-0.08,-0.23363l0.12,-0.14637zM2.35,1.87l-0.08,0.27l-0.12,-0.15l0.08,-0.23zM2.05,1.99l-0.12,0.15l-0.08,-0.27l0.12,-0.11zM2.15,2.99h-0.1l0.05,-0.15zM2.1,1.87l-0.05,-0.15h0.1zM1.8,2.71l-0.05,-0.18h0.1zM2.4,2.71l-0.05,-0.18h0.1zM2.45,2.18h-0.1l0.05,-0.18zM1.85,2.18h-0.1l0.05,-0.18zM2.85,0.53v0.23l-0.15,0.18l-0.15,-0.18v-0.23l0.15,-0.18zM2.77,1.64h-0.14v-0.28h0.14zM2.65,1.00637l-0.08,0.23363l-0.12,-0.11l0.08,-0.27zM2.95,1.13l-0.12,0.11l-0.08,-0.23363l0.12,-0.14637zM2.95,0.16l-0.08,0.27l-0.12,-0.15l0.08,-0.23zM2.65,0.28l-0.12,0.15l-0.08,-0.27l0.12,-0.11zM2.75,1.28h-0.1l0.05,-0.15zM2.7,0.16l-0.05,-0.15h0.1zM2.85,2.24v0.23l-0.15,0.18l-0.15,-0.18v-0.23l0.15,-0.18zM2.65,2.71637l-0.08,0.23363l-0.12,-0.11l0.08,-0.27zM2.95,2.84l-0.12,0.11l-0.08,-0.23363l0.12,-0.14637zM2.95,1.87l-0.08,0.27l-0.12,-0.15l0.08,-0.23zM2.65,1.99l-0.12,0.15l-0.08,-0.27l0.12,-0.11zM2.75,2.99h-0.1l0.05,-0.15zM2.7,1.87l-0.05,-0.15h0.1z" fill="#d3d3d3" fill-rule="evenodd" stroke="#ff0000" stroke-width="0.005"></path></g></svg>