<svg version="1.1" xmlns="http://www.w3.org/2000/svg" xmlns:xlink="http://www.w3.org/1999/xlink" width="3in" height="3in" viewBox="0 0 3.05 3.05"><g fill="none" fill-rule="none" stroke="none" stroke-width="none" stroke-linecap="butt" stroke-linejoin="miter" stroke-miterlimit="10" stroke-dasharray="" stroke-dashoffset="0" font-family="none" font-weight="none" font-size="none" text-anchor="none" style="mix-blend-mode: normal"><path d="M0,3v-3h3v3z" fill="none" fill-rule="nonzero" stroke="none" stroke-width="1"></path><path d="M0.24296,0.26862l-0.08582,0.01106l-0.10714,-0.18795v-0.04173h0.04218l0.15078,0.21862" fill="none" fill-rule="nonzero" stroke="none" stroke-width="1"></path><path d="M0.8526,0.19004l-0.49808,0.0642l-0.14086,-0.20424h0.64533l-0.00639,0.14004" fill="none" fill-rule="nonzero" stroke="none" stroke-width="1"></path><path d="M1.04842,0.1648l-0.09513,0.01226l0.0058,-0.12706h0.01303l0.0763,0.1148" fill="none" fill-rule="nonzero" stroke="none" stroke-width="1"></path><path d="M1.45588,0.05l0.02515,0.05905l-0.32201,0.0415l-0.06683,-0.10055h0.36369" fill="none" fill-rule="nonzero" stroke="none" stroke-width="1"></path><path d="M0,0" fill="none" fill-rule="nonzero" stroke="none" stroke-width="1"></path><path d="M0,0" fill="none" fill-rule="nonzero" stroke="none" stroke-width="1"></path><path d="M0,0" fill="none" fill-rule="nonzero" stroke="none" stroke-width="1"></path><path d="M1.93915,0.05l-0.12904,0.01663l0.00077,-0.00443l0.01258,-0.01221h0.1157" fill="none" fill-rule="nonzero" stroke="none" stroke-width="1"></path><path d="M0,0" fill="none" fill-rule="nonzero" stroke="none" stroke-width="1"></path><path d="M0,0" fill="none" fill-rule="nonzero" stroke="none" stroke-width="1"></path><path d="M2.943,0.05l-0.33482,0.46992l-0.0951,-0.1915l0.19783,-0.27706l0.01054,-0.00136h0.22154" fill="none" fill-rule="nonzero" stroke="none" stroke-width="1"></path><path d="M0,0" fill="none" fill-rule="nonzero" stroke="none" stroke-width="1"></path><path d="M2.46268,0.22692l-0.067,-0.13493l0.17991,-0.02319l-0.1129,0.15812" fill="none" fill-rule="nonzero" stroke="none" stroke-width="1"></path><path d="M0,0" fill="none" fill-rule="nonzero" stroke="none" stroke-width="1"></path><path d="M2.29074,0.10551l0.10609,0.21363l-0.1209,0.16932l-0.44383,-0.32383l0.45865,-0.05911" fill="none" fill-rule="nonzero" stroke="none" stroke-width="1"></path><path d="M2.65861,0.62147l0.29139,-0.40897v0.36456l-0.07154,0.13608l-0.18692,-0.02534l-0.03294,-0.06634" fill="none" fill-rule="nonzero" stroke="none" stroke-width="1"></path><path d="M0,0" fill="none" fill-rule="nonzero" stroke="none" stroke-width="1"></path><path d="M0,0" fill="none" fill-rule="nonzero" stroke="none" stroke-width="1"></path><path d="M0,0" fill="none" fill-rule="nonzero" stroke="none" stroke-width="1"></path><path d="M0,0" fill="none" fill-rule="nonzero" stroke="none" stroke-width="1"></path><path d="M0,0" fill="none" fill-rule="nonzero" stroke="none" stroke-width="1"></path><path d="M1.66888,0.2949l-0.0286,-0.06715l0.04564,-0.04428l0.00199,-0.00026l0.00037,0.00027l-0.01939,0.11142" fill="none" fill-rule="nonzero" stroke="none" stroke-width="1"></path><path d="M0,0" fill="none" fill-rule="nonzero" stroke="none" stroke-width="1"></path><path d="M0,0" fill="none" fill-rule="nonzero" stroke="none" stroke-width="1"></path><path d="M1.22075,0.24342l0.16977,-0.02188l-0.10657,0.11697l-0.0632,-0.09509" fill="none" fill-rule="nonzero" stroke="none" stroke-width="1"></path><path d="M1.78381,0.56476l-0.04287,-0.10067l0.0374,-0.2149l0.43947,0.32065l-0.03499,0.049l-0.39901,-0.05409" fill="none" fill-rule="nonzero" stroke="none" stroke-width="1"></path><path d="M0.94866,0.27849l0.16148,-0.02081l0.10438,0.15704l-0.0591,0.06487l-0.21461,-0.02909l0.00785,-0.172" fill="none" fill-rule="nonzero" stroke="none" stroke-width="1"></path><path d="M1.56337,0.30238l0.07398,0.1737l-0.0117,0.06724l-0.22592,-0.03063l-0.02081,-0.03132l0.18447,-0.179" fill="none" fill-rule="nonzero" stroke="none" stroke-width="1"></path><path d="M0.41838,0.34683l0.42959,-0.05537l-0.00664,0.14554l-0.39796,-0.05395l-0.02498,-0.03622" fill="none" fill-rule="nonzero" stroke="none" stroke-width="1"></path><path d="M0.29421,0.36284l0.01261,-0.00163l0.00254,0.00368l-0.01515,-0.00205" fill="none" fill-rule="nonzero" stroke="none" stroke-width="1"></path><path d="M2.54238,0.61226l-0.0331,0.04646l-0.15257,-0.11132l0.09052,-0.12676l0.09516,0.19162" fill="none" fill-rule="nonzero" stroke="none" stroke-width="1"></path><path d="M0,0" fill="none" fill-rule="nonzero" stroke="none" stroke-width="1"></path><path d="M0.53206,1.1638l-0.48206,0.46777v-1.20092l0.08462,0.01147l0.406,0.71227l-0.00857,0.00941" fill="none" fill-rule="nonzero" stroke="none" stroke-width="1"></path><path d="M0.7189,0.95871l-0.10747,0.11796l-0.35206,-0.61764l0.12677,0.01718l0.33277,0.4825" fill="none" fill-rule="nonzero" stroke="none" stroke-width="1"></path><path d="M0,0" fill="none" fill-rule="nonzero" stroke="none" stroke-width="1"></path><path d="M0.82272,0.84476l-0.03467,0.03806l-0.2679,-0.38844l0.31661,0.04292l-0.01403,0.30747" fill="none" fill-rule="nonzero" stroke="none" stroke-width="1"></path><path d="M0,0" fill="none" fill-rule="nonzero" stroke="none" stroke-width="1"></path><path d="M0,0" fill="none" fill-rule="nonzero" stroke="none" stroke-width="1"></path><path d="M1.07359,0.5694l-0.14549,0.15969l0.00814,-0.17831l0.13736,0.01862" fill="none" fill-rule="nonzero" stroke="none" stroke-width="1"></path><path d="M0,0" fill="none" fill-rule="nonzero" stroke="none" stroke-width="1"></path><path d="M0.91904,0.92762l0.34285,-0.33269l0.07958,0.01079l0.2166,0.32589l-0.12938,0.74338l-0.04797,0.06718l-0.4679,-0.67842l0.00621,-0.13613" fill="none" fill-rule="nonzero" stroke="none" stroke-width="1"></path><path d="M2.29485,0.63403l0.00374,-0.00524l0.00968,0.00706l-0.01342,-0.00182" fill="none" fill-rule="nonzero" stroke="none" stroke-width="1"></path><path d="M1.60849,0.64191l-0.0255,0.14652l-0.10955,-0.16483l0.13505,0.01831" fill="none" fill-rule="nonzero" stroke="none" stroke-width="1"></path><path d="M0,0" fill="none" fill-rule="nonzero" stroke="none" stroke-width="1"></path><path d="M1.71407,0.65622l0.16516,0.3878l-0.06545,0.09166l-0.15035,-0.22622l0.04422,-0.25411l0.00642,0.00087" fill="none" fill-rule="nonzero" stroke="none" stroke-width="1"></path><path d="M0,0" fill="none" fill-rule="nonzero" stroke="none" stroke-width="1"></path><path d="M1.94731,0.94867l-0.11789,-0.27681l0.2877,0.039l-0.16981,0.23781" fill="none" fill-rule="nonzero" stroke="none" stroke-width="1"></path><path d="M0,0" fill="none" fill-rule="nonzero" stroke="none" stroke-width="1"></path><path d="M2.44086,0.75474l-0.3606,0.5061l-0.08704,-0.20438l0.23593,-0.33042l0.21171,0.0287" fill="none" fill-rule="nonzero" stroke="none" stroke-width="1"></path><path d="M0,0" fill="none" fill-rule="nonzero" stroke="none" stroke-width="1"></path><path d="M0,0" fill="none" fill-rule="nonzero" stroke="none" stroke-width="1"></path><path d="M2.30865,1.7971l-0.18245,-0.4284l0.40583,-0.56959l0.16174,0.11801l0.03763,0.07578l-0.42275,0.8042" fill="none" fill-rule="nonzero" stroke="none" stroke-width="1"></path><path d="M2.77246,0.85075l-0.02719,-0.05475l0.08367,0.01134l-0.03215,0.06116l-0.02433,-0.01775" fill="none" fill-rule="nonzero" stroke="none" stroke-width="1"></path><path d="M0,0" fill="none" fill-rule="nonzero" stroke="none" stroke-width="1"></path><path d="M2.95,0.98029l-0.05761,-0.04204l0.05529,-0.11481l0.00233,0.00032v0.15653" fill="none" fill-rule="nonzero" stroke="none" stroke-width="1"></path><path d="M0,0" fill="none" fill-rule="nonzero" stroke="none" stroke-width="1"></path><path d="M0,0" fill="none" fill-rule="nonzero" stroke="none" stroke-width="1"></path><path d="M0,0" fill="none" fill-rule="nonzero" stroke="none" stroke-width="1"></path><path d="M1.75159,1.22277l-0.18868,0.26425l0.0756,-0.43439l0.11308,0.17014" fill="none" fill-rule="nonzero" stroke="none" stroke-width="1"></path><path d="M0,0" fill="none" fill-rule="nonzero" stroke="none" stroke-width="1"></path><path d="M2.86886,1.04488l0.08114,0.0592v0.10419l-0.08114,-0.16339" fill="none" fill-rule="nonzero" stroke="none" stroke-width="1"></path><path d="M0,0" fill="none" fill-rule="nonzero" stroke="none" stroke-width="1"></path><path d="M0.66628,1.17289l0.12002,-0.11646l0.0251,0.03639l-0.01414,0.30985l-0.13097,-0.22977" fill="none" fill-rule="nonzero" stroke="none" stroke-width="1"></path><path d="M0,0" fill="none" fill-rule="nonzero" stroke="none" stroke-width="1"></path><path d="M2.79977,1.13058l0.09153,0.18432l-0.30807,0.26536l0.21654,-0.44968" fill="none" fill-rule="nonzero" stroke="none" stroke-width="1"></path><path d="M1.92514,1.15181l0.0871,0.20451l-0.0268,0.03762l-0.11242,-0.16914l0.05212,-0.07299" fill="none" fill-rule="nonzero" stroke="none" stroke-width="1"></path><path d="M1.31893,1.8287l-0.15505,0.21714l-0.27394,-0.48059l0.01535,-0.33631l0.41364,0.59976" fill="none" fill-rule="nonzero" stroke="none" stroke-width="1"></path><path d="M0,0" fill="none" fill-rule="nonzero" stroke="none" stroke-width="1"></path><path d="M0.59269,1.24572l0.19603,0.3439l-0.04225,0.92586l-0.69647,-0.12721v-0.54689l0.54269,-0.59566" fill="none" fill-rule="nonzero" stroke="none" stroke-width="1"></path><path d="M0,0" fill="none" fill-rule="nonzero" stroke="none" stroke-width="1"></path><path d="M1.92331,1.48113l-0.36719,0.51535l-0.06538,-0.09479l0.03257,-0.18713l0.28752,-0.40267l0.11248,0.16923" fill="none" fill-rule="nonzero" stroke="none" stroke-width="1"></path><path d="M0,0" fill="none" fill-rule="nonzero" stroke="none" stroke-width="1"></path><path d="M2.40723,2.02856l-0.01872,-0.04395l0.08611,-0.17883l0.46258,-0.39844l0.01279,0.02577v1.03987l-0.23405,0.02007l-0.30872,-0.46449" fill="none" fill-rule="nonzero" stroke="none" stroke-width="1"></path><path d="M2.05817,1.46418l0.04648,0.10913l-0.05996,-0.09021l0.01348,-0.01892" fill="none" fill-rule="nonzero" stroke="none" stroke-width="1"></path><path d="M1.61651,2.08405l0.36606,-0.51376l0.22289,0.33536l-0.44665,0.38472l-0.1423,-0.20632" fill="none" fill-rule="nonzero" stroke="none" stroke-width="1"></path><path d="M0.8478,2.4885l0.0336,-0.73628l0.21847,0.38326l-0.25207,0.35302" fill="none" fill-rule="nonzero" stroke="none" stroke-width="1"></path><path d="M0,0" fill="none" fill-rule="nonzero" stroke="none" stroke-width="1"></path><path d="M0,0" fill="none" fill-rule="nonzero" stroke="none" stroke-width="1"></path><path d="M1.31731,2.31501l-0.09888,-0.17347l0.16087,-0.2253l0.00591,0.00857l-0.06791,0.39019" fill="none" fill-rule="nonzero" stroke="none" stroke-width="1"></path><path d="M0,0" fill="none" fill-rule="nonzero" stroke="none" stroke-width="1"></path><path d="M0,0" fill="none" fill-rule="nonzero" stroke="none" stroke-width="1"></path><path d="M1.49439,2.08312l-0.04661,0.06542l0.01848,-0.1062l0.02813,0.04078" fill="none" fill-rule="nonzero" stroke="none" stroke-width="1"></path><path d="M0,0" fill="none" fill-rule="nonzero" stroke="none" stroke-width="1"></path><path d="M2.16297,2.07423l-0.23929,0.4552l-0.10777,-0.15626l0.34706,-0.29894" fill="none" fill-rule="nonzero" stroke="none" stroke-width="1"></path><path d="M0,0" fill="none" fill-rule="nonzero" stroke="none" stroke-width="1"></path><path d="M0,0" fill="none" fill-rule="nonzero" stroke="none" stroke-width="1"></path><path d="M2.33083,2.10439l0.17327,0.40683l-0.38508,0.03302l0.21181,-0.43985" fill="none" fill-rule="nonzero" stroke="none" stroke-width="1"></path><path d="M0,0" fill="none" fill-rule="nonzero" stroke="none" stroke-width="1"></path><path d="M1.4081,2.37656l0.14669,-0.20588l0.12782,0.18533l-0.22933,0.19753l-0.05821,-0.10212l0.01303,-0.07486" fill="none" fill-rule="nonzero" stroke="none" stroke-width="1"></path><path d="M1.13568,2.58657l-0.20791,-0.03797l0.22665,-0.31742l0.10421,0.18283l-0.12296,0.17257" fill="none" fill-rule="nonzero" stroke="none" stroke-width="1"></path><path d="M0,0" fill="none" fill-rule="nonzero" stroke="none" stroke-width="1"></path><path d="M1.82955,2.56907l-0.26773,0.02296l0.17789,-0.15322l0.08984,0.13026" fill="none" fill-rule="nonzero" stroke="none" stroke-width="1"></path><path d="M1.27379,2.56507l-0.00788,0.04529l-0.02158,-0.00394l0.02946,-0.04135" fill="none" fill-rule="nonzero" stroke="none" stroke-width="1"></path><path d="M0.05,2.48993l0.69187,0.12637l-0.001,0.02197l-0.01838,0.02575l-0.26522,0.02275l-0.40726,-0.0608v-0.13603" fill="none" fill-rule="nonzero" stroke="none" stroke-width="1"></path><path d="M1.36951,2.60852l-0.00181,0.00016l0.00044,-0.00255l0.00137,0.0024" fill="none" fill-rule="nonzero" stroke="none" stroke-width="1"></path><path d="M2.95,2.84519l-0.17094,-0.25719l0.17094,-0.01466v0.27185" fill="none" fill-rule="nonzero" stroke="none" stroke-width="1"></path><path d="M2.77219,2.88548l-0.12199,-0.28642l0.01526,-0.00131l0.20292,0.3053l-0.0962,-0.01757" fill="none" fill-rule="nonzero" stroke="none" stroke-width="1"></path><path d="M2.54534,2.60805l0.10899,0.2559l-0.57198,-0.10447l-0.03944,-0.05718l0.0257,-0.05337l0.47673,-0.04089" fill="none" fill-rule="nonzero" stroke="none" stroke-width="1"></path><path d="M0,0" fill="none" fill-rule="nonzero" stroke="none" stroke-width="1"></path><path d="M0.86356,2.63853l0.04989,0.00911l-0.06007,0.00515l0.01018,-0.01426" fill="none" fill-rule="nonzero" stroke="none" stroke-width="1"></path><path d="M0,0" fill="none" fill-rule="nonzero" stroke="none" stroke-width="1"></path><path d="M0,0" fill="none" fill-rule="nonzero" stroke="none" stroke-width="1"></path><path d="M1.85106,2.66759l-0.02381,0.04529l-0.16114,-0.02943l0.18495,-0.01586" fill="none" fill-rule="nonzero" stroke="none" stroke-width="1"></path><path d="M0,0" fill="none" fill-rule="nonzero" stroke="none" stroke-width="1"></path><path d="M0,0" fill="none" fill-rule="nonzero" stroke="none" stroke-width="1"></path><path d="M0,0" fill="none" fill-rule="nonzero" stroke="none" stroke-width="1"></path><path d="M0,0" fill="none" fill-rule="nonzero" stroke="none" stroke-width="1"></path><path d="M0,0" fill="none" fill-rule="nonzero" stroke="none" stroke-width="1"></path><path d="M0,0" fill="none" fill-rule="nonzero" stroke="none" stroke-width="1"></path><path d="M0,0" fill="none" fill-rule="nonzero" stroke="none" stroke-width="1"></path><path d="M1.24693,2.7194l-0.00243,0.01397l-0.07017,0.06044l-0.05742,-0.00857l0.0415,-0.05825l0.08851,-0.00759" fill="none" fill-rule="nonzero" stroke="none" stroke-width="1"></path><path d="M0,0" fill="none" fill-rule="nonzero" stroke="none" stroke-width="1"></path><path d="M0,0" fill="none" fill-rule="nonzero" stroke="none" stroke-width="1"></path><path d="M0.88426,2.75051l0.14338,-0.0123l-0.0217,0.03046l-0.12167,-0.01816" fill="none" fill-rule="nonzero" stroke="none" stroke-width="1"></path><path d="M1.39512,2.73562l0.05228,0.00955l0.05571,0.09773l-0.17171,-0.02563l0.00548,-0.03148l0.05824,-0.05017" fill="none" fill-rule="nonzero" stroke="none" stroke-width="1"></path><path d="M1.57588,2.76863l0.20261,0.03701l-0.0382,0.07267l-0.11137,-0.01663l-0.05304,-0.09305" fill="none" fill-rule="nonzero" stroke="none" stroke-width="1"></path><path d="M0,0" fill="none" fill-rule="nonzero" stroke="none" stroke-width="1"></path><path d="M0,0" fill="none" fill-rule="nonzero" stroke="none" stroke-width="1"></path><path d="M0,0" fill="none" fill-rule="nonzero" stroke="none" stroke-width="1"></path><path d="M0.05,2.82206l0.40411,-0.03466l0.16291,0.02432l-0.09874,0.13828h-0.46827v-0.12794" fill="none" fill-rule="nonzero" stroke="none" stroke-width="1"></path><path d="M0,0" fill="none" fill-rule="nonzero" stroke="none" stroke-width="1"></path><path d="M0,0" fill="none" fill-rule="nonzero" stroke="none" stroke-width="1"></path><path d="M0.64115,2.95l0.0869,-0.1217l0.00411,0.00061l-0.00553,0.12109h-0.08549" fill="none" fill-rule="nonzero" stroke="none" stroke-width="1"></path><path d="M1.9758,2.84167l0.04778,0.00873l0.05397,0.07825l-0.134,-0.02001l0.03225,-0.06698" fill="none" fill-rule="nonzero" stroke="none" stroke-width="1"></path><path d="M0.94082,2.86006l-0.06408,0.08994h-0.04999l0.00485,-0.10625l0.10923,0.01631" fill="none" fill-rule="nonzero" stroke="none" stroke-width="1"></path><path d="M2.56888,2.95h-0.34836l-0.00755,-0.00113l-0.05041,-0.07309l0.40632,0.07421" fill="none" fill-rule="nonzero" stroke="none" stroke-width="1"></path><path d="M1.00988,2.93546l0.04192,-0.05883l0.02249,0.00336l-0.0644,0.05548" fill="none" fill-rule="nonzero" stroke="none" stroke-width="1"></path><path d="M1.21532,2.90104l-0.00852,0.04896h-0.06057l0.05865,-0.05052l0.01044,0.00156" fill="none" fill-rule="nonzero" stroke="none" stroke-width="1"></path><path d="M1.3083,2.95l0.00595,-0.03419l0.22902,0.03419h-0.23497" fill="none" fill-rule="nonzero" stroke="none" stroke-width="1"></path><path d="M0,0" fill="none" fill-rule="nonzero" stroke="none" stroke-width="1"></path><path d="M0,0" fill="none" fill-rule="nonzero" stroke="none" stroke-width="1"></path><path d="M0,0" fill="none" fill-rule="nonzero" stroke="none" stroke-width="1"></path><path d="M0,0" fill="none" fill-rule="nonzero" stroke="none" stroke-width="1"></path><path d="M0,0" fill="none" fill-rule="nonzero" stroke="none" stroke-width="1"></path><path d="M0,0" fill="none" fill-rule="nonzero" stroke="none" stroke-width="1"></path><path d="M0.24296,0.26862l-0.08582,0.01106l-0.10714,-0.18795v-0.04173h0.04218l0.15078,0.21862M0.8526,0.19004l-0.49808,0.0642l-0.14086,-0.20424h0.64533l-0.00639,0.14004M1.04842,0.1648l-0.09513,0.01226l0.0058,-0.12706h0.01303l0.0763,0.1148M1.45588,0.05l0.02515,0.05905l-0.32201,0.0415l-0.06683,-0.10055h0.36369M0,0M0,0M0,0M1.93915,0.05l-0.12904,0.01663l0.00077,-0.00443l0.01258,-0.01221h0.1157M0,0M0,0M2.943,0.05l-0.33482,0.46992l-0.0951,-0.1915l0.19783,-0.27706l0.01054,-0.00136h0.22154M0,0M2.46268,0.22692l-0.067,-0.13493l0.17991,-0.02319l-0.1129,0.15812M0,0M2.29074,0.10551l0.10609,0.21363l-0.1209,0.16932l-0.44383,-0.32383l0.45865,-0.05911M2.65861,0.62147l0.29139,-0.40897v0.36456l-0.07154,0.13608l-0.18692,-0.02534l-0.03294,-0.06634M0,0M0,0M0,0M0,0M0,0M1.66888,0.2949l-0.0286,-0.06715l0.04564,-0.04428l0.00199,-0.00026l0.00037,0.00027l-0.01939,0.11142M0,0M0,0M1.22075,0.24342l0.16977,-0.02188l-0.10657,0.11697l-0.0632,-0.09509M1.78381,0.56476l-0.04287,-0.10067l0.0374,-0.2149l0.43947,0.32065l-0.03499,0.049l-0.39901,-0.05409M0.94866,0.27849l0.16148,-0.02081l0.10438,0.15704l-0.0591,0.06487l-0.21461,-0.02909l0.00785,-0.172M1.56337,0.30238l0.07398,0.1737l-0.0117,0.06724l-0.22592,-0.03063l-0.02081,-0.03132l0.18447,-0.179M0.41838,0.34683l0.42959,-0.05537l-0.00664,0.14554l-0.39796,-0.05395l-0.02498,-0.03622M0.29421,0.36284l0.01261,-0.00163l0.00254,0.00368l-0.01515,-0.00205M2.54238,0.61226l-0.0331,0.04646l-0.15257,-0.11132l0.09052,-0.12676l0.09516,0.19162M0,0M0.53206,1.1638l-0.48206,0.46777v-1.20092l0.08462,0.01147l0.406,0.71227l-0.00857,0.00941M0.7189,0.95871l-0.10747,0.11796l-0.35206,-0.61764l0.12677,0.01718l0.33277,0.4825M0,0M0.82272,0.84476l-0.03467,0.03806l-0.2679,-0.38844l0.31661,0.04292l-0.01403,0.30747M0,0M0,0M1.07359,0.5694l-0.14549,0.15969l0.00814,-0.17831l0.13736,0.01862M0,0M0.91904,0.92762l0.34285,-0.33269l0.07958,0.01079l0.2166,0.32589l-0.12938,0.74338l-0.04797,0.06718l-0.4679,-0.67842l0.00621,-0.13613M2.29485,0.63403l0.00374,-0.00524l0.00968,0.00706l-0.01342,-0.00182M1.60849,0.64191l-0.0255,0.14652l-0.10955,-0.16483l0.13505,0.01831M0,0M1.71407,0.65622l0.16516,0.3878l-0.06545,0.09166l-0.15035,-0.22622l0.04422,-0.25411l0.00642,0.00087M0,0M1.94731,0.94867l-0.11789,-0.27681l0.2877,0.039l-0.16981,0.23781M0,0M2.44086,0.75474l-0.3606,0.5061l-0.08704,-0.20438l0.23593,-0.33042l0.21171,0.0287M0,0M0,0M2.30865,1.7971l-0.18245,-0.4284l0.40583,-0.56959l0.16174,0.11801l0.03763,0.07578l-0.42275,0.8042M2.77246,0.85075l-0.02719,-0.05475l0.08367,0.01134l-0.03215,0.06116l-0.02433,-0.01775M0,0M2.95,0.98029l-0.05761,-0.04204l0.05529,-0.11481l0.00233,0.00032v0.15653M0,0M0,0M0,0M1.75159,1.22277l-0.18868,0.26425l0.0756,-0.43439l0.11308,0.17014M0,0M2.86886,1.04488l0.08114,0.0592v0.10419l-0.08114,-0.16339M0,0M0.66628,1.17289l0.12002,-0.11646l0.0251,0.03639l-0.01414,0.30985l-0.13097,-0.22977M0,0M2.79977,1.13058l0.09153,0.18432l-0.30807,0.26536l0.21654,-0.44968M1.92514,1.15181l0.0871,0.20451l-0.0268,0.03762l-0.11242,-0.16914l0.05212,-0.07299M1.31893,1.8287l-0.15505,0.21714l-0.27394,-0.48059l0.01535,-0.33631l0.41364,0.59976M0,0M0.59269,1.24572l0.19603,0.3439l-0.04225,0.92586l-0.69647,-0.12721v-0.54689l0.54269,-0.59566M0,0M1.92331,1.48113l-0.36719,0.51535l-0.06538,-0.09479l0.03257,-0.18713l0.28752,-0.40267l0.11248,0.16923M0,0M2.40723,2.02856l-0.01872,-0.04395l0.08611,-0.17883l0.46258,-0.39844l0.01279,0.02577v1.03987l-0.23405,0.02007l-0.30872,-0.46449M2.05817,1.46418l0.04648,0.10913l-0.05996,-0.09021l0.01348,-0.01892M1.61651,2.08405l0.36606,-0.51376l0.22289,0.33536l-0.44665,0.38472l-0.1423,-0.20632M0.8478,2.4885l0.0336,-0.73628l0.21847,0.38326l-0.25207,0.35302M0,0M0,0M1.31731,2.31501l-0.09888,-0.17347l0.16087,-0.2253l0.00591,0.00857l-0.06791,0.39019M0,0M0,0M1.49439,2.08312l-0.04661,0.06542l0.01848,-0.1062l0.02813,0.04078M0,0M2.16297,2.07423l-0.23929,0.4552l-0.10777,-0.15626l0.34706,-0.29894M0,0M0,0M2.33083,2.10439l0.17327,0.40683l-0.38508,0.03302l0.21181,-0.43985M0,0M1.4081,2.37656l0.14669,-0.20588l0.12782,0.18533l-0.22933,0.19753l-0.05821,-0.10212l0.01303,-0.07486M1.13568,2.58657l-0.20791,-0.03797l0.22665,-0.31742l0.10421,0.18283l-0.12296,0.17257M0,0M1.82955,2.56907l-0.26773,0.02296l0.17789,-0.15322l0.08984,0.13026M1.27379,2.56507l-0.00788,0.04529l-0.02158,-0.00394l0.02946,-0.04135M0.05,2.48993l0.69187,0.12637l-0.001,0.02197l-0.01838,0.02575l-0.26522,0.02275l-0.40726,-0.0608v-0.13603M1.36951,2.60852l-0.00181,0.00016l0.00044,-0.00255l0.00137,0.0024M2.95,2.84519l-0.17094,-0.25719l0.17094,-0.01466v0.27185M2.77219,2.88548l-0.12199,-0.28642l0.01526,-0.00131l0.20292,0.3053l-0.0962,-0.01757M2.54534,2.60805l0.10899,0.2559l-0.57198,-0.10447l-0.03944,-0.05718l0.0257,-0.05337l0.47673,-0.04089M0,0M0.86356,2.63853l0.04989,0.00911l-0.06007,0.00515l0.01018,-0.01426M0,0M0,0M1.85106,2.66759l-0.02381,0.04529l-0.16114,-0.02943l0.18495,-0.01586M0,0M0,0M0,0M0,0M0,0M0,0M0,0M1.24693,2.7194l-0.00243,0.01397l-0.07017,0.06044l-0.05742,-0.00857l0.0415,-0.05825l0.08851,-0.00759M0,0M0,0M0.88426,2.75051l0.14338,-0.0123l-0.0217,0.03046l-0.12167,-0.01816M1.39512,2.73562l0.05228,0.00955l0.05571,0.09773l-0.17171,-0.02563l0.00548,-0.03148l0.05824,-0.05017M1.57588,2.76863l0.20261,0.03701l-0.0382,0.07267l-0.11137,-0.01663l-0.05304,-0.09305M0,0M0,0M0,0M0.05,2.82206l0.40411,-0.03466l0.16291,0.02432l-0.09874,0.13828h-0.46827v-0.12794M0,0M0,0M0.64115,2.95l0.0869,-0.1217l0.00411,0.00061l-0.00553,0.12109h-0.08549M1.9758,2.84167l0.04778,0.00873l0.05397,0.07825l-0.134,-0.02001l0.03225,-0.06698M0.94082,2.86006l-0.06408,0.08994h-0.04999l0.00485,-0.10625l0.10923,0.01631M2.56888,2.95h-0.34836l-0.00755,-0.00113l-0.05041,-0.07309l0.40632,0.07421M1.00988,2.93546l0.04192,-0.05883l0.02249,0.00336l-0.0644,0.05548M1.21532,2.90104l-0.00852,0.04896h-0.06057l0.05865,-0.05052l0.01044,0.00156M1.3083,2.95l0.00595,-0.03419l0.22902,0.03419h-0.23497M0,0M0,0M0,0M0,0M0,0M0,0" fill="#d3d3d3" fill-rule="evenodd" stroke="#ff0000" stroke-width="0.005"></path></g></svg>