<svg version="1.1" xmlns="http://www.w3.org/2000/svg" xmlns:xlink="http://www.w3.org/1999/xlink" width="3in" height="3in" viewBox="0 0 3.05 3.05"><g fill="none" fill-rule="none" stroke="none" stroke-width="none" stroke-linecap="butt" stroke-linejoin="miter" stroke-miterlimit="10" stroke-dasharray="" stroke-dashoffset="0" font-family="none" font-weight="none" font-size="none" text-anchor="none" style="mix-blend-mode: normal"><path d="M0,3v-3h3v3z" fill="none" fill-rule="nonzero" stroke="none" stroke-width="1"></path><path d="M0.51029,0.15l0.38971,-0.15l0.38971,0.15v0.3l-0.38971,0.15l-0.38971,-0.15zM1.41029,0.15l0.38971,-0.15l0.38971,0.15v0.3l-0.38971,0.15l-0.38971,-0.15zM0.06029,0.75l0.38971,-0.15l0.38971,0.15v0.3l-0.38971,0.15l-0.38971,-0.15zM0.96029,0.75l0.38971,-0.15l0.38971,0.15l0,0.3l-0.38971,0.15l-0.38971,-0.15zM1.86029,0.75l0.38971,-0.15l0.38971,0.15v0.3l-0.38971,0.15l-0.38971,-0.15zM0.51029,1.35l0.38971,-0.15l0.38971,0.15v0.3l-0.38971,0.15l-0.38971,-0.15zM1.41029,1.35l0.38971,-0.15l0.38971,0.15v0.3l-0.38971,0.15l-0.38971,-0.15zM0.06029,1.95l0.38971,-0.15l0.38971,0.15v0.3l-0.38971,0.15l-0.38971,-0.15zM0.96029,1.95l0.38971,-0.15l0.38971,0.15l0,0.3l-0.38971,0.15l-0.38971,-0.15zM1.86029,1.95l0.38971,-0.15l0.38971,0.15v0.3l-0.38971,0.15l-0.38971,-0.15zM0.51029,2.55l0.38971,-0.15l0.38971,0.15v0.3l-0.38971,0.15l-0.38971,-0.15zM1.41029,2.55l0.38971,-0.15l0.38971,0.15v0.3l-0.38971,0.15l-0.38971,-0.15z" fill="#d3d3d3" fill-rule="evenodd" stroke="#ff0000" stroke-width="0.005"></path></g></svg>