<svg version="1.1" xmlns="http://www.w3.org/2000/svg" xmlns:xlink="http://www.w3.org/1999/xlink" width="3in" height="3in" viewBox="0 0 3.05 3.05"><g fill="none" fill-rule="none" stroke="none" stroke-width="none" stroke-linecap="butt" stroke-linejoin="miter" stroke-miterlimit="10" stroke-dasharray="" stroke-dashoffset="0" font-family="none" font-weight="none" font-size="none" text-anchor="none" style="mix-blend-mode: normal"><path d="M0,3v-3h3v3z" fill="none" fill-rule="nonzero" stroke="none" stroke-width="1"></path><path d="M0.05,0.11394l1.28746,1.29363l-1.28746,-0.32379v-0.96984" fill="none" fill-rule="nonzero" stroke="none" stroke-width="1"></path><path d="M0.21017,0.05l0.46309,0.54842l-0.54581,-0.54842h0.08272" fill="none" fill-rule="nonzero" stroke="none" stroke-width="1"></path><path d="M1.30202,1.18804l-0.96097,-1.13804h0.43937l0.52159,1.13804" fill="none" fill-rule="nonzero" stroke="none" stroke-width="1"></path><path d="M1.11611,0.05l0.2261,0.98572l-0.45178,-0.98572h0.22568" fill="none" fill-rule="nonzero" stroke="none" stroke-width="1"></path><path d="M1.22436,0.05l0.01183,0.0762l-0.01748,-0.0762h0.00565" fill="none" fill-rule="nonzero" stroke="none" stroke-width="1"></path><path d="M0,0" fill="none" fill-rule="nonzero" stroke="none" stroke-width="1"></path><path d="M1.69209,0.05l-0.17956,1.07242l-0.10714,-1.07242h0.2867" fill="none" fill-rule="nonzero" stroke="none" stroke-width="1"></path><path d="M1.66002,0.8471l0.13346,-0.7971h0.12609l-0.25955,0.7971" fill="none" fill-rule="nonzero" stroke="none" stroke-width="1"></path><path d="M0,0" fill="none" fill-rule="nonzero" stroke="none" stroke-width="1"></path><path d="M2.06394,0.21936l0.06746,-0.16936h0.01446l-0.08192,0.16936" fill="none" fill-rule="nonzero" stroke="none" stroke-width="1"></path><path d="M2.36483,0.05l-0.44764,0.70237l0.33976,-0.70237h0.10788" fill="none" fill-rule="nonzero" stroke="none" stroke-width="1"></path><path d="M1.69808,1.28223l0.78533,-1.23223h0.46658v0.25653l-1.25192,0.9757" fill="none" fill-rule="nonzero" stroke="none" stroke-width="1"></path><path d="M2.95,0.5422l-0.68317,0.42355l0.68317,-0.53244v0.10889" fill="none" fill-rule="nonzero" stroke="none" stroke-width="1"></path><path d="M1.74151,1.4091l1.20849,-0.74924v0.54802l-1.20849,0.20122" fill="none" fill-rule="nonzero" stroke="none" stroke-width="1"></path><path d="M1.1656,1.46746l-1.1156,0.05847v-0.33904l1.1156,0.28056" fill="none" fill-rule="nonzero" stroke="none" stroke-width="1"></path><path d="M1.95869,1.47431l0.99131,-0.16506v0.21775l-0.99131,-0.0527" fill="none" fill-rule="nonzero" stroke="none" stroke-width="1"></path><path d="M0,0" fill="none" fill-rule="nonzero" stroke="none" stroke-width="1"></path><path d="M0.911,1.61351l-0.861,0.24185v-0.14943l0.861,-0.09242" fill="none" fill-rule="nonzero" stroke="none" stroke-width="1"></path><path d="M0.05,1.95922l1.27743,-0.35881l-1.27743,1.2639v-0.90509" fill="none" fill-rule="nonzero" stroke="none" stroke-width="1"></path><path d="M0.88129,2.1825l-0.62334,0.7675h-0.15238l0.77572,-0.7675" fill="none" fill-rule="nonzero" stroke="none" stroke-width="1"></path><path d="M0,0" fill="none" fill-rule="nonzero" stroke="none" stroke-width="1"></path><path d="M0.41714,2.95l1.03074,-1.30348l-0.0188,1.30348h-1.01194" fill="none" fill-rule="nonzero" stroke="none" stroke-width="1"></path><path d="M0,0" fill="none" fill-rule="nonzero" stroke="none" stroke-width="1"></path><path d="M1.5607,2.95l-0.00968,-1.31231l1.11057,1.31231h-1.10088" fill="none" fill-rule="nonzero" stroke="none" stroke-width="1"></path><path d="M0,0" fill="none" fill-rule="nonzero" stroke="none" stroke-width="1"></path><path d="M1.66419,1.5588l1.28581,0.06835v0.87839l-1.28581,-0.94675" fill="none" fill-rule="nonzero" stroke="none" stroke-width="1"></path><path d="M2.95,2.78024l-0.77698,-0.72261l0.77698,0.5721v0.15051" fill="none" fill-rule="nonzero" stroke="none" stroke-width="1"></path><path d="M0,0" fill="none" fill-rule="nonzero" stroke="none" stroke-width="1"></path><path d="M0,0" fill="none" fill-rule="nonzero" stroke="none" stroke-width="1"></path><path d="M0,0" fill="none" fill-rule="nonzero" stroke="none" stroke-width="1"></path><path d="M0.05,0.11394l1.28746,1.29363l-1.28746,-0.32379v-0.96984M0.21017,0.05l0.46309,0.54842l-0.54581,-0.54842h0.08272M1.30202,1.18804l-0.96097,-1.13804h0.43937l0.52159,1.13804M1.11611,0.05l0.2261,0.98572l-0.45178,-0.98572h0.22568M1.22436,0.05l0.01183,0.0762l-0.01748,-0.0762h0.00565M0,0M1.69209,0.05l-0.17956,1.07242l-0.10714,-1.07242h0.2867M1.66002,0.8471l0.13346,-0.7971h0.12609l-0.25955,0.7971M0,0M2.06394,0.21936l0.06746,-0.16936h0.01446l-0.08192,0.16936M2.36483,0.05l-0.44764,0.70237l0.33976,-0.70237h0.10788M1.69808,1.28223l0.78533,-1.23223h0.46658v0.25653l-1.25192,0.9757M2.95,0.5422l-0.68317,0.42355l0.68317,-0.53244v0.10889M1.74151,1.4091l1.20849,-0.74924v0.54802l-1.20849,0.20122M1.1656,1.46746l-1.1156,0.05847v-0.33904l1.1156,0.28056M1.95869,1.47431l0.99131,-0.16506v0.21775l-0.99131,-0.0527M0,0M0.911,1.61351l-0.861,0.24185v-0.14943l0.861,-0.09242M0.05,1.95922l1.27743,-0.35881l-1.27743,1.2639v-0.90509M0.88129,2.1825l-0.62334,0.7675h-0.15238l0.77572,-0.7675M0,0M0.41714,2.95l1.03074,-1.30348l-0.0188,1.30348h-1.01194M0,0M1.5607,2.95l-0.00968,-1.31231l1.11057,1.31231h-1.10088M0,0M1.66419,1.5588l1.28581,0.06835v0.87839l-1.28581,-0.94675M2.95,2.78024l-0.77698,-0.72261l0.77698,0.5721v0.15051M0,0M0,0M0,0" fill="#d3d3d3" fill-rule="evenodd" stroke="#ff0000" stroke-width="0.005"></path></g></svg>