<svg version="1.1" xmlns="http://www.w3.org/2000/svg" xmlns:xlink="http://www.w3.org/1999/xlink" width="3in" height="3in" viewBox="0 0 3.05 3.05"><g fill="none" fill-rule="none" stroke="none" stroke-width="none" stroke-linecap="butt" stroke-linejoin="miter" stroke-miterlimit="10" stroke-dasharray="" stroke-dashoffset="0" font-family="none" font-weight="none" font-size="none" text-anchor="none" style="mix-blend-mode: normal"><path d="M0,3v-3h3v3z" fill="none" fill-rule="nonzero" stroke="none" stroke-width="1"></path><path d="M1.042,1.464c0.0266,0.1102 0.0268,0.1204 0.004,0.204l-0.012,0.044c-0.0228,0.0836 -0.0294,0.0904 -0.132,0.136l-0.054,0.024c-0.1026,0.0456 -0.1208,0.0356 -0.364,-0.2l-0.128,-0.124c-0.2432,-0.2356 -0.256,-0.2532 -0.256,-0.352v-0.052c0,-0.0988 0.0028,-0.1054 0.056,-0.132l0.028,-0.014c0.0532,-0.0266 0.0712,-0.0216 0.36,0.1l0.152,0.064c0.2888,0.1216 0.3054,0.1338 0.332,0.244z" fill="none" fill-rule="nonzero" stroke="none" stroke-width="1"></path><path d="M1,1.29l0.07,0.29" fill="none" fill-rule="nonzero" stroke="none" stroke-width="1"></path><path d="M1.07,1.58l-0.06,0.22" fill="none" fill-rule="nonzero" stroke="none" stroke-width="1"></path><path d="M1.07,1.58l-0.06,0.22" fill="none" fill-rule="nonzero" stroke="none" stroke-width="1"></path><path d="M1.01,1.8l-0.27,0.12" fill="none" fill-rule="nonzero" stroke="none" stroke-width="1"></path><path d="M1.01,1.8l-0.27,0.12" fill="none" fill-rule="nonzero" stroke="none" stroke-width="1"></path><path d="M0.74,1.92l-0.64,-0.62" fill="none" fill-rule="nonzero" stroke="none" stroke-width="1"></path><path d="M0.74,1.92l-0.64,-0.62" fill="none" fill-rule="nonzero" stroke="none" stroke-width="1"></path><path d="M0.1,1.3v-0.26" fill="none" fill-rule="nonzero" stroke="none" stroke-width="1"></path><path d="M0.1,1.3v-0.26" fill="none" fill-rule="nonzero" stroke="none" stroke-width="1"></path><path d="M0.1,1.04l0.14,-0.07" fill="none" fill-rule="nonzero" stroke="none" stroke-width="1"></path><path d="M0.1,1.04l0.14,-0.07" fill="none" fill-rule="nonzero" stroke="none" stroke-width="1"></path><path d="M0.24,0.97l0.76,0.32" fill="none" fill-rule="nonzero" stroke="none" stroke-width="1"></path><path d="M0.24,0.97l0.76,0.32" fill="none" fill-rule="nonzero" stroke="none" stroke-width="1"></path><path d="M1,1.29l0.07,0.29" fill="none" fill-rule="nonzero" stroke="none" stroke-width="1"></path><path d="M2.582,1.22c-0.2014,0.057 -0.2122,0.0598 -0.216,0.056l-0.002,-0.002c-0.0038,-0.0038 0.0032,-0.0274 0.14,-0.472l0.072,-0.234c0.1368,-0.4446 0.1476,-0.468 0.216,-0.468h0.036c0.0684,0 0.072,0.0206 0.072,0.412v0.206c0,0.3914 -0.0106,0.415 -0.212,0.472z" fill="none" fill-rule="nonzero" stroke="none" stroke-width="1"></path><path d="M2.9,1.13l-0.53,0.15" fill="none" fill-rule="nonzero" stroke="none" stroke-width="1"></path><path d="M2.37,1.28l-0.01,-0.01" fill="none" fill-rule="nonzero" stroke="none" stroke-width="1"></path><path d="M2.37,1.28l-0.01,-0.01" fill="none" fill-rule="nonzero" stroke="none" stroke-width="1"></path><path d="M2.36,1.27l0.36,-1.17" fill="none" fill-rule="nonzero" stroke="none" stroke-width="1"></path><path d="M2.36,1.27l0.36,-1.17" fill="none" fill-rule="nonzero" stroke="none" stroke-width="1"></path><path d="M2.72,0.1h0.18" fill="none" fill-rule="nonzero" stroke="none" stroke-width="1"></path><path d="M2.72,0.1h0.18" fill="none" fill-rule="nonzero" stroke="none" stroke-width="1"></path><path d="M2.9,0.1v1.03" fill="none" fill-rule="nonzero" stroke="none" stroke-width="1"></path><path d="M2.9,0.1v1.03" fill="none" fill-rule="nonzero" stroke="none" stroke-width="1"></path><path d="M2.9,1.13l-0.53,0.15" fill="none" fill-rule="nonzero" stroke="none" stroke-width="1"></path><path d="M2.194,1.64c-0.0228,0.133 -0.0272,0.1436 -0.088,0.212l-0.032,0.036c-0.0608,0.0684 -0.0688,0.0732 -0.16,0.096l-0.048,0.012c-0.0912,0.0228 -0.107,0.02 -0.316,-0.056l-0.11,-0.04c-0.209,-0.076 -0.2192,-0.0832 -0.204,-0.144l0.008,-0.032c0.0152,-0.0608 0.0248,-0.0702 0.192,-0.188l0.088,-0.062c0.1672,-0.1178 0.1836,-0.125 0.328,-0.144l0.076,-0.01c0.1444,-0.019 0.155,-0.0174 0.212,0.032l0.03,0.026c0.057,0.0494 0.0588,0.059 0.036,0.192z" fill="none" fill-rule="nonzero" stroke="none" stroke-width="1"></path><path d="M2.23,1.43l-0.06,0.35" fill="none" fill-rule="nonzero" stroke="none" stroke-width="1"></path><path d="M2.17,1.78l-0.16,0.18" fill="none" fill-rule="nonzero" stroke="none" stroke-width="1"></path><path d="M2.17,1.78l-0.16,0.18" fill="none" fill-rule="nonzero" stroke="none" stroke-width="1"></path><path d="M2.01,1.96l-0.24,0.06" fill="none" fill-rule="nonzero" stroke="none" stroke-width="1"></path><path d="M2.01,1.96l-0.24,0.06" fill="none" fill-rule="nonzero" stroke="none" stroke-width="1"></path><path d="M1.77,2.02l-0.55,-0.2" fill="none" fill-rule="nonzero" stroke="none" stroke-width="1"></path><path d="M1.77,2.02l-0.55,-0.2" fill="none" fill-rule="nonzero" stroke="none" stroke-width="1"></path><path d="M1.22,1.82l0.04,-0.16" fill="none" fill-rule="nonzero" stroke="none" stroke-width="1"></path><path d="M1.22,1.82l0.04,-0.16" fill="none" fill-rule="nonzero" stroke="none" stroke-width="1"></path><path d="M1.26,1.66l0.44,-0.31" fill="none" fill-rule="nonzero" stroke="none" stroke-width="1"></path><path d="M1.26,1.66l0.44,-0.31" fill="none" fill-rule="nonzero" stroke="none" stroke-width="1"></path><path d="M1.7,1.35l0.38,-0.05" fill="none" fill-rule="nonzero" stroke="none" stroke-width="1"></path><path d="M1.7,1.35l0.38,-0.05" fill="none" fill-rule="nonzero" stroke="none" stroke-width="1"></path><path d="M2.08,1.3l0.15,0.13" fill="none" fill-rule="nonzero" stroke="none" stroke-width="1"></path><path d="M2.08,1.3l0.15,0.13" fill="none" fill-rule="nonzero" stroke="none" stroke-width="1"></path><path d="M2.23,1.43l-0.06,0.35" fill="none" fill-rule="nonzero" stroke="none" stroke-width="1"></path><path d="M1.974,0.692c-0.1368,-0.2774 -0.1402,-0.298 -0.068,-0.412l0.038,-0.06c0.0722,-0.114 0.0858,-0.12 0.272,-0.12h0.098c0.1862,0 0.1896,0.0206 0.068,0.412l-0.064,0.206c-0.1216,0.3914 -0.1352,0.3974 -0.272,0.12z" fill="none" fill-rule="nonzero" stroke="none" stroke-width="1"></path><path d="M2.19,1.13l-0.36,-0.73" fill="none" fill-rule="nonzero" stroke="none" stroke-width="1"></path><path d="M1.83,0.4l0.19,-0.3" fill="none" fill-rule="nonzero" stroke="none" stroke-width="1"></path><path d="M1.83,0.4l0.19,-0.3" fill="none" fill-rule="nonzero" stroke="none" stroke-width="1"></path><path d="M2.02,0.1h0.49" fill="none" fill-rule="nonzero" stroke="none" stroke-width="1"></path><path d="M2.02,0.1h0.49" fill="none" fill-rule="nonzero" stroke="none" stroke-width="1"></path><path d="M2.51,0.1l-0.32,1.03" fill="none" fill-rule="nonzero" stroke="none" stroke-width="1"></path><path d="M2.51,0.1l-0.32,1.03" fill="none" fill-rule="nonzero" stroke="none" stroke-width="1"></path><path d="M2.19,1.13l-0.36,-0.73" fill="none" fill-rule="nonzero" stroke="none" stroke-width="1"></path><path d="M1.56,0.148c-0.095,-0.0456 -0.0934,-0.048 0.032,-0.048h0.066c0.1254,0 0.1304,0.0024 0.1,0.048l-0.016,0.024c-0.0304,0.0456 -0.037,0.0456 -0.132,0z" fill="none" fill-rule="nonzero" stroke="none" stroke-width="1"></path><path d="M1.71,0.22l-0.25,-0.12" fill="none" fill-rule="nonzero" stroke="none" stroke-width="1"></path><path d="M1.46,0.1h0.33" fill="none" fill-rule="nonzero" stroke="none" stroke-width="1"></path><path d="M1.46,0.1h0.33" fill="none" fill-rule="nonzero" stroke="none" stroke-width="1"></path><path d="M1.79,0.1l-0.08,0.12" fill="none" fill-rule="nonzero" stroke="none" stroke-width="1"></path><path d="M1.79,0.1l-0.08,0.12" fill="none" fill-rule="nonzero" stroke="none" stroke-width="1"></path><path d="M1.71,0.22l-0.25,-0.12" fill="none" fill-rule="nonzero" stroke="none" stroke-width="1"></path><path d="M0.312,2.9c-0.2014,0 -0.212,-0.0052 -0.212,-0.104v-0.052c0,-0.0988 0.0086,-0.1084 0.172,-0.192l0.086,-0.044c0.1634,-0.0836 0.174,-0.0784 0.212,0.104l0.02,0.096c0.038,0.1824 0.0294,0.192 -0.172,0.192z" fill="none" fill-rule="nonzero" stroke="none" stroke-width="1"></path><path d="M0.63,2.9h-0.53" fill="none" fill-rule="nonzero" stroke="none" stroke-width="1"></path><path d="M0.1,2.9v-0.26" fill="none" fill-rule="nonzero" stroke="none" stroke-width="1"></path><path d="M0.1,2.9v-0.26" fill="none" fill-rule="nonzero" stroke="none" stroke-width="1"></path><path d="M0.1,2.64l0.43,-0.22" fill="none" fill-rule="nonzero" stroke="none" stroke-width="1"></path><path d="M0.1,2.64l0.43,-0.22" fill="none" fill-rule="nonzero" stroke="none" stroke-width="1"></path><path d="M0.53,2.42l0.1,0.48" fill="none" fill-rule="nonzero" stroke="none" stroke-width="1"></path><path d="M0.53,2.42l0.1,0.48" fill="none" fill-rule="nonzero" stroke="none" stroke-width="1"></path><path d="M0.63,2.9h-0.53" fill="none" fill-rule="nonzero" stroke="none" stroke-width="1"></path><path d="M0.83,0.428c-0.057,-0.0076 -0.06,-0.0144 -0.06,-0.136v-0.064c0,-0.1216 0.0056,-0.128 0.112,-0.128h0.056c0.1064,0 0.1094,0.0068 0.06,0.136l-0.026,0.068c-0.0494,0.1292 -0.055,0.1356 -0.112,0.128z" fill="none" fill-rule="nonzero" stroke="none" stroke-width="1"></path><path d="M0.92,0.44l-0.15,-0.02" fill="none" fill-rule="nonzero" stroke="none" stroke-width="1"></path><path d="M0.77,0.42v-0.32" fill="none" fill-rule="nonzero" stroke="none" stroke-width="1"></path><path d="M0.77,0.42v-0.32" fill="none" fill-rule="nonzero" stroke="none" stroke-width="1"></path><path d="M0.77,0.1h0.28" fill="none" fill-rule="nonzero" stroke="none" stroke-width="1"></path><path d="M0.77,0.1h0.28" fill="none" fill-rule="nonzero" stroke="none" stroke-width="1"></path><path d="M1.05,0.1l-0.13,0.34" fill="none" fill-rule="nonzero" stroke="none" stroke-width="1"></path><path d="M1.05,0.1l-0.13,0.34" fill="none" fill-rule="nonzero" stroke="none" stroke-width="1"></path><path d="M0.92,0.44l-0.15,-0.02" fill="none" fill-rule="nonzero" stroke="none" stroke-width="1"></path><path d="M1.7,2.9c-0.152,0 -0.154,-0.0138 -0.04,-0.276l0.06,-0.138c0.114,-0.2622 0.121,-0.2762 0.14,-0.28l0.01,-0.002c0.019,-0.0038 0.021,0.01 0.04,0.276l0.01,0.14c0.019,0.266 0.012,0.28 -0.14,0.28z" fill="none" fill-rule="nonzero" stroke="none" stroke-width="1"></path><path d="M1.94,2.9h-0.4" fill="none" fill-rule="nonzero" stroke="none" stroke-width="1"></path><path d="M1.54,2.9l0.3,-0.69" fill="none" fill-rule="nonzero" stroke="none" stroke-width="1"></path><path d="M1.54,2.9l0.3,-0.69" fill="none" fill-rule="nonzero" stroke="none" stroke-width="1"></path><path d="M1.84,2.21l0.05,-0.01" fill="none" fill-rule="nonzero" stroke="none" stroke-width="1"></path><path d="M1.84,2.21l0.05,-0.01" fill="none" fill-rule="nonzero" stroke="none" stroke-width="1"></path><path d="M1.89,2.2l0.05,0.7" fill="none" fill-rule="nonzero" stroke="none" stroke-width="1"></path><path d="M1.89,2.2l0.05,0.7" fill="none" fill-rule="nonzero" stroke="none" stroke-width="1"></path><path d="M1.94,2.9h-0.4" fill="none" fill-rule="nonzero" stroke="none" stroke-width="1"></path><path d="M2.822,2.162c-0.0494,-0.0684 -0.0494,-0.0722 0,-0.076l0.026,-0.002c0.0494,-0.0038 0.052,-0.0002 0.052,0.072v0.038c0,0.0722 -0.0026,0.0724 -0.052,0.004z" fill="none" fill-rule="nonzero" stroke="none" stroke-width="1"></path><path d="M2.9,2.27l-0.13,-0.18" fill="none" fill-rule="nonzero" stroke="none" stroke-width="1"></path><path d="M2.77,2.09l0.13,-0.01" fill="none" fill-rule="nonzero" stroke="none" stroke-width="1"></path><path d="M2.77,2.09l0.13,-0.01" fill="none" fill-rule="nonzero" stroke="none" stroke-width="1"></path><path d="M2.9,2.08v0.19" fill="none" fill-rule="nonzero" stroke="none" stroke-width="1"></path><path d="M2.9,2.08v0.19" fill="none" fill-rule="nonzero" stroke="none" stroke-width="1"></path><path d="M2.9,2.27l-0.13,-0.18" fill="none" fill-rule="nonzero" stroke="none" stroke-width="1"></path><path d="M1.344,1.344c-0.0988,0.0722 -0.105,0.0719 -0.124,-0.00603l-0.01,-0.04102c-0.019,-0.07793 -0.018,-0.08593 0.02,-0.16l0.02,-0.03898c0.038,-0.07407 0.0442,-0.07377 0.124,0.00603l0.042,0.042c0.0798,0.0798 0.0788,0.0878 -0.02,0.16z" fill="none" fill-rule="nonzero" stroke="none" stroke-width="1"></path><path d="M1.5,1.23l-0.26,0.19" fill="none" fill-rule="nonzero" stroke="none" stroke-width="1"></path><path d="M1.24,1.42l-0.05,-0.20508" fill="none" fill-rule="nonzero" stroke="none" stroke-width="1"></path><path d="M1.24,1.42l-0.05,-0.20508" fill="none" fill-rule="nonzero" stroke="none" stroke-width="1"></path><path d="M1.19,1.21492l0.1,-0.19492" fill="none" fill-rule="nonzero" stroke="none" stroke-width="1"></path><path d="M1.19,1.21492l0.1,-0.19492" fill="none" fill-rule="nonzero" stroke="none" stroke-width="1"></path><path d="M1.29,1.02l0.21,0.21" fill="none" fill-rule="nonzero" stroke="none" stroke-width="1"></path><path d="M1.29,1.02l0.21,0.21" fill="none" fill-rule="nonzero" stroke="none" stroke-width="1"></path><path d="M1.5,1.23l-0.26,0.19" fill="none" fill-rule="nonzero" stroke="none" stroke-width="1"></path><path d="M2.72,1.886c-0.114,0.0038 -0.1248,0.0014 -0.216,-0.048l-0.048,-0.026c-0.0912,-0.0494 -0.0948,-0.0578 -0.072,-0.168l0.012,-0.058c0.0228,-0.1102 0.0336,-0.1186 0.216,-0.168l0.096,-0.026c0.1824,-0.0494 0.192,-0.0412 0.192,0.164v0.108c0,0.2052 -0.006,0.2162 -0.12,0.22z" fill="none" fill-rule="nonzero" stroke="none" stroke-width="1"></path><path d="M2.9,1.88l-0.3,0.01" fill="none" fill-rule="nonzero" stroke="none" stroke-width="1"></path><path d="M2.6,1.89l-0.24,-0.13" fill="none" fill-rule="nonzero" stroke="none" stroke-width="1"></path><path d="M2.6,1.89l-0.24,-0.13" fill="none" fill-rule="nonzero" stroke="none" stroke-width="1"></path><path d="M2.36,1.76l0.06,-0.29" fill="none" fill-rule="nonzero" stroke="none" stroke-width="1"></path><path d="M2.36,1.76l0.06,-0.29" fill="none" fill-rule="nonzero" stroke="none" stroke-width="1"></path><path d="M2.42,1.47l0.48,-0.13" fill="none" fill-rule="nonzero" stroke="none" stroke-width="1"></path><path d="M2.42,1.47l0.48,-0.13" fill="none" fill-rule="nonzero" stroke="none" stroke-width="1"></path><path d="M2.9,1.34v0.54" fill="none" fill-rule="nonzero" stroke="none" stroke-width="1"></path><path d="M2.9,1.34v0.54" fill="none" fill-rule="nonzero" stroke="none" stroke-width="1"></path><path d="M2.9,1.88l-0.3,0.01" fill="none" fill-rule="nonzero" stroke="none" stroke-width="1"></path><path d="M2.324,2.9c-0.1748,0 -0.185,-0.0136 -0.204,-0.272l-0.01,-0.136c-0.019,-0.2584 -0.0098,-0.2584 0.184,0l0.102,0.136c0.1938,0.2584 0.1948,0.272 0.02,0.272z" fill="none" fill-rule="nonzero" stroke="none" stroke-width="1"></path><path d="M2.6,2.9h-0.46" fill="none" fill-rule="nonzero" stroke="none" stroke-width="1"></path><path d="M2.14,2.9l-0.05,-0.68" fill="none" fill-rule="nonzero" stroke="none" stroke-width="1"></path><path d="M2.14,2.9l-0.05,-0.68" fill="none" fill-rule="nonzero" stroke="none" stroke-width="1"></path><path d="M2.09,2.22l0.51,0.68" fill="none" fill-rule="nonzero" stroke="none" stroke-width="1"></path><path d="M2.09,2.22l0.51,0.68" fill="none" fill-rule="nonzero" stroke="none" stroke-width="1"></path><path d="M2.6,2.9h-0.46" fill="none" fill-rule="nonzero" stroke="none" stroke-width="1"></path><path d="M2.752,2.398c0.1406,0.2014 0.147,0.2178 0.128,0.328l-0.01,0.058c-0.019,0.1102 -0.033,0.09876 -0.28,-0.22871l-0.13,-0.17235c-0.247,-0.32747 -0.2584,-0.34647 -0.228,-0.38l0.016,-0.01765c0.0304,-0.03353 0.037,-0.03269 0.132,0.01671l0.05,0.026c0.095,0.0494 0.1074,0.0626 0.248,0.264z" fill="none" fill-rule="nonzero" stroke="none" stroke-width="1"></path><path d="M2.53,2.08l0.37,0.53" fill="none" fill-rule="nonzero" stroke="none" stroke-width="1"></path><path d="M2.9,2.61l-0.05,0.29" fill="none" fill-rule="nonzero" stroke="none" stroke-width="1"></path><path d="M2.9,2.61l-0.05,0.29" fill="none" fill-rule="nonzero" stroke="none" stroke-width="1"></path><path d="M2.85,2.9l-0.65,-0.86177" fill="none" fill-rule="nonzero" stroke="none" stroke-width="1"></path><path d="M2.85,2.9l-0.65,-0.86177" fill="none" fill-rule="nonzero" stroke="none" stroke-width="1"></path><path d="M2.2,2.03823l0.08,-0.08823" fill="none" fill-rule="nonzero" stroke="none" stroke-width="1"></path><path d="M2.2,2.03823l0.08,-0.08823" fill="none" fill-rule="nonzero" stroke="none" stroke-width="1"></path><path d="M2.28,1.95l0.25,0.13" fill="none" fill-rule="nonzero" stroke="none" stroke-width="1"></path><path d="M2.28,1.95l0.25,0.13" fill="none" fill-rule="nonzero" stroke="none" stroke-width="1"></path><path d="M2.53,2.08l0.37,0.53" fill="none" fill-rule="nonzero" stroke="none" stroke-width="1"></path><path d="M0.348,0.646c-0.1406,0.1178 -0.15,0.125 -0.188,0.144l-0.02,0.01c-0.038,0.019 -0.04,0.0056 -0.04,-0.268v-0.144c0,-0.2736 0.0094,-0.288 0.188,-0.288h0.094c0.1786,0 0.188,0.0072 0.188,0.144v0.072c0,0.1368 -0.0074,0.1502 -0.148,0.268z" fill="none" fill-rule="nonzero" stroke="none" stroke-width="1"></path><path d="M0.57,0.46l-0.37,0.31" fill="none" fill-rule="nonzero" stroke="none" stroke-width="1"></path><path d="M0.2,0.77l-0.1,0.05" fill="none" fill-rule="nonzero" stroke="none" stroke-width="1"></path><path d="M0.2,0.77l-0.1,0.05" fill="none" fill-rule="nonzero" stroke="none" stroke-width="1"></path><path d="M0.1,0.82v-0.72" fill="none" fill-rule="nonzero" stroke="none" stroke-width="1"></path><path d="M0.1,0.82v-0.72" fill="none" fill-rule="nonzero" stroke="none" stroke-width="1"></path><path d="M0.1,0.1h0.47" fill="none" fill-rule="nonzero" stroke="none" stroke-width="1"></path><path d="M0.1,0.1h0.47" fill="none" fill-rule="nonzero" stroke="none" stroke-width="1"></path><path d="M0.57,0.1v0.36" fill="none" fill-rule="nonzero" stroke="none" stroke-width="1"></path><path d="M0.57,0.1v0.36" fill="none" fill-rule="nonzero" stroke="none" stroke-width="1"></path><path d="M0.57,0.46l-0.37,0.31" fill="none" fill-rule="nonzero" stroke="none" stroke-width="1"></path><path d="M1.012,2.9c-0.1824,0 -0.1942,-0.0124 -0.236,-0.248l-0.022,-0.124c-0.0418,-0.2356 -0.0434,-0.2494 -0.032,-0.276l0.006,-0.014c0.0114,-0.0266 0.0232,-0.0142 0.236,0.248l0.112,0.138c0.2128,0.2622 0.2144,0.276 0.032,0.276z" fill="none" fill-rule="nonzero" stroke="none" stroke-width="1"></path><path d="M1.3,2.9h-0.48" fill="none" fill-rule="nonzero" stroke="none" stroke-width="1"></path><path d="M0.82,2.9l-0.11,-0.62" fill="none" fill-rule="nonzero" stroke="none" stroke-width="1"></path><path d="M0.82,2.9l-0.11,-0.62" fill="none" fill-rule="nonzero" stroke="none" stroke-width="1"></path><path d="M0.71,2.28l0.03,-0.07" fill="none" fill-rule="nonzero" stroke="none" stroke-width="1"></path><path d="M0.71,2.28l0.03,-0.07" fill="none" fill-rule="nonzero" stroke="none" stroke-width="1"></path><path d="M0.74,2.21l0.56,0.69" fill="none" fill-rule="nonzero" stroke="none" stroke-width="1"></path><path d="M0.74,2.21l0.56,0.69" fill="none" fill-rule="nonzero" stroke="none" stroke-width="1"></path><path d="M1.3,2.9h-0.48" fill="none" fill-rule="nonzero" stroke="none" stroke-width="1"></path><path d="M1.376,0.466c-0.1102,0.0608 -0.119,0.063 -0.176,0.044l-0.03,-0.01c-0.057,-0.019 -0.0578,-0.0254 -0.016,-0.128l0.022,-0.054c0.0418,-0.1026 0.0506,-0.1048 0.176,-0.044l0.066,0.032c0.1254,0.0608 0.1262,0.0672 0.016,0.128z" fill="none" fill-rule="nonzero" stroke="none" stroke-width="1"></path><path d="M1.55,0.37l-0.29,0.16" fill="none" fill-rule="nonzero" stroke="none" stroke-width="1"></path><path d="M1.26,0.53l-0.15,-0.05" fill="none" fill-rule="nonzero" stroke="none" stroke-width="1"></path><path d="M1.26,0.53l-0.15,-0.05" fill="none" fill-rule="nonzero" stroke="none" stroke-width="1"></path><path d="M1.11,0.48l0.11,-0.27" fill="none" fill-rule="nonzero" stroke="none" stroke-width="1"></path><path d="M1.11,0.48l0.11,-0.27" fill="none" fill-rule="nonzero" stroke="none" stroke-width="1"></path><path d="M1.22,0.21l0.33,0.16" fill="none" fill-rule="nonzero" stroke="none" stroke-width="1"></path><path d="M1.22,0.21l0.33,0.16" fill="none" fill-rule="nonzero" stroke="none" stroke-width="1"></path><path d="M1.55,0.37l-0.29,0.16" fill="none" fill-rule="nonzero" stroke="none" stroke-width="1"></path><path d="M0.552,2.14c-0.0304,0.057 -0.0404,0.0644 -0.2,0.148l-0.084,0.044c-0.1596,0.0836 -0.168,0.0712 -0.168,-0.248v-0.168c0,-0.3192 0.01,-0.3266 0.2,-0.148l0.1,0.094c0.19,0.1786 0.1984,0.191 0.168,0.248z" fill="none" fill-rule="nonzero" stroke="none" stroke-width="1"></path><path d="M0.6,2.05l-0.08,0.15" fill="none" fill-rule="nonzero" stroke="none" stroke-width="1"></path><path d="M0.52,2.2l-0.42,0.22" fill="none" fill-rule="nonzero" stroke="none" stroke-width="1"></path><path d="M0.52,2.2l-0.42,0.22" fill="none" fill-rule="nonzero" stroke="none" stroke-width="1"></path><path d="M0.1,2.42v-0.84" fill="none" fill-rule="nonzero" stroke="none" stroke-width="1"></path><path d="M0.1,2.42v-0.84" fill="none" fill-rule="nonzero" stroke="none" stroke-width="1"></path><path d="M0.1,1.58l0.5,0.47" fill="none" fill-rule="nonzero" stroke="none" stroke-width="1"></path><path d="M0.1,1.58l0.5,0.47" fill="none" fill-rule="nonzero" stroke="none" stroke-width="1"></path><path d="M0.6,2.05l-0.08,0.15" fill="none" fill-rule="nonzero" stroke="none" stroke-width="1"></path><path d="M1.804,1.132c-0.0988,0.0076 -0.1106,0.0012 -0.236,-0.128l-0.066,-0.068c-0.1254,-0.1292 -0.1322,-0.1382 -0.136,-0.18l-0.002,-0.022c-0.0038,-0.0418 0.0022,-0.0472 0.12,-0.108l0.062,-0.032c0.1178,-0.0608 0.1298,-0.0522 0.24,0.172l0.058,0.118c0.1102,0.2242 0.1108,0.2364 0.012,0.244z" fill="none" fill-rule="nonzero" stroke="none" stroke-width="1"></path><path d="M1.96,1.12l-0.26,0.02" fill="none" fill-rule="nonzero" stroke="none" stroke-width="1"></path><path d="M1.7,1.14l-0.33,-0.34" fill="none" fill-rule="nonzero" stroke="none" stroke-width="1"></path><path d="M1.7,1.14l-0.33,-0.34" fill="none" fill-rule="nonzero" stroke="none" stroke-width="1"></path><path d="M1.37,0.8l-0.01,-0.11" fill="none" fill-rule="nonzero" stroke="none" stroke-width="1"></path><path d="M1.37,0.8l-0.01,-0.11" fill="none" fill-rule="nonzero" stroke="none" stroke-width="1"></path><path d="M1.36,0.69l0.31,-0.16" fill="none" fill-rule="nonzero" stroke="none" stroke-width="1"></path><path d="M1.36,0.69l0.31,-0.16" fill="none" fill-rule="nonzero" stroke="none" stroke-width="1"></path><path d="M1.67,0.53l0.29,0.59" fill="none" fill-rule="nonzero" stroke="none" stroke-width="1"></path><path d="M1.67,0.53l0.29,0.59" fill="none" fill-rule="nonzero" stroke="none" stroke-width="1"></path><path d="M1.96,1.12l-0.26,0.02" fill="none" fill-rule="nonzero" stroke="none" stroke-width="1"></path><path d="M1.492,2.492c-0.0874,0.1976 -0.1024,0.1954 -0.3,-0.044l-0.104,-0.126c-0.1976,-0.2394 -0.2036,-0.2538 -0.12,-0.288l0.044,-0.018c0.0836,-0.0342 0.0986,-0.032 0.3,0.044l0.106,0.04c0.2014,0.076 0.2074,0.0904 0.12,0.288z" fill="none" fill-rule="nonzero" stroke="none" stroke-width="1"></path><path d="M1.63,2.18l-0.23,0.52" fill="none" fill-rule="nonzero" stroke="none" stroke-width="1"></path><path d="M1.4,2.7l-0.52,-0.63" fill="none" fill-rule="nonzero" stroke="none" stroke-width="1"></path><path d="M1.4,2.7l-0.52,-0.63" fill="none" fill-rule="nonzero" stroke="none" stroke-width="1"></path><path d="M0.88,2.07l0.22,-0.09" fill="none" fill-rule="nonzero" stroke="none" stroke-width="1"></path><path d="M0.88,2.07l0.22,-0.09" fill="none" fill-rule="nonzero" stroke="none" stroke-width="1"></path><path d="M1.1,1.98l0.53,0.2" fill="none" fill-rule="nonzero" stroke="none" stroke-width="1"></path><path d="M1.1,1.98l0.53,0.2" fill="none" fill-rule="nonzero" stroke="none" stroke-width="1"></path><path d="M1.63,2.18l-0.23,0.52" fill="none" fill-rule="nonzero" stroke="none" stroke-width="1"></path><path d="M1.08,0.682c0.076,0.0266 0.0802,0.0302 0.084,0.072l0.002,0.022c0.0038,0.0418 0.0012,0.0492 -0.052,0.148l-0.028,0.052c-0.0532,0.0988 -0.068,0.099 -0.296,0.004l-0.12,-0.05c-0.228,-0.095 -0.2346,-0.1044 -0.132,-0.188l0.054,-0.044c0.1026,-0.0836 0.1132,-0.0874 0.212,-0.076l0.052,0.006c0.0988,0.0114 0.108,0.0134 0.184,0.04z" fill="none" fill-rule="nonzero" stroke="none" stroke-width="1"></path><path d="M0.96,0.64l0.2,0.07" fill="none" fill-rule="nonzero" stroke="none" stroke-width="1"></path><path d="M1.16,0.71l0.01,0.11" fill="none" fill-rule="nonzero" stroke="none" stroke-width="1"></path><path d="M1.16,0.71l0.01,0.11" fill="none" fill-rule="nonzero" stroke="none" stroke-width="1"></path><path d="M1.17,0.82l-0.14,0.26" fill="none" fill-rule="nonzero" stroke="none" stroke-width="1"></path><path d="M1.17,0.82l-0.14,0.26" fill="none" fill-rule="nonzero" stroke="none" stroke-width="1"></path><path d="M1.03,1.08l-0.6,-0.25" fill="none" fill-rule="nonzero" stroke="none" stroke-width="1"></path><path d="M1.03,1.08l-0.6,-0.25" fill="none" fill-rule="nonzero" stroke="none" stroke-width="1"></path><path d="M0.43,0.83l0.27,-0.22" fill="none" fill-rule="nonzero" stroke="none" stroke-width="1"></path><path d="M0.43,0.83l0.27,-0.22" fill="none" fill-rule="nonzero" stroke="none" stroke-width="1"></path><path d="M0.7,0.61l0.26,0.03" fill="none" fill-rule="nonzero" stroke="none" stroke-width="1"></path><path d="M0.7,0.61l0.26,0.03" fill="none" fill-rule="nonzero" stroke="none" stroke-width="1"></path><path d="M0.96,0.64l0.2,0.07" fill="none" fill-rule="nonzero" stroke="none" stroke-width="1"></path><path d="M1.042,1.464c0.0266,0.1102 0.0268,0.1204 0.004,0.204l-0.012,0.044c-0.0228,0.0836 -0.0294,0.0904 -0.132,0.136l-0.054,0.024c-0.1026,0.0456 -0.1208,0.0356 -0.364,-0.2l-0.128,-0.124c-0.2432,-0.2356 -0.256,-0.2532 -0.256,-0.352v-0.052c0,-0.0988 0.0028,-0.1054 0.056,-0.132l0.028,-0.014c0.0532,-0.0266 0.0712,-0.0216 0.36,0.1l0.152,0.064c0.2888,0.1216 0.3054,0.1338 0.332,0.244zM2.582,1.22c-0.2014,0.057 -0.2122,0.0598 -0.216,0.056l-0.002,-0.002c-0.0038,-0.0038 0.0032,-0.0274 0.14,-0.472l0.072,-0.234c0.1368,-0.4446 0.1476,-0.468 0.216,-0.468h0.036c0.0684,0 0.072,0.0206 0.072,0.412v0.206c0,0.3914 -0.0106,0.415 -0.212,0.472zM2.194,1.64c-0.0228,0.133 -0.0272,0.1436 -0.088,0.212l-0.032,0.036c-0.0608,0.0684 -0.0688,0.0732 -0.16,0.096l-0.048,0.012c-0.0912,0.0228 -0.107,0.02 -0.316,-0.056l-0.11,-0.04c-0.209,-0.076 -0.2192,-0.0832 -0.204,-0.144l0.008,-0.032c0.0152,-0.0608 0.0248,-0.0702 0.192,-0.188l0.088,-0.062c0.1672,-0.1178 0.1836,-0.125 0.328,-0.144l0.076,-0.01c0.1444,-0.019 0.155,-0.0174 0.212,0.032l0.03,0.026c0.057,0.0494 0.0588,0.059 0.036,0.192zM1.974,0.692c-0.1368,-0.2774 -0.1402,-0.298 -0.068,-0.412l0.038,-0.06c0.0722,-0.114 0.0858,-0.12 0.272,-0.12h0.098c0.1862,0 0.1896,0.0206 0.068,0.412l-0.064,0.206c-0.1216,0.3914 -0.1352,0.3974 -0.272,0.12zM1.56,0.148c-0.095,-0.0456 -0.0934,-0.048 0.032,-0.048h0.066c0.1254,0 0.1304,0.0024 0.1,0.048l-0.016,0.024c-0.0304,0.0456 -0.037,0.0456 -0.132,0zM0.312,2.9c-0.2014,0 -0.212,-0.0052 -0.212,-0.104v-0.052c0,-0.0988 0.0086,-0.1084 0.172,-0.192l0.086,-0.044c0.1634,-0.0836 0.174,-0.0784 0.212,0.104l0.02,0.096c0.038,0.1824 0.0294,0.192 -0.172,0.192zM0.83,0.428c-0.057,-0.0076 -0.06,-0.0144 -0.06,-0.136v-0.064c0,-0.1216 0.0056,-0.128 0.112,-0.128h0.056c0.1064,0 0.1094,0.0068 0.06,0.136l-0.026,0.068c-0.0494,0.1292 -0.055,0.1356 -0.112,0.128zM1.7,2.9c-0.152,0 -0.154,-0.0138 -0.04,-0.276l0.06,-0.138c0.114,-0.2622 0.121,-0.2762 0.14,-0.28l0.01,-0.002c0.019,-0.0038 0.021,0.01 0.04,0.276l0.01,0.14c0.019,0.266 0.012,0.28 -0.14,0.28zM2.822,2.162c-0.0494,-0.0684 -0.0494,-0.0722 0,-0.076l0.026,-0.002c0.0494,-0.0038 0.052,-0.0002 0.052,0.072v0.038c0,0.0722 -0.0026,0.0724 -0.052,0.004zM1.344,1.344c-0.0988,0.0722 -0.105,0.0719 -0.124,-0.00603l-0.01,-0.04102c-0.019,-0.07793 -0.018,-0.08593 0.02,-0.16l0.02,-0.03898c0.038,-0.07407 0.0442,-0.07377 0.124,0.00603l0.042,0.042c0.0798,0.0798 0.0788,0.0878 -0.02,0.16zM2.72,1.886c-0.114,0.0038 -0.1248,0.0014 -0.216,-0.048l-0.048,-0.026c-0.0912,-0.0494 -0.0948,-0.0578 -0.072,-0.168l0.012,-0.058c0.0228,-0.1102 0.0336,-0.1186 0.216,-0.168l0.096,-0.026c0.1824,-0.0494 0.192,-0.0412 0.192,0.164v0.108c0,0.2052 -0.006,0.2162 -0.12,0.22zM2.324,2.9c-0.1748,0 -0.185,-0.0136 -0.204,-0.272l-0.01,-0.136c-0.019,-0.2584 -0.0098,-0.2584 0.184,0l0.102,0.136c0.1938,0.2584 0.1948,0.272 0.02,0.272zM2.752,2.398c0.1406,0.2014 0.147,0.2178 0.128,0.328l-0.01,0.058c-0.019,0.1102 -0.033,0.09876 -0.28,-0.22871l-0.13,-0.17235c-0.247,-0.32747 -0.2584,-0.34647 -0.228,-0.38l0.016,-0.01765c0.0304,-0.03353 0.037,-0.03269 0.132,0.01671l0.05,0.026c0.095,0.0494 0.1074,0.0626 0.248,0.264zM0.348,0.646c-0.1406,0.1178 -0.15,0.125 -0.188,0.144l-0.02,0.01c-0.038,0.019 -0.04,0.0056 -0.04,-0.268v-0.144c0,-0.2736 0.0094,-0.288 0.188,-0.288h0.094c0.1786,0 0.188,0.0072 0.188,0.144v0.072c0,0.1368 -0.0074,0.1502 -0.148,0.268zM1.012,2.9c-0.1824,0 -0.1942,-0.0124 -0.236,-0.248l-0.022,-0.124c-0.0418,-0.2356 -0.0434,-0.2494 -0.032,-0.276l0.006,-0.014c0.0114,-0.0266 0.0232,-0.0142 0.236,0.248l0.112,0.138c0.2128,0.2622 0.2144,0.276 0.032,0.276zM1.376,0.466c-0.1102,0.0608 -0.119,0.063 -0.176,0.044l-0.03,-0.01c-0.057,-0.019 -0.0578,-0.0254 -0.016,-0.128l0.022,-0.054c0.0418,-0.1026 0.0506,-0.1048 0.176,-0.044l0.066,0.032c0.1254,0.0608 0.1262,0.0672 0.016,0.128zM0.552,2.14c-0.0304,0.057 -0.0404,0.0644 -0.2,0.148l-0.084,0.044c-0.1596,0.0836 -0.168,0.0712 -0.168,-0.248v-0.168c0,-0.3192 0.01,-0.3266 0.2,-0.148l0.1,0.094c0.19,0.1786 0.1984,0.191 0.168,0.248zM1.804,1.132c-0.0988,0.0076 -0.1106,0.0012 -0.236,-0.128l-0.066,-0.068c-0.1254,-0.1292 -0.1322,-0.1382 -0.136,-0.18l-0.002,-0.022c-0.0038,-0.0418 0.0022,-0.0472 0.12,-0.108l0.062,-0.032c0.1178,-0.0608 0.1298,-0.0522 0.24,0.172l0.058,0.118c0.1102,0.2242 0.1108,0.2364 0.012,0.244zM1.492,2.492c-0.0874,0.1976 -0.1024,0.1954 -0.3,-0.044l-0.104,-0.126c-0.1976,-0.2394 -0.2036,-0.2538 -0.12,-0.288l0.044,-0.018c0.0836,-0.0342 0.0986,-0.032 0.3,0.044l0.106,0.04c0.2014,0.076 0.2074,0.0904 0.12,0.288zM1.08,0.682c0.076,0.0266 0.0802,0.0302 0.084,0.072l0.002,0.022c0.0038,0.0418 0.0012,0.0492 -0.052,0.148l-0.028,0.052c-0.0532,0.0988 -0.068,0.099 -0.296,0.004l-0.12,-0.05c-0.228,-0.095 -0.2346,-0.1044 -0.132,-0.188l0.054,-0.044c0.1026,-0.0836 0.1132,-0.0874 0.212,-0.076l0.052,0.006c0.0988,0.0114 0.108,0.0134 0.184,0.04z" fill="#d3d3d3" fill-rule="evenodd" stroke="#ff0000" stroke-width="0.005"></path></g></svg>