<svg version="1.1" xmlns="http://www.w3.org/2000/svg" xmlns:xlink="http://www.w3.org/1999/xlink" width="3in" height="3in" viewBox="0 0 3.05 3.05"><g fill="#d3d3d3" fill-rule="evenodd" stroke="#ff0000" stroke-width="0.005" stroke-linecap="butt" stroke-linejoin="miter" stroke-miterlimit="10" stroke-dasharray="" stroke-dashoffset="0" font-family="none" font-weight="none" font-size="none" text-anchor="none" style="mix-blend-mode: normal"><path d="M0,3v-3h3v3zM0.45467,0.30183c-0.04199,-0.00417 -0.08458,-0.0063 -0.12767,-0.0063c-0.03433,0 -0.06835,0.00136 -0.102,0.00402v-0.07454l0.30055,0c-0.0249,0.02439 -0.04856,0.05003 -0.07088,0.07683zM0.2462,1.69237c-0.00105,-0.00977 -0.00198,-0.01958 -0.00278,-0.02942c0.01765,-0.02944 0.03655,-0.05805 0.05665,-0.08573c0.06525,0.0416 0.13565,0.07585 0.21002,0.10156c0.00057,0.00058 0.00114,0.00116 0.00171,0.00174c-0.06018,0.00962 -0.1219,0.01462 -0.1848,0.01462c-0.02716,0 -0.05411,-0.00093 -0.0808,-0.00277zM0.26675,1.55502c-0.00917,0.01267 -0.0181,0.02553 -0.02679,0.03857c-0.00013,-0.00711 -0.0002,-0.01424 -0.0002,-0.02138c0,-0.01211 0.00019,-0.02417 0.00058,-0.03619c0.0087,0.00648 0.0175,0.01281 0.02641,0.01901zM1.36839,1.04893c-0.00198,-0.02142 -0.00325,-0.04304 -0.0038,-0.06484c0.00848,0.00609 0.01711,0.01199 0.02588,0.01769c-0.00702,0.01591 -0.01438,0.03163 -0.02208,0.04715zM1.16919,1.09742c0.02511,-0.00161 0.05043,-0.00243 0.07595,-0.00243c0.02984,0 0.05943,0.00112 0.08871,0.00332c0.00056,0.00402 0.00114,0.00804 0.00175,0.01204c-0.02386,0.04162 -0.05023,0.08163 -0.07889,0.11981c-0.03343,-0.04102 -0.0628,-0.08547 -0.08751,-0.13274zM1.32906,1.05786c-0.02773,-0.0019 -0.05571,-0.00287 -0.08393,-0.00287c-0.00671,0 -0.01341,0.00005 -0.02009,0.00016c0.03562,-0.02774 0.06883,-0.05843 0.09925,-0.09171c0.00012,0.03185 0.00173,0.06334 0.00476,0.09442zM0.91144,1.2283c0.0055,-0.00964 0.01114,-0.01919 0.01692,-0.02865c0.07305,-0.01817 0.14212,-0.04641 0.20565,-0.08315c0.02734,0.0522 0.06009,0.10111 0.0975,0.146c-0.01993,0.0247 -0.04086,0.04856 -0.06271,0.07153c-0.09266,-0.02055 -0.17942,-0.05677 -0.25737,-0.10573zM0.77338,1.22233c0.00086,0.01378 0.002,0.02749 0.00341,0.04112c-0.02334,-0.01293 -0.04718,-0.02506 -0.07149,-0.03636c0.00266,-0.00139 0.00533,-0.00277 0.008,-0.00414c0.00721,0.00019 0.01444,0.00029 0.0217,0.00029c0.01287,0 0.02566,-0.0003 0.03838,-0.00091zM0.48233,1.19158c0.04535,0.01086 0.0896,0.02453 0.13257,0.04081c-0.04209,0.02582 -0.08247,0.05415 -0.12094,0.08477c-0.05224,0.01094 -0.1032,0.02537 -0.15262,0.04303c-0.01875,-0.04225 -0.03463,-0.08606 -0.04738,-0.13118c0.00071,-0.00217 0.00142,-0.00434 0.00214,-0.00651c0.06392,-0.00449 0.12619,-0.01499 0.18623,-0.03093zM0.58086,1.30237c0.02609,-0.0181 0.05296,-0.03516 0.08055,-0.05112c0.02895,0.01252 0.05726,0.02624 0.08486,0.04111c-0.00375,-0.00004 -0.00751,-0.00005 -0.01127,-0.00005c-0.05225,0 -0.1037,0.00343 -0.15414,0.01007zM0.39446,1.46308c0.03646,-0.03881 0.07556,-0.07513 0.11699,-0.10867c0.07226,-0.01451 0.14701,-0.02212 0.22355,-0.02212c0.01729,0 0.03449,0.00039 0.05159,0.00116c0.00286,0.01623 0.00612,0.03233 0.00976,0.04828c-0.02776,0.07611 -0.04764,0.15601 -0.05865,0.23872c-0.04534,0.01714 -0.09204,0.03152 -0.13988,0.04295c-0.02224,-0.0057 -0.04416,-0.01218 -0.06574,-0.0194c-0.05248,-0.05466 -0.09873,-0.11535 -0.13762,-0.18091zM0.42664,1.3749c-0.01811,0.01671 -0.0357,0.03398 -0.05275,0.05176c-0.00533,-0.00992 -0.01049,-0.01994 -0.01549,-0.03006c0.02243,-0.00793 0.04519,-0.01517 0.06824,-0.0217zM0.78059,1.60325c0.00798,-0.05175 0.01957,-0.10231 0.03451,-0.15142c0.01211,0.0394 0.0266,0.07777 0.0433,0.11491c-0.02541,0.01309 -0.05136,0.02527 -0.07781,0.0365zM1.00958,1.32471c-0.04434,-0.01067 -0.08967,-0.01881 -0.13581,-0.02426c0.00593,-0.01246 0.01208,-0.02479 0.01846,-0.03698c0.0373,0.02329 0.07652,0.0438 0.11735,0.06124zM0.90315,1.34473c0.0701,0.01046 0.13809,0.02736 0.20336,0.05008c-0.02378,0.02153 -0.04845,0.04209 -0.07395,0.06161c-0.04025,-0.04035 -0.08351,-0.0777 -0.1294,-0.11169zM0.84942,1.35548c0.05387,0.03718 0.10426,0.07903 0.15059,0.12498c-0.0341,0.02428 -0.06957,0.04676 -0.10627,0.06731c-0.02327,-0.05217 -0.042,-0.10681 -0.05567,-0.16342c0.00365,-0.00969 0.00744,-0.01931 0.01135,-0.02886zM0.85863,1.24138c-0.00944,0.0179 -0.01842,0.03607 -0.02692,0.05452c-0.00386,-0.00243 -0.00773,-0.00483 -0.01162,-0.00722c-0.00309,-0.02283 -0.00537,-0.04592 -0.00681,-0.06924c0.00441,-0.00043 0.00881,-0.00089 0.0132,-0.0014c0.01053,0.00802 0.02125,0.0158 0.03215,0.02334zM0.25128,1.22466c0.00031,0.00117 0.00063,0.00235 0.00094,0.00352c-0.01063,0.03386 -0.01973,0.06839 -0.02722,0.10352v-0.1067c0.00879,0 0.01755,-0.00011 0.02628,-0.00034zM0.32419,1.54515c0.01359,-0.01744 0.02767,-0.03448 0.04221,-0.0511c0.0253,0.04151 0.05346,0.08109 0.0842,0.11846c-0.04396,-0.01935 -0.0862,-0.0419 -0.12641,-0.06736zM0.34521,1.45762c-0.0189,0.02113 -0.03707,0.04293 -0.05446,0.06536c-0.01631,-0.01131 -0.03226,-0.0231 -0.04781,-0.03537c0.00114,-0.01504 0.00257,-0.03 0.0043,-0.04487c0.02404,-0.01153 0.04855,-0.02223 0.0735,-0.03206c0.00776,0.01588 0.01593,0.03154 0.02447,0.04695zM0.30385,1.37433c-0.01689,0.0067 -0.03359,0.01378 -0.05008,0.02124c0.00528,-0.03292 0.01201,-0.06536 0.02012,-0.09724c0.009,0.02582 0.01901,0.05117 0.02996,0.076zM2.54142,2.71958c0.00152,0.01836 0.00262,0.03683 0.00331,0.05542l-0.13632,0c0.03799,-0.02055 0.07468,-0.0432 0.10991,-0.06778c0.00764,0.00421 0.01534,0.00834 0.0231,0.01237zM2.58302,2.74006c0.02752,0.01281 0.05567,0.02447 0.0844,0.03494l-0.08267,0c-0.00042,-0.01169 -0.00099,-0.02334 -0.00173,-0.03494zM2.57923,2.69388c-0.00003,-0.00028 -0.00006,-0.00056 -0.00008,-0.00083c0.06735,-0.00919 0.13282,-0.0243 0.19585,-0.04481l0,0.11832c-0.06827,-0.01764 -0.13378,-0.04213 -0.19577,-0.07268zM2.5927,2.65065c0.06781,-0.05608 0.12903,-0.11987 0.1823,-0.19001l0,0.14544c-0.05869,0.01987 -0.11961,0.03489 -0.1823,0.04457zM2.47226,2.01123c-0.01397,0.00778 -0.02777,0.01585 -0.04138,0.02418c-0.00344,-0.01812 -0.00729,-0.03609 -0.01153,-0.05391c0.0001,-0.00027 0.00021,-0.00055 0.00031,-0.00082c0.01718,0.01071 0.03472,0.02091 0.0526,0.03055zM2.43818,2.07799c0.02516,-0.01592 0.051,-0.03085 0.07747,-0.04475c0.07076,0.03367 0.14625,0.05901 0.2252,0.07472c0.01159,0.01111 0.02298,0.02245 0.03414,0.03399v0.25032c-0.05785,0.08454 -0.12719,0.16058 -0.20578,0.22589c-0.02078,-0.12692 -0.06085,-0.24735 -0.11711,-0.35818c-0.0001,-0.06186 -0.00485,-0.12264 -0.01393,-0.18199zM2.4491,2.34794c0.04032,0.09405 0.06896,0.1943 0.08407,0.29893c-0.0057,0.00434 -0.01143,0.00863 -0.01722,0.01287c-0.00007,0.00001 -0.00014,0.00001 -0.00022,0.00002c-0.03757,-0.02193 -0.07362,-0.04617 -0.10795,-0.07254c0.02148,-0.07693 0.03552,-0.15696 0.04131,-0.23927zM2.33975,2.14806c0.0264,0.03894 0.05058,0.07952 0.07233,0.12155c-0.00064,0.10027 -0.01393,0.19754 -0.03835,0.2903c-0.07125,-0.05967 -0.13428,-0.12882 -0.18716,-0.20552c0.05839,-0.06264 0.10986,-0.13182 0.15318,-0.20633zM2.39446,2.05867c-0.00388,0.00258 -0.00774,0.00518 -0.01159,0.00781c0.00318,-0.00666 0.0063,-0.01335 0.00936,-0.02008c0.00076,0.00408 0.0015,0.00817 0.00222,0.01227zM2.37152,2.12362c0.0098,-0.00724 0.01973,-0.01433 0.02977,-0.02126c0.00363,0.02658 0.00637,0.05344 0.00819,0.08056c-0.0121,-0.02015 -0.02476,-0.03992 -0.03796,-0.0593zM1.99207,2.5213c-0.00698,0.01454 -0.01366,0.02925 -0.02004,0.04412c-0.00936,-0.00428 -0.01866,-0.00868 -0.02788,-0.01321c0.01624,-0.00992 0.03222,-0.02022 0.04792,-0.03091zM2.00872,2.58137c0.01695,-0.03954 0.03612,-0.0779 0.05736,-0.11493c0.03219,-0.02592 0.06296,-0.05354 0.09216,-0.08272c0.05739,0.08191 0.12599,0.15538 0.20357,0.21819c-0.006,0.01973 -0.0125,0.03924 -0.0195,0.05851c-0.11734,-0.00877 -0.22952,-0.03609 -0.33359,-0.07905zM2.38398,2.66274c0.00403,-0.01146 0.0079,-0.02299 0.01159,-0.03461c0.01634,0.01218 0.03304,0.02391 0.05008,0.03516c-0.00694,0.00013 -0.01389,0.0002 -0.02085,0.0002c-0.01367,0 -0.02727,-0.00025 -0.04082,-0.00075zM1.81791,2.61886c0.0046,0.03294 0.01063,0.06542 0.01802,0.09738c-0.00455,0.01979 -0.00963,0.03939 -0.0152,0.05877l-0.32633,0c0.03992,-0.02622 0.07818,-0.05477 0.11459,-0.08544c0.07252,-0.01693 0.1424,-0.04074 0.20891,-0.0707zM1.94766,2.7681c0.01186,-0.05134 0.02727,-0.10133 0.04596,-0.14968c0.10432,0.04304 0.21648,0.07093 0.33375,0.08093c-0.01039,0.02568 -0.02167,0.05091 -0.03379,0.07565l-0.34439,0c-0.0005,-0.0023 -0.00102,-0.0046 -0.00153,-0.0069zM1.95689,2.60249c-0.01108,0.02855 -0.02106,0.05765 -0.02988,0.08725c-0.00903,-0.02986 -0.01925,-0.0592 -0.03061,-0.08797c0.00092,-0.00776 0.00177,-0.01555 0.00255,-0.02336c0.00134,-0.00074 0.00267,-0.00147 0.00401,-0.00221c0.01771,0.00922 0.03569,0.01799 0.05394,0.02629zM1.88351,2.6846c0.00877,0.0274 0.01649,0.05527 0.02312,0.08356c-0.00051,0.00228 -0.00101,0.00455 -0.0015,0.00683h-0.01218c-0.00585,-0.01943 -0.01118,-0.03909 -0.01595,-0.05896c0.00231,-0.01043 0.00448,-0.02091 0.00651,-0.03144zM2.34339,2.7633c0.00919,-0.02009 0.01784,-0.04048 0.02594,-0.06115c0.01838,0.00089 0.03687,0.00134 0.05547,0.00134c0.00912,0 0.01821,-0.00011 0.02727,-0.00032c-0.03495,0.02201 -0.07122,0.0421 -0.10868,0.06014zM2.37185,1.95695c0.00195,0.00723 0.00384,0.0145 0.00566,0.02179c-0.0127,0.03216 -0.02686,0.06358 -0.0424,0.09419c-0.01682,-0.02222 -0.03438,-0.04385 -0.05263,-0.06486c0.02573,-0.01572 0.05068,-0.03258 0.0748,-0.05051c0.00487,-0.00017 0.00972,-0.00037 0.01457,-0.0006zM2.24729,2.02859c0.02353,0.02676 0.0459,0.05457 0.067,0.08336c-0.00177,0.00317 -0.00356,0.00633 -0.00536,0.00948c-0.06068,0.04895 -0.1163,0.10392 -0.16595,0.16401c-0.03236,-0.05598 -0.05959,-0.11529 -0.08105,-0.1773c0.0649,-0.02029 0.12694,-0.04706 0.18536,-0.07955zM2.02346,2.11931c0.02412,0.07015 0.05535,0.13699 0.09283,0.19967c-0.02947,0.03847 -0.05656,0.07885 -0.08107,0.12093c-0.04182,0.03321 -0.0861,0.06346 -0.13251,0.09043c0.0013,-0.02262 0.00196,-0.04542 0.00196,-0.06837c0,-0.04394 -0.00242,-0.08732 -0.00714,-0.13001c0.03398,-0.06424 0.06229,-0.13193 0.08426,-0.20242c0.014,-0.00312 0.0279,-0.00653 0.04167,-0.01023zM1.85042,2.50028c-0.00096,-0.00187 -0.00192,-0.00373 -0.00289,-0.00559c-0.00032,-0.01087 -0.00048,-0.02178 -0.00048,-0.03272c0,-0.01506 0.00031,-0.03005 0.00092,-0.04496c0.00497,-0.00778 0.00986,-0.01563 0.01466,-0.02353c0.00136,0.02266 0.00204,0.0455 0.00204,0.0685c0,0.01555 -0.00031,0.03103 -0.00094,0.04643c-0.00446,-0.00268 -0.00889,-0.00538 -0.01331,-0.00812zM1.78549,2.50566c0.00763,0.00523 0.01532,0.01038 0.02308,0.01543c0.00098,0.01882 0.00241,0.03752 0.0043,0.05608c-0.04471,0.02076 -0.09105,0.03862 -0.13876,0.05334c0.03993,-0.03896 0.07716,-0.08067 0.11137,-0.12485zM1.82152,2.15167c0.00527,0.01849 0.01008,0.03717 0.01442,0.05604c-0.01473,0.06366 -0.02404,0.12939 -0.02744,0.19668c-0.00226,0.00346 -0.00453,0.0069 -0.00682,0.01034c-0.06853,-0.10903 -0.15503,-0.20562 -0.25535,-0.28562c0.07038,0.01581 0.14358,0.02415 0.21873,0.02415c0.01895,0 0.03777,-0.00053 0.05646,-0.00158zM1.85555,2.32557c0.00016,-0.00129 0.00033,-0.00258 0.00049,-0.00387c0.0001,0.00081 0.0002,0.00161 0.0003,0.00242c-0.00026,0.00049 -0.00053,0.00097 -0.00079,0.00145zM1.88765,2.26203c-0.00313,-0.01819 -0.00669,-0.03624 -0.01065,-0.05413c0.0051,-0.02124 0.01083,-0.04223 0.01716,-0.06296c0.01434,-0.00186 0.02858,-0.00403 0.04272,-0.00649c-0.01409,0.04233 -0.03055,0.08358 -0.04924,0.12359zM1.13323,2.56215c0.00317,0.01262 0.00655,0.02517 0.01011,0.03763c-0.00907,-0.00794 -0.018,-0.01602 -0.0268,-0.02424c0.0056,-0.00442 0.01117,-0.00888 0.0167,-0.01338zM1.19973,2.64594c-0.00173,-0.00508 -0.00344,-0.01017 -0.0051,-0.01527c0.00802,-0.0526 0.01933,-0.10411 0.03372,-0.15433c0.00666,-0.00664 0.01324,-0.01335 0.01975,-0.02013c0.01384,0.03503 0.02573,0.07103 0.03555,0.10788c-0.01078,0.03783 -0.02353,0.07483 -0.03813,0.11088c-0.00232,-0.00021 -0.00464,-0.00043 -0.00696,-0.00065c-0.01316,-0.00918 -0.0261,-0.01865 -0.03883,-0.02838zM1.1737,2.52773c-0.00127,0.00547 -0.00251,0.01095 -0.00371,0.01644c-0.00088,-0.00362 -0.00175,-0.00725 -0.0026,-0.01088c0.00211,-0.00185 0.00421,-0.0037 0.00631,-0.00556zM1.3024,2.48804c-0.00739,-0.02174 -0.01549,-0.04315 -0.02426,-0.06421c0.01433,-0.016 0.02827,-0.03236 0.0418,-0.04907c-0.00391,0.03838 -0.00978,0.07617 -0.01753,0.11328zM1.34752,2.67958c-0.00532,-0.03911 -0.01284,-0.07753 -0.02243,-0.11512c0.02181,-0.07951 0.03524,-0.16248 0.03926,-0.24792c0.03518,-0.04894 0.06698,-0.10047 0.09506,-0.15425c0.07639,0.12471 0.17627,0.23347 0.29348,0.32014c-0.04824,0.06211 -0.10265,0.11919 -0.16233,0.17031c-0.07821,0.01754 -0.15955,0.02681 -0.24304,0.02684zM1.30097,2.6415c0.00225,0.01238 0.00427,0.02484 0.00606,0.03737c-0.00656,-0.00023 -0.01311,-0.00052 -0.01964,-0.00087c0.00473,-0.01207 0.00926,-0.02423 0.01358,-0.0365zM1.08429,2.60012c0.02129,0.02014 0.04336,0.03946 0.06615,0.05792c-0.00017,0.00134 -0.00034,0.00269 -0.0005,0.00403c-0.03915,-0.00704 -0.07759,-0.01613 -0.11519,-0.02717c0.0168,-0.01121 0.03332,-0.02281 0.04955,-0.03478zM0.99057,2.66309c0.05027,0.01642 0.10206,0.02946 0.15512,0.03886c-0.0022,0.02416 -0.00373,0.04852 -0.00457,0.07305l-0.3851,0c0.08242,-0.0294 0.16093,-0.06703 0.23455,-0.11191zM1.18435,2.71935c0.00624,0.01552 0.01279,0.03089 0.01964,0.04609c-0.00165,0.0032 -0.00331,0.00638 -0.00499,0.00956l-0.01786,0c0.00066,-0.01866 0.00173,-0.03721 0.0032,-0.05565zM1.22702,2.71798c-0.00059,-0.00141 -0.00117,-0.00282 -0.00175,-0.00422c0.00093,0.00064 0.00187,0.00127 0.0028,0.00191c-0.00035,0.00077 -0.0007,0.00154 -0.00105,0.00232zM1.31573,2.76954c0.00009,0.00182 0.00018,0.00364 0.00026,0.00546h-0.06342c-0.0014,-0.00292 -0.00279,-0.00584 -0.00417,-0.00877c0.00464,-0.00941 0.00916,-0.01889 0.01355,-0.02844c0.01761,0.01106 0.03554,0.02165 0.05377,0.03175zM1.3543,2.74492c-0.00061,-0.00848 -0.00132,-0.01693 -0.00213,-0.02536c0.05819,-0.00025 0.11536,-0.00483 0.17121,-0.01344c-0.03366,0.02478 -0.06871,0.04778 -0.10501,0.06887l-0.00254,0c-0.02086,-0.0094 -0.04138,-0.01944 -0.06152,-0.03008zM1.31192,2.71905c0.00008,0.0008 0.00016,0.00161 0.00024,0.00241c-0.00144,-0.00085 -0.00288,-0.00169 -0.00432,-0.00255c0.00136,0.00005 0.00272,0.00009 0.00408,0.00013zM1.36213,2.17183c0.01705,-0.0279 0.03516,-0.05508 0.05429,-0.08147c0.00102,0.00038 0.00204,0.00076 0.00306,0.00114c0.00517,0.01 0.01049,0.0199 0.01595,0.02972c-0.02101,0.04234 -0.04438,0.08331 -0.06993,0.12273c-0.00038,-0.02423 -0.00151,-0.04828 -0.00337,-0.07212zM1.09629,2.24978c-0.00004,0.00406 -0.00006,0.00812 -0.00006,0.01219c0,0.08801 0.00927,0.17385 0.02688,0.25661c-0.01167,0.00983 -0.02353,0.01945 -0.03557,0.02885c-0.07375,-0.07416 -0.137,-0.15878 -0.18731,-0.25145c0.06742,-0.00972 0.13295,-0.02529 0.19605,-0.0462zM1.26033,2.38357c-0.00025,-0.00054 -0.00051,-0.00109 -0.00077,-0.00163c0.01886,-0.05017 0.04087,-0.0988 0.06578,-0.14565c0.0002,0.00854 0.00029,0.0171 0.00029,0.02569c0,0.01367 -0.00025,0.02728 -0.00074,0.04083c-0.02041,0.02783 -0.04195,0.05477 -0.06457,0.08076zM1.32118,2.16225c-0.03267,0.05472 -0.06139,0.11207 -0.08576,0.17167c-0.0205,-0.03825 -0.04334,-0.07505 -0.06834,-0.11022c0.05299,-0.02154 0.10401,-0.04692 0.15271,-0.0758c0.00049,0.00477 0.00095,0.00956 0.00138,0.01435zM1.1363,2.24944c0.03001,0.0425 0.05675,0.08748 0.07987,0.13455c-0.00845,0.02343 -0.01624,0.04718 -0.02334,0.07122c-0.01146,0.01124 -0.02315,0.02226 -0.03504,0.03305c-0.01415,-0.07326 -0.02155,-0.14891 -0.02155,-0.2263c0,-0.00418 0.00002,-0.00835 0.00006,-0.01252zM0.7762,2.30705c-0.03251,0.04966 -0.06172,0.10167 -0.08732,0.15573c-0.04306,-0.03188 -0.08372,-0.0668 -0.12167,-0.10446c0.00177,-0.02073 0.00407,-0.04132 0.00688,-0.06174c0.05258,0.00737 0.10631,0.01119 0.16092,0.01119c0.01379,0 0.02753,-0.00024 0.0412,-0.00073zM0.72199,2.48638c0.02977,-0.06381 0.06472,-0.12471 0.10431,-0.18218c0.01052,-0.00083 0.02099,-0.0018 0.03143,-0.0029c0.05242,0.09979 0.11921,0.19086 0.19761,0.27045c-0.02271,0.01658 -0.04601,0.0324 -0.06986,0.04743c-0.09424,-0.03255 -0.18272,-0.07746 -0.26349,-0.1328zM0.53456,2.29034c-0.00138,0.00999 -0.00264,0.02003 -0.00379,0.03009c-0.01112,-0.01212 -0.02196,-0.02449 -0.03254,-0.0371c0.01204,0.00252 0.02415,0.00486 0.03632,0.007zM0.43484,2.26815c0.02822,0.03694 0.05864,0.07212 0.09106,0.10534c-0.00206,0.02923 -0.0031,0.05873 -0.0031,0.08848c0,0.10813 0.01381,0.21303 0.03977,0.31303l-0.30694,0c-0.01031,-0.00599 -0.02053,-0.01214 -0.03063,-0.01844l0,-0.35847c0.01654,-0.04399 0.03559,-0.08675 0.05698,-0.12811c0.04099,-0.00175 0.08149,-0.00539 0.12142,-0.01082c0.01042,0.00314 0.0209,0.00613 0.03144,0.00898zM0.23655,2.27115c-0.00393,0.00795 -0.00779,0.01595 -0.01155,0.02399v-0.02394c0.00385,0 0.00771,-0.00002 0.01155,-0.00005zM0.62848,2.77187c0.01717,-0.08629 0.04314,-0.16941 0.07693,-0.24839c0.07308,0.04939 0.15215,0.09059 0.23591,0.12227c-0.09681,0.05552 -0.20185,0.09832 -0.31283,0.12612zM0.67197,2.5c-0.03306,0.0759 -0.05909,0.15556 -0.07729,0.23816c-0.02085,-0.08868 -0.03187,-0.18115 -0.03187,-0.27619c0,-0.01719 0.00036,-0.0343 0.00108,-0.05132c0.03415,0.03191 0.07024,0.06176 0.10809,0.08935zM2.52016,1.93864c0.01449,0.00877 0.02879,0.01783 0.04289,0.02716c-0.01615,0.00721 -0.0321,0.01477 -0.04785,0.02269c-0.02334,-0.01172 -0.04612,-0.0244 -0.06828,-0.03799c0.0247,-0.00306 0.04912,-0.00703 0.07323,-0.01186zM2.56188,2.01032c0.01321,-0.00617 0.02655,-0.01209 0.04004,-0.01775c0.02621,0.01878 0.05167,0.03854 0.07633,0.05923c-0.03995,-0.01128 -0.0788,-0.02517 -0.11636,-0.04148zM2.75991,2.07089c-0.03612,-0.034 -0.07418,-0.06596 -0.114,-0.0957c0.0419,-0.01552 0.08499,-0.02859 0.12909,-0.03904v0.13742c-0.00504,-0.00085 -0.01007,-0.00175 -0.01509,-0.00268zM2.60704,1.94725c-0.01049,-0.00725 -0.02109,-0.01435 -0.0318,-0.0213c0.06986,-0.0182 0.13674,-0.04377 0.19976,-0.07584l0,0.04496c-0.05776,0.01318 -0.11386,0.03069 -0.16796,0.05218zM2.67487,1.55965c0.0063,-0.0143 0.01227,-0.02878 0.0179,-0.04343c0.02672,0.01162 0.05416,0.02191 0.08222,0.03079v0.03663c-0.03286,-0.00929 -0.06625,-0.01731 -0.10013,-0.02399zM2.65747,1.59703c0.03988,0.00754 0.07909,0.01699 0.11753,0.02824v0.11319c-0.03578,-0.04986 -0.07517,-0.09697 -0.11777,-0.14093c0.00008,-0.00017 0.00016,-0.00033 0.00025,-0.0005zM2.44762,1.89792c0.00609,0.00316 0.01215,0.00636 0.01818,0.00962c-0.00731,0.00109 -0.01464,0.0021 -0.022,0.00303c0.0013,-0.00421 0.00257,-0.00842 0.00382,-0.01265zM2.52726,1.89628c-0.01977,-0.01164 -0.03987,-0.02277 -0.06028,-0.03338c0.06724,-0.06711 0.12491,-0.1438 0.1708,-0.22785c0.04998,0.05273 0.09523,0.10998 0.13507,0.17108c-0.0763,0.04065 -0.15875,0.07129 -0.24558,0.09015zM2.52025,1.41565c-0.01159,0.00455 -0.02308,0.00929 -0.03448,0.01421c-0.0019,-0.01538 -0.00411,-0.03066 -0.00661,-0.04584c0.00048,-0.00003 0.00095,-0.00006 0.00143,-0.00009c0.0129,0.01096 0.02613,0.02154 0.03967,0.03172zM2.63433,1.55233c-0.00924,-0.00152 -0.01852,-0.00293 -0.02783,-0.00425c-0.03201,-0.02949 -0.06557,-0.05731 -0.10055,-0.08334c0.01764,-0.00752 0.03552,-0.01459 0.05363,-0.02119c0.03091,0.02063 0.06323,0.0393 0.09681,0.05582c-0.00683,0.01792 -0.01419,0.03558 -0.02206,0.05296zM2.4945,1.57724c0.03167,0.00175 0.06303,0.00468 0.09403,0.00876c0.00671,0.00631 0.01334,0.01269 0.0199,0.01915c-0.03736,0.07057 -0.08332,0.13589 -0.13648,0.19457c0.01447,-0.07195 0.02222,-0.14633 0.02254,-0.22247zM2.5369,1.54014c-0.01424,-0.00123 -0.02855,-0.00223 -0.04291,-0.00299c-0.00033,-0.01085 -0.0008,-0.02166 -0.00143,-0.03243c0.01506,0.01147 0.02985,0.02328 0.04434,0.03543zM2.43885,1.38561c0.00203,0.01198 0.00387,0.02402 0.00552,0.03612c-0.01966,-0.01287 -0.03972,-0.02519 -0.06013,-0.03695c0.01344,0.00063 0.02696,0.00095 0.04056,0.00095c0.00469,0 0.00938,-0.00004 0.01406,-0.00011zM2.34478,1.40846c0.02783,0.01535 0.055,0.03177 0.08143,0.04921c-0.04961,0.02497 -0.09712,0.05351 -0.14219,0.08528c-0.0212,0.00231 -0.04225,0.00514 -0.06313,0.00847c-0.01304,-0.01788 -0.02656,-0.03538 -0.04054,-0.0525c0.05846,-0.02395 0.11357,-0.0544 0.16443,-0.09046zM2.38644,1.86827c0.0037,0.00167 0.0074,0.00336 0.01108,0.00507c-0.00239,0.00212 -0.0048,0.00423 -0.00721,0.00633c-0.00127,-0.00381 -0.00256,-0.00761 -0.00387,-0.01141zM2.45392,1.53564c-0.00968,-0.00022 -0.01939,-0.00032 -0.02912,-0.00032c-0.01955,0 -0.039,0.00044 -0.05833,0.0013c0.02755,-0.01684 0.05592,-0.03248 0.08502,-0.04685c0.00112,0.01521 0.00193,0.0305 0.00243,0.04587zM2.29866,1.58163c0.04148,-0.00418 0.08356,-0.00631 0.12614,-0.00631c0.00993,0 0.01983,0.00012 0.0297,0.00035c-0.00028,0.09131 -0.01161,0.18001 -0.03272,0.26485c-0.01798,-0.00847 -0.03619,-0.01655 -0.05462,-0.02421c-0.02882,-0.0725 -0.06447,-0.14155 -0.10614,-0.20634c0.01233,-0.00971 0.02488,-0.01915 0.03763,-0.02832zM2.14086,1.51392c0.01237,0.0148 0.02438,0.0299 0.03601,0.0453c-0.02511,0.00491 -0.04997,0.01055 -0.07453,0.01691c-0.0047,-0.00933 -0.00925,-0.01875 -0.01364,-0.02826c0.00504,-0.00722 0.01,-0.01451 0.01486,-0.02186c0.01256,-0.00374 0.025,-0.00778 0.0373,-0.01209zM2.12169,1.61249c0.02673,-0.00669 0.05381,-0.01252 0.0812,-0.01745c0.00158,0.00227 0.00315,0.00454 0.00472,0.00682c-0.02061,0.01734 -0.04059,0.03542 -0.05989,0.05418c-0.00906,-0.01426 -0.01774,-0.02878 -0.02602,-0.04355zM2.28982,1.82937c0.01557,0.00553 0.03101,0.01136 0.04629,0.01748c0.0043,0.0113 0.00844,0.02269 0.0124,0.03416c-0.02029,-0.01639 -0.03987,-0.03362 -0.05869,-0.05164zM2.31539,1.79606c-0.02744,-0.01005 -0.0553,-0.01921 -0.08357,-0.02744c-0.02188,-0.02508 -0.04242,-0.05135 -0.06153,-0.0787c0.01917,-0.01888 0.03903,-0.03705 0.05955,-0.05447c0.0325,0.05098 0.06116,0.10465 0.08555,0.16061zM1.89434,1.75716c0.00261,0.00006 0.00522,0.00012 0.00782,0.00019c0.02165,0.01134 0.04292,0.02331 0.06377,0.03591c0.00037,0.01923 0.00125,0.03833 0.00263,0.0573c-0.04162,-0.01656 -0.0818,-0.03595 -0.12031,-0.05794c0.0157,-0.01139 0.03107,-0.02321 0.04609,-0.03545zM1.96695,1.72064c-0.00937,-0.00071 -0.01877,-0.00132 -0.02819,-0.00183c0.01022,-0.00934 0.02024,-0.01888 0.03007,-0.02862c-0.00077,0.01011 -0.0014,0.02026 -0.00188,0.03045zM2.18565,1.9084c-0.03816,-0.03512 -0.07852,-0.06788 -0.12087,-0.09804c0.00859,-0.0114 0.0174,-0.02262 0.02642,-0.03366c0.04016,0.00719 0.07965,0.01628 0.1184,0.02718c0.03706,0.04145 0.07763,0.07968 0.12126,0.11423c-0.00268,0.00002 -0.00537,0.00003 -0.00805,0.00003c-0.04657,0 -0.09236,-0.00332 -0.13715,-0.00974zM2.1658,1.75128c-0.0148,-0.00347 -0.02969,-0.00669 -0.04468,-0.00965c0.0068,-0.00764 0.01371,-0.01518 0.02073,-0.02263c0.00777,0.01093 0.01575,0.02169 0.02395,0.03228zM2.04129,1.84274c0.02294,0.01632 0.04527,0.03344 0.06697,0.0513c-0.02592,-0.00593 -0.05143,-0.0129 -0.0765,-0.02088c0.00052,-0.00619 0.00098,-0.01238 0.00141,-0.0186c0.00268,-0.00396 0.00539,-0.0079 0.00813,-0.01182zM2.06304,1.58697c-0.00131,0.00038 -0.00262,0.00077 -0.00394,0.00116c0.00092,-0.00119 0.00184,-0.00238 0.00275,-0.00357c0.00039,0.0008 0.00079,0.00161 0.00119,0.00241zM2.0287,1.63968c0.01755,-0.00589 0.03528,-0.0114 0.05317,-0.01651c0.01157,0.02114 0.02391,0.04181 0.03698,0.06196c-0.015,0.01567 -0.02954,0.03177 -0.04362,0.04828c-0.0133,-0.00214 -0.02667,-0.00407 -0.0401,-0.0058c-0.00108,-0.02959 -0.00324,-0.05891 -0.00643,-0.08792zM2.03594,1.76806c0.00329,0.00044 0.00657,0.00089 0.00985,0.00136c-0.00333,0.00424 -0.00662,0.00851 -0.00989,0.0128c0.00003,-0.00334 0.00004,-0.00667 0.00004,-0.01002c0,-0.00138 0,-0.00276 -0.00001,-0.00414zM1.70363,1.88034c0.04357,0.07241 0.07926,0.1501 0.10586,0.23189c-0.01472,0.00068 -0.02954,0.00102 -0.04443,0.00102c-0.09183,0 -0.18062,-0.01298 -0.26466,-0.0372c0.01327,-0.03086 0.02536,-0.06235 0.03621,-0.09442c0.01711,-0.01669 0.03371,-0.03391 0.04976,-0.05164c0.04029,-0.01417 0.07944,-0.03078 0.11726,-0.04965zM1.90806,2.1026c0.01949,-0.05548 0.04338,-0.10889 0.07123,-0.15982c0.0007,0.00437 0.00143,0.00872 0.00218,0.01307c-0.00756,0.04749 -0.01801,0.09403 -0.03116,0.13941c-0.01398,0.00275 -0.02807,0.0052 -0.04226,0.00733zM1.96261,1.8912c-0.04021,0.06805 -0.07345,0.14071 -0.09873,0.21699c-0.00441,0.00045 -0.00883,0.00088 -0.01326,0.00127c-0.02761,-0.08746 -0.06522,-0.17048 -0.11148,-0.24771c0.02493,-0.01368 0.04923,-0.02836 0.07284,-0.04399c0.04778,0.0285 0.09813,0.05313 0.15063,0.07344zM2.25528,1.97777c-0.0074,-0.00798 -0.0149,-0.01585 -0.0225,-0.02363c0.01811,0.00162 0.03636,0.00275 0.05474,0.00339c-0.0106,0.00695 -0.02135,0.0137 -0.03223,0.02024zM2.16748,1.94613c0.01789,0.01681 0.03527,0.03416 0.05211,0.05203c-0.05375,0.0292 -0.11063,0.05338 -0.17,0.07191c-0.0113,-0.03736 -0.02054,-0.07561 -0.02756,-0.11463c0.00212,-0.0138 0.004,-0.02769 0.00564,-0.04164c0.04531,0.014 0.092,0.02486 0.13981,0.03233zM2.00297,2.05264c0.0026,0.00957 0.00533,0.01909 0.00819,0.02855c-0.00549,0.00146 -0.01101,0.00288 -0.01654,0.00425c0.00293,-0.01087 0.00572,-0.0218 0.00835,-0.03279zM1.44946,2.05979c-0.00031,-0.0002 -0.00062,-0.00039 -0.00092,-0.00059c0.00796,-0.00633 0.01584,-0.01275 0.02363,-0.01929c-0.00331,0.0081 -0.00671,0.01616 -0.01018,0.02417c-0.00419,-0.0014 -0.00836,-0.00283 -0.01253,-0.00429zM1.9753,1.55331c0.00223,0.01169 0.00429,0.02344 0.00617,0.03525c-0.00155,0.00894 -0.00299,0.01791 -0.00432,0.02693c-0.04988,0.01855 -0.09829,0.0401 -0.14501,0.06445c-0.02019,-0.0086 -0.04066,-0.01669 -0.06139,-0.02423c0.01517,-0.03162 0.02893,-0.06403 0.04121,-0.09717c0.01821,0.0012 0.03658,0.00181 0.05509,0.00181c0.03669,0 0.07282,-0.00239 0.10824,-0.00702zM1.87903,1.70107c0.01333,-0.00651 0.02679,-0.0128 0.04038,-0.01885c-0.00909,0.00849 -0.01835,0.01681 -0.02775,0.02495c-0.0042,-0.00206 -0.00841,-0.00409 -0.01263,-0.0061zM1.75269,1.69171c0.01151,0.00414 0.02293,0.00845 0.03427,0.01292c-0.00949,0.00544 -0.01891,0.011 -0.02825,0.01668c-0.00535,0.00044 -0.01069,0.00091 -0.01602,0.00142c-0.00161,-0.00122 -0.00321,-0.00245 -0.0048,-0.00368c0.00505,-0.00904 0.00999,-0.01815 0.0148,-0.02734zM1.79365,1.75897c0.0116,-0.00067 0.02325,-0.00117 0.03494,-0.00152c-0.00586,0.00429 -0.01176,0.00852 -0.01772,0.01268c-0.00578,-0.00366 -0.01152,-0.00738 -0.01722,-0.01116zM2.02672,1.56462c0.00141,-0.00688 0.00289,-0.01374 0.00444,-0.02057c0.00368,-0.00074 0.00734,-0.0015 0.011,-0.00229c0.00022,0.0005 0.00043,0.00101 0.00065,0.00151c-0.00527,0.00719 -0.01064,0.01431 -0.0161,0.02135zM1.66328,1.83545c0.0026,-0.00201 0.00521,-0.00402 0.00783,-0.00601c0.00377,0.00558 0.0075,0.01119 0.01118,0.01683c-0.01378,0.00681 -0.02774,0.0133 -0.04187,0.01947c0.00778,-0.00997 0.01541,-0.02006 0.02286,-0.03029zM1.71795,1.82773c-0.00479,-0.00741 -0.00966,-0.01476 -0.01462,-0.02206c0.01444,-0.01029 0.0291,-0.02028 0.04398,-0.02995c0.00898,0.00635 0.01807,0.01255 0.02727,0.0186c-0.01847,0.01174 -0.03736,0.02289 -0.05664,0.03341zM1.40795,1.55453c0.01345,0.00999 0.02666,0.02027 0.03964,0.03083c-0.0224,-0.0018 -0.04496,-0.003 -0.06768,-0.00359c0.00231,-0.00428 0.0046,-0.00858 0.00687,-0.01289c0.00712,-0.0047 0.01418,-0.00948 0.02117,-0.01435zM1.35763,1.62139c0.0483,0.00041 0.09592,0.00369 0.1427,0.00966c0.02,0.01843 0.03933,0.03757 0.05795,0.05738c-0.00211,0.0226 -0.00482,0.04502 -0.00813,0.06725c-0.06497,0.01624 -0.12801,0.03735 -0.18871,0.06293c-0.0122,-0.05285 -0.02056,-0.10718 -0.02477,-0.16266c0.00716,-0.0114 0.01414,-0.02292 0.02096,-0.03456zM1.37129,1.85789c0.0553,-0.02363 0.11264,-0.04342 0.17166,-0.05905c-0.00699,0.03772 -0.01568,0.07483 -0.02601,0.11127c-0.03943,0.01125 -0.07986,0.02012 -0.12113,0.02643c-0.00913,-0.02578 -0.01732,-0.05201 -0.02452,-0.07865zM1.55566,1.59883c-0.01249,-0.00212 -0.02504,-0.00405 -0.03765,-0.00579c-0.0245,-0.02209 -0.04993,-0.04315 -0.07623,-0.06313c0.01357,-0.01032 0.02688,-0.02098 0.03989,-0.03197c0.02258,0.0352 0.0473,0.0689 0.07399,0.10089zM1.15562,1.88384c-0.00079,0.00244 -0.00157,0.00488 -0.00235,0.00733c-0.0009,-0.00076 -0.0018,-0.00151 -0.0027,-0.00227c0.00169,-0.00168 0.00337,-0.00337 0.00505,-0.00506zM1.21446,1.93833c0.0174,-0.01052 0.03508,-0.02064 0.05302,-0.03034c0.00442,0.01301 0.0086,0.02613 0.01253,0.03936c-0.01158,0.0004 -0.02321,0.0006 -0.03488,0.0006c-0.00569,0 -0.01137,-0.00005 -0.01704,-0.00014c-0.00457,-0.00312 -0.00912,-0.00628 -0.01363,-0.00948zM1.25377,1.86994c-0.02144,0.01146 -0.04253,0.02351 -0.06324,0.03611c0.01069,-0.03405 0.02288,-0.06744 0.03649,-0.1001c0.00957,0.02098 0.01849,0.04232 0.02675,0.06399zM1.32104,1.94508c-0.00542,-0.01879 -0.01131,-0.03738 -0.01766,-0.05575c0.01024,-0.00511 0.02055,-0.01009 0.03094,-0.01494c0.0063,0.02279 0.0133,0.0453 0.02097,0.06749c-0.01136,0.00126 -0.02278,0.00233 -0.03425,0.0032zM1.32419,1.835c-0.01164,0.00534 -0.02318,0.01085 -0.03464,0.01652c-0.01048,-0.02717 -0.02198,-0.05385 -0.03444,-0.07997c0.01612,-0.02043 0.03165,-0.04134 0.04656,-0.06273c0.00516,0.04284 0.01271,0.08495 0.02252,0.12618zM1.63423,1.80737c-0.02162,0.0169 -0.04268,0.03448 -0.06315,0.05271c0.00545,-0.02365 0.01025,-0.04756 0.01436,-0.07169c0.01619,-0.00369 0.03249,-0.00706 0.0489,-0.01012c0.00355,0.00466 0.00706,0.00935 0.01054,0.01407c-0.00351,0.00504 -0.00707,0.01005 -0.01066,0.01503zM1.60634,1.74296c-0.00481,0.00098 -0.00961,0.00198 -0.0144,0.00301c0.00079,-0.00581 0.00154,-0.01163 0.00225,-0.01746c0.00409,0.00478 0.00814,0.0096 0.01214,0.01445zM1.68565,1.7294c-0.01156,0.00161 -0.02307,0.00337 -0.03453,0.00528c-0.01648,-0.02073 -0.03365,-0.04089 -0.05147,-0.06044c0.00064,-0.00808 0.0012,-0.01618 0.00169,-0.0243c0.02668,0.02787 0.05495,0.0542 0.08468,0.07884c-0.00012,0.00021 -0.00025,0.00041 -0.00037,0.00062zM1.73268,1.64254c-0.03679,-0.01204 -0.07435,-0.02241 -0.11257,-0.03101c-0.00561,-0.00605 -0.01115,-0.01217 -0.0166,-0.01836c0.00011,-0.00698 0.00017,-0.01397 0.00017,-0.02097c0,-0.01846 -0.00039,-0.03683 -0.00117,-0.0551c0.05378,0.01815 0.11004,0.03091 0.16813,0.03766c-0.01142,0.0299 -0.02409,0.05918 -0.03795,0.08777zM1.67602,1.66704c0.01286,0.00366 0.02564,0.00754 0.03832,0.01161c-0.00265,0.005 -0.00534,0.00997 -0.00807,0.01492c-0.01027,-0.00864 -0.02035,-0.01748 -0.03025,-0.02653zM1.56172,1.50213c0.00079,0.01407 0.00134,0.0282 0.00165,0.04239c-0.01499,-0.01943 -0.02925,-0.03946 -0.04274,-0.06004c0.0135,0.00624 0.02721,0.01212 0.04109,0.01764zM1.12206,1.91717c-0.0002,-0.00005 -0.0004,-0.0001 -0.00059,-0.00015c0.00007,-0.00006 0.00013,-0.00012 0.0002,-0.00018c0.00013,0.00011 0.00026,0.00022 0.0004,0.00034zM0.54402,2.23213c-0.00116,0.00621 -0.00228,0.01243 -0.00334,0.01867c-0.01403,-0.00248 -0.02797,-0.00523 -0.04181,-0.00823c0.01515,-0.00322 0.0302,-0.0067 0.04516,-0.01043zM0.58019,2.25705c0.0021,-0.01222 0.00438,-0.02437 0.00684,-0.03646c0.07012,-0.02009 0.13783,-0.04588 0.20261,-0.07682c0.01083,0.03142 0.02301,0.06222 0.03644,0.09233c-0.00734,0.00974 -0.01455,0.01959 -0.02163,0.02954c-0.02297,0.00142 -0.04613,0.00214 -0.06946,0.00214c-0.05254,0 -0.10422,-0.00366 -0.15481,-0.01073zM1.35132,2.08072c-0.00101,-0.00632 -0.00207,-0.01263 -0.00318,-0.01891c0.00617,0.00286 0.01237,0.00565 0.01861,0.00838c-0.00511,0.00355 -0.01025,0.00706 -0.01543,0.01053zM1.21372,1.98749c0.00124,0.00045 0.00248,0.00091 0.00372,0.00137c0.02764,0.01829 0.05624,0.03523 0.08572,0.05074c0.00439,0.02138 0.00816,0.043 0.01128,0.06481c-0.0544,0.03344 -0.11191,0.0623 -0.17199,0.08607c-0.00126,-0.00163 -0.00253,-0.00326 -0.0038,-0.00489c0.00436,-0.06856 0.01453,-0.13553 0.03004,-0.20043c0.01492,0.0011 0.02993,0.00187 0.04503,0.00233zM1.08724,1.97591c-0.02865,0.02144 -0.05638,0.04402 -0.08314,0.06769c-0.00601,-0.00525 -0.01209,-0.01043 -0.01822,-0.01554c0.02532,-0.01806 0.04996,-0.037 0.07389,-0.05677c0.00911,0.00166 0.01827,0.0032 0.02747,0.00462zM1.0339,2.07066c0.02911,-0.02558 0.05942,-0.04984 0.09081,-0.07269c-0.01028,0.04687 -0.01788,0.09474 -0.02263,0.14345c-0.0216,-0.02466 -0.04435,-0.04827 -0.06818,-0.07077zM0.95164,2.05168c0.00767,0.00624 0.01524,0.0126 0.02271,0.01906c-0.04292,0.04039 -0.0831,0.08365 -0.12023,0.12949c-0.01031,-0.02437 -0.01977,-0.04919 -0.02833,-0.07442c0.04342,-0.02241 0.08542,-0.04718 0.12585,-0.07413zM0.87252,2.24134c0.04016,-0.05124 0.08419,-0.09929 0.13165,-0.14372c0.03349,0.03142 0.0648,0.06514 0.09366,0.10092c-0.00015,0.00287 -0.00028,0.00575 -0.00041,0.00862c-0.06937,0.024 -0.14187,0.0413 -0.21672,0.05113c-0.00278,-0.00562 -0.00551,-0.01127 -0.00819,-0.01695zM1.38664,2.02241c-0.01719,-0.00949 -0.03464,-0.01855 -0.05236,-0.02717c-0.00087,-0.00363 -0.00176,-0.00725 -0.00266,-0.01087c0.01267,-0.00106 0.02528,-0.00234 0.03782,-0.00385c0.00546,0.0141 0.01119,0.02807 0.0172,0.04189zM1.46697,1.96397c-0.01409,0.01575 -0.02779,0.03186 -0.0411,0.0483c-0.00546,-0.01238 -0.0107,-0.02487 -0.0157,-0.03748c0.01911,-0.00308 0.03805,-0.00669 0.0568,-0.01082zM0.79004,1.75843c0.01657,-0.00872 0.03337,-0.01706 0.05039,-0.02501c0.03682,-0.00012 0.07317,-0.00224 0.10895,-0.00624c0.04141,0.0594 0.08913,0.11406 0.14221,0.16301c-0.0057,0.00531 -0.01145,0.01057 -0.01724,0.01577c-0.05968,-0.01266 -0.1211,-0.02064 -0.18383,-0.02354c-0.04196,-0.01614 -0.08255,-0.03505 -0.12153,-0.05652c-0.00057,-0.01185 -0.00095,-0.02375 -0.00114,-0.03569c0.00723,-0.01072 0.01464,-0.02131 0.0222,-0.03178zM0.72854,1.72762c-0.00025,0.00645 -0.00044,0.01291 -0.00058,0.01939c-0.01476,0.00854 -0.02934,0.01738 -0.04371,0.0265c-0.03072,-0.02121 -0.06019,-0.04412 -0.08826,-0.06859c0.0005,-0.00011 0.001,-0.00023 0.0015,-0.00034c0.04267,0.01049 0.08642,0.01824 0.13104,0.02305zM1.15954,1.68028c0.01584,0.0254 0.03068,0.05149 0.04445,0.07822c-0.00392,0.00871 -0.00775,0.01747 -0.01148,0.02628c-0.02294,0.02687 -0.04698,0.05277 -0.07204,0.07764c-0.04659,-0.04276 -0.08892,-0.09008 -0.12627,-0.14127c0.05685,-0.00898 0.1121,-0.02274 0.16534,-0.04087zM1.26763,1.63622c-0.01498,0.0252 -0.02908,0.05098 -0.04226,0.07731c-0.00878,-0.01598 -0.01793,-0.03172 -0.02743,-0.04722c0.02368,-0.00917 0.04692,-0.01921 0.06969,-0.03009zM0.54734,1.71498c0.03187,0.02946 0.06561,0.05692 0.10102,0.0822c-0.01451,0.00994 -0.0288,0.02017 -0.04286,0.0307c-0.08858,-0.02482 -0.18199,-0.03809 -0.2785,-0.03809c-0.02199,0 -0.04382,0.00069 -0.06547,0.00205c-0.00392,-0.0195 -0.00733,-0.03919 -0.01022,-0.05904c0.02503,0.00156 0.05027,0.00234 0.07569,0.00234c0.07526,0 0.14891,-0.00692 0.22034,-0.02015zM0.65327,1.84253c0.0101,-0.00718 0.02031,-0.01421 0.03064,-0.02109c0.00396,0.00259 0.00795,0.00515 0.01195,0.00768c-0.00462,0.0078 -0.00917,0.01565 -0.01362,0.02355c-0.00959,-0.00352 -0.01924,-0.00691 -0.02896,-0.01015zM0.37997,2.11195c0.03568,-0.04868 0.07495,-0.09456 0.11742,-0.13726c0.04558,-0.0148 0.09246,-0.0267 0.14043,-0.03549c-0.03668,0.07895 -0.0653,0.1624 -0.08482,0.24929c-0.03589,0.00956 -0.07241,0.01758 -0.10947,0.024c-0.02291,-0.03228 -0.04414,-0.06584 -0.06355,-0.10055zM0.41392,2.00562c-0.01901,0.02178 -0.03728,0.04423 -0.05475,0.06731c-0.00576,-0.01135 -0.01134,-0.02281 -0.01672,-0.03438c0.02336,-0.0118 0.04719,-0.02278 0.07147,-0.03292zM0.65946,1.89495c-0.03314,0.00519 -0.06581,0.01181 -0.09794,0.01979c0.01698,-0.01475 0.03437,-0.02903 0.05217,-0.04282c0.01661,0.00502 0.03303,0.01046 0.04925,0.01631c-0.00117,0.00223 -0.00232,0.00447 -0.00348,0.00672zM0.5659,1.8588c-0.03131,0.02549 -0.06136,0.05248 -0.09002,0.08085c-0.05163,0.01726 -0.10162,0.03811 -0.14966,0.06226c-0.02307,-0.05474 -0.04186,-0.11173 -0.05597,-0.17054c0.01878,-0.00106 0.0377,-0.0016 0.05675,-0.0016c0.08237,0 0.16239,0.01006 0.2389,0.02902zM0.59704,2.17591c0.02085,-0.08541 0.05081,-0.16724 0.08881,-0.24441c0.01723,-0.00237 0.03459,-0.00434 0.05207,-0.00591c0.00829,0.06162 0.02151,0.12169 0.03925,0.17978c-0.05775,0.02788 -0.11793,0.05153 -0.18013,0.07053zM0.73204,1.87248c-0.00404,-0.00173 -0.00809,-0.00343 -0.01215,-0.00511c0.00334,-0.00587 0.00674,-0.0117 0.01018,-0.01751c0.00008,0.00005 0.00016,0.00009 0.00023,0.00014c0.00051,0.00751 0.00109,0.01501 0.00174,0.02248zM0.95336,2.00206c-0.03876,-0.02974 -0.0797,-0.05678 -0.12254,-0.08085c0.00206,-0.00001 0.00412,-0.00002 0.00618,-0.00002c0.01517,0 0.03026,0.00031 0.04528,0.00092c0.04109,0.0155 0.08342,0.02844 0.12682,0.03863c-0.01819,0.01427 -0.03677,0.02805 -0.05574,0.04132zM0.79026,1.88213c-0.0057,0.00023 -0.01138,0.0005 -0.01706,0.00082c-0.00033,-0.00331 -0.00065,-0.00662 -0.00095,-0.00993c0.00597,0.0031 0.01197,0.00614 0.01801,0.00912zM0.78033,1.93944c0.04847,0.02501 0.09461,0.05391 0.13801,0.08628c-0.03388,0.02208 -0.06887,0.04258 -0.10488,0.06141c-0.01431,-0.04794 -0.02544,-0.09725 -0.03313,-0.1477zM0.32714,2.19031c0.00884,-0.01429 0.01796,-0.02837 0.02737,-0.04225c0.01331,0.02289 0.02739,0.04529 0.0422,0.06714c-0.02355,-0.00754 -0.04675,-0.01584 -0.06958,-0.02489zM0.33283,2.10904c-0.01502,0.0214 -0.02939,0.0433 -0.04306,0.06567c-0.02197,-0.00965 -0.04357,-0.01999 -0.06477,-0.031l0,-0.03639c0.02654,-0.01784 0.05391,-0.03455 0.08202,-0.05006c0.00818,0.01751 0.01679,0.03477 0.02581,0.05179zM0.29067,2.02059c-0.02236,0.01225 -0.04426,0.02523 -0.06567,0.03891l0,-0.22452c0.00162,-0.00017 0.00325,-0.00033 0.00487,-0.00049c0.01503,0.06428 0.03547,0.12648 0.0608,0.1861zM0.26932,2.20941c-0.00402,0.00708 -0.00797,0.01421 -0.01186,0.02138c-0.01079,0.00027 -0.02161,0.00041 -0.03246,0.00041l0,-0.04262c0.0146,0.00725 0.02937,0.0142 0.04432,0.02084zM0.30433,2.22877c0.00069,-0.00122 0.00139,-0.00243 0.00208,-0.00365c0.00252,0.00101 0.00505,0.00202 0.00757,0.00302c-0.00322,0.00022 -0.00643,0.00043 -0.00966,0.00063zM2.73958,1.35452c0.00205,-0.0103 0.00394,-0.02066 0.00567,-0.03108c0.01002,-0.00407 0.01994,-0.00832 0.02976,-0.01275v0.03834c-0.01187,0.00165 -0.02368,0.00348 -0.03542,0.00549zM2.73019,1.39684c0.01483,-0.00277 0.02977,-0.00525 0.04481,-0.00741v0.11551c-0.02335,-0.0078 -0.04624,-0.01662 -0.06859,-0.02643c0.00905,-0.02673 0.017,-0.05397 0.02378,-0.08167zM2.7017,1.33974c-0.00147,0.00767 -0.00303,0.01531 -0.00467,0.02292c-0.04492,0.0095 -0.08886,0.02169 -0.13162,0.03638c-0.00952,-0.00669 -0.01889,-0.01359 -0.0281,-0.02067c0.05675,-0.00748 0.11174,-0.02055 0.1644,-0.03863zM2.60815,1.42714c0.02574,-0.00801 0.05189,-0.01509 0.07842,-0.0212c-0.00499,0.01873 -0.01054,0.03723 -0.01663,0.05549c-0.02114,-0.01055 -0.04175,-0.022 -0.06179,-0.03429zM2.71827,1.18797c-0.00105,0.03606 -0.00411,0.07162 -0.00906,0.10657c-0.06784,0.02536 -0.13997,0.04191 -0.21501,0.04826c-0.00963,-0.00851 -0.01905,-0.01725 -0.02827,-0.02621c-0.00079,-0.00348 -0.0016,-0.00695 -0.00242,-0.01042c0.04814,-0.05011 0.09002,-0.10627 0.12439,-0.16723c0.04157,0.02 0.08516,0.03647 0.13037,0.04903zM2.75179,1.27723c0.00308,-0.02615 0.00515,-0.05261 0.00616,-0.07933c0.00566,0.00126 0.01134,0.00246 0.01704,0.00359v0.06508c-0.00767,0.00367 -0.01541,0.00722 -0.02321,0.01066zM2.42995,1.33919c0.00046,0.00217 0.00092,0.00434 0.00137,0.00651c-0.00217,0.00002 -0.00435,0.00003 -0.00652,0.00003c-0.00065,0 -0.00131,0 -0.00196,0c0.00238,-0.00216 0.00475,-0.00434 0.00711,-0.00653zM2.38237,1.07687c0.03909,0.00193 0.07768,0.00576 0.11568,0.01138c0.0176,0.0115 0.03568,0.02232 0.05422,0.03243c-0.02845,0.05023 -0.06227,0.09702 -0.10067,0.13959c-0.01791,-0.06354 -0.04116,-0.12485 -0.06922,-0.1834zM2.4322,1.04021c-0.0233,-0.00206 -0.04678,-0.00347 -0.07043,-0.00421c-0.00496,-0.00937 -0.01005,-0.01867 -0.01527,-0.02789c0.00835,-0.00751 0.01683,-0.01488 0.02543,-0.02211c0.01915,0.01907 0.03926,0.03716 0.06027,0.05421zM2.28009,0.9754c0.00534,0.00833 0.01057,0.01673 0.01568,0.02521c-0.00782,0.00747 -0.01552,0.01505 -0.02311,0.02275c-0.00033,-0.00087 -0.00066,-0.00174 -0.00099,-0.0026c0.00089,-0.01517 0.00145,-0.03042 0.00167,-0.04576c0.00224,0.00015 0.00449,0.00028 0.00674,0.00041zM2.2948,1.07572c0.00931,-0.00022 0.01864,-0.00032 0.028,-0.00032c0.00478,0 0.00956,0.00003 0.01433,0.00008c0.02865,0.05699 0.05252,0.11679 0.07109,0.17888c-0.04514,-0.05405 -0.0834,-0.11404 -0.11342,-0.17864zM2.21226,0.96852c0.00564,0.01971 0.01197,0.03913 0.01896,0.05823c-0.00027,0.00403 -0.00057,0.00806 -0.00088,0.01208c-0.07341,0.00547 -0.14502,0.0174 -0.21427,0.03523c0.0034,-0.0042 0.00676,-0.00844 0.01008,-0.0127c0.05954,-0.02445 0.11489,-0.05702 0.16467,-0.09632c0.00711,0.00126 0.01426,0.00242 0.02143,0.00348zM2.00462,1.11854c0.06974,-0.01937 0.14207,-0.03252 0.21634,-0.03883c-0.04831,0.05657 -0.09081,0.11825 -0.12657,0.18413c-0.01663,-0.00456 -0.03341,-0.00879 -0.05031,-0.01267c-0.01279,-0.0068 -0.02537,-0.01392 -0.03774,-0.02137c-0.00173,-0.02316 -0.00262,-0.04657 -0.00262,-0.07017c0,-0.01376 0.0003,-0.02746 0.00089,-0.04108zM2.17702,1.28965c-0.01432,-0.00503 -0.02875,-0.00981 -0.0433,-0.01432c0.02412,-0.04354 0.0513,-0.08514 0.08127,-0.12451c-0.00933,0.04759 -0.02207,0.09396 -0.03797,0.13884zM1.96409,1.13265c-0.00025,0.00896 -0.00037,0.01795 -0.00037,0.02697c0,0.01452 0.00032,0.02896 0.00095,0.04332c-0.01423,-0.0098 -0.02813,-0.02003 -0.04168,-0.03069c0.01413,-0.01275 0.02784,-0.02595 0.0411,-0.0396zM2.28609,1.33393c-0.02346,-0.01085 -0.04732,-0.021 -0.07154,-0.0304c0.02274,-0.0641 0.0393,-0.13113 0.04897,-0.20036c0.03642,0.07561 0.08366,0.14503 0.13971,0.20624c-0.01265,0.01178 -0.02569,0.02315 -0.0391,0.03408c-0.02639,-0.00195 -0.05242,-0.00516 -0.07805,-0.00956zM1.80687,1.26042c0.01058,0.00036 0.02112,0.00086 0.03163,0.00149c-0.00806,0.0881 -0.02644,0.17322 -0.05391,0.25414c-0.06415,-0.00668 -0.12602,-0.02107 -0.18465,-0.04222c-0.00214,-0.02803 -0.00518,-0.05581 -0.00909,-0.0833c0.01236,-0.01416 0.02432,-0.02868 0.03587,-0.04352c0.06377,-0.02191 0.12415,-0.0511 0.18015,-0.08659zM1.55547,1.42901c0.00109,0.00946 0.00208,0.01896 0.00295,0.02849c-0.00729,-0.00311 -0.01452,-0.00633 -0.02169,-0.00965c0.00633,-0.0062 0.01257,-0.01248 0.01874,-0.01884zM1.82571,1.51926c0.02515,-0.07633 0.04252,-0.1562 0.05115,-0.23866c0.00479,0.00309 0.00956,0.00622 0.0143,0.00937c0.03258,0.07111 0.05818,0.14609 0.07592,0.22406c-0.03276,0.00415 -0.06614,0.0063 -0.10002,0.0063c-0.01387,0 -0.02766,-0.00036 -0.04135,-0.00107zM1.93537,1.23129c-0.00996,-0.00137 -0.01996,-0.00261 -0.02999,-0.00374c-0.00474,-0.00929 -0.00961,-0.0185 -0.01458,-0.02765c0.00044,-0.00036 0.00088,-0.00072 0.00133,-0.00108c0.01406,0.01127 0.02848,0.0221 0.04325,0.03248zM1.93533,1.27167c0.01188,0.00168 0.02371,0.00354 0.03548,0.00557c0.00091,0.0075 0.00191,0.01498 0.00299,0.02243c-0.01263,-0.00958 -0.02545,-0.01891 -0.03846,-0.028zM1.95355,1.33454c0.01038,0.00794 0.02062,0.01605 0.03072,0.02433c0.00731,0.03488 0.01649,0.06908 0.02745,0.10247c-0.00307,0.01008 -0.00599,0.02022 -0.00876,0.03043c-0.01292,-0.05391 -0.02948,-0.10641 -0.04941,-0.15722zM2.06622,1.49491c-0.00436,-0.01124 -0.00852,-0.02259 -0.01245,-0.03405c0.00324,-0.0102 0.00664,-0.02032 0.01018,-0.03038c0.01082,0.01066 0.02144,0.02153 0.03185,0.0326c-0.00572,0.00964 -0.0116,0.01918 -0.01763,0.02861c-0.00397,0.0011 -0.00795,0.00218 -0.01195,0.00322zM2.11637,1.42666c-0.01208,-0.01259 -0.02443,-0.02493 -0.03704,-0.03699c0.00883,-0.02197 0.01839,-0.04357 0.02866,-0.06476c0.01594,0.00638 0.03211,0.0123 0.04851,0.01774c-0.01209,0.02872 -0.02549,0.05675 -0.04013,0.08402zM2.01215,1.28513c0.00599,0.00125 0.01197,0.00255 0.01793,0.00389c0.01349,0.00706 0.0272,0.01377 0.0411,0.02012c-0.00818,0.01694 -0.01592,0.03414 -0.02321,0.05157c-0.00897,-0.008 -0.01806,-0.01586 -0.02727,-0.02359c-0.00333,-0.01716 -0.00618,-0.0345 -0.00855,-0.05198zM2.27398,1.37242c0.01037,0.00485 0.02066,0.00985 0.03087,0.01499c-0.04721,0.03167 -0.09804,0.05835 -0.15174,0.07931c-0.00267,-0.00305 -0.00536,-0.00608 -0.00806,-0.0091c0.01848,-0.03332 0.03516,-0.06778 0.04992,-0.10324c0.02586,0.00722 0.05222,0.01326 0.07902,0.01804zM1.7898,1.11223c0.00777,0.0112 0.01535,0.02254 0.02273,0.03402c-0.0171,0.00783 -0.03399,0.01605 -0.05066,0.02464c-0.00687,-0.00326 -0.01378,-0.00646 -0.02073,-0.00959c0.00758,-0.01598 0.01474,-0.0322 0.02149,-0.04863c0.00081,0 0.00162,0 0.00243,0c0.00828,0 0.01653,-0.00015 0.02474,-0.00044zM1.80661,1.19326c0.00899,-0.00435 0.01803,-0.00859 0.02714,-0.01271c0.00179,0.00301 0.00357,0.00602 0.00533,0.00905c-0.00549,0.00412 -0.01103,0.00817 -0.01662,0.01216c-0.00526,-0.00287 -0.01054,-0.0057 -0.01585,-0.0085zM1.68591,1.26227c0.01369,-0.00089 0.02744,-0.00155 0.04125,-0.00198c-0.0188,0.00985 -0.03803,0.01899 -0.05765,0.02739c0.00559,-0.00838 0.01106,-0.01685 0.0164,-0.02541zM1.75512,1.21975c0.00249,-0.00136 0.00498,-0.00271 0.00748,-0.00405c0.00268,0.00133 0.00536,0.00267 0.00803,0.00402c-0.00186,-0.00001 -0.00372,-0.00001 -0.00558,-0.00001c-0.00331,0 -0.00663,0.00001 -0.00993,0.00004zM1.94507,1.09466c-0.02115,0.00684 -0.04206,0.01424 -0.06269,0.02218c-0.00017,-0.00469 -0.00037,-0.00937 -0.0006,-0.01405c0.02395,-0.0041 0.04748,-0.00943 0.07052,-0.01593c-0.00239,0.00262 -0.0048,0.00522 -0.00723,0.0078zM1.4331,1.02738c-0.0071,0.01289 -0.01395,0.02593 -0.02055,0.03913c-0.00256,-0.00036 -0.00513,-0.0007 -0.0077,-0.00104c0.00696,-0.01407 0.01365,-0.0283 0.02007,-0.04268c0.00272,0.00155 0.00544,0.00308 0.00818,0.00459zM1.38528,1.10332c0.00306,0.00037 0.00611,0.00074 0.00916,0.00113c-0.00479,0.01054 -0.00942,0.02116 -0.0139,0.03187c-0.00114,-0.00612 -0.00222,-0.01227 -0.00325,-0.01843c0.0027,-0.00483 0.00536,-0.00969 0.00799,-0.01457zM1.42926,1.30723c0.00693,-0.00201 0.01388,-0.00396 0.02087,-0.00585c-0.0031,0.01113 -0.00634,0.02219 -0.00973,0.03319c-0.00385,-0.00904 -0.00756,-0.01816 -0.01113,-0.02734zM1.46161,1.25704c-0.01548,0.00389 -0.03085,0.00807 -0.0461,0.01253c-0.00709,-0.02076 -0.01348,-0.04183 -0.01916,-0.0632c0.01164,-0.03271 0.02479,-0.0647 0.03937,-0.09589c0.01407,0.00231 0.02805,0.00487 0.04195,0.00768c0.00231,0.00586 0.00458,0.01174 0.00681,0.01764c-0.00569,0.04107 -0.01335,0.08152 -0.02287,0.12124zM1.45918,1.07391c-0.00169,-0.0003 -0.00338,-0.0006 -0.00507,-0.0009c0.00083,-0.00162 0.00167,-0.00324 0.00251,-0.00485c0.00085,0.00191 0.0017,0.00383 0.00255,0.00575zM1.34648,1.16999c0.00249,0.01162 0.00519,0.02317 0.00808,0.03465c-0.01063,0.03097 -0.01996,0.06254 -0.02791,0.09465c-0.00154,0.00058 -0.00308,0.00117 -0.00462,0.00176c-0.01335,-0.01282 -0.02624,-0.0261 -0.03866,-0.03982c0.02239,-0.02938 0.04346,-0.05982 0.06312,-0.09123zM1.35942,1.33473c0.00039,-0.00177 0.00079,-0.00353 0.00119,-0.0053c0.01005,-0.00359 0.02015,-0.00705 0.03032,-0.01037c0.00421,0.01092 0.00861,0.02174 0.01319,0.03246c-0.0075,0.00051 -0.01502,0.00093 -0.02257,0.00124c-0.00749,-0.00588 -0.01487,-0.01189 -0.02214,-0.01803zM1.37728,1.28143c-0.00169,0.00055 -0.00338,0.00111 -0.00506,0.00167c0.00084,-0.00306 0.00169,-0.00611 0.00255,-0.00915c0.00083,0.0025 0.00166,0.00499 0.00251,0.00748zM1.5999,1.27096c-0.00917,0.0067 -0.01823,0.01352 -0.0272,0.02046c-0.00119,-0.00528 -0.0024,-0.01055 -0.00366,-0.01581c0.01024,-0.00168 0.02053,-0.00323 0.03086,-0.00465zM1.66247,1.22389c-0.03487,0.00285 -0.06934,0.00714 -0.10334,0.01281c-0.00973,-0.03582 -0.02098,-0.07101 -0.03368,-0.1055c0.0001,-0.00075 0.0002,-0.0015 0.00029,-0.00225c0.0552,0.01363 0.10885,0.03118 0.16063,0.05235c-0.00762,0.01442 -0.0156,0.02862 -0.02392,0.04259zM1.70438,1.14543c-0.05604,-0.02307 -0.11419,-0.04205 -0.17409,-0.05656c0.00055,-0.00558 0.00106,-0.01117 0.00153,-0.01677c0.05932,0.02138 0.12242,0.03484 0.18803,0.0391c-0.00494,0.01153 -0.0101,0.02294 -0.01547,0.03423zM1.49455,1.29027c0.01163,-0.00267 0.02332,-0.00518 0.03507,-0.00751c0.00292,0.01216 0.00565,0.02439 0.00821,0.03669c-0.00632,0.00527 -0.01258,0.0106 -0.01879,0.01599c-0.01299,0.00277 -0.0261,0.00524 -0.03932,0.00738c0.0053,-0.01737 0.01024,-0.03488 0.01483,-0.05255zM1.51964,1.24395c-0.00489,0.00098 -0.00977,0.00199 -0.01463,0.00302c0.00231,-0.01033 0.00449,-0.0207 0.00656,-0.03112c0.0028,0.00932 0.00549,0.01868 0.00808,0.02809zM1.25825,1.29304c0.00759,0.00825 0.01535,0.01635 0.02327,0.02429c-0.01991,0.00842 -0.03955,0.01734 -0.0589,0.02675c-0.00248,-0.00038 -0.00495,-0.00077 -0.00742,-0.00117c0.0148,-0.01623 0.02916,-0.03286 0.04306,-0.04988zM1.30173,1.35224c0.00383,-0.0016 0.00766,-0.00318 0.01151,-0.00474c0.00073,0.00066 0.00146,0.00132 0.0022,0.00197c-0.00022,0.00112 -0.00045,0.00225 -0.00067,0.00338c-0.00435,-0.00017 -0.0087,-0.00037 -0.01304,-0.00061zM0.73267,1.66494c-0.0007,0.00754 -0.00133,0.0151 -0.00189,0.02268c-0.01577,-0.00174 -0.03143,-0.00385 -0.04696,-0.00634c0.01644,-0.0051 0.03272,-0.01055 0.04885,-0.01633zM0.90742,1.66168c-0.02079,0.0079 -0.0413,0.01634 -0.06154,0.0253c0.01499,-0.01776 0.03048,-0.03508 0.04646,-0.05193c0.00489,0.00896 0.00992,0.01784 0.01508,0.02663zM0.86047,1.61053c-0.02468,0.02621 -0.04823,0.05349 -0.07057,0.08176c-0.00644,-0.00031 -0.01287,-0.00069 -0.01927,-0.00112c0.00103,-0.01412 0.00232,-0.02816 0.00388,-0.04212c0.02924,-0.01174 0.05791,-0.0246 0.08597,-0.03852zM1.35029,1.51441c-0.00547,0.00711 -0.01087,0.01428 -0.01619,0.02151c0.00034,-0.01035 0.00082,-0.02066 0.00144,-0.03094c0.00494,0.00311 0.00985,0.00625 0.01474,0.00943zM1.39399,1.46082c-0.00631,0.00731 -0.01253,0.01469 -0.01867,0.02215c-0.01189,-0.0078 -0.02394,-0.01538 -0.03613,-0.02275c0.00229,-0.02246 0.00526,-0.04472 0.00889,-0.06675c0.00683,-0.00001 0.01365,-0.00009 0.02044,-0.00026c0.01342,0.01016 0.02716,0.01991 0.0412,0.02925c-0.00504,0.01289 -0.01028,0.02568 -0.01573,0.03836zM1.21254,1.39391c0.00552,-0.00286 0.01106,-0.00568 0.01663,-0.00846c0.02583,0.00354 0.05202,0.00594 0.07852,0.00713c-0.00242,0.01514 -0.00453,0.03039 -0.00634,0.04573c-0.02888,-0.01601 -0.0585,-0.03083 -0.08881,-0.04441zM1.28465,1.5829c-0.04501,0.00224 -0.0894,0.00688 -0.13302,0.01379c-0.02769,-0.0385 -0.05772,-0.07521 -0.08989,-0.10991c0.0341,-0.02464 0.06954,-0.04753 0.1062,-0.06854c0.04455,0.0185 0.08766,0.03977 0.12912,0.0636c-0.00236,0.02981 -0.00356,0.05995 -0.00356,0.09037c0,0.00198 0.00001,0.00397 0.00002,0.00595c-0.00295,0.0016 -0.00591,0.00318 -0.00887,0.00475zM0.96757,1.6827c0.05369,-0.01791 0.10908,-0.03213 0.16585,-0.04235c0.0012,0.00176 0.0024,0.00351 0.0036,0.00528c-0.05413,0.01779 -0.11038,0.0309 -0.16828,0.03884c-0.00039,-0.00059 -0.00078,-0.00118 -0.00116,-0.00177zM1.10774,1.60446c-0.05542,0.01085 -0.10952,0.0254 -0.16202,0.04338c-0.00836,-0.01401 -0.01638,-0.02825 -0.02403,-0.04271c0.03403,-0.0335 0.07004,-0.06498 0.10785,-0.09426c0.02774,0.0297 0.05386,0.06095 0.07821,0.09358zM1.42827,1.48235c0.00861,-0.00987 0.01738,-0.0196 0.02631,-0.02918c0.00196,0.00343 0.00393,0.00685 0.00593,0.01026c-0.01215,0.01039 -0.02457,0.02048 -0.03724,0.03026c0.00168,-0.00377 0.00335,-0.00755 0.005,-0.01134zM1.48512,1.42159c0.01701,-0.01695 0.03452,-0.03339 0.05253,-0.04929c0.0032,-0.00072 0.0064,-0.00147 0.00959,-0.00223c0.00043,0.00262 0.00085,0.00525 0.00127,0.00788c-0.01597,0.01761 -0.03258,0.03463 -0.0498,0.05102c-0.00456,-0.00242 -0.00909,-0.00488 -0.01359,-0.00738zM2.75336,1.05615c-0.00676,-0.06532 -0.01985,-0.12877 -0.03864,-0.18971c0.02078,-0.01272 0.0409,-0.02643 0.06028,-0.04105l0,0.25837c-0.00707,-0.00932 -0.01429,-0.01852 -0.02164,-0.02761zM2.63822,1.11778c0.02717,0.00747 0.05396,0.01589 0.08032,0.02521c0.00002,0.00115 0.00004,0.00231 0.00005,0.00346c-0.02748,-0.00806 -0.0543,-0.01766 -0.08037,-0.02867zM2.71685,1.10007c-0.03117,-0.01057 -0.06291,-0.01992 -0.09516,-0.02799c0.01049,-0.02334 0.01993,-0.04725 0.02826,-0.07168c0.02261,0.02293 0.04422,0.04686 0.06476,0.0717c0.00085,0.00929 0.00156,0.01862 0.00213,0.02798zM2.7055,1.00071c-0.01367,-0.01485 -0.02772,-0.02933 -0.04215,-0.04343c0.00635,-0.02262 0.01176,-0.04563 0.01618,-0.06898c0.01084,0.0366 0.01955,0.07412 0.02597,0.11241zM2.57679,0.93259c0.01406,0.01189 0.02781,0.02414 0.04125,0.03671c-0.01008,0.03211 -0.02216,0.06334 -0.0361,0.09353c-0.02283,-0.00491 -0.04589,-0.00918 -0.06917,-0.0128c-0.03513,-0.02353 -0.06816,-0.04995 -0.09876,-0.07891c0.05642,-0.00683 0.11092,-0.0199 0.16278,-0.03852zM2.63023,0.92618c-0.00377,-0.0034 -0.00757,-0.00678 -0.01138,-0.01014c0.00518,-0.00222 0.01034,-0.0045 0.01546,-0.00684c-0.0013,0.00568 -0.00266,0.01134 -0.00407,0.01698zM2.45028,0.3667c0.02796,-0.01697 0.05688,-0.03251 0.08668,-0.04651c0.02621,0.0424 0.0485,0.08748 0.06638,0.13473c-0.04928,-0.00781 -0.09962,-0.01244 -0.15081,-0.01368c0.00013,-0.0054 0.00019,-0.01082 0.00019,-0.01625c0,-0.01964 -0.00082,-0.03908 -0.00244,-0.0583zM2.4927,0.48299c0.04254,0.00261 0.08443,0.00766 0.12552,0.01501c0.0215,0.0687 0.03384,0.14145 0.03559,0.21682c-0.0426,-0.08495 -0.09702,-0.16295 -0.1611,-0.23183zM2.51485,0.28639c-0.02376,0.01133 -0.04698,0.02361 -0.06962,0.03678c-0.00498,-0.03357 -0.01239,-0.06636 -0.02205,-0.09817l0.04462,0c0.01665,0.01966 0.03236,0.04015 0.04704,0.06139zM2.35115,0.78487c0.04473,0.02197 0.08775,0.0469 0.1288,0.07452c-0.03635,0.02206 -0.07128,0.04623 -0.10462,0.07234c-0.02432,-0.02664 -0.04676,-0.05504 -0.06709,-0.08499c0.01539,-0.01979 0.02972,-0.04044 0.0429,-0.06187zM2.45234,0.92483c0.02064,-0.01416 0.04182,-0.02759 0.0635,-0.04024c0.00815,0.00597 0.01622,0.01205 0.0242,0.01823c-0.02849,0.00912 -0.05777,0.0165 -0.0877,0.02201zM2.58441,0.88696c-0.00993,-0.00806 -0.02,-0.01595 -0.0302,-0.02368c0.03083,-0.01627 0.0626,-0.03101 0.09519,-0.04413c-0.0015,0.0138 -0.00335,0.02749 -0.00555,0.04106c-0.01932,0.00979 -0.03915,0.01871 -0.05944,0.02674zM2.64004,0.77981c-0.04194,0.01661 -0.08258,0.0358 -0.12173,0.05738c-0.04663,-0.03254 -0.0958,-0.06168 -0.14716,-0.08706c0.04155,-0.07729 0.06874,-0.16343 0.07802,-0.25487c0.07963,0.08198 0.14465,0.17824 0.19087,0.28455zM2.55189,0.26967c-0.01035,-0.01526 -0.02121,-0.03016 -0.03253,-0.04467h0.16241c-0.04464,0.01186 -0.08802,0.02683 -0.12988,0.04467zM2.66263,0.5069c0.03825,0.0085 0.07575,0.01901 0.11237,0.03141l0,0.19825c-0.02758,0.00684 -0.05473,0.01475 -0.08141,0.02369c0.00029,-0.00893 0.00043,-0.01789 0.00043,-0.02689c0,-0.07852 -0.01094,-0.15449 -0.03139,-0.22646zM2.69271,0.80285c0.02496,-0.00876 0.05037,-0.01657 0.07617,-0.02341c-0.02139,0.01723 -0.04379,0.03324 -0.06711,0.04794c-0.00292,-0.00823 -0.00594,-0.01641 -0.00907,-0.02453zM2.64885,0.4631c-0.01938,-0.05607 -0.04462,-0.1094 -0.07499,-0.15927c0.06375,-0.02661 0.13111,-0.04631 0.20114,-0.05815l0,0.25048c-0.04107,-0.01336 -0.08317,-0.02443 -0.12615,-0.03306zM2.30232,0.9363c-0.01001,-0.015 -0.02036,-0.02975 -0.03104,-0.04424c-0.00003,-0.00051 -0.00007,-0.00101 -0.0001,-0.00152c0.00357,-0.00388 0.00709,-0.00779 0.01057,-0.01175c0.01398,0.01996 0.02886,0.03924 0.04458,0.05779c-0.00118,0.00001 -0.00236,0.00001 -0.00353,0.00001c-0.00685,0 -0.01368,-0.0001 -0.02048,-0.00029zM1.83349,0.57707c0.0093,0.00455 0.01852,0.00923 0.02767,0.01404c-0.01065,0.00613 -0.0212,0.01244 -0.03163,0.0189c-0.00089,-0.00727 -0.00187,-0.01451 -0.00291,-0.02172c0.00233,-0.00371 0.00462,-0.00745 0.00687,-0.01121zM1.86904,0.63283c0.01098,-0.00651 0.02209,-0.01284 0.03332,-0.01897c0.01175,0.00682 0.02336,0.01385 0.03483,0.02109c-0.02255,-0.00137 -0.04527,-0.00208 -0.06815,-0.00212zM1.83529,0.67328c0.01055,-0.0003 0.02114,-0.00045 0.03177,-0.00045c0.04676,0 0.09283,0.00292 0.13805,0.00858c0.02043,0.01512 0.04033,0.03092 0.05965,0.04738c-0.02162,0.04338 -0.04008,0.0886 -0.05508,0.13538c-0.06346,-0.03114 -0.1216,-0.07146 -0.17269,-0.11922c0.00004,-0.00386 0.00007,-0.00773 0.00007,-0.0116c0,-0.02017 -0.0006,-0.04021 -0.00178,-0.06008zM2.10413,0.65753c-0.02754,-0.00583 -0.05544,-0.01066 -0.08367,-0.01446c-0.02471,-0.01794 -0.05017,-0.03492 -0.07631,-0.05088c0.05944,-0.02921 0.12193,-0.05317 0.18685,-0.07127c0.00701,0.01412 0.01368,0.02843 0.02002,0.04292c0.00112,0.00632 0.00231,0.01261 0.00358,0.01887c-0.01794,0.0241 -0.03479,0.04906 -0.05047,0.07482zM2.11208,0.48469c-0.073,0.02095 -0.14298,0.04906 -0.20913,0.08351c-0.01638,-0.00909 -0.03301,-0.01779 -0.04987,-0.02609c0.04633,-0.08863 0.07384,-0.18865 0.07724,-0.29476c0.07191,0.06919 0.13336,0.14917 0.18176,0.23733zM2.04636,0.8809c0.01353,-0.04298 0.03011,-0.0846 0.04948,-0.12462c0.01073,0.00985 0.02127,0.01991 0.0316,0.03018c-0.01216,0.03753 -0.02696,0.07387 -0.04417,0.10881c-0.01247,-0.00446 -0.02478,-0.00925 -0.03691,-0.01437zM2.15595,0.66978c-0.00355,-0.00093 -0.0071,-0.00184 -0.01066,-0.00273c0.00471,-0.0075 0.00953,-0.01493 0.01445,-0.02228c-0.00114,0.00838 -0.0024,0.01672 -0.00379,0.02501zM2.12382,0.70298c0.00822,0.00197 0.01639,0.00402 0.02454,0.00617c-0.00249,0.01138 -0.00521,0.02268 -0.00816,0.03388c-0.00837,-0.00801 -0.01686,-0.01589 -0.02547,-0.02364c0.00298,-0.0055 0.00601,-0.01098 0.00909,-0.01641zM2.13933,0.45145c-0.04696,-0.08246 -0.10501,-0.1578 -0.1721,-0.22397c0.05494,0.01186 0.10811,0.02845 0.15908,0.04933c0.00654,0.01988 0.01235,0.0401 0.01738,0.06062c-0.00316,0.02876 -0.00479,0.05798 -0.00479,0.08758c0,0.00885 0.00015,0.01767 0.00043,0.02645zM2.10801,0.22677c-0.00162,-0.0006 -0.00324,-0.00119 -0.00486,-0.00177l0.00414,0c0.00024,0.00059 0.00048,0.00118 0.00072,0.00177zM2.12169,0.90777c0.01394,-0.02879 0.02633,-0.05848 0.03705,-0.08896c0.00979,0.01054 0.01937,0.02127 0.02875,0.03218c0.00262,0.01901 0.00587,0.03782 0.00972,0.05641c-0.00563,0.00505 -0.01135,0.01 -0.01716,0.01485c-0.01976,-0.00402 -0.03922,-0.00887 -0.05835,-0.01449zM2.18092,0.78399c-0.00272,-0.00288 -0.00545,-0.00574 -0.0082,-0.00859c0.00242,-0.00827 0.00472,-0.01658 0.00689,-0.02495c0.00022,0.01123 0.00066,0.02241 0.00131,0.03353zM2.15895,0.24713c-0.00019,-0.00008 -0.00038,-0.00017 -0.00058,-0.00025c-0.00259,-0.00734 -0.00528,-0.01464 -0.00807,-0.02188h0.01406c-0.00191,0.00734 -0.00372,0.01471 -0.00542,0.02213zM1.78343,0.68918c0.00404,-0.00294 0.00811,-0.00586 0.0122,-0.00875c0.00043,0.00785 0.00076,0.01573 0.001,0.02364c-0.00447,-0.0049 -0.00886,-0.00987 -0.01319,-0.01489zM2.40795,0.34599c-0.01277,0.00822 -0.02533,0.01673 -0.03768,0.02553c-0.01559,-0.01199 -0.03154,-0.02352 -0.04783,-0.03458c0.01891,-0.03381 0.04016,-0.06612 0.06354,-0.09673c0.01015,0.03417 0.01756,0.06951 0.02197,0.10579zM2.40274,0.39759c0.00303,-0.0021 0.00607,-0.00418 0.00912,-0.00625c0.00025,0.00481 0.00044,0.00964 0.00058,0.01448c-0.00322,-0.00276 -0.00645,-0.00551 -0.0097,-0.00823zM2.24307,0.53797c0.01526,-0.01687 0.03114,-0.03318 0.0476,-0.04889c0.03928,-0.00481 0.07921,-0.00754 0.11967,-0.00807c-0.00776,0.09062 -0.03418,0.17591 -0.0754,0.25201c-0.03123,-0.01408 -0.0632,-0.0268 -0.09585,-0.03807c-0.00452,-0.01703 -0.00947,-0.03388 -0.01483,-0.05054c0.00394,-0.03625 0.01027,-0.07178 0.01882,-0.10644zM2.39238,0.44137c-0.01704,0.00048 -0.03399,0.00134 -0.05084,0.00256c0.00913,-0.00752 0.01841,-0.01488 0.02782,-0.02205c0.00778,0.00638 0.01545,0.01288 0.02302,0.01949zM2.25028,0.74147c0.0218,0.00811 0.04328,0.01689 0.0644,0.02632c-0.00922,0.01475 -0.01902,0.02911 -0.02936,0.04303c-0.01215,-0.02029 -0.02338,-0.0412 -0.03362,-0.06267c-0.00047,-0.00223 -0.00094,-0.00446 -0.00142,-0.00669zM2.33689,0.3964c-0.02219,0.01729 -0.04361,0.03553 -0.0642,0.05465c-0.00102,0.00014 -0.00205,0.00028 -0.00307,0.00042c0.00998,-0.02701 0.02136,-0.05334 0.03404,-0.07891c0.01125,0.00772 0.02233,0.01567 0.03323,0.02384zM2.28882,0.31509c-0.02987,-0.01857 -0.0608,-0.03559 -0.09268,-0.05096c0.00287,-0.01318 0.00609,-0.02622 0.00964,-0.03913l0.14156,0c-0.02132,0.0287 -0.04089,0.05878 -0.05853,0.09009zM2.18844,0.3049c0.02798,0.01389 0.05519,0.02911 0.08153,0.04558c-0.01747,0.03474 -0.03264,0.07083 -0.04531,0.10808c-0.00679,0.00121 -0.01356,0.00248 -0.02031,0.00382c-0.00355,-0.04348 -0.01034,-0.08604 -0.02012,-0.12745c0.0012,-0.01007 0.0026,-0.02008 0.0042,-0.03003zM2.2067,0.50271c0.00151,-0.00031 0.00302,-0.00061 0.00453,-0.00091c-0.00143,0.00508 -0.00281,0.01018 -0.00415,0.01529c-0.00009,-0.0048 -0.00022,-0.0096 -0.00039,-0.01438zM1.37045,0.90816c0.01126,0.01766 0.02208,0.03562 0.03246,0.05387c-0.01311,-0.00886 -0.02589,-0.01819 -0.03829,-0.02796c0.00017,-0.00643 0.0004,-0.01284 0.00069,-0.01923c0.00172,-0.00222 0.00344,-0.00444 0.00514,-0.00668zM1.42357,0.91804c-0.00537,-0.00899 -0.01085,-0.0179 -0.01644,-0.02675c0.00935,-0.00226 0.01862,-0.00472 0.02781,-0.00736c-0.00362,0.01145 -0.00741,0.02282 -0.01137,0.03411zM2.07306,0.99488c0.01057,-0.01659 0.02059,-0.03357 0.03003,-0.05091c0.01182,0.00361 0.02376,0.00693 0.03582,0.00996c-0.02105,0.01491 -0.04304,0.02859 -0.06585,0.04095zM1.99813,0.90304c-0.01213,0.0442 -0.02121,0.08966 -0.02698,0.13614c-0.02977,0.00999 -0.06051,0.01787 -0.09203,0.02347c-0.00691,-0.08261 -0.02256,-0.16274 -0.04604,-0.23945c0.00078,-0.00875 0.00144,-0.01752 0.002,-0.02633c0.04926,0.04205 0.10402,0.07785 0.16305,0.10617zM2.01608,1.00791c0.00493,-0.02996 0.0113,-0.05943 0.01903,-0.08835c0.00971,0.00403 0.01952,0.00785 0.02943,0.01148c-0.01476,0.02656 -0.03095,0.05222 -0.04846,0.07687zM1.81851,0.9261c0.00996,0.04643 0.01701,0.09394 0.02095,0.14233c-0.00793,0.00091 -0.0159,0.00167 -0.02391,0.00229c-0.00899,-0.01019 -0.01773,-0.0206 -0.02621,-0.03123c0.01186,-0.03691 0.02162,-0.07475 0.02917,-0.11339zM1.65631,0.79739c0.02964,-0.0294 0.06095,-0.05711 0.09379,-0.08297c0.01611,0.03668 0.03029,0.0744 0.04241,0.11303c-0.00576,0.05919 -0.01689,0.1168 -0.0329,0.17235c-0.04335,-0.06171 -0.07834,-0.12973 -0.1033,-0.20241zM1.49306,0.86434c0.00151,0.02041 0.00254,0.04095 0.00308,0.06162c-0.01278,0.01833 -0.02503,0.03705 -0.03673,0.05615c-0.00325,-0.00623 -0.00656,-0.01244 -0.00991,-0.01861c0.01188,-0.03098 0.02251,-0.06258 0.03184,-0.09474c0.00392,-0.00144 0.00783,-0.00292 0.01172,-0.00442zM1.48872,1.01092c0.00239,-0.00398 0.00481,-0.00795 0.00725,-0.0119c-0.00015,0.00501 -0.00033,0.01002 -0.00054,0.01502c-0.00224,-0.00103 -0.00448,-0.00207 -0.00671,-0.00312zM1.5347,1.0305c0.00125,-0.02347 0.00188,-0.0471 0.00188,-0.07088c0,-0.00713 -0.00006,-0.01424 -0.00017,-0.02134c0.01371,-0.01918 0.02802,-0.03789 0.04292,-0.05612c0.06024,0.0503 0.1153,0.1066 0.16425,0.16798c-0.00256,0.00733 -0.00521,0.01462 -0.00794,0.02187c-0.0705,-0.00315 -0.13806,-0.01757 -0.20094,-0.04151zM1.54818,0.85706c-0.00482,0.00591 -0.00959,0.01186 -0.0143,0.01787c-0.00058,-0.00904 -0.00124,-0.01806 -0.002,-0.02705c0.0009,-0.00041 0.0018,-0.00083 0.00269,-0.00125c0.00456,0.00344 0.0091,0.00692 0.01361,0.01043zM1.6052,0.85165c0.00659,-0.00749 0.01328,-0.01489 0.02008,-0.0222c0.00793,0.02141 0.0167,0.04241 0.02626,0.06297c-0.01509,-0.01398 -0.03054,-0.02757 -0.04633,-0.04077zM1.53318,0.41609c0.00335,-0.00486 0.00674,-0.00968 0.01018,-0.01447c0.01167,0.01244 0.02306,0.02516 0.03416,0.03813c-0.00029,0.00268 -0.00057,0.00536 -0.00084,0.00804c-0.01443,-0.00293 -0.02896,-0.00559 -0.04358,-0.00797c0.00009,-0.00493 0.00013,-0.00987 0.00013,-0.01482c0,-0.00297 -0.00002,-0.00594 -0.00005,-0.00891zM1.53136,0.48008c0.01418,0.00237 0.02827,0.00502 0.04226,0.00793c-0.00079,0.01502 -0.00119,0.03014 -0.00119,0.04536c0,0.04599 0.00364,0.09112 0.01065,0.13514c-0.0216,0.00554 -0.04296,0.0117 -0.06405,0.01846c0.00642,-0.05029 0.00972,-0.10156 0.00972,-0.15359c0,-0.00723 -0.00006,-0.01445 -0.00019,-0.02165c0.00113,-0.01048 0.00206,-0.02103 0.00278,-0.03163zM1.51653,0.7299c0.02424,-0.00815 0.04885,-0.01547 0.07381,-0.02194c0.0038,0.01825 0.00818,0.03629 0.01313,0.05409c-0.02073,0.01386 -0.04231,0.02655 -0.06465,0.03798c-0.00432,-0.00312 -0.00865,-0.00621 -0.01301,-0.00928c-0.00263,-0.02043 -0.00572,-0.04072 -0.00928,-0.06085zM1.58486,0.38759c-0.00565,-0.00621 -0.01136,-0.01237 -0.01715,-0.01845c0.00463,-0.00592 0.00934,-0.01178 0.01411,-0.01759c0.00147,0.00867 0.00309,0.0173 0.00485,0.02586c-0.00063,0.00339 -0.00123,0.00678 -0.00182,0.01018zM1.57473,0.29823c-0.01214,0.01372 -0.02391,0.02778 -0.03529,0.04216c-0.00395,-0.00388 -0.00793,-0.00773 -0.01194,-0.01156c-0.00362,-0.03015 -0.00892,-0.05979 -0.01581,-0.08881c0.01959,-0.00539 0.03944,-0.01016 0.05952,-0.01431c0.00002,0.02446 0.00121,0.04865 0.00352,0.07251zM1.69947,0.64507c-0.02608,0.00384 -0.05187,0.00857 -0.07734,0.01415c-0.00638,-0.04102 -0.00969,-0.08305 -0.00969,-0.12586c0,-0.01218 0.00027,-0.02431 0.0008,-0.03636c0.00322,0.00079 0.00644,0.0016 0.00965,0.00243c0.02024,0.05157 0.04601,0.10036 0.07658,0.14564zM1.62926,0.69862c0.02238,-0.00494 0.04502,-0.00919 0.06789,-0.01274c-0.01859,0.01823 -0.03827,0.03535 -0.05894,0.05124c-0.00328,-0.01272 -0.00627,-0.02555 -0.00894,-0.0385zM1.44687,0.78651c0.00417,0.00259 0.00833,0.0052 0.01247,0.00784c-0.00335,0.01461 -0.00698,0.02912 -0.01088,0.04352c-0.01216,0.00403 -0.02448,0.00771 -0.03696,0.01103c0.01269,-0.02021 0.0245,-0.04102 0.03537,-0.06239zM1.46486,0.74873c0.00143,-0.00056 0.00287,-0.00112 0.0043,-0.00168c-0.00035,0.00186 -0.00069,0.00371 -0.00105,0.00557c-0.0013,-0.00081 -0.0026,-0.00161 -0.00391,-0.00241c0.00022,-0.00049 0.00044,-0.00098 0.00066,-0.00147zM1.81685,0.52507c-0.00055,-0.00025 -0.00111,-0.0005 -0.00166,-0.00075c-0.02237,-0.10521 -0.06129,-0.2043 -0.1139,-0.29442c0.00192,-0.00164 0.00386,-0.00327 0.00579,-0.0049h0.18361c0,0.10833 -0.02668,0.21042 -0.07383,0.30007zM1.62086,0.24947c-0.00298,0.00294 -0.00594,0.00591 -0.00888,0.00889c-0.00051,-0.01106 -0.00077,-0.02218 -0.00077,-0.03336h0.01872c-0.00314,0.0081 -0.00617,0.01626 -0.00907,0.02447zM1.75155,0.62538c-0.01949,-0.03701 -0.04094,-0.07283 -0.06422,-0.10731c0.03156,0.01018 0.0625,0.02173 0.09275,0.0346c0.00169,0.00887 0.00326,0.01778 0.0047,0.02674c-0.01041,0.01583 -0.0215,0.03117 -0.03323,0.04598zM1.76978,0.50518c-0.03795,-0.01504 -0.07689,-0.02812 -0.1167,-0.03911c-0.01039,-0.02887 -0.01898,-0.05861 -0.0256,-0.08908c0.00704,-0.03609 0.01646,-0.07132 0.02811,-0.10553c0.00501,-0.00486 0.01007,-0.00966 0.01518,-0.0144c0.04391,0.0767 0.07754,0.16003 0.09902,0.24813zM1.27347,0.84669c0.01245,-0.008 0.02506,-0.01575 0.03784,-0.02326c0.00645,0.00846 0.01279,0.01701 0.01902,0.02564c-0.00059,0.00536 -0.00114,0.01073 -0.00164,0.01611c-0.01169,0.00151 -0.02349,0.00271 -0.03537,0.00359c-0.00678,-0.00721 -0.0134,-0.01457 -0.01985,-0.02208zM1.28633,0.79173c-0.01287,0.00764 -0.02558,0.01552 -0.03811,0.02365c-0.03586,-0.04741 -0.06536,-0.0999 -0.0872,-0.15621c0.00004,0.00001 0.00009,0.00003 0.00013,0.00004c0.04489,0.04103 0.08674,0.08534 0.12518,0.13253zM1.36024,0.69315c-0.05727,-0.02782 -0.11708,-0.05122 -0.179,-0.06974c-0.00933,-0.00841 -0.01878,-0.01668 -0.02836,-0.02481c0.01606,-0.03986 0.02963,-0.08098 0.04052,-0.12319c0.05025,-0.00698 0.10157,-0.01059 0.15374,-0.01059c0.01678,0 0.03346,0.00037 0.05006,0.00111c0.00872,0.02069 0.01691,0.04165 0.02456,0.06288c-0.0251,0.05241 -0.04577,0.10735 -0.06151,0.16434zM1.37919,0.42526c-0.01065,-0.00029 -0.02134,-0.00044 -0.03206,-0.00044c-0.04876,0 -0.0968,0.00304 -0.14396,0.00894c0.00362,-0.01705 0.00681,-0.03426 0.00955,-0.05162c0.0346,-0.02462 0.07091,-0.047 0.10873,-0.0669c0.02097,0.0356 0.04025,0.07231 0.05774,0.11002zM1.34433,0.75955c-0.00764,0.00395 -0.01524,0.00799 -0.02278,0.01211c-0.02324,-0.02883 -0.0477,-0.05663 -0.07331,-0.08332c0.03481,0.01321 0.06881,0.02806 0.10192,0.04443c-0.00206,0.00888 -0.00401,0.0178 -0.00583,0.02677zM1.43465,0.71775c-0.00504,0.00207 -0.01007,0.00418 -0.01508,0.00632c-0.00758,-0.00422 -0.01522,-0.00837 -0.0229,-0.01243c0.01165,-0.04362 0.0263,-0.08602 0.04372,-0.12696c0.00676,0.02193 0.01294,0.04411 0.01852,0.06653c-0.00707,0.02266 -0.01518,0.04486 -0.02426,0.06655zM1.3799,0.78639c0.00966,-0.00478 0.0194,-0.00943 0.02921,-0.01393c-0.01131,0.02189 -0.02365,0.04316 -0.03696,0.06374c0.00215,-0.01674 0.00474,-0.03335 0.00774,-0.04981zM1.30056,0.28103c-0.02777,0.01471 -0.05477,0.03071 -0.0809,0.0479c0.00166,-0.01609 0.00294,-0.03229 0.00383,-0.0486c0.01293,-0.01833 0.02662,-0.03609 0.04103,-0.05322c0.01246,0.01765 0.02448,0.03562 0.03604,0.05391zM1.47874,0.57326c-0.00433,-0.01408 -0.0089,-0.02805 -0.01369,-0.04192c0.00726,-0.01452 0.01489,-0.02883 0.02286,-0.04292c0.00027,0.00714 0.00048,0.01429 0.00062,0.02146c-0.00238,0.02141 -0.00566,0.04255 -0.00979,0.06339zM1.4832,0.41893c-0.00277,0.00429 -0.00551,0.0086 -0.00821,0.01294c-0.01686,-0.00187 -0.03384,-0.00337 -0.05091,-0.0045c-0.01988,-0.04472 -0.04219,-0.08813 -0.06676,-0.13005c0.01551,-0.00735 0.03125,-0.01429 0.0472,-0.02081c0.02297,0.01744 0.04524,0.03576 0.06676,0.0549c0.00505,0.02882 0.00904,0.05801 0.01193,0.08752zM1.44165,0.4688c0.00362,0.00031 0.00723,0.00063 0.01084,0.00097c-0.00205,0.00364 -0.00408,0.00729 -0.00609,0.01096c-0.00156,-0.00399 -0.00315,-0.00796 -0.00475,-0.01193zM1.36674,0.24906c-0.01019,0.00446 -0.02029,0.00909 -0.03029,0.01388c-0.00804,-0.0128 -0.01629,-0.02544 -0.02475,-0.03794l0.01895,0c0.0122,0.00779 0.02423,0.01581 0.03609,0.02406zM1.41052,0.23112c-0.00281,-0.00205 -0.00564,-0.00409 -0.00847,-0.00612h0.02492c-0.00551,0.00199 -0.01099,0.00403 -0.01645,0.00612zM1.44831,0.25987c0.00248,-0.00087 0.00497,-0.00174 0.00746,-0.00259c0.00086,0.00353 0.00171,0.00707 0.00253,0.01061c-0.00331,-0.00269 -0.00665,-0.00537 -0.00999,-0.00802zM1.04279,0.80066c0.00105,0.01304 0.0024,0.026 0.00405,0.03887c-0.00874,-0.00282 -0.01739,-0.00581 -0.02596,-0.00899c0.00748,-0.00982 0.01479,-0.01978 0.02191,-0.02988zM1.23795,0.87051c0.00068,-0.00048 0.00136,-0.00095 0.00204,-0.00142c0.00041,0.00048 0.00082,0.00097 0.00123,0.00145c-0.00109,-0.00001 -0.00218,-0.00002 -0.00327,-0.00003zM1.21499,0.83775c-0.01345,0.00941 -0.0267,0.0191 -0.03972,0.02906c-0.02943,-0.00317 -0.05826,-0.00831 -0.08637,-0.0153c-0.00531,-0.03525 -0.00828,-0.07126 -0.00874,-0.10787c0.01487,-0.02447 0.02872,-0.04962 0.04149,-0.0754c0.02313,0.06114 0.05472,0.11812 0.09334,0.16951zM0.70313,1.10351c0.01683,0.019 0.03449,0.03724 0.05292,0.05468c-0.01746,0.00775 -0.03469,0.01589 -0.0517,0.02443c-0.04675,-0.00186 -0.09241,-0.00795 -0.13661,-0.0179c0.04687,-0.0171 0.0921,-0.0376 0.13539,-0.06121zM1.15172,1.05855c-0.00049,0.00004 -0.00097,0.00007 -0.00146,0.00011c-0.01313,-0.0289 -0.02457,-0.05873 -0.03419,-0.08936c0.02284,-0.02137 0.04659,-0.04178 0.07119,-0.06116c0.01908,0.00159 0.03837,0.00241 0.05786,0.00241c0.0108,0 0.02155,-0.00025 0.03223,-0.00074c0.00724,0.00728 0.01464,0.0144 0.0222,0.02136c-0.04353,0.04852 -0.09322,0.09139 -0.14784,0.12739zM1.13236,0.90132c-0.00963,0.00813 -0.01912,0.01642 -0.02847,0.02486c-0.00265,-0.01051 -0.00508,-0.0211 -0.0073,-0.03177c0.01181,0.00261 0.02374,0.00491 0.03577,0.00691zM1.05368,0.88346c0.00459,0.02502 0.0103,0.04965 0.01709,0.07383c-0.04218,0.04122 -0.08117,0.08569 -0.11657,0.133c-0.04872,0.01206 -0.09627,0.02707 -0.14246,0.04485c0.00091,-0.03607 0.00382,-0.07164 0.00863,-0.1066c0.06454,-0.0479 0.1231,-0.10339 0.17438,-0.16514c0.01923,0.00755 0.03889,0.01426 0.05893,0.02007zM0.8309,1.17064c0.02854,-0.01084 0.05761,-0.02059 0.08717,-0.0292c-0.00508,0.00763 -0.01008,0.01533 -0.01498,0.02309c-0.02138,0.00484 -0.04311,0.00878 -0.06513,0.01176c-0.00236,-0.00187 -0.00471,-0.00376 -0.00705,-0.00566zM1.10826,1.06266c-0.03129,0.00353 -0.06222,0.00826 -0.09273,0.01414c0.02169,-0.02653 0.0446,-0.05203 0.06863,-0.07641c0.00721,0.02115 0.01526,0.04192 0.0241,0.06227zM0.97773,1.12577c0.02774,-0.0065 0.05586,-0.01202 0.08432,-0.0165c-0.03236,0.01549 -0.06599,0.02876 -0.10069,0.0396c0.00536,-0.00777 0.01082,-0.01547 0.01637,-0.0231zM0.77643,1.05935c-0.00195,0.01948 -0.00334,0.03913 -0.00415,0.05893c-0.01156,-0.01136 -0.02278,-0.02306 -0.03365,-0.03509c0.01279,-0.00767 0.0254,-0.01562 0.03781,-0.02384zM0.23659,1.16139c0.00156,0.00786 0.00322,0.01568 0.00496,0.02347c-0.0055,0.00009 -0.01102,0.00014 -0.01654,0.00014v-0.02367c0.00387,0 0.00773,0.00002 0.01159,0.00006zM0.22944,1.12134c-0.00148,-0.00001 -0.00296,-0.00001 -0.00444,-0.00001l0,-0.03121c0.00132,0.01046 0.00281,0.02086 0.00444,0.03122zM0.35855,1.12907c-0.00844,-0.00098 -0.01691,-0.00188 -0.0254,-0.00268c0.00135,-0.00306 0.00271,-0.00612 0.00409,-0.00917c0.00704,0.00405 0.01414,0.008 0.02131,0.01184zM0.31697,1.16512c0.02162,0.00179 0.04306,0.0042 0.06431,0.00722c-0.02324,0.0038 -0.04676,0.00678 -0.07053,0.00888c0.00203,-0.00539 0.00411,-0.01075 0.00622,-0.0161zM0.30283,1.09623c-0.00408,0.00893 -0.00804,0.01792 -0.01189,0.02697c-0.00693,-0.00039 -0.01387,-0.00073 -0.02083,-0.001c-0.00293,-0.01771 -0.00539,-0.03558 -0.00737,-0.0536c0.01307,0.0096 0.02643,0.01882 0.04009,0.02763zM1.1841,0.26692c-0.0246,0.03596 -0.04644,0.07395 -0.06521,0.11369c0.00365,-0.05395 0.01391,-0.10609 0.02997,-0.15561h0.03614c0,0.01405 -0.0003,0.02802 -0.0009,0.04192zM1.12042,0.48805c0.00985,-0.00205 0.01976,-0.00397 0.02971,-0.00576c-0.00621,0.02239 -0.01322,0.04445 -0.02098,0.06616c-0.00383,-0.01983 -0.00675,-0.03997 -0.00872,-0.0604zM1.16086,0.43987c-0.00871,0.00142 -0.01739,0.00294 -0.02603,0.00456c0.0001,-0.00026 0.00021,-0.00052 0.00031,-0.00078c0.00997,-0.00878 0.02013,-0.01736 0.03047,-0.02572c-0.0015,0.00735 -0.00308,0.01466 -0.00475,0.02195zM1.17563,0.35962c-0.00072,0.00053 -0.00144,0.00107 -0.00216,0.0016c0.00086,-0.00161 0.00173,-0.00321 0.00261,-0.00481c-0.00015,0.00107 -0.0003,0.00214 -0.00045,0.00321zM1.07739,0.425c0,0.00575 0.00007,0.01148 0.00021,0.0172c-0.00665,0.00637 -0.0132,0.01283 -0.01967,0.01938c-0.02274,0.0059 -0.0452,0.01249 -0.06737,0.01973c-0.11669,-0.07113 -0.24569,-0.12407 -0.38306,-0.15487c-0.00522,-0.03305 -0.00792,-0.06693 -0.00792,-0.10144h0.50735c-0.01921,0.06329 -0.02954,0.13044 -0.02954,0.2zM0.75012,0.63938c0.01357,-0.0087 0.02735,-0.01712 0.04132,-0.02524c0.01512,-0.00058 0.03031,-0.00088 0.04557,-0.00088c0.03214,0 0.06398,0.00131 0.09546,0.00387c-0.02647,0.04054 -0.05005,0.08312 -0.07047,0.12747c-0.04134,-0.03054 -0.07891,-0.06589 -0.11188,-0.10523zM0.9584,0.57933c-0.02988,-0.00301 -0.06009,-0.00491 -0.09058,-0.00568c0.03806,-0.0183 0.07734,-0.0345 0.11766,-0.04842c0.00325,0.00205 0.00648,0.00411 0.00971,0.00618c-0.01273,0.01559 -0.02501,0.03157 -0.03679,0.04792zM0.94132,0.49866c-0.05601,0.02119 -0.10994,0.04663 -0.16137,0.07594c-0.02482,0.00116 -0.04945,0.00308 -0.07385,0.00573c-0.04186,-0.06337 -0.07284,-0.13455 -0.09028,-0.21089c0.11567,0.02767 0.22502,0.0716 0.32551,0.12922zM0.89543,0.76771c0.02313,-0.05124 0.05066,-0.10008 0.0821,-0.14602c0.02312,0.00279 0.04603,0.00627 0.06871,0.0104c-0.00401,0.03288 -0.0061,0.06636 -0.00614,0.10032c-0.01779,0.02852 -0.03704,0.05604 -0.05764,0.08245c-0.03032,-0.01352 -0.0594,-0.02931 -0.08703,-0.04715zM1.05205,0.59249c-0.01588,-0.00288 -0.03187,-0.00544 -0.04797,-0.00768c0.00798,-0.01054 0.01616,-0.02091 0.02456,-0.03111c0.00909,0.00628 0.0181,0.01267 0.02701,0.01918c-0.00128,0.00651 -0.00248,0.01304 -0.00361,0.01961zM1.06517,0.53045c-0.00343,-0.00243 -0.00686,-0.00485 -0.01031,-0.00725c0.0057,-0.00636 0.01149,-0.01264 0.01735,-0.01884c-0.00248,0.00864 -0.00483,0.01733 -0.00704,0.02609zM1.09194,0.60042c-0.00021,-0.00005 -0.00042,-0.00009 -0.00064,-0.00014c0.00002,-0.00011 0.00004,-0.00021 0.00005,-0.00032c0.00019,0.00015 0.00039,0.00031 0.00058,0.00046zM1.08558,0.63998c0.00161,0.00035 0.00322,0.00071 0.00483,0.00107c-0.00209,0.00434 -0.00421,0.00865 -0.00636,0.01295c0.00047,-0.00469 0.00098,-0.00936 0.00153,-0.01402zM0.327,0.33553c0.03294,0 0.06557,0.00129 0.09786,0.00382c-0.08652,0.11424 -0.14973,0.24712 -0.18254,0.39155c-0.00581,0.00332 -0.01158,0.00669 -0.01733,0.01011l0,-0.40133c0.03364,-0.00275 0.06766,-0.00415 0.102,-0.00415zM0.2318,0.78364c-0.0026,0.01505 -0.00486,0.03022 -0.0068,0.04549l0,-0.04128c0.00226,-0.00141 0.00453,-0.00281 0.0068,-0.0042zM0.35441,1.08094c0.04765,-0.09611 0.10886,-0.18432 0.18111,-0.26212c0.03264,0.0928 0.08075,0.17832 0.14123,0.25346c-0.05637,0.03012 -0.1161,0.05478 -0.17848,0.07327c-0.0505,-0.01658 -0.09866,-0.03833 -0.14386,-0.06461zM0.52155,0.7754c-0.0807,0.0836 -0.14883,0.17943 -0.20132,0.28443c-0.02142,-0.01402 -0.04208,-0.0291 -0.06192,-0.04516c-0.001,-0.01822 -0.00151,-0.03658 -0.00151,-0.05505c0,-0.06946 0.00717,-0.13725 0.0208,-0.20266c0.06909,-0.03815 0.14249,-0.06945 0.21928,-0.09299c0.00579,0.03802 0.01407,0.07522 0.02467,0.11143zM0.49171,0.62373c-0.0702,0.02108 -0.13769,0.04841 -0.20183,0.08136c0.03551,-0.13361 0.09831,-0.25611 0.18207,-0.36115c0.01171,0.00137 0.02337,0.0029 0.03498,0.00459c-0.01304,0.05954 -0.01991,0.12139 -0.01991,0.18484c0,0.03052 0.00159,0.06066 0.00469,0.09036zM0.51645,0.30949c-0.00465,-0.00069 -0.00931,-0.00136 -0.01398,-0.002c0.00695,-0.00791 0.01403,-0.01571 0.02123,-0.0234c-0.00254,0.00841 -0.00496,0.01688 -0.00725,0.0254zM0.83024,0.97021c0.0115,-0.05707 0.0281,-0.11229 0.04929,-0.16518c0.02459,0.01553 0.05023,0.02954 0.07679,0.04189c-0.03817,0.04484 -0.08038,0.08612 -0.12609,0.12328zM0.56582,0.31783c-0.00322,-0.00061 -0.00645,-0.00121 -0.00969,-0.00179c0.00214,-0.00781 0.0044,-0.01558 0.00676,-0.02329c0.00082,0.00841 0.0018,0.01677 0.00293,0.02509zM0.54648,0.35495c0.00883,0.00158 0.01762,0.00326 0.02638,0.00502c0.01626,0.08145 0.04696,0.15769 0.0893,0.22595c-0.04463,0.00652 -0.08847,0.0155 -0.13136,0.0268c-0.00251,-0.02611 -0.00379,-0.05258 -0.00379,-0.07935c0,-0.06127 0.00672,-0.12098 0.01946,-0.17842zM0.56682,0.78646c0.04613,-0.04581 0.09626,-0.08758 0.14984,-0.12475c0.03761,0.04546 0.08098,0.08599 0.12898,0.12047c-0.02914,0.0709 -0.05031,0.14592 -0.06241,0.22393c-0.02296,0.01644 -0.04668,0.03189 -0.07109,0.04629c-0.06381,-0.07797 -0.11354,-0.16792 -0.14532,-0.26595zM0.69203,0.63011c-0.0489,0.03407 -0.09502,0.07184 -0.13796,0.11292c-0.00777,-0.02945 -0.01393,-0.05956 -0.01841,-0.09021c0.04917,-0.0132 0.09963,-0.02325 0.15115,-0.02992c0.00172,0.00241 0.00346,0.00482 0.00522,0.00721zM1.77657,2.45019c-0.11449,-0.08467 -0.21183,-0.1912 -0.28586,-0.31342c0.11437,0.08481 0.21168,0.19131 0.28586,0.31342z"></path></g></svg>