<svg version="1.1" xmlns="http://www.w3.org/2000/svg" xmlns:xlink="http://www.w3.org/1999/xlink" width="3in" height="3in" viewBox="0 0 3.05 3.05"><g fill="#d3d3d3" fill-rule="evenodd" stroke="#ff0000" stroke-width="0.005" stroke-linecap="butt" stroke-linejoin="miter" stroke-miterlimit="10" stroke-dasharray="" stroke-dashoffset="0" font-family="none" font-weight="none" font-size="none" text-anchor="none" style="mix-blend-mode: normal"><path d="M0,3v-3h3v3zM1.7316,1.095c0,-0.41421 0.33579,-0.75 0.75,-0.75c0.10412,0 0.20328,0.02122 0.2934,0.05956l0,1.38088c-0.09012,0.03835 -0.18928,0.05956 -0.2934,0.05956c-0.41421,0 -0.75,-0.33579 -0.75,-0.75zM0.91312,1.96443c0,0.39178 -0.30344,0.71269 -0.68812,0.74054l0,-1.48108c0.38468,0.02785 0.68812,0.34876 0.68812,0.74054zM1.32825,0.72513c-0.31032,0 -0.57098,-0.21262 -0.64424,-0.50013l1.28848,0c-0.07326,0.28751 -0.33392,0.50013 -0.64424,0.50013zM0.51488,0.63999c0,0.18083 -0.12299,0.33293 -0.28988,0.37723l0,-0.75445c0.16689,0.04429 0.28988,0.1964 0.28988,0.37723zM0.89454,1.23279c0,-0.18537 0.15027,-0.33564 0.33564,-0.33564c0.18537,0 0.33564,0.15027 0.33564,0.33564c0,0.18537 -0.15027,0.33564 -0.33564,0.33564c-0.18537,0 -0.33564,-0.15027 -0.33564,-0.33564zM1.23402,1.95842c0,-0.17278 0.14006,-0.31284 0.31284,-0.31284c0.17278,0 0.31284,0.14006 0.31284,0.31284c0,0.17278 -0.14006,0.31284 -0.31284,0.31284c-0.17278,0 -0.31284,-0.14006 -0.31284,-0.31284zM2.775,0.225l0,0.02413c-0.01527,-0.00637 -0.02963,-0.0145 -0.04282,-0.02413zM0.57003,1.12958c0,-0.0507 0.0411,-0.09179 0.09179,-0.09179c0.0507,0 0.09179,0.0411 0.09179,0.09179c0,0.0507 -0.0411,0.09179 -0.09179,0.09179c-0.0507,0 -0.09179,-0.0411 -0.09179,-0.09179zM2.00671,1.99867c0,-0.0487 0.03948,-0.08818 0.08818,-0.08818c0.0487,0 0.08818,0.03948 0.08818,0.08818c0,0.0487 -0.03948,0.08818 -0.08818,0.08818c-0.0487,0 -0.08818,-0.03948 -0.08818,-0.08818zM0.61568,0.6514c0,-0.04449 0.03606,-0.08055 0.08055,-0.08055c0.04449,0 0.08055,0.03606 0.08055,0.08055c0,0.04449 -0.03606,0.08055 -0.08055,0.08055c-0.04449,0 -0.08055,-0.03606 -0.08055,-0.08055zM0.82472,0.82754c0,-0.03129 0.02537,-0.05666 0.05666,-0.05666c0.03129,0 0.05666,0.02537 0.05666,0.05666c0,0.03129 -0.02537,0.05666 -0.05666,0.05666c-0.03129,0 -0.05666,-0.02537 -0.05666,-0.05666zM0.52147,0.27793c-0.02968,0 -0.05386,-0.02351 -0.05494,-0.05293l0.10989,0c-0.00108,0.02941 -0.02527,0.05293 -0.05494,0.05293zM0.38183,1.11011c0,-0.02201 0.01785,-0.03986 0.03986,-0.03986c0.02201,0 0.03986,0.01785 0.03986,0.03986c0,0.02201 -0.01785,0.03986 -0.03986,0.03986c-0.02201,0 -0.03986,-0.01785 -0.03986,-0.03986zM2.52349,1.98162c0,-0.02179 0.01767,-0.03946 0.03946,-0.03946c0.02179,0 0.03946,0.01767 0.03946,0.03946c0,0.02179 -0.01767,0.03946 -0.03946,0.03946c-0.02179,0 -0.03946,-0.01767 -0.03946,-0.03946zM2.29676,1.99133c0,-0.01837 0.01489,-0.03326 0.03326,-0.03326c0.01837,0 0.03326,0.01489 0.03326,0.03326c0,0.01837 -0.01489,0.03326 -0.03326,0.03326c-0.01837,0 -0.03326,-0.01489 -0.03326,-0.03326zM1.55187,0.82013c0,-0.01837 0.01489,-0.03326 0.03326,-0.03326c0.01837,0 0.03326,0.01489 0.03326,0.03326c0,0.01837 -0.01489,0.03326 -0.03326,0.03326c-0.01837,0 -0.03326,-0.01489 -0.03326,-0.03326zM1.62249,1.47328c0,-0.01661 0.01347,-0.03008 0.03008,-0.03008c0.01661,0 0.03008,0.01347 0.03008,0.03008c0,0.01661 -0.01347,0.03008 -0.03008,0.03008c-0.01661,0 -0.03008,-0.01347 -0.03008,-0.03008zM1.06556,1.95443c0,-0.01279 0.01037,-0.02317 0.02317,-0.02317c0.01279,0 0.02317,0.01037 0.02317,0.02317c0,0.01279 -0.01037,0.02317 -0.02317,0.02317c-0.01279,0 -0.02317,-0.01037 -0.02317,-0.02317zM1.06361,1.70295c0,-0.01192 0.00967,-0.02159 0.02159,-0.02159c0.01192,0 0.02159,0.00967 0.02159,0.02159c0,0.01192 -0.00967,0.02159 -0.02159,0.02159c-0.01192,0 -0.02159,-0.00967 -0.02159,-0.02159zM0.74764,1.32788c0,-0.01145 0.00929,-0.02074 0.02074,-0.02074c0.01145,0 0.02074,0.00929 0.02074,0.02074c0,0.01145 -0.00929,0.02074 -0.02074,0.02074c-0.01145,0 -0.02074,-0.00929 -0.02074,-0.02074z"></path></g></svg>