<svg version="1.1" xmlns="http://www.w3.org/2000/svg" xmlns:xlink="http://www.w3.org/1999/xlink" width="4.61880215350125in" height="4.375in" viewBox="-0.7372322931021248 -1 4.668802153501249 4.425"><g fill="none" fill-rule="none" stroke="none" stroke-width="none" stroke-linecap="butt" stroke-linejoin="miter" stroke-miterlimit="10" stroke-dasharray="" stroke-dashoffset="0" font-family="none" font-weight="none" font-size="none" text-anchor="none" style="mix-blend-mode: normal"><path d="M0,3v-3h3v3z" fill="none" fill-rule="nonzero" stroke="none" stroke-width="1"></path><path d="M-0.52073,-0.75l0.07217,-0.125l-0.07217,-0.125h-0.14434l-0.07217,0.125l0.07217,0.125" fill="none" fill-rule="nonzero" stroke="none" stroke-width="1"></path><path d="M-0.52073,-0.5l0.07217,-0.125l-0.07217,-0.125h-0.14434l-0.07217,0.125l0.07217,0.125" fill="none" fill-rule="nonzero" stroke="none" stroke-width="1"></path><path d="M-0.52073,-0.25l0.07217,-0.125l-0.07217,-0.125h-0.14434l-0.07217,0.125l0.07217,0.125" fill="none" fill-rule="nonzero" stroke="none" stroke-width="1"></path><path d="M-0.52073,0l0.07217,-0.125l-0.07217,-0.125h-0.14434l-0.07217,0.125l0.07217,0.125" fill="none" fill-rule="nonzero" stroke="none" stroke-width="1"></path><path d="M-0.52073,0.25l0.07217,-0.125l-0.07217,-0.125h-0.14434l-0.07217,0.125l0.07217,0.125" fill="none" fill-rule="nonzero" stroke="none" stroke-width="1"></path><path d="M-0.52073,0.5l0.07217,-0.125l-0.07217,-0.125h-0.14434l-0.07217,0.125l0.07217,0.125" fill="none" fill-rule="nonzero" stroke="none" stroke-width="1"></path><path d="M-0.52073,0.75l0.07217,-0.125l-0.07217,-0.125h-0.14434l-0.07217,0.125l0.07217,0.125" fill="none" fill-rule="nonzero" stroke="none" stroke-width="1"></path><path d="M-0.52073,1l0.07217,-0.125l-0.07217,-0.125h-0.14434l-0.07217,0.125l0.07217,0.125" fill="none" fill-rule="nonzero" stroke="none" stroke-width="1"></path><path d="M-0.52073,1.25l0.07217,-0.125l-0.07217,-0.125h-0.14434l-0.07217,0.125l0.07217,0.125" fill="none" fill-rule="nonzero" stroke="none" stroke-width="1"></path><path d="M-0.52073,1.5l0.07217,-0.125l-0.07217,-0.125h-0.14434l-0.07217,0.125l0.07217,0.125" fill="none" fill-rule="nonzero" stroke="none" stroke-width="1"></path><path d="M-0.52073,1.75l0.07217,-0.125l-0.07217,-0.125h-0.14434l-0.07217,0.125l0.07217,0.125" fill="none" fill-rule="nonzero" stroke="none" stroke-width="1"></path><path d="M-0.52073,2l0.07217,-0.125l-0.07217,-0.125h-0.14434l-0.07217,0.125l0.07217,0.125" fill="none" fill-rule="nonzero" stroke="none" stroke-width="1"></path><path d="M-0.52073,2.25l0.07217,-0.125l-0.07217,-0.125h-0.14434l-0.07217,0.125l0.07217,0.125" fill="none" fill-rule="nonzero" stroke="none" stroke-width="1"></path><path d="M-0.52073,2.5l0.07217,-0.125l-0.07217,-0.125h-0.14434l-0.07217,0.125l0.07217,0.125" fill="none" fill-rule="nonzero" stroke="none" stroke-width="1"></path><path d="M-0.52073,2.75l0.07217,-0.125l-0.07217,-0.125h-0.14434l-0.07217,0.125l0.07217,0.125" fill="none" fill-rule="nonzero" stroke="none" stroke-width="1"></path><path d="M-0.52073,3l0.07217,-0.125l-0.07217,-0.125h-0.14434l-0.07217,0.125l0.07217,0.125" fill="none" fill-rule="nonzero" stroke="none" stroke-width="1"></path><path d="M-0.52073,3.25l0.07217,-0.125l-0.07217,-0.125h-0.14434l-0.07217,0.125l0.07217,0.125" fill="none" fill-rule="nonzero" stroke="none" stroke-width="1"></path><path d="M-0.30422,-0.625l0.07217,-0.125l-0.07217,-0.125h-0.14434l-0.07217,0.125l0.07217,0.125" fill="none" fill-rule="nonzero" stroke="none" stroke-width="1"></path><path d="M-0.30422,-0.375l0.07217,-0.125l-0.07217,-0.125h-0.14434l-0.07217,0.125l0.07217,0.125" fill="none" fill-rule="nonzero" stroke="none" stroke-width="1"></path><path d="M-0.30422,-0.125l0.07217,-0.125l-0.07217,-0.125h-0.14434l-0.07217,0.125l0.07217,0.125" fill="none" fill-rule="nonzero" stroke="none" stroke-width="1"></path><path d="M-0.30422,0.125l0.07217,-0.125l-0.07217,-0.125h-0.14434l-0.07217,0.125l0.07217,0.125" fill="none" fill-rule="nonzero" stroke="none" stroke-width="1"></path><path d="M-0.30422,0.375l0.07217,-0.125l-0.07217,-0.125h-0.14434l-0.07217,0.125l0.07217,0.125" fill="none" fill-rule="nonzero" stroke="none" stroke-width="1"></path><path d="M-0.30422,0.625l0.07217,-0.125l-0.07217,-0.125h-0.14434l-0.07217,0.125l0.07217,0.125" fill="none" fill-rule="nonzero" stroke="none" stroke-width="1"></path><path d="M-0.30422,0.875l0.07217,-0.125l-0.07217,-0.125h-0.14434l-0.07217,0.125l0.07217,0.125" fill="none" fill-rule="nonzero" stroke="none" stroke-width="1"></path><path d="M-0.30422,1.125l0.07217,-0.125l-0.07217,-0.125h-0.14434l-0.07217,0.125l0.07217,0.125" fill="none" fill-rule="nonzero" stroke="none" stroke-width="1"></path><path d="M-0.30422,1.375l0.07217,-0.125l-0.07217,-0.125h-0.14434l-0.07217,0.125l0.07217,0.125" fill="none" fill-rule="nonzero" stroke="none" stroke-width="1"></path><path d="M-0.30422,1.625l0.07217,-0.125l-0.07217,-0.125h-0.14434l-0.07217,0.125l0.07217,0.125" fill="none" fill-rule="nonzero" stroke="none" stroke-width="1"></path><path d="M-0.30422,1.875l0.07217,-0.125l-0.07217,-0.125h-0.14434l-0.07217,0.125l0.07217,0.125" fill="none" fill-rule="nonzero" stroke="none" stroke-width="1"></path><path d="M-0.30422,2.125l0.07217,-0.125l-0.07217,-0.125h-0.14434l-0.07217,0.125l0.07217,0.125" fill="none" fill-rule="nonzero" stroke="none" stroke-width="1"></path><path d="M-0.30422,2.375l0.07217,-0.125l-0.07217,-0.125h-0.14434l-0.07217,0.125l0.07217,0.125" fill="none" fill-rule="nonzero" stroke="none" stroke-width="1"></path><path d="M-0.30422,2.625l0.07217,-0.125l-0.07217,-0.125h-0.14434l-0.07217,0.125l0.07217,0.125" fill="none" fill-rule="nonzero" stroke="none" stroke-width="1"></path><path d="M-0.30422,2.875l0.07217,-0.125l-0.07217,-0.125h-0.14434l-0.07217,0.125l0.07217,0.125" fill="none" fill-rule="nonzero" stroke="none" stroke-width="1"></path><path d="M-0.30422,3.125l0.07217,-0.125l-0.07217,-0.125h-0.14434l-0.07217,0.125l0.07217,0.125" fill="none" fill-rule="nonzero" stroke="none" stroke-width="1"></path><path d="M-0.30422,3.375l0.07217,-0.125l-0.07217,-0.125h-0.14434l-0.07217,0.125l0.07217,0.125" fill="none" fill-rule="nonzero" stroke="none" stroke-width="1"></path><path d="M-0.08771,-0.75l0.07217,-0.125l-0.07217,-0.125h-0.14434l-0.07217,0.125l0.07217,0.125" fill="none" fill-rule="nonzero" stroke="none" stroke-width="1"></path><path d="M-0.08771,-0.5l0.07217,-0.125l-0.07217,-0.125h-0.14434l-0.07217,0.125l0.07217,0.125" fill="none" fill-rule="nonzero" stroke="none" stroke-width="1"></path><path d="M-0.08771,-0.25l0.07217,-0.125l-0.07217,-0.125h-0.14434l-0.07217,0.125l0.07217,0.125" fill="none" fill-rule="nonzero" stroke="none" stroke-width="1"></path><path d="M-0.08771,0l0.07217,-0.125l-0.07217,-0.125h-0.14434l-0.07217,0.125l0.07217,0.125" fill="none" fill-rule="nonzero" stroke="none" stroke-width="1"></path><path d="M-0.08771,0.25l0.07217,-0.125l-0.07217,-0.125h-0.14434l-0.07217,0.125l0.07217,0.125" fill="none" fill-rule="nonzero" stroke="none" stroke-width="1"></path><path d="M-0.08771,0.5l0.07217,-0.125l-0.07217,-0.125h-0.14434l-0.07217,0.125l0.07217,0.125" fill="none" fill-rule="nonzero" stroke="none" stroke-width="1"></path><path d="M-0.08771,0.75l0.07217,-0.125l-0.07217,-0.125h-0.14434l-0.07217,0.125l0.07217,0.125" fill="none" fill-rule="nonzero" stroke="none" stroke-width="1"></path><path d="M-0.08771,1l0.07217,-0.125l-0.07217,-0.125h-0.14434l-0.07217,0.125l0.07217,0.125" fill="none" fill-rule="nonzero" stroke="none" stroke-width="1"></path><path d="M-0.08771,1.25l0.07217,-0.125l-0.07217,-0.125h-0.14434l-0.07217,0.125l0.07217,0.125" fill="none" fill-rule="nonzero" stroke="none" stroke-width="1"></path><path d="M-0.08771,1.5l0.07217,-0.125l-0.07217,-0.125h-0.14434l-0.07217,0.125l0.07217,0.125" fill="none" fill-rule="nonzero" stroke="none" stroke-width="1"></path><path d="M-0.08771,1.75l0.07217,-0.125l-0.07217,-0.125h-0.14434l-0.07217,0.125l0.07217,0.125" fill="none" fill-rule="nonzero" stroke="none" stroke-width="1"></path><path d="M-0.08771,2l0.07217,-0.125l-0.07217,-0.125h-0.14434l-0.07217,0.125l0.07217,0.125" fill="none" fill-rule="nonzero" stroke="none" stroke-width="1"></path><path d="M-0.08771,2.25l0.07217,-0.125l-0.07217,-0.125h-0.14434l-0.07217,0.125l0.07217,0.125" fill="none" fill-rule="nonzero" stroke="none" stroke-width="1"></path><path d="M-0.08771,2.5l0.07217,-0.125l-0.07217,-0.125h-0.14434l-0.07217,0.125l0.07217,0.125" fill="none" fill-rule="nonzero" stroke="none" stroke-width="1"></path><path d="M-0.08771,2.75l0.07217,-0.125l-0.07217,-0.125h-0.14434l-0.07217,0.125l0.07217,0.125" fill="none" fill-rule="nonzero" stroke="none" stroke-width="1"></path><path d="M-0.08771,3l0.07217,-0.125l-0.07217,-0.125h-0.14434l-0.07217,0.125l0.07217,0.125" fill="none" fill-rule="nonzero" stroke="none" stroke-width="1"></path><path d="M-0.08771,3.25l0.07217,-0.125l-0.07217,-0.125h-0.14434l-0.07217,0.125l0.07217,0.125" fill="none" fill-rule="nonzero" stroke="none" stroke-width="1"></path><path d="M0.12879,-0.625l0.07217,-0.125l-0.07217,-0.125h-0.14434l-0.07217,0.125l0.07217,0.125" fill="none" fill-rule="nonzero" stroke="none" stroke-width="1"></path><path d="M0.12879,-0.375l0.07217,-0.125l-0.07217,-0.125h-0.14434l-0.07217,0.125l0.07217,0.125" fill="none" fill-rule="nonzero" stroke="none" stroke-width="1"></path><path d="M0.12879,-0.125l0.07217,-0.125l-0.07217,-0.125h-0.14434l-0.07217,0.125l0.07217,0.125" fill="none" fill-rule="nonzero" stroke="none" stroke-width="1"></path><path d="M0.12879,0.125l0.07217,-0.125l-0.07217,-0.125h-0.14434l-0.07217,0.125l0.07217,0.125" fill="none" fill-rule="nonzero" stroke="none" stroke-width="1"></path><path d="M0.12879,0.375l0.07217,-0.125l-0.07217,-0.125h-0.14434l-0.07217,0.125l0.07217,0.125" fill="none" fill-rule="nonzero" stroke="none" stroke-width="1"></path><path d="M0.12879,0.625l0.07217,-0.125l-0.07217,-0.125h-0.14434l-0.07217,0.125l0.07217,0.125" fill="none" fill-rule="nonzero" stroke="none" stroke-width="1"></path><path d="M0.12879,0.875l0.07217,-0.125l-0.07217,-0.125h-0.14434l-0.07217,0.125l0.07217,0.125" fill="none" fill-rule="nonzero" stroke="none" stroke-width="1"></path><path d="M0.12879,1.125l0.07217,-0.125l-0.07217,-0.125h-0.14434l-0.07217,0.125l0.07217,0.125" fill="none" fill-rule="nonzero" stroke="none" stroke-width="1"></path><path d="M0.12879,1.375l0.07217,-0.125l-0.07217,-0.125h-0.14434l-0.07217,0.125l0.07217,0.125" fill="none" fill-rule="nonzero" stroke="none" stroke-width="1"></path><path d="M0.12879,1.625l0.07217,-0.125l-0.07217,-0.125h-0.14434l-0.07217,0.125l0.07217,0.125" fill="none" fill-rule="nonzero" stroke="none" stroke-width="1"></path><path d="M0.12879,1.875l0.07217,-0.125l-0.07217,-0.125h-0.14434l-0.07217,0.125l0.07217,0.125" fill="none" fill-rule="nonzero" stroke="none" stroke-width="1"></path><path d="M0.12879,2.125l0.07217,-0.125l-0.07217,-0.125h-0.14434l-0.07217,0.125l0.07217,0.125" fill="none" fill-rule="nonzero" stroke="none" stroke-width="1"></path><path d="M0.12879,2.375l0.07217,-0.125l-0.07217,-0.125h-0.14434l-0.07217,0.125l0.07217,0.125" fill="none" fill-rule="nonzero" stroke="none" stroke-width="1"></path><path d="M0.12879,2.625l0.07217,-0.125l-0.07217,-0.125h-0.14434l-0.07217,0.125l0.07217,0.125" fill="none" fill-rule="nonzero" stroke="none" stroke-width="1"></path><path d="M0.12879,2.875l0.07217,-0.125l-0.07217,-0.125h-0.14434l-0.07217,0.125l0.07217,0.125" fill="none" fill-rule="nonzero" stroke="none" stroke-width="1"></path><path d="M0.12879,3.125l0.07217,-0.125l-0.07217,-0.125h-0.14434l-0.07217,0.125l0.07217,0.125" fill="none" fill-rule="nonzero" stroke="none" stroke-width="1"></path><path d="M0.12879,3.375l0.07217,-0.125l-0.07217,-0.125h-0.14434l-0.07217,0.125l0.07217,0.125" fill="none" fill-rule="nonzero" stroke="none" stroke-width="1"></path><path d="M0.3453,-0.75l0.07217,-0.125l-0.07217,-0.125h-0.14434l-0.07217,0.125l0.07217,0.125" fill="none" fill-rule="nonzero" stroke="none" stroke-width="1"></path><path d="M0.3453,-0.5l0.07217,-0.125l-0.07217,-0.125h-0.14434l-0.07217,0.125l0.07217,0.125" fill="none" fill-rule="nonzero" stroke="none" stroke-width="1"></path><path d="M0.3453,-0.25l0.07217,-0.125l-0.07217,-0.125h-0.14434l-0.07217,0.125l0.07217,0.125" fill="none" fill-rule="nonzero" stroke="none" stroke-width="1"></path><path d="M0.3453,0l0.07217,-0.125l-0.07217,-0.125h-0.14434l-0.07217,0.125l0.07217,0.125" fill="none" fill-rule="nonzero" stroke="none" stroke-width="1"></path><path d="M0.3453,0.25l0.07217,-0.125l-0.07217,-0.125h-0.14434l-0.07217,0.125l0.07217,0.125" fill="none" fill-rule="nonzero" stroke="none" stroke-width="1"></path><path d="M0.3453,0.5l0.07217,-0.125l-0.07217,-0.125h-0.14434l-0.07217,0.125l0.07217,0.125" fill="none" fill-rule="nonzero" stroke="none" stroke-width="1"></path><path d="M0.3453,0.75l0.07217,-0.125l-0.07217,-0.125h-0.14434l-0.07217,0.125l0.07217,0.125" fill="none" fill-rule="nonzero" stroke="none" stroke-width="1"></path><path d="M0.3453,1l0.07217,-0.125l-0.07217,-0.125h-0.14434l-0.07217,0.125l0.07217,0.125" fill="none" fill-rule="nonzero" stroke="none" stroke-width="1"></path><path d="M0.3453,1.25l0.07217,-0.125l-0.07217,-0.125h-0.14434l-0.07217,0.125l0.07217,0.125" fill="none" fill-rule="nonzero" stroke="none" stroke-width="1"></path><path d="M0.3453,1.5l0.07217,-0.125l-0.07217,-0.125h-0.14434l-0.07217,0.125l0.07217,0.125" fill="none" fill-rule="nonzero" stroke="none" stroke-width="1"></path><path d="M0.3453,1.75l0.07217,-0.125l-0.07217,-0.125h-0.14434l-0.07217,0.125l0.07217,0.125" fill="none" fill-rule="nonzero" stroke="none" stroke-width="1"></path><path d="M0.3453,2l0.07217,-0.125l-0.07217,-0.125h-0.14434l-0.07217,0.125l0.07217,0.125" fill="none" fill-rule="nonzero" stroke="none" stroke-width="1"></path><path d="M0.3453,2.25l0.07217,-0.125l-0.07217,-0.125h-0.14434l-0.07217,0.125l0.07217,0.125" fill="none" fill-rule="nonzero" stroke="none" stroke-width="1"></path><path d="M0.3453,2.5l0.07217,-0.125l-0.07217,-0.125h-0.14434l-0.07217,0.125l0.07217,0.125" fill="none" fill-rule="nonzero" stroke="none" stroke-width="1"></path><path d="M0.3453,2.75l0.07217,-0.125l-0.07217,-0.125h-0.14434l-0.07217,0.125l0.07217,0.125" fill="none" fill-rule="nonzero" stroke="none" stroke-width="1"></path><path d="M0.3453,3l0.07217,-0.125l-0.07217,-0.125h-0.14434l-0.07217,0.125l0.07217,0.125" fill="none" fill-rule="nonzero" stroke="none" stroke-width="1"></path><path d="M0.3453,3.25l0.07217,-0.125l-0.07217,-0.125h-0.14434l-0.07217,0.125l0.07217,0.125" fill="none" fill-rule="nonzero" stroke="none" stroke-width="1"></path><path d="M0.56181,-0.625l0.07217,-0.125l-0.07217,-0.125h-0.14434l-0.07217,0.125l0.07217,0.125" fill="none" fill-rule="nonzero" stroke="none" stroke-width="1"></path><path d="M0.56181,-0.375l0.07217,-0.125l-0.07217,-0.125h-0.14434l-0.07217,0.125l0.07217,0.125" fill="none" fill-rule="nonzero" stroke="none" stroke-width="1"></path><path d="M0.56181,-0.125l0.07217,-0.125l-0.07217,-0.125h-0.14434l-0.07217,0.125l0.07217,0.125" fill="none" fill-rule="nonzero" stroke="none" stroke-width="1"></path><path d="M0.56181,0.125l0.07217,-0.125l-0.07217,-0.125h-0.14434l-0.07217,0.125l0.07217,0.125" fill="none" fill-rule="nonzero" stroke="none" stroke-width="1"></path><path d="M0.56181,0.375l0.07217,-0.125l-0.07217,-0.125h-0.14434l-0.07217,0.125l0.07217,0.125" fill="none" fill-rule="nonzero" stroke="none" stroke-width="1"></path><path d="M0.56181,0.625l0.07217,-0.125l-0.07217,-0.125h-0.14434l-0.07217,0.125l0.07217,0.125" fill="none" fill-rule="nonzero" stroke="none" stroke-width="1"></path><path d="M0.56181,0.875l0.07217,-0.125l-0.07217,-0.125h-0.14434l-0.07217,0.125l0.07217,0.125" fill="none" fill-rule="nonzero" stroke="none" stroke-width="1"></path><path d="M0.56181,1.125l0.07217,-0.125l-0.07217,-0.125h-0.14434l-0.07217,0.125l0.07217,0.125" fill="none" fill-rule="nonzero" stroke="none" stroke-width="1"></path><path d="M0.56181,1.375l0.07217,-0.125l-0.07217,-0.125h-0.14434l-0.07217,0.125l0.07217,0.125" fill="none" fill-rule="nonzero" stroke="none" stroke-width="1"></path><path d="M0.56181,1.625l0.07217,-0.125l-0.07217,-0.125h-0.14434l-0.07217,0.125l0.07217,0.125" fill="none" fill-rule="nonzero" stroke="none" stroke-width="1"></path><path d="M0.56181,1.875l0.07217,-0.125l-0.07217,-0.125h-0.14434l-0.07217,0.125l0.07217,0.125" fill="none" fill-rule="nonzero" stroke="none" stroke-width="1"></path><path d="M0.56181,2.125l0.07217,-0.125l-0.07217,-0.125h-0.14434l-0.07217,0.125l0.07217,0.125" fill="none" fill-rule="nonzero" stroke="none" stroke-width="1"></path><path d="M0.56181,2.375l0.07217,-0.125l-0.07217,-0.125h-0.14434l-0.07217,0.125l0.07217,0.125" fill="none" fill-rule="nonzero" stroke="none" stroke-width="1"></path><path d="M0.56181,2.625l0.07217,-0.125l-0.07217,-0.125h-0.14434l-0.07217,0.125l0.07217,0.125" fill="none" fill-rule="nonzero" stroke="none" stroke-width="1"></path><path d="M0.56181,2.875l0.07217,-0.125l-0.07217,-0.125h-0.14434l-0.07217,0.125l0.07217,0.125" fill="none" fill-rule="nonzero" stroke="none" stroke-width="1"></path><path d="M0.56181,3.125l0.07217,-0.125l-0.07217,-0.125h-0.14434l-0.07217,0.125l0.07217,0.125" fill="none" fill-rule="nonzero" stroke="none" stroke-width="1"></path><path d="M0.56181,3.375l0.07217,-0.125l-0.07217,-0.125h-0.14434l-0.07217,0.125l0.07217,0.125" fill="none" fill-rule="nonzero" stroke="none" stroke-width="1"></path><path d="M0.77831,-0.75l0.07217,-0.125l-0.07217,-0.125h-0.14434l-0.07217,0.125l0.07217,0.125" fill="none" fill-rule="nonzero" stroke="none" stroke-width="1"></path><path d="M0.77831,-0.5l0.07217,-0.125l-0.07217,-0.125h-0.14434l-0.07217,0.125l0.07217,0.125" fill="none" fill-rule="nonzero" stroke="none" stroke-width="1"></path><path d="M0.77831,-0.25l0.07217,-0.125l-0.07217,-0.125h-0.14434l-0.07217,0.125l0.07217,0.125" fill="none" fill-rule="nonzero" stroke="none" stroke-width="1"></path><path d="M0.77831,0l0.07217,-0.125l-0.07217,-0.125h-0.14434l-0.07217,0.125l0.07217,0.125" fill="none" fill-rule="nonzero" stroke="none" stroke-width="1"></path><path d="M0.77831,0.25l0.07217,-0.125l-0.07217,-0.125h-0.14434l-0.07217,0.125l0.07217,0.125" fill="none" fill-rule="nonzero" stroke="none" stroke-width="1"></path><path d="M0.77831,0.5l0.07217,-0.125l-0.07217,-0.125h-0.14434l-0.07217,0.125l0.07217,0.125" fill="none" fill-rule="nonzero" stroke="none" stroke-width="1"></path><path d="M0.77831,0.75l0.07217,-0.125l-0.07217,-0.125h-0.14434l-0.07217,0.125l0.07217,0.125" fill="none" fill-rule="nonzero" stroke="none" stroke-width="1"></path><path d="M0.77831,1l0.07217,-0.125l-0.07217,-0.125h-0.14434l-0.07217,0.125l0.07217,0.125" fill="none" fill-rule="nonzero" stroke="none" stroke-width="1"></path><path d="M0.77831,1.25l0.07217,-0.125l-0.07217,-0.125h-0.14434l-0.07217,0.125l0.07217,0.125" fill="none" fill-rule="nonzero" stroke="none" stroke-width="1"></path><path d="M0.77831,1.5l0.07217,-0.125l-0.07217,-0.125h-0.14434l-0.07217,0.125l0.07217,0.125" fill="none" fill-rule="nonzero" stroke="none" stroke-width="1"></path><path d="M0.77831,1.75l0.07217,-0.125l-0.07217,-0.125h-0.14434l-0.07217,0.125l0.07217,0.125" fill="none" fill-rule="nonzero" stroke="none" stroke-width="1"></path><path d="M0.77831,2l0.07217,-0.125l-0.07217,-0.125h-0.14434l-0.07217,0.125l0.07217,0.125" fill="none" fill-rule="nonzero" stroke="none" stroke-width="1"></path><path d="M0.77831,2.25l0.07217,-0.125l-0.07217,-0.125h-0.14434l-0.07217,0.125l0.07217,0.125" fill="none" fill-rule="nonzero" stroke="none" stroke-width="1"></path><path d="M0.77831,2.5l0.07217,-0.125l-0.07217,-0.125h-0.14434l-0.07217,0.125l0.07217,0.125" fill="none" fill-rule="nonzero" stroke="none" stroke-width="1"></path><path d="M0.77831,2.75l0.07217,-0.125l-0.07217,-0.125h-0.14434l-0.07217,0.125l0.07217,0.125" fill="none" fill-rule="nonzero" stroke="none" stroke-width="1"></path><path d="M0.77831,3l0.07217,-0.125l-0.07217,-0.125h-0.14434l-0.07217,0.125l0.07217,0.125" fill="none" fill-rule="nonzero" stroke="none" stroke-width="1"></path><path d="M0.77831,3.25l0.07217,-0.125l-0.07217,-0.125h-0.14434l-0.07217,0.125l0.07217,0.125" fill="none" fill-rule="nonzero" stroke="none" stroke-width="1"></path><path d="M0.99482,-0.625l0.07217,-0.125l-0.07217,-0.125h-0.14434l-0.07217,0.125l0.07217,0.125" fill="none" fill-rule="nonzero" stroke="none" stroke-width="1"></path><path d="M0.99482,-0.375l0.07217,-0.125l-0.07217,-0.125h-0.14434l-0.07217,0.125l0.07217,0.125" fill="none" fill-rule="nonzero" stroke="none" stroke-width="1"></path><path d="M0.99482,-0.125l0.07217,-0.125l-0.07217,-0.125h-0.14434l-0.07217,0.125l0.07217,0.125" fill="none" fill-rule="nonzero" stroke="none" stroke-width="1"></path><path d="M0.99482,0.125l0.07217,-0.125l-0.07217,-0.125h-0.14434l-0.07217,0.125l0.07217,0.125" fill="none" fill-rule="nonzero" stroke="none" stroke-width="1"></path><path d="M0.99482,0.375l0.07217,-0.125l-0.07217,-0.125h-0.14434l-0.07217,0.125l0.07217,0.125" fill="none" fill-rule="nonzero" stroke="none" stroke-width="1"></path><path d="M0.99482,0.625l0.07217,-0.125l-0.07217,-0.125h-0.14434l-0.07217,0.125l0.07217,0.125" fill="none" fill-rule="nonzero" stroke="none" stroke-width="1"></path><path d="M0.99482,0.875l0.07217,-0.125l-0.07217,-0.125h-0.14434l-0.07217,0.125l0.07217,0.125" fill="none" fill-rule="nonzero" stroke="none" stroke-width="1"></path><path d="M0.99482,1.125l0.07217,-0.125l-0.07217,-0.125h-0.14434l-0.07217,0.125l0.07217,0.125" fill="none" fill-rule="nonzero" stroke="none" stroke-width="1"></path><path d="M0.99482,1.375l0.07217,-0.125l-0.07217,-0.125h-0.14434l-0.07217,0.125l0.07217,0.125" fill="none" fill-rule="nonzero" stroke="none" stroke-width="1"></path><path d="M0.99482,1.625l0.07217,-0.125l-0.07217,-0.125h-0.14434l-0.07217,0.125l0.07217,0.125" fill="none" fill-rule="nonzero" stroke="none" stroke-width="1"></path><path d="M0.99482,1.875l0.07217,-0.125l-0.07217,-0.125h-0.14434l-0.07217,0.125l0.07217,0.125" fill="none" fill-rule="nonzero" stroke="none" stroke-width="1"></path><path d="M0.99482,2.125l0.07217,-0.125l-0.07217,-0.125h-0.14434l-0.07217,0.125l0.07217,0.125" fill="none" fill-rule="nonzero" stroke="none" stroke-width="1"></path><path d="M0.99482,2.375l0.07217,-0.125l-0.07217,-0.125h-0.14434l-0.07217,0.125l0.07217,0.125" fill="none" fill-rule="nonzero" stroke="none" stroke-width="1"></path><path d="M0.99482,2.625l0.07217,-0.125l-0.07217,-0.125h-0.14434l-0.07217,0.125l0.07217,0.125" fill="none" fill-rule="nonzero" stroke="none" stroke-width="1"></path><path d="M0.99482,2.875l0.07217,-0.125l-0.07217,-0.125h-0.14434l-0.07217,0.125l0.07217,0.125" fill="none" fill-rule="nonzero" stroke="none" stroke-width="1"></path><path d="M0.99482,3.125l0.07217,-0.125l-0.07217,-0.125h-0.14434l-0.07217,0.125l0.07217,0.125" fill="none" fill-rule="nonzero" stroke="none" stroke-width="1"></path><path d="M0.99482,3.375l0.07217,-0.125l-0.07217,-0.125h-0.14434l-0.07217,0.125l0.07217,0.125" fill="none" fill-rule="nonzero" stroke="none" stroke-width="1"></path><path d="M1.21132,-0.75l0.07217,-0.125l-0.07217,-0.125h-0.14434l-0.07217,0.125l0.07217,0.125" fill="none" fill-rule="nonzero" stroke="none" stroke-width="1"></path><path d="M1.21132,-0.5l0.07217,-0.125l-0.07217,-0.125h-0.14434l-0.07217,0.125l0.07217,0.125" fill="none" fill-rule="nonzero" stroke="none" stroke-width="1"></path><path d="M1.21132,-0.25l0.07217,-0.125l-0.07217,-0.125h-0.14434l-0.07217,0.125l0.07217,0.125" fill="none" fill-rule="nonzero" stroke="none" stroke-width="1"></path><path d="M1.21132,0l0.07217,-0.125l-0.07217,-0.125h-0.14434l-0.07217,0.125l0.07217,0.125" fill="none" fill-rule="nonzero" stroke="none" stroke-width="1"></path><path d="M1.21132,0.25l0.07217,-0.125l-0.07217,-0.125h-0.14434l-0.07217,0.125l0.07217,0.125" fill="none" fill-rule="nonzero" stroke="none" stroke-width="1"></path><path d="M1.21132,0.5l0.07217,-0.125l-0.07217,-0.125h-0.14434l-0.07217,0.125l0.07217,0.125" fill="none" fill-rule="nonzero" stroke="none" stroke-width="1"></path><path d="M1.21132,0.75l0.07217,-0.125l-0.07217,-0.125h-0.14434l-0.07217,0.125l0.07217,0.125" fill="none" fill-rule="nonzero" stroke="none" stroke-width="1"></path><path d="M1.21132,1l0.07217,-0.125l-0.07217,-0.125h-0.14434l-0.07217,0.125l0.07217,0.125" fill="none" fill-rule="nonzero" stroke="none" stroke-width="1"></path><path d="M1.21132,1.25l0.07217,-0.125l-0.07217,-0.125h-0.14434l-0.07217,0.125l0.07217,0.125" fill="none" fill-rule="nonzero" stroke="none" stroke-width="1"></path><path d="M1.21132,1.5l0.07217,-0.125l-0.07217,-0.125h-0.14434l-0.07217,0.125l0.07217,0.125" fill="none" fill-rule="nonzero" stroke="none" stroke-width="1"></path><path d="M1.21132,1.75l0.07217,-0.125l-0.07217,-0.125h-0.14434l-0.07217,0.125l0.07217,0.125" fill="none" fill-rule="nonzero" stroke="none" stroke-width="1"></path><path d="M1.21132,2l0.07217,-0.125l-0.07217,-0.125h-0.14434l-0.07217,0.125l0.07217,0.125" fill="none" fill-rule="nonzero" stroke="none" stroke-width="1"></path><path d="M1.21132,2.25l0.07217,-0.125l-0.07217,-0.125h-0.14434l-0.07217,0.125l0.07217,0.125" fill="none" fill-rule="nonzero" stroke="none" stroke-width="1"></path><path d="M1.21132,2.5l0.07217,-0.125l-0.07217,-0.125h-0.14434l-0.07217,0.125l0.07217,0.125" fill="none" fill-rule="nonzero" stroke="none" stroke-width="1"></path><path d="M1.21132,2.75l0.07217,-0.125l-0.07217,-0.125h-0.14434l-0.07217,0.125l0.07217,0.125" fill="none" fill-rule="nonzero" stroke="none" stroke-width="1"></path><path d="M1.21132,3l0.07217,-0.125l-0.07217,-0.125h-0.14434l-0.07217,0.125l0.07217,0.125" fill="none" fill-rule="nonzero" stroke="none" stroke-width="1"></path><path d="M1.21132,3.25l0.07217,-0.125l-0.07217,-0.125h-0.14434l-0.07217,0.125l0.07217,0.125" fill="none" fill-rule="nonzero" stroke="none" stroke-width="1"></path><path d="M1.42783,-0.625l0.07217,-0.125l-0.07217,-0.125h-0.14434l-0.07217,0.125l0.07217,0.125" fill="none" fill-rule="nonzero" stroke="none" stroke-width="1"></path><path d="M1.42783,-0.375l0.07217,-0.125l-0.07217,-0.125h-0.14434l-0.07217,0.125l0.07217,0.125" fill="none" fill-rule="nonzero" stroke="none" stroke-width="1"></path><path d="M1.42783,-0.125l0.07217,-0.125l-0.07217,-0.125h-0.14434l-0.07217,0.125l0.07217,0.125" fill="none" fill-rule="nonzero" stroke="none" stroke-width="1"></path><path d="M1.42783,0.125l0.07217,-0.125l-0.07217,-0.125h-0.14434l-0.07217,0.125l0.07217,0.125" fill="none" fill-rule="nonzero" stroke="none" stroke-width="1"></path><path d="M1.42783,0.375l0.07217,-0.125l-0.07217,-0.125h-0.14434l-0.07217,0.125l0.07217,0.125" fill="none" fill-rule="nonzero" stroke="none" stroke-width="1"></path><path d="M1.42783,0.625l0.07217,-0.125l-0.07217,-0.125h-0.14434l-0.07217,0.125l0.07217,0.125" fill="none" fill-rule="nonzero" stroke="none" stroke-width="1"></path><path d="M1.42783,0.875l0.07217,-0.125l-0.07217,-0.125h-0.14434l-0.07217,0.125l0.07217,0.125" fill="none" fill-rule="nonzero" stroke="none" stroke-width="1"></path><path d="M1.42783,1.125l0.07217,-0.125l-0.07217,-0.125h-0.14434l-0.07217,0.125l0.07217,0.125" fill="none" fill-rule="nonzero" stroke="none" stroke-width="1"></path><path d="M1.42783,1.375l0.07217,-0.125l-0.07217,-0.125h-0.14434l-0.07217,0.125l0.07217,0.125" fill="none" fill-rule="nonzero" stroke="none" stroke-width="1"></path><path d="M1.42783,1.625l0.07217,-0.125l-0.07217,-0.125h-0.14434l-0.07217,0.125l0.07217,0.125" fill="none" fill-rule="nonzero" stroke="none" stroke-width="1"></path><path d="M1.42783,1.875l0.07217,-0.125l-0.07217,-0.125h-0.14434l-0.07217,0.125l0.07217,0.125" fill="none" fill-rule="nonzero" stroke="none" stroke-width="1"></path><path d="M1.42783,2.125l0.07217,-0.125l-0.07217,-0.125h-0.14434l-0.07217,0.125l0.07217,0.125" fill="none" fill-rule="nonzero" stroke="none" stroke-width="1"></path><path d="M1.42783,2.375l0.07217,-0.125l-0.07217,-0.125h-0.14434l-0.07217,0.125l0.07217,0.125" fill="none" fill-rule="nonzero" stroke="none" stroke-width="1"></path><path d="M1.42783,2.625l0.07217,-0.125l-0.07217,-0.125h-0.14434l-0.07217,0.125l0.07217,0.125" fill="none" fill-rule="nonzero" stroke="none" stroke-width="1"></path><path d="M1.42783,2.875l0.07217,-0.125l-0.07217,-0.125h-0.14434l-0.07217,0.125l0.07217,0.125" fill="none" fill-rule="nonzero" stroke="none" stroke-width="1"></path><path d="M1.42783,3.125l0.07217,-0.125l-0.07217,-0.125h-0.14434l-0.07217,0.125l0.07217,0.125" fill="none" fill-rule="nonzero" stroke="none" stroke-width="1"></path><path d="M1.42783,3.375l0.07217,-0.125l-0.07217,-0.125h-0.14434l-0.07217,0.125l0.07217,0.125" fill="none" fill-rule="nonzero" stroke="none" stroke-width="1"></path><path d="M1.64434,-0.75l0.07217,-0.125l-0.07217,-0.125h-0.14434l-0.07217,0.125l0.07217,0.125" fill="none" fill-rule="nonzero" stroke="none" stroke-width="1"></path><path d="M1.64434,-0.5l0.07217,-0.125l-0.07217,-0.125h-0.14434l-0.07217,0.125l0.07217,0.125" fill="none" fill-rule="nonzero" stroke="none" stroke-width="1"></path><path d="M1.64434,-0.25l0.07217,-0.125l-0.07217,-0.125h-0.14434l-0.07217,0.125l0.07217,0.125" fill="none" fill-rule="nonzero" stroke="none" stroke-width="1"></path><path d="M1.64434,0l0.07217,-0.125l-0.07217,-0.125h-0.14434l-0.07217,0.125l0.07217,0.125" fill="none" fill-rule="nonzero" stroke="none" stroke-width="1"></path><path d="M1.64434,0.25l0.07217,-0.125l-0.07217,-0.125h-0.14434l-0.07217,0.125l0.07217,0.125" fill="none" fill-rule="nonzero" stroke="none" stroke-width="1"></path><path d="M1.64434,0.5l0.07217,-0.125l-0.07217,-0.125h-0.14434l-0.07217,0.125l0.07217,0.125" fill="none" fill-rule="nonzero" stroke="none" stroke-width="1"></path><path d="M1.64434,0.75l0.07217,-0.125l-0.07217,-0.125h-0.14434l-0.07217,0.125l0.07217,0.125" fill="none" fill-rule="nonzero" stroke="none" stroke-width="1"></path><path d="M1.64434,1l0.07217,-0.125l-0.07217,-0.125h-0.14434l-0.07217,0.125l0.07217,0.125" fill="none" fill-rule="nonzero" stroke="none" stroke-width="1"></path><path d="M1.64434,1.25l0.07217,-0.125l-0.07217,-0.125h-0.14434l-0.07217,0.125l0.07217,0.125" fill="none" fill-rule="nonzero" stroke="none" stroke-width="1"></path><path d="M1.64434,1.5l0.07217,-0.125l-0.07217,-0.125h-0.14434l-0.07217,0.125l0.07217,0.125" fill="none" fill-rule="nonzero" stroke="none" stroke-width="1"></path><path d="M1.64434,1.75l0.07217,-0.125l-0.07217,-0.125h-0.14434l-0.07217,0.125l0.07217,0.125" fill="none" fill-rule="nonzero" stroke="none" stroke-width="1"></path><path d="M1.64434,2l0.07217,-0.125l-0.07217,-0.125h-0.14434l-0.07217,0.125l0.07217,0.125" fill="none" fill-rule="nonzero" stroke="none" stroke-width="1"></path><path d="M1.64434,2.25l0.07217,-0.125l-0.07217,-0.125h-0.14434l-0.07217,0.125l0.07217,0.125" fill="none" fill-rule="nonzero" stroke="none" stroke-width="1"></path><path d="M1.64434,2.5l0.07217,-0.125l-0.07217,-0.125h-0.14434l-0.07217,0.125l0.07217,0.125" fill="none" fill-rule="nonzero" stroke="none" stroke-width="1"></path><path d="M1.64434,2.75l0.07217,-0.125l-0.07217,-0.125h-0.14434l-0.07217,0.125l0.07217,0.125" fill="none" fill-rule="nonzero" stroke="none" stroke-width="1"></path><path d="M1.64434,3l0.07217,-0.125l-0.07217,-0.125h-0.14434l-0.07217,0.125l0.07217,0.125" fill="none" fill-rule="nonzero" stroke="none" stroke-width="1"></path><path d="M1.64434,3.25l0.07217,-0.125l-0.07217,-0.125h-0.14434l-0.07217,0.125l0.07217,0.125" fill="none" fill-rule="nonzero" stroke="none" stroke-width="1"></path><path d="M1.86084,-0.625l0.07217,-0.125l-0.07217,-0.125h-0.14434l-0.07217,0.125l0.07217,0.125" fill="none" fill-rule="nonzero" stroke="none" stroke-width="1"></path><path d="M1.86084,-0.375l0.07217,-0.125l-0.07217,-0.125h-0.14434l-0.07217,0.125l0.07217,0.125" fill="none" fill-rule="nonzero" stroke="none" stroke-width="1"></path><path d="M1.86084,-0.125l0.07217,-0.125l-0.07217,-0.125h-0.14434l-0.07217,0.125l0.07217,0.125" fill="none" fill-rule="nonzero" stroke="none" stroke-width="1"></path><path d="M1.86084,0.125l0.07217,-0.125l-0.07217,-0.125h-0.14434l-0.07217,0.125l0.07217,0.125" fill="none" fill-rule="nonzero" stroke="none" stroke-width="1"></path><path d="M1.86084,0.375l0.07217,-0.125l-0.07217,-0.125h-0.14434l-0.07217,0.125l0.07217,0.125" fill="none" fill-rule="nonzero" stroke="none" stroke-width="1"></path><path d="M1.86084,0.625l0.07217,-0.125l-0.07217,-0.125h-0.14434l-0.07217,0.125l0.07217,0.125" fill="none" fill-rule="nonzero" stroke="none" stroke-width="1"></path><path d="M1.86084,0.875l0.07217,-0.125l-0.07217,-0.125h-0.14434l-0.07217,0.125l0.07217,0.125" fill="none" fill-rule="nonzero" stroke="none" stroke-width="1"></path><path d="M1.86084,1.125l0.07217,-0.125l-0.07217,-0.125h-0.14434l-0.07217,0.125l0.07217,0.125" fill="none" fill-rule="nonzero" stroke="none" stroke-width="1"></path><path d="M1.86084,1.375l0.07217,-0.125l-0.07217,-0.125h-0.14434l-0.07217,0.125l0.07217,0.125" fill="none" fill-rule="nonzero" stroke="none" stroke-width="1"></path><path d="M1.86084,1.625l0.07217,-0.125l-0.07217,-0.125h-0.14434l-0.07217,0.125l0.07217,0.125" fill="none" fill-rule="nonzero" stroke="none" stroke-width="1"></path><path d="M1.86084,1.875l0.07217,-0.125l-0.07217,-0.125h-0.14434l-0.07217,0.125l0.07217,0.125" fill="none" fill-rule="nonzero" stroke="none" stroke-width="1"></path><path d="M1.86084,2.125l0.07217,-0.125l-0.07217,-0.125h-0.14434l-0.07217,0.125l0.07217,0.125" fill="none" fill-rule="nonzero" stroke="none" stroke-width="1"></path><path d="M1.86084,2.375l0.07217,-0.125l-0.07217,-0.125h-0.14434l-0.07217,0.125l0.07217,0.125" fill="none" fill-rule="nonzero" stroke="none" stroke-width="1"></path><path d="M1.86084,2.625l0.07217,-0.125l-0.07217,-0.125h-0.14434l-0.07217,0.125l0.07217,0.125" fill="none" fill-rule="nonzero" stroke="none" stroke-width="1"></path><path d="M1.86084,2.875l0.07217,-0.125l-0.07217,-0.125h-0.14434l-0.07217,0.125l0.07217,0.125" fill="none" fill-rule="nonzero" stroke="none" stroke-width="1"></path><path d="M1.86084,3.125l0.07217,-0.125l-0.07217,-0.125h-0.14434l-0.07217,0.125l0.07217,0.125" fill="none" fill-rule="nonzero" stroke="none" stroke-width="1"></path><path d="M1.86084,3.375l0.07217,-0.125l-0.07217,-0.125h-0.14434l-0.07217,0.125l0.07217,0.125" fill="none" fill-rule="nonzero" stroke="none" stroke-width="1"></path><path d="M2.07735,-0.75l0.07217,-0.125l-0.07217,-0.125h-0.14434l-0.07217,0.125l0.07217,0.125" fill="none" fill-rule="nonzero" stroke="none" stroke-width="1"></path><path d="M2.07735,-0.5l0.07217,-0.125l-0.07217,-0.125h-0.14434l-0.07217,0.125l0.07217,0.125" fill="none" fill-rule="nonzero" stroke="none" stroke-width="1"></path><path d="M2.07735,-0.25l0.07217,-0.125l-0.07217,-0.125h-0.14434l-0.07217,0.125l0.07217,0.125" fill="none" fill-rule="nonzero" stroke="none" stroke-width="1"></path><path d="M2.07735,0l0.07217,-0.125l-0.07217,-0.125h-0.14434l-0.07217,0.125l0.07217,0.125" fill="none" fill-rule="nonzero" stroke="none" stroke-width="1"></path><path d="M2.07735,0.25l0.07217,-0.125l-0.07217,-0.125h-0.14434l-0.07217,0.125l0.07217,0.125" fill="none" fill-rule="nonzero" stroke="none" stroke-width="1"></path><path d="M2.07735,0.5l0.07217,-0.125l-0.07217,-0.125h-0.14434l-0.07217,0.125l0.07217,0.125" fill="none" fill-rule="nonzero" stroke="none" stroke-width="1"></path><path d="M2.07735,0.75l0.07217,-0.125l-0.07217,-0.125h-0.14434l-0.07217,0.125l0.07217,0.125" fill="none" fill-rule="nonzero" stroke="none" stroke-width="1"></path><path d="M2.07735,1l0.07217,-0.125l-0.07217,-0.125h-0.14434l-0.07217,0.125l0.07217,0.125" fill="none" fill-rule="nonzero" stroke="none" stroke-width="1"></path><path d="M2.07735,1.25l0.07217,-0.125l-0.07217,-0.125h-0.14434l-0.07217,0.125l0.07217,0.125" fill="none" fill-rule="nonzero" stroke="none" stroke-width="1"></path><path d="M2.07735,1.5l0.07217,-0.125l-0.07217,-0.125h-0.14434l-0.07217,0.125l0.07217,0.125" fill="none" fill-rule="nonzero" stroke="none" stroke-width="1"></path><path d="M2.07735,1.75l0.07217,-0.125l-0.07217,-0.125h-0.14434l-0.07217,0.125l0.07217,0.125" fill="none" fill-rule="nonzero" stroke="none" stroke-width="1"></path><path d="M2.07735,2l0.07217,-0.125l-0.07217,-0.125h-0.14434l-0.07217,0.125l0.07217,0.125" fill="none" fill-rule="nonzero" stroke="none" stroke-width="1"></path><path d="M2.07735,2.25l0.07217,-0.125l-0.07217,-0.125h-0.14434l-0.07217,0.125l0.07217,0.125" fill="none" fill-rule="nonzero" stroke="none" stroke-width="1"></path><path d="M2.07735,2.5l0.07217,-0.125l-0.07217,-0.125h-0.14434l-0.07217,0.125l0.07217,0.125" fill="none" fill-rule="nonzero" stroke="none" stroke-width="1"></path><path d="M2.07735,2.75l0.07217,-0.125l-0.07217,-0.125h-0.14434l-0.07217,0.125l0.07217,0.125" fill="none" fill-rule="nonzero" stroke="none" stroke-width="1"></path><path d="M2.07735,3l0.07217,-0.125l-0.07217,-0.125h-0.14434l-0.07217,0.125l0.07217,0.125" fill="none" fill-rule="nonzero" stroke="none" stroke-width="1"></path><path d="M2.07735,3.25l0.07217,-0.125l-0.07217,-0.125h-0.14434l-0.07217,0.125l0.07217,0.125" fill="none" fill-rule="nonzero" stroke="none" stroke-width="1"></path><path d="M2.29386,-0.625l0.07217,-0.125l-0.07217,-0.125h-0.14434l-0.07217,0.125l0.07217,0.125" fill="none" fill-rule="nonzero" stroke="none" stroke-width="1"></path><path d="M2.29386,-0.375l0.07217,-0.125l-0.07217,-0.125h-0.14434l-0.07217,0.125l0.07217,0.125" fill="none" fill-rule="nonzero" stroke="none" stroke-width="1"></path><path d="M2.29386,-0.125l0.07217,-0.125l-0.07217,-0.125h-0.14434l-0.07217,0.125l0.07217,0.125" fill="none" fill-rule="nonzero" stroke="none" stroke-width="1"></path><path d="M2.29386,0.125l0.07217,-0.125l-0.07217,-0.125h-0.14434l-0.07217,0.125l0.07217,0.125" fill="none" fill-rule="nonzero" stroke="none" stroke-width="1"></path><path d="M2.29386,0.375l0.07217,-0.125l-0.07217,-0.125h-0.14434l-0.07217,0.125l0.07217,0.125" fill="none" fill-rule="nonzero" stroke="none" stroke-width="1"></path><path d="M2.29386,0.625l0.07217,-0.125l-0.07217,-0.125h-0.14434l-0.07217,0.125l0.07217,0.125" fill="none" fill-rule="nonzero" stroke="none" stroke-width="1"></path><path d="M2.29386,0.875l0.07217,-0.125l-0.07217,-0.125h-0.14434l-0.07217,0.125l0.07217,0.125" fill="none" fill-rule="nonzero" stroke="none" stroke-width="1"></path><path d="M2.29386,1.125l0.07217,-0.125l-0.07217,-0.125h-0.14434l-0.07217,0.125l0.07217,0.125" fill="none" fill-rule="nonzero" stroke="none" stroke-width="1"></path><path d="M2.29386,1.375l0.07217,-0.125l-0.07217,-0.125h-0.14434l-0.07217,0.125l0.07217,0.125" fill="none" fill-rule="nonzero" stroke="none" stroke-width="1"></path><path d="M2.29386,1.625l0.07217,-0.125l-0.07217,-0.125h-0.14434l-0.07217,0.125l0.07217,0.125" fill="none" fill-rule="nonzero" stroke="none" stroke-width="1"></path><path d="M2.29386,1.875l0.07217,-0.125l-0.07217,-0.125h-0.14434l-0.07217,0.125l0.07217,0.125" fill="none" fill-rule="nonzero" stroke="none" stroke-width="1"></path><path d="M2.29386,2.125l0.07217,-0.125l-0.07217,-0.125h-0.14434l-0.07217,0.125l0.07217,0.125" fill="none" fill-rule="nonzero" stroke="none" stroke-width="1"></path><path d="M2.29386,2.375l0.07217,-0.125l-0.07217,-0.125h-0.14434l-0.07217,0.125l0.07217,0.125" fill="none" fill-rule="nonzero" stroke="none" stroke-width="1"></path><path d="M2.29386,2.625l0.07217,-0.125l-0.07217,-0.125h-0.14434l-0.07217,0.125l0.07217,0.125" fill="none" fill-rule="nonzero" stroke="none" stroke-width="1"></path><path d="M2.29386,2.875l0.07217,-0.125l-0.07217,-0.125h-0.14434l-0.07217,0.125l0.07217,0.125" fill="none" fill-rule="nonzero" stroke="none" stroke-width="1"></path><path d="M2.29386,3.125l0.07217,-0.125l-0.07217,-0.125h-0.14434l-0.07217,0.125l0.07217,0.125" fill="none" fill-rule="nonzero" stroke="none" stroke-width="1"></path><path d="M2.29386,3.375l0.07217,-0.125l-0.07217,-0.125h-0.14434l-0.07217,0.125l0.07217,0.125" fill="none" fill-rule="nonzero" stroke="none" stroke-width="1"></path><path d="M2.51036,-0.75l0.07217,-0.125l-0.07217,-0.125h-0.14434l-0.07217,0.125l0.07217,0.125" fill="none" fill-rule="nonzero" stroke="none" stroke-width="1"></path><path d="M2.51036,-0.5l0.07217,-0.125l-0.07217,-0.125h-0.14434l-0.07217,0.125l0.07217,0.125" fill="none" fill-rule="nonzero" stroke="none" stroke-width="1"></path><path d="M2.51036,-0.25l0.07217,-0.125l-0.07217,-0.125h-0.14434l-0.07217,0.125l0.07217,0.125" fill="none" fill-rule="nonzero" stroke="none" stroke-width="1"></path><path d="M2.51036,0l0.07217,-0.125l-0.07217,-0.125h-0.14434l-0.07217,0.125l0.07217,0.125" fill="none" fill-rule="nonzero" stroke="none" stroke-width="1"></path><path d="M2.51036,0.25l0.07217,-0.125l-0.07217,-0.125h-0.14434l-0.07217,0.125l0.07217,0.125" fill="none" fill-rule="nonzero" stroke="none" stroke-width="1"></path><path d="M2.51036,0.5l0.07217,-0.125l-0.07217,-0.125h-0.14434l-0.07217,0.125l0.07217,0.125" fill="none" fill-rule="nonzero" stroke="none" stroke-width="1"></path><path d="M2.51036,0.75l0.07217,-0.125l-0.07217,-0.125h-0.14434l-0.07217,0.125l0.07217,0.125" fill="none" fill-rule="nonzero" stroke="none" stroke-width="1"></path><path d="M2.51036,1l0.07217,-0.125l-0.07217,-0.125h-0.14434l-0.07217,0.125l0.07217,0.125" fill="none" fill-rule="nonzero" stroke="none" stroke-width="1"></path><path d="M2.51036,1.25l0.07217,-0.125l-0.07217,-0.125h-0.14434l-0.07217,0.125l0.07217,0.125" fill="none" fill-rule="nonzero" stroke="none" stroke-width="1"></path><path d="M2.51036,1.5l0.07217,-0.125l-0.07217,-0.125h-0.14434l-0.07217,0.125l0.07217,0.125" fill="none" fill-rule="nonzero" stroke="none" stroke-width="1"></path><path d="M2.51036,1.75l0.07217,-0.125l-0.07217,-0.125h-0.14434l-0.07217,0.125l0.07217,0.125" fill="none" fill-rule="nonzero" stroke="none" stroke-width="1"></path><path d="M2.51036,2l0.07217,-0.125l-0.07217,-0.125h-0.14434l-0.07217,0.125l0.07217,0.125" fill="none" fill-rule="nonzero" stroke="none" stroke-width="1"></path><path d="M2.51036,2.25l0.07217,-0.125l-0.07217,-0.125h-0.14434l-0.07217,0.125l0.07217,0.125" fill="none" fill-rule="nonzero" stroke="none" stroke-width="1"></path><path d="M2.51036,2.5l0.07217,-0.125l-0.07217,-0.125h-0.14434l-0.07217,0.125l0.07217,0.125" fill="none" fill-rule="nonzero" stroke="none" stroke-width="1"></path><path d="M2.51036,2.75l0.07217,-0.125l-0.07217,-0.125h-0.14434l-0.07217,0.125l0.07217,0.125" fill="none" fill-rule="nonzero" stroke="none" stroke-width="1"></path><path d="M2.51036,3l0.07217,-0.125l-0.07217,-0.125h-0.14434l-0.07217,0.125l0.07217,0.125" fill="none" fill-rule="nonzero" stroke="none" stroke-width="1"></path><path d="M2.51036,3.25l0.07217,-0.125l-0.07217,-0.125h-0.14434l-0.07217,0.125l0.07217,0.125" fill="none" fill-rule="nonzero" stroke="none" stroke-width="1"></path><path d="M2.72687,-0.625l0.07217,-0.125l-0.07217,-0.125h-0.14434l-0.07217,0.125l0.07217,0.125" fill="none" fill-rule="nonzero" stroke="none" stroke-width="1"></path><path d="M2.72687,-0.375l0.07217,-0.125l-0.07217,-0.125h-0.14434l-0.07217,0.125l0.07217,0.125" fill="none" fill-rule="nonzero" stroke="none" stroke-width="1"></path><path d="M2.72687,-0.125l0.07217,-0.125l-0.07217,-0.125h-0.14434l-0.07217,0.125l0.07217,0.125" fill="none" fill-rule="nonzero" stroke="none" stroke-width="1"></path><path d="M2.72687,0.125l0.07217,-0.125l-0.07217,-0.125h-0.14434l-0.07217,0.125l0.07217,0.125" fill="none" fill-rule="nonzero" stroke="none" stroke-width="1"></path><path d="M2.72687,0.375l0.07217,-0.125l-0.07217,-0.125h-0.14434l-0.07217,0.125l0.07217,0.125" fill="none" fill-rule="nonzero" stroke="none" stroke-width="1"></path><path d="M2.72687,0.625l0.07217,-0.125l-0.07217,-0.125h-0.14434l-0.07217,0.125l0.07217,0.125" fill="none" fill-rule="nonzero" stroke="none" stroke-width="1"></path><path d="M2.72687,0.875l0.07217,-0.125l-0.07217,-0.125h-0.14434l-0.07217,0.125l0.07217,0.125" fill="none" fill-rule="nonzero" stroke="none" stroke-width="1"></path><path d="M2.72687,1.125l0.07217,-0.125l-0.07217,-0.125h-0.14434l-0.07217,0.125l0.07217,0.125" fill="none" fill-rule="nonzero" stroke="none" stroke-width="1"></path><path d="M2.72687,1.375l0.07217,-0.125l-0.07217,-0.125h-0.14434l-0.07217,0.125l0.07217,0.125" fill="none" fill-rule="nonzero" stroke="none" stroke-width="1"></path><path d="M2.72687,1.625l0.07217,-0.125l-0.07217,-0.125h-0.14434l-0.07217,0.125l0.07217,0.125" fill="none" fill-rule="nonzero" stroke="none" stroke-width="1"></path><path d="M2.72687,1.875l0.07217,-0.125l-0.07217,-0.125h-0.14434l-0.07217,0.125l0.07217,0.125" fill="none" fill-rule="nonzero" stroke="none" stroke-width="1"></path><path d="M2.72687,2.125l0.07217,-0.125l-0.07217,-0.125h-0.14434l-0.07217,0.125l0.07217,0.125" fill="none" fill-rule="nonzero" stroke="none" stroke-width="1"></path><path d="M2.72687,2.375l0.07217,-0.125l-0.07217,-0.125h-0.14434l-0.07217,0.125l0.07217,0.125" fill="none" fill-rule="nonzero" stroke="none" stroke-width="1"></path><path d="M2.72687,2.625l0.07217,-0.125l-0.07217,-0.125h-0.14434l-0.07217,0.125l0.07217,0.125" fill="none" fill-rule="nonzero" stroke="none" stroke-width="1"></path><path d="M2.72687,2.875l0.07217,-0.125l-0.07217,-0.125h-0.14434l-0.07217,0.125l0.07217,0.125" fill="none" fill-rule="nonzero" stroke="none" stroke-width="1"></path><path d="M2.72687,3.125l0.07217,-0.125l-0.07217,-0.125h-0.14434l-0.07217,0.125l0.07217,0.125" fill="none" fill-rule="nonzero" stroke="none" stroke-width="1"></path><path d="M2.72687,3.375l0.07217,-0.125l-0.07217,-0.125h-0.14434l-0.07217,0.125l0.07217,0.125" fill="none" fill-rule="nonzero" stroke="none" stroke-width="1"></path><path d="M2.94338,-0.75l0.07217,-0.125l-0.07217,-0.125h-0.14434l-0.07217,0.125l0.07217,0.125" fill="none" fill-rule="nonzero" stroke="none" stroke-width="1"></path><path d="M2.94338,-0.5l0.07217,-0.125l-0.07217,-0.125h-0.14434l-0.07217,0.125l0.07217,0.125" fill="none" fill-rule="nonzero" stroke="none" stroke-width="1"></path><path d="M2.94338,-0.25l0.07217,-0.125l-0.07217,-0.125h-0.14434l-0.07217,0.125l0.07217,0.125" fill="none" fill-rule="nonzero" stroke="none" stroke-width="1"></path><path d="M2.94338,0l0.07217,-0.125l-0.07217,-0.125h-0.14434l-0.07217,0.125l0.07217,0.125" fill="none" fill-rule="nonzero" stroke="none" stroke-width="1"></path><path d="M2.94338,0.25l0.07217,-0.125l-0.07217,-0.125h-0.14434l-0.07217,0.125l0.07217,0.125" fill="none" fill-rule="nonzero" stroke="none" stroke-width="1"></path><path d="M2.94338,0.5l0.07217,-0.125l-0.07217,-0.125h-0.14434l-0.07217,0.125l0.07217,0.125" fill="none" fill-rule="nonzero" stroke="none" stroke-width="1"></path><path d="M2.94338,0.75l0.07217,-0.125l-0.07217,-0.125h-0.14434l-0.07217,0.125l0.07217,0.125" fill="none" fill-rule="nonzero" stroke="none" stroke-width="1"></path><path d="M2.94338,1l0.07217,-0.125l-0.07217,-0.125h-0.14434l-0.07217,0.125l0.07217,0.125" fill="none" fill-rule="nonzero" stroke="none" stroke-width="1"></path><path d="M2.94338,1.25l0.07217,-0.125l-0.07217,-0.125h-0.14434l-0.07217,0.125l0.07217,0.125" fill="none" fill-rule="nonzero" stroke="none" stroke-width="1"></path><path d="M2.94338,1.5l0.07217,-0.125l-0.07217,-0.125h-0.14434l-0.07217,0.125l0.07217,0.125" fill="none" fill-rule="nonzero" stroke="none" stroke-width="1"></path><path d="M2.94338,1.75l0.07217,-0.125l-0.07217,-0.125h-0.14434l-0.07217,0.125l0.07217,0.125" fill="none" fill-rule="nonzero" stroke="none" stroke-width="1"></path><path d="M2.94338,2l0.07217,-0.125l-0.07217,-0.125h-0.14434l-0.07217,0.125l0.07217,0.125" fill="none" fill-rule="nonzero" stroke="none" stroke-width="1"></path><path d="M2.94338,2.25l0.07217,-0.125l-0.07217,-0.125h-0.14434l-0.07217,0.125l0.07217,0.125" fill="none" fill-rule="nonzero" stroke="none" stroke-width="1"></path><path d="M2.94338,2.5l0.07217,-0.125l-0.07217,-0.125h-0.14434l-0.07217,0.125l0.07217,0.125" fill="none" fill-rule="nonzero" stroke="none" stroke-width="1"></path><path d="M2.94338,2.75l0.07217,-0.125l-0.07217,-0.125h-0.14434l-0.07217,0.125l0.07217,0.125" fill="none" fill-rule="nonzero" stroke="none" stroke-width="1"></path><path d="M2.94338,3l0.07217,-0.125l-0.07217,-0.125h-0.14434l-0.07217,0.125l0.07217,0.125" fill="none" fill-rule="nonzero" stroke="none" stroke-width="1"></path><path d="M2.94338,3.25l0.07217,-0.125l-0.07217,-0.125h-0.14434l-0.07217,0.125l0.07217,0.125" fill="none" fill-rule="nonzero" stroke="none" stroke-width="1"></path><path d="M3.15988,-0.625l0.07217,-0.125l-0.07217,-0.125h-0.14434l-0.07217,0.125l0.07217,0.125" fill="none" fill-rule="nonzero" stroke="none" stroke-width="1"></path><path d="M3.15988,-0.375l0.07217,-0.125l-0.07217,-0.125h-0.14434l-0.07217,0.125l0.07217,0.125" fill="none" fill-rule="nonzero" stroke="none" stroke-width="1"></path><path d="M3.15988,-0.125l0.07217,-0.125l-0.07217,-0.125h-0.14434l-0.07217,0.125l0.07217,0.125" fill="none" fill-rule="nonzero" stroke="none" stroke-width="1"></path><path d="M3.15988,0.125l0.07217,-0.125l-0.07217,-0.125h-0.14434l-0.07217,0.125l0.07217,0.125" fill="none" fill-rule="nonzero" stroke="none" stroke-width="1"></path><path d="M3.15988,0.375l0.07217,-0.125l-0.07217,-0.125h-0.14434l-0.07217,0.125l0.07217,0.125" fill="none" fill-rule="nonzero" stroke="none" stroke-width="1"></path><path d="M3.15988,0.625l0.07217,-0.125l-0.07217,-0.125h-0.14434l-0.07217,0.125l0.07217,0.125" fill="none" fill-rule="nonzero" stroke="none" stroke-width="1"></path><path d="M3.15988,0.875l0.07217,-0.125l-0.07217,-0.125h-0.14434l-0.07217,0.125l0.07217,0.125" fill="none" fill-rule="nonzero" stroke="none" stroke-width="1"></path><path d="M3.15988,1.125l0.07217,-0.125l-0.07217,-0.125h-0.14434l-0.07217,0.125l0.07217,0.125" fill="none" fill-rule="nonzero" stroke="none" stroke-width="1"></path><path d="M3.15988,1.375l0.07217,-0.125l-0.07217,-0.125h-0.14434l-0.07217,0.125l0.07217,0.125" fill="none" fill-rule="nonzero" stroke="none" stroke-width="1"></path><path d="M3.15988,1.625l0.07217,-0.125l-0.07217,-0.125h-0.14434l-0.07217,0.125l0.07217,0.125" fill="none" fill-rule="nonzero" stroke="none" stroke-width="1"></path><path d="M3.15988,1.875l0.07217,-0.125l-0.07217,-0.125h-0.14434l-0.07217,0.125l0.07217,0.125" fill="none" fill-rule="nonzero" stroke="none" stroke-width="1"></path><path d="M3.15988,2.125l0.07217,-0.125l-0.07217,-0.125h-0.14434l-0.07217,0.125l0.07217,0.125" fill="none" fill-rule="nonzero" stroke="none" stroke-width="1"></path><path d="M3.15988,2.375l0.07217,-0.125l-0.07217,-0.125h-0.14434l-0.07217,0.125l0.07217,0.125" fill="none" fill-rule="nonzero" stroke="none" stroke-width="1"></path><path d="M3.15988,2.625l0.07217,-0.125l-0.07217,-0.125h-0.14434l-0.07217,0.125l0.07217,0.125" fill="none" fill-rule="nonzero" stroke="none" stroke-width="1"></path><path d="M3.15988,2.875l0.07217,-0.125l-0.07217,-0.125h-0.14434l-0.07217,0.125l0.07217,0.125" fill="none" fill-rule="nonzero" stroke="none" stroke-width="1"></path><path d="M3.15988,3.125l0.07217,-0.125l-0.07217,-0.125h-0.14434l-0.07217,0.125l0.07217,0.125" fill="none" fill-rule="nonzero" stroke="none" stroke-width="1"></path><path d="M3.15988,3.375l0.07217,-0.125l-0.07217,-0.125h-0.14434l-0.07217,0.125l0.07217,0.125" fill="none" fill-rule="nonzero" stroke="none" stroke-width="1"></path><path d="M3.37639,-0.75l0.07217,-0.125l-0.07217,-0.125h-0.14434l-0.07217,0.125l0.07217,0.125" fill="none" fill-rule="nonzero" stroke="none" stroke-width="1"></path><path d="M3.37639,-0.5l0.07217,-0.125l-0.07217,-0.125h-0.14434l-0.07217,0.125l0.07217,0.125" fill="none" fill-rule="nonzero" stroke="none" stroke-width="1"></path><path d="M3.37639,-0.25l0.07217,-0.125l-0.07217,-0.125h-0.14434l-0.07217,0.125l0.07217,0.125" fill="none" fill-rule="nonzero" stroke="none" stroke-width="1"></path><path d="M3.37639,0l0.07217,-0.125l-0.07217,-0.125h-0.14434l-0.07217,0.125l0.07217,0.125" fill="none" fill-rule="nonzero" stroke="none" stroke-width="1"></path><path d="M3.37639,0.25l0.07217,-0.125l-0.07217,-0.125h-0.14434l-0.07217,0.125l0.07217,0.125" fill="none" fill-rule="nonzero" stroke="none" stroke-width="1"></path><path d="M3.37639,0.5l0.07217,-0.125l-0.07217,-0.125h-0.14434l-0.07217,0.125l0.07217,0.125" fill="none" fill-rule="nonzero" stroke="none" stroke-width="1"></path><path d="M3.37639,0.75l0.07217,-0.125l-0.07217,-0.125h-0.14434l-0.07217,0.125l0.07217,0.125" fill="none" fill-rule="nonzero" stroke="none" stroke-width="1"></path><path d="M3.37639,1l0.07217,-0.125l-0.07217,-0.125h-0.14434l-0.07217,0.125l0.07217,0.125" fill="none" fill-rule="nonzero" stroke="none" stroke-width="1"></path><path d="M3.37639,1.25l0.07217,-0.125l-0.07217,-0.125h-0.14434l-0.07217,0.125l0.07217,0.125" fill="none" fill-rule="nonzero" stroke="none" stroke-width="1"></path><path d="M3.37639,1.5l0.07217,-0.125l-0.07217,-0.125h-0.14434l-0.07217,0.125l0.07217,0.125" fill="none" fill-rule="nonzero" stroke="none" stroke-width="1"></path><path d="M3.37639,1.75l0.07217,-0.125l-0.07217,-0.125h-0.14434l-0.07217,0.125l0.07217,0.125" fill="none" fill-rule="nonzero" stroke="none" stroke-width="1"></path><path d="M3.37639,2l0.07217,-0.125l-0.07217,-0.125h-0.14434l-0.07217,0.125l0.07217,0.125" fill="none" fill-rule="nonzero" stroke="none" stroke-width="1"></path><path d="M3.37639,2.25l0.07217,-0.125l-0.07217,-0.125h-0.14434l-0.07217,0.125l0.07217,0.125" fill="none" fill-rule="nonzero" stroke="none" stroke-width="1"></path><path d="M3.37639,2.5l0.07217,-0.125l-0.07217,-0.125h-0.14434l-0.07217,0.125l0.07217,0.125" fill="none" fill-rule="nonzero" stroke="none" stroke-width="1"></path><path d="M3.37639,2.75l0.07217,-0.125l-0.07217,-0.125h-0.14434l-0.07217,0.125l0.07217,0.125" fill="none" fill-rule="nonzero" stroke="none" stroke-width="1"></path><path d="M3.37639,3l0.07217,-0.125l-0.07217,-0.125h-0.14434l-0.07217,0.125l0.07217,0.125" fill="none" fill-rule="nonzero" stroke="none" stroke-width="1"></path><path d="M3.37639,3.25l0.07217,-0.125l-0.07217,-0.125h-0.14434l-0.07217,0.125l0.07217,0.125" fill="none" fill-rule="nonzero" stroke="none" stroke-width="1"></path><path d="M3.59289,-0.625l0.07217,-0.125l-0.07217,-0.125h-0.14434l-0.07217,0.125l0.07217,0.125" fill="none" fill-rule="nonzero" stroke="none" stroke-width="1"></path><path d="M3.59289,-0.375l0.07217,-0.125l-0.07217,-0.125h-0.14434l-0.07217,0.125l0.07217,0.125" fill="none" fill-rule="nonzero" stroke="none" stroke-width="1"></path><path d="M3.59289,-0.125l0.07217,-0.125l-0.07217,-0.125h-0.14434l-0.07217,0.125l0.07217,0.125" fill="none" fill-rule="nonzero" stroke="none" stroke-width="1"></path><path d="M3.59289,0.125l0.07217,-0.125l-0.07217,-0.125h-0.14434l-0.07217,0.125l0.07217,0.125" fill="none" fill-rule="nonzero" stroke="none" stroke-width="1"></path><path d="M3.59289,0.375l0.07217,-0.125l-0.07217,-0.125h-0.14434l-0.07217,0.125l0.07217,0.125" fill="none" fill-rule="nonzero" stroke="none" stroke-width="1"></path><path d="M3.59289,0.625l0.07217,-0.125l-0.07217,-0.125h-0.14434l-0.07217,0.125l0.07217,0.125" fill="none" fill-rule="nonzero" stroke="none" stroke-width="1"></path><path d="M3.59289,0.875l0.07217,-0.125l-0.07217,-0.125h-0.14434l-0.07217,0.125l0.07217,0.125" fill="none" fill-rule="nonzero" stroke="none" stroke-width="1"></path><path d="M3.59289,1.125l0.07217,-0.125l-0.07217,-0.125h-0.14434l-0.07217,0.125l0.07217,0.125" fill="none" fill-rule="nonzero" stroke="none" stroke-width="1"></path><path d="M3.59289,1.375l0.07217,-0.125l-0.07217,-0.125h-0.14434l-0.07217,0.125l0.07217,0.125" fill="none" fill-rule="nonzero" stroke="none" stroke-width="1"></path><path d="M3.59289,1.625l0.07217,-0.125l-0.07217,-0.125h-0.14434l-0.07217,0.125l0.07217,0.125" fill="none" fill-rule="nonzero" stroke="none" stroke-width="1"></path><path d="M3.59289,1.875l0.07217,-0.125l-0.07217,-0.125h-0.14434l-0.07217,0.125l0.07217,0.125" fill="none" fill-rule="nonzero" stroke="none" stroke-width="1"></path><path d="M3.59289,2.125l0.07217,-0.125l-0.07217,-0.125h-0.14434l-0.07217,0.125l0.07217,0.125" fill="none" fill-rule="nonzero" stroke="none" stroke-width="1"></path><path d="M3.59289,2.375l0.07217,-0.125l-0.07217,-0.125h-0.14434l-0.07217,0.125l0.07217,0.125" fill="none" fill-rule="nonzero" stroke="none" stroke-width="1"></path><path d="M3.59289,2.625l0.07217,-0.125l-0.07217,-0.125h-0.14434l-0.07217,0.125l0.07217,0.125" fill="none" fill-rule="nonzero" stroke="none" stroke-width="1"></path><path d="M3.59289,2.875l0.07217,-0.125l-0.07217,-0.125h-0.14434l-0.07217,0.125l0.07217,0.125" fill="none" fill-rule="nonzero" stroke="none" stroke-width="1"></path><path d="M3.59289,3.125l0.07217,-0.125l-0.07217,-0.125h-0.14434l-0.07217,0.125l0.07217,0.125" fill="none" fill-rule="nonzero" stroke="none" stroke-width="1"></path><path d="M3.59289,3.375l0.07217,-0.125l-0.07217,-0.125h-0.14434l-0.07217,0.125l0.07217,0.125" fill="none" fill-rule="nonzero" stroke="none" stroke-width="1"></path><path d="M3.8094,-0.75l0.07217,-0.125l-0.07217,-0.125h-0.14434l-0.07217,0.125l0.07217,0.125" fill="none" fill-rule="nonzero" stroke="none" stroke-width="1"></path><path d="M3.8094,-0.5l0.07217,-0.125l-0.07217,-0.125h-0.14434l-0.07217,0.125l0.07217,0.125" fill="none" fill-rule="nonzero" stroke="none" stroke-width="1"></path><path d="M3.8094,-0.25l0.07217,-0.125l-0.07217,-0.125h-0.14434l-0.07217,0.125l0.07217,0.125" fill="none" fill-rule="nonzero" stroke="none" stroke-width="1"></path><path d="M3.8094,0l0.07217,-0.125l-0.07217,-0.125h-0.14434l-0.07217,0.125l0.07217,0.125" fill="none" fill-rule="nonzero" stroke="none" stroke-width="1"></path><path d="M3.8094,0.25l0.07217,-0.125l-0.07217,-0.125h-0.14434l-0.07217,0.125l0.07217,0.125" fill="none" fill-rule="nonzero" stroke="none" stroke-width="1"></path><path d="M3.8094,0.5l0.07217,-0.125l-0.07217,-0.125h-0.14434l-0.07217,0.125l0.07217,0.125" fill="none" fill-rule="nonzero" stroke="none" stroke-width="1"></path><path d="M3.8094,0.75l0.07217,-0.125l-0.07217,-0.125h-0.14434l-0.07217,0.125l0.07217,0.125" fill="none" fill-rule="nonzero" stroke="none" stroke-width="1"></path><path d="M3.8094,1l0.07217,-0.125l-0.07217,-0.125h-0.14434l-0.07217,0.125l0.07217,0.125" fill="none" fill-rule="nonzero" stroke="none" stroke-width="1"></path><path d="M3.8094,1.25l0.07217,-0.125l-0.07217,-0.125h-0.14434l-0.07217,0.125l0.07217,0.125" fill="none" fill-rule="nonzero" stroke="none" stroke-width="1"></path><path d="M3.8094,1.5l0.07217,-0.125l-0.07217,-0.125h-0.14434l-0.07217,0.125l0.07217,0.125" fill="none" fill-rule="nonzero" stroke="none" stroke-width="1"></path><path d="M3.8094,1.75l0.07217,-0.125l-0.07217,-0.125h-0.14434l-0.07217,0.125l0.07217,0.125" fill="none" fill-rule="nonzero" stroke="none" stroke-width="1"></path><path d="M3.8094,2l0.07217,-0.125l-0.07217,-0.125h-0.14434l-0.07217,0.125l0.07217,0.125" fill="none" fill-rule="nonzero" stroke="none" stroke-width="1"></path><path d="M3.8094,2.25l0.07217,-0.125l-0.07217,-0.125h-0.14434l-0.07217,0.125l0.07217,0.125" fill="none" fill-rule="nonzero" stroke="none" stroke-width="1"></path><path d="M3.8094,2.5l0.07217,-0.125l-0.07217,-0.125h-0.14434l-0.07217,0.125l0.07217,0.125" fill="none" fill-rule="nonzero" stroke="none" stroke-width="1"></path><path d="M3.8094,2.75l0.07217,-0.125l-0.07217,-0.125h-0.14434l-0.07217,0.125l0.07217,0.125" fill="none" fill-rule="nonzero" stroke="none" stroke-width="1"></path><path d="M3.8094,3l0.07217,-0.125l-0.07217,-0.125h-0.14434l-0.07217,0.125l0.07217,0.125" fill="none" fill-rule="nonzero" stroke="none" stroke-width="1"></path><path d="M3.8094,3.25l0.07217,-0.125l-0.07217,-0.125h-0.14434l-0.07217,0.125l0.07217,0.125" fill="none" fill-rule="nonzero" stroke="none" stroke-width="1"></path><path d="M0.12879,2.875l0.07217,0.125h-0.20096l0,-0.125zM0.20096,0.25l-0.07217,-0.125l0.07217,-0.125h0.14434l0.07217,0.125l-0.07217,0.125M0.20096,0.5l-0.07217,-0.125l0.07217,-0.125h0.14434l0.07217,0.125l-0.07217,0.125M0.20096,0.75l-0.07217,-0.125l0.07217,-0.125h0.14434l0.07217,0.125l-0.07217,0.125M0.20096,1l-0.07217,-0.125l0.07217,-0.125h0.14434l0.07217,0.125l-0.07217,0.125M0.20096,1.25l-0.07217,-0.125l0.07217,-0.125h0.14434l0.07217,0.125l-0.07217,0.125M0.20096,1.5l-0.07217,-0.125l0.07217,-0.125h0.14434l0.07217,0.125l-0.07217,0.125M0.20096,1.75l-0.07217,-0.125l0.07217,-0.125h0.14434l0.07217,0.125l-0.07217,0.125M0.20096,2l-0.07217,-0.125l0.07217,-0.125h0.14434l0.07217,0.125l-0.07217,0.125M0.20096,2.25l-0.07217,-0.125l0.07217,-0.125h0.14434l0.07217,0.125l-0.07217,0.125M0.20096,2.5l-0.07217,-0.125l0.07217,-0.125h0.14434l0.07217,0.125l-0.07217,0.125M0.20096,2.75l-0.07217,-0.125l0.07217,-0.125h0.14434l0.07217,0.125l-0.07217,0.125M0.20096,3l-0.07217,-0.125l0.07217,-0.125h0.14434l0.07217,0.125l-0.07217,0.125M0.41747,0.125l-0.07217,-0.125h0.28868l-0.07217,0.125M0.41747,0.375l-0.07217,-0.125l0.07217,-0.125h0.14434l0.07217,0.125l-0.07217,0.125M0.41747,0.625l-0.07217,-0.125l0.07217,-0.125h0.14434l0.07217,0.125l-0.07217,0.125M0.41747,0.875l-0.07217,-0.125l0.07217,-0.125h0.14434l0.07217,0.125l-0.07217,0.125M0.41747,1.125l-0.07217,-0.125l0.07217,-0.125h0.14434l0.07217,0.125l-0.07217,0.125M0.41747,1.375l-0.07217,-0.125l0.07217,-0.125h0.14434l0.07217,0.125l-0.07217,0.125M0.41747,1.625l-0.07217,-0.125l0.07217,-0.125h0.14434l0.07217,0.125l-0.07217,0.125M0.41747,1.875l-0.07217,-0.125l0.07217,-0.125h0.14434l0.07217,0.125l-0.07217,0.125M0.41747,2.125l-0.07217,-0.125l0.07217,-0.125h0.14434l0.07217,0.125l-0.07217,0.125M0.41747,2.375l-0.07217,-0.125l0.07217,-0.125h0.14434l0.07217,0.125l-0.07217,0.125M0.41747,2.625l-0.07217,-0.125l0.07217,-0.125h0.14434l0.07217,0.125l-0.07217,0.125M0.41747,2.875l-0.07217,-0.125l0.07217,-0.125h0.14434l0.07217,0.125l-0.07217,0.125M0.41747,2.875h0.14434l0.07217,0.125h-0.28868zM0.63397,0.25l-0.07217,-0.125l0.07217,-0.125h0.14434l0.07217,0.125l-0.07217,0.125M0.63397,0.5l-0.07217,-0.125l0.07217,-0.125h0.14434l0.07217,0.125l-0.07217,0.125M0.63397,0.75l-0.07217,-0.125l0.07217,-0.125h0.14434l0.07217,0.125l-0.07217,0.125M0.63397,1l-0.07217,-0.125l0.07217,-0.125h0.14434l0.07217,0.125l-0.07217,0.125M0.63397,1.25l-0.07217,-0.125l0.07217,-0.125h0.14434l0.07217,0.125l-0.07217,0.125M0.63397,1.5l-0.07217,-0.125l0.07217,-0.125h0.14434l0.07217,0.125l-0.07217,0.125M0.63397,1.75l-0.07217,-0.125l0.07217,-0.125h0.14434l0.07217,0.125l-0.07217,0.125M0.63397,2l-0.07217,-0.125l0.07217,-0.125h0.14434l0.07217,0.125l-0.07217,0.125M0.63397,2.25l-0.07217,-0.125l0.07217,-0.125h0.14434l0.07217,0.125l-0.07217,0.125M0.63397,2.5l-0.07217,-0.125l0.07217,-0.125h0.14434l0.07217,0.125l-0.07217,0.125M0.63397,2.75l-0.07217,-0.125l0.07217,-0.125h0.14434l0.07217,0.125l-0.07217,0.125M0.63397,3l-0.07217,-0.125l0.07217,-0.125h0.14434l0.07217,0.125l-0.07217,0.125M0.85048,0.125l-0.07217,-0.125h0.28868l-0.07217,0.125M0.85048,0.375l-0.07217,-0.125l0.07217,-0.125h0.14434l0.07217,0.125l-0.07217,0.125M0.85048,0.625l-0.07217,-0.125l0.07217,-0.125h0.14434l0.07217,0.125l-0.07217,0.125M0.85048,0.875l-0.07217,-0.125l0.07217,-0.125h0.14434l0.07217,0.125l-0.07217,0.125M0.85048,1.125l-0.07217,-0.125l0.07217,-0.125h0.14434l0.07217,0.125l-0.07217,0.125M0.85048,1.375l-0.07217,-0.125l0.07217,-0.125h0.14434l0.07217,0.125l-0.07217,0.125M0.85048,1.625l-0.07217,-0.125l0.07217,-0.125h0.14434l0.07217,0.125l-0.07217,0.125M0.85048,1.875l-0.07217,-0.125l0.07217,-0.125h0.14434l0.07217,0.125l-0.07217,0.125M0.85048,2.125l-0.07217,-0.125l0.07217,-0.125h0.14434l0.07217,0.125l-0.07217,0.125M0.85048,2.375l-0.07217,-0.125l0.07217,-0.125h0.14434l0.07217,0.125l-0.07217,0.125M0.85048,2.625l-0.07217,-0.125l0.07217,-0.125h0.14434l0.07217,0.125l-0.07217,0.125M0.85048,2.875l-0.07217,-0.125l0.07217,-0.125h0.14434l0.07217,0.125l-0.07217,0.125M0.85048,2.875h0.14434l0.07217,0.125h-0.28868zM1.06699,0.25l-0.07217,-0.125l0.07217,-0.125h0.14434l0.07217,0.125l-0.07217,0.125M1.06699,0.5l-0.07217,-0.125l0.07217,-0.125h0.14434l0.07217,0.125l-0.07217,0.125M1.06699,0.75l-0.07217,-0.125l0.07217,-0.125h0.14434l0.07217,0.125l-0.07217,0.125M1.06699,1l-0.07217,-0.125l0.07217,-0.125h0.14434l0.07217,0.125l-0.07217,0.125M1.06699,1.25l-0.07217,-0.125l0.07217,-0.125h0.14434l0.07217,0.125l-0.07217,0.125M1.06699,1.5l-0.07217,-0.125l0.07217,-0.125h0.14434l0.07217,0.125l-0.07217,0.125M1.06699,1.75l-0.07217,-0.125l0.07217,-0.125h0.14434l0.07217,0.125l-0.07217,0.125M1.06699,2l-0.07217,-0.125l0.07217,-0.125h0.14434l0.07217,0.125l-0.07217,0.125M1.06699,2.25l-0.07217,-0.125l0.07217,-0.125h0.14434l0.07217,0.125l-0.07217,0.125M1.06699,2.5l-0.07217,-0.125l0.07217,-0.125h0.14434l0.07217,0.125l-0.07217,0.125M1.06699,2.75l-0.07217,-0.125l0.07217,-0.125h0.14434l0.07217,0.125l-0.07217,0.125M1.06699,3l-0.07217,-0.125l0.07217,-0.125h0.14434l0.07217,0.125l-0.07217,0.125M1.28349,0.125l-0.07217,-0.125h0.28868l-0.07217,0.125M1.28349,0.375l-0.07217,-0.125l0.07217,-0.125h0.14434l0.07217,0.125l-0.07217,0.125M1.28349,0.625l-0.07217,-0.125l0.07217,-0.125h0.14434l0.07217,0.125l-0.07217,0.125M1.28349,0.875l-0.07217,-0.125l0.07217,-0.125h0.14434l0.07217,0.125l-0.07217,0.125M1.28349,1.125l-0.07217,-0.125l0.07217,-0.125h0.14434l0.07217,0.125l-0.07217,0.125M1.28349,1.375l-0.07217,-0.125l0.07217,-0.125h0.14434l0.07217,0.125l-0.07217,0.125M1.28349,1.625l-0.07217,-0.125l0.07217,-0.125h0.14434l0.07217,0.125l-0.07217,0.125M1.28349,1.875l-0.07217,-0.125l0.07217,-0.125h0.14434l0.07217,0.125l-0.07217,0.125M1.28349,2.125l-0.07217,-0.125l0.07217,-0.125h0.14434l0.07217,0.125l-0.07217,0.125M1.28349,2.375l-0.07217,-0.125l0.07217,-0.125h0.14434l0.07217,0.125l-0.07217,0.125M1.28349,2.625l-0.07217,-0.125l0.07217,-0.125h0.14434l0.07217,0.125l-0.07217,0.125M1.28349,2.875l-0.07217,-0.125l0.07217,-0.125h0.14434l0.07217,0.125l-0.07217,0.125M1.28349,2.875h0.14434l0.07217,0.125h-0.28868zM1.5,0.25l-0.07217,-0.125l0.07217,-0.125h0.14434l0.07217,0.125l-0.07217,0.125M1.5,0.5l-0.07217,-0.125l0.07217,-0.125h0.14434l0.07217,0.125l-0.07217,0.125M1.5,0.75l-0.07217,-0.125l0.07217,-0.125h0.14434l0.07217,0.125l-0.07217,0.125M1.5,1l-0.07217,-0.125l0.07217,-0.125h0.14434l0.07217,0.125l-0.07217,0.125M1.5,1.25l-0.07217,-0.125l0.07217,-0.125h0.14434l0.07217,0.125l-0.07217,0.125M1.5,1.5l-0.07217,-0.125l0.07217,-0.125h0.14434l0.07217,0.125l-0.07217,0.125M1.5,1.75l-0.07217,-0.125l0.07217,-0.125h0.14434l0.07217,0.125l-0.07217,0.125M1.5,2l-0.07217,-0.125l0.07217,-0.125h0.14434l0.07217,0.125l-0.07217,0.125M1.5,2.25l-0.07217,-0.125l0.07217,-0.125h0.14434l0.07217,0.125l-0.07217,0.125M1.5,2.5l-0.07217,-0.125l0.07217,-0.125h0.14434l0.07217,0.125l-0.07217,0.125M1.5,2.75l-0.07217,-0.125l0.07217,-0.125h0.14434l0.07217,0.125l-0.07217,0.125M1.5,3l-0.07217,-0.125l0.07217,-0.125h0.14434l0.07217,0.125l-0.07217,0.125M1.71651,0.125l-0.07217,-0.125h0.28868l-0.07217,0.125M1.71651,0.375l-0.07217,-0.125l0.07217,-0.125h0.14434l0.07217,0.125l-0.07217,0.125M1.71651,0.625l-0.07217,-0.125l0.07217,-0.125h0.14434l0.07217,0.125l-0.07217,0.125M1.71651,0.875l-0.07217,-0.125l0.07217,-0.125h0.14434l0.07217,0.125l-0.07217,0.125M1.71651,1.125l-0.07217,-0.125l0.07217,-0.125h0.14434l0.07217,0.125l-0.07217,0.125M1.71651,1.375l-0.07217,-0.125l0.07217,-0.125h0.14434l0.07217,0.125l-0.07217,0.125M1.71651,1.625l-0.07217,-0.125l0.07217,-0.125h0.14434l0.07217,0.125l-0.07217,0.125M1.71651,1.875l-0.07217,-0.125l0.07217,-0.125h0.14434l0.07217,0.125l-0.07217,0.125M1.71651,2.125l-0.07217,-0.125l0.07217,-0.125h0.14434l0.07217,0.125l-0.07217,0.125M1.71651,2.375l-0.07217,-0.125l0.07217,-0.125h0.14434l0.07217,0.125l-0.07217,0.125M1.71651,2.625l-0.07217,-0.125l0.07217,-0.125h0.14434l0.07217,0.125l-0.07217,0.125M1.71651,2.875l-0.07217,-0.125l0.07217,-0.125h0.14434l0.07217,0.125l-0.07217,0.125M1.71651,2.875h0.14434l0.07217,0.125h-0.28868zM1.93301,0.25l-0.07217,-0.125l0.07217,-0.125h0.14434l0.07217,0.125l-0.07217,0.125M1.93301,0.5l-0.07217,-0.125l0.07217,-0.125h0.14434l0.07217,0.125l-0.07217,0.125M1.93301,0.75l-0.07217,-0.125l0.07217,-0.125h0.14434l0.07217,0.125l-0.07217,0.125M1.93301,1l-0.07217,-0.125l0.07217,-0.125h0.14434l0.07217,0.125l-0.07217,0.125M1.93301,1.25l-0.07217,-0.125l0.07217,-0.125h0.14434l0.07217,0.125l-0.07217,0.125M1.93301,1.5l-0.07217,-0.125l0.07217,-0.125h0.14434l0.07217,0.125l-0.07217,0.125M1.93301,1.75l-0.07217,-0.125l0.07217,-0.125h0.14434l0.07217,0.125l-0.07217,0.125M1.93301,2l-0.07217,-0.125l0.07217,-0.125h0.14434l0.07217,0.125l-0.07217,0.125M1.93301,2.25l-0.07217,-0.125l0.07217,-0.125h0.14434l0.07217,0.125l-0.07217,0.125M1.93301,2.5l-0.07217,-0.125l0.07217,-0.125h0.14434l0.07217,0.125l-0.07217,0.125M1.93301,2.75l-0.07217,-0.125l0.07217,-0.125h0.14434l0.07217,0.125l-0.07217,0.125M1.93301,3l-0.07217,-0.125l0.07217,-0.125h0.14434l0.07217,0.125l-0.07217,0.125M2.14952,0.125l-0.07217,-0.125h0.28868l-0.07217,0.125M2.14952,0.375l-0.07217,-0.125l0.07217,-0.125h0.14434l0.07217,0.125l-0.07217,0.125M2.14952,0.625l-0.07217,-0.125l0.07217,-0.125h0.14434l0.07217,0.125l-0.07217,0.125M2.14952,0.875l-0.07217,-0.125l0.07217,-0.125h0.14434l0.07217,0.125l-0.07217,0.125M2.14952,1.125l-0.07217,-0.125l0.07217,-0.125h0.14434l0.07217,0.125l-0.07217,0.125M2.14952,1.375l-0.07217,-0.125l0.07217,-0.125h0.14434l0.07217,0.125l-0.07217,0.125M2.14952,1.625l-0.07217,-0.125l0.07217,-0.125h0.14434l0.07217,0.125l-0.07217,0.125M2.14952,1.875l-0.07217,-0.125l0.07217,-0.125h0.14434l0.07217,0.125l-0.07217,0.125M2.14952,2.125l-0.07217,-0.125l0.07217,-0.125h0.14434l0.07217,0.125l-0.07217,0.125M2.14952,2.375l-0.07217,-0.125l0.07217,-0.125h0.14434l0.07217,0.125l-0.07217,0.125M2.14952,2.625l-0.07217,-0.125l0.07217,-0.125h0.14434l0.07217,0.125l-0.07217,0.125M2.14952,2.875l-0.07217,-0.125l0.07217,-0.125h0.14434l0.07217,0.125l-0.07217,0.125M2.14952,2.875h0.14434l0.07217,0.125h-0.28868zM2.36603,0.25l-0.07217,-0.125l0.07217,-0.125h0.14434l0.07217,0.125l-0.07217,0.125M2.36603,0.5l-0.07217,-0.125l0.07217,-0.125h0.14434l0.07217,0.125l-0.07217,0.125M2.36603,0.75l-0.07217,-0.125l0.07217,-0.125h0.14434l0.07217,0.125l-0.07217,0.125M2.36603,1l-0.07217,-0.125l0.07217,-0.125h0.14434l0.07217,0.125l-0.07217,0.125M2.36603,1.25l-0.07217,-0.125l0.07217,-0.125h0.14434l0.07217,0.125l-0.07217,0.125M2.36603,1.5l-0.07217,-0.125l0.07217,-0.125h0.14434l0.07217,0.125l-0.07217,0.125M2.36603,1.75l-0.07217,-0.125l0.07217,-0.125h0.14434l0.07217,0.125l-0.07217,0.125M2.36603,2l-0.07217,-0.125l0.07217,-0.125h0.14434l0.07217,0.125l-0.07217,0.125M2.36603,2.25l-0.07217,-0.125l0.07217,-0.125h0.14434l0.07217,0.125l-0.07217,0.125M2.36603,2.5l-0.07217,-0.125l0.07217,-0.125h0.14434l0.07217,0.125l-0.07217,0.125M2.36603,2.75l-0.07217,-0.125l0.07217,-0.125h0.14434l0.07217,0.125l-0.07217,0.125M2.36603,3l-0.07217,-0.125l0.07217,-0.125h0.14434l0.07217,0.125l-0.07217,0.125M2.58253,0.125l-0.07217,-0.125h0.28868l-0.07217,0.125M2.58253,0.375l-0.07217,-0.125l0.07217,-0.125h0.14434l0.07217,0.125l-0.07217,0.125M2.58253,0.625l-0.07217,-0.125l0.07217,-0.125h0.14434l0.07217,0.125l-0.07217,0.125M2.58253,0.875l-0.07217,-0.125l0.07217,-0.125h0.14434l0.07217,0.125l-0.07217,0.125M2.58253,1.125l-0.07217,-0.125l0.07217,-0.125h0.14434l0.07217,0.125l-0.07217,0.125M2.58253,1.375l-0.07217,-0.125l0.07217,-0.125h0.14434l0.07217,0.125l-0.07217,0.125M2.58253,1.625l-0.07217,-0.125l0.07217,-0.125h0.14434l0.07217,0.125l-0.07217,0.125M2.58253,1.875l-0.07217,-0.125l0.07217,-0.125h0.14434l0.07217,0.125l-0.07217,0.125M2.58253,2.125l-0.07217,-0.125l0.07217,-0.125h0.14434l0.07217,0.125l-0.07217,0.125M2.58253,2.375l-0.07217,-0.125l0.07217,-0.125h0.14434l0.07217,0.125l-0.07217,0.125M2.58253,2.625l-0.07217,-0.125l0.07217,-0.125h0.14434l0.07217,0.125l-0.07217,0.125M2.58253,2.875l-0.07217,-0.125l0.07217,-0.125h0.14434l0.07217,0.125l-0.07217,0.125M2.58253,2.875h0.14434l0.07217,0.125h-0.28868zM2.79904,0.25l-0.07217,-0.125l0.07217,-0.125h0.14434l0.05662,0.09808v0.05385l-0.05662,0.09808M2.79904,0.5l-0.07217,-0.125l0.07217,-0.125h0.14434l0.05662,0.09808v0.05385l-0.05662,0.09808M2.79904,0.75l-0.07217,-0.125l0.07217,-0.125h0.14434l0.05662,0.09808v0.05385l-0.05662,0.09808M2.79904,1l-0.07217,-0.125l0.07217,-0.125h0.14434l0.05662,0.09808v0.05385l-0.05662,0.09808M2.79904,1.25l-0.07217,-0.125l0.07217,-0.125h0.14434l0.05662,0.09808v0.05385l-0.05662,0.09808M2.79904,1.5l-0.07217,-0.125l0.07217,-0.125h0.14434l0.05662,0.09808v0.05385l-0.05662,0.09808M2.79904,1.75l-0.07217,-0.125l0.07217,-0.125h0.14434l0.05662,0.09808v0.05385l-0.05662,0.09808M2.79904,2l-0.07217,-0.125l0.07217,-0.125h0.14434l0.05662,0.09808v0.05385l-0.05662,0.09808M2.79904,2.25l-0.07217,-0.125l0.07217,-0.125h0.14434l0.05662,0.09808v0.05385l-0.05662,0.09808M2.79904,2.5l-0.07217,-0.125l0.07217,-0.125h0.14434l0.05662,0.09808v0.05385l-0.05662,0.09808M2.79904,2.75l-0.07217,-0.125l0.07217,-0.125h0.14434l0.05662,0.09808v0.05385l-0.05662,0.09808M2.79904,3l-0.07217,-0.125l0.07217,-0.125h0.14434l0.05662,0.09808v0.05385l-0.05662,0.09808M3,0l0,0.09808l-0.05662,-0.09808zM2.94338,0.25l0.05662,-0.09808l0,0.19615zM2.94338,0.5l0.05662,-0.09808l0,0.19615zM2.94338,0.75l0.05662,-0.09808l0,0.19615zM2.94338,1l0.05662,-0.09808l0,0.19615zM2.94338,1.25l0.05662,-0.09808l0,0.19615zM2.94338,1.5l0.05662,-0.09808l0,0.19615zM2.94338,1.75l0.05662,-0.09808l0,0.19615zM2.94338,2l0.05662,-0.09808l0,0.19615zM2.94338,2.25l0.05662,-0.09808l0,0.19615zM2.94338,2.5l0.05662,-0.09808l0,0.19615zM2.94338,2.75l0.05662,-0.09808l0,0.19615zM3,3h-0.05662l0.05662,-0.09808z" fill="#d3d3d3" fill-rule="evenodd" stroke="#ff0000" stroke-width="0.005"></path></g></svg>