<svg version="1.1" xmlns="http://www.w3.org/2000/svg" xmlns:xlink="http://www.w3.org/1999/xlink" width="3in" height="3in" viewBox="0 0 3.05 3.05"><g fill="#d3d3d3" fill-rule="evenodd" stroke="#ff0000" stroke-width="0.005" stroke-linecap="butt" stroke-linejoin="miter" stroke-miterlimit="10" stroke-dasharray="" stroke-dashoffset="0" font-family="none" font-weight="none" font-size="none" text-anchor="none" style="mix-blend-mode: normal"><path d="M0,3v-3h3v3zM0.65875,0.3525l0.33125,-0.1275l0.33125,0.1275v0.255l-0.33125,0.1275l-0.33125,-0.1275zM1.42375,0.3525l0.33125,-0.1275l0.33125,0.1275v0.255l-0.33125,0.1275l-0.33125,-0.1275zM0.27625,0.8625l0.33125,-0.1275l0.33125,0.1275v0.255l-0.33125,0.1275l-0.33125,-0.1275zM1.04125,0.8625l0.33125,-0.1275l0.33125,0.1275v0.255l-0.33125,0.1275l-0.33125,-0.1275zM1.80625,0.8625l0.33125,-0.1275l0.33125,0.1275v0.255l-0.33125,0.1275l-0.33125,-0.1275zM0.65875,1.3725l0.33125,-0.1275l0.33125,0.1275v0.255l-0.33125,0.1275l-0.33125,-0.1275zM1.42375,1.3725l0.33125,-0.1275l0.33125,0.1275v0.255l-0.33125,0.1275l-0.33125,-0.1275zM0.27625,1.8825l0.33125,-0.1275l0.33125,0.1275v0.255l-0.33125,0.1275l-0.33125,-0.1275zM1.04125,1.8825l0.33125,-0.1275l0.33125,0.1275v0.255l-0.33125,0.1275l-0.33125,-0.1275zM1.80625,1.8825l0.33125,-0.1275l0.33125,0.1275v0.255l-0.33125,0.1275l-0.33125,-0.1275zM0.65875,2.3925l0.33125,-0.1275l0.33125,0.1275v0.255l-0.33125,0.1275l-0.33125,-0.1275zM1.42375,2.3925l0.33125,-0.1275l0.33125,0.1275v0.255l-0.33125,0.1275l-0.33125,-0.1275z"></path></g></svg>