<svg version="1.1" xmlns="http://www.w3.org/2000/svg" xmlns:xlink="http://www.w3.org/1999/xlink" width="3in" height="3in" viewBox="0 0 3.05 3.05"><g fill="#d3d3d3" fill-rule="evenodd" stroke="#ff0000" stroke-width="0.005" stroke-linecap="butt" stroke-linejoin="miter" stroke-miterlimit="10" stroke-dasharray="" stroke-dashoffset="0" font-family="none" font-weight="none" font-size="none" text-anchor="none" style="mix-blend-mode: normal"><path d="M0,3v-3h3v3zM0.57,0.864c0,0.0722 -0.0024,0.0784 -0.048,0.124l-0.024,0.024c-0.0456,0.0456 -0.0506,0.0454 -0.1,-0.004l-0.026,-0.026c-0.0494,-0.0494 -0.052,-0.0554 -0.052,-0.12v-0.034c0,-0.0646 0.0026,-0.0708 0.052,-0.124l0.026,-0.028c0.0494,-0.0532 0.0544,-0.0534 0.1,-0.004l0.024,0.026c0.0456,0.0494 0.048,0.0558 0.048,0.128zM0.434,1.6c-0.0418,0 -0.044,-0.004 -0.044,-0.08v-0.04c0,-0.076 0.0022,-0.08 0.044,-0.08h0.022c0.0418,0 0.044,0.004 0.044,0.08v0.04c0,0.076 -0.0022,0.08 -0.044,0.08zM0.358,1.226c-0.0266,0.0608 -0.03,0.0624 -0.068,0.032l-0.02,-0.016c-0.038,-0.0304 -0.0386,-0.0358 -0.012,-0.108l0.014,-0.038c0.0266,-0.0722 0.03,-0.0738 0.068,-0.032l0.02,0.022c0.038,0.0418 0.0386,0.0472 0.012,0.108zM0.6,1.264c-0.038,0.0342 -0.0412,0.0326 -0.064,-0.032l-0.012,-0.034c-0.0228,-0.0646 -0.022,-0.0702 0.016,-0.112l0.02,-0.022c0.038,-0.0418 0.0412,-0.0402 0.064,0.032l0.012,0.038c0.0228,0.0722 0.022,0.0778 -0.016,0.112zM0.624,0.59c-0.0228,0.076 -0.026,0.0778 -0.064,0.036l-0.02,-0.022c-0.038,-0.0418 -0.0388,-0.0474 -0.016,-0.112l0.012,-0.034c0.0228,-0.0646 0.026,-0.0664 0.064,-0.036l0.02,0.016c0.038,0.0304 0.0388,0.036 0.016,0.112zM0.34,0.62c-0.038,0.038 -0.0414,0.0362 -0.068,-0.036l-0.014,-0.038c-0.0266,-0.0722 -0.026,-0.0776 0.012,-0.108l0.02,-0.016c0.038,-0.0304 0.0414,-0.0286 0.068,0.036l0.014,0.034c0.0266,0.0646 0.026,0.07 -0.012,0.108zM0.444,1.32c-0.0228,0 -0.0234,-0.0016 -0.012,-0.032l0.006,-0.016c0.0114,-0.0304 0.0126,-0.0304 0.024,0l0.006,0.016c0.0114,0.0304 0.0108,0.032 -0.012,0.032zM0.426,0.396c-0.0152,-0.0342 -0.0144,-0.036 0.016,-0.036h0.016c0.0304,0 0.0312,0.0018 0.016,0.036l-0.008,0.018c-0.0152,0.0342 -0.0168,0.0342 -0.032,0zM0.57,2.174c0,0.0722 -0.0024,0.0786 -0.048,0.128l-0.024,0.026c-0.0456,0.0494 -0.0506,0.0492 -0.1,-0.004l-0.026,-0.028c-0.0494,-0.0532 -0.052,-0.0594 -0.052,-0.124v-0.034c0,-0.0646 0.0026,-0.0706 0.052,-0.12l0.026,-0.026c0.0494,-0.0494 0.0544,-0.0496 0.1,-0.004l0.024,0.024c0.0456,0.0456 0.048,0.0518 0.048,0.124zM0.358,2.54016c-0.0266,0.06635 -0.03,0.06824 -0.068,0.03784l-0.02,-0.016c-0.038,-0.0304 -0.0386,-0.0358 -0.012,-0.108l0.014,-0.038c0.0266,-0.0722 0.03,-0.07409 0.068,-0.03784l0.02,0.01908c0.038,0.03625 0.0386,0.04165 0.012,0.108zM0.6,2.578c-0.038,0.0304 -0.0412,0.02851 -0.064,-0.03784l-0.012,-0.03492c-0.0228,-0.06635 -0.022,-0.07195 0.016,-0.112l0.02,-0.02108c0.038,-0.04005 0.0412,-0.03816 0.064,0.03784l0.012,0.04c0.0228,0.076 0.022,0.0816 -0.016,0.112zM0.624,1.904c-0.0228,0.0722 -0.026,0.0738 -0.064,0.032l-0.02,-0.022c-0.038,-0.0418 -0.0388,-0.0474 -0.016,-0.112l0.012,-0.034c0.0228,-0.0646 0.026,-0.0662 0.064,-0.032l0.02,0.018c0.038,0.0342 0.0388,0.0398 0.016,0.112zM0.34,1.936c-0.038,0.0418 -0.0414,0.0402 -0.068,-0.032l-0.014,-0.038c-0.0266,-0.0722 -0.026,-0.0776 0.012,-0.108l0.02,-0.016c0.038,-0.0304 0.0414,-0.0288 0.068,0.032l0.014,0.032c0.0266,0.0608 0.026,0.0662 -0.012,0.108zM0.442,2.64c-0.0304,0 -0.0312,-0.0018 -0.016,-0.036l0.008,-0.018c0.0152,-0.0342 0.0168,-0.0342 0.032,0l0.008,0.018c0.0152,0.0342 0.0144,0.036 -0.016,0.036zM0.426,1.712c-0.0152,-0.0304 -0.0144,-0.032 0.016,-0.032h0.016c0.0304,0 0.0312,0.0016 0.016,0.032l-0.008,0.016c-0.0152,0.0304 -0.0168,0.0304 -0.032,0zM1.1,0.862c0,0.0646 -0.0026,0.0706 -0.052,0.12l-0.026,0.026c-0.0494,0.0494 -0.0544,0.0494 -0.1,0l-0.024,-0.026c-0.0456,-0.0494 -0.048,-0.0554 -0.048,-0.12v-0.034c0,-0.0646 0.0024,-0.0708 0.048,-0.124l0.024,-0.028c0.0456,-0.0532 0.0506,-0.0532 0.1,0l0.026,0.028c0.0494,0.0532 0.052,0.0594 0.052,0.124zM0.964,1.6c-0.0418,0 -0.044,-0.004 -0.044,-0.08v-0.04c0,-0.076 0.0022,-0.08 0.044,-0.08h0.022c0.0418,0 0.044,0.004 0.044,0.08v0.04c0,0.076 -0.0022,0.08 -0.044,0.08zM0.698,0.9c-0.0456,0 -0.048,-0.0024 -0.048,-0.048v-0.024c0,-0.0456 0.0024,-0.048 0.048,-0.048h0.024c0.0456,0 0.048,0.0024 0.048,0.048v0.024c0,0.0456 -0.0024,0.048 -0.048,0.048zM1.224,0.9c-0.0418,0 -0.044,-0.0024 -0.044,-0.048v-0.024c0,-0.0456 0.0022,-0.048 0.044,-0.048h0.022c0.0418,0 0.044,0.0024 0.044,0.048v0.024c0,0.0456 -0.0022,0.048 -0.044,0.048zM0.888,1.236c-0.0266,0.0608 -0.03,0.0622 -0.068,0.028l-0.02,-0.018c-0.038,-0.0342 -0.0386,-0.0398 -0.012,-0.112l0.014,-0.038c0.0266,-0.0722 0.03,-0.0736 0.068,-0.028l0.02,0.024c0.038,0.0456 0.0386,0.0512 0.012,0.112zM1.13,1.258c-0.038,0.0304 -0.0414,0.0288 -0.068,-0.032l-0.014,-0.032c-0.0266,-0.0608 -0.026,-0.0662 0.012,-0.108l0.02,-0.022c0.038,-0.0418 0.0414,-0.0402 0.068,0.032l0.014,0.038c0.0266,0.0722 0.026,0.0776 -0.012,0.108zM1.148,0.584c-0.0266,0.0722 -0.03,0.074 -0.068,0.036l-0.02,-0.02c-0.038,-0.038 -0.0386,-0.0434 -0.012,-0.108l0.014,-0.034c0.0266,-0.0646 0.03,-0.0664 0.068,-0.036l0.02,0.016c0.038,0.0304 0.0386,0.0358 0.012,0.108zM0.87,0.616c-0.038,0.0418 -0.0414,0.0402 -0.068,-0.032l-0.014,-0.038c-0.0266,-0.0722 -0.026,-0.0776 0.012,-0.108l0.02,-0.016c0.038,-0.0304 0.0414,-0.0288 0.068,0.032l0.014,0.032c0.0266,0.0608 0.026,0.0662 -0.012,0.108zM0.968,1.32c-0.0266,0 -0.0274,-0.0018 -0.016,-0.036l0.006,-0.018c0.0114,-0.0342 0.0128,-0.0342 0.028,0l0.008,0.018c0.0152,0.0342 0.0146,0.036 -0.012,0.036zM0.946,0.4c-0.0152,-0.038 -0.0144,-0.04 0.016,-0.04h0.016c0.0304,0 0.0312,0.002 0.016,0.04l-0.008,0.02c-0.0152,0.038 -0.0168,0.038 -0.032,0zM0.686,1.028c-0.0152,-0.0456 -0.0144,-0.048 0.016,-0.048h0.016c0.0304,0 0.0312,0.0024 0.016,0.048l-0.008,0.024c-0.0152,0.0456 -0.0168,0.0456 -0.032,0zM1.216,1.032c-0.0152,-0.0494 -0.0144,-0.052 0.016,-0.052h0.016c0.0304,0 0.0312,0.0026 0.016,0.052l-0.008,0.026c-0.0152,0.0494 -0.0168,0.0494 -0.032,0zM1.232,0.7c-0.0304,0 -0.0312,-0.0024 -0.016,-0.048l0.008,-0.024c0.0152,-0.0456 0.0168,-0.0456 0.032,0l0.008,0.024c0.0152,0.0456 0.0144,0.048 -0.016,0.048zM0.702,0.7c-0.0304,0 -0.0312,-0.0022 -0.016,-0.044l0.008,-0.022c0.0152,-0.0418 0.0168,-0.0418 0.032,0l0.008,0.022c0.0152,0.0418 0.0144,0.044 -0.016,0.044zM0.84,1.524c0,0.0912 -0.0026,0.0982 -0.052,0.14l-0.026,0.022c-0.0494,0.0418 -0.0546,0.0418 -0.104,0l-0.026,-0.022c-0.0494,-0.0418 -0.052,-0.0488 -0.052,-0.14v-0.048c0,-0.0912 0.0026,-0.0982 0.052,-0.14l0.026,-0.022c0.0494,-0.0418 0.0546,-0.0418 0.104,0l0.026,0.022c0.0494,0.0418 0.052,0.0488 0.052,0.14zM1.36,1.526c0,0.0988 -0.0024,0.106 -0.048,0.144l-0.024,0.02c-0.0456,0.038 -0.0506,0.0378 -0.1,-0.004l-0.026,-0.022c-0.0494,-0.0418 -0.052,-0.0488 -0.052,-0.14v-0.048c0,-0.0912 0.0026,-0.0982 0.052,-0.14l0.026,-0.022c0.0494,-0.0418 0.0544,-0.042 0.1,-0.004l0.024,0.02c0.0456,0.038 0.048,0.0452 0.048,0.144zM1.1,2.172c0,0.0646 -0.0026,0.0708 -0.052,0.124l-0.026,0.028c-0.0494,0.0532 -0.0544,0.0532 -0.1,0l-0.024,-0.028c-0.0456,-0.0532 -0.048,-0.0594 -0.048,-0.124v-0.034c0,-0.0646 0.0024,-0.0706 0.048,-0.12l0.024,-0.026c0.0456,-0.0494 0.0506,-0.0494 0.1,0l0.026,0.026c0.0494,0.0494 0.052,0.0554 0.052,0.12zM0.698,2.22c-0.0456,0 -0.048,-0.0024 -0.048,-0.048v-0.024c0,-0.0456 0.0024,-0.048 0.048,-0.048h0.024c0.0456,0 0.048,0.0024 0.048,0.048v0.024c0,0.0456 -0.0024,0.048 -0.048,0.048zM1.224,2.22c-0.0418,0 -0.044,-0.0024 -0.044,-0.048v-0.024c0,-0.0456 0.0022,-0.048 0.044,-0.048h0.022c0.0418,0 0.044,0.0024 0.044,0.048v0.024c0,0.0456 -0.0022,0.048 -0.044,0.048zM0.888,2.546c-0.0266,0.0608 -0.03,0.0624 -0.068,0.032l-0.02,-0.016c-0.038,-0.0304 -0.0386,-0.0358 -0.012,-0.108l0.014,-0.038c0.0266,-0.0722 0.03,-0.0738 0.068,-0.032l0.02,0.022c0.038,0.0418 0.0386,0.0472 0.012,0.108zM1.13,2.578c-0.038,0.0304 -0.0414,0.02851 -0.068,-0.03784l-0.014,-0.03492c-0.0266,-0.06635 -0.026,-0.07175 0.012,-0.108l0.02,-0.01908c0.038,-0.03625 0.0414,-0.03436 0.068,0.03784l0.014,0.038c0.0266,0.0722 0.026,0.0776 -0.012,0.108zM1.148,1.904c-0.0266,0.0722 -0.03,0.0738 -0.068,0.032l-0.02,-0.022c-0.038,-0.0418 -0.0386,-0.0472 -0.012,-0.108l0.014,-0.032c0.0266,-0.0608 0.03,-0.0624 0.068,-0.032l0.02,0.016c0.038,0.0304 0.0386,0.0358 0.012,0.108zM0.87,1.932c-0.038,0.0456 -0.0414,0.0442 -0.068,-0.028l-0.014,-0.038c-0.0266,-0.0722 -0.026,-0.0778 0.012,-0.112l0.02,-0.018c0.038,-0.0342 0.0414,-0.0328 0.068,0.028l0.014,0.032c0.0266,0.0608 0.026,0.0664 -0.012,0.112zM0.962,2.64c-0.0304,0 -0.0312,-0.002 -0.016,-0.04l0.008,-0.02c0.0152,-0.038 0.0168,-0.038 0.032,0l0.008,0.02c0.0152,0.038 0.0144,0.04 -0.016,0.04zM0.946,1.716c-0.0152,-0.0342 -0.0144,-0.036 0.016,-0.036h0.016c0.0304,0 0.0312,0.0018 0.016,0.036l-0.008,0.018c-0.0152,0.0342 -0.0168,0.0342 -0.032,0zM0.686,2.344c-0.0152,-0.0418 -0.0144,-0.044 0.016,-0.044h0.016c0.0304,0 0.0312,0.0022 0.016,0.044l-0.008,0.022c-0.0152,0.0418 -0.0168,0.0418 -0.032,0zM1.216,2.348c-0.0152,-0.0456 -0.0144,-0.048 0.016,-0.048h0.016c0.0304,0 0.0312,0.0024 0.016,0.048l-0.008,0.024c-0.0152,0.0456 -0.0168,0.0456 -0.032,0zM1.232,2.02c-0.0304,0 -0.0312,-0.0026 -0.016,-0.052l0.008,-0.026c0.0152,-0.0494 0.0168,-0.0494 0.032,0l0.008,0.026c0.0152,0.0494 0.0144,0.052 -0.016,0.052zM0.702,2.02c-0.0304,0 -0.0312,-0.0024 -0.016,-0.048l0.008,-0.024c0.0152,-0.0456 0.0168,-0.0456 0.032,0l0.008,0.024c0.0152,0.0456 0.0144,0.048 -0.016,0.048zM1.63,0.862c0,0.0646 -0.0026,0.0706 -0.052,0.12l-0.026,0.026c-0.0494,0.0494 -0.0546,0.0494 -0.104,0l-0.026,-0.026c-0.0494,-0.0494 -0.052,-0.0554 -0.052,-0.12v-0.034c0,-0.0646 0.0026,-0.0708 0.052,-0.124l0.026,-0.028c0.0494,-0.0532 0.0546,-0.0532 0.104,0l0.026,0.028c0.0494,0.0532 0.052,0.0594 0.052,0.124zM1.488,1.6c-0.0456,0 -0.048,-0.004 -0.048,-0.08v-0.04c0,-0.076 0.0024,-0.08 0.048,-0.08h0.024c0.0456,0 0.048,0.004 0.048,0.08v0.04c0,0.076 -0.0024,0.08 -0.048,0.08zM1.414,1.232c-0.0228,0.0646 -0.0262,0.0662 -0.068,0.032l-0.022,-0.018c-0.0418,-0.0342 -0.0426,-0.0398 -0.016,-0.112l0.014,-0.038c0.0266,-0.0722 0.03,-0.0738 0.068,-0.032l0.02,0.022c0.038,0.0418 0.0388,0.0474 0.016,0.112zM1.654,1.264c-0.0418,0.0342 -0.0452,0.0326 -0.068,-0.032l-0.012,-0.034c-0.0228,-0.0646 -0.022,-0.0702 0.016,-0.112l0.02,-0.022c0.038,-0.0418 0.0414,-0.0402 0.068,0.032l0.014,0.038c0.0266,0.0722 0.0258,0.0778 -0.016,0.112zM1.678,0.584c-0.0266,0.0722 -0.03,0.074 -0.068,0.036l-0.02,-0.02c-0.038,-0.038 -0.0388,-0.0434 -0.016,-0.108l0.012,-0.034c0.0228,-0.0646 0.0262,-0.0664 0.068,-0.036l0.022,0.016c0.0418,0.0304 0.0426,0.0358 0.016,0.108zM1.39,0.62c-0.038,0.038 -0.0414,0.0362 -0.068,-0.036l-0.014,-0.038c-0.0266,-0.0722 -0.0258,-0.0776 0.016,-0.108l0.022,-0.016c0.0418,-0.0304 0.0452,-0.0286 0.068,0.036l0.012,0.034c0.0228,0.0646 0.022,0.07 -0.016,0.108zM1.494,1.32c-0.0228,0 -0.0234,-0.0016 -0.012,-0.032l0.006,-0.016c0.0114,-0.0304 0.0126,-0.0304 0.024,0l0.006,0.016c0.0114,0.0304 0.0108,0.032 -0.012,0.032zM1.476,0.396c-0.0152,-0.0342 -0.0144,-0.036 0.016,-0.036h0.016c0.0304,0 0.0312,0.0018 0.016,0.036l-0.008,0.018c-0.0152,0.0342 -0.0168,0.0342 -0.032,0zM1.63,2.172c0,0.0646 -0.0026,0.0708 -0.052,0.124l-0.026,0.028c-0.0494,0.0532 -0.0546,0.0532 -0.104,0l-0.026,-0.028c-0.0494,-0.0532 -0.052,-0.0594 -0.052,-0.124v-0.034c0,-0.0646 0.0026,-0.0706 0.052,-0.12l0.026,-0.026c0.0494,-0.0494 0.0546,-0.0494 0.104,0l0.026,0.026c0.0494,0.0494 0.052,0.0554 0.052,0.12zM1.414,2.54016c-0.0228,0.06635 -0.0262,0.06824 -0.068,0.03784l-0.022,-0.016c-0.0418,-0.0304 -0.0426,-0.0358 -0.016,-0.108l0.014,-0.038c0.0266,-0.0722 0.03,-0.07409 0.068,-0.03784l0.02,0.01908c0.038,0.03625 0.0388,0.04165 0.016,0.108zM1.654,2.578c-0.0418,0.0304 -0.0452,0.02851 -0.068,-0.03784l-0.012,-0.03492c-0.0228,-0.06635 -0.022,-0.07175 0.016,-0.108l0.02,-0.01908c0.038,-0.03625 0.0414,-0.03436 0.068,0.03784l0.014,0.038c0.0266,0.0722 0.0258,0.0776 -0.016,0.108zM1.678,1.904c-0.0266,0.0722 -0.03,0.0738 -0.068,0.032l-0.02,-0.022c-0.038,-0.0418 -0.0388,-0.0474 -0.016,-0.112l0.012,-0.034c0.0228,-0.0646 0.0262,-0.0662 0.068,-0.032l0.022,0.018c0.0418,0.0342 0.0426,0.0398 0.016,0.112zM1.39,1.936c-0.038,0.0418 -0.0414,0.0402 -0.068,-0.032l-0.014,-0.038c-0.0266,-0.0722 -0.0258,-0.0778 0.016,-0.112l0.022,-0.018c0.0418,-0.0342 0.0452,-0.0326 0.068,0.032l0.012,0.034c0.0228,0.0646 0.022,0.0702 -0.016,0.112zM1.492,2.64c-0.0304,0 -0.0312,-0.0018 -0.016,-0.036l0.008,-0.018c0.0152,-0.0342 0.0168,-0.0342 0.032,0l0.008,0.018c0.0152,0.0342 0.0144,0.036 -0.016,0.036zM1.476,1.712c-0.0152,-0.0304 -0.0144,-0.032 0.016,-0.032h0.016c0.0304,0 0.0312,0.0016 0.016,0.032l-0.008,0.016c-0.0152,0.0304 -0.0168,0.0304 -0.032,0zM2.15,0.862c0,0.0646 -0.0024,0.0706 -0.048,0.12l-0.024,0.026c-0.0456,0.0494 -0.0506,0.0494 -0.1,0l-0.026,-0.026c-0.0494,-0.0494 -0.052,-0.0554 -0.052,-0.12v-0.034c0,-0.0646 0.0026,-0.0708 0.052,-0.124l0.026,-0.028c0.0494,-0.0532 0.0544,-0.0532 0.1,0l0.024,0.028c0.0456,0.0532 0.048,0.0594 0.048,0.124zM2.014,1.6c-0.0418,0 -0.044,-0.004 -0.044,-0.08v-0.04c0,-0.076 0.0022,-0.08 0.044,-0.08h0.022c0.0418,0 0.044,0.004 0.044,0.08v0.04c0,0.076 -0.0022,0.08 -0.044,0.08zM1.754,0.9c-0.0418,0 -0.044,-0.0024 -0.044,-0.048v-0.024c0,-0.0456 0.0022,-0.048 0.044,-0.048h0.022c0.0418,0 0.044,0.0024 0.044,0.048v0.024c0,0.0456 -0.0022,0.048 -0.044,0.048zM2.278,0.9c-0.0456,0 -0.048,-0.0024 -0.048,-0.048v-0.024c0,-0.0456 0.0024,-0.048 0.048,-0.048h0.024c0.0456,0 0.048,0.0024 0.048,0.048v0.024c0,0.0456 -0.0024,0.048 -0.048,0.048zM1.938,1.226c-0.0266,0.0608 -0.03,0.0624 -0.068,0.032l-0.02,-0.016c-0.038,-0.0304 -0.0386,-0.0358 -0.012,-0.108l0.014,-0.038c0.0266,-0.0722 0.03,-0.0738 0.068,-0.032l0.02,0.022c0.038,0.0418 0.0386,0.0472 0.012,0.108zM2.18,1.264c-0.038,0.0342 -0.0414,0.0328 -0.068,-0.028l-0.014,-0.032c-0.0266,-0.0608 -0.026,-0.0664 0.012,-0.112l0.02,-0.024c0.038,-0.0456 0.0414,-0.0442 0.068,0.028l0.014,0.038c0.0266,0.0722 0.026,0.0778 -0.012,0.112zM2.198,0.584c-0.0266,0.0722 -0.03,0.0738 -0.068,0.032l-0.02,-0.022c-0.038,-0.0418 -0.0386,-0.0472 -0.012,-0.108l0.014,-0.032c0.0266,-0.0608 0.03,-0.0624 0.068,-0.032l0.02,0.016c0.038,0.0304 0.0386,0.0358 0.012,0.108zM1.92,0.62c-0.038,0.038 -0.0414,0.0362 -0.068,-0.036l-0.014,-0.038c-0.0266,-0.0722 -0.026,-0.0776 0.012,-0.108l0.02,-0.016c0.038,-0.0304 0.0414,-0.0286 0.068,0.036l0.014,0.034c0.0266,0.0646 0.026,0.07 -0.012,0.108zM2.018,1.32c-0.0266,0 -0.0272,-0.0018 -0.012,-0.036l0.008,-0.018c0.0152,-0.0342 0.0166,-0.0342 0.028,0l0.006,0.018c0.0114,0.0342 0.0106,0.036 -0.016,0.036zM2.006,0.4c-0.0152,-0.038 -0.0144,-0.04 0.016,-0.04h0.016c0.0304,0 0.0312,0.002 0.016,0.04l-0.008,0.02c-0.0152,0.038 -0.0168,0.038 -0.032,0zM1.736,1.032c-0.0152,-0.0494 -0.0144,-0.052 0.016,-0.052h0.016c0.0304,0 0.0312,0.0026 0.016,0.052l-0.008,0.026c-0.0152,0.0494 -0.0168,0.0494 -0.032,0zM2.266,1.028c-0.0152,-0.0456 -0.0144,-0.048 0.016,-0.048h0.016c0.0304,0 0.0312,0.0024 0.016,0.048l-0.008,0.024c-0.0152,0.0456 -0.0168,0.0456 -0.032,0zM2.282,0.7c-0.0304,0 -0.0312,-0.0022 -0.016,-0.044l0.008,-0.022c0.0152,-0.0418 0.0168,-0.0418 0.032,0l0.008,0.022c0.0152,0.0418 0.0144,0.044 -0.016,0.044zM1.752,0.7c-0.0304,0 -0.0312,-0.0024 -0.016,-0.048l0.008,-0.024c0.0152,-0.0456 0.0168,-0.0456 0.032,0l0.008,0.024c0.0152,0.0456 0.0144,0.048 -0.016,0.048zM1.89,1.524c0,0.0912 -0.0026,0.0982 -0.052,0.14l-0.026,0.022c-0.0494,0.0418 -0.0544,0.042 -0.1,0.004l-0.024,-0.02c-0.0456,-0.038 -0.048,-0.0452 -0.048,-0.144v-0.052c0,-0.0988 0.0024,-0.106 0.048,-0.144l0.024,-0.02c0.0456,-0.038 0.0506,-0.0378 0.1,0.004l0.026,0.022c0.0494,0.0418 0.052,0.0488 0.052,0.14zM2.42,1.524c0,0.0912 -0.0026,0.0982 -0.052,0.14l-0.026,0.022c-0.0494,0.0418 -0.0546,0.0418 -0.104,0l-0.026,-0.022c-0.0494,-0.0418 -0.052,-0.0488 -0.052,-0.14v-0.048c0,-0.0912 0.0026,-0.0982 0.052,-0.14l0.026,-0.022c0.0494,-0.0418 0.0546,-0.0418 0.104,0l0.026,0.022c0.0494,0.0418 0.052,0.0488 0.052,0.14zM2.15,2.172c0,0.0646 -0.0024,0.0708 -0.048,0.124l-0.024,0.028c-0.0456,0.0532 -0.0506,0.0532 -0.1,0l-0.026,-0.028c-0.0494,-0.0532 -0.052,-0.0594 -0.052,-0.124v-0.034c0,-0.0646 0.0026,-0.0706 0.052,-0.12l0.026,-0.026c0.0494,-0.0494 0.0544,-0.0494 0.1,0l0.024,0.026c0.0456,0.0494 0.048,0.0554 0.048,0.12zM1.754,2.22c-0.0418,0 -0.044,-0.0024 -0.044,-0.048v-0.024c0,-0.0456 0.0022,-0.048 0.044,-0.048h0.022c0.0418,0 0.044,0.0024 0.044,0.048v0.024c0,0.0456 -0.0022,0.048 -0.044,0.048zM2.278,2.22c-0.0456,0 -0.048,-0.0024 -0.048,-0.048v-0.024c0,-0.0456 0.0024,-0.048 0.048,-0.048h0.024c0.0456,0 0.048,0.0024 0.048,0.048v0.024c0,0.0456 -0.0024,0.048 -0.048,0.048zM1.938,2.54016c-0.0266,0.06635 -0.03,0.06824 -0.068,0.03784l-0.02,-0.016c-0.038,-0.0304 -0.0386,-0.0358 -0.012,-0.108l0.014,-0.038c0.0266,-0.0722 0.03,-0.07409 0.068,-0.03784l0.02,0.01908c0.038,0.03625 0.0386,0.04165 0.012,0.108zM2.18,2.578c-0.038,0.0304 -0.0414,0.0288 -0.068,-0.032l-0.014,-0.032c-0.0266,-0.0608 -0.026,-0.0662 0.012,-0.108l0.02,-0.022c0.038,-0.0418 0.0414,-0.0402 0.068,0.032l0.014,0.038c0.0266,0.0722 0.026,0.0776 -0.012,0.108zM2.198,1.904c-0.0266,0.0722 -0.03,0.0736 -0.068,0.028l-0.02,-0.024c-0.038,-0.0456 -0.0386,-0.0512 -0.012,-0.112l0.014,-0.032c0.0266,-0.0608 0.03,-0.0622 0.068,-0.028l0.02,0.018c0.038,0.0342 0.0386,0.0398 0.012,0.112zM1.92,1.936c-0.038,0.0418 -0.0414,0.0402 -0.068,-0.032l-0.014,-0.038c-0.0266,-0.0722 -0.026,-0.0776 0.012,-0.108l0.02,-0.016c0.038,-0.0304 0.0414,-0.0288 0.068,0.032l0.014,0.032c0.0266,0.0608 0.026,0.0662 -0.012,0.108zM2.022,2.64c-0.0304,0 -0.0312,-0.002 -0.016,-0.04l0.008,-0.02c0.0152,-0.038 0.0168,-0.038 0.032,0l0.008,0.02c0.0152,0.038 0.0144,0.04 -0.016,0.04zM2.006,1.716c-0.0152,-0.0342 -0.0144,-0.036 0.016,-0.036h0.016c0.0304,0 0.0312,0.0018 0.016,0.036l-0.008,0.018c-0.0152,0.0342 -0.0168,0.0342 -0.032,0zM1.736,2.348c-0.0152,-0.0456 -0.0144,-0.048 0.016,-0.048h0.016c0.0304,0 0.0312,0.0024 0.016,0.048l-0.008,0.024c-0.0152,0.0456 -0.0168,0.0456 -0.032,0zM2.266,2.344c-0.0152,-0.0418 -0.0144,-0.044 0.016,-0.044h0.016c0.0304,0 0.0312,0.0022 0.016,0.044l-0.008,0.022c-0.0152,0.0418 -0.0168,0.0418 -0.032,0zM2.282,2.02c-0.0304,0 -0.0312,-0.0024 -0.016,-0.048l0.008,-0.024c0.0152,-0.0456 0.0168,-0.0456 0.032,0l0.008,0.024c0.0152,0.0456 0.0144,0.048 -0.016,0.048zM1.752,2.02c-0.0304,0 -0.0312,-0.0026 -0.016,-0.052l0.008,-0.026c0.0152,-0.0494 0.0168,-0.0494 0.032,0l0.008,0.026c0.0152,0.0494 0.0144,0.052 -0.016,0.052zM2.68,0.862c0,0.0646 -0.0026,0.0706 -0.052,0.12l-0.026,0.026c-0.0494,0.0494 -0.0544,0.0496 -0.1,0.004l-0.024,-0.024c-0.0456,-0.0456 -0.048,-0.0518 -0.048,-0.124v-0.038c0,-0.0722 0.0024,-0.0786 0.048,-0.128l0.024,-0.026c0.0456,-0.0494 0.0506,-0.0492 0.1,0.004l0.026,0.028c0.0494,0.0532 0.052,0.0594 0.052,0.124zM2.544,1.6c-0.0418,0 -0.044,-0.004 -0.044,-0.08v-0.04c0,-0.076 0.0022,-0.08 0.044,-0.08h0.022c0.0418,0 0.044,0.004 0.044,0.08v0.04c0,0.076 -0.0022,0.08 -0.044,0.08zM2.464,1.232c-0.0228,0.0646 -0.026,0.0662 -0.064,0.032l-0.02,-0.018c-0.038,-0.0342 -0.0388,-0.0398 -0.016,-0.112l0.012,-0.038c0.0228,-0.0722 0.026,-0.0738 0.064,-0.032l0.02,0.022c0.038,0.0418 0.0388,0.0474 0.016,0.112zM2.71,1.258c-0.038,0.0304 -0.0414,0.0288 -0.068,-0.032l-0.014,-0.032c-0.0266,-0.0608 -0.026,-0.0662 0.012,-0.108l0.02,-0.022c0.038,-0.0418 0.0414,-0.0402 0.068,0.032l0.014,0.038c0.0266,0.0722 0.026,0.0776 -0.012,0.108zM2.728,0.584c-0.0266,0.0722 -0.03,0.074 -0.068,0.036l-0.02,-0.02c-0.038,-0.038 -0.0386,-0.0434 -0.012,-0.108l0.014,-0.034c0.0266,-0.0646 0.03,-0.0664 0.068,-0.036l0.02,0.016c0.038,0.0304 0.0386,0.0358 0.012,0.108zM2.44,0.626c-0.038,0.0418 -0.0412,0.04 -0.064,-0.036l-0.012,-0.04c-0.0228,-0.076 -0.022,-0.0816 0.016,-0.112l0.02,-0.016c0.038,-0.0304 0.0412,-0.0286 0.064,0.036l0.012,0.034c0.0228,0.0646 0.022,0.0702 -0.016,0.112zM2.544,1.32c-0.0228,0 -0.0234,-0.0016 -0.012,-0.032l0.006,-0.016c0.0114,-0.0304 0.0126,-0.0304 0.024,0l0.006,0.016c0.0114,0.0304 0.0108,0.032 -0.012,0.032zM2.526,0.396c-0.0152,-0.0342 -0.0144,-0.036 0.016,-0.036h0.016c0.0304,0 0.0312,0.0018 0.016,0.036l-0.008,0.018c-0.0152,0.0342 -0.0168,0.0342 -0.032,0zM2.68,2.172c0,0.0646 -0.0026,0.0708 -0.052,0.124l-0.026,0.028c-0.0494,0.0532 -0.0544,0.0534 -0.1,0.004l-0.024,-0.026c-0.0456,-0.0494 -0.048,-0.0558 -0.048,-0.128v-0.038c0,-0.0722 0.0024,-0.0784 0.048,-0.124l0.024,-0.024c0.0456,-0.0456 0.0506,-0.0454 0.1,0.004l0.026,0.026c0.0494,0.0494 0.052,0.0554 0.052,0.12zM2.464,2.54016c-0.0228,0.06635 -0.026,0.06824 -0.064,0.03784l-0.02,-0.016c-0.038,-0.0304 -0.0388,-0.036 -0.016,-0.112l0.012,-0.04c0.0228,-0.076 0.026,-0.07789 0.064,-0.03784l0.02,0.02108c0.038,0.04005 0.0388,0.04565 0.016,0.112zM2.71,2.578c-0.038,0.0304 -0.0414,0.02851 -0.068,-0.03784l-0.014,-0.03492c-0.0266,-0.06635 -0.026,-0.07175 0.012,-0.108l0.02,-0.01908c0.038,-0.03625 0.0414,-0.03436 0.068,0.03784l0.014,0.038c0.0266,0.0722 0.026,0.0776 -0.012,0.108zM2.728,1.904c-0.0266,0.0722 -0.03,0.0738 -0.068,0.032l-0.02,-0.022c-0.038,-0.0418 -0.0386,-0.0472 -0.012,-0.108l0.014,-0.032c0.0266,-0.0608 0.03,-0.0624 0.068,-0.032l0.02,0.016c0.038,0.0304 0.0386,0.0358 0.012,0.108zM2.44,1.936c-0.038,0.0418 -0.0412,0.0402 -0.064,-0.032l-0.012,-0.038c-0.0228,-0.0722 -0.022,-0.0778 0.016,-0.112l0.02,-0.018c0.038,-0.0342 0.0412,-0.0326 0.064,0.032l0.012,0.034c0.0228,0.0646 0.022,0.0702 -0.016,0.112zM2.542,2.64c-0.0304,0 -0.0312,-0.0018 -0.016,-0.036l0.008,-0.018c0.0152,-0.0342 0.0168,-0.0342 0.032,0l0.008,0.018c0.0152,0.0342 0.0144,0.036 -0.016,0.036zM2.526,1.712c-0.0152,-0.0304 -0.0144,-0.032 0.016,-0.032h0.016c0.0304,0 0.0312,0.0016 0.016,0.032l-0.008,0.016c-0.0152,0.0304 -0.0168,0.0304 -0.032,0z"></path></g></svg>