<svg version="1.1" xmlns="http://www.w3.org/2000/svg" xmlns:xlink="http://www.w3.org/1999/xlink" width="10.933685124596504in" height="3.775018828523162in" viewBox="-0.6718797719481394 -0.775018828523162 10.983685124596505 3.8250188285231617"><g fill="none" fill-rule="none" stroke="none" stroke-width="none" stroke-linecap="butt" stroke-linejoin="miter" stroke-miterlimit="10" stroke-dasharray="" stroke-dashoffset="0" font-family="none" font-weight="none" font-size="none" text-anchor="none" style="mix-blend-mode: normal"><path d="M0,3v-3h3v3z" fill="none" fill-rule="nonzero" stroke="none" stroke-width="1"></path><path d="M0.23339,0l1.27768,3" fill="none" fill-rule="nonzero" stroke="none" stroke-width="1"></path><path d="M1.6316,1.095c0,-0.46944 0.38056,-0.85 0.85,-0.85c0.46944,0 0.85,0.38056 0.85,0.85c0,0.46944 -0.38056,0.85 -0.85,0.85c-0.46944,0 -0.85,-0.38056 -0.85,-0.85z" fill="none" fill-rule="nonzero" stroke="none" stroke-width="1"></path><path d="M4.33653,1.49605c0,-0.46944 0.38056,-0.85 0.85,-0.85c0.46944,0 0.85,0.38056 0.85,0.85c0,0.46944 -0.38056,0.85 -0.85,0.85c-0.46944,0 -0.85,-0.38056 -0.85,-0.85z" fill="none" fill-rule="nonzero" stroke="none" stroke-width="1"></path><path d="M8.56181,0.7112c0,-0.46944 0.38056,-0.85 0.85,-0.85c0.46944,0 0.85,0.38056 0.85,0.85c0,0.46944 -0.38056,0.85 -0.85,0.85c-0.46944,0 -0.85,-0.38056 -0.85,-0.85z" fill="none" fill-rule="nonzero" stroke="none" stroke-width="1"></path><path d="M6.35805,0.90933c0,-0.46944 0.38056,-0.85 0.85,-0.85c0.46944,0 0.85,0.38056 0.85,0.85c0,0.46944 -0.38056,0.85 -0.85,0.85c-0.46944,0 -0.85,-0.38056 -0.85,-0.85z" fill="none" fill-rule="nonzero" stroke="none" stroke-width="1"></path><path d="M3.13588,0.31287c0,-0.46944 0.38056,-0.85 0.85,-0.85c0.46944,0 0.85,0.38056 0.85,0.85c0,0.46944 -0.38056,0.85 -0.85,0.85c-0.46944,0 -0.85,-0.38056 -0.85,-0.85z" fill="none" fill-rule="nonzero" stroke="none" stroke-width="1"></path><path d="M-0.67188,1.96443c0,-0.4653 0.3772,-0.8425 0.8425,-0.8425c0.4653,0 0.8425,0.3772 0.8425,0.8425c0,0.4653 -0.3772,0.8425 -0.8425,0.8425c-0.4653,0 -0.8425,-0.3772 -0.8425,-0.8425z" fill="none" fill-rule="nonzero" stroke="none" stroke-width="1"></path><path d="M0.22352,0.00327c0,-0.42984 0.34845,-0.77829 0.77829,-0.77829c0.42984,0 0.77829,0.34845 0.77829,0.77829c0,0.42984 -0.34845,0.77829 -0.77829,0.77829c-0.42984,0 -0.77829,-0.34845 -0.77829,-0.77829z" fill="none" fill-rule="nonzero" stroke="none" stroke-width="1"></path><path d="M4.87658,0.08719c0,-0.39402 0.31941,-0.71343 0.71343,-0.71343c0.39402,0 0.71343,0.31941 0.71343,0.71343c0,0.39402 -0.31941,0.71343 -0.71343,0.71343c-0.39402,0 -0.71343,-0.31941 -0.71343,-0.71343z" fill="none" fill-rule="nonzero" stroke="none" stroke-width="1"></path><path d="M7.64949,1.9473c0,-0.39402 0.31941,-0.71343 0.71343,-0.71343c0.39402,0 0.71343,0.31941 0.71343,0.71343c0,0.39402 -0.31941,0.71343 -0.71343,0.71343c-0.39402,0 -0.71343,-0.31941 -0.71343,-0.71343z" fill="none" fill-rule="nonzero" stroke="none" stroke-width="1"></path><path d="M3.08586,1.86061c0,-0.38067 0.30859,-0.68926 0.68926,-0.68926c0.38067,0 0.68926,0.30859 0.68926,0.68926c0,0.38067 -0.30859,0.68926 -0.68926,0.68926c-0.38067,0 -0.68926,-0.30859 -0.68926,-0.68926z" fill="none" fill-rule="nonzero" stroke="none" stroke-width="1"></path><path d="M9.1498,1.98582c0,-0.30583 0.24792,-0.55375 0.55375,-0.55375c0.30583,0 0.55375,0.24792 0.55375,0.55375c0,0.30583 -0.24792,0.55375 -0.55375,0.55375c-0.30583,0 -0.55375,-0.24792 -0.55375,-0.55375z" fill="none" fill-rule="nonzero" stroke="none" stroke-width="1"></path><path d="M5.92679,1.90285c0,-0.2796 0.22666,-0.50626 0.50626,-0.50626c0.2796,0 0.50626,0.22666 0.50626,0.50626c0,0.2796 -0.22666,0.50626 -0.50626,0.50626c-0.2796,0 -0.50626,-0.22666 -0.50626,-0.50626z" fill="none" fill-rule="nonzero" stroke="none" stroke-width="1"></path><path d="M7.6856,0.03932c0,-0.27294 0.22126,-0.4942 0.4942,-0.4942c0.27294,0 0.4942,0.22126 0.4942,0.4942c0,0.27294 -0.22126,0.4942 -0.4942,0.4942c-0.27294,0 -0.4942,-0.22126 -0.4942,-0.4942z" fill="none" fill-rule="nonzero" stroke="none" stroke-width="1"></path><path d="M0.72972,1.26818c0,-0.27076 0.21949,-0.49026 0.49026,-0.49026c0.27076,0 0.49026,0.21949 0.49026,0.49026c0,0.27076 -0.21949,0.49026 -0.49026,0.49026c-0.27076,0 -0.49026,-0.21949 -0.49026,-0.49026z" fill="none" fill-rule="nonzero" stroke="none" stroke-width="1"></path><path d="M-0.30241,0.73151c0,-0.21627 0.17532,-0.39159 0.39159,-0.39159c0.21627,0 0.39159,0.17532 0.39159,0.39159c0,0.21627 -0.17532,0.39159 -0.39159,0.39159c-0.21627,0 -0.39159,-0.17532 -0.39159,-0.39159z" fill="none" fill-rule="nonzero" stroke="none" stroke-width="1"></path><path d="M1.12376,1.99303c0,-0.21466 0.17401,-0.38867 0.38867,-0.38867c0.21466,0 0.38867,0.17401 0.38867,0.38867c0,0.21466 -0.17401,0.38867 -0.38867,0.38867c-0.21466,0 -0.38867,-0.17401 -0.38867,-0.38867z" fill="none" fill-rule="nonzero" stroke="none" stroke-width="1"></path><path d="M1.67826,0.08812c0,-0.17924 0.1453,-0.32454 0.32454,-0.32454c0.17924,0 0.32454,0.1453 0.32454,0.32454c0,0.17924 -0.1453,0.32454 -0.32454,0.32454c-0.17924,0 -0.32454,-0.1453 -0.32454,-0.32454z" fill="none" fill-rule="nonzero" stroke="none" stroke-width="1"></path><path d="M2.54621,0.05589c0,-0.17081 0.13847,-0.30928 0.30928,-0.30928c0.17081,0 0.30928,0.13847 0.30928,0.30928c0,0.17081 -0.13847,0.30928 -0.30928,0.30928c-0.17081,0 -0.30928,-0.13847 -0.30928,-0.30928z" fill="none" fill-rule="nonzero" stroke="none" stroke-width="1"></path><path d="M8.01098,0.77609c0,-0.16738 0.13569,-0.30307 0.30307,-0.30307c0.16738,0 0.30307,0.13569 0.30307,0.30307c0,0.16738 -0.13569,0.30307 -0.30307,0.30307c-0.16738,0 -0.30307,-0.13569 -0.30307,-0.30307z" fill="none" fill-rule="nonzero" stroke="none" stroke-width="1"></path><path d="M-0.26506,0.00978c0,-0.16082 0.13037,-0.29118 0.29118,-0.29118c0.16082,0 0.29118,0.13037 0.29118,0.29118c0,0.16082 -0.13037,0.29118 -0.29118,0.29118c-0.16082,0 -0.29118,-0.13037 -0.29118,-0.29118z" fill="none" fill-rule="nonzero" stroke="none" stroke-width="1"></path><path d="M5.88205,1.02232c0,-0.15464 0.12536,-0.27999 0.27999,-0.27999c0.15464,0 0.27999,0.12536 0.27999,0.27999c0,0.15464 -0.12536,0.27999 -0.27999,0.27999c-0.15464,0 -0.27999,-0.12536 -0.27999,-0.27999z" fill="none" fill-rule="nonzero" stroke="none" stroke-width="1"></path><path d="M7.02487,1.94336c0,-0.14246 0.11549,-0.25795 0.25795,-0.25795c0.14246,0 0.25795,0.11549 0.25795,0.25795c0,0.14246 -0.11549,0.25795 -0.25795,0.25795c-0.14246,0 -0.25795,-0.11549 -0.25795,-0.25795z" fill="none" fill-rule="nonzero" stroke="none" stroke-width="1"></path><path d="M6.26575,0.16585c0,-0.13572 0.11002,-0.24575 0.24575,-0.24575c0.13572,0 0.24575,0.11002 0.24575,0.24575c0,0.13572 -0.11002,0.24575 -0.24575,0.24575c-0.13572,0 -0.24575,-0.11002 -0.24575,-0.24575z" fill="none" fill-rule="nonzero" stroke="none" stroke-width="1"></path><path d="M0.29873,1.0221c0,-0.12041 0.09761,-0.21801 0.21801,-0.21801c0.12041,0 0.21801,0.09761 0.21801,0.21801c0,0.12041 -0.09761,0.21801 -0.21801,0.21801c-0.12041,0 -0.21801,-0.09761 -0.21801,-0.21801z" fill="none" fill-rule="nonzero" stroke="none" stroke-width="1"></path><path d="M2.7797,1.98671c0,-0.11072 0.08976,-0.20048 0.20048,-0.20048c0.11072,0 0.20048,0.08976 0.20048,0.20048c0,0.11072 -0.08976,0.20048 -0.20048,0.20048c-0.11072,0 -0.20048,-0.08976 -0.20048,-0.20048z" fill="none" fill-rule="nonzero" stroke="none" stroke-width="1"></path><path d="M6.09626,0.60576c0,-0.11017 0.08931,-0.19948 0.19948,-0.19948c0.11017,0 0.19948,0.08931 0.19948,0.19948c0,0.11017 -0.08931,0.19948 -0.19948,0.19948c-0.11017,0 -0.19948,-0.08931 -0.19948,-0.19948z" fill="none" fill-rule="nonzero" stroke="none" stroke-width="1"></path><path d="M1.34403,0.72786c0,-0.108 0.08756,-0.19556 0.19556,-0.19556c0.108,0 0.19556,0.08756 0.19556,0.19556c0,0.108 -0.08756,0.19556 -0.19556,0.19556c-0.108,0 -0.19556,-0.08756 -0.19556,-0.19556z" fill="none" fill-rule="nonzero" stroke="none" stroke-width="1"></path><path d="M1.82172,1.96868c0,-0.10695 0.0867,-0.19366 0.19366,-0.19366c0.10695,0 0.19366,0.0867 0.19366,0.19366c0,0.10695 -0.0867,0.19366 -0.19366,0.19366c-0.10695,0 -0.19366,-0.0867 -0.19366,-0.19366z" fill="none" fill-rule="nonzero" stroke="none" stroke-width="1"></path><path d="M4.7319,0.59438c0,-0.09972 0.08084,-0.18055 0.18055,-0.18055c0.09972,0 0.18055,0.08084 0.18055,0.18055c0,0.09972 -0.08084,0.18055 -0.18055,0.18055c-0.09972,0 -0.18055,-0.08084 -0.18055,-0.18055z" fill="none" fill-rule="nonzero" stroke="none" stroke-width="1"></path><path d="M1.59427,0.41223c0,-0.09349 0.07579,-0.16928 0.16928,-0.16928c0.09349,0 0.16928,0.07579 0.16928,0.16928c0,0.09349 -0.07579,0.16928 -0.16928,0.16928c-0.09349,0 -0.16928,-0.07579 -0.16928,-0.16928z" fill="none" fill-rule="nonzero" stroke="none" stroke-width="1"></path><path d="M8.31454,1.13265c0,-0.09235 0.07487,-0.16722 0.16722,-0.16722c0.09235,0 0.16722,0.07487 0.16722,0.16722c0,0.09235 -0.07487,0.16722 -0.16722,0.16722c-0.09235,0 -0.16722,-0.07487 -0.16722,-0.16722z" fill="none" fill-rule="nonzero" stroke="none" stroke-width="1"></path><path d="M0.61321,0.89445c0,-0.09162 0.07427,-0.16588 0.16588,-0.16588c0.09162,0 0.16588,0.07427 0.16588,0.16588c0,0.09162 -0.07427,0.16588 -0.16588,0.16588c-0.09162,0 -0.16588,-0.07427 -0.16588,-0.16588z" fill="none" fill-rule="nonzero" stroke="none" stroke-width="1"></path><path d="M7.99472,1.13185c0,-0.09125 0.07397,-0.16522 0.16522,-0.16522c0.09125,0 0.16522,0.07397 0.16522,0.16522c0,0.09125 -0.07397,0.16522 -0.16522,0.16522c-0.09125,0 -0.16522,-0.07397 -0.16522,-0.16522z" fill="none" fill-rule="nonzero" stroke="none" stroke-width="1"></path><path d="M3.23092,1.17005c0,-0.09018 0.07311,-0.16329 0.16329,-0.16329c0.09018,0 0.16329,0.07311 0.16329,0.16329c0,0.09018 -0.07311,0.16329 -0.16329,0.16329c-0.09018,0 -0.16329,-0.07311 -0.16329,-0.16329z" fill="none" fill-rule="nonzero" stroke="none" stroke-width="1"></path><path d="M6.72544,0.04364c0,-0.0888 0.07199,-0.16079 0.16079,-0.16079c0.0888,0 0.16079,0.07199 0.16079,0.16079c0,0.0888 -0.07199,0.16079 -0.16079,0.16079c-0.0888,0 -0.16079,-0.07199 -0.16079,-0.16079z" fill="none" fill-rule="nonzero" stroke="none" stroke-width="1"></path><path d="M8.9474,1.67626c0,-0.08847 0.07172,-0.16019 0.16019,-0.16019c0.08847,0 0.16019,0.07172 0.16019,0.16019c0,0.08847 -0.07172,0.16019 -0.16019,0.16019c-0.08847,0 -0.16019,-0.07172 -0.16019,-0.16019z" fill="none" fill-rule="nonzero" stroke="none" stroke-width="1"></path><path d="M4.09594,1.26969c0,-0.08781 0.07118,-0.15899 0.15899,-0.15899c0.08781,0 0.15899,0.07118 0.15899,0.15899c0,0.08781 -0.07118,0.15899 -0.15899,0.15899c-0.08781,0 -0.15899,-0.07118 -0.15899,-0.15899z" fill="none" fill-rule="nonzero" stroke="none" stroke-width="1"></path><path d="M7.29709,0.0286c0,-0.08652 0.07014,-0.15666 0.15666,-0.15666c0.08652,0 0.15666,0.07014 0.15666,0.15666c0,0.08652 -0.07014,0.15666 -0.15666,0.15666c-0.08652,0 -0.15666,-0.07014 -0.15666,-0.15666z" fill="none" fill-rule="nonzero" stroke="none" stroke-width="1"></path><path d="M8.69111,0.00922c0,-0.07982 0.0647,-0.14452 0.14452,-0.14452c0.07982,0 0.14452,0.0647 0.14452,0.14452c0,0.07982 -0.0647,0.14452 -0.14452,0.14452c-0.07982,0 -0.14452,-0.0647 -0.14452,-0.14452z" fill="none" fill-rule="nonzero" stroke="none" stroke-width="1"></path><path d="M5.92511,0.69405c0,-0.07909 0.06411,-0.1432 0.1432,-0.1432c0.07909,0 0.1432,0.06411 0.1432,0.1432c0,0.07909 -0.06411,0.1432 -0.1432,0.1432c-0.07909,0 -0.1432,-0.06411 -0.1432,-0.1432z" fill="none" fill-rule="nonzero" stroke="none" stroke-width="1"></path><path d="M0.97754,1.80337c0,-0.07885 0.06392,-0.14277 0.14277,-0.14277c0.07885,0 0.14277,0.06392 0.14277,0.14277c0,0.07885 -0.06392,0.14277 -0.14277,0.14277c-0.07885,0 -0.14277,-0.06392 -0.14277,-0.14277z" fill="none" fill-rule="nonzero" stroke="none" stroke-width="1"></path><path d="M6.0791,1.39398c0,-0.07815 0.06335,-0.1415 0.1415,-0.1415c0.07815,0 0.1415,0.06335 0.1415,0.1415c0,0.07815 -0.06335,0.1415 -0.1415,0.1415c-0.07815,0 -0.1415,-0.06335 -0.1415,-0.1415z" fill="none" fill-rule="nonzero" stroke="none" stroke-width="1"></path><path d="M1.74591,1.75784c0,-0.07702 0.06244,-0.13946 0.13946,-0.13946c0.07702,0 0.13946,0.06244 0.13946,0.13946c0,0.07702 -0.06244,0.13946 -0.13946,0.13946c-0.07702,0 -0.13946,-0.06244 -0.13946,-0.13946z" fill="none" fill-rule="nonzero" stroke="none" stroke-width="1"></path><path d="M2.42349,1.98162c0,-0.07702 0.06244,-0.13946 0.13946,-0.13946c0.07702,0 0.13946,0.06244 0.13946,0.13946c0,0.07702 -0.06244,0.13946 -0.13946,0.13946c-0.07702,0 -0.13946,-0.06244 -0.13946,-0.13946z" fill="none" fill-rule="nonzero" stroke="none" stroke-width="1"></path><path d="M7.48272,1.74218c0,-0.07575 0.06141,-0.13715 0.13715,-0.13715c0.07575,0 0.13715,0.06141 0.13715,0.13715c0,0.07575 -0.06141,0.13715 -0.13715,0.13715c-0.07575,0 -0.13715,-0.06141 -0.13715,-0.13715z" fill="none" fill-rule="nonzero" stroke="none" stroke-width="1"></path><path d="M1.5255,1.55982c0,-0.07494 0.06075,-0.13569 0.13569,-0.13569c0.07494,0 0.13569,0.06075 0.13569,0.13569c0,0.07494 -0.06075,0.13569 -0.13569,0.13569c-0.07494,0 -0.13569,-0.06075 -0.13569,-0.13569z" fill="none" fill-rule="nonzero" stroke="none" stroke-width="1"></path><path d="M2.33984,0.08229c0,-0.07494 0.06075,-0.13569 0.13569,-0.13569c0.07494,0 0.13569,0.06075 0.13569,0.13569c0,0.07494 -0.06075,0.13569 -0.13569,0.13569c-0.07494,0 -0.13569,-0.06075 -0.13569,-0.13569z" fill="none" fill-rule="nonzero" stroke="none" stroke-width="1"></path><path d="M2.19676,1.99133c0,-0.0736 0.05966,-0.13326 0.13326,-0.13326c0.0736,0 0.13326,0.05966 0.13326,0.13326c0,0.0736 -0.05966,0.13326 -0.13326,0.13326c-0.0736,0 -0.13326,-0.05966 -0.13326,-0.13326z" fill="none" fill-rule="nonzero" stroke="none" stroke-width="1"></path><path d="M8.52995,1.23401c0,-0.0736 0.05966,-0.13326 0.13326,-0.13326c0.0736,0 0.13326,0.05966 0.13326,0.13326c0,0.0736 -0.05966,0.13326 -0.13326,0.13326c-0.0736,0 -0.13326,-0.05966 -0.13326,-0.13326z" fill="none" fill-rule="nonzero" stroke="none" stroke-width="1"></path><path d="M5.6766,0.86873c0,-0.07323 0.05937,-0.1326 0.1326,-0.1326c0.07323,0 0.1326,0.05937 0.1326,0.1326c0,0.07323 -0.05937,0.1326 -0.1326,0.1326c-0.07323,0 -0.1326,-0.05937 -0.1326,-0.1326z" fill="none" fill-rule="nonzero" stroke="none" stroke-width="1"></path><path d="M2.23544,0.21591c0,-0.07235 0.05865,-0.131 0.131,-0.131c0.07235,0 0.131,0.05865 0.131,0.131c0,0.07235 -0.05865,0.131 -0.131,0.131c-0.07235,0 -0.131,-0.05865 -0.131,-0.131z" fill="none" fill-rule="nonzero" stroke="none" stroke-width="1"></path><path d="M9.80196,1.43535c0,-0.07087 0.05745,-0.12832 0.12832,-0.12832c0.07087,0 0.12832,0.05745 0.12832,0.12832c0,0.07087 -0.05745,0.12832 -0.12832,0.12832c-0.07087,0 -0.12832,-0.05745 -0.12832,-0.12832z" fill="none" fill-rule="nonzero" stroke="none" stroke-width="1"></path><path d="M7.88336,1.27061c0,-0.0701 0.05683,-0.12693 0.12693,-0.12693c0.0701,0 0.12693,0.05683 0.12693,0.12693c0,0.0701 -0.05683,0.12693 -0.12693,0.12693c-0.0701,0 -0.12693,-0.05683 -0.12693,-0.12693z" fill="none" fill-rule="nonzero" stroke="none" stroke-width="1"></path><path d="M2.89173,0.35781c0,-0.06966 0.05647,-0.12613 0.12613,-0.12613c0.06966,0 0.12613,0.05647 0.12613,0.12613c0,0.06966 -0.05647,0.12613 -0.12613,0.12613c-0.06966,0 -0.12613,-0.05647 -0.12613,-0.12613z" fill="none" fill-rule="nonzero" stroke="none" stroke-width="1"></path><path d="M6.87391,1.81334c0,-0.06952 0.05636,-0.12587 0.12587,-0.12587c0.06952,0 0.12587,0.05636 0.12587,0.12587c0,0.06952 -0.05636,0.12587 -0.12587,0.12587c-0.06952,0 -0.12587,-0.05636 -0.12587,-0.12587z" fill="none" fill-rule="nonzero" stroke="none" stroke-width="1"></path><path d="M4.73721,0.38789c0,-0.06882 0.05579,-0.12461 0.12461,-0.12461c0.06882,0 0.12461,0.05579 0.12461,0.12461c0,0.06882 -0.05579,0.12461 -0.12461,0.12461c-0.06882,0 -0.12461,-0.05579 -0.12461,-0.12461z" fill="none" fill-rule="nonzero" stroke="none" stroke-width="1"></path><path d="M8.46819,0.38585c0,-0.06868 0.05568,-0.12436 0.12436,-0.12436c0.06868,0 0.12436,0.05568 0.12436,0.12436c0,0.06868 -0.05568,0.12436 -0.12436,0.12436c-0.06868,0 -0.12436,-0.05568 -0.12436,-0.12436z" fill="none" fill-rule="nonzero" stroke="none" stroke-width="1"></path><path d="M9.87491,0.06311c0,-0.06855 0.05557,-0.12412 0.12412,-0.12412c0.06855,0 0.12412,0.05557 0.12412,0.12412c0,0.06855 -0.05557,0.12412 -0.12412,0.12412c-0.06855,0 -0.12412,-0.05557 -0.12412,-0.12412z" fill="none" fill-rule="nonzero" stroke="none" stroke-width="1"></path><path d="M4.22017,1.10985c0,-0.06764 0.05483,-0.12248 0.12248,-0.12248c0.06764,0 0.12248,0.05483 0.12248,0.12248c0,0.06764 -0.05483,0.12248 -0.12248,0.12248c-0.06764,0 -0.12248,-0.05483 -0.12248,-0.12248z" fill="none" fill-rule="nonzero" stroke="none" stroke-width="1"></path><path d="M3.88712,1.18903c0,-0.06657 0.05396,-0.12053 0.12053,-0.12053c0.06657,0 0.12053,0.05396 0.12053,0.12053c0,0.06657 -0.05396,0.12053 -0.12053,0.12053c-0.06657,0 -0.12053,-0.05396 -0.12053,-0.12053z" fill="none" fill-rule="nonzero" stroke="none" stroke-width="1"></path><path d="M1.7316,1.095c0,-0.41421 0.33579,-0.75 0.75,-0.75c0.20111,0 0.38373,0.07915 0.5184,0.208v1.08399c-0.13468,0.12885 -0.3173,0.208 -0.5184,0.208c-0.41421,0 -0.75,-0.33579 -0.75,-0.75zM0.17062,1.22193c0.41007,0 0.7425,0.33243 0.7425,0.7425c0,0.41007 -0.33243,0.7425 -0.7425,0.7425c-0.05871,0 -0.11584,-0.00682 -0.17062,-0.0197l0,-1.44561c0.05478,-0.01288 0.11191,-0.0197 0.17062,-0.0197zM0.32352,0.00327c0,-0.00109 0,-0.00218 0.00001,-0.00327l1.35656,0c0.00001,0.00109 0.00001,0.00218 0.00001,0.00327c0,0.37461 -0.30368,0.67829 -0.67829,0.67829c-0.37461,0 -0.67829,-0.30368 -0.67829,-0.67829zM0.82972,1.26818c0,-0.21553 0.17472,-0.39026 0.39026,-0.39026c0.21553,0 0.39026,0.17472 0.39026,0.39026c0,0.21553 -0.17472,0.39026 -0.39026,0.39026c-0.21553,0 -0.39026,-0.17472 -0.39026,-0.39026zM0.08918,0.43992c0.16104,0 0.29159,0.13055 0.29159,0.29159c0,0.16104 -0.13055,0.29159 -0.29159,0.29159c-0.0311,0 -0.06107,-0.00487 -0.08918,-0.01389l0,-0.5554c0.02811,-0.00902 0.05808,-0.01389 0.08918,-0.01389zM1.22376,1.99303c0,-0.15943 0.12924,-0.28867 0.28867,-0.28867c0.15943,0 0.28867,0.12924 0.28867,0.28867c0,0.15943 -0.12924,0.28867 -0.28867,0.28867c-0.15943,0 -0.28867,-0.12924 -0.28867,-0.28867zM1.77826,0.08812c0,-0.03128 0.0064,-0.06107 0.01795,-0.08812l0.41316,0c0.01156,0.02706 0.01795,0.05684 0.01795,0.08812c0,0.12401 -0.10053,0.22454 -0.22454,0.22454c-0.12401,0 -0.22454,-0.10053 -0.22454,-0.22454zM2.64621,0.05589c0,-0.01936 0.00263,-0.0381 0.00755,-0.05589h0.34624v0.20727c-0.03757,0.03587 -0.08846,0.0579 -0.14451,0.0579c-0.11558,0 -0.20928,-0.0937 -0.20928,-0.20928zM0.2173,0.00978c0,0.10559 -0.0856,0.19118 -0.19118,0.19118c-0.00886,0 -0.01758,-0.0006 -0.02612,-0.00177v-0.19919l0.21706,0c0.00016,0.00324 0.00025,0.0065 0.00025,0.00978zM0.39873,1.0221c0,-0.06518 0.05284,-0.11801 0.11801,-0.11801c0.06518,0 0.11801,0.05284 0.11801,0.11801c0,0.06518 -0.05284,0.11801 -0.11801,0.11801c-0.06518,0 -0.11801,-0.05284 -0.11801,-0.11801zM2.8797,1.98671c0,-0.0555 0.04499,-0.10048 0.10048,-0.10048c0.00678,0 0.01341,0.00067 0.01982,0.00195v0.19706c-0.00641,0.00128 -0.01303,0.00195 -0.01982,0.00195c-0.0555,0 -0.10048,-0.04499 -0.10048,-0.10048zM1.44403,0.72786c0,-0.05278 0.04278,-0.09556 0.09556,-0.09556c0.05278,0 0.09556,0.04278 0.09556,0.09556c0,0.05278 -0.04278,0.09556 -0.09556,0.09556c-0.05278,0 -0.09556,-0.04278 -0.09556,-0.09556zM1.92172,1.96868c0,-0.05173 0.04193,-0.09366 0.09366,-0.09366c0.05173,0 0.09366,0.04193 0.09366,0.09366c0,0.05173 -0.04193,0.09366 -0.09366,0.09366c-0.05173,0 -0.09366,-0.04193 -0.09366,-0.09366zM1.69427,0.41223c0,-0.03826 0.03102,-0.06928 0.06928,-0.06928c0.03826,0 0.06928,0.03102 0.06928,0.06928c0,0.03826 -0.03102,0.06928 -0.06928,0.06928c-0.03826,0 -0.06928,-0.03102 -0.06928,-0.06928zM0.71321,0.89445c0,-0.03639 0.0295,-0.06588 0.06588,-0.06588c0.03639,0 0.06588,0.0295 0.06588,0.06588c0,0.03639 -0.0295,0.06588 -0.06588,0.06588c-0.03639,0 -0.06588,-0.0295 -0.06588,-0.06588zM1.07754,1.80337c0,-0.02362 0.01915,-0.04277 0.04277,-0.04277c0.02362,0 0.04277,0.01915 0.04277,0.04277c0,0.02362 -0.01915,0.04277 -0.04277,0.04277c-0.02362,0 -0.04277,-0.01915 -0.04277,-0.04277zM1.84591,1.75784c0,-0.02179 0.01767,-0.03946 0.03946,-0.03946c0.02179,0 0.03946,0.01767 0.03946,0.03946c0,0.02179 -0.01767,0.03946 -0.03946,0.03946c-0.02179,0 -0.03946,-0.01767 -0.03946,-0.03946zM2.52349,1.98162c0,-0.02179 0.01767,-0.03946 0.03946,-0.03946c0.02179,0 0.03946,0.01767 0.03946,0.03946c0,0.02179 -0.01767,0.03946 -0.03946,0.03946c-0.02179,0 -0.03946,-0.01767 -0.03946,-0.03946zM1.6255,1.55982c0,-0.01971 0.01598,-0.03569 0.03569,-0.03569c0.01971,0 0.03569,0.01598 0.03569,0.03569c0,0.01971 -0.01598,0.03569 -0.03569,0.03569c-0.01971,0 -0.03569,-0.01598 -0.03569,-0.03569zM2.43984,0.08229c0,-0.01971 0.01598,-0.03569 0.03569,-0.03569c0.01971,0 0.03569,0.01598 0.03569,0.03569c0,0.01971 -0.01598,0.03569 -0.03569,0.03569c-0.01971,0 -0.03569,-0.01598 -0.03569,-0.03569zM2.29676,1.99133c0,-0.01837 0.01489,-0.03326 0.03326,-0.03326c0.01837,0 0.03326,0.01489 0.03326,0.03326c0,0.01837 -0.01489,0.03326 -0.03326,0.03326c-0.01837,0 -0.03326,-0.01489 -0.03326,-0.03326zM2.33544,0.21591c0,-0.01712 0.01388,-0.031 0.031,-0.031c0.01712,0 0.031,0.01388 0.031,0.031c0,0.01712 -0.01388,0.031 -0.031,0.031c-0.01712,0 -0.031,-0.01388 -0.031,-0.031zM2.99173,0.35781c0,-0.00752 0.00318,-0.01431 0.00827,-0.01907v0.03815c-0.00509,-0.00477 -0.00827,-0.01155 -0.00827,-0.01907z" fill="#d3d3d3" fill-rule="evenodd" stroke="#ff0000" stroke-width="0.005"></path></g></svg>