<svg version="1.1" xmlns="http://www.w3.org/2000/svg" xmlns:xlink="http://www.w3.org/1999/xlink" width="3in" height="3in" viewBox="0 0 3.05 3.05"><g fill="#d3d3d3" fill-rule="evenodd" stroke="#ff0000" stroke-width="0.005" stroke-linecap="butt" stroke-linejoin="miter" stroke-miterlimit="10" stroke-dasharray="" stroke-dashoffset="0" font-family="none" font-weight="none" font-size="none" text-anchor="none" style="mix-blend-mode: normal"><path d="M0,3v-3h3v3zM2.725,0.29189c-0.00137,-0.00079 -0.00275,-0.00158 -0.00413,-0.00236c0.00272,-0.02113 0.00413,-0.04266 0.00413,-0.06453h0.05v0.0416c-0.01719,0.00751 -0.03388,0.01596 -0.05,0.02529zM2.725,2.765c0.01689,0 0.03358,0.00091 0.05,0.00269v0.00731h-0.14585c0.03092,-0.00655 0.06298,-0.01 0.09585,-0.01zM2.725,2.725c-0.07415,0 -0.14453,0.01614 -0.20782,0.0451c-0.00144,-0.01484 -0.00218,-0.02988 -0.00218,-0.0451c0,-0.01522 0.00074,-0.03026 0.00218,-0.0451c0.06329,0.02896 0.13367,0.0451 0.20782,0.0451c0.01687,0 0.03355,-0.00084 0.05,-0.00247v0.00494c-0.01645,-0.00163 -0.03313,-0.00247 -0.05,-0.00247zM2.47913,2.66047c-0.00272,0.02113 -0.00413,0.04266 -0.00413,0.06453c0,0.01687 0.00084,0.03355 0.00247,0.05l-0.00494,0c0.00163,-0.01645 0.00247,-0.03313 0.00247,-0.05c0,-0.02187 -0.0014,-0.04341 -0.00413,-0.06453c0.00138,-0.00078 0.00275,-0.00157 0.00413,-0.00236c0.00137,0.00079 0.00275,0.00158 0.00413,0.00236zM2.43282,2.6799c0.00144,0.01484 0.00218,0.02988 0.00218,0.0451c0,0.01522 -0.00074,0.03026 -0.00218,0.0451c-0.06329,-0.02896 -0.13367,-0.0451 -0.20782,-0.0451c-0.07415,0 -0.14453,0.01614 -0.20782,0.0451c-0.00144,-0.01484 -0.00218,-0.02988 -0.00218,-0.0451c0,-0.01522 0.00074,-0.03026 0.00218,-0.0451c0.06329,0.02896 0.13367,0.0451 0.20782,0.0451c0.07415,0 0.14453,-0.01614 0.20782,-0.0451zM2.225,2.765c0.03287,0 0.06493,0.00345 0.09585,0.01l-0.1917,0c0.03092,-0.00655 0.06298,-0.01 0.09585,-0.01zM1.97913,2.66047c-0.00272,0.02113 -0.00413,0.04266 -0.00413,0.06453c0,0.01687 0.00084,0.03355 0.00247,0.05h-0.00494c0.00163,-0.01645 0.00247,-0.03313 0.00247,-0.05c0,-0.02187 -0.0014,-0.04341 -0.00413,-0.06453c0.00138,-0.00078 0.00275,-0.00157 0.00413,-0.00236c0.00137,0.00079 0.00275,0.00158 0.00413,0.00236zM1.93282,2.6799c0.00144,0.01484 0.00218,0.02988 0.00218,0.0451c0,0.01522 -0.00074,0.03026 -0.00218,0.0451c-0.06329,-0.02896 -0.13367,-0.0451 -0.20782,-0.0451c-0.07415,0 -0.14453,0.01614 -0.20782,0.0451c-0.00144,-0.01484 -0.00218,-0.02988 -0.00218,-0.0451c0,-0.01522 0.00074,-0.03026 0.00218,-0.0451c0.06329,0.02896 0.13367,0.0451 0.20782,0.0451c0.07415,0 0.14453,-0.01614 0.20782,-0.0451zM1.725,2.765c0.03287,0 0.06493,0.00345 0.09585,0.01l-0.1917,0c0.03092,-0.00655 0.06298,-0.01 0.09585,-0.01zM1.47913,2.66047c-0.00272,0.02113 -0.00413,0.04266 -0.00413,0.06453c0,0.01687 0.00084,0.03355 0.00247,0.05h-0.00494c0.00163,-0.01645 0.00247,-0.03313 0.00247,-0.05c0,-0.02187 -0.0014,-0.04341 -0.00413,-0.06453c0.00138,-0.00078 0.00275,-0.00157 0.00413,-0.00236c0.00137,0.00079 0.00275,0.00158 0.00413,0.00236zM1.43282,2.6799c0.00144,0.01484 0.00218,0.02988 0.00218,0.0451c0,0.01522 -0.00074,0.03026 -0.00218,0.0451c-0.06329,-0.02896 -0.13367,-0.0451 -0.20782,-0.0451c-0.07415,0 -0.14453,0.01614 -0.20782,0.0451c-0.00144,-0.01484 -0.00218,-0.02988 -0.00218,-0.0451c0,-0.01522 0.00074,-0.03026 0.00218,-0.0451c0.06329,0.02896 0.13367,0.0451 0.20782,0.0451c0.07415,0 0.14453,-0.01614 0.20782,-0.0451zM1.225,2.765c0.03287,0 0.06493,0.00345 0.09585,0.01l-0.1917,0c0.03092,-0.00655 0.06298,-0.01 0.09585,-0.01zM0.97913,2.66047c-0.00272,0.02113 -0.00413,0.04266 -0.00413,0.06453c0,0.01687 0.00084,0.03355 0.00247,0.05h-0.00494c0.00163,-0.01645 0.00247,-0.03313 0.00247,-0.05c0,-0.02187 -0.0014,-0.04341 -0.00413,-0.06453c0.00138,-0.00078 0.00275,-0.00157 0.00413,-0.00236c0.00137,0.00079 0.00275,0.00158 0.00413,0.00236zM0.93282,2.6799c0.00144,0.01484 0.00218,0.02988 0.00218,0.0451c0,0.01522 -0.00074,0.03026 -0.00218,0.0451c-0.06329,-0.02896 -0.13367,-0.0451 -0.20782,-0.0451c-0.07415,0 -0.14453,0.01614 -0.20782,0.0451c-0.00144,-0.01484 -0.00218,-0.02988 -0.00218,-0.0451c0,-0.01522 0.00074,-0.03026 0.00218,-0.0451c0.06329,0.02896 0.13367,0.0451 0.20782,0.0451c0.07415,0 0.14453,-0.01614 0.20782,-0.0451zM0.725,2.765c0.03287,0 0.06493,0.00345 0.09585,0.01l-0.1917,0c0.03092,-0.00655 0.06298,-0.01 0.09585,-0.01zM2.725,2.29189c-0.00137,-0.00079 -0.00275,-0.00158 -0.00413,-0.00236c0.00272,-0.02113 0.00413,-0.04266 0.00413,-0.06453c0,-0.02187 -0.0014,-0.04341 -0.00413,-0.06453c0.00138,-0.00078 0.00275,-0.00157 0.00413,-0.00236c0.01612,0.00932 0.03281,0.01778 0.05,0.02529v0.08321c-0.01719,0.00751 -0.03388,0.01596 -0.05,0.02529zM2.76335,2.31647c0.00385,-0.002 0.00773,-0.00395 0.01165,-0.00584l0,0.01433c-0.00384,-0.00288 -0.00772,-0.00571 -0.01165,-0.00849zM2.52313,2.63845c0.00091,-0.00477 0.00189,-0.00951 0.00294,-0.01422c0.08902,-0.06724 0.15485,-0.16357 0.18334,-0.27486c0.00512,-0.00363 0.01032,-0.00715 0.01559,-0.01057c0.01753,0.01137 0.03423,0.0239 0.05,0.03748v0.30604c-0.01642,0.00178 -0.03311,0.00269 -0.05,0.00269c-0.07242,0 -0.14093,-0.01673 -0.20187,-0.04655zM2.68282,2.1799c0.00144,0.01484 0.00218,0.02988 0.00218,0.0451c0,0.01522 -0.00074,0.03026 -0.00218,0.0451c-0.06329,-0.02896 -0.13367,-0.0451 -0.20782,-0.0451c-0.07415,0 -0.14453,0.01614 -0.20782,0.0451c-0.00144,-0.01484 -0.00218,-0.02988 -0.00218,-0.0451c0,-0.01522 0.00074,-0.03026 0.00218,-0.0451c0.06329,0.02896 0.13367,0.0451 0.20782,0.0451c0.07415,0 0.14453,-0.01614 0.20782,-0.0451zM2.27313,2.31155c0.06094,-0.02981 0.12945,-0.04655 0.20187,-0.04655c0.07242,0 0.14093,0.01673 0.20187,0.04655c-0.00091,0.00477 -0.00189,0.00951 -0.00294,0.01422c-0.08902,0.06724 -0.15485,0.16357 -0.18334,0.27486c-0.00512,0.00363 -0.01032,0.00715 -0.01559,0.01057c-0.00527,-0.00342 -0.01047,-0.00695 -0.01559,-0.01057c-0.02849,-0.11128 -0.09431,-0.20761 -0.18334,-0.27486c-0.00105,-0.00471 -0.00203,-0.00946 -0.00294,-0.01422zM2.22913,2.16047c-0.00272,0.02113 -0.00413,0.04266 -0.00413,0.06453c0,0.02187 0.0014,0.04341 0.00413,0.06453c-0.00138,0.00078 -0.00275,0.00157 -0.00413,0.00236c-0.00137,-0.00079 -0.00275,-0.00158 -0.00413,-0.00236c0.00272,-0.02113 0.00413,-0.04266 0.00413,-0.06453c0,-0.02187 -0.0014,-0.04341 -0.00413,-0.06453c0.00138,-0.00078 0.00275,-0.00157 0.00413,-0.00236c0.00137,0.00079 0.00275,0.00158 0.00413,0.00236zM2.02313,2.63845c0.00091,-0.00477 0.00189,-0.00951 0.00294,-0.01422c0.08902,-0.06724 0.15485,-0.16357 0.18334,-0.27486c0.00512,-0.00363 0.01032,-0.00715 0.01559,-0.01057c0.00527,0.00342 0.01047,0.00695 0.01559,0.01057c0.02849,0.11128 0.09431,0.20761 0.18334,0.27486c0.00105,0.00471 0.00203,0.00946 0.00294,0.01422c-0.06094,0.02981 -0.12945,0.04655 -0.20187,0.04655c-0.07242,0 -0.14093,-0.01673 -0.20187,-0.04655zM1.975,2.225c0,0 0,0 0,0c-0.07415,0 -0.14453,0.01614 -0.20782,0.0451c-0.00144,-0.01484 -0.00218,-0.02988 -0.00218,-0.0451c0,-0.01522 0.00074,-0.03026 0.00218,-0.0451c0.06329,0.02896 0.13367,0.0451 0.20782,0.0451c0,0 0,0 0,0zM1.77313,2.31155c0.06094,-0.02981 0.12945,-0.04655 0.20187,-0.04655c0.07242,0 0.14093,0.01673 0.20187,0.04655c-0.00091,0.00477 -0.00189,0.00951 -0.00294,0.01422c-0.08902,0.06724 -0.15485,0.16357 -0.18334,0.27486c-0.00512,0.00363 -0.01032,0.00715 -0.01559,0.01057c-0.00527,-0.00342 -0.01047,-0.00695 -0.01559,-0.01057c-0.02849,-0.11128 -0.09431,-0.20761 -0.18334,-0.27486c-0.00105,-0.00471 -0.00203,-0.00946 -0.00294,-0.01422zM2.18282,2.2701c-0.06329,-0.02896 -0.13367,-0.0451 -0.20782,-0.0451c0.07415,0 0.14453,-0.01614 0.20782,-0.0451c0.00144,0.01484 0.00218,0.02988 0.00218,0.0451c0,0.01522 -0.00074,0.03026 -0.00218,0.0451zM1.72913,2.16047c-0.00272,0.02113 -0.00413,0.04266 -0.00413,0.06453c0,0.02187 0.0014,0.04341 0.00413,0.06453c-0.00138,0.00078 -0.00275,0.00157 -0.00413,0.00236c-0.00137,-0.00079 -0.00275,-0.00158 -0.00413,-0.00236c0.00272,-0.02113 0.00413,-0.04266 0.00413,-0.06453c0,-0.02187 -0.0014,-0.04341 -0.00413,-0.06453c0.00138,-0.00078 0.00275,-0.00157 0.00413,-0.00236c0.00137,0.00079 0.00275,0.00158 0.00413,0.00236zM1.52313,2.63845c0.00091,-0.00477 0.00189,-0.00951 0.00294,-0.01422c0.08902,-0.06724 0.15485,-0.16357 0.18334,-0.27486c0.00512,-0.00363 0.01032,-0.00715 0.01559,-0.01057c0.00527,0.00342 0.01047,0.00695 0.01559,0.01057c0.02849,0.11128 0.09431,0.20761 0.18334,0.27486c0.00105,0.00471 0.00203,0.00946 0.00294,0.01422c-0.06094,0.02981 -0.12945,0.04655 -0.20187,0.04655c-0.07242,0 -0.14093,-0.01673 -0.20187,-0.04655zM1.68282,2.1799c0.00144,0.01484 0.00218,0.02988 0.00218,0.0451c0,0.01522 -0.00074,0.03026 -0.00218,0.0451c-0.06329,-0.02896 -0.13367,-0.0451 -0.20782,-0.0451c-0.07415,0 -0.14453,0.01614 -0.20782,0.0451c-0.00144,-0.01484 -0.00218,-0.02988 -0.00218,-0.0451c0,-0.01522 0.00074,-0.03026 0.00218,-0.0451c0.06329,0.02896 0.13367,0.0451 0.20782,0.0451c0.07415,0 0.14453,-0.01614 0.20782,-0.0451zM1.27313,2.31155c0.06094,-0.02981 0.12945,-0.04655 0.20187,-0.04655c0.07242,0 0.14093,0.01673 0.20187,0.04655c-0.00091,0.00477 -0.00189,0.00951 -0.00294,0.01422c-0.08902,0.06724 -0.15485,0.16357 -0.18334,0.27486c-0.00512,0.00363 -0.01032,0.00715 -0.01559,0.01057c-0.00527,-0.00342 -0.01047,-0.00695 -0.01559,-0.01057c-0.02849,-0.11128 -0.09431,-0.20761 -0.18334,-0.27486c-0.00105,-0.00471 -0.00203,-0.00946 -0.00294,-0.01422zM1.22913,2.16047c-0.00272,0.02113 -0.00413,0.04266 -0.00413,0.06453c0,0.02187 0.0014,0.04341 0.00413,0.06453c-0.00138,0.00078 -0.00275,0.00157 -0.00413,0.00236c-0.00137,-0.00079 -0.00275,-0.00158 -0.00413,-0.00236c0.00272,-0.02113 0.00413,-0.04266 0.00413,-0.06453c0,-0.02187 -0.0014,-0.04341 -0.00413,-0.06453c0.00138,-0.00078 0.00275,-0.00157 0.00413,-0.00236c0.00137,0.00079 0.00275,0.00158 0.00413,0.00236zM1.02313,2.63845c0.00091,-0.00477 0.00189,-0.00951 0.00294,-0.01422c0.08902,-0.06724 0.15485,-0.16357 0.18334,-0.27486c0.00512,-0.00363 0.01032,-0.00715 0.01559,-0.01057c0.00527,0.00342 0.01047,0.00695 0.01559,0.01057c0.02849,0.11128 0.09431,0.20761 0.18334,0.27486c0.00105,0.00471 0.00203,0.00946 0.00294,0.01422c-0.06094,0.02981 -0.12945,0.04655 -0.20187,0.04655c-0.07242,0 -0.14093,-0.01673 -0.20187,-0.04655zM1.18282,2.1799c0.00144,0.01484 0.00218,0.02988 0.00218,0.0451c0,0.01522 -0.00074,0.03026 -0.00218,0.0451c-0.06329,-0.02896 -0.13367,-0.0451 -0.20782,-0.0451c-0.07415,0 -0.14453,0.01614 -0.20782,0.0451c-0.00144,-0.01484 -0.00218,-0.02988 -0.00218,-0.0451c0,-0.01522 0.00074,-0.03026 0.00218,-0.0451c0.06329,0.02896 0.13367,0.0451 0.20782,0.0451c0.07415,0 0.14453,-0.01614 0.20782,-0.0451zM0.77313,2.31155c0.06094,-0.02981 0.12945,-0.04655 0.20187,-0.04655c0.07242,0 0.14093,0.01673 0.20187,0.04655c-0.00091,0.00477 -0.00189,0.00951 -0.00294,0.01422c-0.08902,0.06724 -0.15485,0.16357 -0.18334,0.27486c-0.00512,0.00363 -0.01032,0.00715 -0.01559,0.01057c-0.00527,-0.00342 -0.01047,-0.00695 -0.01559,-0.01057c-0.02849,-0.11128 -0.09431,-0.20761 -0.18334,-0.27486c-0.00105,-0.00471 -0.00203,-0.00946 -0.00294,-0.01422zM0.72913,2.16047c-0.00272,0.02113 -0.00413,0.04266 -0.00413,0.06453c0,0.02187 0.0014,0.04341 0.00413,0.06453c-0.00138,0.00078 -0.00275,0.00157 -0.00413,0.00236c-0.00137,-0.00079 -0.00275,-0.00158 -0.00413,-0.00236c0.00272,-0.02113 0.00413,-0.04266 0.00413,-0.06453c0,-0.02187 -0.0014,-0.04341 -0.00413,-0.06453c0.00138,-0.00078 0.00275,-0.00157 0.00413,-0.00236c0.00137,0.00079 0.00275,0.00158 0.00413,0.00236zM0.52313,2.63845c0.00091,-0.00477 0.00189,-0.00951 0.00294,-0.01422c0.08902,-0.06724 0.15485,-0.16357 0.18334,-0.27486c0.00512,-0.00363 0.01032,-0.00715 0.01559,-0.01057c0.00527,0.00342 0.01047,0.00695 0.01559,0.01057c0.02849,0.11128 0.09431,0.20761 0.18334,0.27486c0.00105,0.00471 0.00203,0.00946 0.00294,0.01422c-0.06094,0.02981 -0.12945,0.04655 -0.20187,0.04655c-0.07242,0 -0.14093,-0.01673 -0.20187,-0.04655zM0.68282,2.1799c0.00144,0.01484 0.00218,0.02988 0.00218,0.0451c0,0.01522 -0.00074,0.03026 -0.00218,0.0451c-0.06329,-0.02896 -0.13367,-0.0451 -0.20782,-0.0451c-0.07415,0 -0.14453,0.01614 -0.20782,0.0451c-0.00144,-0.01484 -0.00218,-0.02988 -0.00218,-0.0451c0,-0.01522 0.00074,-0.03026 0.00218,-0.0451c0.06329,0.02896 0.13367,0.0451 0.20782,0.0451c0.07415,0 0.14453,-0.01614 0.20782,-0.0451zM0.27313,2.31155c0.06094,-0.02981 0.12945,-0.04655 0.20187,-0.04655c0.07242,0 0.14093,0.01673 0.20187,0.04655c-0.00091,0.00477 -0.00189,0.00951 -0.00294,0.01422c-0.08902,0.06724 -0.15485,0.16357 -0.18334,0.27486c-0.00512,0.00363 -0.01032,0.00715 -0.01559,0.01057c-0.10329,-0.067 -0.17801,-0.17431 -0.20187,-0.29965zM0.22913,2.16047c-0.00272,0.02113 -0.00413,0.04266 -0.00413,0.06453l0,-0.06689c0.00137,0.00079 0.00275,0.00158 0.00413,0.00236zM0.22913,2.28953c-0.00138,0.00078 -0.00275,0.00157 -0.00413,0.00236v-0.06689c0,0.02187 0.0014,0.04341 0.00413,0.06453zM0.2364,2.33164c0.02696,0.12408 0.09997,0.23098 0.20025,0.30188c-0.06336,0.03289 -0.13533,0.05147 -0.21165,0.05147l0,-0.3462c0.00376,-0.00244 0.00756,-0.00483 0.0114,-0.00716zM2.76335,2.13353c0.00392,-0.00278 0.00781,-0.00561 0.01165,-0.00849l0,0.01433c-0.00391,-0.00189 -0.0078,-0.00384 -0.01165,-0.00584zM2.725,1.725c-0.07415,0 -0.14453,0.01614 -0.20782,0.0451c-0.00144,-0.01484 -0.00218,-0.02988 -0.00218,-0.0451c0,-0.01522 0.00074,-0.03026 0.00218,-0.0451c0.06329,0.02896 0.13367,0.0451 0.20782,0.0451c0.01687,0 0.03355,-0.00084 0.05,-0.00247v0.00494c-0.01645,-0.00163 -0.03313,-0.00247 -0.05,-0.00247zM2.52313,1.81155c0.06094,-0.02981 0.12945,-0.04655 0.20187,-0.04655c0.01689,0 0.03358,0.00091 0.05,0.00269v0.30604c-0.01577,0.01358 -0.03247,0.02611 -0.05,0.03748c-0.00527,-0.00342 -0.01047,-0.00695 -0.01559,-0.01057c-0.02849,-0.11128 -0.09431,-0.20761 -0.18334,-0.27486c-0.00105,-0.00471 -0.00203,-0.00946 -0.00294,-0.01422zM2.47913,1.66047c-0.00272,0.02113 -0.00413,0.04266 -0.00413,0.06453c0,0.02187 0.0014,0.04341 0.00413,0.06453c-0.00138,0.00078 -0.00275,0.00157 -0.00413,0.00236c-0.00137,-0.00079 -0.00275,-0.00158 -0.00413,-0.00236c0.00272,-0.02113 0.00413,-0.04266 0.00413,-0.06453c0,-0.02187 -0.0014,-0.04341 -0.00413,-0.06453c0.00138,-0.00078 0.00275,-0.00157 0.00413,-0.00236c0.00137,0.00079 0.00275,0.00158 0.00413,0.00236zM2.27313,2.13845c0.00091,-0.00477 0.00189,-0.00951 0.00294,-0.01422c0.08902,-0.06724 0.15485,-0.16357 0.18334,-0.27486c0.00512,-0.00363 0.01032,-0.00715 0.01559,-0.01057c0.00527,0.00342 0.01047,0.00695 0.01559,0.01057c0.02849,0.11128 0.09431,0.20761 0.18334,0.27486c0.00105,0.00471 0.00203,0.00946 0.00294,0.01422c-0.06094,0.02981 -0.12945,0.04655 -0.20187,0.04655c-0.07242,0 -0.14093,-0.01673 -0.20187,-0.04655zM2.43282,1.6799c0.00144,0.01484 0.00218,0.02988 0.00218,0.0451c0,0.01522 -0.00074,0.03026 -0.00218,0.0451c-0.06329,-0.02896 -0.13367,-0.0451 -0.20782,-0.0451c-0.07415,0 -0.14453,0.01614 -0.20782,0.0451c-0.00144,-0.01484 -0.00218,-0.02988 -0.00218,-0.0451c0,-0.01522 0.00074,-0.03026 0.00218,-0.0451c0.06329,0.02896 0.13367,0.0451 0.20782,0.0451c0.07415,0 0.14453,-0.01614 0.20782,-0.0451zM2.02313,1.81155c0.06094,-0.02981 0.12945,-0.04655 0.20187,-0.04655c0.07242,0 0.14093,0.01673 0.20187,0.04655c-0.00091,0.00477 -0.00189,0.00951 -0.00294,0.01422c-0.08902,0.06724 -0.15485,0.16357 -0.18334,0.27486c-0.00512,0.00363 -0.01032,0.00715 -0.01559,0.01057c-0.00527,-0.00342 -0.01047,-0.00695 -0.01559,-0.01057c-0.02849,-0.11128 -0.09431,-0.20761 -0.18334,-0.27486c-0.00105,-0.00471 -0.00203,-0.00946 -0.00294,-0.01422zM1.97913,1.66047c-0.00272,0.02113 -0.00413,0.04266 -0.00413,0.06453c0,0.02187 0.0014,0.04341 0.00413,0.06453c-0.00138,0.00078 -0.00275,0.00157 -0.00413,0.00236c-0.00137,-0.00079 -0.00275,-0.00158 -0.00413,-0.00236c0.00272,-0.02113 0.00413,-0.04266 0.00413,-0.06453c0,-0.02187 -0.0014,-0.04341 -0.00413,-0.06453c0.00138,-0.00078 0.00275,-0.00157 0.00413,-0.00236c0.00137,0.00079 0.00275,0.00158 0.00413,0.00236zM1.77313,2.13845c0.00091,-0.00477 0.00189,-0.00951 0.00294,-0.01422c0.08902,-0.06724 0.15485,-0.16357 0.18334,-0.27486c0.00512,-0.00363 0.01032,-0.00715 0.01559,-0.01057c0.00527,0.00342 0.01047,0.00695 0.01559,0.01057c0.02849,0.11128 0.09431,0.20761 0.18334,0.27486c0.00105,0.00471 0.00203,0.00946 0.00294,0.01422c-0.06094,0.02981 -0.12945,0.04655 -0.20187,0.04655c-0.07242,0 -0.14093,-0.01673 -0.20187,-0.04655zM1.93282,1.6799c0.00144,0.01484 0.00218,0.02988 0.00218,0.0451c0,0.01522 -0.00074,0.03026 -0.00218,0.0451c-0.06329,-0.02896 -0.13367,-0.0451 -0.20782,-0.0451c-0.07415,0 -0.14453,0.01614 -0.20782,0.0451c-0.00144,-0.01484 -0.00218,-0.02988 -0.00218,-0.0451c0,-0.01522 0.00074,-0.03026 0.00218,-0.0451c0.06329,0.02896 0.13367,0.0451 0.20782,0.0451c0.07415,0 0.14453,-0.01614 0.20782,-0.0451zM1.52313,1.81155c0.06094,-0.02981 0.12945,-0.04655 0.20187,-0.04655c0.07242,0 0.14093,0.01673 0.20187,0.04655c-0.00091,0.00477 -0.00189,0.00951 -0.00294,0.01422c-0.08902,0.06724 -0.15485,0.16357 -0.18334,0.27486c-0.00512,0.00363 -0.01032,0.00715 -0.01559,0.01057c-0.00527,-0.00342 -0.01047,-0.00695 -0.01559,-0.01057c-0.02849,-0.11128 -0.09431,-0.20761 -0.18334,-0.27486c-0.00105,-0.00471 -0.00203,-0.00946 -0.00294,-0.01422zM1.47913,1.66047c-0.00272,0.02113 -0.00413,0.04266 -0.00413,0.06453c0,0.02187 0.0014,0.04341 0.00413,0.06453c-0.00138,0.00078 -0.00275,0.00157 -0.00413,0.00236c-0.00137,-0.00079 -0.00275,-0.00158 -0.00413,-0.00236c0.00272,-0.02113 0.00413,-0.04266 0.00413,-0.06453c0,-0.02187 -0.0014,-0.04341 -0.00413,-0.06453c0.00138,-0.00078 0.00275,-0.00157 0.00413,-0.00236c0.00137,0.00079 0.00275,0.00158 0.00413,0.00236zM1.27313,2.13845c0.00091,-0.00477 0.00189,-0.00951 0.00294,-0.01422c0.08902,-0.06724 0.15485,-0.16357 0.18334,-0.27486c0.00512,-0.00363 0.01032,-0.00715 0.01559,-0.01057c0.00527,0.00342 0.01047,0.00695 0.01559,0.01057c0.02849,0.11128 0.09431,0.20761 0.18334,0.27486c0.00105,0.00471 0.00203,0.00946 0.00294,0.01422c-0.06094,0.02981 -0.12945,0.04655 -0.20187,0.04655c-0.07242,0 -0.14093,-0.01673 -0.20187,-0.04655zM1.43282,1.6799c0.00144,0.01484 0.00218,0.02988 0.00218,0.0451c0,0.01522 -0.00074,0.03026 -0.00218,0.0451c-0.06329,-0.02896 -0.13367,-0.0451 -0.20782,-0.0451c-0.07415,0 -0.14453,0.01614 -0.20782,0.0451c-0.00144,-0.01484 -0.00218,-0.02988 -0.00218,-0.0451c0,-0.01522 0.00074,-0.03026 0.00218,-0.0451c0.06329,0.02896 0.13367,0.0451 0.20782,0.0451c0.07415,0 0.14453,-0.01614 0.20782,-0.0451zM1.02313,1.81155c0.06094,-0.02981 0.12945,-0.04655 0.20187,-0.04655c0.07242,0 0.14093,0.01673 0.20187,0.04655c-0.00091,0.00477 -0.00189,0.00951 -0.00294,0.01422c-0.08902,0.06724 -0.15485,0.16357 -0.18334,0.27486c-0.00512,0.00363 -0.01032,0.00715 -0.01559,0.01057c-0.00527,-0.00342 -0.01047,-0.00695 -0.01559,-0.01057c-0.02849,-0.11128 -0.09431,-0.20761 -0.18334,-0.27486c-0.00105,-0.00471 -0.00203,-0.00946 -0.00294,-0.01422zM0.97913,1.66047c-0.00272,0.02113 -0.00413,0.04266 -0.00413,0.06453c0,0.02187 0.0014,0.04341 0.00413,0.06453c-0.00138,0.00078 -0.00275,0.00157 -0.00413,0.00236c-0.00137,-0.00079 -0.00275,-0.00158 -0.00413,-0.00236c0.00272,-0.02113 0.00413,-0.04266 0.00413,-0.06453c0,-0.02187 -0.0014,-0.04341 -0.00413,-0.06453c0.00138,-0.00078 0.00275,-0.00157 0.00413,-0.00236c0.00137,0.00079 0.00275,0.00158 0.00413,0.00236zM0.77313,2.13845c0.00091,-0.00477 0.00189,-0.00951 0.00294,-0.01422c0.08902,-0.06724 0.15485,-0.16357 0.18334,-0.27486c0.00512,-0.00363 0.01032,-0.00715 0.01559,-0.01057c0.00527,0.00342 0.01047,0.00695 0.01559,0.01057c0.02849,0.11128 0.09431,0.20761 0.18334,0.27486c0.00105,0.00471 0.00203,0.00946 0.00294,0.01422c-0.06094,0.02981 -0.12945,0.04655 -0.20187,0.04655c-0.07242,0 -0.14093,-0.01673 -0.20187,-0.04655zM0.93282,1.6799c0.00144,0.01484 0.00218,0.02988 0.00218,0.0451c0,0.01522 -0.00074,0.03026 -0.00218,0.0451c-0.06329,-0.02896 -0.13367,-0.0451 -0.20782,-0.0451c-0.07415,0 -0.14453,0.01614 -0.20782,0.0451c-0.00144,-0.01484 -0.00218,-0.02988 -0.00218,-0.0451c0,-0.01522 0.00074,-0.03026 0.00218,-0.0451c0.06329,0.02896 0.13367,0.0451 0.20782,0.0451c0.07415,0 0.14453,-0.01614 0.20782,-0.0451zM0.52313,1.81155c0.06094,-0.02981 0.12945,-0.04655 0.20187,-0.04655c0.07242,0 0.14093,0.01673 0.20187,0.04655c-0.00091,0.00477 -0.00189,0.00951 -0.00294,0.01422c-0.08902,0.06724 -0.15485,0.16357 -0.18334,0.27486c-0.00512,0.00363 -0.01032,0.00715 -0.01559,0.01057c-0.00527,-0.00342 -0.01047,-0.00695 -0.01559,-0.01057c-0.02849,-0.11128 -0.09431,-0.20761 -0.18334,-0.27486c-0.00105,-0.00471 -0.00203,-0.00946 -0.00294,-0.01422zM0.47913,1.66047c-0.00272,0.02113 -0.00413,0.04266 -0.00413,0.06453c0,0.02187 0.0014,0.04341 0.00413,0.06453c-0.00138,0.00078 -0.00275,0.00157 -0.00413,0.00236c-0.07354,-0.04254 -0.15893,-0.06689 -0.25,-0.06689c0.09107,0 0.17646,-0.02435 0.25,-0.06689c0.00137,0.00079 0.00275,0.00158 0.00413,0.00236zM0.27313,2.13845c0.02386,-0.12534 0.09858,-0.23265 0.20187,-0.29965c0.00527,0.00342 0.01047,0.00695 0.01559,0.01057c0.02849,0.11128 0.09431,0.20761 0.18334,0.27486c0.00105,0.00471 0.00203,0.00946 0.00294,0.01422c-0.06094,0.02981 -0.12945,0.04655 -0.20187,0.04655c-0.07242,0 -0.14093,-0.01673 -0.20187,-0.04655zM0.43665,1.81647c-0.10028,0.07091 -0.17329,0.1778 -0.20025,0.30188c-0.00384,-0.00233 -0.00764,-0.00472 -0.0114,-0.00716v-0.3462c0.07632,0 0.14829,0.01858 0.21165,0.05147zM2.725,1.29189c-0.00137,-0.00079 -0.00275,-0.00158 -0.00413,-0.00236c0.00272,-0.02113 0.00413,-0.04266 0.00413,-0.06453c0,-0.02187 -0.0014,-0.04341 -0.00413,-0.06453c0.00138,-0.00078 0.00275,-0.00157 0.00413,-0.00236c0.01612,0.00932 0.03281,0.01778 0.05,0.02529v0.08321c-0.01719,0.00751 -0.03388,0.01596 -0.05,0.02529zM2.76335,1.31647c0.00385,-0.002 0.00773,-0.00395 0.01165,-0.00584l0,0.01433c-0.00384,-0.00288 -0.00772,-0.00571 -0.01165,-0.00849zM2.52313,1.63845c0.00091,-0.00477 0.00189,-0.00951 0.00294,-0.01422c0.08902,-0.06724 0.15485,-0.16357 0.18334,-0.27486c0.00512,-0.00363 0.01032,-0.00715 0.01559,-0.01057c0.01753,0.01137 0.03423,0.0239 0.05,0.03748l0,0.30604c-0.01642,0.00178 -0.03311,0.00269 -0.05,0.00269c-0.07242,0 -0.14093,-0.01673 -0.20187,-0.04655zM2.68282,1.1799c0.00144,0.01484 0.00218,0.02988 0.00218,0.0451c0,0.01522 -0.00074,0.03026 -0.00218,0.0451c-0.06329,-0.02896 -0.13367,-0.0451 -0.20782,-0.0451c-0.07415,0 -0.14453,0.01614 -0.20782,0.0451c-0.00144,-0.01484 -0.00218,-0.02988 -0.00218,-0.0451c0,-0.01522 0.00074,-0.03026 0.00218,-0.0451c0.06329,0.02896 0.13367,0.0451 0.20782,0.0451c0.07415,0 0.14453,-0.01614 0.20782,-0.0451zM2.27313,1.31155c0.06094,-0.02981 0.12945,-0.04655 0.20187,-0.04655c0.07242,0 0.14093,0.01673 0.20187,0.04655c-0.00091,0.00477 -0.00189,0.00951 -0.00294,0.01422c-0.08902,0.06724 -0.15485,0.16357 -0.18334,0.27486c-0.00512,0.00363 -0.01032,0.00715 -0.01559,0.01057c-0.00527,-0.00342 -0.01047,-0.00695 -0.01559,-0.01057c-0.02849,-0.11128 -0.09431,-0.20761 -0.18334,-0.27486c-0.00105,-0.00471 -0.00203,-0.00946 -0.00294,-0.01422zM2.22913,1.16047c-0.00272,0.02113 -0.00413,0.04266 -0.00413,0.06453c0,0.02187 0.0014,0.04341 0.00413,0.06453c-0.00138,0.00078 -0.00275,0.00157 -0.00413,0.00236c-0.00137,-0.00079 -0.00275,-0.00158 -0.00413,-0.00236c0.00272,-0.02113 0.00413,-0.04266 0.00413,-0.06453c0,-0.02187 -0.0014,-0.04341 -0.00413,-0.06453c0.00138,-0.00078 0.00275,-0.00157 0.00413,-0.00236c0.00137,0.00079 0.00275,0.00158 0.00413,0.00236zM2.02313,1.63845c0.00091,-0.00477 0.00189,-0.00951 0.00294,-0.01422c0.08902,-0.06724 0.15485,-0.16357 0.18334,-0.27486c0.00512,-0.00363 0.01032,-0.00715 0.01559,-0.01057c0.00527,0.00342 0.01047,0.00695 0.01559,0.01057c0.02849,0.11128 0.09431,0.20761 0.18334,0.27486c0.00105,0.00471 0.00203,0.00946 0.00294,0.01422c-0.06094,0.02981 -0.12945,0.04655 -0.20187,0.04655c-0.07242,0 -0.14093,-0.01673 -0.20187,-0.04655zM2.18282,1.1799c0.00144,0.01484 0.00218,0.02988 0.00218,0.0451c0,0.01522 -0.00074,0.03026 -0.00218,0.0451c-0.06329,-0.02896 -0.13367,-0.0451 -0.20782,-0.0451c-0.07415,0 -0.14453,0.01614 -0.20782,0.0451c-0.00144,-0.01484 -0.00218,-0.02988 -0.00218,-0.0451c0,-0.01522 0.00074,-0.03026 0.00218,-0.0451c0.06329,0.02896 0.13367,0.0451 0.20782,0.0451c0.07415,0 0.14453,-0.01614 0.20782,-0.0451zM1.77313,1.31155c0.06094,-0.02981 0.12945,-0.04655 0.20187,-0.04655c0.07242,0 0.14093,0.01673 0.20187,0.04655c-0.00091,0.00477 -0.00189,0.00951 -0.00294,0.01422c-0.08902,0.06724 -0.15485,0.16357 -0.18334,0.27486c-0.00512,0.00363 -0.01032,0.00715 -0.01559,0.01057c-0.00527,-0.00342 -0.01047,-0.00695 -0.01559,-0.01057c-0.02849,-0.11128 -0.09431,-0.20761 -0.18334,-0.27486c-0.00105,-0.00471 -0.00203,-0.00946 -0.00294,-0.01422zM1.72913,1.16047c-0.00272,0.02113 -0.00413,0.04266 -0.00413,0.06453c0,0.02187 0.0014,0.04341 0.00413,0.06453c-0.00138,0.00078 -0.00275,0.00157 -0.00413,0.00236c-0.00137,-0.00079 -0.00275,-0.00158 -0.00413,-0.00236c0.00272,-0.02113 0.00413,-0.04266 0.00413,-0.06453c0,-0.02187 -0.0014,-0.04341 -0.00413,-0.06453c0.00138,-0.00078 0.00275,-0.00157 0.00413,-0.00236c0.00137,0.00079 0.00275,0.00158 0.00413,0.00236zM1.52313,1.63845c0.00091,-0.00477 0.00189,-0.00951 0.00294,-0.01422c0.08902,-0.06724 0.15485,-0.16357 0.18334,-0.27486c0.00512,-0.00363 0.01032,-0.00715 0.01559,-0.01057c0.00527,0.00342 0.01047,0.00695 0.01559,0.01057c0.02849,0.11128 0.09431,0.20761 0.18334,0.27486c0.00105,0.00471 0.00203,0.00946 0.00294,0.01422c-0.06094,0.02981 -0.12945,0.04655 -0.20187,0.04655c-0.07242,0 -0.14093,-0.01673 -0.20187,-0.04655zM1.68282,1.1799c0.00144,0.01484 0.00218,0.02988 0.00218,0.0451c0,0.01522 -0.00074,0.03026 -0.00218,0.0451c-0.06329,-0.02896 -0.13367,-0.0451 -0.20782,-0.0451c-0.07415,0 -0.14453,0.01614 -0.20782,0.0451c-0.00144,-0.01484 -0.00218,-0.02988 -0.00218,-0.0451c0,-0.01522 0.00074,-0.03026 0.00218,-0.0451c0.06329,0.02896 0.13367,0.0451 0.20782,0.0451c0.07415,0 0.14453,-0.01614 0.20782,-0.0451zM1.27313,1.31155c0.06094,-0.02981 0.12945,-0.04655 0.20187,-0.04655c0.07242,0 0.14093,0.01673 0.20187,0.04655c-0.00091,0.00477 -0.00189,0.00951 -0.00294,0.01422c-0.08902,0.06724 -0.15485,0.16357 -0.18334,0.27486c-0.00512,0.00363 -0.01032,0.00715 -0.01559,0.01057c-0.00527,-0.00342 -0.01047,-0.00695 -0.01559,-0.01057c-0.02849,-0.11128 -0.09431,-0.20761 -0.18334,-0.27486c-0.00105,-0.00471 -0.00203,-0.00946 -0.00294,-0.01422zM1.22913,1.16047c-0.00272,0.02113 -0.00413,0.04266 -0.00413,0.06453c0,0.02187 0.0014,0.04341 0.00413,0.06453c-0.00138,0.00078 -0.00275,0.00157 -0.00413,0.00236c-0.00137,-0.00079 -0.00275,-0.00158 -0.00413,-0.00236c0.00272,-0.02113 0.00413,-0.04266 0.00413,-0.06453c0,-0.02187 -0.0014,-0.04341 -0.00413,-0.06453c0.00138,-0.00078 0.00275,-0.00157 0.00413,-0.00236c0.00137,0.00079 0.00275,0.00158 0.00413,0.00236zM1.02313,1.63845c0.00091,-0.00477 0.00189,-0.00951 0.00294,-0.01422c0.08902,-0.06724 0.15485,-0.16357 0.18334,-0.27486c0.00512,-0.00363 0.01032,-0.00715 0.01559,-0.01057c0.00527,0.00342 0.01047,0.00695 0.01559,0.01057c0.02849,0.11128 0.09431,0.20761 0.18334,0.27486c0.00105,0.00471 0.00203,0.00946 0.00294,0.01422c-0.06094,0.02981 -0.12945,0.04655 -0.20187,0.04655c-0.07242,0 -0.14093,-0.01673 -0.20187,-0.04655zM1.18282,1.1799c0.00144,0.01484 0.00218,0.02988 0.00218,0.0451c0,0.01522 -0.00074,0.03026 -0.00218,0.0451c-0.06329,-0.02896 -0.13367,-0.0451 -0.20782,-0.0451c-0.07415,0 -0.14453,0.01614 -0.20782,0.0451c-0.00144,-0.01484 -0.00218,-0.02988 -0.00218,-0.0451c0,-0.01522 0.00074,-0.03026 0.00218,-0.0451c0.06329,0.02896 0.13367,0.0451 0.20782,0.0451c0.07415,0 0.14453,-0.01614 0.20782,-0.0451zM0.77313,1.31155c0.06094,-0.02981 0.12945,-0.04655 0.20187,-0.04655c0.07242,0 0.14093,0.01673 0.20187,0.04655c-0.00091,0.00477 -0.00189,0.00951 -0.00294,0.01422c-0.08902,0.06724 -0.15485,0.16357 -0.18334,0.27486c-0.00512,0.00363 -0.01032,0.00715 -0.01559,0.01057c-0.00527,-0.00342 -0.01047,-0.00695 -0.01559,-0.01057c-0.02849,-0.11128 -0.09431,-0.20761 -0.18334,-0.27486c-0.00105,-0.00471 -0.00203,-0.00946 -0.00294,-0.01422zM0.72913,1.16047c-0.00272,0.02113 -0.00413,0.04266 -0.00413,0.06453c0,0.02187 0.0014,0.04341 0.00413,0.06453c-0.00138,0.00078 -0.00275,0.00157 -0.00413,0.00236c-0.00137,-0.00079 -0.00275,-0.00158 -0.00413,-0.00236c0.00272,-0.02113 0.00413,-0.04266 0.00413,-0.06453c0,-0.02187 -0.0014,-0.04341 -0.00413,-0.06453c0.00138,-0.00078 0.00275,-0.00157 0.00413,-0.00236c0.00137,0.00079 0.00275,0.00158 0.00413,0.00236zM0.52313,1.63845c0.00091,-0.00477 0.00189,-0.00951 0.00294,-0.01422c0.08902,-0.06724 0.15485,-0.16357 0.18334,-0.27486c0.00512,-0.00363 0.01032,-0.00715 0.01559,-0.01057c0.00527,0.00342 0.01047,0.00695 0.01559,0.01057c0.02849,0.11128 0.09431,0.20761 0.18334,0.27486c0.00105,0.00471 0.00203,0.00946 0.00294,0.01422c-0.06094,0.02981 -0.12945,0.04655 -0.20187,0.04655c-0.07242,0 -0.14093,-0.01673 -0.20187,-0.04655zM0.68282,1.1799c0.00144,0.01484 0.00218,0.02988 0.00218,0.0451c0,0.01522 -0.00074,0.03026 -0.00218,0.0451c-0.06329,-0.02896 -0.13367,-0.0451 -0.20782,-0.0451c-0.07415,0 -0.14453,0.01614 -0.20782,0.0451c-0.00144,-0.01484 -0.00218,-0.02988 -0.00218,-0.0451c0,-0.01522 0.00074,-0.03026 0.00218,-0.0451c0.06329,0.02896 0.13367,0.0451 0.20782,0.0451c0.07415,0 0.14453,-0.01614 0.20782,-0.0451zM0.27313,1.31155c0.06094,-0.02981 0.12945,-0.04655 0.20187,-0.04655c0.07242,0 0.14093,0.01673 0.20187,0.04655c-0.00091,0.00477 -0.00189,0.00951 -0.00294,0.01422c-0.08902,0.06724 -0.15485,0.16357 -0.18334,0.27486c-0.00512,0.00363 -0.01032,0.00715 -0.01559,0.01057c-0.10329,-0.067 -0.17801,-0.17431 -0.20187,-0.29965zM0.22913,1.16047c-0.00272,0.02113 -0.00413,0.04266 -0.00413,0.06453l0,-0.06689c0.00137,0.00079 0.00275,0.00158 0.00413,0.00236zM0.22913,1.28953c-0.00138,0.00078 -0.00275,0.00157 -0.00413,0.00236v-0.06689c0,0.02187 0.0014,0.04341 0.00413,0.06453zM0.2364,1.33164c0.02696,0.12408 0.09997,0.23098 0.20025,0.30188c-0.06336,0.03289 -0.13533,0.05147 -0.21165,0.05147l0,-0.3462c0.00376,-0.00244 0.00756,-0.00483 0.0114,-0.00716zM2.76335,1.13353c0.00392,-0.00278 0.00781,-0.00561 0.01165,-0.00849l0,0.01433c-0.00391,-0.00189 -0.0078,-0.00384 -0.01165,-0.00584zM2.725,0.725c-0.07415,0 -0.14453,0.01614 -0.20782,0.0451c-0.00144,-0.01484 -0.00218,-0.02988 -0.00218,-0.0451c0,-0.01522 0.00074,-0.03026 0.00218,-0.0451c0.06329,0.02896 0.13367,0.0451 0.20782,0.0451c0.01687,0 0.03355,-0.00084 0.05,-0.00247v0.00494c-0.01645,-0.00163 -0.03313,-0.00247 -0.05,-0.00247zM2.52313,0.81155c0.06094,-0.02981 0.12945,-0.04655 0.20187,-0.04655c0.01689,0 0.03358,0.00091 0.05,0.00269l0,0.30604c-0.01577,0.01358 -0.03247,0.02611 -0.05,0.03748c-0.00527,-0.00342 -0.01047,-0.00695 -0.01559,-0.01057c-0.02849,-0.11128 -0.09431,-0.20761 -0.18334,-0.27486c-0.00105,-0.00471 -0.00203,-0.00946 -0.00294,-0.01422zM2.47913,0.66047c-0.00272,0.02113 -0.00413,0.04266 -0.00413,0.06453c0,0.02187 0.0014,0.04341 0.00413,0.06453c-0.00138,0.00078 -0.00275,0.00157 -0.00413,0.00236c-0.00137,-0.00079 -0.00275,-0.00158 -0.00413,-0.00236c0.00272,-0.02113 0.00413,-0.04266 0.00413,-0.06453c0,-0.02187 -0.0014,-0.04341 -0.00413,-0.06453c0.00138,-0.00078 0.00275,-0.00157 0.00413,-0.00236c0.00137,0.00079 0.00275,0.00158 0.00413,0.00236zM2.27313,1.13845c0.00091,-0.00477 0.00189,-0.00951 0.00294,-0.01422c0.08902,-0.06724 0.15485,-0.16357 0.18334,-0.27486c0.00512,-0.00363 0.01032,-0.00715 0.01559,-0.01057c0.00527,0.00342 0.01047,0.00695 0.01559,0.01057c0.02849,0.11128 0.09431,0.20761 0.18334,0.27486c0.00105,0.00471 0.00203,0.00946 0.00294,0.01422c-0.06094,0.02981 -0.12945,0.04655 -0.20187,0.04655c-0.07242,0 -0.14093,-0.01673 -0.20187,-0.04655zM2.43282,0.6799c0.00144,0.01484 0.00218,0.02988 0.00218,0.0451c0,0.01522 -0.00074,0.03026 -0.00218,0.0451c-0.06329,-0.02896 -0.13367,-0.0451 -0.20782,-0.0451c-0.07415,0 -0.14453,0.01614 -0.20782,0.0451c-0.00144,-0.01484 -0.00218,-0.02988 -0.00218,-0.0451c0,-0.01522 0.00074,-0.03026 0.00218,-0.0451c0.06329,0.02896 0.13367,0.0451 0.20782,0.0451c0.07415,0 0.14453,-0.01614 0.20782,-0.0451zM2.02313,0.81155c0.06094,-0.02981 0.12945,-0.04655 0.20187,-0.04655c0.07242,0 0.14093,0.01673 0.20187,0.04655c-0.00091,0.00477 -0.00189,0.00951 -0.00294,0.01422c-0.08902,0.06724 -0.15485,0.16357 -0.18334,0.27486c-0.00512,0.00363 -0.01032,0.00715 -0.01559,0.01057c-0.00527,-0.00342 -0.01047,-0.00695 -0.01559,-0.01057c-0.02849,-0.11128 -0.09431,-0.20761 -0.18334,-0.27486c-0.00105,-0.00471 -0.00203,-0.00946 -0.00294,-0.01422zM1.97913,0.66047c-0.00272,0.02113 -0.00413,0.04266 -0.00413,0.06453c0,0.02187 0.0014,0.04341 0.00413,0.06453c-0.00138,0.00078 -0.00275,0.00157 -0.00413,0.00236c-0.00137,-0.00079 -0.00275,-0.00158 -0.00413,-0.00236c0.00272,-0.02113 0.00413,-0.04266 0.00413,-0.06453c0,-0.02187 -0.0014,-0.04341 -0.00413,-0.06453c0.00138,-0.00078 0.00275,-0.00157 0.00413,-0.00236c0.00137,0.00079 0.00275,0.00158 0.00413,0.00236zM1.77313,1.13845c0.00091,-0.00477 0.00189,-0.00951 0.00294,-0.01422c0.08902,-0.06724 0.15485,-0.16357 0.18334,-0.27486c0.00512,-0.00363 0.01032,-0.00715 0.01559,-0.01057c0.00527,0.00342 0.01047,0.00695 0.01559,0.01057c0.02849,0.11128 0.09431,0.20761 0.18334,0.27486c0.00105,0.00471 0.00203,0.00946 0.00294,0.01422c-0.06094,0.02981 -0.12945,0.04655 -0.20187,0.04655c-0.07242,0 -0.14093,-0.01673 -0.20187,-0.04655zM1.93282,0.6799c0.00144,0.01484 0.00218,0.02988 0.00218,0.0451c0,0.01522 -0.00074,0.03026 -0.00218,0.0451c-0.06329,-0.02896 -0.13367,-0.0451 -0.20782,-0.0451c-0.07415,0 -0.14453,0.01614 -0.20782,0.0451c-0.00144,-0.01484 -0.00218,-0.02988 -0.00218,-0.0451c0,-0.01522 0.00074,-0.03026 0.00218,-0.0451c0.06329,0.02896 0.13367,0.0451 0.20782,0.0451c0.07415,0 0.14453,-0.01614 0.20782,-0.0451zM1.52313,0.81155c0.06094,-0.02981 0.12945,-0.04655 0.20187,-0.04655c0.07242,0 0.14093,0.01673 0.20187,0.04655c-0.00091,0.00477 -0.00189,0.00951 -0.00294,0.01422c-0.08902,0.06724 -0.15485,0.16357 -0.18334,0.27486c-0.00512,0.00363 -0.01032,0.00715 -0.01559,0.01057c-0.00527,-0.00342 -0.01047,-0.00695 -0.01559,-0.01057c-0.02849,-0.11128 -0.09431,-0.20761 -0.18334,-0.27486c-0.00105,-0.00471 -0.00203,-0.00946 -0.00294,-0.01422zM1.47913,0.66047c-0.00272,0.02113 -0.00413,0.04266 -0.00413,0.06453c0,0.02187 0.0014,0.04341 0.00413,0.06453c-0.00138,0.00078 -0.00275,0.00157 -0.00413,0.00236c-0.00137,-0.00079 -0.00275,-0.00158 -0.00413,-0.00236c0.00272,-0.02113 0.00413,-0.04266 0.00413,-0.06453c0,-0.02187 -0.0014,-0.04341 -0.00413,-0.06453c0.00138,-0.00078 0.00275,-0.00157 0.00413,-0.00236c0.00137,0.00079 0.00275,0.00158 0.00413,0.00236zM1.27313,1.13845c0.00091,-0.00477 0.00189,-0.00951 0.00294,-0.01422c0.08902,-0.06724 0.15485,-0.16357 0.18334,-0.27486c0.00512,-0.00363 0.01032,-0.00715 0.01559,-0.01057c0.00527,0.00342 0.01047,0.00695 0.01559,0.01057c0.02849,0.11128 0.09431,0.20761 0.18334,0.27486c0.00105,0.00471 0.00203,0.00946 0.00294,0.01422c-0.06094,0.02981 -0.12945,0.04655 -0.20187,0.04655c-0.07242,0 -0.14093,-0.01673 -0.20187,-0.04655zM1.43282,0.6799c0.00144,0.01484 0.00218,0.02988 0.00218,0.0451c0,0.01522 -0.00074,0.03026 -0.00218,0.0451c-0.06329,-0.02896 -0.13367,-0.0451 -0.20782,-0.0451c-0.07415,0 -0.14453,0.01614 -0.20782,0.0451c-0.00144,-0.01484 -0.00218,-0.02988 -0.00218,-0.0451c0,-0.01522 0.00074,-0.03026 0.00218,-0.0451c0.06329,0.02896 0.13367,0.0451 0.20782,0.0451c0.07415,0 0.14453,-0.01614 0.20782,-0.0451zM1.02313,0.81155c0.06094,-0.02981 0.12945,-0.04655 0.20187,-0.04655c0.07242,0 0.14093,0.01673 0.20187,0.04655c-0.00091,0.00477 -0.00189,0.00951 -0.00294,0.01422c-0.08902,0.06724 -0.15485,0.16357 -0.18334,0.27486c-0.00512,0.00363 -0.01032,0.00715 -0.01559,0.01057c-0.00527,-0.00342 -0.01047,-0.00695 -0.01559,-0.01057c-0.02849,-0.11128 -0.09431,-0.20761 -0.18334,-0.27486c-0.00105,-0.00471 -0.00203,-0.00946 -0.00294,-0.01422zM0.97913,0.66047c-0.00272,0.02113 -0.00413,0.04266 -0.00413,0.06453c0,0.02187 0.0014,0.04341 0.00413,0.06453c-0.00138,0.00078 -0.00275,0.00157 -0.00413,0.00236c-0.00137,-0.00079 -0.00275,-0.00158 -0.00413,-0.00236c0.00272,-0.02113 0.00413,-0.04266 0.00413,-0.06453c0,-0.02187 -0.0014,-0.04341 -0.00413,-0.06453c0.00138,-0.00078 0.00275,-0.00157 0.00413,-0.00236c0.00137,0.00079 0.00275,0.00158 0.00413,0.00236zM0.77313,1.13845c0.00091,-0.00477 0.00189,-0.00951 0.00294,-0.01422c0.08902,-0.06724 0.15485,-0.16357 0.18334,-0.27486c0.00512,-0.00363 0.01032,-0.00715 0.01559,-0.01057c0.00527,0.00342 0.01047,0.00695 0.01559,0.01057c0.02849,0.11128 0.09431,0.20761 0.18334,0.27486c0.00105,0.00471 0.00203,0.00946 0.00294,0.01422c-0.06094,0.02981 -0.12945,0.04655 -0.20187,0.04655c-0.07242,0 -0.14093,-0.01673 -0.20187,-0.04655zM0.93282,0.6799c0.00144,0.01484 0.00218,0.02988 0.00218,0.0451c0,0.01522 -0.00074,0.03026 -0.00218,0.0451c-0.06329,-0.02896 -0.13367,-0.0451 -0.20782,-0.0451c-0.07415,0 -0.14453,0.01614 -0.20782,0.0451c-0.00144,-0.01484 -0.00218,-0.02988 -0.00218,-0.0451c0,-0.01522 0.00074,-0.03026 0.00218,-0.0451c0.06329,0.02896 0.13367,0.0451 0.20782,0.0451c0.07415,0 0.14453,-0.01614 0.20782,-0.0451zM0.52313,0.81155c0.06094,-0.02981 0.12945,-0.04655 0.20187,-0.04655c0.07242,0 0.14093,0.01673 0.20187,0.04655c-0.00091,0.00477 -0.00189,0.00951 -0.00294,0.01422c-0.08902,0.06724 -0.15485,0.16357 -0.18334,0.27486c-0.00512,0.00363 -0.01032,0.00715 -0.01559,0.01057c-0.00527,-0.00342 -0.01047,-0.00695 -0.01559,-0.01057c-0.02849,-0.11128 -0.09431,-0.20761 -0.18334,-0.27486c-0.00105,-0.00471 -0.00203,-0.00946 -0.00294,-0.01422zM0.47913,0.66047c-0.00272,0.02113 -0.00413,0.04266 -0.00413,0.06453c0,0.02187 0.0014,0.04341 0.00413,0.06453c-0.00138,0.00078 -0.00275,0.00157 -0.00413,0.00236c-0.07354,-0.04254 -0.15893,-0.06689 -0.25,-0.06689c0.09107,0 0.17646,-0.02435 0.25,-0.06689c0.00137,0.00079 0.00275,0.00158 0.00413,0.00236zM0.27313,1.13845c0.02386,-0.12534 0.09858,-0.23265 0.20187,-0.29965c0.00527,0.00342 0.01047,0.00695 0.01559,0.01057c0.02849,0.11128 0.09431,0.20761 0.18334,0.27486c0.00105,0.00471 0.00203,0.00946 0.00294,0.01422c-0.06094,0.02981 -0.12945,0.04655 -0.20187,0.04655c-0.07242,0 -0.14093,-0.01673 -0.20187,-0.04655zM0.43665,0.81647c-0.10028,0.07091 -0.17329,0.1778 -0.20025,0.30188c-0.00384,-0.00233 -0.00764,-0.00472 -0.0114,-0.00716v-0.3462c0.07632,0 0.14829,0.01858 0.21165,0.05147zM2.76335,0.31647c0.00385,-0.002 0.00773,-0.00395 0.01165,-0.00584v0.01433c-0.00384,-0.00288 -0.00772,-0.00571 -0.01165,-0.00849zM2.52313,0.63845c0.00091,-0.00477 0.00189,-0.00951 0.00294,-0.01422c0.08902,-0.06724 0.15485,-0.16357 0.18334,-0.27486c0.00512,-0.00363 0.01032,-0.00715 0.01559,-0.01057c0.01753,0.01137 0.03423,0.0239 0.05,0.03748l0,0.30604c-0.01642,0.00178 -0.03311,0.00269 -0.05,0.00269c-0.07242,0 -0.14093,-0.01673 -0.20187,-0.04655zM2.22913,0.28953c-0.00138,0.00078 -0.00275,0.00157 -0.00413,0.00236c-0.00137,-0.00079 -0.00275,-0.00158 -0.00413,-0.00236c0.00272,-0.02113 0.00413,-0.04266 0.00413,-0.06453c0,0.02187 0.0014,0.04341 0.00413,0.06453zM2.02313,0.63845c0.00091,-0.00477 0.00189,-0.00951 0.00294,-0.01422c0.08902,-0.06724 0.15485,-0.16357 0.18334,-0.27486c0.00512,-0.00363 0.01032,-0.00715 0.01559,-0.01057c0.00527,0.00342 0.01047,0.00695 0.01559,0.01057c0.02849,0.11128 0.09431,0.20761 0.18334,0.27486c0.00105,0.00471 0.00203,0.00946 0.00294,0.01422c-0.06094,0.02981 -0.12945,0.04655 -0.20187,0.04655c-0.07242,0 -0.14093,-0.01673 -0.20187,-0.04655zM2.68282,0.2701c-0.06329,-0.02896 -0.13367,-0.0451 -0.20782,-0.0451c-0.07415,0 -0.14453,0.01614 -0.20782,0.0451c-0.00144,-0.01484 -0.00218,-0.02988 -0.00218,-0.0451h0.42c0,0.01522 -0.00074,0.03026 -0.00218,0.0451zM2.27313,0.31155c0.06094,-0.02981 0.12945,-0.04655 0.20187,-0.04655c0.07242,0 0.14093,0.01673 0.20187,0.04655c-0.00091,0.00477 -0.00189,0.00951 -0.00294,0.01422c-0.08902,0.06724 -0.15485,0.16357 -0.18334,0.27486c-0.00512,0.00363 -0.01032,0.00715 -0.01559,0.01057c-0.00527,-0.00342 -0.01047,-0.00695 -0.01559,-0.01057c-0.02849,-0.11128 -0.09431,-0.20761 -0.18334,-0.27486c-0.00105,-0.00471 -0.00203,-0.00946 -0.00294,-0.01422zM1.72913,0.28953c-0.00138,0.00078 -0.00275,0.00157 -0.00413,0.00236c-0.00137,-0.00079 -0.00275,-0.00158 -0.00413,-0.00236c0.00272,-0.02113 0.00413,-0.04266 0.00413,-0.06453c0,0.02187 0.0014,0.04341 0.00413,0.06453zM1.52313,0.63845c0.00091,-0.00477 0.00189,-0.00951 0.00294,-0.01422c0.08902,-0.06724 0.15485,-0.16357 0.18334,-0.27486c0.00512,-0.00363 0.01032,-0.00715 0.01559,-0.01057c0.00527,0.00342 0.01047,0.00695 0.01559,0.01057c0.02849,0.11128 0.09431,0.20761 0.18334,0.27486c0.00105,0.00471 0.00203,0.00946 0.00294,0.01422c-0.06094,0.02981 -0.12945,0.04655 -0.20187,0.04655c-0.07242,0 -0.14093,-0.01673 -0.20187,-0.04655zM2.18282,0.2701c-0.06329,-0.02896 -0.13367,-0.0451 -0.20782,-0.0451c-0.07415,0 -0.14453,0.01614 -0.20782,0.0451c-0.00144,-0.01484 -0.00218,-0.02988 -0.00218,-0.0451h0.42c0,0.01522 -0.00074,0.03026 -0.00218,0.0451zM1.77313,0.31155c0.06094,-0.02981 0.12945,-0.04655 0.20187,-0.04655c0.07242,0 0.14093,0.01673 0.20187,0.04655c-0.00091,0.00477 -0.00189,0.00951 -0.00294,0.01422c-0.08902,0.06724 -0.15485,0.16357 -0.18334,0.27486c-0.00512,0.00363 -0.01032,0.00715 -0.01559,0.01057c-0.00527,-0.00342 -0.01047,-0.00695 -0.01559,-0.01057c-0.02849,-0.11128 -0.09431,-0.20761 -0.18334,-0.27486c-0.00105,-0.00471 -0.00203,-0.00946 -0.00294,-0.01422zM1.22913,0.28953c-0.00138,0.00078 -0.00275,0.00157 -0.00413,0.00236c-0.00137,-0.00079 -0.00275,-0.00158 -0.00413,-0.00236c0.00272,-0.02113 0.00413,-0.04266 0.00413,-0.06453c0,0.02187 0.0014,0.04341 0.00413,0.06453zM1.02313,0.63845c0.00091,-0.00477 0.00189,-0.00951 0.00294,-0.01422c0.08902,-0.06724 0.15485,-0.16357 0.18334,-0.27486c0.00512,-0.00363 0.01032,-0.00715 0.01559,-0.01057c0.00527,0.00342 0.01047,0.00695 0.01559,0.01057c0.02849,0.11128 0.09431,0.20761 0.18334,0.27486c0.00105,0.00471 0.00203,0.00946 0.00294,0.01422c-0.06094,0.02981 -0.12945,0.04655 -0.20187,0.04655c-0.07242,0 -0.14093,-0.01673 -0.20187,-0.04655zM1.68282,0.2701c-0.06329,-0.02896 -0.13367,-0.0451 -0.20782,-0.0451c-0.07415,0 -0.14453,0.01614 -0.20782,0.0451c-0.00144,-0.01484 -0.00218,-0.02988 -0.00218,-0.0451h0.42c0,0.01522 -0.00074,0.03026 -0.00218,0.0451zM1.27313,0.31155c0.06094,-0.02981 0.12945,-0.04655 0.20187,-0.04655c0.07242,0 0.14093,0.01673 0.20187,0.04655c-0.00091,0.00477 -0.00189,0.00951 -0.00294,0.01422c-0.08902,0.06724 -0.15485,0.16357 -0.18334,0.27486c-0.00512,0.00363 -0.01032,0.00715 -0.01559,0.01057c-0.00527,-0.00342 -0.01047,-0.00695 -0.01559,-0.01057c-0.02849,-0.11128 -0.09431,-0.20761 -0.18334,-0.27486c-0.00105,-0.00471 -0.00203,-0.00946 -0.00294,-0.01422zM0.72913,0.28953c-0.00138,0.00078 -0.00275,0.00157 -0.00413,0.00236c-0.00137,-0.00079 -0.00275,-0.00158 -0.00413,-0.00236c0.00272,-0.02113 0.00413,-0.04266 0.00413,-0.06453c0,0.02187 0.0014,0.04341 0.00413,0.06453zM0.52313,0.63845c0.00091,-0.00477 0.00189,-0.00951 0.00294,-0.01422c0.08902,-0.06724 0.15485,-0.16357 0.18334,-0.27486c0.00512,-0.00363 0.01032,-0.00715 0.01559,-0.01057c0.00527,0.00342 0.01047,0.00695 0.01559,0.01057c0.02849,0.11128 0.09431,0.20761 0.18334,0.27486c0.00105,0.00471 0.00203,0.00946 0.00294,0.01422c-0.06094,0.02981 -0.12945,0.04655 -0.20187,0.04655c-0.07242,0 -0.14093,-0.01673 -0.20187,-0.04655zM1.18282,0.2701c-0.06329,-0.02896 -0.13367,-0.0451 -0.20782,-0.0451c-0.07415,0 -0.14453,0.01614 -0.20782,0.0451c-0.00144,-0.01484 -0.00218,-0.02988 -0.00218,-0.0451h0.42c0,0.01522 -0.00074,0.03026 -0.00218,0.0451zM0.77313,0.31155c0.06094,-0.02981 0.12945,-0.04655 0.20187,-0.04655c0.07242,0 0.14093,0.01673 0.20187,0.04655c-0.00091,0.00477 -0.00189,0.00951 -0.00294,0.01422c-0.08902,0.06724 -0.15485,0.16357 -0.18334,0.27486c-0.00512,0.00363 -0.01032,0.00715 -0.01559,0.01057c-0.00527,-0.00342 -0.01047,-0.00695 -0.01559,-0.01057c-0.02849,-0.11128 -0.09431,-0.20761 -0.18334,-0.27486c-0.00105,-0.00471 -0.00203,-0.00946 -0.00294,-0.01422zM0.2364,0.33164c0.02696,0.12408 0.09997,0.23098 0.20025,0.30188c-0.06336,0.03289 -0.13533,0.05147 -0.21165,0.05147l0,-0.3462c0.00376,-0.00244 0.00756,-0.00483 0.0114,-0.00716zM0.22913,0.28953c-0.00138,0.00078 -0.00275,0.00157 -0.00413,0.00236v-0.06689c0,0.02187 0.0014,0.04341 0.00413,0.06453zM0.68282,0.2701c-0.06329,-0.02896 -0.13367,-0.0451 -0.20782,-0.0451c-0.07415,0 -0.14453,0.01614 -0.20782,0.0451c-0.00144,-0.01484 -0.00218,-0.02988 -0.00218,-0.0451h0.42c0,0.01522 -0.00074,0.03026 -0.00218,0.0451zM0.27313,0.31155c0.06094,-0.02981 0.12945,-0.04655 0.20187,-0.04655c0.07242,0 0.14093,0.01673 0.20187,0.04655c-0.00091,0.00477 -0.00189,0.00951 -0.00294,0.01422c-0.08902,0.06724 -0.15485,0.16357 -0.18334,0.27486c-0.00512,0.00363 -0.01032,0.00715 -0.01559,0.01057c-0.10329,-0.067 -0.17801,-0.17431 -0.20187,-0.29965zM0.90129,0.55182c-0.04382,-0.04341 -0.07896,-0.09556 -0.10257,-0.15363c0.04382,0.04341 0.07896,0.09556 0.10257,0.15363zM1.40129,0.55182c-0.04382,-0.04341 -0.07896,-0.09556 -0.10257,-0.15363c0.04382,0.04341 0.07896,0.09556 0.10257,0.15363zM0.65129,0.39818c-0.02362,0.05807 -0.05875,0.11023 -0.10257,0.15363c0.02362,-0.05807 0.05875,-0.11023 0.10257,-0.15363zM1.90129,0.55182c-0.04382,-0.04341 -0.07896,-0.09556 -0.10257,-0.15363c0.04382,0.04341 0.07896,0.09556 0.10257,0.15363zM1.15129,0.39818c-0.02362,0.05807 -0.05875,0.11023 -0.10257,0.15363c0.02362,-0.05807 0.05875,-0.11023 0.10257,-0.15363zM2.40129,0.55182c-0.04382,-0.04341 -0.07896,-0.09556 -0.10257,-0.15363c0.04382,0.04341 0.07896,0.09556 0.10257,0.15363zM1.65129,0.39818c-0.02362,0.05807 -0.05875,0.11023 -0.10257,0.15363c0.02362,-0.05807 0.05875,-0.11023 0.10257,-0.15363zM2.15129,0.39818c-0.02362,0.05807 -0.05875,0.11023 -0.10257,0.15363c0.02362,-0.05807 0.05875,-0.11023 0.10257,-0.15363zM2.65129,0.39818c-0.02362,0.05807 -0.05875,0.11023 -0.10257,0.15363c0.02362,-0.05807 0.05875,-0.11023 0.10257,-0.15363zM0.65129,1.05182c-0.04382,-0.04341 -0.07896,-0.09556 -0.10257,-0.15363c0.04382,0.04341 0.07896,0.09556 0.10257,0.15363zM1.15129,1.05182c-0.04382,-0.04341 -0.07896,-0.09556 -0.10257,-0.15363c0.04382,0.04341 0.07896,0.09556 0.10257,0.15363zM1.65129,1.05182c-0.04382,-0.04341 -0.07896,-0.09556 -0.10257,-0.15363c0.04382,0.04341 0.07896,0.09556 0.10257,0.15363zM0.90129,0.89818c-0.02362,0.05807 -0.05875,0.11023 -0.10257,0.15363c0.02362,-0.05807 0.05875,-0.11023 0.10257,-0.15363zM2.15129,1.05182c-0.04382,-0.04341 -0.07896,-0.09556 -0.10257,-0.15363c0.04382,0.04341 0.07896,0.09556 0.10257,0.15363zM1.40129,0.89818c-0.02362,0.05807 -0.05875,0.11023 -0.10257,0.15363c0.02362,-0.05807 0.05875,-0.11023 0.10257,-0.15363zM2.65129,1.05182c-0.04382,-0.04341 -0.07896,-0.09556 -0.10257,-0.15363c0.04382,0.04341 0.07896,0.09556 0.10257,0.15363zM1.90129,0.89818c-0.02362,0.05807 -0.05875,0.11023 -0.10257,0.15363c0.02362,-0.05807 0.05875,-0.11023 0.10257,-0.15363zM2.40129,0.89818c-0.02362,0.05807 -0.05875,0.11023 -0.10257,0.15363c0.02362,-0.05807 0.05875,-0.11023 0.10257,-0.15363zM0.90129,1.55182c-0.04382,-0.04341 -0.07896,-0.09556 -0.10257,-0.15363c0.04382,0.04341 0.07896,0.09556 0.10257,0.15363zM1.40129,1.55182c-0.04382,-0.04341 -0.07896,-0.09556 -0.10257,-0.15363c0.04382,0.04341 0.07896,0.09556 0.10257,0.15363zM0.65129,1.39818c-0.02362,0.05807 -0.05875,0.11023 -0.10257,0.15363c0.02362,-0.05807 0.05875,-0.11023 0.10257,-0.15363zM1.90129,1.55182c-0.04382,-0.04341 -0.07896,-0.09556 -0.10257,-0.15363c0.04382,0.04341 0.07896,0.09556 0.10257,0.15363zM1.15129,1.39818c-0.02362,0.05807 -0.05875,0.11023 -0.10257,0.15363c0.02362,-0.05807 0.05875,-0.11023 0.10257,-0.15363zM2.40129,1.55182c-0.04382,-0.04341 -0.07896,-0.09556 -0.10257,-0.15363c0.04382,0.04341 0.07896,0.09556 0.10257,0.15363zM1.65129,1.39818c-0.02362,0.05807 -0.05875,0.11023 -0.10257,0.15363c0.02362,-0.05807 0.05875,-0.11023 0.10257,-0.15363zM2.15129,1.39818c-0.02362,0.05807 -0.05875,0.11023 -0.10257,0.15363c0.02362,-0.05807 0.05875,-0.11023 0.10257,-0.15363zM2.65129,1.39818c-0.02362,0.05807 -0.05875,0.11023 -0.10257,0.15363c0.02362,-0.05807 0.05875,-0.11023 0.10257,-0.15363zM0.65129,2.05182c-0.04382,-0.04341 -0.07896,-0.09556 -0.10257,-0.15363c0.04382,0.04341 0.07896,0.09556 0.10257,0.15363zM1.15129,2.05182c-0.04382,-0.04341 -0.07896,-0.09556 -0.10257,-0.15363c0.04382,0.04341 0.07896,0.09556 0.10257,0.15363zM1.65129,2.05182c-0.04382,-0.04341 -0.07896,-0.09556 -0.10257,-0.15363c0.04382,0.04341 0.07896,0.09556 0.10257,0.15363zM0.90129,1.89818c-0.02362,0.05807 -0.05875,0.11023 -0.10257,0.15363c0.02362,-0.05807 0.05875,-0.11023 0.10257,-0.15363zM2.15129,2.05182c-0.04382,-0.04341 -0.07896,-0.09556 -0.10257,-0.15363c0.04382,0.04341 0.07896,0.09556 0.10257,0.15363zM1.40129,1.89818c-0.02362,0.05807 -0.05875,0.11023 -0.10257,0.15363c0.02362,-0.05807 0.05875,-0.11023 0.10257,-0.15363zM2.65129,2.05182c-0.04382,-0.04341 -0.07896,-0.09556 -0.10257,-0.15363c0.04382,0.04341 0.07896,0.09556 0.10257,0.15363zM1.90129,1.89818c-0.02362,0.05807 -0.05875,0.11023 -0.10257,0.15363c0.02362,-0.05807 0.05875,-0.11023 0.10257,-0.15363zM2.40129,1.89818c-0.02362,0.05807 -0.05875,0.11023 -0.10257,0.15363c0.02362,-0.05807 0.05875,-0.11023 0.10257,-0.15363zM0.90129,2.55182c-0.04382,-0.04341 -0.07896,-0.09556 -0.10257,-0.15363c0.04382,0.04341 0.07896,0.09556 0.10257,0.15363zM1.40129,2.55182c-0.04382,-0.04341 -0.07896,-0.09556 -0.10257,-0.15363c0.04382,0.04341 0.07896,0.09556 0.10257,0.15363zM0.65129,2.39818c-0.02362,0.05807 -0.05875,0.11023 -0.10257,0.15363c0.02362,-0.05807 0.05875,-0.11023 0.10257,-0.15363zM1.90129,2.55182c-0.04382,-0.04341 -0.07896,-0.09556 -0.10257,-0.15363c0.04382,0.04341 0.07896,0.09556 0.10257,0.15363zM1.15129,2.39818c-0.02362,0.05807 -0.05875,0.11023 -0.10257,0.15363c0.02362,-0.05807 0.05875,-0.11023 0.10257,-0.15363zM2.40129,2.55182c-0.04382,-0.04341 -0.07896,-0.09556 -0.10257,-0.15363c0.04382,0.04341 0.07896,0.09556 0.10257,0.15363zM1.65129,2.39818c-0.02362,0.05807 -0.05875,0.11023 -0.10257,0.15363c0.02362,-0.05807 0.05875,-0.11023 0.10257,-0.15363zM2.15129,2.39818c-0.02362,0.05807 -0.05875,0.11023 -0.10257,0.15363c0.02362,-0.05807 0.05875,-0.11023 0.10257,-0.15363zM2.65129,2.39818c-0.02362,0.05807 -0.05875,0.11023 -0.10257,0.15363c0.02362,-0.05807 0.05875,-0.11023 0.10257,-0.15363zM0.225,2.775v-0.01c0.03287,0 0.06493,0.00345 0.09585,0.01z"></path></g></svg>