<svg version="1.1" xmlns="http://www.w3.org/2000/svg" xmlns:xlink="http://www.w3.org/1999/xlink" width="3in" height="3in" viewBox="0 0 3.05 3.05"><g fill="#d3d3d3" fill-rule="evenodd" stroke="#ff0000" stroke-width="0.005" stroke-linecap="butt" stroke-linejoin="miter" stroke-miterlimit="10" stroke-dasharray="" stroke-dashoffset="0" font-family="none" font-weight="none" font-size="none" text-anchor="none" style="mix-blend-mode: normal"><path d="M0,3v-3h3v3zM1.38651,1.56782c0,-0.02209 0.01791,-0.04 0.04,-0.04c0.02209,0 0.04,0.01791 0.04,0.04c0,0.02209 -0.01791,0.04 -0.04,0.04c-0.02209,0 -0.04,-0.01791 -0.04,-0.04zM1.47134,1.35903c0,-0.02209 0.01791,-0.04 0.04,-0.04c0.02209,0 0.04,0.01791 0.04,0.04c0,0.02209 -0.01791,0.04 -0.04,0.04c-0.02209,0 -0.04,-0.01791 -0.04,-0.04zM1.56687,1.6363c0,-0.02209 0.01791,-0.04 0.04,-0.04c0.02209,0 0.04,0.01791 0.04,0.04c0,0.02209 -0.01791,0.04 -0.04,0.04c-0.02209,0 -0.04,-0.01791 -0.04,-0.04zM1.26257,1.46802c0,-0.02209 0.01791,-0.04 0.04,-0.04c0.02209,0 0.04,0.01791 0.04,0.04c0,0.02209 -0.01791,0.04 -0.04,0.04c-0.02209,0 -0.04,-0.01791 -0.04,-0.04zM1.64646,1.37658c0,-0.02209 0.01791,-0.04 0.04,-0.04c0.02209,0 0.04,0.01791 0.04,0.04c0,0.02209 -0.01791,0.04 -0.04,0.04c-0.02209,0 -0.04,-0.01791 -0.04,-0.04zM1.40157,1.73788c0,-0.02209 0.01791,-0.04 0.04,-0.04c0.02209,0 0.04,0.01791 0.04,0.04c0,0.02209 -0.01791,0.04 -0.04,0.04c-0.02209,0 -0.04,-0.01791 -0.04,-0.04zM1.33214,1.26837c0,-0.02209 0.01791,-0.04 0.04,-0.04c0.02209,0 0.04,0.01791 0.04,0.04c0,0.02209 -0.01791,0.04 -0.04,0.04c-0.02209,0 -0.04,-0.01791 -0.04,-0.04zM1.72838,1.58928c0,-0.02209 0.01791,-0.04 0.04,-0.04c0.02209,0 0.04,0.01791 0.04,0.04c0,0.02209 -0.01791,0.04 -0.04,0.04c-0.02209,0 -0.04,-0.01791 -0.04,-0.04zM1.18658,1.62345c0,-0.02209 0.01791,-0.04 0.04,-0.04c0.02209,0 0.04,0.01791 0.04,0.04c0,0.02209 -0.01791,0.04 -0.04,0.04c-0.02209,0 -0.04,-0.01791 -0.04,-0.04zM1.58356,1.20891c0,-0.02209 0.01791,-0.04 0.04,-0.04c0.02209,0 0.04,0.01791 0.04,0.04c0,0.02209 -0.01791,0.04 -0.04,0.04c-0.02209,0 -0.04,-0.01791 -0.04,-0.04zM1.5718,1.81225c0,-0.02209 0.01791,-0.04 0.04,-0.04c0.02209,0 0.04,0.01791 0.04,0.04c0,0.02209 -0.01791,0.04 -0.04,0.04c-0.02209,0 -0.04,-0.01791 -0.04,-0.04zM1.15301,1.33951c0,-0.02209 0.01791,-0.04 0.04,-0.04c0.02209,0 0.04,0.01791 0.04,0.04c0,0.02209 -0.01791,0.04 -0.04,0.04c-0.02209,0 -0.04,-0.01791 -0.04,-0.04zM1.80811,1.40607c0,-0.02209 0.01791,-0.04 0.04,-0.04c0.02209,0 0.04,0.01791 0.04,0.04c0,0.02209 -0.01791,0.04 -0.04,0.04c-0.02209,0 -0.04,-0.01791 -0.04,-0.04zM1.26062,1.81662c0,-0.02209 0.01791,-0.04 0.04,-0.04c0.02209,0 0.04,0.01791 0.04,0.04c0,0.02209 -0.01791,0.04 -0.04,0.04c-0.02209,0 -0.04,-0.01791 -0.04,-0.04zM1.38942,1.11919c0,-0.02209 0.01791,-0.04 0.04,-0.04c0.02209,0 0.04,0.01791 0.04,0.04c0,0.02209 -0.01791,0.04 -0.04,0.04c-0.02209,0 -0.04,-0.01791 -0.04,-0.04zM1.78029,1.73961c0,-0.02209 0.01791,-0.04 0.04,-0.04c0.02209,0 0.04,0.01791 0.04,0.04c0,0.02209 -0.01791,0.04 -0.04,0.04c-0.02209,0 -0.04,-0.01791 -0.04,-0.04zM1.04987,1.54238c0,-0.02209 0.01791,-0.04 0.04,-0.04c0.02209,0 0.04,0.01791 0.04,0.04c0,0.02209 -0.01791,0.04 -0.04,0.04c-0.02209,0 -0.04,-0.01791 -0.04,-0.04zM1.74057,1.18175c0,-0.02209 0.01791,-0.04 0.04,-0.04c0.02209,0 0.04,0.01791 0.04,0.04c0,0.02209 -0.01791,0.04 -0.04,0.04c-0.02209,0 -0.04,-0.01791 -0.04,-0.04zM1.46989,1.93578c0,-0.02209 0.01791,-0.04 0.04,-0.04c0.02209,0 0.04,0.01791 0.04,0.04c0,0.02209 -0.01791,0.04 -0.04,0.04c-0.02209,0 -0.04,-0.01791 -0.04,-0.04zM1.14934,1.1783c0,-0.02209 0.01791,-0.04 0.04,-0.04c0.02209,0 0.04,0.01791 0.04,0.04c0,0.02209 -0.01791,0.04 -0.04,0.04c-0.02209,0 -0.04,-0.01791 -0.04,-0.04zM1.9175,1.52638c0,-0.02209 0.01791,-0.04 0.04,-0.04c0.02209,0 0.04,0.01791 0.04,0.04c0,0.02209 -0.01791,0.04 -0.04,0.04c-0.02209,0 -0.04,-0.01791 -0.04,-0.04zM1.09756,1.79772c0,-0.02209 0.01791,-0.04 0.04,-0.04c0.02209,0 0.04,0.01791 0.04,0.04c0,0.02209 -0.01791,0.04 -0.04,0.04c-0.02209,0 -0.04,-0.01791 -0.04,-0.04zM1.52592,1.02497c0,-0.02209 0.01791,-0.04 0.04,-0.04c0.02209,0 0.04,0.01791 0.04,0.04c0,0.02209 -0.01791,0.04 -0.04,0.04c-0.02209,0 -0.04,-0.01791 -0.04,-0.04zM1.73959,1.90228c0,-0.02209 0.01791,-0.04 0.04,-0.04c0.02209,0 0.04,0.01791 0.04,0.04c0,0.02209 -0.01791,0.04 -0.04,0.04c-0.02209,0 -0.04,-0.01791 -0.04,-0.04zM0.97185,1.39178c0,-0.02209 0.01791,-0.04 0.04,-0.04c0.02209,0 0.04,0.01791 0.04,0.04c0,0.02209 -0.01791,0.04 -0.04,0.04c-0.02209,0 -0.04,-0.01791 -0.04,-0.04zM1.9007,1.24351c0,-0.02209 0.01791,-0.04 0.04,-0.04c0.02209,0 0.04,0.01791 0.04,0.04c0,0.02209 -0.01791,0.04 -0.04,0.04c-0.02209,0 -0.04,-0.01791 -0.04,-0.04zM1.30721,1.99664c0,-0.02209 0.01791,-0.04 0.04,-0.04c0.02209,0 0.04,0.01791 0.04,0.04c0,0.02209 -0.01791,0.04 -0.04,0.04c-0.02209,0 -0.04,-0.01791 -0.04,-0.04zM1.23136,1.0228c0,-0.02209 0.01791,-0.04 0.04,-0.04c0.02209,0 0.04,0.01791 0.04,0.04c0,0.02209 -0.01791,0.04 -0.04,0.04c-0.02209,0 -0.04,-0.01791 -0.04,-0.04zM1.96035,1.69911c0,-0.02209 0.01791,-0.04 0.04,-0.04c0.02209,0 0.04,0.01791 0.04,0.04c0,0.02209 -0.01791,0.04 -0.04,0.04c-0.02209,0 -0.04,-0.01791 -0.04,-0.04zM0.94866,1.69629c0,-0.02209 0.01791,-0.04 0.04,-0.04c0.02209,0 0.04,0.01791 0.04,0.04c0,0.02209 -0.01791,0.04 -0.04,0.04c-0.02209,0 -0.04,-0.01791 -0.04,-0.04zM1.70669,1.00086c0,-0.02209 0.01791,-0.04 0.04,-0.04c0.02209,0 0.04,0.01791 0.04,0.04c0,0.02209 -0.01791,0.04 -0.04,0.04c-0.02209,0 -0.04,-0.01791 -0.04,-0.04zM1.61972,2.04267c0,-0.02209 0.01791,-0.04 0.04,-0.04c0.02209,0 0.04,0.01791 0.04,0.04c0,0.02209 -0.01791,0.04 -0.04,0.04c-0.02209,0 -0.04,-0.01791 -0.04,-0.04zM0.96708,1.20499c0,-0.02209 0.01791,-0.04 0.04,-0.04c0.02209,0 0.04,0.01791 0.04,0.04c0,0.02209 -0.01791,0.04 -0.04,0.04c-0.02209,0 -0.04,-0.01791 -0.04,-0.04zM2.03077,1.38076c0,-0.02209 0.01791,-0.04 0.04,-0.04c0.02209,0 0.04,0.01791 0.04,0.04c0,0.02209 -0.01791,0.04 -0.04,0.04c-0.02209,0 -0.04,-0.01791 -0.04,-0.04zM1.11645,1.98164c0,-0.02209 0.01791,-0.04 0.04,-0.04c0.02209,0 0.04,0.01791 0.04,0.04c0,0.02209 -0.01791,0.04 -0.04,0.04c-0.02209,0 -0.04,-0.01791 -0.04,-0.04zM1.3848,0.90473c0,-0.02209 0.01791,-0.04 0.04,-0.04c0.02209,0 0.04,0.01791 0.04,0.04c0,0.02209 -0.01791,0.04 -0.04,0.04c-0.02209,0 -0.04,-0.01791 -0.04,-0.04zM1.92528,1.89181c0,-0.02209 0.01791,-0.04 0.04,-0.04c0.02209,0 0.04,0.01791 0.04,0.04c0,0.02209 -0.01791,0.04 -0.04,0.04c-0.02209,0 -0.04,-0.01791 -0.04,-0.04zM0.84419,1.52796c0,-0.02209 0.01791,-0.04 0.04,-0.04c0.02209,0 0.04,0.01791 0.04,0.04c0,0.02209 -0.01791,0.04 -0.04,0.04c-0.02209,0 -0.04,-0.01791 -0.04,-0.04zM1.89927,1.05611c0,-0.02209 0.01791,-0.04 0.04,-0.04c0.02209,0 0.04,0.01791 0.04,0.04c0,0.02209 -0.01791,0.04 -0.04,0.04c-0.02209,0 -0.04,-0.01791 -0.04,-0.04zM1.43793,2.13207c0,-0.02209 0.01791,-0.04 0.04,-0.04c0.02209,0 0.04,0.01791 0.04,0.04c0,0.02209 -0.01791,0.04 -0.04,0.04c-0.02209,0 -0.04,-0.01791 -0.04,-0.04zM1.04245,1.01456c0,-0.02209 0.01791,-0.04 0.04,-0.04c0.02209,0 0.04,0.01791 0.04,0.04c0,0.02209 -0.01791,0.04 -0.04,0.04c-0.02209,0 -0.04,-0.01791 -0.04,-0.04zM2.10378,1.57449c0,-0.02209 0.01791,-0.04 0.04,-0.04c0.02209,0 0.04,0.01791 0.04,0.04c0,0.02209 -0.01791,0.04 -0.04,0.04c-0.02209,0 -0.04,-0.01791 -0.04,-0.04zM0.93017,1.88636c0,-0.02209 0.01791,-0.04 0.04,-0.04c0.02209,0 0.04,0.01791 0.04,0.04c0,0.02209 -0.01791,0.04 -0.04,0.04c-0.02209,0 -0.04,-0.01791 -0.04,-0.04zM1.58884,0.84931c0,-0.02209 0.01791,-0.04 0.04,-0.04c0.02209,0 0.04,0.01791 0.04,0.04c0,0.02209 -0.01791,0.04 -0.04,0.04c-0.02209,0 -0.04,-0.01791 -0.04,-0.04zM1.8105,2.07197c0,-0.02209 0.01791,-0.04 0.04,-0.04c0.02209,0 0.04,0.01791 0.04,0.04c0,0.02209 -0.01791,0.04 -0.04,0.04c-0.02209,0 -0.04,-0.01791 -0.04,-0.04zM0.80739,1.31533c0,-0.02209 0.01791,-0.04 0.04,-0.04c0.02209,0 0.04,0.01791 0.04,0.04c0,0.02209 -0.01791,0.04 -0.04,0.04c-0.02209,0 -0.04,-0.01791 -0.04,-0.04zM2.07139,1.18983c0,-0.02209 0.01791,-0.04 0.04,-0.04c0.02209,0 0.04,0.01791 0.04,0.04c0,0.02209 -0.01791,0.04 -0.04,0.04c-0.02209,0 -0.04,-0.01791 -0.04,-0.04zM1.2185,2.14937c0,-0.02209 0.01791,-0.04 0.04,-0.04c0.02209,0 0.04,0.01791 0.04,0.04c0,0.02209 -0.01791,0.04 -0.04,0.04c-0.02209,0 -0.04,-0.01791 -0.04,-0.04zM1.19438,0.85235c0,-0.02209 0.01791,-0.04 0.04,-0.04c0.02209,0 0.04,0.01791 0.04,0.04c0,0.02209 -0.01791,0.04 -0.04,0.04c-0.02209,0 -0.04,-0.01791 -0.04,-0.04zM2.10086,1.79884c0,-0.02209 0.01791,-0.04 0.04,-0.04c0.02209,0 0.04,0.01791 0.04,0.04c0,0.02209 -0.01791,0.04 -0.04,0.04c-0.02209,0 -0.04,-0.01791 -0.04,-0.04zM0.77966,1.71712c0,-0.02209 0.01791,-0.04 0.04,-0.04c0.02209,0 0.04,0.01791 0.04,0.04c0,0.02209 -0.01791,0.04 -0.04,0.04c-0.02209,0 -0.04,-0.01791 -0.04,-0.04zM1.81619,0.873c0,-0.02209 0.01791,-0.04 0.04,-0.04c0.02209,0 0.04,0.01791 0.04,0.04c0,0.02209 -0.01791,0.04 -0.04,0.04c-0.02209,0 -0.04,-0.01791 -0.04,-0.04zM1.625,2.20907c0,-0.02209 0.01791,-0.04 0.04,-0.04c0.02209,0 0.04,0.01791 0.04,0.04c0,0.02209 -0.01791,0.04 -0.04,0.04c-0.02209,0 -0.04,-0.01791 -0.04,-0.04zM0.85222,1.08695c0,-0.02209 0.01791,-0.04 0.04,-0.04c0.02209,0 0.04,0.01791 0.04,0.04c0,0.02209 -0.01791,0.04 -0.04,0.04c-0.02209,0 -0.04,-0.01791 -0.04,-0.04zM2.19347,1.39038c0,-0.02209 0.01791,-0.04 0.04,-0.04c0.02209,0 0.04,0.01791 0.04,0.04c0,0.02209 -0.01791,0.04 -0.04,0.04c-0.02209,0 -0.04,-0.01791 -0.04,-0.04zM0.99109,2.0832c0,-0.02209 0.01791,-0.04 0.04,-0.04c0.02209,0 0.04,0.01791 0.04,0.04c0,0.02209 -0.01791,0.04 -0.04,0.04c-0.02209,0 -0.04,-0.01791 -0.04,-0.04zM1.40865,0.74676c0,-0.02209 0.01791,-0.04 0.04,-0.04c0.02209,0 0.04,0.01791 0.04,0.04c0,0.02209 -0.01791,0.04 -0.04,0.04c-0.02209,0 -0.04,-0.01791 -0.04,-0.04zM2.01334,2.02327c0,-0.02209 0.01791,-0.04 0.04,-0.04c0.02209,0 0.04,0.01791 0.04,0.04c0,0.02209 -0.01791,0.04 -0.04,0.04c-0.02209,0 -0.04,-0.01791 -0.04,-0.04zM0.69194,1.49062c0,-0.02209 0.01791,-0.04 0.04,-0.04c0.02209,0 0.04,0.01791 0.04,0.04c0,0.02209 -0.01791,0.04 -0.04,0.04c-0.02209,0 -0.04,-0.01791 -0.04,-0.04zM2.03564,0.98169c0,-0.02209 0.01791,-0.04 0.04,-0.04c0.02209,0 0.04,0.01791 0.04,0.04c0,0.02209 -0.01791,0.04 -0.04,0.04c-0.02209,0 -0.04,-0.01791 -0.04,-0.04zM1.38786,2.27769c0,-0.02209 0.01791,-0.04 0.04,-0.04c0.02209,0 0.04,0.01791 0.04,0.04c0,0.02209 -0.01791,0.04 -0.04,0.04c-0.02209,0 -0.04,-0.01791 -0.04,-0.04zM0.98175,0.87448c0,-0.02209 0.01791,-0.04 0.04,-0.04c0.02209,0 0.04,0.01791 0.04,0.04c0,0.02209 -0.01791,0.04 -0.04,0.04c-0.02209,0 -0.04,-0.01791 -0.04,-0.04zM2.24191,1.63646c0,-0.02209 0.01791,-0.04 0.04,-0.04c0.02209,0 0.04,0.01791 0.04,0.04c0,0.02209 -0.01791,0.04 -0.04,0.04c-0.02209,0 -0.04,-0.01791 -0.04,-0.04zM0.78755,1.93337c0,-0.02209 0.01791,-0.04 0.04,-0.04c0.02209,0 0.04,0.01791 0.04,0.04c0,0.02209 -0.01791,0.04 -0.04,0.04c-0.02209,0 -0.04,-0.01791 -0.04,-0.04zM1.66186,0.71945c0,-0.02209 0.01791,-0.04 0.04,-0.04c0.02209,0 0.04,0.01791 0.04,0.04c0,0.02209 -0.01791,0.04 -0.04,0.04c-0.02209,0 -0.04,-0.01791 -0.04,-0.04zM1.8439,2.21597c0,-0.02209 0.01791,-0.04 0.04,-0.04c0.02209,0 0.04,0.01791 0.04,0.04c0,0.02209 -0.01791,0.04 -0.04,0.04c-0.02209,0 -0.04,-0.01791 -0.04,-0.04zM0.68653,1.23216c0,-0.02209 0.01791,-0.04 0.04,-0.04c0.02209,0 0.04,0.01791 0.04,0.04c0,0.02209 -0.01791,0.04 -0.04,0.04c-0.02209,0 -0.04,-0.01791 -0.04,-0.04zM2.21565,1.16986c0,-0.02209 0.01791,-0.04 0.04,-0.04c0.02209,0 0.04,0.01791 0.04,0.04c0,0.02209 -0.01791,0.04 -0.04,0.04c-0.02209,0 -0.04,-0.01791 -0.04,-0.04zM1.12612,2.26061c0,-0.02209 0.01791,-0.04 0.04,-0.04c0.02209,0 0.04,0.01791 0.04,0.04c0,0.02209 -0.01791,0.04 -0.04,0.04c-0.02209,0 -0.04,-0.01791 -0.04,-0.04zM1.18761,0.70892c0,-0.02209 0.01791,-0.04 0.04,-0.04c0.02209,0 0.04,0.01791 0.04,0.04c0,0.02209 -0.01791,0.04 -0.04,0.04c-0.02209,0 -0.04,-0.01791 -0.04,-0.04zM2.2019,1.89947c0,-0.02209 0.01791,-0.04 0.04,-0.04c0.02209,0 0.04,0.01791 0.04,0.04c0,0.02209 -0.01791,0.04 -0.04,0.04c-0.02209,0 -0.04,-0.01791 -0.04,-0.04zM0.63813,1.71102c0,-0.02209 0.01791,-0.04 0.04,-0.04c0.02209,0 0.04,0.01791 0.04,0.04c0,0.02209 -0.01791,0.04 -0.04,0.04c-0.02209,0 -0.04,-0.01791 -0.04,-0.04zM1.92409,0.78263c0,-0.02209 0.01791,-0.04 0.04,-0.04c0.02209,0 0.04,0.01791 0.04,0.04c0,0.02209 -0.01791,0.04 -0.04,0.04c-0.02209,0 -0.04,-0.01791 -0.04,-0.04zM1.60642,2.34768c0,-0.02209 0.01791,-0.04 0.04,-0.04c0.02209,0 0.04,0.01791 0.04,0.04c0,0.02209 -0.01791,0.04 -0.04,0.04c-0.02209,0 -0.04,-0.01791 -0.04,-0.04zM0.77294,0.9728c0,-0.02209 0.01791,-0.04 0.04,-0.04c0.02209,0 0.04,0.01791 0.04,0.04c0,0.02209 -0.01791,0.04 -0.04,0.04c-0.02209,0 -0.04,-0.01791 -0.04,-0.04zM2.32819,1.42099c0,-0.02209 0.01791,-0.04 0.04,-0.04c0.02209,0 0.04,0.01791 0.04,0.04c0,0.02209 -0.01791,0.04 -0.04,0.04c-0.02209,0 -0.04,-0.01791 -0.04,-0.04zM0.8717,2.15108c0,-0.02209 0.01791,-0.04 0.04,-0.04c0.02209,0 0.04,0.01791 0.04,0.04c0,0.02209 -0.01791,0.04 -0.04,0.04c-0.02209,0 -0.04,-0.01791 -0.04,-0.04zM1.45075,0.61687c0,-0.02209 0.01791,-0.04 0.04,-0.04c0.02209,0 0.04,0.01791 0.04,0.04c0,0.02209 -0.01791,0.04 -0.04,0.04c-0.02209,0 -0.04,-0.01791 -0.04,-0.04zM2.06957,2.14686c0,-0.02209 0.01791,-0.04 0.04,-0.04c0.02209,0 0.04,0.01791 0.04,0.04c0,0.02209 -0.01791,0.04 -0.04,0.04c-0.02209,0 -0.04,-0.01791 -0.04,-0.04zM0.56775,1.43761c0,-0.02209 0.01791,-0.04 0.04,-0.04c0.02209,0 0.04,0.01791 0.04,0.04c0,0.02209 -0.01791,0.04 -0.04,0.04c-0.02209,0 -0.04,-0.01791 -0.04,-0.04zM2.16239,0.93728c0,-0.02209 0.01791,-0.04 0.04,-0.04c0.02209,0 0.04,0.01791 0.04,0.04c0,0.02209 -0.01791,0.04 -0.04,0.04c-0.02209,0 -0.04,-0.01791 -0.04,-0.04zM1.32459,2.39536c0,-0.02209 0.01791,-0.04 0.04,-0.04c0.02209,0 0.04,0.01791 0.04,0.04c0,0.02209 -0.01791,0.04 -0.04,0.04c-0.02209,0 -0.04,-0.01791 -0.04,-0.04zM0.94923,0.7456c0,-0.02209 0.01791,-0.04 0.04,-0.04c0.02209,0 0.04,0.01791 0.04,0.04c0,0.02209 -0.01791,0.04 -0.04,0.04c-0.02209,0 -0.04,-0.01791 -0.04,-0.04zM2.3523,1.70929c0,-0.02209 0.01791,-0.04 0.04,-0.04c0.02209,0 0.04,0.01791 0.04,0.04c0,0.02209 -0.01791,0.04 -0.04,0.04c-0.02209,0 -0.04,-0.01791 -0.04,-0.04zM0.65757,1.95399c0,-0.02209 0.01791,-0.04 0.04,-0.04c0.02209,0 0.04,0.01791 0.04,0.04c0,0.02209 -0.01791,0.04 -0.04,0.04c-0.02209,0 -0.04,-0.01791 -0.04,-0.04zM1.74349,0.61703c0,-0.02209 0.01791,-0.04 0.04,-0.04c0.02209,0 0.04,0.01791 0.04,0.04c0,0.02209 -0.01791,0.04 -0.04,0.04c-0.02209,0 -0.04,-0.01791 -0.04,-0.04zM1.85272,2.34603c0,-0.02209 0.01791,-0.04 0.04,-0.04c0.02209,0 0.04,0.01791 0.04,0.04c0,0.02209 -0.01791,0.04 -0.04,0.04c-0.02209,0 -0.04,-0.01791 -0.04,-0.04zM0.5927,1.14252c0,-0.02209 0.01791,-0.04 0.04,-0.04c0.02209,0 0.04,0.01791 0.04,0.04c0,0.02209 -0.01791,0.04 -0.04,0.04c-0.02209,0 -0.04,-0.01791 -0.04,-0.04zM2.3448,1.1727c0,-0.02209 0.01791,-0.04 0.04,-0.04c0.02209,0 0.04,0.01791 0.04,0.04c0,0.02209 -0.01791,0.04 -0.04,0.04c-0.02209,0 -0.04,-0.01791 -0.04,-0.04zM1.02931,2.34528c0,-0.02209 0.01791,-0.04 0.04,-0.04c0.02209,0 0.04,0.01791 0.04,0.04c0,0.02209 -0.01791,0.04 -0.04,0.04c-0.02209,0 -0.04,-0.01791 -0.04,-0.04zM1.20186,0.58165c0,-0.02209 0.01791,-0.04 0.04,-0.04c0.02209,0 0.04,0.01791 0.04,0.04c0,0.02209 -0.01791,0.04 -0.04,0.04c-0.02209,0 -0.04,-0.01791 -0.04,-0.04zM2.27695,2.00259c0,-0.02209 0.01791,-0.04 0.04,-0.04c0.02209,0 0.04,0.01791 0.04,0.04c0,0.02209 -0.01791,0.04 -0.04,0.04c-0.02209,0 -0.04,-0.01791 -0.04,-0.04zM0.51368,1.68566c0,-0.02209 0.01791,-0.04 0.04,-0.04c0.02209,0 0.04,0.01791 0.04,0.04c0,0.02209 -0.01791,0.04 -0.04,0.04c-0.02209,0 -0.04,-0.01791 -0.04,-0.04zM2.03261,0.71762c0,-0.02209 0.01791,-0.04 0.04,-0.04c0.02209,0 0.04,0.01791 0.04,0.04c0,0.02209 -0.01791,0.04 -0.04,0.04c-0.02209,0 -0.04,-0.01791 -0.04,-0.04zM1.57034,2.46841c0,-0.02209 0.01791,-0.04 0.04,-0.04c0.02209,0 0.04,0.01791 0.04,0.04c0,0.02209 -0.01791,0.04 -0.04,0.04c-0.02209,0 -0.04,-0.01791 -0.04,-0.04zM0.7183,0.85978c0,-0.02209 0.01791,-0.04 0.04,-0.04c0.02209,0 0.04,0.01791 0.04,0.04c0,0.02209 -0.01791,0.04 -0.04,0.04c-0.02209,0 -0.04,-0.01791 -0.04,-0.04zM2.44434,1.46735c0,-0.02209 0.01791,-0.04 0.04,-0.04c0.02209,0 0.04,0.01791 0.04,0.04c0,0.02209 -0.01791,0.04 -0.04,0.04c-0.02209,0 -0.04,-0.01791 -0.04,-0.04zM0.75513,2.1951c0,-0.02209 0.01791,-0.04 0.04,-0.04c0.02209,0 0.04,0.01791 0.04,0.04c0,0.02209 -0.01791,0.04 -0.04,0.04c-0.02209,0 -0.04,-0.01791 -0.04,-0.04zM1.50687,0.50612c0,-0.02209 0.01791,-0.04 0.04,-0.04c0.02209,0 0.04,0.01791 0.04,0.04c0,0.02209 -0.01791,0.04 -0.04,0.04c-0.02209,0 -0.04,-0.01791 -0.04,-0.04zM2.10279,2.26604c0,-0.02209 0.01791,-0.04 0.04,-0.04c0.02209,0 0.04,0.01791 0.04,0.04c0,0.02209 -0.01791,0.04 -0.04,0.04c-0.02209,0 -0.04,-0.01791 -0.04,-0.04zM0.46316,1.3723c0,-0.02209 0.01791,-0.04 0.04,-0.04c0.02209,0 0.04,0.01791 0.04,0.04c0,0.02209 -0.01791,0.04 -0.04,0.04c-0.02209,0 -0.04,-0.01791 -0.04,-0.04zM2.28324,0.91495c0,-0.02209 0.01791,-0.04 0.04,-0.04c0.02209,0 0.04,0.01791 0.04,0.04c0,0.02209 -0.01791,0.04 -0.04,0.04c-0.02209,0 -0.04,-0.01791 -0.04,-0.04zM1.25073,2.49308c0,-0.02209 0.01791,-0.04 0.04,-0.04c0.02209,0 0.04,0.01791 0.04,0.04c0,0.02209 -0.01791,0.04 -0.04,0.04c-0.02209,0 -0.04,-0.01791 -0.04,-0.04zM0.93782,0.62403c0,-0.02209 0.01791,-0.04 0.04,-0.04c0.02209,0 0.04,0.01791 0.04,0.04c0,0.02209 -0.01791,0.04 -0.04,0.04c-0.02209,0 -0.04,-0.01791 -0.04,-0.04zM2.4425,1.79103c0,-0.02209 0.01791,-0.04 0.04,-0.04c0.02209,0 0.04,0.01791 0.04,0.04c0,0.02209 -0.01791,0.04 -0.04,0.04c-0.02209,0 -0.04,-0.01791 -0.04,-0.04zM0.53622,1.95456c0,-0.02209 0.01791,-0.04 0.04,-0.04c0.02209,0 0.04,0.01791 0.04,0.04c0,0.02209 -0.01791,0.04 -0.04,0.04c-0.02209,0 -0.04,-0.01791 -0.04,-0.04zM1.83238,0.53495c0,-0.02209 0.01791,-0.04 0.04,-0.04c0.02209,0 0.04,0.01791 0.04,0.04c0,0.02209 -0.01791,0.04 -0.04,0.04c-0.02209,0 -0.04,-0.01791 -0.04,-0.04zM1.84257,2.46625c0,-0.02209 0.01791,-0.04 0.04,-0.04c0.02209,0 0.04,0.01791 0.04,0.04c0,0.02209 -0.01791,0.04 -0.04,0.04c-0.02209,0 -0.04,-0.01791 -0.04,-0.04zM0.51925,1.04725c0,-0.02209 0.01791,-0.04 0.04,-0.04c0.02209,0 0.04,0.01791 0.04,0.04c0,0.02209 -0.01791,0.04 -0.04,0.04c-0.02209,0 -0.04,-0.01791 -0.04,-0.04zM2.46298,1.19336c0,-0.02209 0.01791,-0.04 0.04,-0.04c0.02209,0 0.04,0.01791 0.04,0.04c0,0.02209 -0.01791,0.04 -0.04,0.04c-0.02209,0 -0.04,-0.01791 -0.04,-0.04zM0.92845,2.40964c0,-0.02209 0.01791,-0.04 0.04,-0.04c0.02209,0 0.04,0.01791 0.04,0.04c0,0.02209 -0.01791,0.04 -0.04,0.04c-0.02209,0 -0.04,-0.01791 -0.04,-0.04zM1.23275,0.46639c0,-0.02209 0.01791,-0.04 0.04,-0.04c0.02209,0 0.04,0.01791 0.04,0.04c0,0.02209 -0.01791,0.04 -0.04,0.04c-0.02209,0 -0.04,-0.01791 -0.04,-0.04zM2.33183,2.1082c0,-0.02209 0.01791,-0.04 0.04,-0.04c0.02209,0 0.04,0.01791 0.04,0.04c0,0.02209 -0.01791,0.04 -0.04,0.04c-0.02209,0 -0.04,-0.01791 -0.04,-0.04zM0.40217,1.6449c0,-0.02209 0.01791,-0.04 0.04,-0.04c0.02209,0 0.04,0.01791 0.04,0.04c0,0.02209 -0.01791,0.04 -0.04,0.04c-0.02209,0 -0.04,-0.01791 -0.04,-0.04zM2.14212,0.67252c0,-0.02209 0.01791,-0.04 0.04,-0.04c0.02209,0 0.04,0.01791 0.04,0.04c0,0.02209 -0.01791,0.04 -0.04,0.04c-0.02209,0 -0.04,-0.01791 -0.04,-0.04zM1.52012,2.57535c0,-0.02209 0.01791,-0.04 0.04,-0.04c0.02209,0 0.04,0.01791 0.04,0.04c0,0.02209 -0.01791,0.04 -0.04,0.04c-0.02209,0 -0.04,-0.01791 -0.04,-0.04zM0.68323,0.74726c0,-0.02209 0.01791,-0.04 0.04,-0.04c0.02209,0 0.04,0.01791 0.04,0.04c0,0.02209 -0.01791,0.04 -0.04,0.04c-0.02209,0 -0.04,-0.01791 -0.04,-0.04zM2.54595,1.52654c0,-0.02209 0.01791,-0.04 0.04,-0.04c0.02209,0 0.04,0.01791 0.04,0.04c0,0.02209 -0.01791,0.04 -0.04,0.04c-0.02209,0 -0.04,-0.01791 -0.04,-0.04zM0.64047,2.21998c0,-0.02209 0.01791,-0.04 0.04,-0.04c0.02209,0 0.04,0.01791 0.04,0.04c0,0.02209 -0.01791,0.04 -0.04,0.04c-0.02209,0 -0.04,-0.01791 -0.04,-0.04zM1.57451,0.41056c0,-0.02209 0.01791,-0.04 0.04,-0.04c0.02209,0 0.04,0.01791 0.04,0.04c0,0.02209 -0.01791,0.04 -0.04,0.04c-0.02209,0 -0.04,-0.01791 -0.04,-0.04zM2.11739,2.38195c0,-0.02209 0.01791,-0.04 0.04,-0.04c0.02209,0 0.04,0.01791 0.04,0.04c0,0.02209 -0.01791,0.04 -0.04,0.04c-0.02209,0 -0.04,-0.01791 -0.04,-0.04zM0.37431,1.29682c0,-0.02209 0.01791,-0.04 0.04,-0.04c0.02209,0 0.04,0.01791 0.04,0.04c0,0.02209 -0.01791,0.04 -0.04,0.04c-0.02209,0 -0.04,-0.01791 -0.04,-0.04zM2.3995,0.91065c0,-0.02209 0.01791,-0.04 0.04,-0.04c0.02209,0 0.04,0.01791 0.04,0.04c0,0.02209 -0.01791,0.04 -0.04,0.04c-0.02209,0 -0.04,-0.01791 -0.04,-0.04zM1.16804,2.5746c0,-0.02209 0.01791,-0.04 0.04,-0.04c0.02209,0 0.04,0.01791 0.04,0.04c0,0.02209 -0.01791,0.04 -0.04,0.04c-0.02209,0 -0.04,-0.01791 -0.04,-0.04zM0.94375,0.50829c0,-0.02209 0.01791,-0.04 0.04,-0.04c0.02209,0 0.04,0.01791 0.04,0.04c0,0.02209 -0.01791,0.04 -0.04,0.04c-0.02209,0 -0.04,-0.01791 -0.04,-0.04zM2.51614,1.88023c0,-0.02209 0.01791,-0.04 0.04,-0.04c0.02209,0 0.04,0.01791 0.04,0.04c0,0.02209 -0.01791,0.04 -0.04,0.04c-0.02209,0 -0.04,-0.01791 -0.04,-0.04zM0.42188,1.93852c0,-0.02209 0.01791,-0.04 0.04,-0.04c0.02209,0 0.04,0.01791 0.04,0.04c0,0.02209 -0.01791,0.04 -0.04,0.04c-0.02209,0 -0.04,-0.01791 -0.04,-0.04zM1.92737,0.46968c0,-0.02209 0.01791,-0.04 0.04,-0.04c0.02209,0 0.04,0.01791 0.04,0.04c0,0.02209 -0.01791,0.04 -0.04,0.04c-0.02209,0 -0.04,-0.01791 -0.04,-0.04zM1.81663,2.57834c0,-0.02209 0.01791,-0.04 0.04,-0.04c0.02209,0 0.04,0.01791 0.04,0.04c0,0.02209 -0.01791,0.04 -0.04,0.04c-0.02209,0 -0.04,-0.01791 -0.04,-0.04zM0.46278,0.94723c0,-0.02209 0.01791,-0.04 0.04,-0.04c0.02209,0 0.04,0.01791 0.04,0.04c0,0.02209 -0.01791,0.04 -0.04,0.04c-0.02209,0 -0.04,-0.01791 -0.04,-0.04zM2.57199,1.22893c0,-0.02209 0.01791,-0.04 0.04,-0.04c0.02209,0 0.04,0.01791 0.04,0.04c0,0.02209 -0.01791,0.04 -0.04,0.04c-0.02209,0 -0.04,-0.01791 -0.04,-0.04zM0.8242,2.45695c0,-0.02209 0.01791,-0.04 0.04,-0.04c0.02209,0 0.04,0.01791 0.04,0.04c0,0.02209 -0.01791,0.04 -0.04,0.04c-0.02209,0 -0.04,-0.01791 -0.04,-0.04zM1.2776,0.36126c0,-0.02209 0.01791,-0.04 0.04,-0.04c0.02209,0 0.04,0.01791 0.04,0.04c0,0.02209 -0.01791,0.04 -0.04,0.04c-0.02209,0 -0.04,-0.01791 -0.04,-0.04zM2.3697,2.21586c0,-0.02209 0.01791,-0.04 0.04,-0.04c0.02209,0 0.04,0.01791 0.04,0.04c0,0.02209 -0.01791,0.04 -0.04,0.04c-0.02209,0 -0.04,-0.01791 -0.04,-0.04zM0.30169,1.59116c0,-0.02209 0.01791,-0.04 0.04,-0.04c0.02209,0 0.04,0.01791 0.04,0.04c0,0.02209 -0.01791,0.04 -0.04,0.04c-0.02209,0 -0.04,-0.01791 -0.04,-0.04zM2.25236,0.64433c0,-0.02209 0.01791,-0.04 0.04,-0.04c0.02209,0 0.04,0.01791 0.04,0.04c0,0.02209 -0.01791,0.04 -0.04,0.04c-0.02209,0 -0.04,-0.01791 -0.04,-0.04zM1.45796,2.67047c0,-0.02209 0.01791,-0.04 0.04,-0.04c0.02209,0 0.04,0.01791 0.04,0.04c0,0.02209 -0.01791,0.04 -0.04,0.04c-0.02209,0 -0.04,-0.01791 -0.04,-0.04zM0.66485,0.63528c0,-0.02209 0.01791,-0.04 0.04,-0.04c0.02209,0 0.04,0.01791 0.04,0.04c0,0.02209 -0.01791,0.04 -0.04,0.04c-0.02209,0 -0.04,-0.01791 -0.04,-0.04zM2.63502,1.5966c0,-0.02209 0.01791,-0.04 0.04,-0.04c0.02209,0 0.04,0.01791 0.04,0.04c0,0.02209 -0.01791,0.04 -0.04,0.04c-0.02209,0 -0.04,-0.01791 -0.04,-0.04zM0.52761,2.22846c0,-0.02209 0.01791,-0.04 0.04,-0.04c0.02209,0 0.04,0.01791 0.04,0.04c0,0.02209 -0.01791,0.04 -0.04,0.04c-0.02209,0 -0.04,-0.01791 -0.04,-0.04zM1.65189,0.32817c0,-0.02209 0.01791,-0.04 0.04,-0.04c0.02209,0 0.04,0.01791 0.04,0.04c0,0.02209 -0.01791,0.04 -0.04,0.04c-0.02209,0 -0.04,-0.01791 -0.04,-0.04zM2.11597,2.49484c0,-0.02209 0.01791,-0.04 0.04,-0.04c0.02209,0 0.04,0.01791 0.04,0.04c0,0.02209 -0.01791,0.04 -0.04,0.04c-0.02209,0 -0.04,-0.01791 -0.04,-0.04zM0.29919,1.21273c0,-0.02209 0.01791,-0.04 0.04,-0.04c0.02209,0 0.04,0.01791 0.04,0.04c0,0.02209 -0.01791,0.04 -0.04,0.04c-0.02209,0 -0.04,-0.01791 -0.04,-0.04zM2.51157,0.9219c0,-0.02209 0.01791,-0.04 0.04,-0.04c0.02209,0 0.04,0.01791 0.04,0.04c0,0.02209 -0.01791,0.04 -0.04,0.04c-0.02209,0 -0.04,-0.01791 -0.04,-0.04zM1.07791,2.64193c0,-0.02209 0.01791,-0.04 0.04,-0.04c0.02209,0 0.04,0.01791 0.04,0.04c0,0.02209 -0.01791,0.04 -0.04,0.04c-0.02209,0 -0.04,-0.01791 -0.04,-0.04zM0.96469,0.39788c0,-0.02209 0.01791,-0.04 0.04,-0.04c0.02209,0 0.04,0.01791 0.04,0.04c0,0.02209 -0.01791,0.04 -0.04,0.04c-0.02209,0 -0.04,-0.01791 -0.04,-0.04zM2.57522,1.97568c0,-0.02209 0.01791,-0.04 0.04,-0.04c0.02209,0 0.04,0.01791 0.04,0.04c0,0.02209 -0.01791,0.04 -0.04,0.04c-0.02209,0 -0.04,-0.01791 -0.04,-0.04zM0.31394,1.90809c0,-0.02209 0.01791,-0.04 0.04,-0.04c0.02209,0 0.04,0.01791 0.04,0.04c0,0.02209 -0.01791,0.04 -0.04,0.04c-0.02209,0 -0.04,-0.01791 -0.04,-0.04zM2.02741,0.41924c0,-0.02209 0.01791,-0.04 0.04,-0.04c0.02209,0 0.04,0.01791 0.04,0.04c0,0.02209 -0.01791,0.04 -0.04,0.04c-0.02209,0 -0.04,-0.01791 -0.04,-0.04zM1.77699,2.68301c0,-0.02209 0.01791,-0.04 0.04,-0.04c0.02209,0 0.04,0.01791 0.04,0.04c0,0.02209 -0.01791,0.04 -0.04,0.04c-0.02209,0 -0.04,-0.01791 -0.04,-0.04zM0.42132,0.84338c0,-0.02209 0.01791,-0.04 0.04,-0.04c0.02209,0 0.04,0.01791 0.04,0.04c0,0.02209 -0.01791,0.04 -0.04,0.04c-0.02209,0 -0.04,-0.01791 -0.04,-0.04zM2.67263,1.27744c0,-0.02209 0.01791,-0.04 0.04,-0.04c0.02209,0 0.04,0.01791 0.04,0.04c0,0.02209 -0.01791,0.04 -0.04,0.04c-0.02209,0 -0.04,-0.01791 -0.04,-0.04zM0.71732,2.48916c0,-0.02209 0.01791,-0.04 0.04,-0.04c0.02209,0 0.04,0.01791 0.04,0.04c0,0.02209 -0.01791,0.04 -0.04,0.04c-0.02209,0 -0.04,-0.01791 -0.04,-0.04zM1.33459,0.26539c0,-0.02209 0.01791,-0.04 0.04,-0.04c0.02209,0 0.04,0.01791 0.04,0.04c0,0.02209 -0.01791,0.04 -0.04,0.04c-0.02209,0 -0.04,-0.01791 -0.04,-0.04zM2.39244,2.32496c0,-0.02209 0.01791,-0.04 0.04,-0.04c0.02209,0 0.04,0.01791 0.04,0.04c0,0.02209 -0.01791,0.04 -0.04,0.04c-0.02209,0 -0.04,-0.01791 -0.04,-0.04zM0.25127,1.48616c0.02209,0 0.04,0.01791 0.04,0.04c0,0.02209 -0.01791,0.04 -0.04,0.04c-0.01006,0 -0.01925,-0.00371 -0.02627,-0.00984l0,-0.06032c0.00703,-0.00613 0.01622,-0.00984 0.02627,-0.00984zM2.36285,0.63117c0,-0.02209 0.01791,-0.04 0.04,-0.04c0.02209,0 0.04,0.01791 0.04,0.04c0,0.02209 -0.01791,0.04 -0.04,0.04c-0.02209,0 -0.04,-0.01791 -0.04,-0.04zM1.38545,2.75477c0,-0.02209 0.01791,-0.04 0.04,-0.04c0.02209,0 0.04,0.01791 0.04,0.04c0,0.00738 -0.002,0.0143 -0.00549,0.02023h-0.06903c-0.00349,-0.00594 -0.00549,-0.01285 -0.00549,-0.02023zM0.66134,0.52422c0,-0.02209 0.01791,-0.04 0.04,-0.04c0.02209,0 0.04,0.01791 0.04,0.04c0,0.02209 -0.01791,0.04 -0.04,0.04c-0.02209,0 -0.04,-0.01791 -0.04,-0.04zM2.7126,1.67604c0,-0.02209 0.01791,-0.04 0.04,-0.04c0.0083,0 0.01601,0.00253 0.0224,0.00685v0.06629c-0.00639,0.00433 -0.0141,0.00685 -0.0224,0.00685c-0.02209,0 -0.04,-0.01791 -0.04,-0.04zM0.41682,2.22233c0,-0.02209 0.01791,-0.04 0.04,-0.04c0.02209,0 0.04,0.01791 0.04,0.04c0,0.02209 -0.01791,0.04 -0.04,0.04c-0.02209,0 -0.04,-0.01791 -0.04,-0.04zM1.73765,0.25786c0,-0.01361 0.0068,-0.02564 0.01719,-0.03286l0.04563,0c0.01039,0.00722 0.01719,0.01925 0.01719,0.03286c0,0.02209 -0.01791,0.04 -0.04,0.04c-0.02209,0 -0.04,-0.01791 -0.04,-0.04zM2.10029,2.60455c0,-0.02209 0.01791,-0.04 0.04,-0.04c0.02209,0 0.04,0.01791 0.04,0.04c0,0.02209 -0.01791,0.04 -0.04,0.04c-0.02209,0 -0.04,-0.01791 -0.04,-0.04zM0.23665,1.12131c0,-0.02209 0.01791,-0.04 0.04,-0.04c0.02209,0 0.04,0.01791 0.04,0.04c0,0.02209 -0.01791,0.04 -0.04,0.04c-0.02209,0 -0.04,-0.01791 -0.04,-0.04zM2.61939,0.947c0,-0.02209 0.01791,-0.04 0.04,-0.04c0.02209,0 0.04,0.01791 0.04,0.04c0,0.02209 -0.01791,0.04 -0.04,0.04c-0.02209,0 -0.04,-0.01791 -0.04,-0.04zM0.98153,2.69627c0,-0.02209 0.01791,-0.04 0.04,-0.04c0.02209,0 0.04,0.01791 0.04,0.04c0,0.02209 -0.01791,0.04 -0.04,0.04c-0.02209,0 -0.04,-0.01791 -0.04,-0.04zM0.99899,0.29274c0,-0.02209 0.01791,-0.04 0.04,-0.04c0.02209,0 0.04,0.01791 0.04,0.04c0,0.02209 -0.01791,0.04 -0.04,0.04c-0.02209,0 -0.04,-0.01791 -0.04,-0.04zM2.62098,2.07631c0,-0.02209 0.01791,-0.04 0.04,-0.04c0.02209,0 0.04,0.01791 0.04,0.04c0,0.02209 -0.01791,0.04 -0.04,0.04c-0.02209,0 -0.04,-0.01791 -0.04,-0.04zM0.25225,1.82487c0.02209,0 0.04,0.01791 0.04,0.04c0,0.02209 -0.01791,0.04 -0.04,0.04c-0.01053,0 -0.02011,-0.00407 -0.02725,-0.01072l0,-0.05856c0.00714,-0.00665 0.01672,-0.01072 0.02725,-0.01072zM2.13153,0.38239c0,-0.02209 0.01791,-0.04 0.04,-0.04c0.02209,0 0.04,0.01791 0.04,0.04c0,0.02209 -0.01791,0.04 -0.04,0.04c-0.02209,0 -0.04,-0.01791 -0.04,-0.04zM1.76518,2.7405c0.02023,0 0.03694,0.01501 0.03962,0.0345h-0.07925c0.00268,-0.01949 0.0194,-0.0345 0.03962,-0.0345zM0.39363,0.73655c0,-0.02209 0.01791,-0.04 0.04,-0.04c0.02209,0 0.04,0.01791 0.04,0.04c0,0.02209 -0.01791,0.04 -0.04,0.04c-0.02209,0 -0.04,-0.01791 -0.04,-0.04zM2.76521,1.33743c0,-0.01003 0.00369,-0.0192 0.00979,-0.02622l0,0.05244c-0.0061,-0.00702 -0.00979,-0.01619 -0.00979,-0.02622zM0.60858,2.50752c0,-0.02209 0.01791,-0.04 0.04,-0.04c0.02209,0 0.04,0.01791 0.04,0.04c0,0.02209 -0.01791,0.04 -0.04,0.04c-0.02209,0 -0.04,-0.01791 -0.04,-0.04zM2.40135,2.4348c0,-0.02209 0.01791,-0.04 0.04,-0.04c0.02209,0 0.04,0.01791 0.04,0.04c0,0.02209 -0.01791,0.04 -0.04,0.04c-0.02209,0 -0.04,-0.01791 -0.04,-0.04zM2.47299,0.63176c0,-0.02209 0.01791,-0.04 0.04,-0.04c0.02209,0 0.04,0.01791 0.04,0.04c0,0.02209 -0.01791,0.04 -0.04,0.04c-0.02209,0 -0.04,-0.01791 -0.04,-0.04zM0.6714,0.41459c0,-0.02209 0.01791,-0.04 0.04,-0.04c0.02209,0 0.04,0.01791 0.04,0.04c0,0.02209 -0.01791,0.04 -0.04,0.04c-0.02209,0 -0.04,-0.01791 -0.04,-0.04zM0.3085,2.20288c0,-0.02209 0.01791,-0.04 0.04,-0.04c0.02209,0 0.04,0.01791 0.04,0.04c0,0.02209 -0.01791,0.04 -0.04,0.04c-0.02209,0 -0.04,-0.01791 -0.04,-0.04zM1.87061,0.23898c-0.01216,0 -0.02305,-0.00542 -0.03038,-0.01398h0.06076c-0.00734,0.00856 -0.01823,0.01398 -0.03038,0.01398zM2.0716,2.71076c0,-0.02209 0.01791,-0.04 0.04,-0.04c0.02209,0 0.04,0.01791 0.04,0.04c0,0.02209 -0.01791,0.04 -0.04,0.04c-0.02209,0 -0.04,-0.01791 -0.04,-0.04zM0.22599,0.98367c0.02209,0 0.04,0.01791 0.04,0.04c0,0.02209 -0.01791,0.04 -0.04,0.04c-0.00033,0 -0.00066,0 -0.00099,-0.00001l0,-0.07998c0.00033,-0.00001 0.00066,-0.00001 0.00099,-0.00001zM2.72272,0.98469c0,-0.02209 0.01791,-0.04 0.04,-0.04c0.00428,0 0.00841,0.00067 0.01228,0.00192l0,0.07616c-0.00387,0.00125 -0.008,0.00192 -0.01228,0.00192c-0.02209,0 -0.04,-0.01791 -0.04,-0.04zM0.87992,2.73835c0,-0.02209 0.01791,-0.04 0.04,-0.04c0.02209,0 0.04,0.01791 0.04,0.04c0,0.01639 -0.00985,0.03047 -0.02396,0.03665l-0.03208,0c-0.0141,-0.00618 -0.02396,-0.02027 -0.02396,-0.03665zM1.08541,0.23305c-0.00904,0 -0.01737,-0.003 -0.02407,-0.00805h0.04814c-0.0067,0.00505 -0.01503,0.00805 -0.02407,0.00805zM2.65417,2.18114c0,-0.02209 0.01791,-0.04 0.04,-0.04c0.02209,0 0.04,0.01791 0.04,0.04c0,0.02209 -0.01791,0.04 -0.04,0.04c-0.02209,0 -0.04,-0.01791 -0.04,-0.04zM2.23881,0.35831c0,-0.02209 0.01791,-0.04 0.04,-0.04c0.02209,0 0.04,0.01791 0.04,0.04c0,0.02209 -0.01791,0.04 -0.04,0.04c-0.02209,0 -0.04,-0.01791 -0.04,-0.04zM0.37883,0.62761c0,-0.02209 0.01791,-0.04 0.04,-0.04c0.02209,0 0.04,0.01791 0.04,0.04c0,0.02209 -0.01791,0.04 -0.04,0.04c-0.02209,0 -0.04,-0.01791 -0.04,-0.04zM0.49877,2.51293c0,-0.02209 0.01791,-0.04 0.04,-0.04c0.02209,0 0.04,0.01791 0.04,0.04c0,0.02209 -0.01791,0.04 -0.04,0.04c-0.02209,0 -0.04,-0.01791 -0.04,-0.04zM2.39735,2.54469c0,-0.02209 0.01791,-0.04 0.04,-0.04c0.02209,0 0.04,0.01791 0.04,0.04c0,0.02209 -0.01791,0.04 -0.04,0.04c-0.02209,0 -0.04,-0.01791 -0.04,-0.04zM2.58215,0.64515c0,-0.02209 0.01791,-0.04 0.04,-0.04c0.02209,0 0.04,0.01791 0.04,0.04c0,0.02209 -0.01791,0.04 -0.04,0.04c-0.02209,0 -0.04,-0.01791 -0.04,-0.04zM0.69408,0.30695c0,-0.02209 0.01791,-0.04 0.04,-0.04c0.02209,0 0.04,0.01791 0.04,0.04c0,0.02209 -0.01791,0.04 -0.04,0.04c-0.02209,0 -0.04,-0.01791 -0.04,-0.04zM0.24316,2.13109c0.02209,0 0.04,0.01791 0.04,0.04c0,0.02209 -0.01791,0.04 -0.04,0.04c-0.00654,0 -0.01271,-0.00157 -0.01816,-0.00435l0,-0.0713c0.00545,-0.00278 0.01162,-0.00435 0.01816,-0.00435zM2.07092,2.77303c0.00434,0 0.00852,0.00069 0.01243,0.00197l-0.02487,0c0.00391,-0.00128 0.00809,-0.00197 0.01243,-0.00197zM0.22679,0.9208c0,0.00413 -0.00063,0.00811 -0.00179,0.01185l0,-0.02371c0.00116,0.00375 0.00179,0.00773 0.00179,0.01185zM0.77405,2.76865c0,-0.02209 0.01791,-0.04 0.04,-0.04c0.02209,0 0.04,0.01791 0.04,0.04c0,0.00216 -0.00017,0.00428 -0.0005,0.00635l-0.079,0c-0.00033,-0.00207 -0.0005,-0.00419 -0.0005,-0.00635zM2.67535,2.28926c0,-0.02209 0.01791,-0.04 0.04,-0.04c0.02209,0 0.04,0.01791 0.04,0.04c0,0.02209 -0.01791,0.04 -0.04,0.04c-0.02209,0 -0.04,-0.01791 -0.04,-0.04zM2.34838,0.34641c0,-0.02209 0.01791,-0.04 0.04,-0.04c0.02209,0 0.04,0.01791 0.04,0.04c0,0.02209 -0.01791,0.04 -0.04,0.04c-0.02209,0 -0.04,-0.01791 -0.04,-0.04zM0.3763,0.51736c0,-0.02209 0.01791,-0.04 0.04,-0.04c0.02209,0 0.04,0.01791 0.04,0.04c0,0.02209 -0.01791,0.04 -0.04,0.04c-0.02209,0 -0.04,-0.01791 -0.04,-0.04zM0.38864,2.50607c0,-0.02209 0.01791,-0.04 0.04,-0.04c0.02209,0 0.04,0.01791 0.04,0.04c0,0.02209 -0.01791,0.04 -0.04,0.04c-0.02209,0 -0.04,-0.01791 -0.04,-0.04zM2.38115,2.6539c0,-0.02209 0.01791,-0.04 0.04,-0.04c0.02209,0 0.04,0.01791 0.04,0.04c0,0.02209 -0.01791,0.04 -0.04,0.04c-0.02209,0 -0.04,-0.01791 -0.04,-0.04zM2.68966,0.67058c0,-0.02209 0.01791,-0.04 0.04,-0.04c0.02209,0 0.04,0.01791 0.04,0.04c0,0.02209 -0.01791,0.04 -0.04,0.04c-0.02209,0 -0.04,-0.01791 -0.04,-0.04zM0.76857,0.24192c-0.0135,0 -0.02543,-0.00668 -0.03267,-0.01692h0.06535c-0.00724,0.01024 -0.01918,0.01692 -0.03267,0.01692zM0.70482,2.74751c0.01772,0 0.03275,0.01153 0.038,0.02749l-0.07601,0c0.00525,-0.01596 0.02028,-0.02749 0.038,-0.02749zM2.6849,2.39978c0,-0.02209 0.01791,-0.04 0.04,-0.04c0.02209,0 0.04,0.01791 0.04,0.04c0,0.02209 -0.01791,0.04 -0.04,0.04c-0.02209,0 -0.04,-0.01791 -0.04,-0.04zM2.45942,0.34624c0,-0.02209 0.01791,-0.04 0.04,-0.04c0.02209,0 0.04,0.01791 0.04,0.04c0,0.02209 -0.01791,0.04 -0.04,0.04c-0.02209,0 -0.04,-0.01791 -0.04,-0.04zM0.38553,0.40661c0,-0.02209 0.01791,-0.04 0.04,-0.04c0.02209,0 0.04,0.01791 0.04,0.04c0,0.02209 -0.01791,0.04 -0.04,0.04c-0.02209,0 -0.04,-0.01791 -0.04,-0.04zM0.27896,2.4875c0,-0.02209 0.01791,-0.04 0.04,-0.04c0.02209,0 0.04,0.01791 0.04,0.04c0,0.02209 -0.01791,0.04 -0.04,0.04c-0.02209,0 -0.04,-0.01791 -0.04,-0.04zM2.35335,2.76172c0,-0.02209 0.01791,-0.04 0.04,-0.04c0.02209,0 0.04,0.01791 0.04,0.04c0,0.00466 -0.0008,0.00913 -0.00226,0.01328l-0.07548,0c-0.00146,-0.00416 -0.00226,-0.00863 -0.00226,-0.01328zM0.5931,2.75519c0.01473,0 0.02759,0.00796 0.03454,0.01981h-0.06907c0.00694,-0.01185 0.01981,-0.01981 0.03454,-0.01981zM2.68315,2.51188c0,-0.02209 0.01791,-0.04 0.04,-0.04c0.02209,0 0.04,0.01791 0.04,0.04c0,0.02209 -0.01791,0.04 -0.04,0.04c-0.02209,0 -0.04,-0.01791 -0.04,-0.04zM2.5711,0.35743c0,-0.02209 0.01791,-0.04 0.04,-0.04c0.02209,0 0.04,0.01791 0.04,0.04c0,0.02209 -0.01791,0.04 -0.04,0.04c-0.02209,0 -0.04,-0.01791 -0.04,-0.04zM0.4061,0.29614c0,-0.02209 0.01791,-0.04 0.04,-0.04c0.02209,0 0.04,0.01791 0.04,0.04c0,0.02209 -0.01791,0.04 -0.04,0.04c-0.02209,0 -0.04,-0.01791 -0.04,-0.04zM0.25048,2.45768c0,0.01697 -0.01057,0.03147 -0.02548,0.03728l0,-0.07457c0.01492,0.00581 0.02548,0.02031 0.02548,0.03728zM0.47971,2.7519c0.01605,0 0.02989,0.00945 0.03626,0.0231h-0.07253c0.00637,-0.01364 0.02021,-0.0231 0.03626,-0.0231zM2.67036,2.62474c0,-0.02209 0.01791,-0.04 0.04,-0.04c0.02209,0 0.04,0.01791 0.04,0.04c0,0.02209 -0.01791,0.04 -0.04,0.04c-0.02209,0 -0.04,-0.01791 -0.04,-0.04zM2.68264,0.37966c0,-0.02209 0.01791,-0.04 0.04,-0.04c0.02209,0 0.04,0.01791 0.04,0.04c0,0.02209 -0.01791,0.04 -0.04,0.04c-0.02209,0 -0.04,-0.01791 -0.04,-0.04zM0.47763,0.2267c-0.00403,0 -0.00792,-0.0006 -0.01158,-0.0017h0.02316c-0.00367,0.00111 -0.00755,0.0017 -0.01158,0.0017zM0.36548,2.73784c0.02114,0 0.03845,0.0164 0.0399,0.03716h-0.0798c0.00146,-0.02077 0.01876,-0.03716 0.0399,-0.03716zM2.64678,2.73756c0,-0.02209 0.01791,-0.04 0.04,-0.04c0.02209,0 0.04,0.01791 0.04,0.04c0,0.01712 -0.01076,0.03173 -0.02589,0.03744h-0.02823c-0.01513,-0.00571 -0.02589,-0.02032 -0.02589,-0.03744zM0.25119,2.71318c0.02209,0 0.04,0.01791 0.04,0.04c0,0.00805 -0.00238,0.01554 -0.00647,0.02182l-0.05972,0v-0.05206c0.00702,-0.00608 0.01617,-0.00976 0.02619,-0.00976z"></path></g></svg>