<svg version="1.1" xmlns="http://www.w3.org/2000/svg" xmlns:xlink="http://www.w3.org/1999/xlink" width="3in" height="3in" viewBox="0 0 3.05 3.05"><g fill="#d3d3d3" fill-rule="evenodd" stroke="#ff0000" stroke-width="0.005" stroke-linecap="butt" stroke-linejoin="miter" stroke-miterlimit="10" stroke-dasharray="" stroke-dashoffset="0" font-family="none" font-weight="none" font-size="none" text-anchor="none" style="mix-blend-mode: normal"><path d="M0,3v-3h3v3zM1.096,1.474c0.0228,0.0912 0.023,0.0996 0.004,0.168l-0.01,0.036c-0.019,0.0684 -0.0242,0.0736 -0.104,0.104l-0.042,0.016c-0.0798,0.0304 -0.0966,0.0186 -0.336,-0.236l-0.126,-0.134c-0.2394,-0.2546 -0.2478,-0.2698 -0.168,-0.304l0.042,-0.018c0.0798,-0.0342 0.0964,-0.0308 0.332,0.068l0.124,0.052c0.2356,0.0988 0.2492,0.1088 0.272,0.2zM2.462,1.23c-0.2014,0.057 -0.2054,0.0388 -0.08,-0.364l0.066,-0.212c0.1254,-0.4028 0.136,-0.424 0.212,-0.424h0.04c0.04806,0 0.06733,0.00728 0.075,0.10008l0,0.65244c-0.01268,0.15235 -0.05674,0.17495 -0.207,0.21747zM2.07,1.614c-0.019,0.1102 -0.0226,0.119 -0.072,0.176l-0.026,0.03c-0.0494,0.057 -0.0558,0.061 -0.128,0.08l-0.038,0.01c-0.0722,0.019 -0.0852,0.0166 -0.26,-0.048l-0.092,-0.034c-0.1748,-0.0646 -0.1832,-0.0704 -0.168,-0.116l0.008,-0.024c0.0152,-0.0456 0.0236,-0.0532 0.168,-0.152l0.076,-0.052c0.1444,-0.0988 0.1582,-0.1046 0.276,-0.116l0.062,-0.006c0.1178,-0.0114 0.126,-0.0102 0.164,0.024l0.02,0.018c0.038,0.0342 0.039,0.0418 0.02,0.152zM1.912,0.79495c-0.1064,-0.22486 -0.1078,-0.24326 -0.028,-0.368l0.042,-0.06565c0.0798,-0.12474 0.0912,-0.1313 0.228,-0.1313h0.072c0.1368,0 0.1382,0.0184 0.028,0.368l-0.058,0.184c-0.1102,0.3496 -0.1216,0.35617 -0.228,0.1313zM1.46,0.294c-0.133,-0.0608 -0.131,-0.064 0.04,-0.064h0.09c0.171,0 0.178,0.0032 0.14,0.064l-0.02,0.032c-0.038,0.0608 -0.047,0.0608 -0.18,0zM0.23,2.68v-0.05c0,-0.095 0.0088,-0.1046 0.176,-0.192l0.088,-0.046c0.1672,-0.0874 0.1778,-0.0824 0.212,0.1l0.018,0.096c0.02518,0.13428 0.02705,0.17491 -0.05408,0.187l-0.37374,0c-0.06154,-0.00867 -0.06619,-0.03212 -0.06619,-0.095zM1.034,0.468c-0.0418,0.1064 -0.046,0.1118 -0.084,0.108l-0.02,-0.002c-0.038,-0.0038 -0.04,-0.0108 -0.04,-0.14v-0.068c0,-0.1292 0.0034,-0.136 0.068,-0.136h0.034c0.0646,0 0.0688,0.0014 0.084,0.028l0.008,0.014c0.0152,0.0266 0.0138,0.0336 -0.028,0.14zM1.54,2.752v-0.014c0,-0.0266 0.0052,-0.0398 0.104,-0.264l0.052,-0.118c0.0988,-0.2242 0.1044,-0.236 0.112,-0.236h0.004c0.0076,0 0.009,0.0132 0.028,0.264l0.01,0.132c0.01457,0.19231 0.01467,0.24492 -0.04261,0.259h-0.25238c-0.01362,-0.00389 -0.01501,-0.01079 -0.01501,-0.023zM2.672,2.106c-0.0684,-0.0912 -0.0684,-0.0962 0,-0.1l0.036,-0.002c0.04225,-0.00235 0.05977,-0.00141 0.067,0.02203v0.19156c-0.00723,0.01421 -0.02475,-0.00725 -0.067,-0.06358zM1.364,1.354c-0.0798,0.0532 -0.0846,0.05295 -0.096,-0.00493l-0.006,-0.03046c-0.0114,-0.05788 -0.0104,-0.06388 0.02,-0.12l0.016,-0.02954c0.0304,-0.05612 0.0352,-0.05587 0.096,0.00493l0.032,0.032c0.0608,0.0608 0.0598,0.0668 -0.02,0.12zM2.576,1.806c-0.1292,0.0038 -0.1398,0.0022 -0.212,-0.032l-0.038,-0.018c-0.0722,-0.0342 -0.075,-0.0406 -0.056,-0.128l0.01,-0.046c0.019,-0.0874 0.0296,-0.0948 0.212,-0.148l0.096,-0.028c0.13428,-0.03917 0.17491,-0.04614 0.187,0.02114l0,0.30755c-0.01018,0.06135 -0.04069,0.06665 -0.131,0.0693zM2.05,2.536l-0.01,-0.122c-0.019,-0.2318 -0.0106,-0.2318 0.168,0l0.094,0.122c0.13565,0.17606 0.16885,0.22543 0.10704,0.239l-0.26234,0c-0.07338,-0.01357 -0.08227,-0.06294 -0.0967,-0.239zM2.612,2.356c0.11528,0.16744 0.15168,0.22217 0.163,0.26544v0.15333c-0.00005,0.00008 -0.0001,0.00016 -0.00015,0.00023l-0.03847,0c-0.02107,-0.01558 -0.06824,-0.07816 -0.25038,-0.323l-0.122,-0.164c-0.2318,-0.3116 -0.243,-0.3292 -0.224,-0.352l0.01,-0.012c0.019,-0.0228 0.0238,-0.0222 0.096,0.012l0.038,0.018c0.0722,0.0342 0.0844,0.0482 0.244,0.28zM0.498,0.772c-0.1216,0.1026 -0.1308,0.1092 -0.184,0.132l-0.028,0.012c-0.0532,0.0228 -0.056,0.0098 -0.056,-0.26v-0.142c0,-0.2698 0.0092,-0.284 0.184,-0.284h0.092c0.1748,0 0.184,0.0076 0.184,0.152v0.076c0,0.1444 -0.0064,0.1574 -0.128,0.26zM1.34,2.756c0,0.00975 -0.00139,0.01556 -0.01429,0.019l-0.29685,0c-0.06783,-0.01357 -0.08112,-0.06294 -0.11286,-0.239l-0.022,-0.122c-0.0418,-0.2318 -0.0438,-0.2446 -0.04,-0.256l0.002,-0.006c0.0038,-0.0114 0.0136,-0.0004 0.196,0.22l0.096,0.116c0.1824,0.2204 0.192,0.2332 0.192,0.256zM1.378,0.612c-0.0836,0.0456 -0.09,0.0474 -0.128,0.036l-0.02,-0.006c-0.038,-0.0114 -0.0384,-0.016 -0.008,-0.092l0.016,-0.04c0.0304,-0.076 0.0368,-0.0778 0.128,-0.036l0.048,0.022c0.0912,0.0418 0.0916,0.0464 0.008,0.092zM0.69,2.03c-0.019,0.038 -0.0288,0.0448 -0.196,0.136l-0.088,0.048c-0.1672,0.0912 -0.176,0.08 -0.176,-0.224v-0.16c0,-0.304 0.0098,-0.3108 0.196,-0.136l0.098,0.092c0.1862,0.1748 0.195,0.186 0.176,0.224zM1.756,1.172c-0.0722,0.0076 -0.0816,0.0024 -0.188,-0.104l-0.056,-0.056c-0.1064,-0.1064 -0.112,-0.1136 -0.112,-0.144v-0.016c0,-0.0304 0.005,-0.0344 0.1,-0.08l0.05,-0.024c0.095,-0.0456 0.1044,-0.0388 0.188,0.136l0.044,0.092c0.0836,0.1748 0.0842,0.1844 0.012,0.192zM1.482,2.332c-0.0684,0.1596 -0.0802,0.1578 -0.236,-0.036l-0.082,-0.102c-0.1558,-0.1938 -0.1608,-0.2054 -0.1,-0.232l0.032,-0.014c0.0608,-0.0266 0.0726,-0.0248 0.236,0.036l0.086,0.032c0.1634,0.0608 0.1684,0.0724 0.1,0.232zM1.132,0.868c0.0646,0.0494 0.0658,0.0562 0.024,0.136l-0.022,0.042c-0.0418,0.0798 -0.0534,0.08 -0.232,0.004l-0.094,-0.04c-0.1786,-0.076 -0.1838,-0.0834 -0.104,-0.148l0.042,-0.034c0.0798,-0.0646 0.088,-0.0674 0.164,-0.056l0.04,0.006c0.076,0.0114 0.0834,0.0146 0.148,0.064z"></path></g></svg>