<svg version="1.1" xmlns="http://www.w3.org/2000/svg" xmlns:xlink="http://www.w3.org/1999/xlink" width="3.0000000000000027in" height="3in" viewBox="-1.6653345369377348e-15 0 3.0500000000000025 3.05"><g fill="none" fill-rule="none" stroke="none" stroke-width="none" stroke-linecap="butt" stroke-linejoin="miter" stroke-miterlimit="10" stroke-dasharray="" stroke-dashoffset="0" font-family="none" font-weight="none" font-size="none" text-anchor="none" style="mix-blend-mode: normal"><path d="M0,3v-3h3v3z" fill="none" fill-rule="nonzero" stroke="none" stroke-width="1"></path><path d="M0,1.625v-0.25h3v0.25z" fill="none" fill-rule="nonzero" stroke="none" stroke-width="1"></path><path d="M1.1304,1.2c-0.31016,0.12456 -0.69691,0.2577 -1.1304,0.39408l0,-0.08227c0.33394,-0.10759 0.63292,-0.21244 0.8804,-0.31182c1.495,-0.60033 1.1112,-1.00119 0.98714,-1.2h0.25c0.22347,0.19881 0.5077,0.59967 -0.98714,1.2zM1.11565,1.5c-0.31968,0.13113 -0.70053,0.26225 -1.11565,0.39022l0,-0.08124c0.31979,-0.10196 0.61326,-0.20547 0.86565,-0.30899c1.46343,-0.60024 1.54556,-1.20089 1.65554,-1.5h0.25c-0.01057,0.29911 -0.19226,0.89976 -1.65554,1.5zM1.15136,1.8c-0.34527,0.14526 -0.73779,0.27878 -1.15136,0.40058l0,-0.07872c0.32353,-0.09999 0.62897,-0.20727 0.90136,-0.32186c1.19556,-0.50293 1.75462,-1.14649 2.09864,-1.57685l0,0.34525c-0.36221,0.38865 -0.94279,0.8505 -1.84864,1.23159zM1.23855,2.1c-0.39285,0.17001 -0.81446,0.30791 -1.23855,0.42051v-0.07295c0.34165,-0.09789 0.67668,-0.21261 0.98855,-0.34756c0.8299,-0.35912 1.49577,-0.86154 2.01145,-1.31423v0.2429c-0.48137,0.38242 -1.07787,0.7755 -1.76145,1.07133zM2.72205,1.8c-0.75382,0.33642 -1.76969,0.60992 -2.72205,0.82054l0,-0.06521c0.8778,-0.20085 1.79369,-0.45261 2.47205,-0.75532c0.19476,-0.08691 0.36993,-0.17801 0.52795,-0.2715l0,0.13883c-0.08844,0.04511 -0.18103,0.08941 -0.27795,0.13266zM3,1.94496c-0.9391,0.30598 -2.06048,0.59113 -3,0.81178l0,-0.06966c0.95856,-0.23146 2.09116,-0.52196 3,-0.82892zM3,2.12557c-1.06877,0.32333 -2.19313,0.62592 -3,0.83556l0,-0.07088c0.821,-0.2244 1.94963,-0.53071 3,-0.85084zM3,2.33744c-0.81569,0.25595 -1.59544,0.48928 -2.18785,0.66256h-0.25c0.62437,-0.19398 1.51362,-0.46322 2.43785,-0.7552zM3,2.6694c-0.43844,0.12638 -0.84353,0.23899 -1.17951,0.3306h-0.25c0.38188,-0.11175 0.88219,-0.25473 1.42951,-0.41586zM3,2.96912c-0.0436,0.01062 -0.08609,0.02092 -0.12736,0.03088h-0.25c0.11383,-0.0299 0.2405,-0.06277 0.37736,-0.09833z" fill="#d3d3d3" fill-rule="evenodd" stroke="#ff0000" stroke-width="0.005"></path></g></svg>