<svg version="1.1" xmlns="http://www.w3.org/2000/svg" xmlns:xlink="http://www.w3.org/1999/xlink" width="8.980853310136494in" height="3in" viewBox="0 0 9.030853310136495 3.05"><g fill="none" fill-rule="none" stroke="none" stroke-width="none" stroke-linecap="butt" stroke-linejoin="miter" stroke-miterlimit="10" stroke-dasharray="" stroke-dashoffset="0" font-family="none" font-weight="none" font-size="none" text-anchor="none" style="mix-blend-mode: normal"><path d="M0,3v-3h3v3z" fill="none" fill-rule="nonzero" stroke="none" stroke-width="1"></path><path d="M0.2,0c-0.1,0 -0.19005,0.0995 -0.1801,0.19901l0.1602,1.60199c0.00995,0.0995 0.1199,0.19901 0.2199,0.19901h8.2c0.1,0 0.20995,-0.0995 0.2199,-0.19901l0.1602,-1.60199c0.00995,-0.0995 -0.0801,-0.19901 -0.1801,-0.19901zM0.40793,0.57143c0,-0.05436 0.04407,-0.09843 0.09843,-0.09843c0.05436,0 0.09843,0.04407 0.09843,0.09843c0,0.05436 -0.04407,0.09843 -0.09843,0.09843c-0.05436,0 -0.09843,-0.04407 -0.09843,-0.09843zM0.49364,1.42857c0,-0.05436 0.04407,-0.09843 0.09843,-0.09843c0.05436,0 0.09843,0.04407 0.09843,0.09843c0,0.05436 -0.04407,0.09843 -0.09843,0.09843c-0.05436,0 -0.09843,-0.04407 -0.09843,-0.09843zM8.39522,0.57143c0,-0.05436 0.04407,-0.09843 0.09843,-0.09843c0.05436,0 0.09843,0.04407 0.09843,0.09843c0,0.05436 -0.04407,0.09843 -0.09843,0.09843c-0.05436,0 -0.09843,-0.04407 -0.09843,-0.09843zM8.3095,1.42857c0,-0.05436 0.04407,-0.09843 0.09843,-0.09843c0.05436,0 0.09843,0.04407 0.09843,0.09843c0,0.05436 -0.04407,0.09843 -0.09843,0.09843c-0.05436,0 -0.09843,-0.04407 -0.09843,-0.09843z" fill="#d3d3d3" fill-rule="evenodd" stroke="#ff0000" stroke-width="0.005"></path><path d="M0,0" fill="#d3d3d3" fill-rule="evenodd" stroke="#ff0000" stroke-width="0.005"></path></g></svg>