<svg version="1.1" xmlns="http://www.w3.org/2000/svg" xmlns:xlink="http://www.w3.org/1999/xlink" width="17in" height="3in" viewBox="0 0 17.05 3.05"><g fill="none" fill-rule="none" stroke="none" stroke-width="none" stroke-linecap="butt" stroke-linejoin="miter" stroke-miterlimit="10" stroke-dasharray="" stroke-dashoffset="0" font-family="none" font-weight="none" font-size="none" text-anchor="none" style="mix-blend-mode: normal"><path d="M0,3v-3h3v3z" fill="none" fill-rule="nonzero" stroke="none" stroke-width="1"></path><path d="M0.40157,0.57143c0,-0.05436 0.04407,-0.09843 0.09843,-0.09843c0.05436,0 0.09843,0.04407 0.09843,0.09843c0,0.05436 -0.04407,0.09843 -0.09843,0.09843c-0.05436,0 -0.09843,-0.04407 -0.09843,-0.09843z" fill="none" fill-rule="nonzero" stroke="none" stroke-width="1"></path><path d="M0.40157,1.42857c0,-0.05436 0.04407,-0.09843 0.09843,-0.09843c0.05436,0 0.09843,0.04407 0.09843,0.09843c0,0.05436 -0.04407,0.09843 -0.09843,0.09843c-0.05436,0 -0.09843,-0.04407 -0.09843,-0.09843z" fill="none" fill-rule="nonzero" stroke="none" stroke-width="1"></path><path d="M0.77957,0.57143c0,-0.05436 0.04407,-0.09843 0.09843,-0.09843c0.05436,0 0.09843,0.04407 0.09843,0.09843c0,0.05436 -0.04407,0.09843 -0.09843,0.09843c-0.05436,0 -0.09843,-0.04407 -0.09843,-0.09843z" fill="none" fill-rule="nonzero" stroke="none" stroke-width="1"></path><path d="M0.77957,1.42857c0,-0.05436 0.04407,-0.09843 0.09843,-0.09843c0.05436,0 0.09843,0.04407 0.09843,0.09843c0,0.05436 -0.04407,0.09843 -0.09843,0.09843c-0.05436,0 -0.09843,-0.04407 -0.09843,-0.09843z" fill="none" fill-rule="nonzero" stroke="none" stroke-width="1"></path><path d="M1.628,1.125c-0.06904,0 -0.125,-0.05596 -0.125,-0.125v0c0,-0.06904 0.05596,-0.125 0.125,-0.125h0.5c0.06904,0 0.125,0.05596 0.125,0.125v0c0,0.06904 -0.05596,0.125 -0.125,0.125z" fill="none" fill-rule="nonzero" stroke="none" stroke-width="1"></path><path d="M2.65457,0.57143c0,-0.05436 0.04407,-0.09843 0.09843,-0.09843c0.05436,0 0.09843,0.04407 0.09843,0.09843c0,0.05436 -0.04407,0.09843 -0.09843,0.09843c-0.05436,0 -0.09843,-0.04407 -0.09843,-0.09843z" fill="none" fill-rule="nonzero" stroke="none" stroke-width="1"></path><path d="M2.65457,1.42857c0,-0.05436 0.04407,-0.09843 0.09843,-0.09843c0.05436,0 0.09843,0.04407 0.09843,0.09843c0,0.05436 -0.04407,0.09843 -0.09843,0.09843c-0.05436,0 -0.09843,-0.04407 -0.09843,-0.09843z" fill="none" fill-rule="nonzero" stroke="none" stroke-width="1"></path><path d="M3.03257,0.57143c0,-0.05436 0.04407,-0.09843 0.09843,-0.09843c0.05436,0 0.09843,0.04407 0.09843,0.09843c0,0.05436 -0.04407,0.09843 -0.09843,0.09843c-0.05436,0 -0.09843,-0.04407 -0.09843,-0.09843z" fill="none" fill-rule="nonzero" stroke="none" stroke-width="1"></path><path d="M3.03257,1.42857c0,-0.05436 0.04407,-0.09843 0.09843,-0.09843c0.05436,0 0.09843,0.04407 0.09843,0.09843c0,0.05436 -0.04407,0.09843 -0.09843,0.09843c-0.05436,0 -0.09843,-0.04407 -0.09843,-0.09843z" fill="none" fill-rule="nonzero" stroke="none" stroke-width="1"></path><path d="M16.38189,1c0,-0.06523 0.05288,-0.11811 0.11811,-0.11811c0.06523,0 0.11811,0.05288 0.11811,0.11811c0,0.06523 -0.05288,0.11811 -0.11811,0.11811c-0.06523,0 -0.11811,-0.05288 -0.11811,-0.11811z" fill="none" fill-rule="nonzero" stroke="none" stroke-width="1"></path><path d="M15.88189,1c0,-0.06523 0.05288,-0.11811 0.11811,-0.11811c0.06523,0 0.11811,0.05288 0.11811,0.11811c0,0.06523 -0.05288,0.11811 -0.11811,0.11811c-0.06523,0 -0.11811,-0.05288 -0.11811,-0.11811z" fill="none" fill-rule="nonzero" stroke="none" stroke-width="1"></path><path d="M15.38189,1c0,-0.06523 0.05288,-0.11811 0.11811,-0.11811c0.06523,0 0.11811,0.05288 0.11811,0.11811c0,0.06523 -0.05288,0.11811 -0.11811,0.11811c-0.06523,0 -0.11811,-0.05288 -0.11811,-0.11811z" fill="none" fill-rule="nonzero" stroke="none" stroke-width="1"></path><path d="M14.88189,1c0,-0.06523 0.05288,-0.11811 0.11811,-0.11811c0.06523,0 0.11811,0.05288 0.11811,0.11811c0,0.06523 -0.05288,0.11811 -0.11811,0.11811c-0.06523,0 -0.11811,-0.05288 -0.11811,-0.11811z" fill="none" fill-rule="nonzero" stroke="none" stroke-width="1"></path><path d="M14.38189,1c0,-0.06523 0.05288,-0.11811 0.11811,-0.11811c0.06523,0 0.11811,0.05288 0.11811,0.11811c0,0.06523 -0.05288,0.11811 -0.11811,0.11811c-0.06523,0 -0.11811,-0.05288 -0.11811,-0.11811z" fill="none" fill-rule="nonzero" stroke="none" stroke-width="1"></path><path d="M13.88189,1c0,-0.06523 0.05288,-0.11811 0.11811,-0.11811c0.06523,0 0.11811,0.05288 0.11811,0.11811c0,0.06523 -0.05288,0.11811 -0.11811,0.11811c-0.06523,0 -0.11811,-0.05288 -0.11811,-0.11811z" fill="none" fill-rule="nonzero" stroke="none" stroke-width="1"></path><path d="M3.82785,1.9v-1.8h9.40837v1.8z" fill="none" fill-rule="nonzero" stroke="#008000" stroke-width="0.001"></path><path d="" fill="none" fill-rule="nonzero" stroke="#008000" stroke-width="0.001"></path><path d="M1,2c-0.55228,0 -1,-0.44772 -1,-1v0c0,-0.55228 0.44772,-1 1,-1h15c0.55228,0 1,0.44772 1,1v0c0,0.55228 -0.44772,1 -1,1z" fill="#d3d3d3" fill-rule="evenodd" stroke="#ff0000" stroke-width="0.005"></path></g></svg>