<svg version="1.1" xmlns="http://www.w3.org/2000/svg" xmlns:xlink="http://www.w3.org/1999/xlink" width="8.880853310136494in" height="20in" viewBox="0 -10 8.930853310136495 20.05"><g fill="none" fill-rule="none" stroke="none" stroke-width="none" stroke-linecap="butt" stroke-linejoin="miter" stroke-miterlimit="10" stroke-dasharray="" stroke-dashoffset="0" font-family="none" font-weight="none" font-size="none" text-anchor="none" style="mix-blend-mode: normal"><path d="M0,3v-3h3v3z" fill="none" fill-rule="nonzero" stroke="none" stroke-width="1"></path><path d="M0.40793,0.57143c0,-0.05436 0.04407,-0.09843 0.09843,-0.09843c0.05436,0 0.09843,0.04407 0.09843,0.09843c0,0.05436 -0.04407,0.09843 -0.09843,0.09843c-0.05436,0 -0.09843,-0.04407 -0.09843,-0.09843z" fill="none" fill-rule="nonzero" stroke="none" stroke-width="1"></path><path d="M0.49364,1.42857c0,-0.05436 0.04407,-0.09843 0.09843,-0.09843c0.05436,0 0.09843,0.04407 0.09843,0.09843c0,0.05436 -0.04407,0.09843 -0.09843,0.09843c-0.05436,0 -0.09843,-0.04407 -0.09843,-0.09843z" fill="none" fill-rule="nonzero" stroke="none" stroke-width="1"></path><path d="M8.29522,0.57143c0,-0.05436 0.04407,-0.09843 0.09843,-0.09843c0.05436,0 0.09843,0.04407 0.09843,0.09843c0,0.05436 -0.04407,0.09843 -0.09843,0.09843c-0.05436,0 -0.09843,-0.04407 -0.09843,-0.09843z" fill="none" fill-rule="nonzero" stroke="none" stroke-width="1"></path><path d="M8.2095,1.42857c0,-0.05436 0.04407,-0.09843 0.09843,-0.09843c0.05436,0 0.09843,0.04407 0.09843,0.09843c0,0.05436 -0.04407,0.09843 -0.09843,0.09843c-0.05436,0 -0.09843,-0.04407 -0.09843,-0.09843z" fill="none" fill-rule="nonzero" stroke="none" stroke-width="1"></path><path d="M1,1.75v-1.5h6.9v1.5z" fill="none" fill-rule="nonzero" stroke="none" stroke-width="1"></path><path d="" fill="none" fill-rule="nonzero" stroke="none" stroke-width="1"></path><path d="M1,10v-20h6.9v20z" fill="none" fill-rule="nonzero" stroke="none" stroke-width="1"></path><path d="M0.2,0c-0.1,0 -0.19005,0.0995 -0.1801,0.19901l0.1602,1.60199c0.00995,0.0995 0.1199,0.19901 0.2199,0.19901h8.1c0.1,0 0.20995,-0.0995 0.2199,-0.19901l0.1602,-1.60199c0.00995,-0.0995 -0.0801,-0.19901 -0.1801,-0.19901z" fill="#d3d3d3" fill-rule="evenodd" stroke="#ff0000" stroke-width="0.005"></path></g></svg>