<svg version="1.1" xmlns="http://www.w3.org/2000/svg" xmlns:xlink="http://www.w3.org/1999/xlink" width="3in" height="3in" viewBox="0 0 3.05 3.05"><g fill="none" fill-rule="none" stroke="none" stroke-width="none" stroke-linecap="butt" stroke-linejoin="miter" stroke-miterlimit="10" stroke-dasharray="" stroke-dashoffset="0" font-family="none" font-weight="none" font-size="none" text-anchor="none" style="mix-blend-mode: normal"><path d="M0,3v-3h3v3z" fill="none" fill-rule="nonzero" stroke="none" stroke-width="1"></path><path d="M0.04,0.04l-0.04,0v-0.04h0.04zM0.04,0.12v0.04l-0.04,0v-0.04zM0.12,0.16v-0.04h0.04v0.04zM0.04,0.24v0.04l-0.04,0v-0.04zM0.12,0.28v-0.04h0.04v0.04zM0.24,0.28v-0.04h0.04v0.04zM0.04,0.36v0.04l-0.04,0v-0.04zM0.12,0.4v-0.04h0.04v0.04zM0.24,0.4v-0.04h0.04v0.04zM0.36,0.4v-0.04h0.04v0.04zM0.04,0.48v0.04l-0.04,0v-0.04zM0.12,0.52v-0.04h0.04v0.04zM0.24,0.52v-0.04h0.04v0.04zM0.36,0.52v-0.04h0.04v0.04zM0.48,0.52v-0.04h0.04v0.04zM0.04,0.6v0.04l-0.04,0v-0.04zM0.12,0.64v-0.04h0.04v0.04zM0.24,0.64v-0.04h0.04v0.04zM0.36,0.64v-0.04h0.04v0.04zM0.48,0.64v-0.04h0.04v0.04zM0.6,0.64v-0.04h0.04v0.04zM0.04,0.72v0.04l-0.04,0v-0.04zM0.12,0.76v-0.04h0.04v0.04zM0.24,0.76v-0.04h0.04v0.04zM0.36,0.76v-0.04h0.04v0.04zM0.48,0.76v-0.04h0.04v0.04zM0.6,0.76v-0.04h0.04v0.04zM0.72,0.76v-0.04h0.04v0.04zM0.04,0.84v0.04l-0.04,0v-0.04zM0.12,0.88v-0.04h0.04v0.04zM0.24,0.88v-0.04h0.04v0.04zM0.36,0.88v-0.04h0.04v0.04zM0.48,0.88v-0.04h0.04v0.04zM0.6,0.88v-0.04h0.04v0.04zM0.72,0.88v-0.04h0.04v0.04zM0.84,0.88v-0.04h0.04v0.04zM0.04,0.96v0.04l-0.04,0v-0.04zM0.12,1v-0.04h0.04v0.04zM0.24,1v-0.04h0.04v0.04zM0.36,1v-0.04h0.04v0.04zM0.48,1v-0.04h0.04v0.04zM0.6,1v-0.04h0.04v0.04zM0.72,1v-0.04h0.04v0.04zM0.84,1v-0.04h0.04v0.04zM0.04,1.08v0.04h-0.04v-0.04zM0.12,1.12v-0.04h0.04v0.04zM0.24,1.12v-0.04h0.04v0.04zM0.36,1.12v-0.04h0.04v0.04zM0.48,1.12v-0.04h0.04v0.04zM0.6,1.12v-0.04h0.04v0.04zM0.72,1.12v-0.04h0.04v0.04zM0.84,1.12v-0.04h0.04v0.04zM0.96,1.12v-0.04h0.04v0.04zM0.04,1.2v0.04l-0.04,0v-0.04zM0.12,1.24v-0.04h0.04v0.04zM0.24,1.24v-0.04h0.04v0.04zM0.36,1.24v-0.04h0.04v0.04zM0.48,1.24v-0.04h0.04v0.04zM0.6,1.24v-0.04h0.04v0.04zM0.72,1.24v-0.04h0.04v0.04zM0.84,1.24v-0.04h0.04v0.04zM0.96,1.24v-0.04h0.04v0.04zM1.08,1.24v-0.04h0.04v0.04zM0.04,1.32v0.04l-0.04,0v-0.04zM0.12,1.36v-0.04h0.04v0.04zM0.24,1.36v-0.04h0.04v0.04zM0.36,1.36v-0.04h0.04v0.04zM0.48,1.36v-0.04h0.04v0.04zM0.6,1.36v-0.04h0.04v0.04zM0.72,1.36v-0.04h0.04v0.04zM0.84,1.36v-0.04h0.04v0.04zM0.96,1.36v-0.04h0.04v0.04zM1.08,1.36v-0.04h0.04v0.04zM1.2,1.36v-0.04h0.04v0.04zM0.04,1.44v0.04l-0.04,0v-0.04zM0.12,1.48v-0.04h0.04v0.04zM0.24,1.48v-0.04h0.04v0.04zM0.36,1.48v-0.04h0.04v0.04zM0.48,1.48v-0.04h0.04v0.04zM0.6,1.48v-0.04h0.04v0.04zM0.72,1.48v-0.04h0.04v0.04zM0.84,1.48v-0.04h0.04v0.04zM0.96,1.48v-0.04h0.04v0.04zM1.08,1.48v-0.04h0.04v0.04zM1.2,1.48v-0.04h0.04v0.04zM1.32,1.48v-0.04h0.04v0.04zM0.04,1.56v0.04h-0.04v-0.04zM0.12,1.6v-0.04h0.04v0.04zM0.24,1.6v-0.04h0.04v0.04zM0.36,1.6v-0.04h0.04v0.04zM0.48,1.6v-0.04h0.04v0.04zM0.6,1.6v-0.04h0.04v0.04zM0.72,1.6v-0.04h0.04v0.04zM0.84,1.6v-0.04h0.04v0.04zM0.96,1.6v-0.04h0.04v0.04zM1.08,1.6v-0.04h0.04v0.04zM1.2,1.6v-0.04h0.04v0.04zM1.32,1.6v-0.04h0.04v0.04zM1.44,1.6v-0.04h0.04v0.04zM0.04,1.68v0.04l-0.04,0v-0.04zM0.12,1.72v-0.04h0.04v0.04zM0.24,1.72v-0.04h0.04v0.04zM0.36,1.72v-0.04h0.04v0.04zM0.48,1.72v-0.04h0.04v0.04zM0.6,1.72v-0.04h0.04v0.04zM0.72,1.72v-0.04h0.04v0.04zM0.84,1.72v-0.04h0.04v0.04zM0.96,1.72v-0.04h0.04v0.04zM1.08,1.72v-0.04h0.04v0.04zM1.2,1.72v-0.04h0.04v0.04zM1.32,1.72v-0.04h0.04v0.04zM1.44,1.72v-0.04h0.04v0.04zM1.56,1.72v-0.04h0.04v0.04zM0.04,1.8v0.04l-0.04,0v-0.04zM0.12,1.84v-0.04h0.04v0.04zM0.24,1.84v-0.04h0.04v0.04zM0.36,1.84v-0.04h0.04v0.04zM0.48,1.84v-0.04h0.04v0.04zM0.6,1.84v-0.04h0.04v0.04zM0.72,1.84v-0.04h0.04v0.04zM0.84,1.84v-0.04h0.04v0.04zM0.96,1.84v-0.04h0.04v0.04zM1.08,1.84v-0.04h0.04v0.04zM1.2,1.84v-0.04h0.04v0.04zM1.32,1.84v-0.04h0.04v0.04zM1.44,1.84v-0.04h0.04v0.04zM1.56,1.84v-0.04h0.04v0.04zM1.68,1.84v-0.04h0.04v0.04zM0.04,1.92v0.04h-0.04v-0.04zM0.12,1.96v-0.04h0.04v0.04zM0.24,1.96v-0.04h0.04v0.04zM0.36,1.96v-0.04h0.04v0.04zM0.48,1.96v-0.04h0.04v0.04zM0.6,1.96v-0.04h0.04v0.04zM0.72,1.96v-0.04h0.04v0.04zM0.84,1.96v-0.04h0.04v0.04zM0.96,1.96v-0.04h0.04v0.04zM1.08,1.96v-0.04h0.04v0.04zM1.2,1.96v-0.04h0.04v0.04zM1.32,1.96v-0.04h0.04v0.04zM1.44,1.96v-0.04h0.04v0.04zM1.56,1.96v-0.04h0.04v0.04zM1.68,1.96v-0.04h0.04v0.04zM1.8,1.96v-0.04h0.04v0.04zM0.04,2.04v0.04h-0.04v-0.04zM0.12,2.08v-0.04h0.04v0.04zM0.24,2.08v-0.04h0.04v0.04zM0.36,2.08v-0.04h0.04v0.04zM0.48,2.08v-0.04h0.04v0.04zM0.6,2.08v-0.04h0.04v0.04zM0.72,2.08v-0.04h0.04v0.04zM0.84,2.08v-0.04h0.04v0.04zM0.96,2.08v-0.04h0.04v0.04zM1.08,2.08v-0.04h0.04v0.04zM1.2,2.08v-0.04h0.04v0.04zM1.32,2.08v-0.04h0.04v0.04zM1.44,2.08v-0.04h0.04v0.04zM1.56,2.08v-0.04h0.04v0.04zM1.68,2.08v-0.04h0.04v0.04zM1.8,2.08v-0.04h0.04v0.04zM1.92,2.08v-0.04h0.04v0.04zM0.04,2.16v0.04h-0.04v-0.04zM0.12,2.2v-0.04h0.04v0.04zM0.24,2.2v-0.04h0.04v0.04zM0.36,2.2v-0.04h0.04v0.04zM0.48,2.2v-0.04h0.04v0.04zM0.6,2.2v-0.04h0.04v0.04zM0.72,2.2v-0.04h0.04v0.04zM0.84,2.2v-0.04h0.04v0.04zM0.96,2.2v-0.04h0.04v0.04zM1.08,2.2v-0.04h0.04v0.04zM1.2,2.2v-0.04h0.04v0.04zM1.32,2.2v-0.04h0.04v0.04zM1.44,2.2v-0.04h0.04v0.04zM1.56,2.2v-0.04h0.04v0.04zM1.68,2.2v-0.04h0.04v0.04zM1.8,2.2v-0.04h0.04v0.04zM1.92,2.2v-0.04h0.04v0.04zM0.04,2.28v0.04l-0.04,0v-0.04zM0.12,2.32v-0.04h0.04v0.04zM0.24,2.32v-0.04h0.04v0.04zM0.36,2.32v-0.04h0.04v0.04zM0.48,2.32v-0.04h0.04v0.04zM0.6,2.32v-0.04h0.04v0.04zM0.72,2.32v-0.04h0.04v0.04zM0.84,2.32v-0.04h0.04v0.04zM0.96,2.32v-0.04h0.04v0.04zM1.08,2.32v-0.04h0.04v0.04zM1.2,2.32v-0.04h0.04v0.04zM1.32,2.32v-0.04h0.04v0.04zM1.44,2.32v-0.04h0.04v0.04zM1.56,2.32v-0.04h0.04v0.04zM1.68,2.32v-0.04h0.04v0.04zM1.8,2.32v-0.04h0.04v0.04zM1.92,2.32v-0.04h0.04v0.04zM2.04,2.32v-0.04h0.04v0.04zM0.04,2.4v0.04h-0.04v-0.04zM0.12,2.44v-0.04h0.04v0.04zM0.24,2.44v-0.04h0.04v0.04zM0.36,2.44v-0.04h0.04v0.04zM0.48,2.44v-0.04h0.04v0.04zM0.6,2.44v-0.04h0.04v0.04zM0.72,2.44v-0.04h0.04v0.04zM0.84,2.44v-0.04h0.04v0.04zM0.96,2.44v-0.04h0.04v0.04zM1.08,2.44v-0.04h0.04v0.04zM1.2,2.44v-0.04h0.04v0.04zM1.32,2.44v-0.04h0.04v0.04zM1.44,2.44v-0.04h0.04v0.04zM1.56,2.44v-0.04h0.04v0.04zM1.68,2.44v-0.04h0.04v0.04zM1.8,2.44v-0.04h0.04v0.04zM1.92,2.44v-0.04h0.04v0.04zM2.04,2.44v-0.04h0.04v0.04zM2.16,2.44v-0.04h0.04v0.04zM0.04,2.52v0.04h-0.04v-0.04zM0.12,2.56v-0.04h0.04v0.04zM0.24,2.56v-0.04h0.04v0.04zM0.36,2.56v-0.04h0.04v0.04zM0.48,2.56v-0.04h0.04v0.04zM0.6,2.56v-0.04h0.04v0.04zM0.72,2.56v-0.04h0.04v0.04zM0.84,2.56v-0.04h0.04v0.04zM0.96,2.56v-0.04h0.04v0.04zM1.08,2.56v-0.04h0.04v0.04zM1.2,2.56v-0.04h0.04v0.04zM1.32,2.56v-0.04h0.04v0.04zM1.44,2.56v-0.04h0.04v0.04zM1.56,2.56v-0.04h0.04v0.04zM1.68,2.56v-0.04h0.04v0.04zM1.8,2.56v-0.04h0.04v0.04zM1.92,2.56v-0.04h0.04v0.04zM2.04,2.56v-0.04h0.04v0.04zM2.16,2.56v-0.04h0.04v0.04zM0.04,2.64v0.04h-0.04v-0.04zM0.12,2.68v-0.04h0.04v0.04zM0.24,2.68v-0.04h0.04v0.04zM0.36,2.68v-0.04h0.04v0.04zM0.48,2.68v-0.04h0.04v0.04zM0.6,2.68v-0.04h0.04v0.04zM0.72,2.68v-0.04h0.04v0.04zM0.84,2.68v-0.04h0.04v0.04zM0.96,2.68v-0.04h0.04v0.04zM1.08,2.68v-0.04h0.04v0.04zM1.2,2.68v-0.04h0.04v0.04zM1.32,2.68v-0.04h0.04v0.04zM1.44,2.68v-0.04h0.04v0.04zM1.56,2.68v-0.04h0.04v0.04zM1.68,2.68v-0.04h0.04v0.04zM1.8,2.68v-0.04h0.04v0.04zM1.92,2.68v-0.04h0.04v0.04zM2.04,2.68v-0.04h0.04v0.04zM2.16,2.68v-0.04h0.04v0.04zM2.28,2.68v-0.04h0.04v0.04zM0.04,2.76v0.04h-0.04v-0.04zM0.12,2.8v-0.04h0.04v0.04zM0.24,2.8v-0.04h0.04v0.04zM0.36,2.8v-0.04h0.04v0.04zM0.48,2.8v-0.04h0.04v0.04zM0.6,2.8v-0.04h0.04v0.04zM0.72,2.8v-0.04h0.04v0.04zM0.84,2.8v-0.04h0.04v0.04zM0.96,2.8v-0.04h0.04v0.04zM1.08,2.8v-0.04h0.04v0.04zM1.2,2.8v-0.04h0.04v0.04zM1.32,2.8v-0.04h0.04v0.04zM1.44,2.8v-0.04h0.04v0.04zM1.56,2.8v-0.04h0.04v0.04zM1.68,2.8v-0.04h0.04v0.04zM1.8,2.8v-0.04h0.04v0.04zM1.92,2.8v-0.04h0.04v0.04zM2.04,2.8v-0.04h0.04v0.04zM2.16,2.8v-0.04h0.04v0.04zM2.28,2.8v-0.04h0.04v0.04zM0.04,2.88v0.04h-0.04v-0.04zM0.12,2.92v-0.04h0.04v0.04zM0.24,2.92v-0.04h0.04v0.04zM0.36,2.92v-0.04h0.04v0.04zM0.48,2.92v-0.04h0.04v0.04zM0.6,2.92v-0.04h0.04v0.04zM0.72,2.92v-0.04h0.04v0.04zM0.84,2.92v-0.04h0.04v0.04zM0.96,2.92v-0.04h0.04v0.04zM1.08,2.92v-0.04h0.04v0.04zM1.2,2.92v-0.04h0.04v0.04zM1.32,2.92v-0.04h0.04v0.04zM1.44,2.92v-0.04h0.04v0.04zM1.56,2.92v-0.04h0.04v0.04zM1.68,2.92v-0.04h0.04v0.04zM1.8,2.92v-0.04h0.04v0.04zM1.92,2.92v-0.04h0.04v0.04zM2.04,2.92v-0.04h0.04v0.04zM2.16,2.92v-0.04h0.04v0.04zM2.28,2.92v-0.04h0.04v0.04z" fill="#d3d3d3" fill-rule="evenodd" stroke="#ff0000" stroke-width="0.005"></path></g></svg>