<svg version="1.1" xmlns="http://www.w3.org/2000/svg" xmlns:xlink="http://www.w3.org/1999/xlink" width="3in" height="3in" viewBox="0 0 3.05 3.05"><g fill="none" fill-rule="none" stroke="none" stroke-width="none" stroke-linecap="butt" stroke-linejoin="miter" stroke-miterlimit="10" stroke-dasharray="" stroke-dashoffset="0" font-family="none" font-weight="none" font-size="none" text-anchor="none" style="mix-blend-mode: normal"><path d="M0,3v-3h3v3z" fill="none" fill-rule="nonzero" stroke="none" stroke-width="1"></path><path d="M0,3v-3h3v3z" fill="none" fill-rule="nonzero" stroke="none" stroke-width="1"></path><path d="M1,1.29l0.07,0.29l-0.06,0.22l-0.27,0.12l-0.64,-0.62v-0.26l0.14,-0.07zM2.9,1.13l-0.53,0.15l-0.01,-0.01l0.36,-1.17h0.18zM2.17,1.36l0.06,0.07l-0.06,0.35l-0.16,0.18l-0.06,0.03l-0.18,0.03l-0.55,-0.2l0.04,-0.16l0.44,-0.31l0.38,-0.05zM2.19,1.13l-0.36,-0.73l0.19,-0.3h0.49zM1.71,0.22l-0.25,-0.12h0.33zM0.63,2.9h-0.53v-0.26l0.43,-0.22zM0.92,0.44l-0.15,-0.02v-0.32h0.28zM1.94,2.9h-0.4l0.3,-0.69l0.05,-0.01zM2.9,2.27l-0.13,-0.18l0.13,-0.01zM1.5,1.23l-0.26,0.19l-0.05,-0.20508l0.1,-0.19492zM2.9,1.88l-0.3,0.01l-0.24,-0.13l0.06,-0.29l0.48,-0.13zM2.6,2.9h-0.46l-0.05,-0.68zM2.53,2.08l0.37,0.53v0.29h-0.05l-0.65,-0.86177l0.08,-0.08823zM0.57,0.46l-0.37,0.31l-0.1,0.05v-0.72h0.47zM1.3,2.9h-0.48l-0.11,-0.62l0.03,-0.07zM1.55,0.37l-0.29,0.16l-0.15,-0.05l0.11,-0.27zM0.6,2.05l-0.08,0.15l-0.42,0.22v-0.84zM1.96,1.12l-0.26,0.02l-0.33,-0.34l-0.01,-0.11l0.31,-0.16zM1.63,2.18l-0.23,0.52l-0.52,-0.63l0.22,-0.09zM0.96,0.65v-0.01l0.2,0.07l0.01,0.11l-0.14,0.26l-0.6,-0.25l0.27,-0.22z" fill="#d3d3d3" fill-rule="evenodd" stroke="#ff0000" stroke-width="0.005"></path></g></svg>