<svg version="1.1" xmlns="http://www.w3.org/2000/svg" xmlns:xlink="http://www.w3.org/1999/xlink" width="3.0000000000000018in" height="3in" viewBox="-1.1102230246251565e-15 0 3.0500000000000016 3.05"><g fill="none" fill-rule="none" stroke="none" stroke-width="none" stroke-linecap="butt" stroke-linejoin="miter" stroke-miterlimit="10" stroke-dasharray="" stroke-dashoffset="0" font-family="none" font-weight="none" font-size="none" text-anchor="none" style="mix-blend-mode: normal"><path d="M0,3v-3h3v3z" fill="none" fill-rule="nonzero" stroke="none" stroke-width="1"></path><path d="M2.11754,0l-2.11754,0.85066l0,-0.10043l1.86754,-0.75023M2.77118,0l-2.77118,1.13712l0,-0.10258l2.52118,-1.03453M3,0.18032l-3,1.26254l0,-0.10521l3,-1.26254zM3,0.47161l-3,1.29875l0,-0.10823l3,-1.29875zM3,0.78302l-3,1.33934l0,-0.11161l3,-1.33934zM3,1.1188l-3,1.3858l0,-0.11548l3,-1.3858zM3,1.48644l-3,1.44145l0,-0.12012l3,-1.44145zM3,1.89811l-2.18785,1.10189h-0.25l2.43785,-1.2278zM3,2.37114l-1.17951,0.62886h-0.25l1.42951,-0.76214zM3,2.92732l-0.12736,0.07268h-0.25l0.37736,-0.21536z" fill="#d3d3d3" fill-rule="evenodd" stroke="#ff0000" stroke-width="0.005"></path></g></svg>