<svg version="1.1" xmlns="http://www.w3.org/2000/svg" xmlns:xlink="http://www.w3.org/1999/xlink" width="3in" height="3.0000000000000013in" viewBox="0 0 3.05 3.050000000000001"><g fill="none" fill-rule="none" stroke="none" stroke-width="none" stroke-linecap="butt" stroke-linejoin="miter" stroke-miterlimit="10" stroke-dasharray="" stroke-dashoffset="0" font-family="none" font-weight="none" font-size="none" text-anchor="none" style="mix-blend-mode: normal"><path d="M0,3v-3h3v3z" fill="none" fill-rule="nonzero" stroke="none" stroke-width="1"></path><path d="M0,3v-3h3v3zM0.28405,0.50695l0.30872,0.46449l0.01872,0.04395l-0.08611,0.17883l-0.46258,0.39844l-0.06279,-0.12645v-0.93489zM0.20023,1.86942l-0.09153,-0.18432l0.30807,-0.26536zM0.8738,1.6313l-0.40583,0.56959l-0.16174,-0.11801l-0.03763,-0.07578l0.42275,-0.8042zM0.12154,2.28685l0.18692,0.02534l0.03294,0.06634l-0.34139,0.47915v-0.33962zM0.20321,2.13149l0.02433,0.01775l0.02719,0.05475l-0.08367,-0.01134zM0.13114,1.95512l-0.13114,-0.09568v-0.08071l0.0305,-0.02627zM0.10761,2.06175l-0.05529,0.11481l-0.05233,-0.00709v-0.18624zM0.00671,2.27129l-0.00671,0.01394v-0.01484zM1.32223,2.94797l0.01777,0.01297l0,0.03906l-0.0602,0l0.00227,-0.01306zM0.70583,2.99576l0.49098,-0.06328l0,0.06752h-0.49098zM0.70583,2.88758l-0.10266,-0.20672l0.1209,-0.16932l0.44383,0.32383l-0.46208,0.05955zM1.05269,2.05133l0.11789,0.27681l-0.2877,-0.039zM1.25906,2.53591l-0.03002,0.17248v0.04781l-0.44686,-0.32604l0.03499,-0.049l0.39901,0.05409zM1.35972,2.77225l-0.04564,0.04428l-0.00199,0.00026l-0.00037,-0.00027l0.01939,-0.11142zM0.45762,2.38774l0.0331,-0.04646l0.15257,0.11132l-0.09052,0.12676zM0.91973,1.73916l0.08704,0.20438l-0.23593,0.33042l-0.21171,-0.0287zM0.70141,2.37121l-0.00968,-0.00706l0.01342,0.00182zM0.39182,2.48008l0.0951,0.1915l-0.17306,0.24237l0,0.03149l-0.0321,0.00414l0,0.05041l-0.26038,0zM0.60433,2.90801l-0.17991,0.02319l0.1129,-0.15812zM0.00714,0.07422v0.01611l0.21379,0.32167l-0.22094,0.01895v-0.35803zM0.23339,0.11554v0.01207l0.11641,0.27334l-0.01526,0.00131l-0.20292,-0.3053zM0.23339,0.01388l-0.07602,-0.01388l0.07602,0zM2.54589,0.2126l-0.16291,-0.02432l0.073,-0.10224l0,-0.08604h0.54401v0.17366zM1.97237,0.26179l0.0217,-0.03046l0.12167,0.01816zM2.0975,0.08617l0,-0.08617l0.07804,0l-0.00713,0.15625l-0.10923,-0.01631zM2.27195,0.1717l-0.04635,-0.00692v-0.16478l0.16896,0zM1.22151,0.19436l0.0382,-0.07267l0.11137,0.01663l0.05304,0.09305zM1.6686,0.18274l-0.00548,0.03148l-0.05824,0.05017l-0.05228,-0.00955l-0.05571,-0.09773zM1.34979,0.03403l-0.08259,-0.01233l0,-0.0217l0.08259,0zM1.68575,0.08419l-0.25185,-0.0376l-0.02656,-0.04659l0.29306,0zM1.9482,0.12337l-0.02249,-0.00336l0.06272,-0.05402v-0.06599l0.04767,0zM1.75116,0.09395l0,-0.09395l0.16066,0l-0.1167,0.10052zM1.84159,0.273l-0.09043,0.00776l0,-0.01039l0.07451,-0.06418l0.05742,0.00857zM0.29873,0.02582l-0.011,-0.02582l0.49546,0v0.05055l0.02932,0.00438v0.03314l0.02493,0.03615zM1.05645,0.09135l-0.03225,0.06698l-0.04778,-0.00873l-0.05397,-0.07825zM1.20424,0.0123l-0.0483,-0.00721l0,-0.00509l0.05477,0zM2.24514,0.38133l0.03238,-0.04534l0.26522,-0.02275l0.45726,0.06826v0.1377zM2.97289,0.27635l0.02711,-0.00232v0.00637zM2.08656,0.35236l0.06007,-0.00515l-0.01018,0.01426zM2.88156,2.91193l-0.12452,-0.18055l0.08582,-0.01106l0.15714,0.27567v0.00401h-0.11844zM2.95009,2.7065l0.04991,-0.00643v0.09399zM2.1474,2.80996l0.49808,-0.0642l0.17534,0.25424l-0.68209,0zM1.51106,2.89197l0.32991,-0.04252l0.10006,0.15055h-0.42998zM2.08868,2.81753l0,0.18247h-0.0876v-0.09033l-0.0495,-0.07447zM2.86538,2.55788l-0.406,-0.71227l0.00857,-0.00941l0.53206,-0.51629v1.25622zM2.61387,2.52379l-0.33277,-0.4825l0.10747,-0.11796l0.35206,0.61764zM2.16325,2.4627l0.01403,-0.30747l0.03467,-0.03806l0.2679,0.38844zM1.92641,2.4306l0.16227,-0.17811v0.20011zM1.60948,2.77846l0.10657,-0.11697l0.0632,0.09509zM1.84457,2.52042l0.2441,0.03309l0,0.16319l-0.19883,0.02563l-0.10438,-0.15704zM2.70579,2.63716l-0.01261,0.00163l-0.00254,-0.00368zM2.15203,2.70853l0.00664,-0.14554l0.39796,0.05395l0.02498,0.03622zM0.98776,1.64368l0.0268,-0.03762l0.11242,0.16914l-0.05212,0.07299zM1.44388,1.00352l0.06538,0.09479l-0.03257,0.18713l-0.28752,0.40267l-0.11248,-0.16923zM1.55222,0.85147l-0.01848,0.1062l-0.02813,-0.04078zM1.86432,0.41343l0.20791,0.03797l-0.22665,0.31742l-0.10421,-0.18283zM1.6207,1.08376l-0.00591,-0.00857l0.06791,-0.39019l0.09888,0.17347zM2.40731,1.75428l-0.19603,-0.3439l0.01431,-0.31366v-0.61731l0.77441,0.14144v0.48288zM2.2137,1.94357l-0.0251,-0.03639l0.01414,-0.30985l0.13097,0.22977zM1.73811,2.40507l-0.07958,-0.01079l-0.2166,-0.32589l0.12938,-0.74338l0.04797,-0.06718l0.4694,0.6806l0,0.12646zM1.39151,2.35809l0.0255,-0.14652l0.10955,0.16483zM2.1522,0.5115l-0.0336,0.73628l-0.21847,-0.38326zM2.09471,1.77105l-0.41364,-0.59976l0.15505,-0.21714l0.27394,0.48059zM1.43663,2.69762l-0.07398,-0.1737l0.0117,-0.06724l0.22592,0.03063l0.02081,0.03132zM1.12077,1.95598l0.06545,-0.09166l0.15035,0.22622l-0.04422,0.25411l-0.00642,-0.00087zM1.43709,1.51299l-0.0756,0.43439l-0.11308,-0.17014zM0.4959,0.48878l0.38508,-0.03302l-0.21181,0.43985zM1.75568,0.39358l-0.02946,0.04135l0.00788,-0.04529zM0.94183,1.53582l-0.04648,-0.10913l0.05996,0.09021zM1.24119,0.70963l0.1423,0.20632l-0.36606,0.51376l-0.22289,-0.33536zM1.07631,0.47057l0.10777,0.15626l-0.34706,0.29894zM1.6323,0.39132l-0.00044,0.00255l-0.00137,-0.0024zM1.5919,0.62344l-0.14669,0.20588l-0.12782,-0.18533l0.22933,-0.19753l0.05821,0.10212zM1.17045,0.43093l0.26773,-0.02296l-0.17789,0.15322zM0.34567,0.13605l0.57198,0.10447l0.03944,0.05718l-0.0257,0.05337l-0.47673,0.04089zM1.3339,0.31654l-0.18495,0.01586l0.02381,-0.04529z" fill="#d3d3d3" fill-rule="evenodd" stroke="#ff0000" stroke-width="0.005"></path></g></svg>