<svg version="1.1" xmlns="http://www.w3.org/2000/svg" xmlns:xlink="http://www.w3.org/1999/xlink" width="3.000000000000001in" height="3.0000000000000004in" viewBox="0 0 3.0500000000000007 3.0500000000000003"><g fill="#d3d3d3" fill-rule="evenodd" stroke="#ff0000" stroke-width="0.005" stroke-linecap="butt" stroke-linejoin="miter" stroke-miterlimit="10" stroke-dasharray="" stroke-dashoffset="0" font-family="none" font-weight="none" font-size="none" text-anchor="none" style="mix-blend-mode: normal"><path d="M0,3v-3h3v3zM0.08589,2.86117c0.02001,0.04792 0.04302,0.09428 0.0688,0.13883h-0.15469l0,-0.14395c0.02837,0.00264 0.05701,0.00436 0.08589,0.00512zM2.99572,2.80694c-0.01173,0.06639 -0.0289,0.1309 -0.05104,0.19306h-0.69907c0.02634,-0.04553 0.04979,-0.09294 0.07011,-0.14198c0.09776,-0.03498 0.18934,-0.08293 0.27268,-0.14179c0.05822,-0.00002 0.11541,-0.00444 0.17126,-0.01294c0.07347,0.04357 0.15262,0.07858 0.23607,0.10365zM2.10425,2.91135c0.00877,0.03009 0.01876,0.05966 0.02992,0.08865h-0.43599c0.01128,-0.03069 0.02132,-0.06199 0.03004,-0.09383c0.06607,0.01192 0.13412,0.01814 0.20362,0.01814c0.05861,0 0.11619,-0.00443 0.17242,-0.01296zM2.14397,2.9046c0.04112,-0.00774 0.08146,-0.0177 0.1209,-0.02973c-0.01943,0.04317 -0.0414,0.08494 -0.06574,0.12513h-0.02197c-0.01249,-0.03111 -0.02358,-0.06294 -0.03319,-0.0954zM1.68887,2.89835c-0.00957,0.03458 -0.02074,0.06849 -0.03342,0.10165h-0.20926c-0.03678,-0.06213 -0.06806,-0.12791 -0.09315,-0.19667c0.0102,-0.00635 0.02029,-0.01285 0.03028,-0.0195c0.09448,0.05199 0.19714,0.09097 0.30555,0.11452zM1.31811,2.82427c0.02271,0.06102 0.05014,0.11974 0.08185,0.17573h-0.43192c0.00987,-0.0158 0.01937,-0.03185 0.02847,-0.04816c0.1144,-0.02701 0.22247,-0.0704 0.3216,-0.12757zM0.94378,2.96304c-0.00751,0.01248 -0.01526,0.02481 -0.02325,0.03696h-0.24155c-0.00201,-0.00565 -0.00399,-0.01132 -0.00592,-0.01702c0.01557,0.0006 0.03122,0.0009 0.04693,0.0009c0.07648,0 0.15128,-0.00716 0.22378,-0.02085zM0.6301,2.98057c0.00211,0.0065 0.00428,0.01298 0.00649,0.01943l-0.43542,0c-0.02682,-0.0443 -0.05078,-0.09052 -0.07162,-0.13842c0.01968,-0.00014 0.03925,-0.00073 0.05871,-0.00176c0.13486,0.06684 0.2841,0.10905 0.44183,0.12074zM2.82141,2.69213c0.06152,-0.0129 0.1212,-0.0308 0.17859,-0.05326l0,0.12756c-0.06227,-0.01921 -0.122,-0.04418 -0.17859,-0.0743zM2.99121,2.20515c0.00301,-0.00758 0.00594,-0.01519 0.00879,-0.02285v0.05043c-0.00282,-0.00924 -0.00575,-0.01843 -0.00879,-0.02758zM2.96691,2.26182c0.01411,0.04879 0.02521,0.09885 0.03309,0.14997l0,0.18399c-0.07372,0.03008 -0.15146,0.05232 -0.2322,0.06571c-0.02103,-0.01287 -0.04157,-0.02648 -0.06157,-0.04079c0.10874,-0.10081 0.19778,-0.22258 0.26068,-0.35888zM2.67571,2.648c0.01024,0.00746 0.02062,0.01474 0.03113,0.02184c-0.02097,0.00227 -0.04212,0.00395 -0.06344,0.00501c0.01093,-0.00875 0.0217,-0.01771 0.0323,-0.02685zM2.83649,1.96723c0.04552,0.07397 0.08325,0.15324 0.11206,0.23668c-0.0621,0.15053 -0.15665,0.28426 -0.27495,0.39246c-0.11131,-0.08649 -0.20435,-0.19538 -0.27236,-0.3199c-0.00709,-0.07185 -0.02048,-0.14184 -0.03961,-0.20943c0.03023,-0.0652 0.05452,-0.13371 0.07217,-0.20484c0.01135,0.00038 0.02275,0.00057 0.03419,0.00057c0.05203,0 0.10313,-0.00398 0.15302,-0.01165c0.0661,0.04731 0.13842,0.0865 0.21548,0.1161zM2.97024,2.14685c-0.02141,-0.05513 -0.04664,-0.10835 -0.07537,-0.15933c0.03426,0.01069 0.06934,0.01952 0.10513,0.02638l0,0.03219c-0.00834,0.03424 -0.01829,0.06786 -0.02976,0.10077zM2.33457,2.12155c0.00127,0.00527 0.00251,0.01056 0.00371,0.01587c-0.00166,-0.00454 -0.00329,-0.00909 -0.00488,-0.01366c0.00039,-0.00073 0.00078,-0.00147 0.00117,-0.0022zM2.06836,2.45483c-0.00356,0.02831 -0.00607,0.05695 -0.00748,0.08588c-0.01949,-0.01077 -0.03861,-0.02212 -0.05734,-0.03402c0.02224,-0.01651 0.04386,-0.03381 0.06482,-0.05186zM2.10008,2.56135c0.00161,-0.05063 0.00669,-0.10039 0.01502,-0.14904c0.07456,-0.07165 0.13945,-0.15328 0.19253,-0.24275c0.0158,0.04088 0.03405,0.08054 0.05457,0.1188c0.00327,0.03558 0.00494,0.07163 0.00494,0.10807c0,0.08634 -0.00938,0.17049 -0.02717,0.25149c-0.08411,-0.01955 -0.16449,-0.04882 -0.23989,-0.08657zM2.3791,2.65626c0.01836,-0.08369 0.02804,-0.17063 0.02804,-0.25982c0,-0.01092 -0.00015,-0.02182 -0.00043,-0.03267c0.06405,0.099 0.14406,0.18672 0.23638,0.25951c-0.02176,0.01848 -0.04425,0.03613 -0.06742,0.05289c-0.06715,-0.00074 -0.13285,-0.00755 -0.19657,-0.0199zM1.72803,2.65771c-0.00369,0.06912 -0.0136,0.1366 -0.02918,0.20187c-0.09843,-0.02124 -0.19195,-0.05565 -0.27863,-0.10131c0.01578,-0.01137 0.03126,-0.02311 0.04645,-0.03522c0.09087,-0.01158 0.17842,-0.03379 0.26136,-0.06535zM1.73814,2.86731c0.01729,-0.07294 0.02776,-0.14852 0.03068,-0.22603c0.07045,-0.02996 0.1373,-0.06677 0.19969,-0.10958c0.02943,0.01929 0.05981,0.03725 0.09106,0.05379c-0.00003,0.00364 -0.00005,0.00729 -0.00005,0.01094c0,0.09525 0.01185,0.18773 0.03416,0.27605c-0.05282,0.00779 -0.10686,0.01183 -0.16185,0.01183c-0.06609,0 -0.13081,-0.00583 -0.19369,-0.01701zM2.13329,2.8659c-0.02132,-0.08331 -0.03298,-0.17048 -0.03373,-0.26025c0.07305,0.03502 0.15044,0.06243 0.23115,0.0812c-0.01222,0.0477 -0.02737,0.09422 -0.04526,0.13936c-0.04924,0.01672 -0.10006,0.03004 -0.15216,0.03969zM2.33515,2.80798c0.01334,-0.03679 0.02494,-0.0744 0.03471,-0.11276c0.04884,0.00954 0.09881,0.01594 0.14969,0.01898c-0.05801,0.03677 -0.11971,0.06825 -0.1844,0.09378zM2.2499,1.95636c0.00061,0.00377 0.00124,0.00754 0.00189,0.0113c-0.08507,0.12576 -0.14534,0.26968 -0.17378,0.42472c-0.03464,0.03253 -0.07138,0.06286 -0.10999,0.09075c-0.06515,-0.04506 -0.12516,-0.09702 -0.17897,-0.15483c0.04363,-0.08568 0.07727,-0.17729 0.09937,-0.27332c0.12894,-0.00983 0.251,-0.04426 0.36149,-0.09862zM2.12999,2.34023c0.02752,-0.11353 0.07292,-0.22007 0.13305,-0.31647c0.00748,0.0327 0.01645,0.06482 0.02686,0.09629c-0.04422,0.07996 -0.09804,0.15387 -0.1599,0.22018zM2.34353,2.00877c-0.00758,-0.02235 -0.01579,-0.04441 -0.02462,-0.06615c0.01229,-0.01622 0.02503,-0.03209 0.0382,-0.04758c0.01105,-0.00727 0.02196,-0.01476 0.0327,-0.02245c-0.01252,0.04668 -0.02802,0.09215 -0.04628,0.13618zM2.29978,2.00477c0.00691,0.01939 0.01332,0.03903 0.01921,0.05888c-0.00094,0.00197 -0.00189,0.00393 -0.00285,0.00589c-0.00613,-0.02131 -0.0116,-0.04291 -0.01636,-0.06477zM1.71985,2.44682c0.00648,0.04895 0.00982,0.09889 0.00982,0.14961c0,0.00593 -0.00005,0.01185 -0.00014,0.01776c-0.06533,0.02601 -0.13371,0.04597 -0.20446,0.05921c0.07392,-0.06702 0.13943,-0.14313 0.19478,-0.22658zM1.76967,2.59728c0,-0.00028 0,-0.00057 0,-0.00085c0,-0.06871 -0.00592,-0.13603 -0.01729,-0.20148c0.00574,-0.0097 0.01136,-0.01949 0.01683,-0.02936c0.04988,0.05231 0.10473,0.09984 0.16378,0.14184c-0.05156,0.03432 -0.10617,0.06444 -0.16332,0.08986zM1.84676,2.05728c-0.02012,0.08354 -0.04929,0.16356 -0.08642,0.23896c-0.01615,-0.01877 -0.03167,-0.0381 -0.04653,-0.05795c-0.02206,-0.06867 -0.0503,-0.13457 -0.08405,-0.19705c0.05902,0.01093 0.11988,0.01664 0.18207,0.01664c0.01169,0 0.02334,-0.0002 0.03493,-0.0006zM1.26695,2.1463c-0.01673,0.08076 -0.02552,0.16442 -0.02552,0.25013c0,0.09164 0.01005,0.18093 0.02911,0.26683c-0.04969,-0.03747 -0.0961,-0.07906 -0.13872,-0.12427c0.00582,-0.0467 0.00882,-0.09428 0.00882,-0.14256c0,-0.01452 -0.00027,-0.02897 -0.00081,-0.04335c0.04862,-0.06445 0.09127,-0.13364 0.12713,-0.20678zM1.31862,2.69232c-0.02428,-0.09458 -0.03719,-0.19373 -0.03719,-0.29588c0,-0.15676 0.0304,-0.30642 0.08562,-0.44341c0.05614,0.02815 0.11531,0.05114 0.1769,0.06834c0.0352,0.08411 0.08027,0.16306 0.13375,0.23541c0.01337,0.04246 0.0243,0.08601 0.03263,0.13047c-0.06914,0.11344 -0.15722,0.21406 -0.25985,0.29748c-0.04275,0.00501 -0.08624,0.00759 -0.13034,0.00759c-0.00051,0 -0.00102,0 -0.00154,0zM1.74034,2.33501c-0.00009,-0.00038 -0.00017,-0.00077 -0.00026,-0.00115c0.00018,0.00021 0.00037,0.00041 0.00055,0.00062c-0.0001,0.00018 -0.00019,0.00035 -0.00029,0.00053zM1.10062,2.40248c-0.00017,0.03254 -0.00176,0.06474 -0.0047,0.09655c-0.01323,-0.01547 -0.02603,-0.03131 -0.03839,-0.0475c0.01477,-0.01598 0.02914,-0.03233 0.0431,-0.04905zM1.02958,2.4808c0.01906,0.02468 0.03912,0.04856 0.0601,0.07157c-0.00534,0.03769 -0.0126,0.07476 -0.02166,0.11111c-0.06217,-0.01448 -0.12232,-0.03419 -0.17997,-0.05864c0.05019,-0.03786 0.0975,-0.07933 0.14153,-0.12404zM1.10716,2.67186c0.00676,-0.02728 0.01255,-0.05495 0.01731,-0.08297c0.03581,0.03596 0.074,0.06954 0.11433,0.10049c-0.04467,-0.00324 -0.0886,-0.00914 -0.13164,-0.01752zM0.58236,2.77532c0.00808,0.05599 0.01989,0.11078 0.03517,0.1641c-0.12254,-0.01074 -0.23962,-0.04054 -0.34824,-0.08644c0.10915,-0.01271 0.2141,-0.03919 0.31307,-0.07766zM0.66009,2.94236c-0.01772,-0.05909 -0.03102,-0.12009 -0.03951,-0.18262c0.08132,-0.0347 0.15831,-0.07759 0.22993,-0.12764c0.06597,0.02963 0.13525,0.05322 0.20712,0.07004c-0.02169,0.07518 -0.05119,0.14706 -0.08754,0.21469c-0.08054,0.01771 -0.16422,0.02705 -0.25008,0.02705c-0.02009,0 -0.04007,-0.00051 -0.05991,-0.00152zM1.33963,2.76451c-0.00081,-0.00249 -0.00161,-0.00498 -0.00241,-0.00747c0.00241,0.00147 0.00482,0.00294 0.00723,0.0044c-0.00161,0.00103 -0.00321,0.00205 -0.00483,0.00308zM1.28786,2.73187c0.00516,0.01818 0.01072,0.03619 0.01669,0.05401c-0.08762,0.05128 -0.18257,0.09138 -0.28291,0.11836c0.03067,-0.06159 0.05594,-0.12634 0.07518,-0.19364c0.06203,0.01224 0.12586,0.01948 0.19104,0.02128zM1.38136,2.73678c-0.00319,-0.00185 -0.00638,-0.00372 -0.00955,-0.0056c0.00632,-0.00028 0.01263,-0.00061 0.01893,-0.00099c-0.00311,0.00221 -0.00624,0.00441 -0.00938,0.0066zM0.63019,2.21203c-0.02092,0.06436 -0.03673,0.13102 -0.04695,0.19951c-0.07161,-0.06389 -0.13487,-0.13694 -0.18793,-0.21731c0.06642,0.01195 0.13482,0.01819 0.20468,0.01819c0.0101,0 0.02016,-0.00013 0.03019,-0.00039zM0.61935,2.4424c0.01025,-0.08016 0.0284,-0.15785 0.05363,-0.23226c0.06515,-0.00409 0.12883,-0.01361 0.19058,-0.02811c0.0355,0.09547 0.08343,0.18489 0.14183,0.2663c-0.04902,0.05026 -0.10228,0.09636 -0.1592,0.13772c-0.08159,-0.0387 -0.1577,-0.08708 -0.22684,-0.14365zM1.13578,2.29051c-0.00609,-0.0661 -0.01781,-0.13056 -0.03469,-0.19291c0.06764,-0.03286 0.13156,-0.07216 0.19098,-0.11712c-0.03754,0.11128 -0.09048,0.21546 -0.15629,0.31003zM1.06424,2.11469c0.01916,0.07255 0.03109,0.14804 0.03499,0.22564c-0.02088,0.02702 -0.04285,0.05316 -0.06584,0.07834c-0.05348,-0.07568 -0.09764,-0.15842 -0.13081,-0.24654c0.05569,-0.01517 0.10969,-0.03443 0.16166,-0.05744zM0.3408,2.18304c0.06376,0.10418 0.14368,0.1974 0.23626,0.27617c-0.00495,0.04506 -0.00749,0.09084 -0.00749,0.13722c0,0.04663 0.00257,0.09265 0.00757,0.13794c-0.11887,0.04732 -0.2468,0.07673 -0.38048,0.0849c-0.03662,-0.01857 -0.07213,-0.03902 -0.10639,-0.06124c-0.03707,-0.11385 -0.05711,-0.23539 -0.05711,-0.36161c0,-0.0758 0.00723,-0.14992 0.02103,-0.22169c0.06257,-0.00254 0.12401,-0.00947 0.18401,-0.02048c0.03353,0.01112 0.06776,0.02075 0.10258,0.02878zM0.61567,2.71828c-0.00403,-0.04007 -0.0061,-0.08071 -0.0061,-0.12184c0,-0.03602 0.00158,-0.07167 0.00469,-0.10689c0.06026,0.04709 0.12535,0.08829 0.1944,0.12274c-0.06073,0.04079 -0.12527,0.07634 -0.19299,0.10599zM0.0133,2.17577c-0.00557,0.03014 -0.01002,0.06066 -0.0133,0.09154v-0.09147c0.00444,0 0.00887,-0.00002 0.0133,-0.00007zM0.03751,2.72172c-0.0127,-0.00927 -0.02521,-0.01879 -0.03751,-0.02856l0,-0.1676c0.00715,0.06719 0.0198,0.13273 0.03751,0.19617zM0.11304,2.8216c-0.00042,-0.00107 -0.00084,-0.00214 -0.00125,-0.00321c0.00183,0.00108 0.00367,0.00216 0.00551,0.00323c-0.00142,0 -0.00284,-0.00001 -0.00425,-0.00002zM0.05669,2.78384c0.00418,0.01235 0.00856,0.02461 0.01313,0.03678c-0.02345,-0.00094 -0.04673,-0.00252 -0.06982,-0.00475l0,-0.07216c0.01849,0.01391 0.03739,0.02729 0.05669,0.04013zM2.73532,1.82659c0.02168,0.02598 0.04228,0.05288 0.06174,0.08065c-0.04182,-0.01919 -0.08197,-0.0414 -0.12017,-0.06635c0.0197,-0.00419 0.03918,-0.00897 0.05843,-0.0143zM2.86327,1.93455c-0.02644,-0.04191 -0.05531,-0.08213 -0.08642,-0.12045c0.07919,-0.02573 0.15403,-0.06109 0.22315,-0.10469v0.26373c-0.04696,-0.00941 -0.09263,-0.02237 -0.13673,-0.03859zM2.63189,1.6633c0.11142,-0.06596 0.23567,-0.11254 0.36811,-0.13509l0,0.1335c-0.0766,0.05121 -0.161,0.09167 -0.25103,0.11923c-0.03637,-0.04176 -0.07549,-0.08107 -0.11707,-0.11764zM2.99096,1.48917c-0.12494,0.02153 -0.24281,0.0637 -0.35,0.12286c0.07075,-0.10687 0.12139,-0.22823 0.14652,-0.35866c0.00815,0.00227 0.01626,0.00463 0.02433,0.00707c0.03849,0.02716 0.07933,0.05121 0.12215,0.07179c0.0228,0.0504 0.04192,0.10283 0.057,0.15693zM2.57724,1.69789c0.0063,-0.00426 0.01264,-0.00845 0.01903,-0.01257c0.03888,0.03351 0.0756,0.06946 0.10991,0.10763c-0.02467,0.00631 -0.04972,0.01166 -0.07511,0.01601c-0.03046,-0.02262 -0.05948,-0.04705 -0.0869,-0.07316c0.01133,-0.01235 0.02236,-0.02499 0.03306,-0.03791zM2.98761,1.35578c0.00411,0.00164 0.00824,0.00325 0.01239,0.00482l0,0.02699c-0.00397,-0.01068 -0.0081,-0.02128 -0.01239,-0.03181zM2.51655,1.76473c0.01905,0.01813 0.03884,0.0355 0.05931,0.05204c-0.03541,0.00397 -0.0714,0.006 -0.10787,0.006c-0.00474,0 -0.00946,-0.00003 -0.01418,-0.0001c0.02173,-0.01842 0.04267,-0.03775 0.06274,-0.05794zM2.45212,1.20997c0.00528,-0.00007 0.01057,-0.0001 0.01587,-0.0001c0.00918,0 0.01834,0.0001 0.02747,0.00031c0.02789,0.00301 0.05617,0.00468 0.0848,0.00493c0.05743,0.00539 0.11366,0.01487 0.16842,0.02815c-0.02659,0.14 -0.08378,0.26916 -0.16435,0.38026c-0.03751,-0.02982 -0.07679,-0.05753 -0.11765,-0.08292c-0.0037,-0.09733 -0.01952,-0.19156 -0.046,-0.28121c0.01002,-0.01679 0.0205,-0.03327 0.03144,-0.04942zM2.46753,1.58855c0.03197,0.02084 0.06288,0.04316 0.09265,0.06686c-0.00335,0.00423 -0.00673,0.00844 -0.01015,0.01261c-0.01448,0.0099 -0.02872,0.02012 -0.04271,0.03067c-0.01441,-0.01535 -0.02831,-0.03119 -0.04167,-0.0475c0.00118,-0.02074 0.00181,-0.04163 0.00188,-0.06264zM2.37257,1.26264c-0.02223,0.03951 -0.04201,0.08059 -0.05914,0.12301c-0.00927,-0.02508 -0.01749,-0.05067 -0.0246,-0.07672c0.02888,-0.01384 0.05683,-0.02931 0.08374,-0.04629zM2.38801,1.54098c0.01326,0.00725 0.02637,0.01475 0.03932,0.02248c0.00014,0.00715 0.0002,0.01431 0.0002,0.02148c0,0.00541 -0.00004,0.01081 -0.00012,0.0162c-0.01388,-0.01951 -0.02703,-0.03958 -0.0394,-0.06017zM2.42542,1.51604c-0.0235,-0.01338 -0.04748,-0.02601 -0.0719,-0.03786c-0.00627,-0.01254 -0.01226,-0.02525 -0.01797,-0.03811c0.01612,-0.04522 0.03532,-0.08898 0.05734,-0.13103c0.01712,0.06677 0.02818,0.13598 0.03254,0.20699zM2.25191,1.32552c0.01115,0.03981 0.02478,0.07859 0.04072,0.11615c-0.00089,0.00261 -0.00177,0.00523 -0.00263,0.00786c-0.06498,-0.02712 -0.13276,-0.04889 -0.20279,-0.06473c0.00212,-0.0036 0.00422,-0.00722 0.00629,-0.01085c0.05496,-0.01089 0.10796,-0.02723 0.15842,-0.04843zM2.06497,1.42087c0.07378,0.01581 0.14504,0.03839 0.21312,0.06706c-0.02656,0.09184 -0.04112,0.18878 -0.04186,0.289c-0.06192,-0.10333 -0.13885,-0.19663 -0.22779,-0.27687c0.02005,-0.02545 0.03892,-0.05187 0.05653,-0.07918zM1.98306,1.53103c0.08115,0.07346 0.15193,0.15818 0.20986,0.25169c-0.10226,-0.03058 -0.19735,-0.07778 -0.28214,-0.13846c-0.00128,-0.01093 -0.0027,-0.02181 -0.00427,-0.03264c0.02693,-0.02546 0.05249,-0.05237 0.07655,-0.08059zM2.41026,1.78084c-0.01279,0.01213 -0.0253,0.02455 -0.03751,0.03726c-0.03264,-0.00322 -0.06479,-0.00808 -0.09638,-0.01449c-0.00011,-0.00621 -0.00017,-0.01244 -0.00017,-0.01867c0,-0.09733 0.01354,-0.19149 0.03884,-0.28071c0.003,0.00138 0.00599,0.00278 0.00898,0.00419c0.02862,0.05524 0.06241,0.10737 0.10073,0.15575c-0.00279,0.0395 -0.00766,0.07842 -0.01448,0.11667zM2.47569,1.72343c-0.00618,0.00501 -0.0123,0.01009 -0.01837,0.01523c0.00139,-0.01038 0.00264,-0.0208 0.00375,-0.03126c0.00481,0.0054 0.00968,0.01074 0.01462,0.01603zM1.4569,1.86028c0.01808,0.02103 0.0354,0.04273 0.05192,0.06506c0.00518,0.01643 0.01072,0.03269 0.01661,0.04878c-0.04944,-0.01555 -0.09715,-0.03502 -0.14276,-0.05804c0.00306,-0.00691 0.00619,-0.01378 0.00937,-0.02061c0.00899,-0.00857 0.01784,-0.01728 0.02655,-0.02613c0.01286,-0.00278 0.02563,-0.0058 0.0383,-0.00906zM1.60343,1.99505c-0.01816,-0.03024 -0.03766,-0.05959 -0.05839,-0.08798c-0.00684,-0.02216 -0.01299,-0.04463 -0.01843,-0.06737c0.12229,-0.04091 0.23433,-0.10417 0.33129,-0.18493c0.00497,0.00385 0.00999,0.00764 0.01504,0.0114c0.00398,0.03905 0.00601,0.07868 0.00601,0.11878c0,0.07944 -0.00799,0.15701 -0.02322,0.23195c-0.01455,0.00066 -0.02918,0.00099 -0.04389,0.00099c-0.07158,0 -0.14133,-0.00789 -0.20841,-0.02284zM2.33924,1.85455c-0.00295,0.00336 -0.00589,0.00673 -0.0088,0.01013c-0.01177,0.00764 -0.02372,0.01503 -0.03584,0.02216c-0.00521,-0.01118 -0.01059,-0.02227 -0.01614,-0.03326c-0.0002,-0.00296 -0.00038,-0.00591 -0.00055,-0.00888c0.02023,0.0039 0.04068,0.00719 0.06133,0.00985zM2.22192,1.83223c0.0059,0.01065 0.01163,0.02141 0.0172,0.03227c0.00124,0.0168 0.00287,0.0335 0.00487,0.05008c-0.10578,0.05387 -0.22295,0.08858 -0.34693,0.09956c0.01436,-0.07418 0.02188,-0.15081 0.02188,-0.22919c0,-0.02983 -0.00109,-0.0594 -0.00323,-0.08868c0.0924,0.06146 0.19563,0.10794 0.30621,0.13596zM1.87534,1.39582c0.04994,0.0026 0.09908,0.00825 0.14722,0.01676c-0.014,0.02096 -0.02878,0.04135 -0.0443,0.06113c-0.03285,-0.02773 -0.06721,-0.05374 -0.10293,-0.07789zM1.86848,1.43966c0.02916,0.02041 0.05734,0.04211 0.08447,0.06503c-0.01734,0.02036 -0.03549,0.04001 -0.0544,0.05889c-0.00786,-0.04212 -0.01793,-0.08347 -0.03007,-0.12392zM1.69846,1.39945c0.02009,-0.00188 0.04033,-0.00326 0.0607,-0.00414c-0.01983,0.01407 -0.03923,0.02871 -0.05816,0.0439c-0.00357,-0.00476 -0.00711,-0.00956 -0.01059,-0.01439c0.00278,-0.00841 0.00547,-0.01687 0.00806,-0.02537zM1.72567,1.47069c0.02882,-0.02314 0.05874,-0.04496 0.08967,-0.06537c0.02135,0.0616 0.03764,0.12556 0.04839,0.19138c-0.00225,0.00204 -0.00451,0.00407 -0.00677,0.00608c-0.04791,-0.03968 -0.0919,-0.08394 -0.13129,-0.1321zM1.4705,1.81517c-0.00032,-0.00036 -0.00065,-0.00072 -0.00097,-0.00108c0.00283,-0.00327 0.00563,-0.00656 0.00842,-0.00987c0.00055,0.00278 0.0011,0.00555 0.00167,0.00832c-0.00303,0.00089 -0.00607,0.00177 -0.00911,0.00263zM1.51797,1.80038c-0.00248,-0.0124 -0.00476,-0.02487 -0.00681,-0.03742c0.05214,-0.06789 0.09686,-0.14177 0.13295,-0.22044c0.01648,-0.0159 0.03342,-0.03134 0.0508,-0.04627c0.03951,0.04827 0.08345,0.09278 0.1312,0.13289c-0.09067,0.07428 -0.19478,0.13277 -0.30813,0.17124zM1.44218,1.25458c0.01961,0.00414 0.03904,0.00877 0.05828,0.01387c0.00032,0.00019 0.00063,0.00039 0.00095,0.00058c-0.01251,0.0431 -0.02252,0.08727 -0.02988,0.13233c-0.02854,0.00811 -0.05666,0.01722 -0.08433,0.02728c-0.00436,-0.03569 -0.01018,-0.07092 -0.01742,-0.10563c0.02525,-0.02161 0.04942,-0.04445 0.0724,-0.06843zM1.39154,1.46968c0.02423,-0.00904 0.04882,-0.01732 0.07376,-0.02481c-0.00567,0.0459 -0.00859,0.09264 -0.00859,0.14007c0,0.03699 0.00177,0.07356 0.00524,0.10963c-0.01513,0.02164 -0.02957,0.0438 -0.04331,0.06643c-0.00996,-0.00976 -0.02008,-0.01934 -0.03038,-0.02873c0.00555,-0.04834 0.00841,-0.0975 0.00841,-0.14733c0,-0.03885 -0.00174,-0.07729 -0.00513,-0.11526zM1.38172,1.78092c0.00542,0.00519 0.01078,0.01044 0.0161,0.01574c-0.00746,0.01328 -0.01468,0.02672 -0.02166,0.0403c-0.00151,0.00027 -0.00301,0.00054 -0.00452,0.0008c0.00378,-0.0188 0.00714,-0.03776 0.01008,-0.05685zM1.61081,1.51911c-0.04029,0.03937 -0.07788,0.08149 -0.11246,0.12607c-0.00108,-0.01994 -0.00163,-0.04002 -0.00163,-0.06024c0,-0.05152 0.00357,-0.10221 0.01048,-0.15183c0.04024,-0.01051 0.08129,-0.01898 0.12306,-0.02531c0.00513,0.00789 0.01036,0.0157 0.01571,0.02343c-0.01049,0.0299 -0.02223,0.05922 -0.03515,0.08788zM1.50329,1.70543c0.00437,-0.00609 0.0088,-0.01214 0.01328,-0.01814c-0.00433,0.00636 -0.00873,0.01267 -0.01319,0.01894c-0.00003,-0.00027 -0.00006,-0.00053 -0.00009,-0.0008zM1.60739,1.37092c-0.03153,0.00522 -0.06266,0.01163 -0.09333,0.01918c0.00614,-0.03406 0.01386,-0.06756 0.02308,-0.10044c0.0119,0.00648 0.02398,0.01267 0.03623,0.01857c0.01061,0.02134 0.02196,0.04225 0.03403,0.06269zM1.33471,1.35168c0.00576,0.0302 0.01043,0.06078 0.01396,0.09172c-0.07559,0.03039 -0.14751,0.06801 -0.21489,0.11199c-0.00477,-0.00245 -0.00956,-0.00487 -0.01437,-0.00726c0.0184,-0.03006 0.03563,-0.06092 0.05162,-0.09252c0.05804,-0.02938 0.11283,-0.06425 0.16369,-0.10393zM1.17406,1.57709c0.05655,-0.03546 0.11627,-0.06634 0.17863,-0.09213c0.00264,0.03298 0.00398,0.06632 0.00398,0.09998c0,0.03879 -0.00179,0.07717 -0.00528,0.11506c-0.05503,-0.04617 -0.11437,-0.08737 -0.17733,-0.12291zM1.06349,1.65541c0.02352,-0.01873 0.04776,-0.0366 0.07267,-0.05355c0.07554,0.04081 0.1459,0.08997 0.20985,0.14625c-0.00428,0.03245 -0.00981,0.0645 -0.01655,0.09611c-0.01919,0.00251 -0.03854,0.00446 -0.05806,0.00585c-0.07865,-0.05419 -0.14876,-0.11989 -0.2079,-0.19466zM1.66757,1.36246c-0.00578,0.00067 -0.01155,0.00138 -0.01731,0.00212c-0.00622,-0.01015 -0.01226,-0.02042 -0.01811,-0.03081c0.01296,0.00504 0.02609,0.00977 0.03936,0.01417c-0.00128,0.00485 -0.0026,0.00969 -0.00394,0.01452zM0.92278,1.79631c0.00443,0.0068 0.00879,0.01365 0.01307,0.02055c-0.00881,-0.00244 -0.01756,-0.00499 -0.02627,-0.00767c0.00443,-0.00426 0.00883,-0.00856 0.0132,-0.01288zM0.99045,1.8303c-0.01234,-0.02153 -0.02535,-0.04263 -0.03902,-0.06325c0.02077,-0.02188 0.0408,-0.04448 0.06003,-0.06776c0.00698,-0.00623 0.01403,-0.01238 0.02115,-0.01845c0.05082,0.06413 0.10938,0.12185 0.17428,0.17172c-0.00224,0.00001 -0.00449,0.00002 -0.00674,0.00002c-0.07196,0 -0.14212,-0.00769 -0.2097,-0.02229zM0.36624,2.14772c-0.00398,-0.00674 -0.0079,-0.01352 -0.01174,-0.02035c0.14813,-0.04149 0.28567,-0.10833 0.40763,-0.19556c-0.0475,0.07487 -0.08721,0.15516 -0.118,0.23974c-0.01464,0.00057 -0.02935,0.00086 -0.04413,0.00086c-0.08019,0 -0.1584,-0.00852 -0.23376,-0.0247zM0.68778,2.16899c0.0305,-0.08015 0.06932,-0.1562 0.11541,-0.22708c0.00959,0.06958 0.02546,0.13716 0.04702,0.20214c-0.0528,0.01219 -0.10704,0.0206 -0.16243,0.02494zM1.08977,2.05859c-0.01963,-0.0634 -0.04465,-0.12443 -0.0745,-0.18257c0.05998,0.01089 0.12177,0.01658 0.18489,0.01658c0.02018,0 0.04022,-0.00058 0.06012,-0.00173c0.01468,0.00982 0.02965,0.01926 0.04487,0.0283c-0.06583,0.05436 -0.13805,0.10127 -0.21537,0.13942zM0.83759,1.89182c0.0126,-0.01739 0.02566,-0.03444 0.03915,-0.05111c0.02865,0.00948 0.05786,0.01774 0.08756,0.02471c0.03656,0.06626 0.0665,0.13668 0.08891,0.21039c-0.05264,0.02362 -0.10745,0.04325 -0.16407,0.05851c-0.02591,-0.07736 -0.04345,-0.15855 -0.05155,-0.2425zM0.71873,1.56285c0.02889,0.02493 0.05647,0.05134 0.08262,0.0791c-0.00506,0.04038 -0.008,0.08141 -0.00871,0.12298c-0.12254,-0.05553 -0.23174,-0.13534 -0.32146,-0.23329c0.07916,0.02027 0.1621,0.03109 0.24756,0.0312zM0.80872,1.59206c-0.01041,-0.01047 -0.02103,-0.02074 -0.03184,-0.0308c0.01277,-0.00072 0.02547,-0.00167 0.03811,-0.00286c-0.00225,0.01116 -0.00434,0.02238 -0.00626,0.03366zM0.89601,1.75709c-0.01103,0.01203 -0.02182,0.02427 -0.03238,0.03673c-0.01047,-0.00379 -0.02086,-0.00776 -0.03116,-0.01189c0.00009,-0.03371 0.0017,-0.06706 0.00476,-0.1c0.02065,0.02417 0.04026,0.04924 0.05879,0.07515zM0.98252,1.67151c-0.0201,0.01804 -0.03962,0.03672 -0.0585,0.05602c-0.02501,-0.03449 -0.0519,-0.06752 -0.08052,-0.09894c0.0036,-0.0253 0.00807,-0.05032 0.01336,-0.07503c0.02765,-0.00378 0.05494,-0.0087 0.08182,-0.01469c0.01984,0.03643 0.0419,0.07148 0.06599,0.10496c-0.00725,0.00933 -0.01463,0.01856 -0.02213,0.02768zM1.08306,1.53086c-0.01499,-0.00681 -0.03015,-0.01331 -0.04548,-0.01949c0.02486,-0.00832 0.04929,-0.01759 0.07324,-0.02777c-0.00892,0.01597 -0.01818,0.03172 -0.02776,0.04726zM0.98095,1.53261c0.02728,0.00977 0.05407,0.02056 0.08034,0.03232c-0.01015,0.01534 -0.02062,0.03045 -0.03141,0.04532c-0.01751,-0.02503 -0.03384,-0.05093 -0.04893,-0.07764zM0.05227,1.56267c-0.0177,0.0094 -0.03513,0.01923 -0.05227,0.0295l0,-0.03354c0.01732,0.00172 0.03474,0.00307 0.05227,0.00404zM0.08654,2.04654c0.02671,-0.08509 0.0629,-0.16599 0.10734,-0.24144c0.02031,0.10452 0.05481,0.20398 0.10142,0.29628c-0.01792,0.00426 -0.03598,0.00814 -0.05419,0.01164c-0.05349,-0.0183 -0.10513,-0.04057 -0.15457,-0.06647zM0.18386,1.74505c-0.05586,0.08697 -0.10086,0.18158 -0.13308,0.28191c-0.01722,-0.00985 -0.03415,-0.02014 -0.05077,-0.03087l0,-0.35699c0.04464,-0.02804 0.09138,-0.05304 0.13993,-0.07471c0.01105,-0.00018 0.02207,-0.00051 0.03305,-0.00098c-0.00013,0.00716 -0.0002,0.01434 -0.0002,0.02154c0,0.05433 0.00378,0.10778 0.01108,0.16011zM0.34641,1.54326c-0.04675,0.04678 -0.08967,0.09738 -0.12827,0.15128c-0.00354,-0.03605 -0.00535,-0.07261 -0.00535,-0.10959c0,-0.008 0.00008,-0.01598 0.00025,-0.02394c0.0452,-0.00346 0.08971,-0.00942 0.13337,-0.01775zM0.22563,1.75421c0.05433,-0.08227 0.11879,-0.15726 0.19162,-0.22318c0.10154,0.11911 0.22977,0.21476 0.37545,0.27769c0.00033,0.01617 0.001,0.03226 0.002,0.04826c-0.13374,0.1072 -0.28961,0.18794 -0.45967,0.23427c-0.05349,-0.10387 -0.09104,-0.21729 -0.1094,-0.33703zM0.0389,2.06621c-0.00649,0.02288 -0.01233,0.04604 -0.01749,0.06945c-0.00713,0.00012 -0.01426,0.00018 -0.02142,0.00018l0,-0.09248c0.0128,0.00786 0.02577,0.01548 0.0389,0.02285zM0.06273,2.13432c0.00375,-0.01636 0.00785,-0.03259 0.01229,-0.04868c0.02815,0.0145 0.05698,0.02787 0.08643,0.04005c-0.03254,0.00412 -0.06546,0.00702 -0.09872,0.00863zM2.94688,1.26687c-0.01853,-0.03623 -0.03894,-0.07133 -0.0611,-0.10519c0.03955,-0.01475 0.07771,-0.03235 0.11422,-0.05255l0,0.1818c-0.01748,-0.00843 -0.03519,-0.01645 -0.05312,-0.02406zM2.84673,1.17516c0.01497,0.02241 0.02913,0.0454 0.04245,0.06893c-0.0196,-0.00717 -0.03944,-0.01385 -0.05949,-0.02003c-0.01131,-0.00811 -0.02241,-0.01651 -0.03328,-0.02518c0.00044,-0.00324 0.00086,-0.00648 0.00127,-0.00973c0.01655,-0.00419 0.0329,-0.00886 0.04905,-0.01399zM2.74318,0.85839c0.00118,0.00535 0.00231,0.01071 0.00339,0.01609c-0.0236,0.01446 -0.04659,0.0298 -0.06893,0.046c0.01304,-0.02715 0.02465,-0.05511 0.03471,-0.0838c0.01009,0.00747 0.02037,0.01472 0.03082,0.02171zM2.70623,0.94919c0.01565,-0.0112 0.03162,-0.02196 0.04791,-0.03229c0.00456,0.02941 0.00778,0.05927 0.00959,0.0895c-0.01848,-0.01974 -0.03766,-0.03883 -0.0575,-0.05722zM2.62581,1.01301c0.01552,-0.01363 0.03146,-0.0268 0.04779,-0.03949c0.03246,0.02969 0.06314,0.06131 0.09184,0.09466c-0.00012,0.02984 -0.00161,0.05936 -0.00441,0.08849c-0.00365,0.00079 -0.00731,0.00156 -0.01098,0.0023c-0.0469,-0.04353 -0.08865,-0.09252 -0.12424,-0.14596zM2.86256,1.12757c-0.01805,-0.02551 -0.03712,-0.05024 -0.05716,-0.07414c-0.00058,-0.05409 -0.00548,-0.10715 -0.01437,-0.15884c0.00192,-0.00111 0.00384,-0.00221 0.00577,-0.0033c0.06293,0.03525 0.13116,0.06215 0.2032,0.07921l0,0.09256c-0.04339,0.02558 -0.08937,0.04725 -0.13744,0.06451zM2.80415,1.11576c0.00632,0.00822 0.01252,0.01654 0.01861,0.02495c-0.00685,0.00206 -0.01374,0.00404 -0.02067,0.00593c0.00084,-0.01025 0.00153,-0.02054 0.00205,-0.03088zM2.60138,1.04824c0.02959,0.04269 0.06297,0.08256 0.09967,0.1191c-0.03695,0.00514 -0.07469,0.0078 -0.11305,0.0078c-0.0019,0 -0.00379,-0.00001 -0.00568,-0.00002c-0.0278,-0.00257 -0.05586,-0.00421 -0.08417,-0.00489c-0.00154,-0.00017 -0.00307,-0.00034 -0.00461,-0.00052c0.03977,-0.03683 0.07592,-0.07752 0.10784,-0.12147zM2.679,0.81056c-0.00973,0.02936 -0.02114,0.05795 -0.03412,0.08566c-0.03659,-0.02939 -0.07503,-0.05658 -0.11513,-0.08134c-0.00689,-0.02114 -0.01293,-0.04267 -0.01809,-0.06453c0.03117,-0.00179 0.06183,-0.00547 0.09187,-0.01094c0.02357,0.02532 0.04879,0.0491 0.07547,0.07116zM2.55322,0.8779c0.02522,0.01731 0.04967,0.03564 0.07331,0.05494c-0.0077,0.01442 -0.01583,0.02858 -0.02439,0.04245c-0.01839,-0.03119 -0.03476,-0.06371 -0.04893,-0.09738zM2.47088,0.75158c0.00257,0.01138 0.00537,0.02267 0.00839,0.03387c-0.02353,-0.01292 -0.04757,-0.02503 -0.07208,-0.03629c0.02006,0.00161 0.04034,0.00242 0.06081,0.00242c0.00096,0 0.00192,0 0.00288,-0.00001zM2.30999,0.75234c0.06528,0.02391 0.12766,0.05384 0.18647,0.08911c0.02002,0.05795 0.0461,0.11307 0.07749,0.16461c-0.05033,0.04714 -0.09609,0.09911 -0.13654,0.15515c-0.01881,-0.00353 -0.03739,-0.0077 -0.05571,-0.0125c-0.03124,-0.07595 -0.0704,-0.1478 -0.11644,-0.21454c0.00883,-0.06285 0.02396,-0.12369 0.04473,-0.18184zM2.25861,0.99681c0.02747,0.04374 0.05197,0.08954 0.07321,0.13711c-0.0255,-0.00847 -0.05044,-0.01816 -0.07475,-0.02902c-0.00058,-0.01347 -0.00087,-0.02702 -0.00087,-0.04064c0,-0.02268 0.00081,-0.04518 0.00242,-0.06745zM2.24796,0.7317c0.00811,0.00243 0.01618,0.00495 0.02421,0.00757c-0.01717,0.04812 -0.03063,0.09801 -0.04005,0.14931c-0.00127,-0.00166 -0.00254,-0.00331 -0.00381,-0.00496c0.00012,-0.00644 0.00018,-0.01289 0.00018,-0.01936c0,-0.03804 -0.00207,-0.07559 -0.00609,-0.11256c0.00868,-0.00647 0.0172,-0.01314 0.02556,-0.02zM2.21739,1.01589c-0.00079,0.01603 -0.00119,0.03215 -0.00119,0.04838c0,0.00705 0.00008,0.01409 0.00023,0.02111c-0.00354,-0.00182 -0.00706,-0.00367 -0.01057,-0.00554c0.0045,-0.02108 0.00835,-0.0424 0.01153,-0.06394zM2.11729,0.81627c0.02482,0.02574 0.04841,0.05267 0.07067,0.08071c-0.0018,0.0553 -0.00814,0.10945 -0.01866,0.16209c-0.06847,-0.04126 -0.13035,-0.09234 -0.18371,-0.15128c0.01439,-0.01755 0.0281,-0.03568 0.0411,-0.05436c0.03125,-0.01027 0.06152,-0.02272 0.09061,-0.03717zM2.18805,0.83442c-0.01111,-0.01283 -0.02249,-0.02541 -0.03415,-0.03774c0.01046,-0.00601 0.02076,-0.01229 0.03086,-0.01883c0.00162,0.01871 0.00272,0.03757 0.00328,0.05657zM1.52444,1.19848c-0.00374,0.01029 -0.00734,0.02065 -0.01078,0.03108c-0.01038,-0.00652 -0.0206,-0.01328 -0.03064,-0.02027c0.00061,-0.00072 0.00122,-0.00143 0.00182,-0.00215c0.01331,-0.00258 0.02652,-0.00547 0.0396,-0.00866zM1.68499,1.29078c-0.03027,-0.01329 -0.06118,-0.02538 -0.09269,-0.03619c-0.00865,-0.01937 -0.01667,-0.03908 -0.02404,-0.0591c0.00129,-0.00338 0.0026,-0.00675 0.00392,-0.01011c0.03867,-0.01183 0.07617,-0.02632 0.11231,-0.04324c0.00634,0.00949 0.01254,0.01908 0.0186,0.02877c-0.00388,0.04064 -0.00996,0.08063 -0.0181,0.11987zM1.90919,1.34942c0.06154,-0.03292 0.12633,-0.06056 0.19375,-0.08234c-0.01081,0.02419 -0.02256,0.04786 -0.03521,0.07097c-0.04415,0.00768 -0.08955,0.01169 -0.1359,0.01169c-0.00757,0 -0.01512,-0.00011 -0.02265,-0.00032zM2.12288,1.21909c-0.10118,0.02961 -0.19694,0.07191 -0.28544,0.12506c-0.00074,-0.00009 -0.00149,-0.00018 -0.00223,-0.00027c-0.02524,-0.06375 -0.05578,-0.12482 -0.09109,-0.18267c0.00143,-0.01713 0.00249,-0.03436 0.00316,-0.05169c0.07952,-0.04559 0.15107,-0.10351 0.21203,-0.17116c0.0582,0.06353 0.1259,0.11822 0.20085,0.1618c-0.00996,0.04069 -0.02245,0.0804 -0.03728,0.11894zM1.77275,1.33366c-0.0166,-0.00896 -0.03344,-0.01755 -0.0505,-0.02575c0.00569,-0.02632 0.01047,-0.05298 0.01432,-0.07994c0.01934,0.03522 0.0369,0.07155 0.05256,0.10887c-0.00548,-0.001 -0.01094,-0.00206 -0.01638,-0.00318zM2.33506,1.17699c-0.02383,0.00257 -0.04745,0.00582 -0.07085,0.00973c-0.00162,-0.01224 -0.00299,-0.02455 -0.00412,-0.03693c0.02444,0.01019 0.04945,0.01928 0.07497,0.0272zM2.27031,1.22626c0.03085,-0.00517 0.06209,-0.00916 0.0937,-0.0119c0.0006,0.00168 0.00119,0.00335 0.00177,0.00503c-0.02776,0.01838 -0.05676,0.03505 -0.08683,0.04986c-0.00321,-0.01421 -0.00609,-0.02854 -0.00864,-0.04299zM2.21847,1.13109c0.00144,0.02115 0.00357,0.04212 0.00635,0.06288c-0.01834,0.00369 -0.03654,0.00779 -0.05457,0.01228c0.00994,-0.02819 0.01868,-0.05693 0.02617,-0.08619c0.00729,0.00378 0.01464,0.00745 0.02205,0.01102zM2.1528,1.25218c0.02571,-0.00707 0.05178,-0.01329 0.07816,-0.01864c0.00314,0.01777 0.00676,0.03537 0.01086,0.05279c-0.03954,0.01696 -0.08075,0.03078 -0.12332,0.04113c0.01241,-0.02455 0.02386,-0.04966 0.0343,-0.07529zM1.91089,0.88058c0.00712,0.00929 0.01442,0.01843 0.02191,0.02742c-0.0535,0.06008 -0.11571,0.11223 -0.18464,0.15449c-0.00008,-0.05447 -0.00396,-0.10805 -0.01138,-0.16049c0.00459,-0.00572 0.00924,-0.01139 0.01395,-0.01701c0.02013,0.00177 0.04051,0.00268 0.06111,0.00268c0.03364,0 0.06671,-0.00242 0.09906,-0.00708zM1.69246,0.87734c0.00076,0.00447 0.00149,0.00895 0.0022,0.01344c-0.02601,0.03342 -0.05018,0.06835 -0.07237,0.10462c-0.00008,-0.00009 -0.00016,-0.00018 -0.00024,-0.00028c0.01886,-0.03928 0.03523,-0.07998 0.04891,-0.1219c0.00713,0.00148 0.0143,0.00286 0.02151,0.00412zM1.64954,1.02764c0.01636,-0.02749 0.0339,-0.05421 0.05254,-0.08008c0.00401,0.03835 0.00607,0.07728 0.00607,0.11669c0,0.00713 -0.00007,0.01423 -0.0002,0.02133c-0.00337,0.00181 -0.00676,0.0036 -0.01016,0.00537c-0.01539,-0.02165 -0.03149,-0.04277 -0.04825,-0.06332zM1.57224,1.08632c-0.0082,0.01667 -0.016,0.03357 -0.02339,0.0507c-0.001,-0.00337 -0.00198,-0.00676 -0.00294,-0.01015c0.00909,-0.01329 0.01788,-0.02681 0.02633,-0.04055zM1.59283,1.13647c0.01097,-0.0243 0.0228,-0.04813 0.03546,-0.07144c0.01136,0.01431 0.02238,0.02889 0.03306,0.04374c-0.02232,0.01023 -0.04518,0.01948 -0.06852,0.02771zM1.95907,0.87699c-0.00119,-0.00145 -0.00237,-0.00291 -0.00355,-0.00437c0.00285,-0.00061 0.00569,-0.00123 0.00852,-0.00187c-0.00165,0.00209 -0.00331,0.00416 -0.00497,0.00623zM1.42129,0.76608c-0.0128,0.00643 -0.02546,0.01309 -0.03798,0.01997c-0.02524,-0.01679 -0.05115,-0.03266 -0.07769,-0.04754c-0.00191,-0.02013 -0.00428,-0.04012 -0.0071,-0.05997c0.00566,-0.00081 0.0113,-0.0017 0.01691,-0.00265c0.03211,0.03348 0.06757,0.06373 0.10585,0.09019zM1.42023,0.81162c0.01332,-0.00702 0.02681,-0.01377 0.04045,-0.02025c0.00364,0.00217 0.0073,0.0043 0.01099,0.0064c-0.00112,0.01702 -0.00181,0.03416 -0.00207,0.0514c-0.01612,-0.01293 -0.03258,-0.02545 -0.04937,-0.03755zM1.31152,0.87717c0.02268,-0.01553 0.04598,-0.03023 0.06984,-0.04406c0.03072,0.02139 0.06036,0.04422 0.08881,0.0684c0.00275,0.07502 0.01378,0.14793 0.0322,0.21784c-0.01245,0.01747 -0.02547,0.03451 -0.03904,0.05108c-0.00877,0.00154 -0.01758,0.00295 -0.02644,0.00421c-0.05102,-0.04132 -0.09676,-0.08889 -0.13607,-0.14155c0.00657,-0.05111 0.0102,-0.10315 0.0107,-0.15593zM1.34445,0.80845c-0.01124,0.00677 -0.02235,0.01374 -0.03333,0.02088c-0.00037,-0.01423 -0.00097,-0.02841 -0.00179,-0.04252c0.01184,0.00701 0.02355,0.01422 0.03512,0.02164zM1.5929,0.96305c-0.02644,-0.02807 -0.05422,-0.05487 -0.08324,-0.08029c-0.00012,-0.00615 -0.00017,-0.01232 -0.00017,-0.01849c0,-0.0154 0.00036,-0.03071 0.00108,-0.04593c0.03856,0.01882 0.07914,0.03414 0.12133,0.04555c-0.0112,0.03393 -0.02424,0.06702 -0.039,0.09916zM1.51237,0.93918c0.02136,0.02002 0.04197,0.04085 0.06176,0.06242c-0.01282,0.0249 -0.02669,0.04916 -0.04156,0.07273c-0.00983,-0.04398 -0.01665,-0.08911 -0.02021,-0.13515zM1.25564,0.75694c0.00401,0.00209 0.00801,0.00421 0.01199,0.00635c0.00241,0.03071 0.00373,0.06172 0.00393,0.093c-0.01798,0.01281 -0.03558,0.02613 -0.05276,0.03993c-0.00359,-0.00766 -0.00706,-0.0154 -0.01041,-0.02319c0.01769,-0.03767 0.03348,-0.0764 0.04725,-0.11609zM1.23713,0.93284c0.01108,-0.00904 0.02233,-0.01787 0.03376,-0.02648c-0.00083,0.02564 -0.00243,0.05109 -0.00476,0.07633c-0.01025,-0.01622 -0.01993,-0.03285 -0.02901,-0.04984zM1.04471,1.13549c0.04394,-0.05992 0.0938,-0.11522 0.14873,-0.16505c0.02154,0.03755 0.04117,0.07634 0.05875,0.11623c-0.00546,0.03093 -0.01203,0.06147 -0.01968,0.09159c-0.06519,-0.00693 -0.12809,-0.02149 -0.1878,-0.04277zM1.33205,1.18281c-0.00976,-0.02944 -0.02057,-0.0584 -0.03237,-0.08685c0.02544,0.03013 0.05299,0.05841 0.08243,0.08463c-0.01655,0.00124 -0.03324,0.00198 -0.05006,0.00222zM1.27949,1.15392c0.0035,0.00942 0.00689,0.01889 0.01017,0.02842c-0.00559,-0.0002 -0.01116,-0.00046 -0.01672,-0.00078c0.00228,-0.00917 0.00446,-0.01839 0.00655,-0.02764zM0.59192,1.46835c0.02606,0.01665 0.05136,0.03437 0.07586,0.0531c-0.05387,-0.00289 -0.10655,-0.01021 -0.1577,-0.02162c0.02775,-0.00952 0.05505,-0.02002 0.08184,-0.03148zM0.73335,1.52276c-0.02256,-0.01895 -0.04586,-0.03705 -0.06985,-0.05423c0.05703,0.00316 0.11294,0.01055 0.16741,0.02186c-0.00238,0.00892 -0.00466,0.01788 -0.00682,0.02689c-0.02986,0.00322 -0.06012,0.00507 -0.09073,0.00549zM0.84193,1.45182c-0.05442,-0.01145 -0.11024,-0.01911 -0.16716,-0.0227c0.06199,-0.03232 0.12081,-0.06988 0.17587,-0.1121c0.00522,0.01989 0.01103,0.03954 0.01743,0.05893c-0.00957,0.02488 -0.0183,0.05019 -0.02614,0.07588zM0.90294,1.46638c-0.00727,-0.00194 -0.01457,-0.00382 -0.0219,-0.00563c0.00271,-0.00879 0.00552,-0.01753 0.00845,-0.02622c0.0043,0.01071 0.00879,0.02133 0.01345,0.03185zM0.86996,1.49922c0.00931,0.00228 0.01858,0.00468 0.02781,0.0072c-0.0103,0.00193 -0.02066,0.00369 -0.03108,0.00529c0.00107,-0.00417 0.00216,-0.00833 0.00327,-0.01249zM0.97572,1.48842c-0.00721,-0.00244 -0.01446,-0.00482 -0.02173,-0.00713c-0.01642,-0.03371 -0.03091,-0.06854 -0.04333,-0.10434c0.0172,-0.04301 0.03703,-0.08467 0.05931,-0.1248c0.07442,-0.01489 0.15139,-0.0227 0.23019,-0.0227c0.00607,0 0.01212,0.00005 0.01816,0.00014c-0.02035,0.06795 -0.04622,0.13351 -0.07711,0.19616c-0.05264,0.02574 -0.10799,0.04681 -0.16549,0.06266zM1.0974,1.19377c-0.03397,0.00286 -0.06754,0.00713 -0.10065,0.01275c0.00778,-0.01255 0.01581,-0.02494 0.02407,-0.03715c0.025,0.00928 0.05054,0.01743 0.07657,0.02439zM0.91419,1.26475c0.00141,-0.00035 0.00282,-0.00071 0.00423,-0.00106c-0.00917,0.01779 -0.01788,0.03585 -0.02612,0.05417c-0.00257,-0.00934 -0.005,-0.01874 -0.00729,-0.0282c0.00986,-0.00815 0.0196,-0.01646 0.02919,-0.02491zM1.34922,1.23888c0.01531,0.00195 0.03053,0.0042 0.04565,0.00674c-0.01144,0.01131 -0.02317,0.02233 -0.03516,0.03306c-0.00329,-0.01335 -0.00678,-0.02662 -0.01049,-0.0398zM1.25963,1.23094c0.01562,0.00078 0.03115,0.00187 0.0466,0.00327c0.00716,0.02425 0.01359,0.0488 0.01928,0.07365c-0.03937,0.03203 -0.08132,0.061 -0.1255,0.08656c0.02334,-0.05275 0.0433,-0.10734 0.05962,-0.16347zM1.23662,0.68459c-0.00153,0.00531 -0.00309,0.0106 -0.00469,0.01588c-0.00243,-0.00115 -0.00486,-0.00229 -0.0073,-0.00342c0.00325,-0.00408 0.00647,-0.0082 0.00964,-0.01234c0.00078,-0.00004 0.00157,-0.00008 0.00235,-0.00012zM1.19794,0.72883c0.00724,0.00328 0.01444,0.00664 0.0216,0.01006c-0.00948,0.02773 -0.01998,0.05498 -0.03146,0.08172c-0.00697,-0.0201 -0.01314,-0.04057 -0.01849,-0.06138c0.00971,-0.00989 0.01916,-0.02003 0.02835,-0.03041zM0.82294,0.96668c-0.00148,0.01515 -0.00261,0.0304 -0.0034,0.04574c-0.01417,-0.01093 -0.02797,-0.02232 -0.04138,-0.03414c0.0151,-0.00344 0.03003,-0.00731 0.04478,-0.01159zM0.85849,1.04071c0.00071,-0.02947 0.00277,-0.05862 0.0061,-0.08737c0.08457,-0.0297 0.16262,-0.07324 0.23145,-0.1279c0.01893,0.0243 0.03698,0.04932 0.05409,0.07502c-0.04107,0.07853 -0.09086,0.15178 -0.14808,0.21846c-0.05064,-0.02133 -0.0987,-0.0476 -0.14356,-0.07821zM1.14844,0.82835c-0.0071,-0.00963 -0.01433,-0.01916 -0.02169,-0.02858c0.00335,-0.00294 0.00667,-0.00591 0.00997,-0.00891c0.00361,0.01262 0.00752,0.02513 0.01171,0.0375zM0.72929,0.98782c0.02794,0.02642 0.05765,0.05099 0.08893,0.0735c0,0.00098 0,0.00196 0,0.00294c0,0.06199 0.00568,0.12265 0.01654,0.18149c-0.10707,0.03397 -0.20766,0.08247 -0.29948,0.14318c-0.07025,-0.0374 -0.14487,-0.06767 -0.2229,-0.08984c-0.01337,-0.02725 -0.02553,-0.05521 -0.0364,-0.08381c0.03059,-0.08642 0.07161,-0.16791 0.12155,-0.24297c0.06466,0.01691 0.13252,0.02591 0.20248,0.02591c0.04402,0 0.0872,-0.00356 0.12929,-0.01042zM0.57478,1.41099c0.07422,-0.0472 0.15414,-0.08625 0.23849,-0.11588c-0.06743,0.05022 -0.14048,0.0933 -0.21806,0.12811c-0.00677,-0.00415 -0.01358,-0.00823 -0.02044,-0.01223zM0.49796,1.41462c-0.00871,0.00624 -0.01733,0.01259 -0.02586,0.01906c-0.02442,0.00266 -0.04862,0.00606 -0.07256,0.0102c-0.02206,-0.03041 -0.04242,-0.06213 -0.06096,-0.09502c0.05516,0.01781 0.10842,0.03986 0.15939,0.06577zM0.35731,0.96067c-0.03985,0.06134 -0.074,0.12673 -0.1017,0.19541c-0.01786,-0.05789 -0.03055,-0.11805 -0.03753,-0.17993c0.03467,-0.00771 0.06865,-0.01722 0.10186,-0.02843c0.01231,0.00461 0.02477,0.00893 0.03737,0.01295zM0.89489,1.22839c-0.00722,0.00188 -0.01441,0.00383 -0.02158,0.00584c-0.00853,-0.04741 -0.01355,-0.09603 -0.0148,-0.14559c0.0367,0.02339 0.0753,0.04408 0.11551,0.06177c-0.02513,0.02723 -0.05154,0.05326 -0.07914,0.07798zM0.17873,0.98407c0.00933,0.08043 0.02794,0.15802 0.05474,0.23169c-0.00674,0.01984 -0.01295,0.03993 -0.01861,0.06024c-0.05146,-0.00981 -0.10415,-0.01616 -0.15781,-0.0188c-0.01984,-0.01895 -0.03888,-0.03874 -0.05704,-0.05932v-0.19788c0.06101,0 0.12074,-0.00546 0.17873,-0.01593zM0.10595,1.30083c0.03339,0.00319 0.06635,0.00787 0.0988,0.01398c-0.00407,0.01687 -0.00777,0.03389 -0.01109,0.05104c-0.03049,-0.02003 -0.05978,-0.04174 -0.08772,-0.06501zM0.23012,1.38863c0.00396,-0.02214 0.00858,-0.04405 0.01383,-0.06571c0.01364,0.00309 0.02719,0.00643 0.04064,0.01002c0.02111,0.04115 0.04491,0.0807 0.07117,0.1184c-0.04358,-0.01788 -0.08555,-0.03888 -0.12564,-0.06271zM0.26202,1.28604c-0.00264,-0.00062 -0.00527,-0.00123 -0.00792,-0.00183c0.00092,-0.00325 0.00185,-0.0065 0.00279,-0.00974c0.00169,0.00387 0.00339,0.00773 0.00512,0.01157zM0.04047,1.29653c0.04495,0.04165 0.09373,0.07922 0.14576,0.11212c-0.00495,0.0321 -0.00857,0.06464 -0.0108,0.09756c-0.01489,0.0058 -0.02964,0.0119 -0.04423,0.01829c-0.00373,0.00004 -0.00747,0.00005 -0.01121,0.00005c-0.04052,0 -0.08055,-0.00207 -0.12,-0.00612v-0.22263c0.01355,0 0.02704,0.00024 0.04047,0.00073zM0.27449,1.51437c0.02605,-0.00783 0.0525,-0.01474 0.0793,-0.02069c0.00409,0.00161 0.0082,0.0032 0.01232,0.00476c-0.03012,0.0065 -0.06068,0.01183 -0.09162,0.01594zM0.29314,1.46743c-0.02585,0.00701 -0.05134,0.01488 -0.07644,0.02358c0.00169,-0.02015 0.00393,-0.04016 0.00668,-0.05999c0.02271,0.01302 0.04597,0.02517 0.06975,0.03641zM2.96762,0.5615c0.01088,0.00404 0.02167,0.00824 0.03238,0.01261v0.18756c-0.07095,0.02099 -0.13881,0.04915 -0.20275,0.08365c-0.00628,-0.00377 -0.01251,-0.00762 -0.01867,-0.01156c-0.00928,-0.03906 -0.02086,-0.07722 -0.0346,-0.11434c0.00138,-0.00718 0.00266,-0.0144 0.00385,-0.02164c0.08124,-0.03261 0.15547,-0.079 0.21979,-0.13627zM2.83905,0.86859c0.05132,-0.02604 0.10512,-0.0479 0.16095,-0.06513v0.12586c-0.05645,-0.01413 -0.11037,-0.03465 -0.16095,-0.06073zM2.99992,0.53099c0.00003,-0.00003 0.00005,-0.00005 0.00008,-0.00008l0,0.00011c-0.00003,-0.00001 -0.00005,-0.00002 -0.00008,-0.00003zM2.72632,0.79301c0.00052,0.00176 0.00104,0.00353 0.00155,0.0053c-0.00084,-0.00064 -0.00169,-0.00129 -0.00253,-0.00194c0.00033,-0.00112 0.00066,-0.00224 0.00098,-0.00336zM2.69957,0.71524c0.00099,0.00252 0.00197,0.00505 0.00295,0.00758c-0.0032,0.0155 -0.00686,0.03083 -0.01096,0.04598c-0.01451,-0.01255 -0.02854,-0.02566 -0.04205,-0.03927c0.01692,-0.0042 0.03362,-0.00897 0.05006,-0.01429zM2.57782,0.11321c-0.03492,0.05622 -0.06348,0.11679 -0.08469,0.18072c0.0042,-0.03071 0.00636,-0.06207 0.00636,-0.09393c0,-0.06956 -0.01033,-0.13671 -0.02954,-0.2l0.01195,0c0.03539,0.03459 0.06753,0.0725 0.09591,0.11321zM2.49264,0.49776c0.02751,-0.00238 0.05532,-0.00374 0.08338,-0.00404c0.04256,0.05691 0.07891,0.11874 0.10805,0.18447c-0.0216,0.00688 -0.04365,0.01275 -0.06609,0.01756c-0.05147,-0.05864 -0.09397,-0.12535 -0.12534,-0.19799zM2.54503,0.45446c-0.0162,0.0006 -0.03232,0.00155 -0.04834,0.00283c0.00082,-0.00632 0.00171,-0.01261 0.00267,-0.01888c0.0054,-0.00589 0.01087,-0.01172 0.01641,-0.01747c0.01001,0.01094 0.01976,0.02212 0.02925,0.03352zM2.71425,0.64784c-0.02495,-0.05397 -0.05459,-0.10533 -0.08842,-0.15354c0.03053,0.00104 0.06074,0.00333 0.09058,0.00683c0.00158,0.02034 0.00238,0.0409 0.00238,0.06165c0,0.02874 -0.00154,0.05712 -0.00454,0.08506zM2.7122,0.46039c-0.03826,-0.00418 -0.0771,-0.00645 -0.11642,-0.00671c-0.01639,-0.02101 -0.0336,-0.04135 -0.0516,-0.06096c0.03912,-0.03724 0.0815,-0.07109 0.12665,-0.1011c0.01973,0.05375 0.03376,0.11025 0.04136,0.16877zM2.65576,0.25366c-0.04976,0.03244 -0.09635,0.06934 -0.13921,0.11014c-0.00056,-0.00057 -0.00113,-0.00113 -0.00169,-0.0017c0.01913,-0.07536 0.04877,-0.14651 0.08728,-0.21182c0.02031,0.03293 0.03826,0.06747 0.05361,0.10338zM2.69011,0.23227c-0.01823,-0.04177 -0.03981,-0.08173 -0.0644,-0.11956c0.02678,-0.04024 0.05706,-0.07795 0.09039,-0.11271l0.1669,0c0.04068,0.01957 0.07976,0.04192 0.117,0.06682v0.0478c-0.11125,0.02133 -0.21573,0.06172 -0.30989,0.11765zM2.75692,0.50665c0.05727,0.0089 0.11307,0.02225 0.16703,0.03969c-0.05105,0.04265 -0.10818,0.07828 -0.16989,0.10541c0.00313,-0.02923 0.00473,-0.05891 0.00473,-0.08897c0,-0.01886 -0.00063,-0.03758 -0.00188,-0.05613zM2.95835,0.51567c-0.06585,-0.02281 -0.13447,-0.0397 -0.20521,-0.05005c-0.00798,-0.06817 -0.02425,-0.1338 -0.04777,-0.19587c0.08947,-0.05392 0.18879,-0.09315 0.29462,-0.11436v0.3172c-0.01328,0.01493 -0.02717,0.02931 -0.04165,0.04307zM2.60138,0.07733c-0.01965,-0.02706 -0.04091,-0.05288 -0.06362,-0.07733l0.12405,0c-0.02157,0.02457 -0.04176,0.05038 -0.06043,0.07733zM2.33117,0.69845c0.03013,-0.07007 0.06864,-0.13568 0.11429,-0.19557c0.00187,-0.00024 0.00374,-0.00048 0.00561,-0.00072c0.00028,0.00067 0.00055,0.00133 0.00083,0.002c-0.00131,0.01937 -0.00198,0.03892 -0.00198,0.05862c0,0.05075 0.00443,0.10047 0.01293,0.14879c-0.04501,-0.00032 -0.08902,-0.00482 -0.13167,-0.01312zM2.50334,0.71073c-0.00762,-0.04146 -0.0121,-0.08402 -0.01317,-0.12742c0.02373,0.04281 0.05131,0.08319 0.08228,0.12067c-0.0227,0.00334 -0.04576,0.00561 -0.06911,0.00675zM1.88356,0.05457c0.00142,-0.018 0.00214,-0.0362 0.00214,-0.05457l0.08189,0c-0.02896,0.01681 -0.057,0.03503 -0.08403,0.05457zM1.9216,0.07663c0.04153,-0.02886 0.08545,-0.05453 0.1314,-0.07663l0.00286,0c0.01799,0.03642 0.03336,0.07436 0.04586,0.11359c-0.05797,-0.01765 -0.11819,-0.03015 -0.18012,-0.03696zM1.90458,0.11509c0.07283,0.00703 0.14327,0.02225 0.21037,0.04473c0.01652,0.06491 0.02531,0.13291 0.02531,0.20296c0,0.02574 -0.00119,0.05119 -0.0035,0.07632c-0.05585,-0.12283 -0.13515,-0.23274 -0.23218,-0.32401zM1.8716,0.13902c0.11181,0.10356 0.19963,0.23266 0.25418,0.37803c-0.00248,0.01306 -0.00528,0.026 -0.00838,0.03883c-0.01913,0.00876 -0.03797,0.01804 -0.05651,0.02782c-0.10425,-0.07284 -0.18807,-0.1729 -0.24117,-0.28987c0.02315,-0.04872 0.04071,-0.1006 0.05188,-0.15481zM2.09947,0.60885c0.00128,-0.00064 0.00256,-0.00128 0.00384,-0.00192c-0.00037,0.00119 -0.00074,0.00237 -0.00112,0.00356c-0.00091,-0.00055 -0.00182,-0.00109 -0.00272,-0.00164zM2.20878,0.6629c-0.00624,-0.03146 -0.01392,-0.06239 -0.02297,-0.09274c0.06169,-0.02447 0.12614,-0.04348 0.19276,-0.05643c-0.03404,0.06136 -0.07775,0.1166 -0.12908,0.16368c-0.01376,-0.00443 -0.02734,-0.00928 -0.04071,-0.01451zM2.40116,0.46901c-0.07891,0.01311 -0.15506,0.0344 -0.22755,0.06295c-0.00211,-0.00619 -0.00428,-0.01235 -0.0065,-0.01848c0.00865,-0.04893 0.01316,-0.09929 0.01316,-0.1507c0,-0.06408 -0.00701,-0.12652 -0.0203,-0.1866c0.08672,0.03402 0.16725,0.08038 0.23942,0.13691c0.00513,0.03587 0.01266,0.07097 0.02243,0.10512c-0.00618,0.01729 -0.01308,0.03423 -0.02066,0.05081zM2.39351,0.2586c-0.07467,-0.054 -0.15714,-0.09788 -0.2454,-0.12962c-0.01256,-0.04457 -0.02862,-0.08767 -0.04787,-0.12898l0.31661,0c-0.01663,0.06389 -0.02548,0.13091 -0.02548,0.2c0,0.01971 0.00072,0.03925 0.00214,0.0586zM2.14993,0.58999c0.00508,0.01762 0.00968,0.03544 0.01379,0.05345c-0.00875,-0.00414 -0.0174,-0.00846 -0.02594,-0.01295c0.00437,-0.01336 0.00843,-0.02686 0.01215,-0.0405zM2.45124,0.30368c-0.00473,-0.00398 -0.00951,-0.00793 -0.01432,-0.01182c-0.00367,-0.03011 -0.00556,-0.06076 -0.00556,-0.09185c0,-0.04779 0.00446,-0.09454 0.01299,-0.13986c0.00991,0.04504 0.01514,0.09184 0.01514,0.13986c0,0.03529 -0.00282,0.06992 -0.00825,0.10368zM1.50048,0.61643c-0.01028,0.04024 -0.01811,0.08145 -0.02333,0.12348c-0.00461,0.00201 -0.00921,0.00405 -0.01378,0.00611c-0.03632,-0.02323 -0.07017,-0.04998 -0.10106,-0.07977c0.04826,-0.0117 0.09451,-0.02851 0.13817,-0.04982zM1.51358,0.77505c0.00023,-0.00248 0.00047,-0.00495 0.00071,-0.00742c0.04513,-0.01854 0.09176,-0.03417 0.13967,-0.04665c0.00288,0.00885 0.00565,0.01774 0.00831,0.02669c-0.00515,0.02638 -0.01137,0.05237 -0.01863,0.07793c-0.04553,-0.01221 -0.08908,-0.02926 -0.13006,-0.05056zM1.64085,0.68307c-0.04127,0.01087 -0.08163,0.024 -0.12093,0.03924c0.00671,-0.04517 0.01656,-0.0893 0.02934,-0.13218c0.01366,-0.0081 0.02702,-0.01666 0.04005,-0.02566c0.01939,0.03831 0.03663,0.0779 0.05154,0.11861zM1.67515,0.6605c-0.01548,-0.04119 -0.03326,-0.08126 -0.05318,-0.12005c0.00651,-0.00509 0.01293,-0.0103 0.01925,-0.01562c0.01294,0.00391 0.02577,0.00806 0.0385,0.01242c0.00022,0.00848 0.00033,0.01699 0.00033,0.02553c0,0.03299 -0.00166,0.06559 -0.00491,0.09772zM1.67766,0.49436c-0.00064,-0.00021 -0.00127,-0.00042 -0.00191,-0.00062c0.00058,-0.00056 0.00116,-0.00112 0.00174,-0.00168c0.00006,0.00077 0.00011,0.00154 0.00017,0.00231zM1.78396,0.84707c0.02009,-0.02187 0.04105,-0.04293 0.06284,-0.0631c0.01164,0.02044 0.02411,0.04036 0.03735,0.0597c-0.02374,0.00264 -0.04787,0.00399 -0.07232,0.00399c-0.00934,0 -0.01863,-0.0002 -0.02787,-0.00059zM1.82726,0.74762c-0.03294,0.02994 -0.0641,0.0618 -0.09332,0.0954c-0.00242,-0.00029 -0.00484,-0.00059 -0.00726,-0.00091c-0.0064,-0.03267 -0.01419,-0.06484 -0.0233,-0.09645c0.0023,-0.01246 0.00437,-0.025 0.00621,-0.03762c0.03037,-0.00624 0.06121,-0.01122 0.09244,-0.01489c0.00778,0.0185 0.0162,0.03666 0.02523,0.05447zM1.78694,0.6547c-0.0243,0.00308 -0.04836,0.00693 -0.07216,0.01152c0.00349,-0.034 0.00528,-0.06851 0.00528,-0.10344c0,-0.00361 -0.00002,-0.00722 -0.00006,-0.01083c0.01369,0.0053 0.02724,0.01087 0.04066,0.01669c0.00727,0.02931 0.01606,0.05802 0.02627,0.08605zM1.75028,0.52091c-0.01048,-0.00424 -0.02103,-0.00833 -0.03166,-0.01226c-0.00099,-0.01848 -0.00247,-0.03683 -0.00445,-0.05503c0.00815,-0.00923 0.01606,-0.01869 0.02372,-0.02836c0.00235,0.03242 0.00651,0.06434 0.01239,0.09565zM1.68362,0.83125c0.00028,0.00129 0.00055,0.00259 0.00082,0.00389c-0.0006,-0.00012 -0.00121,-0.00024 -0.00181,-0.00036c0.00033,-0.00117 0.00066,-0.00235 0.00099,-0.00352zM1.92848,0.83719c-0.01855,-0.02574 -0.03562,-0.0526 -0.0511,-0.08047c0.02894,-0.02485 0.05919,-0.04821 0.09064,-0.06996c0.02645,0.01911 0.05202,0.03936 0.07664,0.06067c-0.01319,0.0248 -0.02762,0.04884 -0.0432,0.07204c-0.02377,0.00727 -0.04812,0.0132 -0.07297,0.01772zM1.9011,0.68599c-0.01452,0.01112 -0.02877,0.02257 -0.04273,0.03437c-0.00507,-0.01032 -0.00992,-0.02076 -0.01455,-0.03132c0.01896,-0.0015 0.03806,-0.00252 0.05728,-0.00305zM1.90725,0.64583c-0.02666,0.00056 -0.0531,0.00204 -0.07928,0.00441c-0.0074,-0.01955 -0.01407,-0.03947 -0.01997,-0.0597c0.03411,0.01676 0.06723,0.03523 0.09925,0.05529zM2.08631,0.65596c-0.01999,-0.00271 -0.04015,-0.0049 -0.06046,-0.00656c0.01081,-0.00651 0.02173,-0.01283 0.03278,-0.01897c0.00993,0.00646 0.02002,0.01269 0.03027,0.01869c-0.00085,0.00229 -0.00171,0.00457 -0.00258,0.00684zM2.02214,0.60512c-0.0182,0.01053 -0.03608,0.02156 -0.05363,0.03306c-0.0546,-0.03746 -0.11261,-0.07033 -0.17346,-0.09803c-0.01203,-0.05402 -0.01868,-0.11007 -0.01936,-0.16755c0.0073,-0.01125 0.01427,-0.02272 0.02092,-0.03441c0.05337,0.10574 0.13098,0.19715 0.22553,0.26693zM2.03916,0.69074c0.0105,0.00102 0.02095,0.00218 0.03136,0.00349c-0.00242,0.00547 -0.0049,0.01091 -0.00743,0.01631c-0.00789,-0.00671 -0.01586,-0.01331 -0.02393,-0.0198zM2.11156,0.70019c0.02204,0.00362 0.04385,0.0079 0.06543,0.01282c0.00102,0.00665 0.00198,0.01332 0.00286,0.02001c-0.0177,0.01224 -0.03603,0.02362 -0.05495,0.03409c-0.01002,-0.00987 -0.02023,-0.01955 -0.03061,-0.02904c0.00605,-0.01246 0.01181,-0.02509 0.01727,-0.03787zM2.07526,0.77494c0.00404,0.00377 0.00805,0.00756 0.01203,0.01139c-0.00815,0.00384 -0.01639,0.00751 -0.02472,0.01101c0.00434,-0.0074 0.00857,-0.01486 0.01269,-0.0224zM1.39822,0.20476c0.05808,-0.028 0.11942,-0.05028 0.18331,-0.06613c0.0254,0.0515 0.04632,0.10561 0.06225,0.16181c-0.03024,0.04412 -0.05702,0.09078 -0.07997,0.13961c-0.04773,-0.07355 -0.10366,-0.14129 -0.16648,-0.20194c0.00052,-0.01106 0.00081,-0.02218 0.00088,-0.03335zM1.63148,0.48031c-0.01245,-0.0035 -0.02499,-0.0068 -0.0376,-0.00989c0.01838,-0.04074 0.03953,-0.07996 0.0632,-0.11742c0.00638,0.02861 0.01148,0.05771 0.01524,0.08723c-0.01301,0.01395 -0.02664,0.02733 -0.04083,0.04008zM1.56256,0.10217c-0.05725,0.01479 -0.1125,0.03456 -0.16526,0.05881c-0.00254,-0.05285 -0.01023,-0.10436 -0.02256,-0.15402c0.00233,-0.00233 0.00467,-0.00465 0.00702,-0.00695l0.11615,0c0.02361,0.03257 0.04522,0.06669 0.06465,0.10217zM1.34852,0.47792c0.06482,0.00163 0.12826,0.00883 0.18986,0.02114c-0.00829,0.02109 -0.01588,0.04252 -0.02275,0.06428c-0.05714,0.03207 -0.11966,0.05569 -0.18586,0.06919c-0.01063,-0.01184 -0.02083,-0.02408 -0.03058,-0.03668c0.00104,-0.0053 0.00205,-0.01062 0.00302,-0.01595c0.01772,-0.03268 0.03322,-0.06674 0.04631,-0.10198zM1.52649,0.45607c-0.05361,-0.00974 -0.10852,-0.01575 -0.16444,-0.01775c0.01486,-0.04755 0.02538,-0.09702 0.03112,-0.14794c0.04952,0.05074 0.09421,0.10622 0.13332,0.16569zM1.56958,0.52946c0.00016,-0.00044 0.00033,-0.00088 0.00049,-0.00131c0.00013,0.00023 0.00026,0.00047 0.00039,0.0007c-0.00029,0.00021 -0.00058,0.00041 -0.00088,0.00061zM1.68732,0.308c0.01811,-0.02538 0.03744,-0.04983 0.05788,-0.07329c-0.00619,0.04109 -0.00945,0.08314 -0.00955,0.12594c-0.0091,0.01348 -0.0187,0.02661 -0.02876,0.03934c-0.0051,-0.03117 -0.01165,-0.06186 -0.01956,-0.09199zM1.73866,0.18227c-0.02306,0.02465 -0.04488,0.05047 -0.06537,0.07736c-0.01423,-0.04479 -0.03153,-0.08822 -0.05166,-0.13002c0.03386,-0.00685 0.06838,-0.01191 0.10344,-0.01508c0.00351,0.02294 0.00805,0.04554 0.01358,0.06774zM1.72009,0.07482c-0.03979,0.00364 -0.0789,0.00963 -0.1172,0.01783c-0.01705,-0.03196 -0.03579,-0.06288 -0.05609,-0.09264l0.13315,0c0.01242,0.00691 0.02467,0.01408 0.03676,0.0215c0.0005,0.01794 0.00164,0.03572 0.00338,0.05332zM1.80269,0.03085c-0.01473,-0.01067 -0.02976,-0.02096 -0.04506,-0.03085l0.05885,0c-0.00479,0.01017 -0.00939,0.02046 -0.01379,0.03085zM1.76514,0.11176c0.00272,-0.00013 0.00545,-0.00025 0.00818,-0.00036c-0.00181,0.00586 -0.00355,0.01174 -0.00523,0.01765c-0.00105,-0.00574 -0.00203,-0.01151 -0.00295,-0.01729zM1.78691,0.07094c-0.009,0.00022 -0.01797,0.00056 -0.02691,0.00102c-0.00079,-0.00785 -0.00145,-0.01573 -0.00198,-0.02365c0.00996,0.00682 0.01979,0.01382 0.02948,0.021c-0.0002,0.00054 -0.0004,0.00109 -0.0006,0.00163zM1.7892,0.21417c0.00208,-0.01126 0.0044,-0.02244 0.00694,-0.03354c0.0104,-0.01022 0.02103,-0.0202 0.03188,-0.02994c-0.00753,0.03148 -0.01736,0.06206 -0.02931,0.09156c-0.00336,-0.00927 -0.00653,-0.01864 -0.0095,-0.02808zM1.84281,0.06143c-0.00238,-0.0019 -0.00476,-0.0038 -0.00715,-0.00568c0.00295,-0.00722 0.006,-0.01438 0.00914,-0.02149c-0.00048,0.00911 -0.00114,0.01817 -0.00199,0.02717zM1.01854,0.03787c0.03918,0.01599 0.07724,0.03416 0.11403,0.05436c-0.00494,0.0314 -0.00776,0.06351 -0.0083,0.09618c-0.03175,-0.05271 -0.06711,-0.103 -0.10573,-0.15054zM1.14037,0.05096c-0.03519,-0.0188 -0.07147,-0.03583 -0.10873,-0.05096l0.12207,0c-0.00508,0.01672 -0.00953,0.03372 -0.01334,0.05096zM0.88889,0.56568c-0.00028,-0.00021 -0.00057,-0.00043 -0.00085,-0.00064c0.02734,-0.0116 0.05524,-0.02213 0.08365,-0.03154c-0.01172,0.01851 -0.02284,0.03743 -0.03334,0.05674c-0.01688,-0.0075 -0.03338,-0.0157 -0.04946,-0.02457zM1.00757,0.48066c-0.05409,0.01528 -0.10655,0.03442 -0.15707,0.05712c-0.00168,-0.00117 -0.00336,-0.00234 -0.00504,-0.0035c0.08527,-0.13466 0.13926,-0.29108 0.15175,-0.45907c0.04987,0.06294 0.09391,0.13072 0.1313,0.20251c0.00211,0.0188 0.00499,0.03737 0.00859,0.05568c-0.00019,0.00066 -0.00038,0.00133 -0.00057,0.00199c-0.04754,0.04407 -0.09076,0.09273 -0.12896,0.14527zM0.97564,0.60543c0.01709,-0.03109 0.03587,-0.06111 0.05621,-0.08996c0.02484,-0.00668 0.05003,-0.01252 0.07552,-0.01748c-0.00166,0.02138 -0.0025,0.04299 -0.0025,0.06479c0,0.02572 0.00117,0.05116 0.00347,0.07629c-0.04597,-0.00655 -0.09038,-0.01793 -0.1327,-0.03363zM1.11164,0.45647c-0.01395,0.00256 -0.02781,0.00537 -0.04158,0.00844c0.01565,-0.01934 0.03204,-0.03806 0.04912,-0.05611c-0.00296,0.01574 -0.00548,0.03163 -0.00754,0.04767zM1.14896,0.64355c-0.00271,-0.02655 -0.00409,-0.0535 -0.00409,-0.08076c0,-0.02425 0.0011,-0.04824 0.00324,-0.07193c0.01259,-0.00196 0.02525,-0.00372 0.03798,-0.00525c0.01547,0.03384 0.03361,0.06621 0.05414,0.09684c0.00134,0.00591 0.00263,0.01184 0.00389,0.01778c-0.00962,0.01544 -0.01977,0.03052 -0.03044,0.04519c-0.0045,0.00009 -0.00901,0.00014 -0.01353,0.00014c-0.01723,0 -0.0343,-0.00067 -0.05119,-0.002zM1.16998,0.44731c-0.00569,0.00074 -0.01137,0.00153 -0.01704,0.00236c0.00165,-0.01146 0.00355,-0.02284 0.00568,-0.03413c0.00353,0.01071 0.00732,0.0213 0.01136,0.03177zM1.35798,0.18011c-0.00524,0.00269 -0.01045,0.00543 -0.01564,0.00822c-0.01246,-0.01057 -0.02514,-0.02088 -0.03805,-0.03091c-0.00318,-0.01848 -0.00678,-0.03681 -0.0108,-0.05499c0.01511,-0.02092 0.03122,-0.04106 0.04827,-0.06036c0.00947,0.04469 0.015,0.09083 0.01621,0.13804zM1.31647,0.24923c0.00687,-0.00419 0.0138,-0.00829 0.02079,-0.0123c0.00642,0.00572 0.01277,0.01152 0.01906,0.01739c-0.0045,0.06357 -0.01683,0.12497 -0.03605,0.18325c-0.00004,0 -0.00008,0 -0.00012,0c-0.00023,0 -0.00045,0 -0.00068,0c0.00152,-0.02473 0.00229,-0.04967 0.00229,-0.07478c0,-0.0383 -0.00179,-0.07617 -0.00529,-0.11355zM1.28126,0.05222c-0.00469,-0.01757 -0.00976,-0.03498 -0.01521,-0.05222h0.05986c-0.01559,0.01677 -0.03048,0.0342 -0.04465,0.05222zM1.16987,0.11367c0.01642,0.00987 0.03257,0.02015 0.04843,0.03083c-0.0198,0.03371 -0.03729,0.06895 -0.05223,0.1055c-0.00126,-0.0165 -0.0019,-0.03317 -0.0019,-0.05c0,-0.02927 0.00194,-0.05809 0.0057,-0.08633zM1.23941,0.11048c-0.02037,-0.01368 -0.0412,-0.02673 -0.06247,-0.03911c0.0049,-0.02431 0.01116,-0.04813 0.0187,-0.07137l0.02836,0c0.01011,0.03077 0.01896,0.06211 0.02651,0.09396c-0.00376,0.00546 -0.00747,0.01097 -0.0111,0.01652zM1.27935,0.43828c-0.01267,0.00044 -0.02528,0.00109 -0.03784,0.00194c-0.01245,-0.03645 -0.02645,-0.07218 -0.04194,-0.10711c0.0252,-0.02113 0.05151,-0.04097 0.07883,-0.05944c0.00223,0.02941 0.00337,0.05913 0.00337,0.08911c0,0.02536 -0.00081,0.05054 -0.00241,0.0755zM1.25424,0.4795c0.00726,-0.00043 0.01455,-0.00078 0.02185,-0.00107c-0.00181,0.01832 -0.00405,0.03651 -0.0067,0.05457c-0.00468,-0.01799 -0.00973,-0.03583 -0.01515,-0.05351zM1.2741,0.22858c-0.02721,0.01754 -0.0535,0.03638 -0.0788,0.05642c0.01543,-0.04089 0.03417,-0.08016 0.05588,-0.11748c0.00544,0.00396 0.01085,0.00797 0.01621,0.01202c0.00257,0.01624 0.00481,0.03258 0.0067,0.04903zM0.38177,0.92454c-0.00035,0.0005 -0.0007,0.001 -0.00106,0.0015c-0.0005,-0.00015 -0.00099,-0.0003 -0.00149,-0.00045c0.00085,-0.00035 0.0017,-0.0007 0.00255,-0.00105zM0.42189,0.93719c0.01194,-0.01653 0.02432,-0.03271 0.03713,-0.04853c0.04426,-0.02291 0.08658,-0.04902 0.12667,-0.07804c0.03118,0.05102 0.06752,0.09855 0.10831,0.14184c-0.0308,0.00381 -0.06217,0.00577 -0.094,0.00577c-0.06135,0 -0.12099,-0.00729 -0.17811,-0.02104zM1.15901,0.71204c0.00006,0.00002 0.00011,0.00005 0.00017,0.00007c-0.00004,0.00005 -0.00008,0.00009 -0.00013,0.00014c-0.00001,-0.00007 -0.00003,-0.00014 -0.00004,-0.00021zM0.83119,0.59109c0.00395,-0.00195 0.00791,-0.00387 0.01188,-0.00577c0.0047,0.00287 0.00944,0.00569 0.01421,0.00845c-0.00867,-0.00099 -0.01736,-0.00188 -0.02609,-0.00269zM0.77869,0.62746c0.04523,0.00226 0.08979,0.00711 0.13351,0.0144c-0.04119,0.08758 -0.06997,0.18215 -0.08407,0.28145c-0.0279,0.00879 -0.0565,0.01601 -0.08569,0.02156c-0.04774,-0.04738 -0.08967,-0.10059 -0.12466,-0.15847c0.05943,-0.04676 0.11344,-0.1001 0.16091,-0.15894zM1.10162,0.7686c-0.03174,-0.03812 -0.06565,-0.07436 -0.10156,-0.10854c0.03928,0.00975 0.07777,0.0215 0.11536,0.03514c0.00279,0.01735 0.00612,0.03452 0.00998,0.05149c-0.00777,0.00747 -0.0157,0.01477 -0.02378,0.02191zM0.94584,0.66441c0.04477,0.04019 0.0866,0.08361 0.12511,0.12988c-0.05998,0.0476 -0.12733,0.0863 -0.20006,0.11413c0.01409,-0.08572 0.03962,-0.1676 0.07495,-0.24401zM0.08861,0.81293c0.02636,0.02202 0.05417,0.04237 0.08326,0.06089c0.00022,0.02363 0.00123,0.04707 0.00301,0.07029c-0.0567,0.01044 -0.11515,0.01589 -0.17488,0.01589l0,-0.08327c0.02848,-0.02261 0.05805,-0.0439 0.08861,-0.0638zM0.05747,0.78553c-0.01957,0.013 -0.03873,0.02656 -0.05747,0.04065l0,-0.09969c0.01814,0.02065 0.03732,0.04036 0.05747,0.05904zM0.21438,0.93597c-0.0009,-0.0126 -0.00157,-0.02527 -0.002,-0.038c0.0164,0.00913 0.03315,0.01769 0.05023,0.02567c-0.01591,0.00452 -0.032,0.00863 -0.04823,0.01234zM0.55749,0.06143c-0.00002,-0.00021 -0.00004,-0.00043 -0.00006,-0.00064c0.0082,-0.02069 0.01722,-0.04097 0.02701,-0.0608l0.05824,0c-0.02947,0.01905 -0.0579,0.03956 -0.08519,0.06143zM0.8122,0.51203c-0.00817,-0.00528 -0.0164,-0.01047 -0.02469,-0.01556c-0.11603,-0.09655 -0.19768,-0.233 -0.22388,-0.3883c0.04848,-0.04085 0.10094,-0.07713 0.15672,-0.10817l0.18948,0c0.01069,0.00311 0.02132,0.00637 0.03188,0.00979c0.00602,0.00663 0.01196,0.01331 0.01784,0.02007c-0.00541,0.17695 -0.05869,0.34184 -0.14735,0.48217zM0.2119,0.85152c0.00048,-0.03797 0.0031,-0.07542 0.00775,-0.11224c0.09013,-0.04321 0.18672,-0.0751 0.28792,-0.09385c0.01105,0.03177 0.02391,0.06269 0.03845,0.09264c-0.04031,0.03687 -0.07798,0.07657 -0.11269,0.1188c-0.03628,0.01839 -0.07389,0.03453 -0.11264,0.04826c-0.03785,-0.01501 -0.07421,-0.03297 -0.10879,-0.05361zM0.55931,0.78033c0.00191,-0.0018 0.00382,-0.0036 0.00574,-0.00539c0.00016,0.00029 0.00032,0.00059 0.00048,0.00088c-0.00207,0.00151 -0.00414,0.00301 -0.00622,0.0045zM0.49522,0.60704c-0.09379,0.01779 -0.18372,0.04651 -0.26841,0.08477c0.0204,-0.11593 0.06101,-0.22491 0.11806,-0.32315c0.03928,0.00722 0.07791,0.01629 0.11579,0.02712c0.00276,0.07312 0.01465,0.14391 0.03455,0.21125zM0.46009,0.35407c-0.03054,-0.00842 -0.06154,-0.01573 -0.09295,-0.02189c0.03244,-0.05067 0.06937,-0.09819 0.11024,-0.14199c-0.0108,0.05302 -0.01672,0.10781 -0.01728,0.16389zM0.49645,0.11441c-0.06607,0.06203 -0.12393,0.13268 -0.1718,0.21017c-0.06663,-0.01074 -0.13499,-0.01631 -0.20465,-0.01631c-0.04047,0 -0.08049,0.00188 -0.12,0.00557l0,-0.1814c0.08881,-0.0573 0.18635,-0.10226 0.29017,-0.13243h0.22444c0,0.01849 0.00073,0.03681 0.00217,0.05493c-0.00748,0.0195 -0.01426,0.03933 -0.02033,0.05948zM0.12439,0.79055c0.01723,-0.01035 0.03476,-0.02026 0.05256,-0.02971c-0.00216,0.02164 -0.00365,0.04347 -0.00445,0.06548c-0.01652,-0.0113 -0.03257,-0.02323 -0.04811,-0.03577zM0.18291,0.71274c-0.03098,0.01555 -0.06119,0.0324 -0.09056,0.05048c-0.03365,-0.03035 -0.06458,-0.06368 -0.09235,-0.09957l0,-0.30963c0.03949,-0.0038 0.07952,-0.00575 0.12,-0.00575c0.06211,0 0.12314,0.00458 0.18279,0.01342c-0.05989,0.1067 -0.10129,0.22516 -0.11988,0.35105zM0.76433,0.58094c-0.0033,0.00183 -0.0066,0.00368 -0.00988,0.00554c-0.01145,-0.00032 -0.02293,-0.00049 -0.03446,-0.00049c-0.06294,0 -0.12474,0.00485 -0.18506,0.0142c-0.01851,-0.06129 -0.03003,-0.12561 -0.03366,-0.19203c0.09295,0.03009 0.18107,0.07089 0.26293,0.12094c0.00788,0.0065 0.0159,0.01282 0.02407,0.01897c-0.00775,0.01113 -0.01574,0.02209 -0.02394,0.03287zM0.59566,0.74743c0.02276,-0.0197 0.04633,-0.0385 0.07065,-0.05632c-0.02189,0.02111 -0.04478,0.04119 -0.06859,0.06016c-0.00069,-0.00128 -0.00137,-0.00256 -0.00206,-0.00384zM0.68931,0.6264c-0.0391,0.02579 -0.07654,0.0539 -0.1121,0.08415c-0.01095,-0.02336 -0.02084,-0.04732 -0.02959,-0.07182c0.04639,-0.00692 0.09367,-0.01108 0.14169,-0.01233zM0.66709,0.4311c-0.05372,-0.02552 -0.10951,-0.04739 -0.16704,-0.06531c0,-0.001 -0.00001,-0.00201 -0.00001,-0.00301c0,-0.07592 0.01032,-0.14943 0.02962,-0.2192c0.02286,0.10727 0.07081,0.20526 0.13742,0.28752zM0,0l0.16837,0c-0.0587,0.02383 -0.11497,0.05237 -0.16837,0.08516zM3,0l0,0.01912c-0.0104,-0.00656 -0.02093,-0.01294 -0.03159,-0.01912zM3,3l-0.01293,0c0.00453,-0.01319 0.00884,-0.02647 0.01293,-0.03986z"></path></g></svg>