<svg version="1.1" xmlns="http://www.w3.org/2000/svg" xmlns:xlink="http://www.w3.org/1999/xlink" width="3in" height="3in" viewBox="0 0 3.05 3.05"><g fill="none" fill-rule="none" stroke="none" stroke-width="none" stroke-linecap="butt" stroke-linejoin="miter" stroke-miterlimit="10" stroke-dasharray="" stroke-dashoffset="0" font-family="none" font-weight="none" font-size="none" text-anchor="none" style="mix-blend-mode: normal"><path d="M0,3v-3h3v3z" fill="none" fill-rule="nonzero" stroke="none" stroke-width="1"></path><path d="M0,3v-3h3v3z" fill="none" fill-rule="nonzero" stroke="none" stroke-width="1"></path><path d="M0.23339,0l1.27768,3" fill="none" fill-rule="nonzero" stroke="none" stroke-width="1"></path><path d="M1.7316,1.095c0,-0.41421 0.33579,-0.75 0.75,-0.75c0.20111,0 0.38373,0.07915 0.5184,0.208v1.08399c-0.13468,0.12885 -0.3173,0.208 -0.5184,0.208c-0.41421,0 -0.75,-0.33579 -0.75,-0.75zM0.17062,1.22193c0.41007,0 0.7425,0.33243 0.7425,0.7425c0,0.41007 -0.33243,0.7425 -0.7425,0.7425c-0.05871,0 -0.11584,-0.00682 -0.17062,-0.0197l0,-1.44561c0.05478,-0.01288 0.11191,-0.0197 0.17062,-0.0197zM0.32352,0.00327c0,-0.00109 0,-0.00218 0.00001,-0.00327l1.35656,0c0.00001,0.00109 0.00001,0.00218 0.00001,0.00327c0,0.37461 -0.30368,0.67829 -0.67829,0.67829c-0.37461,0 -0.67829,-0.30368 -0.67829,-0.67829zM0.82972,1.26818c0,-0.21553 0.17472,-0.39026 0.39026,-0.39026c0.21553,0 0.39026,0.17472 0.39026,0.39026c0,0.21553 -0.17472,0.39026 -0.39026,0.39026c-0.21553,0 -0.39026,-0.17472 -0.39026,-0.39026zM0.08918,0.43992c0.16104,0 0.29159,0.13055 0.29159,0.29159c0,0.16104 -0.13055,0.29159 -0.29159,0.29159c-0.0311,0 -0.06107,-0.00487 -0.08918,-0.01389l0,-0.5554c0.02811,-0.00902 0.05808,-0.01389 0.08918,-0.01389zM1.22376,1.99303c0,-0.15943 0.12924,-0.28867 0.28867,-0.28867c0.15943,0 0.28867,0.12924 0.28867,0.28867c0,0.15943 -0.12924,0.28867 -0.28867,0.28867c-0.15943,0 -0.28867,-0.12924 -0.28867,-0.28867zM1.77826,0.08812c0,-0.03128 0.0064,-0.06107 0.01795,-0.08812l0.41316,0c0.01156,0.02706 0.01795,0.05684 0.01795,0.08812c0,0.12401 -0.10053,0.22454 -0.22454,0.22454c-0.12401,0 -0.22454,-0.10053 -0.22454,-0.22454zM2.64621,0.05589c0,-0.01936 0.00263,-0.0381 0.00755,-0.05589h0.34624v0.20727c-0.03757,0.03587 -0.08846,0.0579 -0.14451,0.0579c-0.11558,0 -0.20928,-0.0937 -0.20928,-0.20928zM0.2173,0.00978c0,0.10559 -0.0856,0.19118 -0.19118,0.19118c-0.00886,0 -0.01758,-0.0006 -0.02612,-0.00177v-0.19919l0.21706,0c0.00016,0.00324 0.00025,0.0065 0.00025,0.00978zM0.39873,1.0221c0,-0.06518 0.05284,-0.11801 0.11801,-0.11801c0.06518,0 0.11801,0.05284 0.11801,0.11801c0,0.06518 -0.05284,0.11801 -0.11801,0.11801c-0.06518,0 -0.11801,-0.05284 -0.11801,-0.11801zM2.8797,1.98671c0,-0.0555 0.04499,-0.10048 0.10048,-0.10048c0.00678,0 0.01341,0.00067 0.01982,0.00195v0.19706c-0.00641,0.00128 -0.01303,0.00195 -0.01982,0.00195c-0.0555,0 -0.10048,-0.04499 -0.10048,-0.10048zM1.44403,0.72786c0,-0.05278 0.04278,-0.09556 0.09556,-0.09556c0.05278,0 0.09556,0.04278 0.09556,0.09556c0,0.05278 -0.04278,0.09556 -0.09556,0.09556c-0.05278,0 -0.09556,-0.04278 -0.09556,-0.09556zM1.92172,1.96868c0,-0.05173 0.04193,-0.09366 0.09366,-0.09366c0.05173,0 0.09366,0.04193 0.09366,0.09366c0,0.05173 -0.04193,0.09366 -0.09366,0.09366c-0.05173,0 -0.09366,-0.04193 -0.09366,-0.09366zM1.69427,0.41223c0,-0.03826 0.03102,-0.06928 0.06928,-0.06928c0.03826,0 0.06928,0.03102 0.06928,0.06928c0,0.03826 -0.03102,0.06928 -0.06928,0.06928c-0.03826,0 -0.06928,-0.03102 -0.06928,-0.06928zM0.71321,0.89445c0,-0.03639 0.0295,-0.06588 0.06588,-0.06588c0.03639,0 0.06588,0.0295 0.06588,0.06588c0,0.03639 -0.0295,0.06588 -0.06588,0.06588c-0.03639,0 -0.06588,-0.0295 -0.06588,-0.06588zM1.07754,1.80337c0,-0.02362 0.01915,-0.04277 0.04277,-0.04277c0.02362,0 0.04277,0.01915 0.04277,0.04277c0,0.02362 -0.01915,0.04277 -0.04277,0.04277c-0.02362,0 -0.04277,-0.01915 -0.04277,-0.04277zM1.84591,1.75784c0,-0.02179 0.01767,-0.03946 0.03946,-0.03946c0.02179,0 0.03946,0.01767 0.03946,0.03946c0,0.02179 -0.01767,0.03946 -0.03946,0.03946c-0.02179,0 -0.03946,-0.01767 -0.03946,-0.03946zM2.52349,1.98162c0,-0.02179 0.01767,-0.03946 0.03946,-0.03946c0.02179,0 0.03946,0.01767 0.03946,0.03946c0,0.02179 -0.01767,0.03946 -0.03946,0.03946c-0.02179,0 -0.03946,-0.01767 -0.03946,-0.03946zM1.6255,1.55982c0,-0.01971 0.01598,-0.03569 0.03569,-0.03569c0.01971,0 0.03569,0.01598 0.03569,0.03569c0,0.01971 -0.01598,0.03569 -0.03569,0.03569c-0.01971,0 -0.03569,-0.01598 -0.03569,-0.03569zM2.43984,0.08229c0,-0.01971 0.01598,-0.03569 0.03569,-0.03569c0.01971,0 0.03569,0.01598 0.03569,0.03569c0,0.01971 -0.01598,0.03569 -0.03569,0.03569c-0.01971,0 -0.03569,-0.01598 -0.03569,-0.03569zM2.29676,1.99133c0,-0.01837 0.01489,-0.03326 0.03326,-0.03326c0.01837,0 0.03326,0.01489 0.03326,0.03326c0,0.01837 -0.01489,0.03326 -0.03326,0.03326c-0.01837,0 -0.03326,-0.01489 -0.03326,-0.03326zM2.33544,0.21591c0,-0.01712 0.01388,-0.031 0.031,-0.031c0.01712,0 0.031,0.01388 0.031,0.031c0,0.01712 -0.01388,0.031 -0.031,0.031c-0.01712,0 -0.031,-0.01388 -0.031,-0.031zM2.99173,0.35781c0,-0.00752 0.00318,-0.01431 0.00827,-0.01907v0.03815c-0.00509,-0.00477 -0.00827,-0.01155 -0.00827,-0.01907z" fill="#d3d3d3" fill-rule="evenodd" stroke="#ff0000" stroke-width="0.005"></path></g></svg>