<svg version="1.1" xmlns="http://www.w3.org/2000/svg" xmlns:xlink="http://www.w3.org/1999/xlink" width="3in" height="3.75in" viewBox="0 0 3.05 3.8"><g fill="none" fill-rule="none" stroke="none" stroke-width="none" stroke-linecap="butt" stroke-linejoin="miter" stroke-miterlimit="10" stroke-dasharray="" stroke-dashoffset="0" font-family="none" font-weight="none" font-size="none" text-anchor="none" style="mix-blend-mode: normal"><path d="M0,3v-3h3v3z" fill="none" fill-rule="nonzero" stroke="none" stroke-width="1"></path><path d="M0,3v-3h3v3z" fill="none" fill-rule="nonzero" stroke="none" stroke-width="1"></path><path d="M0.63786,-0.1875l0.48714,-0.1875l0.48714,0.1875v0.375l-0.48714,0.1875l-0.48714,-0.1875zM1.76286,-0.1875l0.48714,-0.1875l0.48714,0.1875v0.375l-0.48714,0.1875l-0.48714,-0.1875zM0.07536,0.5625l0.48714,-0.1875l0.48714,0.1875v0.375l-0.48714,0.1875l-0.48714,-0.1875zM1.20036,0.5625l0.48714,-0.1875l0.48714,0.1875v0.375l-0.48714,0.1875l-0.48714,-0.1875zM0.63786,1.3125l0.48714,-0.1875l0.48714,0.1875v0.375l-0.48714,0.1875l-0.48714,-0.1875zM1.76286,1.3125l0.48714,-0.1875l0.48714,0.1875v0.375l-0.48714,0.1875l-0.48714,-0.1875zM0.07536,2.0625l0.48714,-0.1875l0.48714,0.1875v0.375l-0.48714,0.1875l-0.48714,-0.1875zM1.20036,2.0625l0.48714,-0.1875l0.48714,0.1875v0.375l-0.48714,0.1875l-0.48714,-0.1875zM0.63786,2.8125l0.48714,-0.1875l0.48714,0.1875v0.375l-0.48714,0.1875l-0.48714,-0.1875zM1.76286,2.8125l0.48714,-0.1875l0.48714,0.1875v0.375l-0.48714,0.1875l-0.48714,-0.1875z" fill="#d3d3d3" fill-rule="evenodd" stroke="#ff0000" stroke-width="0.005"></path></g></svg>