<svg version="1.1" xmlns="http://www.w3.org/2000/svg" xmlns:xlink="http://www.w3.org/1999/xlink" width="3in" height="3.0000000000000018in" viewBox="0 0 3.05 3.0500000000000016"><g fill="none" fill-rule="none" stroke="none" stroke-width="none" stroke-linecap="butt" stroke-linejoin="miter" stroke-miterlimit="10" stroke-dasharray="" stroke-dashoffset="0" font-family="none" font-weight="none" font-size="none" text-anchor="none" style="mix-blend-mode: normal"><path d="M0,3v-3h3v3z" fill="none" fill-rule="nonzero" stroke="none" stroke-width="1"></path><path d="M0,3v-3h3v3z" fill="none" fill-rule="nonzero" stroke="none" stroke-width="1"></path><path d="M0,3v-3h3v3z" fill="none" fill-rule="nonzero" stroke="none" stroke-width="1"></path><path d="M1.32743,1.60041l-1.32743,1.31337v-0.94051zM0.28176,2.92069l0,0.07931l-0.22672,0l0.82625,-0.8175zM0.911,1.61351l-0.911,0.25589v-0.15811zM1.46254,1.62799l0.01583,0.15843v1.21359l-1.10076,0zM0.00714,0.07088l1.33032,1.33669l-1.33746,-0.33636v-1.07121l0.00714,0zM1.1656,1.46746l-1.1656,0.06109v-0.35423zM0.23339,0.0775l0.43987,0.52092l-0.59557,-0.59842l0.1557,0zM0.81251,0.12l0.48951,1.06803l-1.00319,-1.18804l0.51368,0zM1.15594,0.22365l0.18627,0.81207l-0.4747,-1.03572l0.28843,0zM1.2672,0.2614l-0.05996,-0.2614l0.05996,0zM1.35014,0.2084l-0.03234,-0.2084l0.03234,0zM1.47837,0.7805l-0.07798,-0.7805l0.07798,0zM1.69808,1.28223l0.75791,-1.1892l0,-0.09303h0.54401v0.26756zM2.26683,0.96575l0.73317,-0.57141v0.11686zM2.0975,0.13512l0,-0.13512l0.07255,0l-0.10611,0.21936zM1.91719,0.75237l0.3084,-0.63755l0,-0.11482l0.17111,0zM1.51106,1.13114v-1.13114l0.18939,0zM1.98843,0.13868v-0.13868l0.05524,0zM1.75116,0.30278l0,-0.30278l0.18469,0l-0.27583,0.8471zM1.51106,1.73669l0.02044,-0.12207l1.17239,1.38537l-1.19283,0zM2.7694,2.95202l0.04419,0.04798l-0.04419,0zM2.88156,2.92988l0.07125,0.07012l-0.07125,0zM1.74151,1.4091l1.25849,-0.78024v0.5707zM1.95869,1.47431l1.04131,-0.17338v0.22874zM2.17302,2.05763l0.82698,0.60891v0.1602zM1.66419,1.5588l1.33581,0.07101v0.91255z" fill="#d3d3d3" fill-rule="evenodd" stroke="#ff0000" stroke-width="0.005"></path></g></svg>