<svg version="1.1" xmlns="http://www.w3.org/2000/svg" xmlns:xlink="http://www.w3.org/1999/xlink" width="3in" height="3.000000000000001in" viewBox="0 0 3.05 3.0500000000000007"><g fill="none" fill-rule="none" stroke="none" stroke-width="none" stroke-linecap="butt" stroke-linejoin="miter" stroke-miterlimit="10" stroke-dasharray="" stroke-dashoffset="0" font-family="none" font-weight="none" font-size="none" text-anchor="none" style="mix-blend-mode: normal"><path d="M0,3v-3h3v3z" fill="none" fill-rule="nonzero" stroke="none" stroke-width="1"></path><path d="M0,3v-3h3v3z" fill="none" fill-rule="nonzero" stroke="none" stroke-width="1"></path><path d="M2.625,2.9745c0.01021,0.00886 0.02056,0.01736 0.03107,0.0255h-0.06213c0.0105,-0.00814 0.02086,-0.01665 0.03107,-0.0255zM1.875,2.9745c0.01021,0.00886 0.02056,0.01736 0.03107,0.0255h-0.06213c0.0105,-0.00814 0.02086,-0.01665 0.03107,-0.0255zM1.125,2.9745c0.01021,0.00886 0.02056,0.01736 0.03107,0.0255h-0.06213c0.0105,-0.00814 0.02086,-0.01665 0.03107,-0.0255zM0.375,2.9745c0.01021,0.00886 0.02056,0.01736 0.03107,0.0255h-0.06213c0.0105,-0.00814 0.02086,-0.01665 0.03107,-0.0255zM2.89845,2.56563c0.03955,0.13265 0.06155,0.27966 0.06155,0.43437h-0.20481c-0.03155,-0.01738 -0.06205,-0.03803 -0.09131,-0.06166c0.09597,-0.09543 0.17644,-0.2231 0.23457,-0.37271zM2.94685,2.58324c0.01747,0.00735 0.03519,0.01378 0.05315,0.01925v0.3975c0,-0.14724 -0.01886,-0.28787 -0.05315,-0.41676zM2.86237,2.5393c-0.05829,0.1486 -0.13994,0.27412 -0.23737,0.3652c-0.06683,-0.06248 -0.12624,-0.14116 -0.17577,-0.23238c-0.00176,-0.01624 -0.00327,-0.03261 -0.00454,-0.04909c0.11984,-0.01056 0.23211,-0.06333 0.33031,-0.14854c0.02803,0.02432 0.0572,0.046 0.08737,0.0648zM2.14845,2.56563c0.03955,0.13265 0.06155,0.27966 0.06155,0.43437h-0.20481c-0.03155,-0.01738 -0.06205,-0.03803 -0.09131,-0.06166c0.09597,-0.09543 0.17644,-0.2231 0.23457,-0.37271zM2.19685,2.58324c0.03199,0.01347 0.06486,0.02384 0.09843,0.03088c-0.0293,0.12035 -0.04528,0.25032 -0.04528,0.38588c0,-0.14724 -0.01886,-0.28787 -0.05315,-0.41676zM2.29049,2.96016c0.00292,-0.11909 0.01887,-0.23318 0.04579,-0.33916c0.00632,0.0008 0.01267,0.00148 0.01904,0.00204c-0.00917,0.11951 -0.03152,0.23301 -0.06483,0.33712zM2.5182,2.98639c-0.02118,-0.06177 -0.03845,-0.12705 -0.05132,-0.1951c0.03621,0.05489 0.07616,0.10421 0.11923,0.14704c-0.02197,0.01774 -0.04463,0.0338 -0.06791,0.04806zM2.41152,2.69752c0.01261,0.10679 0.03526,0.20837 0.06644,0.30248h-0.15592c0.03482,-0.10511 0.05901,-0.21955 0.07045,-0.34015c0.00617,0.01276 0.01252,0.02533 0.01903,0.03768zM2.11237,2.5393c-0.05829,0.1486 -0.13994,0.27412 -0.23737,0.3652c-0.06683,-0.06248 -0.12624,-0.14116 -0.17577,-0.23238c-0.00176,-0.01624 -0.00327,-0.03261 -0.00454,-0.04909c0.11984,-0.01056 0.23211,-0.06333 0.33031,-0.14854c0.02803,0.02432 0.0572,0.046 0.08737,0.0648zM1.39845,2.56563c0.03955,0.13265 0.06155,0.27966 0.06155,0.43437h-0.20481c-0.03155,-0.01738 -0.06205,-0.03803 -0.09131,-0.06166c0.09597,-0.09543 0.17644,-0.2231 0.23457,-0.37271zM1.44685,2.58324c0.03199,0.01347 0.06486,0.02384 0.09843,0.03088c-0.0293,0.12035 -0.04528,0.25032 -0.04528,0.38588c0,-0.14724 -0.01886,-0.28787 -0.05315,-0.41676zM1.54049,2.96016c0.00292,-0.11909 0.01887,-0.23318 0.04579,-0.33916c0.00632,0.0008 0.01267,0.00148 0.01904,0.00204c-0.00917,0.11951 -0.03152,0.23301 -0.06483,0.33712zM1.7682,2.98639c-0.02118,-0.06177 -0.03845,-0.12705 -0.05132,-0.1951c0.03621,0.05489 0.07616,0.10421 0.11923,0.14704c-0.02197,0.01774 -0.04463,0.0338 -0.06791,0.04806zM1.66152,2.69752c0.01261,0.10679 0.03526,0.20837 0.06644,0.30248h-0.15592c0.03482,-0.10511 0.05901,-0.21955 0.07045,-0.34015c0.00617,0.01276 0.01252,0.02533 0.01903,0.03768zM1.36237,2.5393c-0.05829,0.1486 -0.13994,0.27412 -0.23737,0.3652c-0.06683,-0.06248 -0.12624,-0.14116 -0.17577,-0.23238c-0.00176,-0.01624 -0.00327,-0.03261 -0.00454,-0.04909c0.11984,-0.01056 0.23211,-0.06333 0.33031,-0.14854c0.02803,0.02432 0.0572,0.046 0.08737,0.0648zM0.64845,2.56563c0.03955,0.13265 0.06155,0.27966 0.06155,0.43437h-0.20481c-0.03155,-0.01738 -0.06205,-0.03803 -0.09131,-0.06166c0.09597,-0.09543 0.17644,-0.2231 0.23457,-0.37271zM0.69685,2.58324c0.03199,0.01347 0.06486,0.02384 0.09843,0.03088c-0.0293,0.12035 -0.04528,0.25032 -0.04528,0.38588c0,-0.14724 -0.01886,-0.28787 -0.05315,-0.41676zM0.79049,2.96016c0.00292,-0.11909 0.01887,-0.23318 0.04579,-0.33916c0.00632,0.0008 0.01267,0.00148 0.01904,0.00204c-0.00917,0.11951 -0.03152,0.23301 -0.06483,0.33712zM1.0182,2.98639c-0.02118,-0.06177 -0.03845,-0.12705 -0.05132,-0.1951c0.03621,0.05489 0.07616,0.10421 0.11923,0.14704c-0.02197,0.01774 -0.04463,0.0338 -0.06791,0.04806zM0.91152,2.69752c0.01261,0.10679 0.03526,0.20837 0.06644,0.30248l-0.15592,0c0.03482,-0.10511 0.05901,-0.21955 0.07045,-0.34015c0.00617,0.01276 0.01252,0.02533 0.01903,0.03768zM0.61237,2.5393c-0.05829,0.1486 -0.13994,0.27412 -0.23737,0.3652c-0.06683,-0.06248 -0.12624,-0.14116 -0.17577,-0.23238c-0.00176,-0.01624 -0.00327,-0.03261 -0.00454,-0.04909c0.11984,-0.01056 0.23211,-0.06333 0.33031,-0.14854c0.02803,0.02432 0.0572,0.046 0.08737,0.0648zM0.04528,2.61412c-0.0293,0.12035 -0.04528,0.25032 -0.04528,0.38588v-0.3975c0.01494,0.00455 0.03004,0.00843 0.04528,0.01163zM0.08628,2.621c0.01316,0.00166 0.02642,0.00281 0.03977,0.00344c0.01118,0.02509 0.02302,0.04947 0.03548,0.07309c0.01261,0.10679 0.03526,0.20837 0.06644,0.30248h-0.18796c0,-0.1335 0.01637,-0.26125 0.04628,-0.379zM0.2682,2.98639c-0.02118,-0.06177 -0.03845,-0.12705 -0.05132,-0.1951c0.03621,0.05489 0.07616,0.10421 0.11923,0.14704c-0.02197,0.01774 -0.04463,0.0338 -0.06791,0.04806zM2.92553,2.51068c-0.00115,-0.00357 -0.00232,-0.00713 -0.00349,-0.01068c0.03118,-0.09411 0.05383,-0.19569 0.06644,-0.30248c0.0039,-0.0074 0.00774,-0.01487 0.01152,-0.02241v0.36608c-0.02535,-0.00818 -0.0502,-0.01839 -0.07447,-0.03051zM2.84114,2.40991c0.0099,0.02227 0.01926,0.04513 0.02804,0.06854c-0.01887,-0.0122 -0.03732,-0.02559 -0.0553,-0.04012c0.00923,-0.00918 0.01832,-0.01866 0.02726,-0.02843zM2.89845,2.43437c-0.00809,-0.02082 -0.01661,-0.04121 -0.02555,-0.06116c0.02105,-0.02568 0.04114,-0.05303 0.06021,-0.08192c-0.00931,0.04924 -0.02093,0.09702 -0.03466,0.14308zM2.65607,2c-0.0105,0.00814 -0.02086,0.01665 -0.03107,0.0255c-0.01021,-0.00886 -0.02056,-0.01736 -0.03107,-0.0255c0.0105,-0.00814 0.02086,-0.01665 0.03107,-0.0255c0.01021,0.00886 0.02056,0.01736 0.03107,0.0255zM2.66388,2.06166c0.01257,-0.01016 0.02538,-0.01976 0.03839,-0.02879c0.07832,0.05087 0.16357,0.08228 0.25304,0.09016c-0.00126,0.01648 -0.00278,0.03285 -0.00454,0.04909c-0.03022,0.05564 -0.0641,0.10662 -0.10111,0.1521c-0.05145,-0.10256 -0.11432,-0.1915 -0.18578,-0.26256zM2.54772,2.03287c0.01301,0.00903 0.02582,0.01863 0.03839,0.02879c-0.00923,0.00918 -0.01832,0.01866 -0.02726,0.02843c-0.00738,-0.01661 -0.01446,-0.03354 -0.02123,-0.05079c0.00338,-0.00211 0.00674,-0.00425 0.01009,-0.00642zM2.58198,2.13906c0.01396,-0.01528 0.02831,-0.02982 0.04302,-0.04357c0.07478,0.06991 0.14026,0.1601 0.19302,0.26544c-0.01396,0.01528 -0.02831,0.02982 -0.04302,0.04357c-0.07478,-0.06991 -0.14026,-0.1601 -0.19302,-0.26544zM2.25751,2.15985c0.01144,0.1206 0.03562,0.23504 0.07045,0.34015c-0.00616,0.01859 -0.01198,0.03747 -0.01746,0.05662c-0.04654,-0.00878 -0.09168,-0.02432 -0.13496,-0.04594c-0.00115,-0.00357 -0.00232,-0.00713 -0.00349,-0.01068c0.03118,-0.09411 0.05383,-0.19569 0.06644,-0.30248c0.00652,-0.01235 0.01286,-0.02491 0.01903,-0.03768zM2.39877,2.565c0.00082,-0.02151 0.00123,-0.04318 0.00123,-0.065c0,0.02182 0.00041,0.04349 0.00123,0.065c-0.00041,0 -0.00082,0 -0.00123,0c-0.00041,0 -0.00082,0 -0.00123,0zM2.4,2.5c0,-0.02236 -0.00043,-0.04456 -0.00129,-0.06659c0.00095,-0.00226 0.0019,-0.00451 0.00286,-0.00676c-0.00104,0.02425 -0.00157,0.04871 -0.00157,0.07336c0,0 0,0 0,0c0,0 0,0 0,0zM2.41152,2.30248c-0.00652,0.01235 -0.01286,0.02491 -0.01903,0.03768c-0.00742,-0.07822 -0.0202,-0.15386 -0.03777,-0.22603c0.03357,-0.00704 0.06643,-0.0174 0.09843,-0.03088c-0.0186,0.0699 -0.03265,0.14325 -0.04162,0.21923zM2.44123,2.56323c-0.00082,-0.02092 -0.00123,-0.04201 -0.00123,-0.06323c0,-0.0586 0.00316,-0.1161 0.00923,-0.17213c0.03022,-0.05564 0.0641,-0.10662 0.10111,-0.1521c0.05145,0.10256 0.11432,0.1915 0.18578,0.26256c-0.08867,0.07161 -0.18865,0.11577 -0.29488,0.1249zM2.52709,2.12678c-0.02105,0.02568 -0.04114,0.05303 -0.06021,0.08192c0.00931,-0.04924 0.02093,-0.09702 0.03466,-0.14308c0.00809,0.02082 0.01661,0.04121 0.02555,0.06116zM2.31372,2.121c0.02374,0.09348 0.03895,0.19327 0.04421,0.29724c-0.00216,0.00535 -0.00429,0.01073 -0.00639,0.01614c-0.02891,-0.09697 -0.04845,-0.20162 -0.05686,-0.31134c0.00637,-0.00056 0.01271,-0.00124 0.01904,-0.00204zM2.09114,2.40991c0.0099,0.02227 0.01926,0.04513 0.02804,0.06854c-0.01887,-0.0122 -0.03732,-0.02559 -0.0553,-0.04012c0.00923,-0.00918 0.01832,-0.01866 0.02726,-0.02843zM2.14845,2.43437c-0.00809,-0.02082 -0.01661,-0.04121 -0.02555,-0.06116c0.02105,-0.02568 0.04114,-0.05303 0.06021,-0.08192c-0.00931,0.04924 -0.02093,0.09702 -0.03466,0.14308zM1.90607,2c-0.0105,0.00814 -0.02086,0.01665 -0.03107,0.0255c-0.01021,-0.00886 -0.02056,-0.01736 -0.03107,-0.0255c0.0105,-0.00814 0.02086,-0.01665 0.03107,-0.0255c0.01021,0.00886 0.02056,0.01736 0.03107,0.0255zM1.91388,2.06166c0.01257,-0.01016 0.02538,-0.01976 0.03839,-0.02879c0.07832,0.05087 0.16357,0.08228 0.25304,0.09016c-0.00126,0.01648 -0.00278,0.03285 -0.00454,0.04909c-0.03022,0.05564 -0.0641,0.10662 -0.10111,0.1521c-0.05145,-0.10256 -0.11432,-0.1915 -0.18578,-0.26256zM1.79772,2.03287c0.01301,0.00903 0.02582,0.01863 0.03839,0.02879c-0.00923,0.00918 -0.01832,0.01866 -0.02726,0.02843c-0.00738,-0.01661 -0.01446,-0.03354 -0.02123,-0.05079c0.00338,-0.00211 0.00674,-0.00425 0.01009,-0.00642zM1.83198,2.13906c0.01396,-0.01528 0.02831,-0.02982 0.04302,-0.04357c0.07478,0.06991 0.14026,0.1601 0.19302,0.26544c-0.01396,0.01528 -0.02831,0.02982 -0.04302,0.04357c-0.07478,-0.06991 -0.14026,-0.1601 -0.19302,-0.26544zM1.50751,2.15985c0.01144,0.1206 0.03562,0.23504 0.07045,0.34015c-0.00616,0.01859 -0.01198,0.03747 -0.01746,0.05662c-0.04654,-0.00878 -0.09168,-0.02432 -0.13496,-0.04594c-0.00115,-0.00357 -0.00232,-0.00713 -0.00349,-0.01068c0.03118,-0.09411 0.05383,-0.19569 0.06644,-0.30248c0.00652,-0.01235 0.01286,-0.02491 0.01903,-0.03768zM1.64877,2.565c0.00082,-0.02151 0.00123,-0.04318 0.00123,-0.065c0,-0.02236 -0.00043,-0.04456 -0.00129,-0.06659c0.00095,-0.00226 0.0019,-0.00451 0.00286,-0.00676c-0.00104,0.02425 -0.00157,0.04871 -0.00157,0.07336c0,0.02182 0.00041,0.04349 0.00123,0.065c-0.00041,0 -0.00082,0 -0.00123,0c-0.00041,0 -0.00082,0 -0.00123,0zM1.66152,2.30248c-0.00652,0.01235 -0.01286,0.02491 -0.01903,0.03768c-0.00742,-0.07822 -0.0202,-0.15386 -0.03777,-0.22603c0.03357,-0.00704 0.06643,-0.0174 0.09843,-0.03088c-0.0186,0.0699 -0.03265,0.14325 -0.04162,0.21923zM1.69123,2.56323c-0.00082,-0.02092 -0.00123,-0.04201 -0.00123,-0.06323c0,-0.0586 0.00316,-0.1161 0.00923,-0.17213c0.03022,-0.05564 0.0641,-0.10662 0.10111,-0.1521c0.05145,0.10256 0.11432,0.1915 0.18578,0.26256c-0.08867,0.07161 -0.18865,0.11577 -0.29488,0.1249zM1.77709,2.12678c-0.02105,0.02568 -0.04114,0.05303 -0.06021,0.08192c0.00931,-0.04924 0.02093,-0.09702 0.03466,-0.14308c0.00809,0.02082 0.01661,0.04121 0.02555,0.06116zM1.56372,2.121c0.02374,0.09348 0.03895,0.19327 0.04421,0.29724c-0.00216,0.00535 -0.00429,0.01073 -0.00639,0.01614c-0.02891,-0.09697 -0.04845,-0.20162 -0.05686,-0.31134c0.00637,-0.00056 0.01271,-0.00124 0.01904,-0.00204zM1.34114,2.40991c0.0099,0.02227 0.01926,0.04513 0.02804,0.06854c-0.01887,-0.0122 -0.03732,-0.02559 -0.0553,-0.04012c0.00923,-0.00918 0.01832,-0.01866 0.02726,-0.02843zM1.39845,2.43437c-0.00809,-0.02082 -0.01661,-0.04121 -0.02555,-0.06116c0.02105,-0.02568 0.04114,-0.05303 0.06021,-0.08192c-0.00931,0.04924 -0.02093,0.09702 -0.03466,0.14308zM1.15607,2c-0.0105,0.00814 -0.02086,0.01665 -0.03107,0.0255c-0.01021,-0.00886 -0.02056,-0.01736 -0.03107,-0.0255c0.0105,-0.00814 0.02086,-0.01665 0.03107,-0.0255c0.01021,0.00886 0.02056,0.01736 0.03107,0.0255zM1.16388,2.06166c0.01257,-0.01016 0.02538,-0.01976 0.03839,-0.02879c0.07832,0.05087 0.16357,0.08228 0.25304,0.09016c-0.00126,0.01648 -0.00278,0.03285 -0.00454,0.04909c-0.03022,0.05564 -0.0641,0.10662 -0.10111,0.1521c-0.05145,-0.10256 -0.11432,-0.1915 -0.18578,-0.26256zM1.04772,2.03287c0.01301,0.00903 0.02582,0.01863 0.03839,0.02879c-0.00923,0.00918 -0.01832,0.01866 -0.02726,0.02843c-0.00738,-0.01661 -0.01446,-0.03354 -0.02123,-0.05079c0.00338,-0.00211 0.00674,-0.00425 0.01009,-0.00642zM1.08198,2.13906c0.01396,-0.01528 0.02831,-0.02982 0.04302,-0.04357c0.07478,0.06991 0.14026,0.1601 0.19302,0.26544c-0.01396,0.01528 -0.02831,0.02982 -0.04302,0.04357c-0.07478,-0.06991 -0.14026,-0.1601 -0.19302,-0.26544zM0.75751,2.15985c0.01144,0.1206 0.03562,0.23504 0.07045,0.34015c-0.00616,0.01859 -0.01198,0.03747 -0.01746,0.05662c-0.04654,-0.00878 -0.09168,-0.02432 -0.13496,-0.04594c-0.00115,-0.00357 -0.00232,-0.00713 -0.00349,-0.01068c0.03118,-0.09411 0.05383,-0.19569 0.06644,-0.30248c0.00652,-0.01235 0.01286,-0.02491 0.01903,-0.03768zM0.89877,2.565c0.00082,-0.02151 0.00123,-0.04318 0.00123,-0.065c0,-0.02236 -0.00043,-0.04456 -0.00129,-0.06659c0.00095,-0.00226 0.0019,-0.00451 0.00286,-0.00676c-0.00104,0.02425 -0.00157,0.04871 -0.00157,0.07336c0,0.02182 0.00041,0.04349 0.00123,0.065c-0.00041,0 -0.00082,0 -0.00123,0c-0.00041,0 -0.00082,0 -0.00123,0zM0.91152,2.30248c-0.00652,0.01235 -0.01286,0.02491 -0.01903,0.03768c-0.00742,-0.07822 -0.0202,-0.15386 -0.03777,-0.22603c0.03357,-0.00704 0.06643,-0.0174 0.09843,-0.03088c-0.0186,0.0699 -0.03265,0.14325 -0.04162,0.21923zM0.94123,2.56323c-0.00082,-0.02092 -0.00123,-0.04201 -0.00123,-0.06323c0,-0.0586 0.00316,-0.1161 0.00923,-0.17213c0.03022,-0.05564 0.0641,-0.10662 0.10111,-0.1521c0.05145,0.10256 0.11432,0.1915 0.18578,0.26256c-0.08867,0.07161 -0.18865,0.11577 -0.29488,0.1249zM1.02709,2.12678c-0.02105,0.02568 -0.04114,0.05303 -0.06021,0.08192c0.00931,-0.04924 0.02093,-0.09702 0.03466,-0.14308c0.00809,0.02082 0.01661,0.04121 0.02555,0.06116zM0.81372,2.121c0.02374,0.09348 0.03895,0.19327 0.04421,0.29724c-0.00216,0.00535 -0.00429,0.01073 -0.00639,0.01614c-0.02891,-0.09697 -0.04845,-0.20162 -0.05686,-0.31134c0.00637,-0.00056 0.01271,-0.00124 0.01904,-0.00204zM0.59114,2.40991c0.0099,0.02227 0.01926,0.04513 0.02804,0.06854c-0.01887,-0.0122 -0.03732,-0.02559 -0.0553,-0.04012c0.00923,-0.00918 0.01832,-0.01866 0.02726,-0.02843zM0.64845,2.43437c-0.00809,-0.02082 -0.01661,-0.04121 -0.02555,-0.06116c0.02105,-0.02568 0.04114,-0.05303 0.06021,-0.08192c-0.00931,0.04924 -0.02093,0.09702 -0.03466,0.14308zM0.40607,2c-0.0105,0.00814 -0.02086,0.01665 -0.03107,0.0255c-0.01021,-0.00886 -0.02056,-0.01736 -0.03107,-0.0255c0.0105,-0.00814 0.02086,-0.01665 0.03107,-0.0255c0.01021,0.00886 0.02056,0.01736 0.03107,0.0255zM0.41388,2.06166c0.01257,-0.01016 0.02538,-0.01976 0.03839,-0.02879c0.07832,0.05087 0.16357,0.08228 0.25304,0.09016c-0.00126,0.01648 -0.00278,0.03285 -0.00454,0.04909c-0.03022,0.05564 -0.0641,0.10662 -0.10111,0.1521c-0.05145,-0.10256 -0.11432,-0.1915 -0.18578,-0.26256zM0.29772,2.03287c0.01301,0.00903 0.02582,0.01863 0.03839,0.02879c-0.00923,0.00918 -0.01832,0.01866 -0.02726,0.02843c-0.00738,-0.01661 -0.01446,-0.03354 -0.02123,-0.05079c0.00338,-0.00211 0.00674,-0.00425 0.01009,-0.00642zM0.33198,2.13906c0.01396,-0.01528 0.02831,-0.02982 0.04302,-0.04357c0.07478,0.06991 0.14026,0.1601 0.19302,0.26544c-0.01396,0.01528 -0.02831,0.02982 -0.04302,0.04357c-0.07478,-0.06991 -0.14026,-0.1601 -0.19302,-0.26544zM0.00458,2.12498c0.00983,0.13343 0.03522,0.25983 0.07338,0.37502c-0.00616,0.01859 -0.01198,0.03747 -0.01746,0.05662c-0.02045,-0.00386 -0.04063,-0.00902 -0.0605,-0.01543v-0.41619c0.00153,0 0.00305,-0.00001 0.00458,-0.00002zM0.14804,2.565c-0.00885,-0.02118 -0.01722,-0.04285 -0.02509,-0.065c0.0089,-0.02507 0.01845,-0.04953 0.02862,-0.07336c-0.00104,0.02425 -0.00157,0.04871 -0.00157,0.07336c0,0.02182 0.00041,0.04349 0.00123,0.065c-0.00041,0 -0.00082,0 -0.00123,0c-0.00065,0 -0.00131,0 -0.00196,0zM0.16152,2.30248c-0.02198,0.04168 -0.04204,0.08574 -0.05998,0.1319c-0.02891,-0.09697 -0.04845,-0.20162 -0.05686,-0.31134c0.05459,-0.00481 0.10762,-0.01838 0.15846,-0.03979c-0.0186,0.0699 -0.03265,0.14325 -0.04162,0.21923zM0.19123,2.56323c-0.00082,-0.02092 -0.00123,-0.04201 -0.00123,-0.06323c0,-0.0586 0.00316,-0.1161 0.00923,-0.17213c0.03022,-0.05564 0.0641,-0.10662 0.10111,-0.1521c0.05145,0.10256 0.11432,0.1915 0.18578,0.26256c-0.08867,0.07161 -0.18865,0.11577 -0.29488,0.1249zM0.27709,2.12678c-0.02105,0.02568 -0.04114,0.05303 -0.06021,0.08192c0.00931,-0.04924 0.02093,-0.09702 0.03466,-0.14308c0.00809,0.02082 0.01661,0.04121 0.02555,0.06116zM2.84967,1.67578c0.03701,0.04548 0.07089,0.09646 0.10111,0.1521c0.00176,0.01624 0.00327,0.03261 0.00454,0.04909c-0.08946,0.00789 -0.17471,0.03929 -0.25304,0.09016c-0.01301,-0.00903 -0.02582,-0.01863 -0.03839,-0.02879c0.07146,-0.07106 0.13433,-0.16 0.18578,-0.26256zM2.75519,2c0.06404,-0.03528 0.1324,-0.05712 0.20357,-0.06323c0.00082,0.02092 0.00123,0.04201 0.00123,0.06323c0,0.02123 -0.00041,0.04231 -0.00123,0.06323c-0.07117,-0.00611 -0.13954,-0.02795 -0.20357,-0.06323zM2.93312,1.7087c-0.01906,-0.02889 -0.03916,-0.05625 -0.06021,-0.08192c0.00894,-0.01994 0.01746,-0.04034 0.02555,-0.06116c0.01373,0.04606 0.02535,0.09384 0.03466,0.14308zM2.99877,2.065c0.00082,-0.02151 0.00123,-0.04318 0.00123,-0.065c0,-0.02182 -0.00041,-0.04349 -0.00123,-0.065c0.00041,0 0.00082,0 0.00123,0v0.13c-0.00041,0 -0.00082,0 -0.00123,0zM2.98848,1.80248c-0.00897,-0.07599 -0.02303,-0.14934 -0.04162,-0.21923c0.01747,0.00735 0.03519,0.01378 0.05315,0.01925v0.22239c-0.00378,-0.00755 -0.00762,-0.01502 -0.01152,-0.02241zM2.80607,1.5c-0.0105,0.00814 -0.02086,0.01665 -0.03107,0.0255c-0.01021,-0.00886 -0.02056,-0.01736 -0.03107,-0.0255c0.0105,-0.00814 0.02086,-0.01665 0.03107,-0.0255c0.01021,0.00886 0.02056,0.01736 0.03107,0.0255zM2.81388,1.56166c0.01257,-0.01016 0.02538,-0.01976 0.03839,-0.02879c0.00335,0.00218 0.00672,0.00432 0.01009,0.00642c-0.00677,0.01725 -0.01385,0.03418 -0.02123,0.05079c-0.00894,-0.00977 -0.01803,-0.01925 -0.02726,-0.02843zM2.69772,1.53287c0.01301,0.00903 0.02582,0.01863 0.03839,0.02879c-0.07146,0.07106 -0.13433,0.16 -0.18578,0.26256c-0.03701,-0.04548 -0.07089,-0.09646 -0.10111,-0.1521c-0.00176,-0.01624 -0.00327,-0.03261 -0.00454,-0.04909c0.08946,-0.00789 0.17471,-0.03929 0.25304,-0.09016zM2.58198,1.86094c0.05276,-0.10534 0.11824,-0.19554 0.19302,-0.26544c0.01471,0.01375 0.02906,0.02828 0.04302,0.04357c-0.05276,0.10534 -0.11824,0.19554 -0.19302,0.26544c-0.01471,-0.01375 -0.02906,-0.02828 -0.04302,-0.04357zM2.09967,1.67578c0.03701,0.04548 0.07089,0.09646 0.10111,0.1521c0.00176,0.01624 0.00327,0.03261 0.00454,0.04909c-0.08946,0.00789 -0.17471,0.03929 -0.25304,0.09016c-0.01301,-0.00903 -0.02582,-0.01863 -0.03839,-0.02879c0.07146,-0.07106 0.13433,-0.16 0.18578,-0.26256zM2.00519,2c0.06404,-0.03528 0.1324,-0.05712 0.20357,-0.06323c0.00082,0.02092 0.00123,0.04201 0.00123,0.06323c0,0.02123 -0.00041,0.04231 -0.00123,0.06323c-0.07117,-0.00611 -0.13954,-0.02795 -0.20357,-0.06323zM2.18312,1.7087c-0.01906,-0.02889 -0.03916,-0.05625 -0.06021,-0.08192c0.00894,-0.01994 0.01746,-0.04034 0.02555,-0.06116c0.01373,0.04606 0.02535,0.09384 0.03466,0.14308zM2.24877,2.065c0.00082,-0.02151 0.00123,-0.04318 0.00123,-0.065c0,-0.02182 -0.00041,-0.04349 -0.00123,-0.065c0.00041,0 0.00082,0 0.00123,0c0.00041,0 0.00082,0 0.00123,0c-0.00082,0.02151 -0.00123,0.04318 -0.00123,0.065c0,0.02182 0.00041,0.04349 0.00123,0.065c-0.00041,0 -0.00082,0 -0.00123,0c-0.00041,0 -0.00082,0 -0.00123,0zM2.25751,1.84015c-0.00617,-0.01276 -0.01252,-0.02533 -0.01903,-0.03768c-0.00897,-0.07599 -0.02303,-0.14934 -0.04162,-0.21923c0.03199,0.01347 0.06486,0.02384 0.09843,0.03088c-0.01757,0.07218 -0.03035,0.14781 -0.03777,0.22603zM2.31372,1.879c-0.00632,-0.0008 -0.01267,-0.00148 -0.01904,-0.00204c0.00684,-0.08914 0.02101,-0.17492 0.04159,-0.25597c0.00632,0.0008 0.01267,0.00148 0.01904,0.00204c-0.00684,0.08914 -0.02101,0.17492 -0.04159,0.25597zM2.54772,1.96713c-0.00335,-0.00218 -0.00672,-0.00432 -0.01009,-0.00642c0.00677,-0.01725 0.01385,-0.03418 0.02123,-0.05079c0.00894,0.00977 0.01803,0.01925 0.02726,0.02843c-0.01257,0.01016 -0.02538,0.01976 -0.03839,0.02879zM2.52709,1.87322c-0.00894,0.01994 -0.01746,0.04034 -0.02555,0.06116c-0.01373,-0.04606 -0.02535,-0.09384 -0.03466,-0.14308c0.01906,0.02889 0.03916,0.05625 0.06021,0.08192zM2.41152,1.69752c0.00897,0.07599 0.02303,0.14934 0.04162,0.21923c-0.03199,-0.01347 -0.06486,-0.02384 -0.09843,-0.03088c0.01757,-0.07218 0.03035,-0.14781 0.03777,-0.22603c0.00617,0.01276 0.01252,0.02533 0.01903,0.03768zM2.3395,1.94338c0.04654,0.00878 0.09168,0.02432 0.13496,0.04594c0.00115,0.00357 0.00232,0.00713 0.00349,0.01068c-0.00118,0.00355 -0.00234,0.00711 -0.00349,0.01068c-0.04329,0.02162 -0.08842,0.03716 -0.13496,0.04594c-0.00548,-0.01915 -0.01131,-0.03803 -0.01746,-0.05662c0.00616,-0.01859 0.01198,-0.03747 0.01746,-0.05662zM2.05607,1.5c-0.0105,0.00814 -0.02086,0.01665 -0.03107,0.0255c-0.01021,-0.00886 -0.02056,-0.01736 -0.03107,-0.0255c0.0105,-0.00814 0.02086,-0.01665 0.03107,-0.0255c0.01021,0.00886 0.02056,0.01736 0.03107,0.0255zM2.06388,1.56166c0.01257,-0.01016 0.02538,-0.01976 0.03839,-0.02879c0.00335,0.00218 0.00672,0.00432 0.01009,0.00642c-0.00677,0.01725 -0.01385,0.03418 -0.02123,0.05079c-0.00894,-0.00977 -0.01803,-0.01925 -0.02726,-0.02843zM1.94772,1.53287c0.01301,0.00903 0.02582,0.01863 0.03839,0.02879c-0.07146,0.07106 -0.13433,0.16 -0.18578,0.26256c-0.03701,-0.04548 -0.07089,-0.09646 -0.10111,-0.1521c-0.00176,-0.01624 -0.00327,-0.03261 -0.00454,-0.04909c0.08946,-0.00789 0.17471,-0.03929 0.25304,-0.09016zM1.83198,1.86094c0.05276,-0.10534 0.11824,-0.19554 0.19302,-0.26544c0.01471,0.01375 0.02906,0.02828 0.04302,0.04357c-0.05276,0.10534 -0.11824,0.19554 -0.19302,0.26544c-0.01471,-0.01375 -0.02906,-0.02828 -0.04302,-0.04357zM1.34967,1.67578c0.03701,0.04548 0.07089,0.09646 0.10111,0.1521c0.00176,0.01624 0.00327,0.03261 0.00454,0.04909c-0.08946,0.00789 -0.17471,0.03929 -0.25304,0.09016c-0.01301,-0.00903 -0.02582,-0.01863 -0.03839,-0.02879c0.07146,-0.07106 0.13433,-0.16 0.18578,-0.26256zM1.25519,2c0.06404,-0.03528 0.1324,-0.05712 0.20357,-0.06323c0.00082,0.02092 0.00123,0.04201 0.00123,0.06323c0,0.02123 -0.00041,0.04231 -0.00123,0.06323c-0.07117,-0.00611 -0.13954,-0.02795 -0.20357,-0.06323zM1.43312,1.7087c-0.01906,-0.02889 -0.03916,-0.05625 -0.06021,-0.08192c0.00894,-0.01994 0.01746,-0.04034 0.02555,-0.06116c0.01373,0.04606 0.02535,0.09384 0.03466,0.14308zM1.49877,2.065c0.00082,-0.02151 0.00123,-0.04318 0.00123,-0.065c0,-0.02182 -0.00041,-0.04349 -0.00123,-0.065c0.00041,0 0.00082,0 0.00123,0c0.00041,0 0.00082,0 0.00123,0c-0.00082,0.02151 -0.00123,0.04318 -0.00123,0.065c0,0.02182 0.00041,0.04349 0.00123,0.065c-0.00041,0 -0.00082,0 -0.00123,0c-0.00041,0 -0.00082,0 -0.00123,0zM1.50751,1.84015c-0.00617,-0.01276 -0.01252,-0.02533 -0.01903,-0.03768c-0.00897,-0.07599 -0.02303,-0.14934 -0.04162,-0.21923c0.03199,0.01347 0.06486,0.02384 0.09843,0.03088c-0.01757,0.07218 -0.03035,0.14781 -0.03777,0.22603zM1.56372,1.879c-0.00632,-0.0008 -0.01267,-0.00148 -0.01904,-0.00204c0.00684,-0.08914 0.02101,-0.17492 0.04159,-0.25597c0.00632,0.0008 0.01267,0.00148 0.01904,0.00204c-0.00684,0.08914 -0.02101,0.17492 -0.04159,0.25597zM1.79772,1.96713c-0.00335,-0.00218 -0.00672,-0.00432 -0.01009,-0.00642c0.00677,-0.01725 0.01385,-0.03418 0.02123,-0.05079c0.00894,0.00977 0.01803,0.01925 0.02726,0.02843c-0.01257,0.01016 -0.02538,0.01976 -0.03839,0.02879zM1.77709,1.87322c-0.00894,0.01994 -0.01746,0.04034 -0.02555,0.06116c-0.01373,-0.04606 -0.02535,-0.09384 -0.03466,-0.14308c0.01906,0.02889 0.03916,0.05625 0.06021,0.08192zM1.66152,1.69752c0.00897,0.07599 0.02303,0.14934 0.04162,0.21923c-0.03199,-0.01347 -0.06486,-0.02384 -0.09843,-0.03088c0.01757,-0.07218 0.03035,-0.14781 0.03777,-0.22603c0.00617,0.01276 0.01252,0.02533 0.01903,0.03768zM1.5895,1.94338c0.04654,0.00878 0.09168,0.02432 0.13496,0.04594c0.00115,0.00357 0.00232,0.00713 0.00349,0.01068c-0.00118,0.00355 -0.00234,0.00711 -0.00349,0.01068c-0.04329,0.02162 -0.08842,0.03716 -0.13496,0.04594c-0.00548,-0.01915 -0.01131,-0.03803 -0.01746,-0.05662c0.00616,-0.01859 0.01198,-0.03747 0.01746,-0.05662zM1.30607,1.5c-0.0105,0.00814 -0.02086,0.01665 -0.03107,0.0255c-0.01021,-0.00886 -0.02056,-0.01736 -0.03107,-0.0255c0.0105,-0.00814 0.02086,-0.01665 0.03107,-0.0255c0.01021,0.00886 0.02056,0.01736 0.03107,0.0255zM1.31388,1.56166c0.01257,-0.01016 0.02538,-0.01976 0.03839,-0.02879c0.00335,0.00218 0.00672,0.00432 0.01009,0.00642c-0.00677,0.01725 -0.01385,0.03418 -0.02123,0.05079c-0.00894,-0.00977 -0.01803,-0.01925 -0.02726,-0.02843zM1.19772,1.53287c0.01301,0.00903 0.02582,0.01863 0.03839,0.02879c-0.07146,0.07106 -0.13433,0.16 -0.18578,0.26256c-0.03701,-0.04548 -0.07089,-0.09646 -0.10111,-0.1521c-0.00176,-0.01624 -0.00327,-0.03261 -0.00454,-0.04909c0.08946,-0.00789 0.17471,-0.03929 0.25304,-0.09016zM1.08198,1.86094c0.05276,-0.10534 0.11824,-0.19554 0.19302,-0.26544c0.01471,0.01375 0.02906,0.02828 0.04302,0.04357c-0.05276,0.10534 -0.11824,0.19554 -0.19302,0.26544c-0.01471,-0.01375 -0.02906,-0.02828 -0.04302,-0.04357zM0.59967,1.67578c0.03701,0.04548 0.07089,0.09646 0.10111,0.1521c0.00176,0.01624 0.00327,0.03261 0.00454,0.04909c-0.08946,0.00789 -0.17471,0.03929 -0.25304,0.09016c-0.01301,-0.00903 -0.02582,-0.01863 -0.03839,-0.02879c0.07146,-0.07106 0.13433,-0.16 0.18578,-0.26256zM0.50519,2c0.06404,-0.03528 0.1324,-0.05712 0.20357,-0.06323c0.00082,0.02092 0.00123,0.04201 0.00123,0.06323c0,0.02123 -0.00041,0.04231 -0.00123,0.06323c-0.07117,-0.00611 -0.13954,-0.02795 -0.20357,-0.06323zM0.68312,1.7087c-0.01906,-0.02889 -0.03916,-0.05625 -0.06021,-0.08192c0.00894,-0.01994 0.01746,-0.04034 0.02555,-0.06116c0.01373,0.04606 0.02535,0.09384 0.03466,0.14308zM0.74877,2.065c0.00082,-0.02151 0.00123,-0.04318 0.00123,-0.065c0,-0.02182 -0.00041,-0.04349 -0.00123,-0.065c0.00041,0 0.00082,0 0.00123,0c0.00041,0 0.00082,0 0.00123,0c-0.00082,0.02151 -0.00123,0.04318 -0.00123,0.065c0,0.02182 0.00041,0.04349 0.00123,0.065c-0.00041,0 -0.00082,0 -0.00123,0c-0.00041,0 -0.00082,0 -0.00123,0zM0.75751,1.84015c-0.00617,-0.01276 -0.01252,-0.02533 -0.01903,-0.03768c-0.00897,-0.07599 -0.02303,-0.14934 -0.04162,-0.21923c0.03199,0.01347 0.06486,0.02384 0.09843,0.03088c-0.01757,0.07218 -0.03035,0.14781 -0.03777,0.22603zM0.81372,1.879c-0.00632,-0.0008 -0.01267,-0.00148 -0.01904,-0.00204c0.00684,-0.08914 0.02101,-0.17492 0.04159,-0.25597c0.00632,0.0008 0.01267,0.00148 0.01904,0.00204c-0.00684,0.08914 -0.02101,0.17492 -0.04159,0.25597zM1.04772,1.96713c-0.00335,-0.00218 -0.00672,-0.00432 -0.01009,-0.00642c0.00677,-0.01725 0.01385,-0.03418 0.02123,-0.05079c0.00894,0.00977 0.01803,0.01925 0.02726,0.02843c-0.01257,0.01016 -0.02538,0.01976 -0.03839,0.02879zM1.02709,1.87322c-0.00894,0.01994 -0.01746,0.04034 -0.02555,0.06116c-0.01373,-0.04606 -0.02535,-0.09384 -0.03466,-0.14308c0.01906,0.02889 0.03916,0.05625 0.06021,0.08192zM0.91152,1.69752c0.00897,0.07599 0.02303,0.14934 0.04162,0.21923c-0.03199,-0.01347 -0.06486,-0.02384 -0.09843,-0.03088c0.01757,-0.07218 0.03035,-0.14781 0.03777,-0.22603c0.00617,0.01276 0.01252,0.02533 0.01903,0.03768zM0.8395,1.94338c0.04654,0.00878 0.09168,0.02432 0.13496,0.04594c0.00115,0.00357 0.00232,0.00713 0.00349,0.01068c-0.00118,0.00355 -0.00234,0.00711 -0.00349,0.01068c-0.04329,0.02162 -0.08842,0.03716 -0.13496,0.04594c-0.00548,-0.01915 -0.01131,-0.03803 -0.01746,-0.05662c0.00616,-0.01859 0.01198,-0.03747 0.01746,-0.05662zM0.55607,1.5c-0.0105,0.00814 -0.02086,0.01665 -0.03107,0.0255c-0.01021,-0.00886 -0.02056,-0.01736 -0.03107,-0.0255c0.0105,-0.00814 0.02086,-0.01665 0.03107,-0.0255c0.01021,0.00886 0.02056,0.01736 0.03107,0.0255zM0.56388,1.56166c0.01257,-0.01016 0.02538,-0.01976 0.03839,-0.02879c0.00335,0.00218 0.00672,0.00432 0.01009,0.00642c-0.00677,0.01725 -0.01385,0.03418 -0.02123,0.05079c-0.00894,-0.00977 -0.01803,-0.01925 -0.02726,-0.02843zM0.44772,1.53287c0.01301,0.00903 0.02582,0.01863 0.03839,0.02879c-0.07146,0.07106 -0.13433,0.16 -0.18578,0.26256c-0.03701,-0.04548 -0.07089,-0.09646 -0.10111,-0.1521c-0.00176,-0.01624 -0.00327,-0.03261 -0.00454,-0.04909c0.08946,-0.00789 0.17471,-0.03929 0.25304,-0.09016zM0.33198,1.86094c0.05276,-0.10534 0.11824,-0.19554 0.19302,-0.26544c0.01471,0.01375 0.02906,0.02828 0.04302,0.04357c-0.05276,0.10534 -0.11824,0.19554 -0.19302,0.26544c-0.01471,-0.01375 -0.02906,-0.02828 -0.04302,-0.04357zM0.00123,1.935c-0.00082,0.02151 -0.00123,0.04318 -0.00123,0.065c0,0.02182 0.00041,0.04349 0.00123,0.065c-0.00041,0 -0.00082,0 -0.00123,0v-0.13c0.00041,0 0.00082,0 0.00123,0zM0.00458,1.87502c-0.00152,-0.00001 -0.00305,-0.00002 -0.00458,-0.00002l0,-0.2725c0.01494,0.00455 0.03004,0.00843 0.04528,0.01163c-0.02017,0.08285 -0.03403,0.17025 -0.04071,0.2609zM0.20315,1.91676c-0.05084,-0.02141 -0.10386,-0.03498 -0.15846,-0.03979c0.00684,-0.08914 0.02101,-0.17492 0.04159,-0.25597c0.01316,0.00166 0.02642,0.00281 0.03977,0.00344c0.01118,0.02509 0.02302,0.04947 0.03548,0.07309c0.00897,0.07599 0.02303,0.14934 0.04162,0.21923zM0.04123,1.93677c0.06369,0.00547 0.12513,0.02353 0.18324,0.05256c0.00115,0.00357 0.00232,0.00713 0.00349,0.01068c-0.00118,0.00355 -0.00234,0.00711 -0.00349,0.01068c-0.0581,0.02902 -0.11955,0.04709 -0.18324,0.05256c-0.00082,-0.02092 -0.00123,-0.04201 -0.00123,-0.06323c0,-0.02123 0.00041,-0.04231 0.00123,-0.06323zM0.29772,1.96713c-0.00335,-0.00218 -0.00672,-0.00432 -0.01009,-0.00642c0.00677,-0.01725 0.01385,-0.03418 0.02123,-0.05079c0.00894,0.00977 0.01803,0.01925 0.02726,0.02843c-0.01257,0.01016 -0.02538,0.01976 -0.03839,0.02879zM0.27709,1.87322c-0.00894,0.01994 -0.01746,0.04034 -0.02555,0.06116c-0.01373,-0.04606 -0.02535,-0.09384 -0.03466,-0.14308c0.01906,0.02889 0.03916,0.05625 0.06021,0.08192zM2.94685,1.41676c0.0186,-0.0699 0.03265,-0.14325 0.04162,-0.21923c0.0039,-0.0074 0.00774,-0.01487 0.01152,-0.02241v0.22239c-0.01796,0.00547 -0.03568,0.0119 -0.05315,0.01925zM2.92553,1.48932c0.02427,-0.01212 0.04912,-0.02233 0.07447,-0.03051v0.08238c-0.02535,-0.00818 -0.0502,-0.01839 -0.07447,-0.03051c-0.00115,-0.00357 -0.00232,-0.00713 -0.00349,-0.01068c0.00118,-0.00355 0.00234,-0.00711 0.00349,-0.01068zM2.84114,1.40991c0.00738,0.01661 0.01446,0.03354 0.02123,0.05079c-0.00338,0.00211 -0.00674,0.00425 -0.01009,0.00642c-0.01301,-0.00903 -0.02582,-0.01863 -0.03839,-0.02879c0.00923,-0.00918 0.01832,-0.01866 0.02726,-0.02843zM2.89845,1.43437c-0.00809,-0.02082 -0.01661,-0.04121 -0.02555,-0.06116c0.02105,-0.02568 0.04114,-0.05303 0.06021,-0.08192c-0.00931,0.04924 -0.02093,0.09702 -0.03466,0.14308zM2.65607,1c-0.0105,0.00814 -0.02086,0.01665 -0.03107,0.0255c-0.01021,-0.00886 -0.02056,-0.01736 -0.03107,-0.0255c0.0105,-0.00814 0.02086,-0.01665 0.03107,-0.0255c0.01021,0.00886 0.02056,0.01736 0.03107,0.0255zM2.66388,1.06166c0.01257,-0.01016 0.02538,-0.01976 0.03839,-0.02879c0.07832,0.05087 0.16357,0.08228 0.25304,0.09016c-0.00126,0.01648 -0.00278,0.03285 -0.00454,0.04909c-0.03022,0.05564 -0.0641,0.10662 -0.10111,0.1521c-0.05145,-0.10256 -0.11432,-0.1915 -0.18578,-0.26256zM2.54772,1.03287c0.01301,0.00903 0.02582,0.01863 0.03839,0.02879c-0.00923,0.00918 -0.01832,0.01866 -0.02726,0.02843c-0.00738,-0.01661 -0.01446,-0.03354 -0.02123,-0.05079c0.00338,-0.00211 0.00674,-0.00425 0.01009,-0.00642zM2.58198,1.13906c0.01396,-0.01528 0.02831,-0.02982 0.04302,-0.04357c0.07478,0.06991 0.14026,0.1601 0.19302,0.26544c-0.01396,0.01528 -0.02831,0.02982 -0.04302,0.04357c-0.07478,-0.06991 -0.14026,-0.1601 -0.19302,-0.26544zM2.25751,1.15985c0.00742,0.07822 0.0202,0.15386 0.03777,0.22603c-0.03357,0.00704 -0.06643,0.0174 -0.09843,0.03088c0.0186,-0.0699 0.03265,-0.14325 0.04162,-0.21923c0.00652,-0.01235 0.01286,-0.02491 0.01903,-0.03768zM2.17553,1.48932c0.04329,-0.02162 0.08842,-0.03716 0.13496,-0.04594c0.00548,0.01915 0.01131,0.03803 0.01746,0.05662c-0.00616,0.01859 -0.01198,0.03747 -0.01746,0.05662c-0.04654,-0.00878 -0.09168,-0.02432 -0.13496,-0.04594c-0.00115,-0.00357 -0.00232,-0.00713 -0.00349,-0.01068c0.00118,-0.00355 0.00234,-0.00711 0.00349,-0.01068zM2.39877,1.565c0.00082,-0.02151 0.00123,-0.04318 0.00123,-0.065c0,-0.02182 -0.00041,-0.04349 -0.00123,-0.065c0.00041,0 0.00082,0 0.00123,0c0.00041,0 0.00082,0 0.00123,0c-0.00082,0.02151 -0.00123,0.04318 -0.00123,0.065c0,0.02182 0.00041,0.04349 0.00123,0.065c-0.00041,0 -0.00082,0 -0.00123,0c-0.00041,0 -0.00082,0 -0.00123,0zM2.41152,1.30248c-0.00652,0.01235 -0.01286,0.02491 -0.01903,0.03768c-0.00742,-0.07822 -0.0202,-0.15386 -0.03777,-0.22603c0.03357,-0.00704 0.06643,-0.0174 0.09843,-0.03088c-0.0186,0.0699 -0.03265,0.14325 -0.04162,0.21923zM2.69772,1.46713c-0.07832,-0.05087 -0.16357,-0.08228 -0.25304,-0.09016c0.00126,-0.01648 0.00278,-0.03285 0.00454,-0.04909c0.03022,-0.05564 0.0641,-0.10662 0.10111,-0.1521c0.05145,0.10256 0.11432,0.1915 0.18578,0.26256c-0.01257,0.01016 -0.02538,0.01976 -0.03839,0.02879zM2.44123,1.43677c0.07117,0.00611 0.13954,0.02795 0.20357,0.06323c-0.06404,0.03528 -0.1324,0.05712 -0.20357,0.06323c-0.00082,-0.02092 -0.00123,-0.04201 -0.00123,-0.06323c0,-0.02123 0.00041,-0.04231 0.00123,-0.06323zM2.52709,1.12678c-0.02105,0.02568 -0.04114,0.05303 -0.06021,0.08192c0.00931,-0.04924 0.02093,-0.09702 0.03466,-0.14308c0.00809,0.02082 0.01661,0.04121 0.02555,0.06116zM2.31372,1.121c0.02058,0.08105 0.03475,0.16683 0.04159,0.25597c-0.00637,0.00056 -0.01271,0.00124 -0.01904,0.00204c-0.02058,-0.08105 -0.03475,-0.16683 -0.04159,-0.25597c0.00637,-0.00056 0.01271,-0.00124 0.01904,-0.00204zM2.09114,1.40991c0.00738,0.01661 0.01446,0.03354 0.02123,0.05079c-0.00338,0.00211 -0.00674,0.00425 -0.01009,0.00642c-0.01301,-0.00903 -0.02582,-0.01863 -0.03839,-0.02879c0.00923,-0.00918 0.01832,-0.01866 0.02726,-0.02843zM2.14845,1.43437c-0.00809,-0.02082 -0.01661,-0.04121 -0.02555,-0.06116c0.02105,-0.02568 0.04114,-0.05303 0.06021,-0.08192c-0.00931,0.04924 -0.02093,0.09702 -0.03466,0.14308zM1.90607,1c-0.0105,0.00814 -0.02086,0.01665 -0.03107,0.0255c-0.01021,-0.00886 -0.02056,-0.01736 -0.03107,-0.0255c0.0105,-0.00814 0.02086,-0.01665 0.03107,-0.0255c0.01021,0.00886 0.02056,0.01736 0.03107,0.0255zM1.91388,1.06166c0.01257,-0.01016 0.02538,-0.01976 0.03839,-0.02879c0.07832,0.05087 0.16357,0.08228 0.25304,0.09016c-0.00126,0.01648 -0.00278,0.03285 -0.00454,0.04909c-0.03022,0.05564 -0.0641,0.10662 -0.10111,0.1521c-0.05145,-0.10256 -0.11432,-0.1915 -0.18578,-0.26256zM1.79772,1.03287c0.01301,0.00903 0.02582,0.01863 0.03839,0.02879c-0.00923,0.00918 -0.01832,0.01866 -0.02726,0.02843c-0.00738,-0.01661 -0.01446,-0.03354 -0.02123,-0.05079c0.00338,-0.00211 0.00674,-0.00425 0.01009,-0.00642zM1.83198,1.13906c0.01396,-0.01528 0.02831,-0.02982 0.04302,-0.04357c0.07478,0.06991 0.14026,0.1601 0.19302,0.26544c-0.01396,0.01528 -0.02831,0.02982 -0.04302,0.04357c-0.07478,-0.06991 -0.14026,-0.1601 -0.19302,-0.26544zM1.50751,1.15985c0.00742,0.07822 0.0202,0.15386 0.03777,0.22603c-0.03357,0.00704 -0.06643,0.0174 -0.09843,0.03088c0.0186,-0.0699 0.03265,-0.14325 0.04162,-0.21923c0.00652,-0.01235 0.01286,-0.02491 0.01903,-0.03768zM1.42553,1.48932c0.04329,-0.02162 0.08842,-0.03716 0.13496,-0.04594c0.00548,0.01915 0.01131,0.03803 0.01746,0.05662c-0.00616,0.01859 -0.01198,0.03747 -0.01746,0.05662c-0.04654,-0.00878 -0.09168,-0.02432 -0.13496,-0.04594c-0.00115,-0.00357 -0.00232,-0.00713 -0.00349,-0.01068c0.00118,-0.00355 0.00234,-0.00711 0.00349,-0.01068zM1.64877,1.565c0.00082,-0.02151 0.00123,-0.04318 0.00123,-0.065c0,-0.02182 -0.00041,-0.04349 -0.00123,-0.065c0.00041,0 0.00082,0 0.00123,0c0.00041,0 0.00082,0 0.00123,0c-0.00082,0.02151 -0.00123,0.04318 -0.00123,0.065c0,0.02182 0.00041,0.04349 0.00123,0.065c-0.00041,0 -0.00082,0 -0.00123,0c-0.00041,0 -0.00082,0 -0.00123,0zM1.66152,1.30248c-0.00652,0.01235 -0.01286,0.02491 -0.01903,0.03768c-0.00742,-0.07822 -0.0202,-0.15386 -0.03777,-0.22603c0.03357,-0.00704 0.06643,-0.0174 0.09843,-0.03088c-0.0186,0.0699 -0.03265,0.14325 -0.04162,0.21923zM1.94772,1.46713c-0.07832,-0.05087 -0.16357,-0.08228 -0.25304,-0.09016c0.00126,-0.01648 0.00278,-0.03285 0.00454,-0.04909c0.03022,-0.05564 0.0641,-0.10662 0.10111,-0.1521c0.05145,0.10256 0.11432,0.1915 0.18578,0.26256c-0.01257,0.01016 -0.02538,0.01976 -0.03839,0.02879zM1.69123,1.43677c0.07117,0.00611 0.13954,0.02795 0.20357,0.06323c-0.06404,0.03528 -0.1324,0.05712 -0.20357,0.06323c-0.00082,-0.02092 -0.00123,-0.04201 -0.00123,-0.06323c0,-0.02123 0.00041,-0.04231 0.00123,-0.06323zM1.77709,1.12678c-0.02105,0.02568 -0.04114,0.05303 -0.06021,0.08192c0.00931,-0.04924 0.02093,-0.09702 0.03466,-0.14308c0.00809,0.02082 0.01661,0.04121 0.02555,0.06116zM1.56372,1.121c0.02058,0.08105 0.03475,0.16683 0.04159,0.25597c-0.00637,0.00056 -0.01271,0.00124 -0.01904,0.00204c-0.02058,-0.08105 -0.03475,-0.16683 -0.04159,-0.25597c0.00637,-0.00056 0.01271,-0.00124 0.01904,-0.00204zM1.34114,1.40991c0.00738,0.01661 0.01446,0.03354 0.02123,0.05079c-0.00338,0.00211 -0.00674,0.00425 -0.01009,0.00642c-0.01301,-0.00903 -0.02582,-0.01863 -0.03839,-0.02879c0.00923,-0.00918 0.01832,-0.01866 0.02726,-0.02843zM1.39845,1.43437c-0.00809,-0.02082 -0.01661,-0.04121 -0.02555,-0.06116c0.02105,-0.02568 0.04114,-0.05303 0.06021,-0.08192c-0.00931,0.04924 -0.02093,0.09702 -0.03466,0.14308zM1.15607,1c-0.0105,0.00814 -0.02086,0.01665 -0.03107,0.0255c-0.01021,-0.00886 -0.02056,-0.01736 -0.03107,-0.0255c0.0105,-0.00814 0.02086,-0.01665 0.03107,-0.0255c0.01021,0.00886 0.02056,0.01736 0.03107,0.0255zM1.16388,1.06166c0.01257,-0.01016 0.02538,-0.01976 0.03839,-0.02879c0.07832,0.05087 0.16357,0.08228 0.25304,0.09016c-0.00126,0.01648 -0.00278,0.03285 -0.00454,0.04909c-0.03022,0.05564 -0.0641,0.10662 -0.10111,0.1521c-0.05145,-0.10256 -0.11432,-0.1915 -0.18578,-0.26256zM1.04772,1.03287c0.01301,0.00903 0.02582,0.01863 0.03839,0.02879c-0.00923,0.00918 -0.01832,0.01866 -0.02726,0.02843c-0.00738,-0.01661 -0.01446,-0.03354 -0.02123,-0.05079c0.00338,-0.00211 0.00674,-0.00425 0.01009,-0.00642zM1.08198,1.13906c0.01396,-0.01528 0.02831,-0.02982 0.04302,-0.04357c0.07478,0.06991 0.14026,0.1601 0.19302,0.26544c-0.01396,0.01528 -0.02831,0.02982 -0.04302,0.04357c-0.07478,-0.06991 -0.14026,-0.1601 -0.19302,-0.26544zM0.75751,1.15985c0.00742,0.07822 0.0202,0.15386 0.03777,0.22603c-0.03357,0.00704 -0.06643,0.0174 -0.09843,0.03088c0.0186,-0.0699 0.03265,-0.14325 0.04162,-0.21923c0.00652,-0.01235 0.01286,-0.02491 0.01903,-0.03768zM0.67553,1.48932c0.04329,-0.02162 0.08842,-0.03716 0.13496,-0.04594c0.00548,0.01915 0.01131,0.03803 0.01746,0.05662c-0.00616,0.01859 -0.01198,0.03747 -0.01746,0.05662c-0.04654,-0.00878 -0.09168,-0.02432 -0.13496,-0.04594c-0.00115,-0.00357 -0.00232,-0.00713 -0.00349,-0.01068c0.00118,-0.00355 0.00234,-0.00711 0.00349,-0.01068zM0.89877,1.565c0.00082,-0.02151 0.00123,-0.04318 0.00123,-0.065c0,-0.02182 -0.00041,-0.04349 -0.00123,-0.065c0.00041,0 0.00082,0 0.00123,0c0.00041,0 0.00082,0 0.00123,0c-0.00082,0.02151 -0.00123,0.04318 -0.00123,0.065c0,0.02182 0.00041,0.04349 0.00123,0.065c-0.00041,0 -0.00082,0 -0.00123,0c-0.00041,0 -0.00082,0 -0.00123,0zM0.91152,1.30248c-0.00652,0.01235 -0.01286,0.02491 -0.01903,0.03768c-0.00742,-0.07822 -0.0202,-0.15386 -0.03777,-0.22603c0.03357,-0.00704 0.06643,-0.0174 0.09843,-0.03088c-0.0186,0.0699 -0.03265,0.14325 -0.04162,0.21923zM1.19772,1.46713c-0.07832,-0.05087 -0.16357,-0.08228 -0.25304,-0.09016c0.00126,-0.01648 0.00278,-0.03285 0.00454,-0.04909c0.03022,-0.05564 0.0641,-0.10662 0.10111,-0.1521c0.05145,0.10256 0.11432,0.1915 0.18578,0.26256c-0.01257,0.01016 -0.02538,0.01976 -0.03839,0.02879zM0.94123,1.43677c0.07117,0.00611 0.13954,0.02795 0.20357,0.06323c-0.06404,0.03528 -0.1324,0.05712 -0.20357,0.06323c-0.00082,-0.02092 -0.00123,-0.04201 -0.00123,-0.06323c0,-0.02123 0.00041,-0.04231 0.00123,-0.06323zM1.02709,1.12678c-0.02105,0.02568 -0.04114,0.05303 -0.06021,0.08192c0.00931,-0.04924 0.02093,-0.09702 0.03466,-0.14308c0.00809,0.02082 0.01661,0.04121 0.02555,0.06116zM0.81372,1.121c0.02058,0.08105 0.03475,0.16683 0.04159,0.25597c-0.00637,0.00056 -0.01271,0.00124 -0.01904,0.00204c-0.02058,-0.08105 -0.03475,-0.16683 -0.04159,-0.25597c0.00637,-0.00056 0.01271,-0.00124 0.01904,-0.00204zM0.59114,1.40991c0.00738,0.01661 0.01446,0.03354 0.02123,0.05079c-0.00338,0.00211 -0.00674,0.00425 -0.01009,0.00642c-0.01301,-0.00903 -0.02582,-0.01863 -0.03839,-0.02879c0.00923,-0.00918 0.01832,-0.01866 0.02726,-0.02843zM0.64845,1.43437c-0.00809,-0.02082 -0.01661,-0.04121 -0.02555,-0.06116c0.02105,-0.02568 0.04114,-0.05303 0.06021,-0.08192c-0.00931,0.04924 -0.02093,0.09702 -0.03466,0.14308zM0.40607,1c-0.0105,0.00814 -0.02086,0.01665 -0.03107,0.0255c-0.01021,-0.00886 -0.02056,-0.01736 -0.03107,-0.0255c0.0105,-0.00814 0.02086,-0.01665 0.03107,-0.0255c0.01021,0.00886 0.02056,0.01736 0.03107,0.0255zM0.41388,1.06166c0.01257,-0.01016 0.02538,-0.01976 0.03839,-0.02879c0.07832,0.05087 0.16357,0.08228 0.25304,0.09016c-0.00126,0.01648 -0.00278,0.03285 -0.00454,0.04909c-0.03022,0.05564 -0.0641,0.10662 -0.10111,0.1521c-0.05145,-0.10256 -0.11432,-0.1915 -0.18578,-0.26256zM0.29772,1.03287c0.01301,0.00903 0.02582,0.01863 0.03839,0.02879c-0.00923,0.00918 -0.01832,0.01866 -0.02726,0.02843c-0.00738,-0.01661 -0.01446,-0.03354 -0.02123,-0.05079c0.00338,-0.00211 0.00674,-0.00425 0.01009,-0.00642zM0.33198,1.13906c0.01396,-0.01528 0.02831,-0.02982 0.04302,-0.04357c0.07478,0.06991 0.14026,0.1601 0.19302,0.26544c-0.01396,0.01528 -0.02831,0.02982 -0.04302,0.04357c-0.07478,-0.06991 -0.14026,-0.1601 -0.19302,-0.26544zM0.00458,1.12498c0.00668,0.09065 0.02054,0.17805 0.04071,0.2609c-0.01525,0.00319 -0.03034,0.00708 -0.04528,0.01163v-0.2725c0.00153,0 0.00305,-0.00001 0.00458,-0.00002zM0.0605,1.44338c0.00548,0.01915 0.01131,0.03803 0.01746,0.05662c-0.00616,0.01859 -0.01198,0.03747 -0.01746,0.05662c-0.02045,-0.00386 -0.04063,-0.00902 -0.0605,-0.01543l0,-0.08238c0.01987,-0.00641 0.04005,-0.01157 0.0605,-0.01543zM0.14804,1.565c-0.00885,-0.02118 -0.01722,-0.04285 -0.02509,-0.065c0.00786,-0.02214 0.01623,-0.04382 0.02509,-0.065c0.00065,0 0.00131,0 0.00196,0c0.00041,0 0.00082,0 0.00123,0c-0.00082,0.02151 -0.00123,0.04318 -0.00123,0.065c0,0.02182 0.00041,0.04349 0.00123,0.065c-0.00041,0 -0.00082,0 -0.00123,0c-0.00065,0 -0.00131,0 -0.00196,0zM0.16152,1.30248c-0.01246,0.02361 -0.02429,0.04799 -0.03548,0.07309c-0.01335,0.00063 -0.02661,0.00178 -0.03977,0.00344c-0.02058,-0.08105 -0.03475,-0.16683 -0.04159,-0.25597c0.05459,-0.00481 0.10762,-0.01838 0.15846,-0.03979c-0.0186,0.0699 -0.03265,0.14325 -0.04162,0.21923zM0.44772,1.46713c-0.07832,-0.05087 -0.16357,-0.08228 -0.25304,-0.09016c0.00126,-0.01648 0.00278,-0.03285 0.00454,-0.04909c0.03022,-0.05564 0.0641,-0.10662 0.10111,-0.1521c0.05145,0.10256 0.11432,0.1915 0.18578,0.26256c-0.01257,0.01016 -0.02538,0.01976 -0.03839,0.02879zM0.19123,1.43677c0.07117,0.00611 0.13954,0.02795 0.20357,0.06323c-0.06404,0.03528 -0.1324,0.05712 -0.20357,0.06323c-0.00082,-0.02092 -0.00123,-0.04201 -0.00123,-0.06323c0,-0.02123 0.00041,-0.04231 0.00123,-0.06323zM0.27709,1.12678c-0.02105,0.02568 -0.04114,0.05303 -0.06021,0.08192c0.00931,-0.04924 0.02093,-0.09702 0.03466,-0.14308c0.00809,0.02082 0.01661,0.04121 0.02555,0.06116zM2.94685,0.41676c0.03429,-0.12889 0.05315,-0.26952 0.05315,-0.41676v0.3975c-0.01796,0.00547 -0.03568,0.0119 -0.05315,0.01925zM2.92553,0.48932c0.02427,-0.01212 0.04912,-0.02233 0.07447,-0.03051v0.36608c-0.00378,-0.00755 -0.00762,-0.01502 -0.01152,-0.02241c-0.01261,-0.10679 -0.03526,-0.20837 -0.06644,-0.30248c0.00118,-0.00355 0.00234,-0.00711 0.00349,-0.01068zM2.99877,0.935c0.00041,0 0.00082,0 0.00123,0v0.13c-0.00041,0 -0.00082,0 -0.00123,0c0.00082,-0.02151 0.00123,-0.04318 0.00123,-0.065c0,-0.02182 -0.00041,-0.04349 -0.00123,-0.065zM2.84967,0.67578c0.03701,0.04548 0.07089,0.09646 0.10111,0.1521c0.00176,0.01624 0.00327,0.03261 0.00454,0.04909c-0.08946,0.00789 -0.17471,0.03929 -0.25304,0.09016c-0.01301,-0.00903 -0.02582,-0.01863 -0.03839,-0.02879c0.07146,-0.07106 0.13433,-0.16 0.18578,-0.26256zM2.75519,1c0.06404,-0.03528 0.1324,-0.05712 0.20357,-0.06323c0.00082,0.02092 0.00123,0.04201 0.00123,0.06323c0,0.02123 -0.00041,0.04231 -0.00123,0.06323c-0.07117,-0.00611 -0.13954,-0.02795 -0.20357,-0.06323zM2.93312,0.7087c-0.01906,-0.02889 -0.03916,-0.05625 -0.06021,-0.08192c0.00894,-0.01994 0.01746,-0.04034 0.02555,-0.06116c0.01373,0.04606 0.02535,0.09384 0.03466,0.14308zM2.29528,0.38588c-0.03357,0.00704 -0.06643,0.0174 -0.09843,0.03088c0.03429,-0.12889 0.05315,-0.26952 0.05315,-0.41676c0,0.13556 0.01599,0.26553 0.04528,0.38588zM2.17553,0.48932c0.04329,-0.02162 0.08842,-0.03716 0.13496,-0.04594c0.00548,0.01915 0.01131,0.03803 0.01746,0.05662c-0.03482,0.10511 -0.05901,0.21955 -0.07045,0.34015c-0.00617,-0.01276 -0.01252,-0.02533 -0.01903,-0.03768c-0.01261,-0.10679 -0.03526,-0.20837 -0.06644,-0.30248c0.00118,-0.00355 0.00234,-0.00711 0.00349,-0.01068zM2.24877,0.935c0.00041,0 0.00082,0 0.00123,0c0.00041,0 0.00082,0 0.00123,0c-0.00082,0.02151 -0.00123,0.04318 -0.00123,0.065c0,0.02182 0.00041,0.04349 0.00123,0.065c-0.00041,0 -0.00082,0 -0.00123,0c-0.00041,0 -0.00082,0 -0.00123,0c0.00082,-0.02151 0.00123,-0.04318 0.00123,-0.065c0,-0.02182 -0.00041,-0.04349 -0.00123,-0.065zM2.31372,0.879c-0.00632,-0.0008 -0.01267,-0.00148 -0.01904,-0.00204c0.00841,-0.10972 0.02794,-0.21437 0.05686,-0.31134c0.0021,0.00541 0.00423,0.01079 0.00639,0.01614c-0.00526,0.10396 -0.02048,0.20375 -0.04421,0.29724zM2.09967,0.67578c0.03701,0.04548 0.07089,0.09646 0.10111,0.1521c0.00176,0.01624 0.00327,0.03261 0.00454,0.04909c-0.08946,0.00789 -0.17471,0.03929 -0.25304,0.09016c-0.01301,-0.00903 -0.02582,-0.01863 -0.03839,-0.02879c0.07146,-0.07106 0.13433,-0.16 0.18578,-0.26256zM2.00519,1c0.06404,-0.03528 0.1324,-0.05712 0.20357,-0.06323c0.00082,0.02092 0.00123,0.04201 0.00123,0.06323c0,0.02123 -0.00041,0.04231 -0.00123,0.06323c-0.07117,-0.00611 -0.13954,-0.02795 -0.20357,-0.06323zM2.18312,0.7087c-0.01906,-0.02889 -0.03916,-0.05625 -0.06021,-0.08192c0.00894,-0.01994 0.01746,-0.04034 0.02555,-0.06116c0.01373,0.04606 0.02535,0.09384 0.03466,0.14308zM2.54772,0.96713c-0.00335,-0.00218 -0.00672,-0.00432 -0.01009,-0.00642c0.00677,-0.01725 0.01385,-0.03418 0.02123,-0.05079c0.00894,0.00977 0.01803,0.01925 0.02726,0.02843c-0.01257,0.01016 -0.02538,0.01976 -0.03839,0.02879zM2.52709,0.87322c-0.00894,0.01994 -0.01746,0.04034 -0.02555,0.06116c-0.01373,-0.04606 -0.02535,-0.09384 -0.03466,-0.14308c0.01906,0.02889 0.03916,0.05625 0.06021,0.08192zM2.41152,0.69752c0.00897,0.07599 0.02303,0.14934 0.04162,0.21923c-0.03199,-0.01347 -0.06486,-0.02384 -0.09843,-0.03088c0.01757,-0.07218 0.03035,-0.14781 0.03777,-0.22603c0.00617,0.01276 0.01252,0.02533 0.01903,0.03768zM2.3395,0.94338c0.04654,0.00878 0.09168,0.02432 0.13496,0.04594c0.00115,0.00357 0.00232,0.00713 0.00349,0.01068c-0.00118,0.00355 -0.00234,0.00711 -0.00349,0.01068c-0.04329,0.02162 -0.08842,0.03716 -0.13496,0.04594c-0.00548,-0.01915 -0.01131,-0.03803 -0.01746,-0.05662c0.00616,-0.01859 0.01198,-0.03747 0.01746,-0.05662zM2.89845,0.43437c-0.05813,-0.14961 -0.1386,-0.27728 -0.23457,-0.37271c0.02926,-0.02364 0.05976,-0.04428 0.09131,-0.06166h0.20481c0,0.15471 -0.02199,0.30172 -0.06155,0.43437zM2.625,0.0255c-0.01021,-0.00886 -0.02056,-0.01736 -0.03107,-0.0255l0.06213,0c-0.0105,0.00814 -0.02086,0.01665 -0.03107,0.0255zM2.44123,0.43677c0.10624,0.00912 0.20622,0.05329 0.29488,0.1249c-0.07146,0.07106 -0.13433,0.16 -0.18578,0.26256c-0.03701,-0.04548 -0.07089,-0.09646 -0.10111,-0.1521c-0.00607,-0.05603 -0.00923,-0.11352 -0.00923,-0.17213c0,-0.02123 0.00041,-0.04231 0.00123,-0.06323zM2.58198,0.86094c0.05276,-0.10534 0.11824,-0.19554 0.19302,-0.26544c0.01471,0.01375 0.02906,0.02828 0.04302,0.04357c-0.05276,0.10534 -0.11824,0.19554 -0.19302,0.26544c-0.01471,-0.01375 -0.02906,-0.02828 -0.04302,-0.04357zM2.86237,0.4607c-0.03017,0.01881 -0.05934,0.04048 -0.08737,0.0648c-0.0982,-0.08521 -0.21048,-0.13798 -0.33031,-0.14854c0.00126,-0.01648 0.00278,-0.03285 0.00454,-0.04909c0.04953,-0.09122 0.10894,-0.1699 0.17577,-0.23238c0.09743,0.09108 0.17908,0.2166 0.23737,0.3652zM2.81388,0.56166c0.01798,-0.01452 0.03643,-0.02792 0.0553,-0.04012c-0.00878,0.02341 -0.01814,0.04627 -0.02804,0.06854c-0.00894,-0.00977 -0.01803,-0.01925 -0.02726,-0.02843zM2.58612,0.06166c-0.04307,0.04283 -0.08302,0.09215 -0.11923,0.14704c0.01287,-0.06805 0.03014,-0.13333 0.05132,-0.1951c0.02328,0.01426 0.04594,0.03031 0.06791,0.04806zM2.39877,0.435c0.00041,0 0.00082,0 0.00123,0c0.00041,0 0.00082,0 0.00123,0c-0.00082,0.02151 -0.00123,0.04318 -0.00123,0.065c0,0.02465 0.00053,0.04911 0.00157,0.07336c-0.00096,-0.00225 -0.00191,-0.0045 -0.00286,-0.00676c0.00086,-0.02203 0.00129,-0.04424 0.00129,-0.06659c0,-0.02182 -0.00041,-0.04349 -0.00123,-0.065zM2.41152,0.30248c-0.00652,0.01235 -0.01286,0.02491 -0.01903,0.03768c-0.01144,-0.1206 -0.03562,-0.23504 -0.07045,-0.34015l0.15592,0c-0.03118,0.09411 -0.05383,0.19569 -0.06644,0.30248zM1.54528,0.38588c-0.03357,0.00704 -0.06643,0.0174 -0.09843,0.03088c0.03429,-0.12889 0.05315,-0.26952 0.05315,-0.41676c0,0.13556 0.01599,0.26553 0.04528,0.38588zM1.42553,0.48932c0.04329,-0.02162 0.08842,-0.03716 0.13496,-0.04594c0.00548,0.01915 0.01131,0.03803 0.01746,0.05662c-0.03482,0.10511 -0.05901,0.21955 -0.07045,0.34015c-0.00617,-0.01276 -0.01252,-0.02533 -0.01903,-0.03768c-0.01261,-0.10679 -0.03526,-0.20837 -0.06644,-0.30248c0.00118,-0.00355 0.00234,-0.00711 0.00349,-0.01068zM1.49877,0.935c0.00041,0 0.00082,0 0.00123,0c0.00041,0 0.00082,0 0.00123,0c-0.00082,0.02151 -0.00123,0.04318 -0.00123,0.065c0,0.02182 0.00041,0.04349 0.00123,0.065c-0.00041,0 -0.00082,0 -0.00123,0c-0.00041,0 -0.00082,0 -0.00123,0c0.00082,-0.02151 0.00123,-0.04318 0.00123,-0.065c0,-0.02182 -0.00041,-0.04349 -0.00123,-0.065zM1.56372,0.879c-0.00632,-0.0008 -0.01267,-0.00148 -0.01904,-0.00204c0.00841,-0.10972 0.02794,-0.21437 0.05686,-0.31134c0.0021,0.00541 0.00423,0.01079 0.00639,0.01614c-0.00526,0.10396 -0.02048,0.20375 -0.04421,0.29724zM1.34967,0.67578c0.03701,0.04548 0.07089,0.09646 0.10111,0.1521c0.00176,0.01624 0.00327,0.03261 0.00454,0.04909c-0.08946,0.00789 -0.17471,0.03929 -0.25304,0.09016c-0.01301,-0.00903 -0.02582,-0.01863 -0.03839,-0.02879c0.07146,-0.07106 0.13433,-0.16 0.18578,-0.26256zM1.25519,1c0.06404,-0.03528 0.1324,-0.05712 0.20357,-0.06323c0.00082,0.02092 0.00123,0.04201 0.00123,0.06323c0,0.02123 -0.00041,0.04231 -0.00123,0.06323c-0.07117,-0.00611 -0.13954,-0.02795 -0.20357,-0.06323zM1.43312,0.7087c-0.01906,-0.02889 -0.03916,-0.05625 -0.06021,-0.08192c0.00894,-0.01994 0.01746,-0.04034 0.02555,-0.06116c0.01373,0.04606 0.02535,0.09384 0.03466,0.14308zM1.79772,0.96713c-0.00335,-0.00218 -0.00672,-0.00432 -0.01009,-0.00642c0.00677,-0.01725 0.01385,-0.03418 0.02123,-0.05079c0.00894,0.00977 0.01803,0.01925 0.02726,0.02843c-0.01257,0.01016 -0.02538,0.01976 -0.03839,0.02879zM1.77709,0.87322c-0.00894,0.01994 -0.01746,0.04034 -0.02555,0.06116c-0.01373,-0.04606 -0.02535,-0.09384 -0.03466,-0.14308c0.01906,0.02889 0.03916,0.05625 0.06021,0.08192zM1.66152,0.69752c0.00897,0.07599 0.02303,0.14934 0.04162,0.21923c-0.03199,-0.01347 -0.06486,-0.02384 -0.09843,-0.03088c0.01757,-0.07218 0.03035,-0.14781 0.03777,-0.22603c0.00617,0.01276 0.01252,0.02533 0.01903,0.03768zM1.5895,0.94338c0.04654,0.00878 0.09168,0.02432 0.13496,0.04594c0.00115,0.00357 0.00232,0.00713 0.00349,0.01068c-0.00118,0.00355 -0.00234,0.00711 -0.00349,0.01068c-0.04329,0.02162 -0.08842,0.03716 -0.13496,0.04594c-0.00548,-0.01915 -0.01131,-0.03803 -0.01746,-0.05662c0.00616,-0.01859 0.01198,-0.03747 0.01746,-0.05662zM2.14845,0.43437c-0.05813,-0.14961 -0.1386,-0.27728 -0.23457,-0.37271c0.02926,-0.02364 0.05976,-0.04428 0.09131,-0.06166h0.20481c0,0.15471 -0.02199,0.30172 -0.06155,0.43437zM1.875,0.0255c-0.01021,-0.00886 -0.02056,-0.01736 -0.03107,-0.0255l0.06213,0c-0.0105,0.00814 -0.02086,0.01665 -0.03107,0.0255zM1.69123,0.43677c0.10624,0.00912 0.20622,0.05329 0.29488,0.1249c-0.07146,0.07106 -0.13433,0.16 -0.18578,0.26256c-0.03701,-0.04548 -0.07089,-0.09646 -0.10111,-0.1521c-0.00607,-0.05603 -0.00923,-0.11352 -0.00923,-0.17213c0,-0.02123 0.00041,-0.04231 0.00123,-0.06323zM1.83198,0.86094c0.05276,-0.10534 0.11824,-0.19554 0.19302,-0.26544c0.01471,0.01375 0.02906,0.02828 0.04302,0.04357c-0.05276,0.10534 -0.11824,0.19554 -0.19302,0.26544c-0.01471,-0.01375 -0.02906,-0.02828 -0.04302,-0.04357zM2.11237,0.4607c-0.03017,0.01881 -0.05934,0.04048 -0.08737,0.0648c-0.0982,-0.08521 -0.21048,-0.13798 -0.33031,-0.14854c0.00126,-0.01648 0.00278,-0.03285 0.00454,-0.04909c0.04953,-0.09122 0.10894,-0.1699 0.17577,-0.23238c0.09743,0.09108 0.17908,0.2166 0.23737,0.3652zM2.06388,0.56166c0.01798,-0.01452 0.03643,-0.02792 0.0553,-0.04012c-0.00878,0.02341 -0.01814,0.04627 -0.02804,0.06854c-0.00894,-0.00977 -0.01803,-0.01925 -0.02726,-0.02843zM1.83612,0.06166c-0.04307,0.04283 -0.08302,0.09215 -0.11923,0.14704c0.01287,-0.06805 0.03014,-0.13333 0.05132,-0.1951c0.02328,0.01426 0.04594,0.03031 0.06791,0.04806zM1.64877,0.435c0.00041,0 0.00082,0 0.00123,0c0.00041,0 0.00082,0 0.00123,0c-0.00082,0.02151 -0.00123,0.04318 -0.00123,0.065c0,0.02465 0.00053,0.04911 0.00157,0.07336c-0.00096,-0.00225 -0.00191,-0.0045 -0.00286,-0.00676c0.00086,-0.02203 0.00129,-0.04424 0.00129,-0.06659c0,-0.02182 -0.00041,-0.04349 -0.00123,-0.065zM1.66152,0.30248c-0.00652,0.01235 -0.01286,0.02491 -0.01903,0.03768c-0.01144,-0.1206 -0.03562,-0.23504 -0.07045,-0.34015l0.15592,0c-0.03118,0.09411 -0.05383,0.19569 -0.06644,0.30248zM0.79528,0.38588c-0.03357,0.00704 -0.06643,0.0174 -0.09843,0.03088c0.03429,-0.12889 0.05315,-0.26952 0.05315,-0.41676c0,0.13556 0.01599,0.26553 0.04528,0.38588zM0.67553,0.48932c0.04329,-0.02162 0.08842,-0.03716 0.13496,-0.04594c0.00548,0.01915 0.01131,0.03803 0.01746,0.05662c-0.03482,0.10511 -0.05901,0.21955 -0.07045,0.34015c-0.00617,-0.01276 -0.01252,-0.02533 -0.01903,-0.03768c-0.01261,-0.10679 -0.03526,-0.20837 -0.06644,-0.30248c0.00118,-0.00355 0.00234,-0.00711 0.00349,-0.01068zM0.74877,0.935c0.00041,0 0.00082,0 0.00123,0c0.00041,0 0.00082,0 0.00123,0c-0.00082,0.02151 -0.00123,0.04318 -0.00123,0.065c0,0.02182 0.00041,0.04349 0.00123,0.065c-0.00041,0 -0.00082,0 -0.00123,0c-0.00041,0 -0.00082,0 -0.00123,0c0.00082,-0.02151 0.00123,-0.04318 0.00123,-0.065c0,-0.02182 -0.00041,-0.04349 -0.00123,-0.065zM0.81372,0.879c-0.00632,-0.0008 -0.01267,-0.00148 -0.01904,-0.00204c0.00841,-0.10972 0.02794,-0.21437 0.05686,-0.31134c0.0021,0.00541 0.00423,0.01079 0.00639,0.01614c-0.00526,0.10396 -0.02048,0.20375 -0.04421,0.29724zM0.59967,0.67578c0.03701,0.04548 0.07089,0.09646 0.10111,0.1521c0.00176,0.01624 0.00327,0.03261 0.00454,0.04909c-0.08946,0.00789 -0.17471,0.03929 -0.25304,0.09016c-0.01301,-0.00903 -0.02582,-0.01863 -0.03839,-0.02879c0.07146,-0.07106 0.13433,-0.16 0.18578,-0.26256zM0.50519,1c0.06404,-0.03528 0.1324,-0.05712 0.20357,-0.06323c0.00082,0.02092 0.00123,0.04201 0.00123,0.06323c0,0.02123 -0.00041,0.04231 -0.00123,0.06323c-0.07117,-0.00611 -0.13954,-0.02795 -0.20357,-0.06323zM0.68312,0.7087c-0.01906,-0.02889 -0.03916,-0.05625 -0.06021,-0.08192c0.00894,-0.01994 0.01746,-0.04034 0.02555,-0.06116c0.01373,0.04606 0.02535,0.09384 0.03466,0.14308zM1.04772,0.96713c-0.00335,-0.00218 -0.00672,-0.00432 -0.01009,-0.00642c0.00677,-0.01725 0.01385,-0.03418 0.02123,-0.05079c0.00894,0.00977 0.01803,0.01925 0.02726,0.02843c-0.01257,0.01016 -0.02538,0.01976 -0.03839,0.02879zM1.02709,0.87322c-0.00894,0.01994 -0.01746,0.04034 -0.02555,0.06116c-0.01373,-0.04606 -0.02535,-0.09384 -0.03466,-0.14308c0.01906,0.02889 0.03916,0.05625 0.06021,0.08192zM0.91152,0.69752c0.00897,0.07599 0.02303,0.14934 0.04162,0.21923c-0.03199,-0.01347 -0.06486,-0.02384 -0.09843,-0.03088c0.01757,-0.07218 0.03035,-0.14781 0.03777,-0.22603c0.00617,0.01276 0.01252,0.02533 0.01903,0.03768zM0.8395,0.94338c0.04654,0.00878 0.09168,0.02432 0.13496,0.04594c0.00115,0.00357 0.00232,0.00713 0.00349,0.01068c-0.00118,0.00355 -0.00234,0.00711 -0.00349,0.01068c-0.04329,0.02162 -0.08842,0.03716 -0.13496,0.04594c-0.00548,-0.01915 -0.01131,-0.03803 -0.01746,-0.05662c0.00616,-0.01859 0.01198,-0.03747 0.01746,-0.05662zM1.39845,0.43437c-0.05813,-0.14961 -0.1386,-0.27728 -0.23457,-0.37271c0.02926,-0.02364 0.05976,-0.04428 0.09131,-0.06166h0.20481c0,0.15471 -0.02199,0.30172 -0.06155,0.43437zM1.125,0.0255c-0.01021,-0.00886 -0.02056,-0.01736 -0.03107,-0.0255l0.06213,0c-0.0105,0.00814 -0.02086,0.01665 -0.03107,0.0255zM0.94123,0.43677c0.10624,0.00912 0.20622,0.05329 0.29488,0.1249c-0.07146,0.07106 -0.13433,0.16 -0.18578,0.26256c-0.03701,-0.04548 -0.07089,-0.09646 -0.10111,-0.1521c-0.00607,-0.05603 -0.00923,-0.11352 -0.00923,-0.17213c0,-0.02123 0.00041,-0.04231 0.00123,-0.06323zM1.08198,0.86094c0.05276,-0.10534 0.11824,-0.19554 0.19302,-0.26544c0.01471,0.01375 0.02906,0.02828 0.04302,0.04357c-0.05276,0.10534 -0.11824,0.19554 -0.19302,0.26544c-0.01471,-0.01375 -0.02906,-0.02828 -0.04302,-0.04357zM1.36237,0.4607c-0.03017,0.01881 -0.05934,0.04048 -0.08737,0.0648c-0.0982,-0.08521 -0.21048,-0.13798 -0.33031,-0.14854c0.00126,-0.01648 0.00278,-0.03285 0.00454,-0.04909c0.04953,-0.09122 0.10894,-0.1699 0.17577,-0.23238c0.09743,0.09108 0.17908,0.2166 0.23737,0.3652zM1.31388,0.56166c0.01798,-0.01452 0.03643,-0.02792 0.0553,-0.04012c-0.00878,0.02341 -0.01814,0.04627 -0.02804,0.06854c-0.00894,-0.00977 -0.01803,-0.01925 -0.02726,-0.02843zM1.08612,0.06166c-0.04307,0.04283 -0.08302,0.09215 -0.11923,0.14704c0.01287,-0.06805 0.03014,-0.13333 0.05132,-0.1951c0.02328,0.01426 0.04594,0.03031 0.06791,0.04806zM0.89877,0.435c0.00041,0 0.00082,0 0.00123,0c0.00041,0 0.00082,0 0.00123,0c-0.00082,0.02151 -0.00123,0.04318 -0.00123,0.065c0,0.02465 0.00053,0.04911 0.00157,0.07336c-0.00096,-0.00225 -0.00191,-0.0045 -0.00286,-0.00676c0.00086,-0.02203 0.00129,-0.04424 0.00129,-0.06659c0,-0.02182 -0.00041,-0.04349 -0.00123,-0.065zM0.91152,0.30248c-0.00652,0.01235 -0.01286,0.02491 -0.01903,0.03768c-0.01144,-0.1206 -0.03562,-0.23504 -0.07045,-0.34015l0.15592,0c-0.03118,0.09411 -0.05383,0.19569 -0.06644,0.30248zM0.00123,0.935c-0.00082,0.02151 -0.00123,0.04318 -0.00123,0.065v-0.065c0.00041,0 0.00082,0 0.00123,0zM0.00123,1.065c-0.00041,0 -0.00082,0 -0.00123,0v-0.065c0,0.02182 0.00041,0.04349 0.00123,0.065zM0.00458,0.87502c-0.00152,-0.00001 -0.00305,-0.00002 -0.00458,-0.00002l0,-0.41619c0.01987,-0.00641 0.04005,-0.01157 0.0605,-0.01543c0.00548,0.01915 0.01131,0.03803 0.01746,0.05662c-0.03816,0.11519 -0.06355,0.24159 -0.07338,0.37502zM0.04528,0.38588c-0.01525,0.00319 -0.03034,0.00708 -0.04528,0.01163v-0.3975c0,0.13556 0.01599,0.26553 0.04528,0.38588zM0.20315,0.91676c-0.05084,-0.02141 -0.10386,-0.03498 -0.15846,-0.03979c0.00841,-0.10972 0.02794,-0.21437 0.05686,-0.31134c0.01793,0.04615 0.03799,0.09022 0.05998,0.1319c0.00897,0.07599 0.02303,0.14934 0.04162,0.21923zM0.04123,0.93677c0.06369,0.00547 0.12513,0.02353 0.18324,0.05256c0.00115,0.00357 0.00232,0.00713 0.00349,0.01068c-0.00118,0.00355 -0.00234,0.00711 -0.00349,0.01068c-0.0581,0.02902 -0.11955,0.04709 -0.18324,0.05256c-0.00082,-0.02092 -0.00123,-0.04201 -0.00123,-0.06323c0,-0.02123 0.00041,-0.04231 0.00123,-0.06323zM0.29772,0.96713c-0.00335,-0.00218 -0.00672,-0.00432 -0.01009,-0.00642c0.00677,-0.01725 0.01385,-0.03418 0.02123,-0.05079c0.00894,0.00977 0.01803,0.01925 0.02726,0.02843c-0.01257,0.01016 -0.02538,0.01976 -0.03839,0.02879zM0.27709,0.87322c-0.00894,0.01994 -0.01746,0.04034 -0.02555,0.06116c-0.01373,-0.04606 -0.02535,-0.09384 -0.03466,-0.14308c0.01906,0.02889 0.03916,0.05625 0.06021,0.08192zM0.64845,0.43437c-0.05813,-0.14961 -0.1386,-0.27728 -0.23457,-0.37271c0.02926,-0.02364 0.05976,-0.04428 0.09131,-0.06166h0.20481c0,0.15471 -0.02199,0.30172 -0.06155,0.43437zM0.375,0.0255c-0.01021,-0.00886 -0.02056,-0.01736 -0.03107,-0.0255l0.06213,0c-0.0105,0.00814 -0.02086,0.01665 -0.03107,0.0255zM0.19123,0.43677c0.10624,0.00912 0.20622,0.05329 0.29488,0.1249c-0.07146,0.07106 -0.13433,0.16 -0.18578,0.26256c-0.03701,-0.04548 -0.07089,-0.09646 -0.10111,-0.1521c-0.00607,-0.05603 -0.00923,-0.11352 -0.00923,-0.17213c0,-0.02123 0.00041,-0.04231 0.00123,-0.06323zM0.33198,0.86094c0.05276,-0.10534 0.11824,-0.19554 0.19302,-0.26544c0.01471,0.01375 0.02906,0.02828 0.04302,0.04357c-0.05276,0.10534 -0.11824,0.19554 -0.19302,0.26544c-0.01471,-0.01375 -0.02906,-0.02828 -0.04302,-0.04357zM0.61237,0.4607c-0.03017,0.01881 -0.05934,0.04048 -0.08737,0.0648c-0.0982,-0.08521 -0.21048,-0.13798 -0.33031,-0.14854c0.00126,-0.01648 0.00278,-0.03285 0.00454,-0.04909c0.04953,-0.09122 0.10894,-0.1699 0.17577,-0.23238c0.09743,0.09108 0.17908,0.2166 0.23737,0.3652zM0.56388,0.56166c0.01798,-0.01452 0.03643,-0.02792 0.0553,-0.04012c-0.00878,0.02341 -0.01814,0.04627 -0.02804,0.06854c-0.00894,-0.00977 -0.01803,-0.01925 -0.02726,-0.02843zM0.33612,0.06166c-0.04307,0.04283 -0.08302,0.09215 -0.11923,0.14704c0.01287,-0.06805 0.03014,-0.13333 0.05132,-0.1951c0.02328,0.01426 0.04594,0.03031 0.06791,0.04806zM0.16152,0.30248c-0.01246,0.02361 -0.02429,0.04799 -0.03548,0.07309c-0.01335,0.00063 -0.02661,0.00178 -0.03977,0.00344c-0.0299,-0.11775 -0.04628,-0.24551 -0.04628,-0.379l0.18796,0c-0.03118,0.09411 -0.05383,0.19569 -0.06644,0.30248zM0.12295,0.5c0.00786,-0.02214 0.01623,-0.04382 0.02509,-0.065c0.00065,0 0.00131,0 0.00196,0c0.00041,0 0.00082,0 0.00123,0c-0.00082,0.02151 -0.00123,0.04318 -0.00123,0.065c0,0.02465 0.00053,0.04911 0.00157,0.07336c-0.01016,-0.02382 -0.01971,-0.04829 -0.02862,-0.07336zM0.85531,0.37696c-0.00637,0.00056 -0.01271,0.00124 -0.01904,0.00204c-0.02691,-0.10598 -0.04287,-0.22008 -0.04579,-0.33916c0.03331,0.10412 0.05566,0.21761 0.06483,0.33712zM1.60531,0.37696c-0.00637,0.00056 -0.01271,0.00124 -0.01904,0.00204c-0.02691,-0.10598 -0.04287,-0.22008 -0.04579,-0.33916c0.03331,0.10412 0.05566,0.21761 0.06483,0.33712zM2.35531,0.37696c-0.00637,0.00056 -0.01271,0.00124 -0.01904,0.00204c-0.02691,-0.10598 -0.04287,-0.22008 -0.04579,-0.33916c0.03331,0.10412 0.05566,0.21761 0.06483,0.33712z" fill="#d3d3d3" fill-rule="evenodd" stroke="#ff0000" stroke-width="0.005"></path></g></svg>